<?xml version="1.0" encoding="UTF-8" standalone="no"?>
<svg width="1700.79px" height="248.031px" viewBox="0 0 1700.79 248.031"
 xmlns="http://www.w3.org/2000/svg" xmlns:xlink="http://www.w3.org/1999/xlink" version="1.2" baseProfile="tiny">
<title>example (2)</title>
<desc>Generated by MuseScore 4.1.0</desc>
<path class="" fill="#ffffff" fill-rule="evenodd" d="M0,0 L1700.79,0 L1700.79,248.031 L0,248.031 L0,0 "/>
<polyline class="StaffLines" fill="none" stroke="#000000" stroke-width="2.73" stroke-linejoin="bevel" points="28.3465,73.682 1672.44,73.682"/>
<polyline class="StaffLines" fill="none" stroke="#000000" stroke-width="2.73" stroke-linejoin="bevel" points="28.3465,98.4851 1672.44,98.4851"/>
<polyline class="StaffLines" fill="none" stroke="#000000" stroke-width="2.73" stroke-linejoin="bevel" points="28.3465,123.288 1672.44,123.288"/>
<polyline class="StaffLines" fill="none" stroke="#000000" stroke-width="2.73" stroke-linejoin="bevel" points="28.3465,148.091 1672.44,148.091"/>
<polyline class="StaffLines" fill="none" stroke="#000000" stroke-width="2.73" stroke-linejoin="bevel" points="28.3465,172.895 1672.44,172.895"/>
<path class="TieSegment" stroke="#000000" stroke-width="1.74" stroke-linecap="round" stroke-linejoin="round" fill-rule="evenodd" d="M506.922,153.672 C519.396,160.121 556.817,160.121 569.291,153.672 C556.817,167.066 519.396,167.066 506.922,153.672"/>
<path class="TieSegment" stroke="#000000" stroke-width="1.74" stroke-linecap="round" stroke-linejoin="round" fill-rule="evenodd" d="M1341.4,168.802 C1346.91,180.873 1363.43,180.873 1368.93,168.802 C1363.43,187.818 1346.91,187.818 1341.4,168.802"/>
<path class="TieSegment" stroke="#000000" stroke-width="1.74" stroke-linecap="round" stroke-linejoin="round" fill-rule="evenodd" d="M1344.13,127.381 C1349.09,108.365 1363.97,108.365 1368.93,127.381 C1363.97,115.31 1349.09,115.31 1344.13,127.381"/>
<polyline class="BarLine" fill="none" stroke="#000000" stroke-width="4.46" stroke-linejoin="bevel" points="866.714,72.3178 866.714,174.259"/>
<polyline class="BarLine" fill="none" stroke="#000000" stroke-width="4.46" stroke-linejoin="bevel" points="880.355,72.3178 880.355,174.259"/>
<polyline class="BarLine" fill="none" stroke="#000000" stroke-width="4.46" stroke-linejoin="bevel" points="1670.21,72.3178 1670.21,174.259"/>
<path class="Accidental" transform="matrix(0.992126,0,0,0.992126,1276.63,135.69)" d="M12,-15.5 C7,-15.5 4.09375,-12.4063 3.59375,-11.7969 L4,-43.9063 C4,-44.7031 3.40625,-45.2969 2.59375,-45.2969 L1.40625,-45.2969 C0.59375,-45.2969 0,-44.7031 0,-43.9063 L0.5,16.2031 C0.5,17 1.09375,17.5938 1.90625,17.5938 C2.09375,17.5938 2.5,17.5 2.70313,17.4063 C11.2969,13.0938 20.2969,4.90625 20.2969,-5.40625 C20.2969,-10.5938 17.9063,-15.5 12,-15.5 M3.29688,12.7031 L3.59375,-6.79688 C3.79688,-7.70313 5.29688,-10.5938 9.29688,-10.5938 C12.9063,-10.5938 13.2031,-7.20313 13.2031,-5.09375 C13.2031,3.79688 9.90625,7.5 3.29688,12.7031"/>
<path class="Accidental" transform="matrix(0.992126,0,0,0.992126,317.978,160.493)" d="M8.59375,7 L13.5938,2.20313 L13.9063,2.20313 L18.7969,7 L18.7969,12.2969 C18.7969,13.0938 19.4063,13.7031 20.2031,13.7031 L26.1094,13.7031 C26.9063,13.7031 27.5,13.0938 27.5,12.2969 L27.5,6.40625 C27.5,5.59375 26.9063,5.09375 26.1094,5.09375 L20.7969,5.09375 L15.7969,0.09375 L15.7969,-0.09375 L20.7969,-5.09375 L26.1094,-5.09375 C26.9063,-5.09375 27.5,-5.70313 27.5,-6.5 L27.5,-12.4063 C27.5,-13.2031 26.9063,-13.7969 26.1094,-13.7969 L20.2031,-13.7969 C19.4063,-13.7969 18.7969,-13.2031 18.7969,-12.4063 L18.7969,-7.09375 L13.9063,-2.09375 L13.5938,-2.09375 L8.59375,-7.09375 L8.59375,-12.4063 C8.59375,-13.2031 8.09375,-13.7969 7.29688,-13.7969 L1.40625,-13.7969 C0.59375,-13.7969 0,-13.2031 0,-12.4063 L0,-6.5 C0,-5.70313 0.59375,-5.09375 1.40625,-5.09375 L6.70313,-5.09375 L11.5938,-0.203125 L11.5938,0.09375 L6.70313,5.09375 L1.40625,5.09375 C0.59375,5.09375 0,5.59375 0,6.40625 L0,12.2969 C0,13.0938 0.59375,13.7031 1.40625,13.7031 L7.29688,13.7031 C8.09375,13.7031 8.59375,13.0938 8.59375,12.2969 L8.59375,7 "/>
<path class="Accidental" transform="matrix(0.992126,0,0,0.992126,1191.39,123.288)" d="M28.7969,-15.5 C23.7969,-15.5 20.9063,-12.5 20.4063,-11.9063 L20.7969,-43.9063 C20.7969,-44.7031 20.2031,-45.2969 19.4063,-45.2969 L18.2031,-45.2969 C17.4063,-45.2969 16.7969,-44.7031 16.7969,-43.9063 L17.0938,-13.7969 C15.7969,-14.7969 14.2031,-15.5 12,-15.5 C7,-15.5 4.09375,-12.4063 3.59375,-11.7969 L4,-43.9063 C4,-44.7031 3.40625,-45.2969 2.59375,-45.2969 L1.40625,-45.2969 C0.59375,-45.2969 0,-44.7031 0,-43.9063 L0.5,16.2031 C0.5,17 1.09375,17.5938 1.90625,17.5938 C2.09375,17.5938 2.5,17.4063 2.70313,17.2969 C8.5,14.4063 13.5938,10.2031 17.2031,4.79688 L17.2969,16.2031 C17.2969,17 17.9063,17.5938 18.7031,17.5938 C18.9063,17.5938 19.2969,17.4063 19.5,17.2969 C28.1094,13 37.1094,4.79688 37.1094,-5.5 C37.1094,-10.7031 34.7031,-15.5 28.7969,-15.5 M3.29688,12.7031 L3.59375,-6.79688 C3.79688,-7.70313 5.29688,-10.5938 9.29688,-10.5938 C12.9063,-10.5938 13.2031,-7.20313 13.2031,-5.09375 C13.2031,3.79688 9.90625,7.5 3.29688,12.7031 M20.0938,12.7031 L20.4063,-6.79688 C20.5938,-7.70313 22.0938,-10.5938 26.1094,-10.5938 C29.7031,-10.5938 30,-7.20313 30,-5.09375 C30,3.79688 26.7031,7.5 20.0938,12.7031"/>
<path class="Accidental" transform="matrix(0.992126,0,0,0.992126,672.85,160.493)" d="M46.7031,-10.7031 C47.2969,-10.7969 47.7969,-11.5 47.7969,-12.0938 L47.7969,-18 C47.7969,-19.0938 47.1094,-19.4063 46.2031,-19.4063 L42.9063,-18.7031 L42.9063,-33.6094 L40.1094,-33.6094 L40.1094,-18.0938 L31.2031,-16.2969 L31.2031,-30.4063 L28.4063,-30.4063 L28.4063,-15.7031 L24.5,-14.9063 C23.9063,-14.7969 23.4063,-14.0938 23.4063,-13.5 L23.4063,-7.70313 C23.4063,-6.59375 24.2031,-6.29688 25.0938,-6.29688 L28.4063,-7 L28.4063,9.5 L24.5,10.2969 C23.9063,10.4063 23.4063,11.0938 23.4063,11.7031 L23.4063,17.5 C23.4063,18.5938 24.2031,18.9063 25.0938,18.9063 L28.4063,18.2031 L28.4063,33.1094 L31.2031,33.1094 L31.2031,17.5938 L40.1094,15.7969 L40.1094,29.9063 L42.9063,29.9063 L42.9063,15.2031 L46.7031,14.5 C47.2969,14.4063 47.7969,13.7031 47.7969,13.0938 L47.7969,7.20313 C47.7969,6.09375 47.1094,5.79688 46.2031,5.79688 L42.9063,6.5 L42.9063,-10 L46.7031,-10.7031 M16.5938,-18.2969 C16.4063,-18.5 16.0938,-18.5938 15.7031,-18.5938 L15.5,-18.5 C15.5,-18.5 15.4063,-18.5 15.4063,-18.5 L2.79688,-15 L2.79688,-32.5 L0,-32.5 L0,17 C0,18.0938 0.90625,18.2969 1.79688,18.2969 L14.4063,14.7969 L14.4063,32.2969 L17.0938,32.2969 C17.0938,15.7031 17.0938,-0.09375 17.0938,-17.2031 C17.0938,-17.5938 16.9063,-18.0938 16.5938,-18.2969 M2.79688,9.70313 L2.79688,-6.70313 L14.4063,-10 L14.4063,6.5 L2.79688,9.70313 M31.2031,-7.59375 L40.1094,-9.40625 L40.1094,7.09375 L31.2031,8.90625 L31.2031,-7.59375 "/>
<path class="Accidental" transform="matrix(0.992126,0,0,0.992126,1548.69,123.288)" d="M35.7031,-15.5 C30.7031,-15.5 27.7969,-12.4063 27.2969,-11.7969 L27.7031,-43.9063 C27.7031,-44.7031 27.1094,-45.2969 26.2969,-45.2969 L25.0938,-45.2969 C24.2969,-45.2969 23.7031,-44.7031 23.7031,-43.9063 L24.2031,16.2031 C24.2031,17 24.7969,17.5938 25.6094,17.5938 C25.7969,17.5938 26.2031,17.5 26.4063,17.4063 C35,13.0938 44,4.90625 44,-5.40625 C44,-10.5938 41.6094,-15.5 35.7031,-15.5 M16.5938,-18.2969 C16.4063,-18.5 16.0938,-18.5938 15.7031,-18.5938 L15.5,-18.5 C15.5,-18.5 15.4063,-18.5 15.4063,-18.5 L2.79688,-15 L2.79688,-32.5 L0,-32.5 L0,17 C0,18.0938 0.90625,18.2969 1.79688,18.2969 L14.4063,14.7969 L14.4063,32.2969 L17.0938,32.2969 C17.0938,15.7031 17.0938,-0.09375 17.0938,-17.2031 C17.0938,-17.5938 16.9063,-18.0938 16.5938,-18.2969 M27,12.7031 L27.2969,-6.79688 C27.5,-7.70313 29,-10.5938 33,-10.5938 C36.6094,-10.5938 36.9063,-7.20313 36.9063,-5.09375 C36.9063,3.79688 33.6094,7.5 27,12.7031 M2.79688,9.70313 L2.79688,-6.70313 L14.4063,-10 L14.4063,6.5 L2.79688,9.70313 "/>
<polyline class="LedgerLine" fill="none" stroke="#000000" stroke-width="3.97" stroke-linejoin="bevel" points="617.05,197.698 666.649,197.698"/>
<polyline class="Stem" fill="none" stroke="#000000" stroke-width="2.73" stroke-linejoin="bevel" points="1406.01,156.524 1406.01,55.2542"/>
<polyline class="Stem" fill="none" stroke="#000000" stroke-width="2.73" stroke-linejoin="bevel" points="307.932,144.123 307.932,73.6425"/>
<polyline class="Stem" fill="none" stroke="#000000" stroke-width="2.73" stroke-linejoin="bevel" points="825.913,168.926 825.913,79.8125"/>
<polyline class="Stem" fill="none" stroke="#000000" stroke-width="2.73" stroke-linejoin="bevel" points="1333.84,156.524 1333.84,61.1618"/>
<polyline class="Stem" fill="none" stroke="#000000" stroke-width="2.73" stroke-linejoin="bevel" points="382.326,156.524 382.326,71.4895"/>
<polyline class="Stem" fill="none" stroke="#000000" stroke-width="2.73" stroke-linejoin="bevel" points="1131.26,156.524 1131.26,49.0234"/>
<polyline class="Stem" fill="none" stroke="#000000" stroke-width="2.73" stroke-linejoin="bevel" points="450.896,144.123 450.896,69.5051"/>
<polyline class="Stem" fill="none" stroke="#000000" stroke-width="2.73" stroke-linejoin="bevel" points="519.465,131.721 519.465,67.5207"/>
<polyline class="Stem" fill="none" stroke="#000000" stroke-width="2.73" stroke-linejoin="bevel" points="588.034,131.721 588.034,67.5515"/>
<polyline class="Stem" fill="none" stroke="#000000" stroke-width="2.73" stroke-linejoin="bevel" points="1265.27,156.524 1265.27,55.1983"/>
<polyline class="Stem" fill="none" stroke="#000000" stroke-width="2.73" stroke-linejoin="bevel" points="656.604,193.729 656.604,71.0858"/>
<polyline class="Stem" fill="none" stroke="#000000" stroke-width="2.73" stroke-linejoin="bevel" points="1016.98,156.524 1016.98,61.1358"/>
<polyline class="Stem" fill="none" stroke="#000000" stroke-width="2.73" stroke-linejoin="bevel" points="757.343,156.524 757.343,76.2782"/>
<polyline class="Stem" fill="none" stroke="#000000" stroke-width="2.73" stroke-linejoin="bevel" points="1085.55,181.328 1085.55,53.8684"/>
<polyline class="Stem" fill="none" stroke="#000000" stroke-width="2.73" stroke-linejoin="bevel" points="1629.41,119.32 1629.41,55.1701"/>
<polyline class="Stem" fill="none" stroke="#000000" stroke-width="2.73" stroke-linejoin="bevel" points="1451.72,181.328 1451.72,61.1058"/>
<polyline class="Stem" fill="none" stroke="#000000" stroke-width="2.73" stroke-linejoin="bevel" points="1538.64,156.524 1538.64,61.1899"/>
<path class="Note" transform="matrix(0.992126,0,0,0.992126,986.11,160.493)" d="M0,4.20313 C0,8.5 3.09375,13.2969 11.2031,13.2969 C21.5938,13.2969 32.5,4.79688 32.5,-4 C32.5,-9.90625 27.5,-13.2031 21.2969,-13.2031 C11.5938,-13.2031 0,-5 0,4.20313"/>
<path class="Note" transform="matrix(0.992126,0,0,0.992126,1054.68,185.296)" d="M0,4.20313 C0,8.5 3.09375,13.2969 11.2031,13.2969 C21.5938,13.2969 32.5,4.79688 32.5,-4 C32.5,-9.90625 27.5,-13.2031 21.2969,-13.2031 C11.5938,-13.2031 0,-5 0,4.20313"/>
<path class="Note" transform="matrix(0.992126,0,0,0.992126,1100.39,160.493)" d="M0,4.20313 C0,8.5 3.09375,13.2969 11.2031,13.2969 C21.5938,13.2969 32.5,4.79688 32.5,-4 C32.5,-9.90625 27.5,-13.2031 21.2969,-13.2031 C11.5938,-13.2031 0,-5 0,4.20313"/>
<path class="Note" transform="matrix(0.992126,0,0,0.992126,1100.39,123.288)" d="M0,4.20313 C0,8.5 3.09375,13.2969 11.2031,13.2969 C21.5938,13.2969 32.5,4.79688 32.5,-4 C32.5,-9.90625 27.5,-13.2031 21.2969,-13.2031 C11.5938,-13.2031 0,-5 0,4.20313"/>
<path class="Note" transform="matrix(0.992126,0,0,0.992126,1234.4,160.493)" d="M0,4.20313 C0,8.5 3.09375,13.2969 11.2031,13.2969 C21.5938,13.2969 32.5,4.79688 32.5,-4 C32.5,-9.90625 27.5,-13.2031 21.2969,-13.2031 C11.5938,-13.2031 0,-5 0,4.20313"/>
<path class="Note" transform="matrix(0.992126,0,0,0.992126,1234.4,123.288)" d="M0,4.20313 C0,8.5 3.09375,13.2969 11.2031,13.2969 C21.5938,13.2969 32.5,4.79688 32.5,-4 C32.5,-9.90625 27.5,-13.2031 21.2969,-13.2031 C11.5938,-13.2031 0,-5 0,4.20313"/>
<path class="Note" transform="matrix(0.992126,0,0,0.992126,1302.97,160.493)" d="M0,4.20313 C0,8.5 3.09375,13.2969 11.2031,13.2969 C21.5938,13.2969 32.5,4.79688 32.5,-4 C32.5,-9.90625 27.5,-13.2031 21.2969,-13.2031 C11.5938,-13.2031 0,-5 0,4.20313"/>
<path class="Note" transform="matrix(0.992126,0,0,0.992126,1302.97,135.69)" d="M0,4.20313 C0,8.5 3.09375,13.2969 11.2031,13.2969 C21.5938,13.2969 32.5,4.79688 32.5,-4 C32.5,-9.90625 27.5,-13.2031 21.2969,-13.2031 C11.5938,-13.2031 0,-5 0,4.20313"/>
<path class="Note" transform="matrix(0.992126,0,0,0.992126,1375.14,160.493)" d="M0,4.20313 C0,8.5 3.09375,13.2969 11.2031,13.2969 C21.5938,13.2969 32.5,4.79688 32.5,-4 C32.5,-9.90625 27.5,-13.2031 21.2969,-13.2031 C11.5938,-13.2031 0,-5 0,4.20313"/>
<path class="Note" transform="matrix(0.992126,0,0,0.992126,1375.14,135.69)" d="M0,4.20313 C0,8.5 3.09375,13.2969 11.2031,13.2969 C21.5938,13.2969 32.5,4.79688 32.5,-4 C32.5,-9.90625 27.5,-13.2031 21.2969,-13.2031 C11.5938,-13.2031 0,-5 0,4.20313"/>
<path class="Note" transform="matrix(0.992126,0,0,0.992126,277.06,148.091)" d="M0,4.20313 C0,8.5 3.09375,13.2969 11.2031,13.2969 C21.5938,13.2969 32.5,4.79688 32.5,-4 C32.5,-9.90625 27.5,-13.2031 21.2969,-13.2031 C11.5938,-13.2031 0,-5 0,4.20313"/>
<path class="Note" transform="matrix(0.992126,0,0,0.992126,351.454,160.493)" d="M0,4.20313 C0,8.5 3.09375,13.2969 11.2031,13.2969 C21.5938,13.2969 32.5,4.79688 32.5,-4 C32.5,-9.90625 27.5,-13.2031 21.2969,-13.2031 C11.5938,-13.2031 0,-5 0,4.20313"/>
<path class="Note" transform="matrix(0.992126,0,0,0.992126,1420.85,185.296)" d="M0,4.20313 C0,8.5 3.09375,13.2969 11.2031,13.2969 C21.5938,13.2969 32.5,4.79688 32.5,-4 C32.5,-9.90625 27.5,-13.2031 21.2969,-13.2031 C11.5938,-13.2031 0,-5 0,4.20313"/>
<path class="Note" transform="matrix(0.992126,0,0,0.992126,420.023,148.091)" d="M0,4.20313 C0,8.5 3.09375,13.2969 11.2031,13.2969 C21.5938,13.2969 32.5,4.79688 32.5,-4 C32.5,-9.90625 27.5,-13.2031 21.2969,-13.2031 C11.5938,-13.2031 0,-5 0,4.20313"/>
<path class="Note" transform="matrix(0.992126,0,0,0.992126,1507.77,160.493)" d="M0,4.20313 C0,8.5 3.09375,13.2969 11.2031,13.2969 C21.5938,13.2969 32.5,4.79688 32.5,-4 C32.5,-9.90625 27.5,-13.2031 21.2969,-13.2031 C11.5938,-13.2031 0,-5 0,4.20313"/>
<path class="Note" transform="matrix(0.992126,0,0,0.992126,1598.54,123.288)" d="M0,4.20313 C0,8.5 3.09375,13.2969 11.2031,13.2969 C21.5938,13.2969 32.5,4.79688 32.5,-4 C32.5,-9.90625 27.5,-13.2031 21.2969,-13.2031 C11.5938,-13.2031 0,-5 0,4.20313"/>
<path class="Note" transform="matrix(0.992126,0,0,0.992126,488.593,135.69)" d="M0,4.20313 C0,8.5 3.09375,13.2969 11.2031,13.2969 C21.5938,13.2969 32.5,4.79688 32.5,-4 C32.5,-9.90625 27.5,-13.2031 21.2969,-13.2031 C11.5938,-13.2031 0,-5 0,4.20313"/>
<path class="Note" transform="matrix(0.992126,0,0,0.992126,557.162,135.69)" d="M0,4.20313 C0,8.5 3.09375,13.2969 11.2031,13.2969 C21.5938,13.2969 32.5,4.79688 32.5,-4 C32.5,-9.90625 27.5,-13.2031 21.2969,-13.2031 C11.5938,-13.2031 0,-5 0,4.20313"/>
<path class="Note" transform="matrix(0.992126,0,0,0.992126,625.731,197.698)" d="M0,4.20313 C0,8.5 3.09375,13.2969 11.2031,13.2969 C21.5938,13.2969 32.5,4.79688 32.5,-4 C32.5,-9.90625 27.5,-13.2031 21.2969,-13.2031 C11.5938,-13.2031 0,-5 0,4.20313"/>
<path class="Note" transform="matrix(0.992126,0,0,0.992126,726.471,160.493)" d="M0,4.20313 C0,8.5 3.09375,13.2969 11.2031,13.2969 C21.5938,13.2969 32.5,4.79688 32.5,-4 C32.5,-9.90625 27.5,-13.2031 21.2969,-13.2031 C11.5938,-13.2031 0,-5 0,4.20313"/>
<path class="Note" transform="matrix(0.992126,0,0,0.992126,795.04,172.895)" d="M0,4.20313 C0,8.5 3.09375,13.2969 11.2031,13.2969 C21.5938,13.2969 32.5,4.79688 32.5,-4 C32.5,-9.90625 27.5,-13.2031 21.2969,-13.2031 C11.5938,-13.2031 0,-5 0,4.20313"/>
<path class="Clef" transform="matrix(0.992126,0,0,0.992126,48.189,148.091)" d="M12.2969,51.2969 C12.2969,57.9063 17.2969,66.6094 30.7969,66.6094 C35.5,66.6094 39.6094,65.4063 43.2031,63.2031 C48.6094,59.4063 50,52.7969 50,46.5 C50,42.6094 49.4063,38.1094 48.4063,32.4063 C48.1094,30.4063 47.5,27.4063 46.9063,23.5 C56.7031,20.2969 64,10.0938 64,-0.203125 C64,-15.2969 53.2969,-25.5 38.7031,-25.5 C37.7031,-31.5 36.7031,-37.4063 35.9063,-43 C46.4063,-54.1094 53.7031,-66.6094 53.7031,-82.5 C53.7031,-91.6094 50.9063,-99 49.2969,-102.609 C46.9063,-107.703 44,-111.203 42.2031,-111.203 C41.5,-111.203 38.4063,-110 35.1094,-106.109 C28.7031,-98.5 26.9063,-85.7031 26.9063,-77.3125 C26.9063,-71.9063 27.4063,-67 29.1094,-55.7969 C29,-55.7031 23.7969,-50.4063 21.7031,-48.7031 C12.5938,-40.2969 0,-28.1094 0,-8.09375 C0,10.5938 16.2969,25.2969 34.9063,25.2969 C37.7969,25.2969 40.5,25 42.7969,24.5938 C44.7031,34.2031 45.9063,41.2031 45.9063,46.5 C45.9063,56.9063 40.5,62.4063 30.4063,62.4063 C28,62.4063 25.9063,61.9063 25.7031,61.9063 C25.6094,61.7969 25.4063,61.7031 25.4063,61.6094 C25.4063,61.4063 25.6094,61.2969 25.9063,61.2969 C30.6094,60.5 35.2969,56.5 35.2969,50.1094 C35.2969,44.7031 31.2031,39 23.7031,39 C16.7031,39 12.2969,44.7031 12.2969,51.2969 M33.2031,-82.2031 C34.1094,-86.2031 38.7031,-96.7031 43.9063,-96.7031 C45.4063,-96.7031 47.7969,-91.9063 47.7969,-84.9063 C47.7969,-74.5 40.1094,-66.7031 33.2031,-59.9063 C32.6094,-63.9063 32.1094,-67.7969 32.1094,-72 C32.1094,-75.7031 32.4063,-79.1094 33.2031,-82.2031 M42,20.5938 C40,21 38.1094,21.2031 36.2031,21.2031 C21.9063,21.2031 9.70313,11.2031 9.70313,-3.90625 C9.70313,-16.0938 18.2969,-27 27.1094,-34.6094 C28.7969,-36.1094 30.4063,-37.5 31.9063,-39 C32.7969,-33.6094 33.5,-28.9063 34.2031,-24.7969 C25.0938,-22.0938 18.9063,-12.5 18.9063,-3.09375 C18.9063,3.90625 24.4063,13.5 32.4063,13.5 C33.2031,13.5 34.1094,13.0938 34.1094,12.2031 C34.1094,11.2969 33.1094,10.7969 31.9063,10 C28,7.59375 25.7969,5 25.7969,0.09375 C25.7969,-6 30.4063,-10.9063 36.2031,-12.2969 L42,20.5938 M56.2031,2.09375 C56.2031,9.20313 53.2969,16.5 46.2031,19.4063 C44.1094,7.40625 41.4063,-8.5 40.7031,-12.9063 C49.7031,-12.9063 56.2031,-6.79688 56.2031,2.09375"/>
<path class="KeySig" transform="matrix(0.992126,0,0,0.992126,136.48,73.682)" d="M23.2969,-10.5 C23.9063,-10.5938 24.4063,-11.2969 24.4063,-11.9063 L24.4063,-17.7969 C24.4063,-18.7969 23.7031,-19.2031 22.7969,-19.2031 L19.5,-18.5 L19.5,-33.4063 L16.7031,-33.4063 L16.7031,-17.9063 L7.79688,-16.0938 L7.79688,-30.2031 L5,-30.2031 L5,-15.5 L1.09375,-14.7031 C0.5,-14.5938 0,-13.9063 0,-13.2969 L0,-7.5 C0,-6.40625 0.796875,-6.09375 1.70313,-6.09375 L5,-6.79688 L5,9.70313 L1.09375,10.5 C0.5,10.5938 0,11.2969 0,11.9063 L0,17.7031 C0,18.7969 0.796875,19.0938 1.70313,19.0938 L5,18.4063 L5,33.2969 L7.79688,33.2969 L7.79688,17.7969 L16.7031,16 L16.7031,30.1094 L19.5,30.1094 L19.5,15.4063 L23.2969,14.7031 C23.9063,14.5938 24.4063,13.9063 24.4063,13.2969 L24.4063,7.40625 C24.4063,6.40625 23.7031,6 22.7969,6 L19.5,6.70313 L19.5,-9.79688 L23.2969,-10.5 M7.79688,-7.40625 L16.7031,-9.20313 L16.7031,7.29688 L7.79688,9.20313 L7.79688,-7.40625 "/>
<path class="KeySig" transform="matrix(0.992126,0,0,0.992126,163.655,110.887)" d="M23.2969,-10.5 C23.9063,-10.5938 24.4063,-11.2969 24.4063,-11.9063 L24.4063,-17.7969 C24.4063,-18.7969 23.7031,-19.2031 22.7969,-19.2031 L19.5,-18.5 L19.5,-33.4063 L16.7031,-33.4063 L16.7031,-17.9063 L7.79688,-16.0938 L7.79688,-30.2031 L5,-30.2031 L5,-15.5 L1.09375,-14.7031 C0.5,-14.5938 0,-13.9063 0,-13.2969 L0,-7.5 C0,-6.40625 0.796875,-6.09375 1.70313,-6.09375 L5,-6.79688 L5,9.70313 L1.09375,10.5 C0.5,10.5938 0,11.2969 0,11.9063 L0,17.7031 C0,18.7969 0.796875,19.0938 1.70313,19.0938 L5,18.4063 L5,33.2969 L7.79688,33.2969 L7.79688,17.7969 L16.7031,16 L16.7031,30.1094 L19.5,30.1094 L19.5,15.4063 L23.2969,14.7031 C23.9063,14.5938 24.4063,13.9063 24.4063,13.2969 L24.4063,7.40625 C24.4063,6.40625 23.7031,6 22.7969,6 L19.5,6.70313 L19.5,-9.79688 L23.2969,-10.5 M7.79688,-7.40625 L16.7031,-9.20313 L16.7031,7.29688 L7.79688,9.20313 L7.79688,-7.40625 "/>
<path class="KeySig" transform="matrix(0.992126,0,0,0.992126,190.83,61.2804)" d="M23.2969,-10.5 C23.9063,-10.5938 24.4063,-11.2969 24.4063,-11.9063 L24.4063,-17.7969 C24.4063,-18.7969 23.7031,-19.2031 22.7969,-19.2031 L19.5,-18.5 L19.5,-33.4063 L16.7031,-33.4063 L16.7031,-17.9063 L7.79688,-16.0938 L7.79688,-30.2031 L5,-30.2031 L5,-15.5 L1.09375,-14.7031 C0.5,-14.5938 0,-13.9063 0,-13.2969 L0,-7.5 C0,-6.40625 0.796875,-6.09375 1.70313,-6.09375 L5,-6.79688 L5,9.70313 L1.09375,10.5 C0.5,10.5938 0,11.2969 0,11.9063 L0,17.7031 C0,18.7969 0.796875,19.0938 1.70313,19.0938 L5,18.4063 L5,33.2969 L7.79688,33.2969 L7.79688,17.7969 L16.7031,16 L16.7031,30.1094 L19.5,30.1094 L19.5,15.4063 L23.2969,14.7031 C23.9063,14.5938 24.4063,13.9063 24.4063,13.2969 L24.4063,7.40625 C24.4063,6.40625 23.7031,6 22.7969,6 L19.5,6.70313 L19.5,-9.79688 L23.2969,-10.5 M7.79688,-7.40625 L16.7031,-9.20313 L16.7031,7.29688 L7.79688,9.20313 L7.79688,-7.40625 "/>
<path class="KeySig" transform="matrix(0.992126,0,0,0.992126,894.989,123.288)" d="M12,-15.5 C7,-15.5 4.09375,-12.4063 3.59375,-11.7969 L4,-43.9063 C4,-44.7031 3.40625,-45.2969 2.59375,-45.2969 L1.40625,-45.2969 C0.59375,-45.2969 0,-44.7031 0,-43.9063 L0.5,16.2031 C0.5,17 1.09375,17.5938 1.90625,17.5938 C2.09375,17.5938 2.5,17.5 2.70313,17.4063 C11.2969,13.0938 20.2969,4.90625 20.2969,-5.40625 C20.2969,-10.5938 17.9063,-15.5 12,-15.5 M3.29688,12.7031 L3.59375,-6.79688 C3.79688,-7.70313 5.29688,-10.5938 9.29688,-10.5938 C12.9063,-10.5938 13.2031,-7.20313 13.2031,-5.09375 C13.2031,3.79688 9.90625,7.5 3.29688,12.7031"/>
<path class="KeySig" transform="matrix(0.992126,0,0,0.992126,922.552,86.0836)" d="M12,-15.5 C7,-15.5 4.09375,-12.4063 3.59375,-11.7969 L4,-43.9063 C4,-44.7031 3.40625,-45.2969 2.59375,-45.2969 L1.40625,-45.2969 C0.59375,-45.2969 0,-44.7031 0,-43.9063 L0.5,16.2031 C0.5,17 1.09375,17.5938 1.90625,17.5938 C2.09375,17.5938 2.5,17.5 2.70313,17.4063 C11.2969,13.0938 20.2969,4.90625 20.2969,-5.40625 C20.2969,-10.5938 17.9063,-15.5 12,-15.5 M3.29688,12.7031 L3.59375,-6.79688 C3.79688,-7.70313 5.29688,-10.5938 9.29688,-10.5938 C12.9063,-10.5938 13.2031,-7.20313 13.2031,-5.09375 C13.2031,3.79688 9.90625,7.5 3.29688,12.7031"/>
<path class="Rest" transform="matrix(0.992126,0,0,0.992126,1146.11,123.288)" d="M34.2969,-18.5938 C34.4063,-18.7969 34.4063,-18.9063 34.4063,-19.0938 C34.4063,-19.5938 34.1094,-20.0938 33.5,-20.2969 C33.2969,-20.4063 33.1094,-20.4063 33,-20.4063 C32.4063,-20.4063 32,-20.0938 31.7031,-19.5938 C29.2969,-14.7969 25.2969,-9.40625 19.7969,-8 C21,-9.40625 21.5,-11 21.5,-12.7969 C21.5,-16.7031 18,-19.7031 14.0938,-19.7031 C10.2031,-19.5 7.20313,-16.2031 7.20313,-12.2969 C7.40625,-6.70313 12.7969,-4.79688 17.5,-4.79688 C22.5,-5 26.4063,-7.5 29.4063,-11.4063 L24.9063,4.5 C23.5,9.29688 17.7969,15.7031 12.7031,17 C13.7969,15.5938 14.4063,13.9063 14.4063,12.2031 C14.4063,8.20313 11,5.29688 7.09375,5.29688 C3.09375,5.29688 0.09375,8.70313 0.09375,12.7031 C0.09375,15.7031 2.20313,18.2031 4.79688,19.0938 C6.70313,19.9063 8.40625,20.0938 10.4063,20.0938 C15.4063,20 19.2969,17.4063 22.2969,13.5 L12.0938,50 L14.7969,50.7031 L34.2969,-18.5938 "/>
<path class="Beam" fill-rule="evenodd" d="M1015.62,55.0449 L1132.63,42.6433 L1132.63,55.1143 L1015.62,67.5159 L1015.62,55.0449 "/>
<path class="Beam" fill-rule="evenodd" d="M1084.19,66.3798 L1132.63,61.2457 L1132.63,73.7167 L1084.19,78.8508 L1084.19,66.3798 "/>
<path class="Beam" fill-rule="evenodd" d="M1537.28,55.066 L1630.77,48.8652 L1630.77,61.294 L1537.28,67.4948 L1537.28,55.066 "/>
<path class="Beam" fill-rule="evenodd" d="M1404.64,48.8282 L1453.08,55.029 L1453.08,67.5318 L1404.64,61.331 L1404.64,48.8282 "/>
<path class="Beam" fill-rule="evenodd" d="M1404.64,67.4306 L1436.89,71.558 L1436.89,84.0608 L1404.64,79.9334 L1404.64,67.4306 "/>
<path class="Beam" fill-rule="evenodd" d="M586.67,61.2722 L827.277,73.6737 L827.277,86.0918 L586.67,73.6902 L586.67,61.2722 "/>
<path class="Beam" fill-rule="evenodd" d="M1263.9,48.8554 L1335.2,55.0562 L1335.2,67.5046 L1263.9,61.3038 L1263.9,48.8554 "/>
<path class="Beam" fill-rule="evenodd" d="M1335.2,73.6586 L1302.96,70.8543 L1302.96,83.3027 L1335.2,86.107 L1335.2,73.6586 "/>
<path class="Beam" fill-rule="evenodd" d="M306.568,67.4786 L520.829,61.2778 L520.829,73.6846 L306.568,79.8854 L306.568,67.4786 "/>
<path class="NoteDot" transform="matrix(0.992126,0,0,0.992126,1465.49,185.296)" d="M0,0 C0,2.79688 2.20313,5 5,5 C7.79688,5 10,2.79688 10,0 C10,-2.79688 7.79688,-5 5,-5 C2.20313,-5 0,-2.79688 0,0"/>
</svg>
