<?xml version="1.0" encoding="UTF-8" standalone="no"?>
<svg width="1417.32px" height="340.158px" viewBox="0 0 1417.32 340.158"
 xmlns="http://www.w3.org/2000/svg" xmlns:xlink="http://www.w3.org/1999/xlink" version="1.2" baseProfile="tiny">
<title>Cautionary Accidentals - Examples4 (9)</title>
<desc>Generated by MuseScore 4.0.2</desc>
<path class="" fill="#ffffff" fill-rule="evenodd" d="M0,0 L1417.32,0 L1417.32,340.158 L0,340.158 L0,0 "/>
<polyline class="StaffLines" fill="none" stroke="#000000" stroke-width="2.73" stroke-linejoin="bevel" points="42.5196,115.157 1374.8,115.157"/>
<polyline class="StaffLines" fill="none" stroke="#000000" stroke-width="2.73" stroke-linejoin="bevel" points="42.5196,139.961 1374.8,139.961"/>
<polyline class="StaffLines" fill="none" stroke="#000000" stroke-width="2.73" stroke-linejoin="bevel" points="42.5196,164.764 1374.8,164.764"/>
<polyline class="StaffLines" fill="none" stroke="#000000" stroke-width="2.73" stroke-linejoin="bevel" points="42.5196,189.567 1374.8,189.567"/>
<polyline class="StaffLines" fill="none" stroke="#000000" stroke-width="2.73" stroke-linejoin="bevel" points="42.5196,214.37 1374.8,214.37"/>
<path class="TieSegment" stroke="#000000" stroke-width="1.74" stroke-linecap="round" stroke-linejoin="round" fill-rule="evenodd" d="M906.366,210.278 C915.402,222.348 942.51,222.348 951.546,210.278 C942.51,229.293 915.402,229.293 906.366,210.278"/>
<polyline class="BarLine" stroke="#000000" stroke-width="4.46" stroke-linejoin="bevel" points="663.359,113.793 663.359,215.734"/>
<polyline class="BarLine" stroke="#000000" stroke-width="4.46" stroke-linejoin="bevel" points="1372.57,113.793 1372.57,215.734"/>
<path class="Accidental" transform="matrix(0.992126,0,0,0.992126,257.986,239.173)" d="M23.2969,-10.5 C23.9063,-10.5938 24.4063,-11.2969 24.4063,-11.9063 L24.4063,-17.7969 C24.4063,-18.7969 23.7031,-19.2031 22.7969,-19.2031 L19.5,-18.5 L19.5,-33.4063 L16.7031,-33.4063 L16.7031,-17.9063 L7.79688,-16.0938 L7.79688,-30.2031 L5,-30.2031 L5,-15.5 L1.09375,-14.7031 C0.5,-14.5938 0,-13.9063 0,-13.2969 L0,-7.5 C0,-6.40625 0.796875,-6.09375 1.70313,-6.09375 L5,-6.79688 L5,9.70313 L1.09375,10.5 C0.5,10.5938 0,11.2969 0,11.9063 L0,17.7031 C0,18.7969 0.796875,19.0938 1.70313,19.0938 L5,18.4063 L5,33.2969 L7.79688,33.2969 L7.79688,17.7969 L16.7031,16 L16.7031,30.1094 L19.5,30.1094 L19.5,15.4063 L23.2969,14.7031 C23.9063,14.5938 24.4063,13.9063 24.4063,13.2969 L24.4063,7.40625 C24.4063,6.40625 23.7031,6 22.7969,6 L19.5,6.70313 L19.5,-9.79688 L23.2969,-10.5 M7.79688,-7.40625 L16.7031,-9.20313 L16.7031,7.29688 L7.79688,9.20313 L7.79688,-7.40625 "/>
<path class="Accidental" transform="matrix(0.992126,0,0,0.992126,681.713,139.961)" d="M23.2969,-10.5 C23.9063,-10.5938 24.4063,-11.2969 24.4063,-11.9063 L24.4063,-17.7969 C24.4063,-18.7969 23.7031,-19.2031 22.7969,-19.2031 L19.5,-18.5 L19.5,-33.4063 L16.7031,-33.4063 L16.7031,-17.9063 L7.79688,-16.0938 L7.79688,-30.2031 L5,-30.2031 L5,-15.5 L1.09375,-14.7031 C0.5,-14.5938 0,-13.9063 0,-13.2969 L0,-7.5 C0,-6.40625 0.796875,-6.09375 1.70313,-6.09375 L5,-6.79688 L5,9.70313 L1.09375,10.5 C0.5,10.5938 0,11.2969 0,11.9063 L0,17.7031 C0,18.7969 0.796875,19.0938 1.70313,19.0938 L5,18.4063 L5,33.2969 L7.79688,33.2969 L7.79688,17.7969 L16.7031,16 L16.7031,30.1094 L19.5,30.1094 L19.5,15.4063 L23.2969,14.7031 C23.9063,14.5938 24.4063,13.9063 24.4063,13.2969 L24.4063,7.40625 C24.4063,6.40625 23.7031,6 22.7969,6 L19.5,6.70313 L19.5,-9.79688 L23.2969,-10.5 M7.79688,-7.40625 L16.7031,-9.20313 L16.7031,7.29688 L7.79688,9.20313 L7.79688,-7.40625 "/>
<path class="Accidental" transform="matrix(0.992126,0,0,0.992126,753.441,90.3543)" d="M23.2969,-10.5 C23.9063,-10.5938 24.4063,-11.2969 24.4063,-11.9063 L24.4063,-17.7969 C24.4063,-18.7969 23.7031,-19.2031 22.7969,-19.2031 L19.5,-18.5 L19.5,-33.4063 L16.7031,-33.4063 L16.7031,-17.9063 L7.79688,-16.0938 L7.79688,-30.2031 L5,-30.2031 L5,-15.5 L1.09375,-14.7031 C0.5,-14.5938 0,-13.9063 0,-13.2969 L0,-7.5 C0,-6.40625 0.796875,-6.09375 1.70313,-6.09375 L5,-6.79688 L5,9.70313 L1.09375,10.5 C0.5,10.5938 0,11.2969 0,11.9063 L0,17.7031 C0,18.7969 0.796875,19.0938 1.70313,19.0938 L5,18.4063 L5,33.2969 L7.79688,33.2969 L7.79688,17.7969 L16.7031,16 L16.7031,30.1094 L19.5,30.1094 L19.5,15.4063 L23.2969,14.7031 C23.9063,14.5938 24.4063,13.9063 24.4063,13.2969 L24.4063,7.40625 C24.4063,6.40625 23.7031,6 22.7969,6 L19.5,6.70313 L19.5,-9.79688 L23.2969,-10.5 M7.79688,-7.40625 L16.7031,-9.20313 L16.7031,7.29688 L7.79688,9.20313 L7.79688,-7.40625 "/>
<path class="Accidental" transform="matrix(0.992126,0,0,0.992126,711.376,102.756)" d="M23.2969,-10.5 C23.9063,-10.5938 24.4063,-11.2969 24.4063,-11.9063 L24.4063,-17.7969 C24.4063,-18.7969 23.7031,-19.2031 22.7969,-19.2031 L19.5,-18.5 L19.5,-33.4063 L16.7031,-33.4063 L16.7031,-17.9063 L7.79688,-16.0938 L7.79688,-30.2031 L5,-30.2031 L5,-15.5 L1.09375,-14.7031 C0.5,-14.5938 0,-13.9063 0,-13.2969 L0,-7.5 C0,-6.40625 0.796875,-6.09375 1.70313,-6.09375 L5,-6.79688 L5,9.70313 L1.09375,10.5 C0.5,10.5938 0,11.2969 0,11.9063 L0,17.7031 C0,18.7969 0.796875,19.0938 1.70313,19.0938 L5,18.4063 L5,33.2969 L7.79688,33.2969 L7.79688,17.7969 L16.7031,16 L16.7031,30.1094 L19.5,30.1094 L19.5,15.4063 L23.2969,14.7031 C23.9063,14.5938 24.4063,13.9063 24.4063,13.2969 L24.4063,7.40625 C24.4063,6.40625 23.7031,6 22.7969,6 L19.5,6.70313 L19.5,-9.79688 L23.2969,-10.5 M7.79688,-7.40625 L16.7031,-9.20313 L16.7031,7.29688 L7.79688,9.20313 L7.79688,-7.40625 "/>
<path class="Accidental" transform="matrix(0.992126,0,0,0.992126,833.446,189.567)" d="M8.5,20.7031 C8.59375,20.7969 8.90625,21 9.20313,21 C9.5,21 9.79688,20.5938 9.79688,20.2969 C9.79688,20.2031 9.79688,20.0938 9.70313,19.7969 C8.79688,17.5938 4.20313,10.5 4.20313,0 C4.20313,-5.70313 5.59375,-12.9063 9.70313,-19.9063 C9.79688,-20 9.79688,-20.2031 9.79688,-20.4063 C9.79688,-20.7031 9.5,-21.0938 9.20313,-21.0938 C8.90625,-21.0938 8.70313,-21 8.5,-20.7969 C8.29688,-20.4063 0,-15 0,0 C0,15 8.20313,20.2969 8.5,20.7031"/>
<path class="Accidental" transform="matrix(0.992126,0,0,0.992126,847.6,189.567)" d="M16.5938,-18.2969 C16.4063,-18.5 16.0938,-18.5938 15.7031,-18.5938 L15.5,-18.5 C15.5,-18.5 15.4063,-18.5 15.4063,-18.5 L2.79688,-15 L2.79688,-32.5 L0,-32.5 L0,17 C0,18.0938 0.90625,18.2969 1.79688,18.2969 L14.4063,14.7969 L14.4063,32.2969 L17.0938,32.2969 C17.0938,15.7031 17.0938,-0.09375 17.0938,-17.2031 C17.0938,-17.5938 16.9063,-18.0938 16.5938,-18.2969 M2.79688,9.70313 L2.79688,-6.70313 L14.4063,-10 L14.4063,6.5 L2.79688,9.70313 "/>
<path class="Accidental" transform="matrix(0.992126,0,0,0.992126,868.915,189.567)" d="M1.40625,20.7031 C1.70313,20.2969 9.90625,15 9.90625,0 C9.90625,-15 1.59375,-20.4063 1.40625,-20.7969 C1.20313,-21 1,-21.0938 0.703125,-21.0938 C0.40625,-21.0938 0.09375,-20.7031 0.09375,-20.4063 C0.09375,-20.2031 0.09375,-20 0.203125,-19.9063 C4.29688,-12.9063 5.70313,-5.70313 5.70313,0 C5.70313,10.5 1.09375,17.5938 0.203125,19.7969 C0.09375,20.0938 0.09375,20.2031 0.09375,20.2969 C0.09375,20.5938 0.40625,21 0.703125,21 C1,21 1.29688,20.7969 1.40625,20.7031"/>
<path class="Accidental" transform="matrix(0.992126,0,0,0.992126,732.358,177.165)" d="M8.5,20.7031 C8.59375,20.7969 8.90625,21 9.20313,21 C9.5,21 9.79688,20.5938 9.79688,20.2969 C9.79688,20.2031 9.79688,20.0938 9.70313,19.7969 C8.79688,17.5938 4.20313,10.5 4.20313,0 C4.20313,-5.70313 5.59375,-12.9063 9.70313,-19.9063 C9.79688,-20 9.79688,-20.2031 9.79688,-20.4063 C9.79688,-20.7031 9.5,-21.0938 9.20313,-21.0938 C8.90625,-21.0938 8.70313,-21 8.5,-20.7969 C8.29688,-20.4063 0,-15 0,0 C0,15 8.20313,20.2969 8.5,20.7031"/>
<path class="Accidental" transform="matrix(0.992126,0,0,0.992126,746.511,177.165)" d="M16.5938,-18.2969 C16.4063,-18.5 16.0938,-18.5938 15.7031,-18.5938 L15.5,-18.5 C15.5,-18.5 15.4063,-18.5 15.4063,-18.5 L2.79688,-15 L2.79688,-32.5 L0,-32.5 L0,17 C0,18.0938 0.90625,18.2969 1.79688,18.2969 L14.4063,14.7969 L14.4063,32.2969 L17.0938,32.2969 C17.0938,15.7031 17.0938,-0.09375 17.0938,-17.2031 C17.0938,-17.5938 16.9063,-18.0938 16.5938,-18.2969 M2.79688,9.70313 L2.79688,-6.70313 L14.4063,-10 L14.4063,6.5 L2.79688,9.70313 "/>
<path class="Accidental" transform="matrix(0.992126,0,0,0.992126,767.827,177.165)" d="M1.40625,20.7031 C1.70313,20.2969 9.90625,15 9.90625,0 C9.90625,-15 1.59375,-20.4063 1.40625,-20.7969 C1.20313,-21 1,-21.0938 0.703125,-21.0938 C0.40625,-21.0938 0.09375,-20.7031 0.09375,-20.4063 C0.09375,-20.2031 0.09375,-20 0.203125,-19.9063 C4.29688,-12.9063 5.70313,-5.70313 5.70313,0 C5.70313,10.5 1.09375,17.5938 0.203125,19.7969 C0.09375,20.0938 0.09375,20.2031 0.09375,20.2969 C0.09375,20.5938 0.40625,21 0.703125,21 C1,21 1.29688,20.7969 1.40625,20.7031"/>
<polyline class="LedgerLine" stroke="#000000" stroke-width="3.97" stroke-linejoin="bevel" points="288.393,239.173 337.991,239.173"/>
<polyline class="LedgerLine" stroke="#000000" stroke-width="3.97" stroke-linejoin="bevel" points="813.356,90.3543 862.954,90.3543"/>
<polyline class="LedgerLine" stroke="#000000" stroke-width="3.97" stroke-linejoin="bevel" points="1252.44,239.173 1302.04,239.173"/>
<polyline class="Stem" stroke="#000000" stroke-width="2.73" stroke-linejoin="bevel" points="218.73,222.803 218.73,139.961"/>
<polyline class="Stem" stroke="#000000" stroke-width="2.73" stroke-linejoin="bevel" points="327.946,235.205 327.946,152.362"/>
<polyline class="Stem" stroke="#000000" stroke-width="2.73" stroke-linejoin="bevel" points="407.654,156.529 407.654,232.972"/>
<polyline class="Stem" stroke="#000000" stroke-width="2.73" stroke-linejoin="bevel" points="516.87,168.931 516.87,239.061"/>
<polyline class="Stem" stroke="#000000" stroke-width="2.73" stroke-linejoin="bevel" points="589.68,131.726 589.68,233.084"/>
<polyline class="Stem" stroke="#000000" stroke-width="2.73" stroke-linejoin="bevel" points="823.401,135.992 823.401,28.3465"/>
<polyline class="Stem" stroke="#000000" stroke-width="2.73" stroke-linejoin="bevel" points="886.3,193.734 886.3,251.486"/>
<polyline class="Stem" stroke="#000000" stroke-width="2.73" stroke-linejoin="bevel" points="793.893,181.332 793.893,245.463"/>
<polyline class="Stem" stroke="#000000" stroke-width="2.73" stroke-linejoin="bevel" points="959.111,193.734 959.111,301.181"/>
<polyline class="Stem" stroke="#000000" stroke-width="2.73" stroke-linejoin="bevel" points="1007.65,230.939 1007.65,301.181"/>
<polyline class="Stem" stroke="#000000" stroke-width="2.73" stroke-linejoin="bevel" points="1056.19,218.537 1056.19,301.181"/>
<polyline class="Stem" stroke="#000000" stroke-width="2.73" stroke-linejoin="bevel" points="1104.73,206.135 1104.73,301.181"/>
<polyline class="Stem" stroke="#000000" stroke-width="2.73" stroke-linejoin="bevel" points="1153.27,218.537 1153.27,276.378"/>
<polyline class="Stem" stroke="#000000" stroke-width="2.73" stroke-linejoin="bevel" points="1262.49,255.742 1262.49,313.583"/>
<path class="Note" transform="matrix(0.992126,0,0,0.992126,406.29,152.362)" d="M0,4.20313 C0,8.5 3.09375,13.2969 11.2031,13.2969 C21.5938,13.2969 32.5,4.79688 32.5,-4 C32.5,-9.90625 27.5,-13.2031 21.2969,-13.2031 C11.5938,-13.2031 0,-5 0,4.20313"/>
<path class="Note" transform="matrix(0.992126,0,0,0.992126,515.506,164.764)" d="M0,4.20313 C0,8.5 3.09375,13.2969 11.2031,13.2969 C21.5938,13.2969 32.5,4.79688 32.5,-4 C32.5,-9.90625 27.5,-13.2031 21.2969,-13.2031 C11.5938,-13.2031 0,-5 0,4.20313"/>
<path class="Note" transform="matrix(0.992126,0,0,0.992126,588.316,127.559)" d="M0,4.20313 C0,8.5 3.09375,13.2969 11.2031,13.2969 C21.5938,13.2969 32.5,4.79688 32.5,-4 C32.5,-9.90625 27.5,-13.2031 21.2969,-13.2031 C11.5938,-13.2031 0,-5 0,4.20313"/>
<path class="Note" transform="matrix(0.992126,0,0,0.992126,792.529,102.756)" d="M0,4.20313 C0,8.5 3.09375,13.2969 11.2031,13.2969 C21.5938,13.2969 32.5,4.79688 32.5,-4 C32.5,-9.90625 27.5,-13.2031 21.2969,-13.2031 C11.5938,-13.2031 0,-5 0,4.20313"/>
<path class="Note" transform="matrix(0.992126,0,0,0.992126,822.037,90.3543)" d="M0,4.20313 C0,8.5 3.09375,13.2969 11.2031,13.2969 C21.5938,13.2969 32.5,4.79688 32.5,-4 C32.5,-9.90625 27.5,-13.2031 21.2969,-13.2031 C11.5938,-13.2031 0,-5 0,4.20313"/>
<path class="Note" transform="matrix(0.992126,0,0,0.992126,297.074,239.173)" d="M0,4.20313 C0,8.5 3.09375,13.2969 11.2031,13.2969 C21.5938,13.2969 32.5,4.79688 32.5,-4 C32.5,-9.90625 27.5,-13.2031 21.2969,-13.2031 C11.5938,-13.2031 0,-5 0,4.20313"/>
<path class="Note" transform="matrix(0.992126,0,0,0.992126,792.529,139.961)" d="M0,4.20313 C0,8.5 3.09375,13.2969 11.2031,13.2969 C21.5938,13.2969 32.5,4.79688 32.5,-4 C32.5,-9.90625 27.5,-13.2031 21.2969,-13.2031 C11.5938,-13.2031 0,-5 0,4.20313"/>
<path class="Note" transform="matrix(0.992126,0,0,0.992126,187.858,226.772)" d="M0,4.20313 C0,8.5 3.09375,13.2969 11.2031,13.2969 C21.5938,13.2969 32.5,4.79688 32.5,-4 C32.5,-9.90625 27.5,-13.2031 21.2969,-13.2031 C11.5938,-13.2031 0,-5 0,4.20313"/>
<path class="Note" transform="matrix(0.992126,0,0,0.992126,1006.29,226.772)" d="M0,4.20313 C0,8.5 3.09375,13.2969 11.2031,13.2969 C21.5938,13.2969 32.5,4.79688 32.5,-4 C32.5,-9.90625 27.5,-13.2031 21.2969,-13.2031 C11.5938,-13.2031 0,-5 0,4.20313"/>
<path class="Note" transform="matrix(0.992126,0,0,0.992126,1054.83,214.37)" d="M0,4.20313 C0,8.5 3.09375,13.2969 11.2031,13.2969 C21.5938,13.2969 32.5,4.79688 32.5,-4 C32.5,-9.90625 27.5,-13.2031 21.2969,-13.2031 C11.5938,-13.2031 0,-5 0,4.20313"/>
<path class="Note" transform="matrix(0.992126,0,0,0.992126,884.936,189.567)" d="M0,4.20313 C0,8.5 3.09375,13.2969 11.2031,13.2969 C21.5938,13.2969 32.5,4.79688 32.5,-4 C32.5,-9.90625 27.5,-13.2031 21.2969,-13.2031 C11.5938,-13.2031 0,-5 0,4.20313"/>
<path class="Note" transform="matrix(0.992126,0,0,0.992126,1103.37,201.969)" d="M0,4.20313 C0,8.5 3.09375,13.2969 11.2031,13.2969 C21.5938,13.2969 32.5,4.79688 32.5,-4 C32.5,-9.90625 27.5,-13.2031 21.2969,-13.2031 C11.5938,-13.2031 0,-5 0,4.20313"/>
<path class="Note" transform="matrix(0.992126,0,0,0.992126,792.529,177.165)" d="M0,4.20313 C0,8.5 3.09375,13.2969 11.2031,13.2969 C21.5938,13.2969 32.5,4.79688 32.5,-4 C32.5,-9.90625 27.5,-13.2031 21.2969,-13.2031 C11.5938,-13.2031 0,-5 0,4.20313"/>
<path class="Note" transform="matrix(0.992126,0,0,0.992126,1151.91,214.37)" d="M0,4.20313 C0,8.5 3.09375,13.2969 11.2031,13.2969 C21.5938,13.2969 32.5,4.79688 32.5,-4 C32.5,-9.90625 27.5,-13.2031 21.2969,-13.2031 C11.5938,-13.2031 0,-5 0,4.20313"/>
<path class="Note" transform="matrix(0.992126,0,0,0.992126,1261.12,251.575)" d="M0,4.20313 C0,8.5 3.09375,13.2969 11.2031,13.2969 C21.5938,13.2969 32.5,4.79688 32.5,-4 C32.5,-9.90625 27.5,-13.2031 21.2969,-13.2031 C11.5938,-13.2031 0,-5 0,4.20313"/>
<path class="Note" transform="matrix(0.992126,0,0,0.992126,957.747,189.567)" d="M0,4.20313 C0,8.5 3.09375,13.2969 11.2031,13.2969 C21.5938,13.2969 32.5,4.79688 32.5,-4 C32.5,-9.90625 27.5,-13.2031 21.2969,-13.2031 C11.5938,-13.2031 0,-5 0,4.20313"/>
<path class="Clef" transform="matrix(0.992126,0,0,0.992126,62.3621,189.567)" d="M12.2969,51.2969 C12.2969,57.9063 17.2969,66.6094 30.7969,66.6094 C35.5,66.6094 39.6094,65.4063 43.2031,63.2031 C48.6094,59.4063 50,52.7969 50,46.5 C50,42.6094 49.4063,38.1094 48.4063,32.4063 C48.1094,30.4063 47.5,27.4063 46.9063,23.5 C56.7031,20.2969 64,10.0938 64,-0.203125 C64,-15.2969 53.2969,-25.5 38.7031,-25.5 C37.7031,-31.5 36.7031,-37.4063 35.9063,-43 C46.4063,-54.1094 53.7031,-66.6094 53.7031,-82.5 C53.7031,-91.6094 50.9063,-99 49.2969,-102.609 C46.9063,-107.703 44,-111.203 42.2031,-111.203 C41.5,-111.203 38.4063,-110 35.1094,-106.109 C28.7031,-98.5 26.9063,-85.7031 26.9063,-77.3125 C26.9063,-71.9063 27.4063,-67 29.1094,-55.7969 C29,-55.7031 23.7969,-50.4063 21.7031,-48.7031 C12.5938,-40.2969 0,-28.1094 0,-8.09375 C0,10.5938 16.2969,25.2969 34.9063,25.2969 C37.7969,25.2969 40.5,25 42.7969,24.5938 C44.7031,34.2031 45.9063,41.2031 45.9063,46.5 C45.9063,56.9063 40.5,62.4063 30.4063,62.4063 C28,62.4063 25.9063,61.9063 25.7031,61.9063 C25.6094,61.7969 25.4063,61.7031 25.4063,61.6094 C25.4063,61.4063 25.6094,61.2969 25.9063,61.2969 C30.6094,60.5 35.2969,56.5 35.2969,50.1094 C35.2969,44.7031 31.2031,39 23.7031,39 C16.7031,39 12.2969,44.7031 12.2969,51.2969 M33.2031,-82.2031 C34.1094,-86.2031 38.7031,-96.7031 43.9063,-96.7031 C45.4063,-96.7031 47.7969,-91.9063 47.7969,-84.9063 C47.7969,-74.5 40.1094,-66.7031 33.2031,-59.9063 C32.6094,-63.9063 32.1094,-67.7969 32.1094,-72 C32.1094,-75.7031 32.4063,-79.1094 33.2031,-82.2031 M42,20.5938 C40,21 38.1094,21.2031 36.2031,21.2031 C21.9063,21.2031 9.70313,11.2031 9.70313,-3.90625 C9.70313,-16.0938 18.2969,-27 27.1094,-34.6094 C28.7969,-36.1094 30.4063,-37.5 31.9063,-39 C32.7969,-33.6094 33.5,-28.9063 34.2031,-24.7969 C25.0938,-22.0938 18.9063,-12.5 18.9063,-3.09375 C18.9063,3.90625 24.4063,13.5 32.4063,13.5 C33.2031,13.5 34.1094,13.0938 34.1094,12.2031 C34.1094,11.2969 33.1094,10.7969 31.9063,10 C28,7.59375 25.7969,5 25.7969,0.09375 C25.7969,-6 30.4063,-10.9063 36.2031,-12.2969 L42,20.5938 M56.2031,2.09375 C56.2031,9.20313 53.2969,16.5 46.2031,19.4063 C44.1094,7.40625 41.4063,-8.5 40.7031,-12.9063 C49.7031,-12.9063 56.2031,-6.79688 56.2031,2.09375"/>
<path class="Rest" transform="matrix(0.992126,0,0,0.992126,1151.91,115.157)" d="M0,-1 C0,0.40625 0,0.40625 1.40625,0.40625 L31.1094,0.40625 C32.5,0.40625 32.5,0.40625 32.5,-1 L32.5,-11.7969 C32.5,-13.2031 32.5,-13.2031 31.1094,-13.2031 L1.40625,-13.2031 C0,-13.2031 0,-13.2031 0,-11.7969 L0,-1 "/>
<path class="Rest" transform="matrix(0.992126,0,0,0.992126,957.747,115.157)" d="M23,16.5938 C22.9063,16.5 22.7031,16.2969 22.4063,15.9063 L10.9063,1.70313 C10.7969,1.59375 10.7031,1.29688 10.7031,1.09375 C10.7031,0.796875 10.7969,0.40625 10.9063,0.203125 L21.0938,-15.2031 C21.2031,-15.4063 21.2969,-15.7031 21.2969,-15.9063 L21.2969,-16.7969 C21.2969,-17.0938 21.2031,-17.4063 21,-17.5938 L4.79688,-39.5 C4.79688,-39.5 4.40625,-40.1094 3.79688,-40.1094 C3.5,-40.1094 3.29688,-40.1094 3,-39.7969 C2.59375,-39.5 2.5,-39.1094 2.5,-38.7969 C2.5,-38.2031 2.79688,-37.7031 2.79688,-37.7031 L10.4063,-27.2969 C10.5938,-27 10.7031,-26.6094 10.7031,-26.1094 C10.7031,-25.7031 10.5938,-25.2031 10.4063,-24.9063 L0.296875,-9.5 C0.203125,-9.29688 0.09375,-8.90625 0.09375,-8.70313 L0.09375,-7.79688 C0.09375,-7.5 0.203125,-7.20313 0.40625,-7 L11.5938,6.90625 C11.2031,6.79688 10.2969,6.59375 9.09375,6.59375 C4,6.59375 0,10.7969 0,15.9063 C0,17.2969 0.296875,18.7031 1.09375,19.7969 C3.20313,23 10.7031,32.5 10.7031,32.5 C10.7031,32.5 11.2031,33.1094 11.9063,33.1094 C12.0938,33.1094 12.2969,33.1094 12.5,32.9063 C13,32.5 13.2031,32.1094 13.2031,31.7031 C13.2031,31.2969 13,31 12.9063,30.7969 C12.5938,30.2969 9.40625,24.5 9.40625,24.5 C9.40625,24.5 8.70313,23.0938 8.70313,21.2969 C8.70313,18.0938 11.0938,15.5 14.2969,15.5 C15.5938,15.5 16.7031,15.9063 17.5,16.4063 L21.4063,18.9063 C21.4063,18.9063 21.7969,19.0938 22.2031,19.0938 C22.5938,19.0938 22.9063,19 23.2031,18.5938 C23.4063,18.2969 23.5,18 23.5,17.7031 C23.5,17.4063 23.4063,17.2031 23.2031,16.9063 L23,16.5938 "/>
<path class="Beam" fill-rule="evenodd" d="M515.506,232.952 L591.044,226.751 L591.044,239.194 L515.506,245.395 L515.506,232.952 "/>
<path class="Beam" fill-rule="evenodd" d="M792.529,239.16 L887.665,245.361 L887.665,257.789 L792.529,251.588 L792.529,239.16 "/>
<path class="Beam" fill-rule="evenodd" d="M957.747,294.98 L1106.1,294.98 L1106.1,307.382 L957.747,307.382 L957.747,294.98 "/>
<path class="Beam" fill-rule="evenodd" d="M957.747,276.378 L1106.1,276.378 L1106.1,288.78 L957.747,288.78 L957.747,276.378 "/>
</svg>
