/* XPM */
static const char * fforward_xpm[] = {
"17 12 4 1",
" 	c None",
".	c #000000",
"X	c #808080",
"o	c #FFFFFF",
" ...    ...      ",
"X.oo.   .oo.     ",
"X.o o..X.o o..   ",
"X.o  oo..o  oo.  ",
"X.o    o.o   oo. ",
"X.o    X.o     o.",
"X.o    X.o     . ",
"X.o    ..o    .  ",
"X.o  ..X.o  ..X  ",
"X.o .X X.o .X    ",
"X...X  X...X     ",
" XXX    XXX      "};
