<?xml version="1.0" encoding="UTF-8" standalone="no"?>
<!DOCTYPE svg PUBLIC "-//W3C//DTD SVG 20010904//EN"
"http://www.w3.org/TR/2001/REC-SVG-20010904/DTD/svg10.dtd">
<svg
   sodipodi:docname="charselect.svg"
   height="60.0000000"
   sodipodi:version="0.32"
   width="60.0000000"
   _SVGFile__filename="scalable/apps/charselect.svg"
   version="1.0"
   y="0"
   x="0"
   inkscape:version="0.39"
   id="svg1"
   sodipodi:docbase="/home/danny/work/flat/newscale/apps"
   xmlns="http://www.w3.org/2000/svg"
   xmlns:cc="http://web.resource.org/cc/"
   xmlns:inkscape="http://www.inkscape.org/namespaces/inkscape"
   xmlns:sodipodi="http://sodipodi.sourceforge.net/DTD/sodipodi-0.dtd"
   xmlns:rdf="http://www.w3.org/1999/02/22-rdf-syntax-ns#"
   xmlns:dc="http://purl.org/dc/elements/1.1/"
   xmlns:xlink="http://www.w3.org/1999/xlink">
  <sodipodi:namedview
     bordercolor="#666666"
     inkscape:pageshadow="2"
     inkscape:window-y="0"
     pagecolor="#ffffff"
     inkscape:window-height="699"
     inkscape:zoom="9.8238822"
     inkscape:window-x="0"
     borderopacity="1.0"
     inkscape:cx="38.163004"
     inkscape:cy="25.599765"
     inkscape:window-width="1024"
     inkscape:pageopacity="0.0"
     id="base" />
  <defs
     id="defs3" />
  <g
     id="g1558"
     transform="translate(0.190855,0.318098)">
    <path
       transform="matrix(1.057751,0.000000,0.000000,1.106918,-6.381300e-2,-1.219822)"
       style="font-size:12.000000;fill:#b3b3b3;fill-rule:evenodd;stroke:#4c4c4c;stroke-width:2.8880200;stroke-linejoin:round;stroke-opacity:1.0000000;"
       d="M 5.3082645,4.2684689 C 4.2002645,4.2684689 3.3082645,5.1604689 3.3082645,6.2684689 L 3.3082645,22.499779 C 3.3082645,23.607779 4.2002645,24.499779 5.3082645,24.499779 L 43.170535,24.499779 C 44.278535,24.499779 45.170535,23.607779 45.170535,22.499779 L 45.170535,6.2684689 C 45.170535,5.1604689 44.278535,4.2684689 43.170535,4.2684689 L 5.3082645,4.2684689 z "
       id="rect773" />
    <path
       style="font-size:12.000000;fill:#333333;stroke-width:1.0000000pt;font-family:VAG Rounded Black SSi;"
       d="M 29.952112,21.097859 L 29.952112,8.1746156 C 29.952112,7.6737934 30.090853,7.2677214 30.368337,6.9563995 C 30.645819,6.6450776 31.004515,6.4894167 31.444426,6.4894167 C 31.735445,6.4894167 31.992625,6.5604793 32.215964,6.7026046 C 32.446071,6.8447297 32.625420,7.0477657 32.754010,7.3117126 C 32.882598,7.5688916 32.946894,7.8565259 32.946894,8.1746156 L 32.946894,21.097859 C 32.946894,21.422717 32.882598,21.717117 32.754010,21.981064 C 32.625420,22.238244 32.446071,22.437896 32.215964,22.580021 C 31.985856,22.715378 31.728678,22.783057 31.444426,22.783057 C 30.997748,22.783057 30.635666,22.630780 30.358184,22.326226 C 30.087469,22.014903 29.952112,21.605448 29.952112,21.097859 z M 23.028583,21.097859 L 23.028583,12.864748 C 23.028583,12.397765 23.180861,12.032300 23.485415,11.768353 C 23.796737,11.504406 24.155434,11.372433 24.561506,11.372433 C 25.536079,11.372433 26.023365,11.788657 26.023365,12.621105 L 26.063973,12.621105 C 26.368527,12.181193 26.679848,11.863103 26.997938,11.666835 C 27.316028,11.470567 27.705180,11.372433 28.165395,11.372433 C 28.551163,11.372433 28.889557,11.511174 29.180576,11.788657 C 29.471593,12.066139 29.617103,12.462060 29.617103,12.976418 C 29.617103,13.274204 29.539272,13.504311 29.383611,13.666740 C 29.234719,13.829169 29.028298,13.964526 28.764351,14.072812 C 28.500405,14.181098 28.189083,14.306303 27.830386,14.448429 C 27.234814,14.719143 26.784750,14.993242 26.480196,15.270725 C 26.175643,15.541439 26.023365,15.940743 26.023365,16.468637 L 26.023365,21.097859 C 26.023365,21.422717 25.959071,21.717117 25.830481,21.981064 C 25.701891,22.238244 25.522544,22.437896 25.292436,22.580021 C 25.062329,22.715378 24.805149,22.783057 24.520900,22.783057 C 24.074219,22.783057 23.712139,22.630780 23.434655,22.326226 C 23.163941,22.014903 23.028583,21.605448 23.028583,21.097859 z M 17.648130,21.097859 L 17.648130,14.133723 L 16.978111,14.133723 C 16.572039,14.133723 16.253949,14.018669 16.023842,13.788562 C 15.786966,13.551686 15.668529,13.223445 15.668529,12.803837 C 15.668529,12.431604 15.793734,12.120282 16.044144,11.869871 C 16.294557,11.619460 16.605878,11.494255 16.978111,11.494255 L 17.648130,11.494255 L 17.648130,9.6872339 C 17.648130,9.1796440 17.783488,8.7735720 18.054202,8.4690178 C 18.331684,8.1576960 18.693765,8.0020351 19.140445,8.0020351 C 19.431463,8.0020351 19.692025,8.0730977 19.922134,8.2152228 C 20.152240,8.3573481 20.328206,8.5570002 20.450026,8.8141792 C 20.578616,9.0645902 20.642910,9.3556085 20.642910,9.6872339 L 20.642910,11.494255 L 21.495663,11.494255 C 21.908502,11.494255 22.250280,11.602541 22.520995,11.819112 C 22.791709,12.028916 22.927067,12.357158 22.927067,12.803837 C 22.927067,13.257284 22.791709,13.592294 22.520995,13.808865 C 22.257047,14.025437 21.915269,14.133723 21.495663,14.133723 L 20.642910,14.133723 L 20.642910,21.097859 C 20.642910,21.422717 20.578616,21.717117 20.450026,21.981064 C 20.321436,22.238244 20.142089,22.437896 19.911981,22.580021 C 19.681874,22.715378 19.424694,22.783057 19.140445,22.783057 C 18.693765,22.783057 18.331684,22.630780 18.054202,22.326226 C 17.783488,22.014903 17.648130,21.605448 17.648130,21.097859 z M 15.881716,13.138846 C 15.881716,13.490775 15.770046,13.822401 15.546707,14.133723 C 15.330135,14.438277 15.059420,14.590554 14.734563,14.590554 C 14.497687,14.590554 14.132223,14.495804 13.638169,14.306303 C 13.144114,14.110035 12.721123,14.011901 12.369194,14.011901 C 11.956353,14.011901 11.590889,14.099884 11.272798,14.275848 C 10.954709,14.445045 10.687378,14.678536 10.470807,14.976322 C 10.261003,15.274109 10.105342,15.602350 10.003824,15.961047 C 9.9023057,16.312976 9.8515466,16.688593 9.8515466,17.087897 C 9.8515466,17.446594 9.9056896,17.812059 10.013975,18.184291 C 10.129029,18.556524 10.294842,18.891534 10.511414,19.189320 C 10.727986,19.487106 10.995316,19.720598 11.313407,19.889794 C 11.638264,20.058990 11.990193,20.143588 12.369194,20.143588 C 12.578996,20.143588 12.792184,20.109749 13.008756,20.042072 C 13.232097,19.967625 13.529883,19.859339 13.902115,19.717214 C 14.274348,19.575088 14.504456,19.504025 14.592438,19.504025 C 14.944367,19.504025 15.245537,19.636000 15.495948,19.899945 C 15.753127,20.157125 15.881716,20.468446 15.881716,20.833912 C 15.881716,21.300894 15.668529,21.693431 15.242153,22.011520 C 14.822545,22.322842 14.318340,22.549565 13.729535,22.691690 C 13.140730,22.840584 12.636525,22.915031 12.216916,22.915031 C 11.174665,22.915031 10.244083,22.654467 9.4251711,22.133342 C 8.6130270,21.605448 7.9802314,20.898206 7.5267842,20.011615 C 7.0801050,19.118257 6.8567654,18.143684 6.8567654,17.087897 C 6.8567654,16.336664 6.9853548,15.609118 7.2425338,14.905260 C 7.4997127,14.201402 7.8651776,13.575374 8.3389283,13.027177 C 8.8194469,12.478979 9.3947155,12.045836 10.064734,11.727746 C 10.734753,11.409656 11.452148,11.250612 12.216916,11.250612 C 12.677131,11.250612 13.194873,11.314906 13.770141,11.443496 C 14.352178,11.565317 14.849616,11.768353 15.262457,12.052604 C 15.675297,12.330086 15.881716,12.692167 15.881716,13.138846 z "
       id="path835" />
    <path
       style="fill:none;fill-opacity:0.75000000;fill-rule:evenodd;stroke:#4c4c4c;stroke-width:3.1250000;stroke-linecap:round;stroke-linejoin:round;stroke-dasharray:3.1250000 3.1250000 ;stroke-dashoffset:0.0000000;stroke-opacity:1.0000000;"
       d="M 12.978576,26.281151 L 12.978576,45.112810 L 22.139923,45.112810"
       sodipodi:stroke-cmyk="(0.0000000 0.0000000 0.0000000 0.69999999)"
       id="path793" />
    <path
       transform="matrix(0.814590,0.000000,0.000000,1.106918,19.57228,29.06353)"
       style="font-size:12.000000;fill:#b3b3b3;fill-rule:evenodd;stroke:#4c4c4c;stroke-width:3.2909601;stroke-linejoin:round;stroke-opacity:1.0000000;"
       d="M 5.3082645,4.2684689 C 4.2002645,4.2684689 3.3082645,5.1604689 3.3082645,6.2684689 L 3.3082645,22.499779 C 3.3082645,23.607779 4.2002645,24.499779 5.3082645,24.499779 L 43.170535,24.499779 C 44.278535,24.499779 45.170535,23.607779 45.170535,22.499779 L 45.170535,6.2684689 C 45.170535,5.1604689 44.278535,4.2684689 43.170535,4.2684689 L 5.3082645,4.2684689 z "
       id="rect776" />
    <path
       id="path834"
       style="font-size:12.000000;fill:#333333;stroke-width:1.0000000pt;font-family:VAG Rounded Black SSi;"
       d="M 47.825336,51.381211 L 47.825336,44.417075 L 47.155317,44.417075 C 46.749245,44.417075 46.431155,44.302021 46.201048,44.071913 C 45.964172,43.835038 45.845735,43.506796 45.845735,43.087189 C 45.845735,42.714956 45.970940,42.403634 46.221352,42.153223 C 46.471763,41.902812 46.783084,41.777606 47.155317,41.777606 L 47.825336,41.777606 L 47.825336,39.970586 C 47.825336,39.462996 47.960693,39.056924 48.231408,38.752370 C 48.508890,38.441048 48.870971,38.285387 49.317651,38.285387 C 49.608669,38.285387 49.869231,38.356450 50.099340,38.498575 C 50.329446,38.640700 50.505412,38.840352 50.627232,39.097531 C 50.755822,39.347942 50.820116,39.638960 50.820116,39.970586 L 50.820116,41.777606 L 51.672868,41.777606 C 52.085708,41.777606 52.427486,41.885892 52.698201,42.102464 C 52.968915,42.312268 53.104273,42.640509 53.104273,43.087189 C 53.104273,43.540636 52.968915,43.875645 52.698201,44.092217 C 52.434253,44.308789 52.092475,44.417075 51.672868,44.417075 L 50.820116,44.417075 L 50.820116,51.381211 C 50.820116,51.706068 50.755822,52.000469 50.627232,52.264416 C 50.498644,52.521596 50.319295,52.721247 50.089187,52.863372 C 49.859080,52.998730 49.601900,53.066409 49.317651,53.066409 C 48.870971,53.066409 48.508890,52.914131 48.231408,52.609578 C 47.960693,52.298255 47.825336,51.888799 47.825336,51.381211 z M 42.434730,51.381211 L 42.434730,38.457968 C 42.434730,37.957145 42.573471,37.551073 42.850953,37.239751 C 43.128435,36.928430 43.487134,36.772769 43.927045,36.772769 C 44.218063,36.772769 44.475241,36.843831 44.698581,36.985957 C 44.928689,37.128082 45.108036,37.331118 45.236626,37.595065 C 45.365216,37.852244 45.429510,38.139878 45.429510,38.457968 L 45.429510,51.381211 C 45.429510,51.706068 45.365216,52.000469 45.236626,52.264416 C 45.108036,52.521596 44.928689,52.721247 44.698581,52.863372 C 44.468474,52.998730 44.211294,53.066409 43.927045,53.066409 C 43.480365,53.066409 43.118284,52.914131 42.840802,52.609578 C 42.570087,52.298255 42.434730,51.888799 42.434730,51.381211 z M 40.769834,43.625234 L 40.769834,51.096959 C 40.769834,51.678997 40.688620,52.152747 40.526191,52.518212 C 40.363762,52.883676 39.964457,53.066409 39.328279,53.066409 C 38.922207,53.066409 38.607500,52.961507 38.384161,52.751703 C 38.167589,52.535131 38.005160,52.210273 37.896875,51.777130 C 37.504339,52.250881 37.074579,52.606194 36.607595,52.843070 C 36.140613,53.079944 35.619487,53.198383 35.044219,53.198383 C 34.117021,53.198383 33.274421,52.951356 32.516420,52.457300 C 31.765187,51.956479 31.172999,51.262772 30.739855,50.376181 C 30.313480,49.482823 30.100292,48.481179 30.100292,47.371249 C 30.100292,46.295158 30.320247,45.310433 30.760159,44.417075 C 31.206838,43.516948 31.809178,42.813090 32.567179,42.305500 C 33.331948,41.791142 34.157628,41.533963 35.044219,41.533963 C 35.605951,41.533963 36.140613,41.649017 36.648203,41.879124 C 37.155794,42.109232 37.572017,42.451009 37.896875,42.904456 C 37.937483,42.538992 38.093142,42.241205 38.363857,42.011098 C 38.641341,41.774222 38.962813,41.655785 39.328279,41.655785 C 39.964457,41.655785 40.363762,41.838517 40.526191,42.203982 C 40.688620,42.562679 40.769834,43.036430 40.769834,43.625234 z M 33.095073,47.371249 C 33.095073,47.885607 33.183055,48.376277 33.359020,48.843260 C 33.541752,49.310243 33.809083,49.692627 34.161012,49.990413 C 34.519708,50.281432 34.952852,50.426940 35.460442,50.426940 C 35.954496,50.426940 36.374105,50.281432 36.719267,49.990413 C 37.071196,49.692627 37.335141,49.310243 37.511107,48.843260 C 37.687070,48.376277 37.775054,47.885607 37.775054,47.371249 C 37.775054,46.572640 37.572017,45.862014 37.165945,45.239370 C 36.766640,44.609959 36.198139,44.295253 35.460442,44.295253 C 34.952852,44.295253 34.519708,44.444146 34.161012,44.741932 C 33.802315,45.039718 33.534984,45.428871 33.359020,45.909389 C 33.183055,46.383140 33.095073,46.870427 33.095073,47.371249 z " />
  </g>
  <metadata
     id="metadata9">
    <rdf:RDF
       id="RDF10">
      <cc:Work
         rdf:about=""
         id="Work11">
        <dc:title
           id="title12">Part of the Flat Icon Collection (Thu Aug 26 14:31:40 2004)</dc:title>
        <dc:description
           id="description14" />
        <dc:subject
           id="subject15">
          <rdf:Bag
             id="Bag16">
            <rdf:li
               id="li17" />
          </rdf:Bag>
        </dc:subject>
        <dc:publisher
           id="publisher18">
          <cc:Agent
             rdf:about=""
             id="Agent19">
            <dc:title
               id="title20" />
          </cc:Agent>
        </dc:publisher>
        <dc:creator
           id="creator21">
          <cc:Agent
             rdf:about=""
             id="Agent22">
            <dc:title
               id="title23">Danny Allen</dc:title>
          </cc:Agent>
        </dc:creator>
        <dc:rights
           id="rights25">
          <cc:Agent
             rdf:about=""
             id="Agent26">
            <dc:title
               id="title27">Danny Allen</dc:title>
          </cc:Agent>
        </dc:rights>
        <dc:date
           id="date29" />
        <dc:format
           id="format30">image/svg+xml</dc:format>
        <dc:type
           rdf:resource="http://purl.org/dc/dcmitype/StillImage"
           id="type32" />
        <cc:license
           rdf:resource="http://creativecommons.org/licenses/LGPL/2.1/"
           id="license33">
          <dc:date
             id="date34" />
        </cc:license>
        <dc:language
           id="language35">en</dc:language>
      </cc:Work>
    </rdf:RDF>
  </metadata>
</svg>
