<svg xmlns="http://www.w3.org/2000/svg" viewBox="0 0 1024 1024">
	<defs>
		<style type="text/css">.a { fill: #fff; }</style>
	</defs>
	<path class="a" d="M857.35,136.92a35,35,0,0,0,5.84-8.36c11.09-20.81,21.73-41.88,33.16-62.5a28.92,28.92,0,0,1,45.94-6.58q34.88,34.17,69.06,69.06a28.91,28.91,0,0,1-7,45.89c-21.41,11.69-43.19,22.7-64.78,34.07a20.33,20.33,0,0,0-4.81,3.59Q798.58,348.23,662.41,484.42c-1.12,1.12-2.1,2.36-3.89,4.38,1.82,1.4,3.5,2.52,5,3.86Q817.19,631.21,970.92,769.75c24.08,21.65,40.36,47.49,47.06,79.33,15.77,74.86-33.73,150.77-108.69,165.17-52.2,10-97.17-4.53-133.26-43.81Q661,845.27,546.51,719.61c-1.51-1.65-2.92-3.4-4.53-5-6.48-6.29-6-17.29.32-23,6.71-6.06,16.17-5.52,22.88,1.57,5.32,5.61,10.47,11.38,15.69,17.09Q688.58,828.13,796.24,946c15,16.48,32.16,29.17,53.74,35.43,62.68,18.15,127.28-21.93,137.68-86.29,6.25-38.72-5.56-72.07-34.58-98.66-32.55-29.84-65.52-59.21-98.31-88.78Q748.26,611.61,641.71,515.55c-1.64-1.49-3.34-2.91-4.59-4l-18.43,18.76c1.26,1.27,3.36,3.41,5.48,5.53,3,3,6.06,6,9.05,9.07,21.69,22.1,22.59,56.9,1.52,79.52-12.2,13.09-25.16,25.48-37.89,38.07-4.94,4.89-10.79,5.73-17.48,3.66a122.9,122.9,0,0,0-20.07-4.9c-45.21-6-87.33,26.15-94,71.18-2.06,14-1,27.65,3.92,40.84,3.26,8.71,1.56,15.46-5,22q-94.71,94.37-189.16,189c-28.37,28.31-62.8,41.37-102.76,39.58C112.49,1021.15,60,975.57,49.22,916.68c-8.36-45.75,3.49-85.84,35.57-119.63,11.91-12.54,24.38-24.54,36.61-36.77l151.52-151.5,3.89-3.87c5.45-5.46,11.7-6.87,19-4a76.27,76.27,0,0,0,30.45,5.39c30.89-1.14,54.89-14.63,71.53-40.85,1-1.52,1.73-3.17,2.86-5.26l-27.11-29.66c-17.17-18.77-34.42-37.46-51.43-56.37-2.74-3.05-5-3.59-8.92-2.46-85.35,24.7-173.39,3.33-237.25-58.32-38.08-36.76-61-81.82-69.61-134.09-6.88-41.86-2.65-82.65,11.86-122.46,1.82-5,4.42-9.19,9.53-11.25a15.37,15.37,0,0,1,16.08,2.29,47.33,47.33,0,0,1,4.4,4.22L164.3,268.14c1,1,2,2,3,3,9.17,8.86,20,8.84,29.09-.26q38.91-38.77,77.71-77.69c9.34-9.37,9.35-20.11,0-29.47q-58.87-59-117.83-117.85c-1.29-1.29-2.63-2.55-3.86-3.9-8.36-9.22-5.78-22.11,5.92-26.25,11.85-4.2,23.9-8.34,36.21-10.66C276.45-10.42,348.84,9.45,410,66.19c41.1,38.12,64.9,85.91,72.85,141.47,5.18,36.25,1.83,71.78-9.09,106.67-.54,1.73-1,3.48-1.68,5.68q53,47.78,106.26,95.83c1.86-1.8,3.46-3.3,5-4.85C613.3,381.07,816,178.43,857.35,136.92ZM569,470a51.85,51.85,0,0,1-5,4c2.84,4.92,22.32,24.93,30.28,31.63L902.67,197.23,872.43,167c-1.17,1.08-2.93,2.64-4.59,4.3C830.27,208.8,611.22,427.84,569,470Zm-13.6-32.17c-2.52-2.3-5-4.63-7.6-6.93Q496.38,384.45,445,338a28.13,28.13,0,0,1-6-7.51c-2.44-4.64-1.28-9.39.58-14.13a201.38,201.38,0,0,0,13.54-59.23c3-42.07-5.43-81.75-26.12-118.61C383.6,61.3,297.32,19.91,209.6,34.2c-5.26.86-10.45,2.2-16.53,3.5,2.37,2.48,3.87,4.11,5.43,5.67q49.41,49.42,98.82,98.86c20.05,20.15,20.68,51.36,1,71.4q-40.41,41.18-81.61,81.55c-13.37,13.1-29.87,16.65-48,12.3-9.79-2.35-17.71-7.86-24.75-14.91Q95.26,243.73,46.42,195c-1.55-1.54-3.19-3-5.22-4.88a37.86,37.86,0,0,0-1.54,5.1c-1.68,12.07-4.18,24.12-4.72,36.24a205.74,205.74,0,0,0,28.4,115C114,433.16,218.55,471.42,313.8,438.29c11.49-4,15.55-2.94,23.71,6q33.76,36.95,67.56,73.87c1.18,1.28,2.46,2.46,4.42,4.42.2-2.62.46-4.15.4-5.66a81.76,81.76,0,0,0-5.31-25.57c-2.48-6.55-1.48-12.53,3.42-17.48,12.88-13,25.68-26.11,39-38.7,9.62-9.11,21.54-13.64,34.83-14.28,17.68-.85,32.7,5.09,45.1,17.71,4.67,4.75,9.43,9.41,14.28,14.25Zm25.5,195.36a8.52,8.52,0,0,0,1.35-.84c9.08-9,18.2-18,27.23-27.15,11.93-12,12-27.32-.07-39.46q-28.8-29-57.82-57.85c-15.68-15.68-31.27-31.46-47.12-47-12-11.78-27.05-11.62-39,.11-8.44,8.24-16.65,16.73-25.1,25-2.28,2.22-3,4.15-2.17,7.46a114.9,114.9,0,0,1,1.93,46.6c-9.28,59.42-63.45,102.25-123.26,97.3-7.87-.65-15.66-2.2-24.06-3.42-.72.65-2,1.67-3.1,2.8Q199.06,727.33,108.47,818c-25,25.1-34.33,55.61-28.71,90.52,7.49,46.52,49.61,82.86,96.7,83.87,30.1.64,55.63-9.8,76.88-31.07q89.5-89.6,179.14-179.08a31.82,31.82,0,0,1,4.8-3.44C413.16,689.58,491.13,609.59,580.93,633.15ZM930.47,177.89c18.34-9.79,37-19.32,54.71-29L921.7,85.38l-28.94,54.83Z"/>
	<path class="a" d="M877.84,823.46a52.9,52.9,0,1,1-53,53.12A52.61,52.61,0,0,1,877.84,823.46Zm21.49,52.71a21.65,21.65,0,0,0-21.39-21.41,22,22,0,0,0-21.55,21.41c-.1,11.76,10.15,21.94,21.85,21.7A21.63,21.63,0,0,0,899.33,876.17Z"/>
	<path class="a" d="M329.92,703.82c-.83-9.8-8.58-16.72-18-15.9-5,.44-8.55,3.31-11.93,6.69q-72,72.1-144.14,144.17a38.55,38.55,0,0,0-3.34,3.55,15.75,15.75,0,0,0,22,22.26,47.26,47.26,0,0,0,4.44-4.18Q250.36,789,321.78,717.56c1.29-1.29,2.89-2.44,3.73-4C327.21,710.44,328.47,707.08,329.92,703.82Zm54.13,55.28c-.13-9.41-6.5-16-15-16.34-5.75-.26-9.95,2.57-13.86,6.49Q283,821.61,210.63,893.86a37.24,37.24,0,0,0-3.34,3.55,15.89,15.89,0,0,0,1.18,20.67,15.64,15.64,0,0,0,20.6,1.66A44,44,0,0,0,234,915.2Q305.22,844,376.43,772.78c1.3-1.29,2.62-2.57,3.82-3.95A14.35,14.35,0,0,0,384.05,759.1Z"/>
</svg>
