/* XPM */
static const char * minus_xpm[] = {
"16 16 5 1",
" 	c None",
".	c #000000",
"+	c #FFFFFF",
"@	c #DCDCDC",
"#	c #A0A0A4",
"                ",
"     .....      ",
"   ..+++++..    ",
"  .++@@@@@@@.   ",
"  .+@@@@@@@@.   ",
" .+@@@@@@@@@#.  ",
" .+@@@@@@@@@#.  ",
" .+@.......@#.  ",
" .+@@@@@@@@@#.  ",
" .+@@@@@@@@@#.  ",
"  .@@@@@@@@#.   ",
"  .@@@@@@@##.   ",
"   ..#####..    ",
"     .....      ",
"                ",
"                "};
