/* XPM */
static char *mscore[] = {
/* columns rows colors chars-per-pixel */
"32 32 44 1 ",
"  c #29567C",
". c #29577C",
"X c #2A567C",
"o c #2A577C",
"O c #29587F",
"+ c #275A84",
"@ c #285880",
"# c #295880",
"$ c #285881",
"% c #295881",
"& c #285A85",
"* c #265C89",
"= c #275C89",
"- c #265E8D",
"; c #255E8E",
": c #265E8E",
"> c #256092",
", c #246296",
"< c #22649A",
"1 c #23649A",
"2 c #23649B",
"3 c #22669F",
"4 c #1D6DB1",
"5 c #1E6DB0",
"6 c #1E6EB1",
"7 c #1D6EB3",
"8 c #1D6FB3",
"9 c #1D6FB4",
"0 c #1C71B8",
"q c #1C71B9",
"w c #1C72B9",
"e c #1B73BD",
"r c #1B73BE",
"t c #1B74BE",
"y c #1A74BF",
"u c #2167A2",
"i c #2168A3",
"p c #2068A4",
"a c #2168A4",
"s c #2069A6",
"d c #2069A7",
"f c #2169A7",
"g c #1B74C0",
"h c None",
/* pixels */
"hhhhhhhhhhhhhhhhhhhhhhhhhhhhhhhh",
"hhhhhhhhhhhhhhhhhhhhhhhhhhhhhhhh",
"hhhhhhhhhhhhhhhhhhhhhhhhhhhhhhhh",
"hhhhhhhhhhhhhhhhhhhhhhhhhhhhhhhh",
"hhhhhhhhhhhhhhhhhhhhhhhhhhhhhhhh",
"hhhhhhhhhhhhhhhhhhhhhhhhhhhhhhhh",
"hhhhhhhhhhhhhhhhhhhhhhhhhhhhhhhh",
"hhhhhhhhhhhhhhhhhhhhggghhhhhhhhh",
"hhhhhhhhhhhhhhhhhhhrrgrrrhhhhhhh",
"hhhhhhhhhhhhhhhhhh0rhhhh0rhhhhhh",
"hhhhhhhhhhhhhhhhhh0hh66hh6hhhhhh",
"hhhhhhhhhhhhhhhhhh6hh66hh6hhhhhh",
"hhhhhhhhhhhhhhhhhhhhhhhhhhhhhhhh",
"hhhhhhhhfifhhhffihhhhhhhhfhhhhhh",
"hhhhhhuiiiiiiuuiiihhhhhhhihhhhhh",
"hhhhhh3hhhhuu3hhh3uhhhhhhuhhhhhh",
"hhhhh33hhhh33hhhhh3hhhhhh3hhhhhh",
"hhhhh,,hhhh,,hhhhh,hhhhhh,hhhhhh",
"hhhhh>,hhhh,,hhhhh,hhhhhh,hhhhhh",
"hhhhh=-hhhh--hhhhh-hhhhhh-hhhhhh",
"hhhhh-#hhhh=-hhhhh-hhhhhh-hhhhhh",
"hhhhh=-hhhh##hhhhh#hhhhh##hhhhhh",
"hhhhh##hhhh##hhhhh##hhh##hhhhhhh",
"hhhhhoohhhhoOhhhhhhooooohhhhhhhh",
"hhhhhhhhhhhhhhhhhhhhhhhhhhhhhhhh",
"hhhhhhhhhhhhhhhhhhhhhhhhhhhhhhhh",
"hhhhhhhhhhhhhhhhhhhhhhhhhhhhhhhh",
"hhhhhhhhhhhhhhhhhhhhhhhhhhhhhhhh",
"hhhhhhhhhhhhhhhhhhhhhhhhhhhhhhhh",
"hhhhhhhhhhhhhhhhhhhhhhhhhhhhhhhh",
"hhhhhhhhhhhhhhhhhhhhhhhhhhhhhhhh",
"hhhhhhhhhhhhhhhhhhhhhhhhhhhhhhhh"
};
