<svg xmlns="http://www.w3.org/2000/svg" viewBox="0 0 664 148">
	<defs>
		<style type="text/css">.a { fill: #fff; }</style>
	</defs>
	<path class="a" d="M122.79,0Zm6.76,32A6.76,6.76,0,0,1,129.55,32Zm24.27,63.26c-.36,24.58-18.15,32.78-30,32.78s-30.52-7-30.52-34.81l-.35-15c0-17.69-12.37-20.25-18.13-20.25-9.07,0-18.13,7.54-18.13,20.25v44.78A5.07,5.07,0,0,1,51.58,128h0a5.07,5.07,0,0,1-5.09-5.07V78.15c0-12.71-9.06-20.25-18.13-20.25S10.18,62.68,10.18,81.48v41.45a5.09,5.09,0,0,1-10.18,0V81.48C0,56.75,13.64,47.74,28.31,47.74c8.88,0,18.41,4.39,23.24,11.07,4.83-6.68,14.37-11.92,23.25-11.92,15.08,0,28.31,11,28.31,32.09l.34,14.21c0,21.85,14.42,24.65,20.35,24.65s19.81-4,19.81-22.62V55.87c0-6.76,10.21-6.76,10.21,0Z"/>
	<path class="a" d="M208.07,85.1,189.2,78.93c-11.17-3.69-10.95-7.71-10.83-9.88C178.75,62.17,186.8,57,197.08,57c9,0,16.55,4.54,19.17,11.58a5.14,5.14,0,1,0,9.62-3.6c-4.16-11.09-15.45-18.25-28.81-18.25-15.85,0-28.3,9.37-29,21.79-.52,9.45,5.31,16.07,17.85,20.21l19.39,6.34c11.48,3.75,11.2,8.41,11.12,10.18-.35,6.12-7.65,12.45-19.23,12.45-9.3,0-16.69-4.5-19.76-12a5.14,5.14,0,1,0-9.52,3.88C172.57,120.9,183.8,128,197.22,128c16.08,0,28.77-9.53,29.5-22.14C227.11,99.26,224.25,90.39,208.07,85.1Z"/>
	<path class="a" d="M307,80.14c0-14.41-12.46-33.45-32.07-33.45C255.07,46.7,240,63,240.05,87.31s15.49,40.62,35.31,40.62c11.46,0,24.77-6.6,29.67-18.29,1.28-2.53,1.05-5.06-1.48-6.33s-5.6-.83-6.86,1.72c-3.43,6.91-13.3,12.62-21.33,12.62-13.29,0-24-10.3-24.94-27.12h45.41C303.55,90.44,307,86.15,307,80.14Zm-56.2.11C252.74,65.7,262.67,57,274.92,57c11.12,0,19.79,8.6,22.1,18.9.49,2.17.18,4.63-2.91,4.38Z"/>
	<path class="a" d="M361.33,85.06,342.46,78.9c-11.17-3.7-10.95-7.72-10.82-9.89.37-6.88,8.42-12.07,18.71-12.07,9,0,16.54,4.54,19.16,11.58a5.14,5.14,0,1,0,9.63-3.59c-4.17-11.1-15.46-18.26-28.81-18.25-15.86,0-28.31,9.37-29,21.78-.52,9.45,5.31,16.07,17.85,20.22L358.59,95c11.48,3.74,11.21,8.4,11.12,10.17-.34,6.12-7.64,12.46-19.23,12.46-9.29,0-16.69-4.51-19.76-12.05a5.14,5.14,0,1,0-9.52,3.89c4.64,11.37,15.86,18.44,29.28,18.44,16.08,0,28.77-9.53,29.5-22.13C380.38,99.23,377.51,90.35,361.33,85.06Z"/>
	<path class="a" d="M426.09,57a20.8,20.8,0,0,1,19.33,12,4.88,4.88,0,0,0,6.66,2.29,5.19,5.19,0,0,0,2.21-6.9,30.86,30.86,0,0,0-28.22-17.69c-19.2,0-32.92,16.32-32.91,40.61s13.75,40.61,32.93,40.6a31,31,0,0,0,28.2-17.7,5.21,5.21,0,0,0-2.22-6.9,4.91,4.91,0,0,0-6.68,2.29,20.82,20.82,0,0,1-19.3,12c-13.67,0-23-11.63-23-30.33S412.44,57,426.09,57Z"/>
	<path class="a" d="M500.94,46.64c-19.84,0-34,16.32-34,40.61s14.21,40.61,34,40.61,34-16.32,34-40.63S520.8,46.64,500.94,46.64Zm0,71c-14.12,0-23.74-11.62-23.74-30.33s9.61-30.34,23.72-30.34,23.75,11.61,23.76,30.33S515.09,117.59,501,117.59Z"/>
	<path class="a" d="M587.5,46.62c-10.21,0-19.73,6.43-26,16.22,0-.73.06-1.76.09-2.42.1-2.4.19-4.44.19-6.93V51.85a5.15,5.15,0,1,0-10.3,0l0,70.9a5.15,5.15,0,0,0,10.3,0V89.52c0-16.3,9.74-32.6,25.73-32.6C595.31,56.91,595.7,46.62,587.5,46.62Z"/>
	<path class="a" d="M660.57,103.23c-2.55-1.27-5.6-.84-6.86,1.71-3.43,6.91-13.3,12.62-21.33,12.63-13.29,0-24-10.3-24.94-27.12h45.41c7.72-.08,11.15-4.37,11.15-10.38,0-14.41-12.46-33.46-32.07-33.45-19.84,0-34.87,16.32-34.86,40.62s15.49,40.62,35.31,40.62c11.46,0,24.77-6.61,29.67-18.3C663.33,107,663.1,104.49,660.57,103.23ZM631.94,56.87c11.12,0,19.79,8.61,22.1,18.9.49,2.17.18,4.64-2.91,4.39H607.8C609.76,65.62,619.69,56.88,631.94,56.87Z"/>
	<g id="layer1" transform="scale(0.18) translate(400, -80)">
		<path d="M 234.10295,28.783327 C 206.00239,36.517295 177.19881,51.897741 156.93637,66.789806 C 136.67394,81.681863 83.745593,119.20611 71.661832,131.09675 C 59.945853,142.62548 46.106824,146.64693 40.051031,160.85301 C 37.715607,166.33158 55.887641,182.8582 59.448565,184.57401 C 68.689851,189.02683 83.753094,181.13125 90.626529,180.65972 C 112.93372,179.12941 135.79354,176.161 158.38688,191.45249 C 154.20634,195.673 160.84489,191.12923 152.29919,228.14596 C 149.28567,241.19938 142.70046,275.06504 150.79205,281.52636 C 158.83146,287.94602 163.74149,262.92055 171.72898,266.75201 C 171.72498,266.75797 171.7273,266.77307 171.72444,266.77843 C 171.7227,266.78324 171.72054,266.80064 171.71991,266.80486 C 171.72038,266.80851 171.71379,266.82818 171.71536,266.83128 C 171.71805,266.83382 171.73645,266.83411 171.74022,266.8361 C 171.76452,266.84334 171.81787,266.83974 171.86901,266.83379 C 171.88403,266.84102 171.90365,266.83619 171.91871,266.84344 C 171.97517,266.87058 172.02661,266.90258 172.08359,266.93003 L 172.13112,266.80275 C 175.9125,265.82548 205.39388,252.83694 232.30729,258.05977 C 247.4787,261.00392 271.67665,252.7502 285.59733,248.44456 C 307.67335,241.61653 338.66508,235.44615 358.32529,235.09384 C 372.80835,234.83431 385.91243,226.63486 399.84591,225.679 C 408.0663,225.11507 400.44412,198.61301 400.27421,195.81341 C 399.45762,182.35833 382.70914,161.68309 374.08318,143.30972 C 365.45722,124.93634 351.00105,101.61272 335.07933,83.323563 C 319.15762,65.034404 297.67768,41.352169 282.55406,34.064988 C 267.43045,26.777807 264.60086,20.389545 234.10295,28.783327 z " style="fill:#d00000;fill-opacity:1;fill-rule:evenodd;stroke:#000000;stroke-width:0.83349466px;stroke-linecap:butt;stroke-linejoin:miter;stroke-opacity:1" id="path1309"/>
		<path d="M 166.95567,93.343683 C 148.72295,97.760273 133.10809,156.03509 110.63668,166.16551 C 95.939359,172.79127 55.887641,182.8582 59.448565,184.57401 C 68.689851,189.02683 83.753094,181.13125 90.626529,180.65972 C 112.93372,179.12941 135.79354,176.161 158.38688,191.45249 C 154.20634,195.673 160.84489,191.12923 152.29919,228.14596 C 149.28567,241.19938 142.70046,275.06504 150.79205,281.52636 C 158.83146,287.94602 163.74149,262.92055 171.72898,266.75201 C 171.72498,266.75797 171.7273,266.77307 171.72444,266.77843 C 171.7227,266.78324 171.72054,266.80064 171.71991,266.80486 C 171.72038,266.80851 171.71379,266.82818 171.71536,266.83128 C 171.71805,266.83382 171.73645,266.83411 171.74022,266.8361 C 171.76452,266.84334 171.81787,266.83974 171.86901,266.83379 C 171.88403,266.84102 171.90365,266.83619 171.91871,266.84344 C 171.97517,266.87058 172.02661,266.90258 172.08359,266.93003 L 172.13112,266.80275 C 175.9125,265.82548 205.39388,252.83694 232.30729,258.05977 C 247.4787,261.00392 271.67665,252.7502 285.59733,248.44456 C 307.67335,241.61653 338.66508,235.44615 358.32529,235.09384 C 372.80835,234.83431 385.91243,226.63486 399.84591,225.679 C 408.0663,225.11507 348.7606,230.19964 372.39627,213.10323 C 382.88158,205.5189 267.41239,228.9109 223.08223,178.32646 C 179.18686,128.23816 185.62689,88.820883 166.95567,93.343683 z " style="opacity:0.10112359;fill:#0e0000;fill-opacity:1;fill-rule:evenodd;stroke:none;stroke-width:1px;stroke-linecap:butt;stroke-linejoin:miter;stroke-opacity:1" id="path5882"/>
		<path d="M 41.923132,154.63221 C 45.474029,156.98511 69.321091,187.14915 72.138348,185.03796 C 72.478932,181.70708 69.697695,180.39588 67.741268,180.01555 C 70.360884,176.6863 70.854715,173.20499 66.308741,172.9059 C 61.268543,172.01593 55.766216,171.39157 61.176256,165.96995 C 63.674099,162.93124 61.00831,157.53489 59.474535,154.79002 C 55.445017,152.61364 52.408551,148.67567 50.756908,145.99876" style="opacity:0.26966289;fill:#000000;fill-opacity:1;fill-rule:evenodd;stroke:#000000;stroke-width:0.83016068;stroke-linecap:butt;stroke-linejoin:miter;stroke-miterlimit:4;stroke-dasharray:none;stroke-opacity:1" id="path5878"/>
		<path d="M 365.59735,219.58638 C 358.14611,216.94378 348.79618,213.8916 342.20777,214.29903 C 337.68278,210.47655 334.20955,215.1869 330.28892,216.44059 C 329.63095,209.08088 318.77821,219.5529 313.9976,219.61308 C 310.60308,221.56141 312.94279,213.81254 306.86406,216.75999 C 299.30652,217.47398 294.63165,217.99323 289.0253,220.42048 C 287.67864,228.43327 275.57625,232.94709 273.76484,224.16478 C 267.16628,227.03619 254.896,232.60596 254.81651,223.52314 C 244.2522,231.7171 243.91618,239.1215 233.6027,243.07612 C 234.5153,235.98394 211.23207,232.16809 208.05827,239.61141 C 201.66864,242.18449 209.38742,230.29044 200.15372,233.55908 C 189.7531,230.53522 195.80668,251.49372 174.6001,242.92505 C 162.7924,242.54522 169.3314,259.64434 161.53893,266.80729 C 159.46283,274.3396 150.45534,264.18325 146.80959,264.7472 C 147.65753,276.67378 150.21727,272.62948 147.52883,280.7438 C 145.92468,290.90918 143.77754,295.99928 154.96061,298.11619 C 158.58182,293.21258 154.77857,295.28719 155.58854,304.33366 C 162.04619,302.45388 170.53489,291.69367 169.66359,302.75222 C 174.04561,296.07893 187.91794,292.60083 187.74353,285.41309 C 194.76537,286.15018 202.64589,293.99253 208.57332,284.4601 C 214.52408,277.4189 223.07777,274.15325 223.16759,279.59156 C 230.40136,286.34806 231.12483,284.97884 238.64559,283.25937 C 236.7084,274.54771 256.24494,282.66079 245.9283,273.98766 C 250.02587,269.88423 261.11578,267.48627 267.52452,268.91224 C 273.19399,277.16643 290.46859,277.84945 293.15638,267.1652 C 293.72036,258.76091 306.83862,255.88645 311.74362,261.69697 C 320.27331,254.21837 333.72783,265.08546 341.06771,259.35277 C 334.47013,250.78982 350.39214,245.19465 353.36559,251.75979 C 359.20728,248.62316 364.64363,237.33695 371.03395,245.41696 C 378.38382,243.02173 387.35863,239.69139 393.57617,237.19514 C 398.24284,244.88829 410.3235,236.97404 405.08671,227.66286 C 402.25188,221.01217 414.39645,230.9373 411.09019,222.49919 C 407.32931,213.4223 402.04755,200.80738 395.57641,201.22439 C 386.76401,199.02254 381.53875,204.96931 381.17297,213.38484 C 381.06154,207.2437 370.6507,213.22985 365.18977,215.45677 L 362.19589,216.16904 L 358.61901,213.6461" style="opacity:0.294045;fill:#000000;fill-opacity:1;fill-rule:evenodd;stroke:#000000;stroke-width:0.60142648px;stroke-linecap:butt;stroke-linejoin:miter;stroke-opacity:1" id="path5003"/>
		<path d="M 370.52395,221.8307 C 363.07271,219.1881 356.16772,218.81659 349.57932,219.22403 C 345.05433,215.40154 339.6844,216.65512 335.76377,217.90882 C 335.10581,210.5491 326.14975,224.47789 321.36915,224.53807 C 317.97461,226.48641 320.31434,218.73755 314.2356,221.68498 C 306.67806,222.39897 297.91658,217.71274 292.31023,220.13999 C 290.96357,228.15278 278.86118,232.6666 277.04978,223.88429 C 270.45121,226.75571 262.26753,237.53096 262.18806,228.44814 C 249.80352,227.90524 244.49801,240.08141 234.18452,244.03603 C 235.09713,236.94386 218.60362,237.09308 215.42981,244.53641 C 209.04019,247.10949 213.73065,231.09781 204.49695,234.36645 C 194.09634,231.34259 194.38029,252.06392 181.97164,247.85004 C 170.16395,247.47021 171.81305,259.20797 164.02057,266.37091 C 161.94448,273.90323 157.82689,269.10825 154.18113,269.6722 C 160.18027,278.18599 135.7885,276.41261 143.02962,289.54256 C 141.42547,299.70794 143.87813,307.01442 155.06119,309.13132 C 158.6824,304.22772 162.15012,300.21219 162.96009,309.25865 C 169.41773,307.37888 177.90644,296.61867 177.03513,307.67722 C 181.41716,301.00393 195.28948,297.52583 195.11507,290.33809 C 202.13691,291.07518 210.01743,298.91752 215.94486,289.38509 C 221.89562,282.3439 222.87838,288.08907 222.96819,293.52737 C 230.20196,300.28388 238.49638,289.90383 246.01713,288.18437 C 244.07994,279.47272 263.61648,287.58579 253.29985,278.91265 C 257.39741,274.80923 268.48733,272.41126 274.89607,273.83723 C 280.51924,279.17133 297.84013,282.77445 300.52793,272.09019 C 301.09191,263.6859 314.21016,260.81145 319.11517,266.62196 C 327.64485,259.14337 341.09937,270.01046 348.43925,264.27777 C 341.84167,255.71481 357.76369,250.11965 360.73713,256.68479 C 366.57882,253.54816 372.01517,242.26195 378.4055,250.34196 C 385.75535,247.94673 394.73017,244.61638 400.94772,242.12013 C 405.61438,249.81328 417.69505,241.89903 412.45825,232.58786 C 409.62342,225.93717 421.76799,235.8623 418.46174,227.42419 C 418.53559,217.76773 414.89863,202.82454 402.94796,206.14939 C 394.13555,203.94754 388.9103,209.8943 388.54451,218.30983 C 388.43308,212.1687 374.51899,214.3863 369.05807,216.61322 L 367.26912,217.55932 L 365.99055,218.57109" style="fill:#ffffff;fill-opacity:1;fill-rule:evenodd;stroke:#000000;stroke-width:0.60142648px;stroke-linecap:butt;stroke-linejoin:miter;stroke-opacity:1" id="path1307"/>
		<path d="M 155.67981,210.88831 C 158.81993,170.04083 179.46528,151.43808 175.83107,118.76769 C 173.68299,99.457223 156.29407,114.09496 161.96171,132.20942" style="fill:none;fill-opacity:0.75;fill-rule:evenodd;stroke:#000000;stroke-width:0.83349466px;stroke-linecap:butt;stroke-linejoin:miter;stroke-opacity:1" id="path3126"/>
		<path d="M 163.97802,266.61875 C 161.90193,274.15106 157.78434,269.35608 154.13858,269.92003 C 160.13772,278.43382 135.74595,276.66045 142.98706,289.7904 C 141.38292,299.95578 143.83558,307.26225 155.01865,309.37915 C 158.63985,304.47555 162.10757,300.46002 162.91754,309.50649 C 169.37518,307.62671 177.86389,296.8665 176.99259,307.92505 C 181.37461,301.25177 195.24693,297.77366 195.07252,290.58593 C 202.09436,291.32301 209.63839,297.9356 215.56582,288.40318 C 221.51658,281.36198 222.83582,288.3369 222.92564,293.7752 C 230.15941,300.53172 238.45383,290.15167 245.97459,288.43221 C 244.03739,279.72055 254.84104,286.88697 253.25729,279.16049 C 252.22008,274.10034 286.90222,275.59844 281.91397,270.65004 C 267.0081,255.86327 243.72285,278.14216 240.35398,276.72014 C 236.98511,275.29813 233.26273,276.16057 237.96911,274.00089 C 242.6755,271.84122 231.22663,275.39338 221.69168,272.00653 C 212.15672,268.61968 205.17729,272.90146 204.54038,281.34934 C 197.35862,276.88266 196.84405,281.95619 185.65529,285.06738 C 192.78474,274.64457 173.05569,282.29854 173.05569,282.29854 C 173.05569,282.29854 176.49298,270.87057 170.31631,272.3789 C 173.63699,266.41472 169.95142,264.57731 169.95142,264.57731 C 169.95142,264.57731 171.77049,259.4558 163.97802,266.61875 z " style="opacity:0.11235956;fill:#000000;fill-opacity:1;fill-rule:evenodd;stroke:none;stroke-width:0.7215721px;stroke-linecap:butt;stroke-linejoin:miter;stroke-opacity:1" id="path3249"/>
		<path d="M 46.944746,146.2449 C 45.643068,143.92662 41.587236,143.2883 41.065337,141.32232 C 41.971827,139.03891 38.406229,140.69515 37.70364,139.43991 C 33.509186,142.87352 27.71914,144.3598 24.610933,149.08245 C 26.263719,148.71998 26.259765,146.30387 24.453877,148.0863 C 21.052779,149.77596 17.76572,152.74401 19.044624,156.97912 C 19.354396,159.15237 16.619071,161.02245 19.958188,161.53717 C 19.522779,165.01651 14.303245,164.87001 14.300135,167.94087 C 15.455475,171.29037 14.947246,174.78102 12.1994,177.13041 C 9.4813717,179.67219 10.600752,183.41353 10.699815,186.50126 C 9.3328297,188.56657 8.5633877,190.48699 10.365099,192.45427 C 10.746553,196.00247 13.692094,198.35182 13.714041,202.04357 C 14.954094,203.9785 17.440749,203.85877 18.710891,206.04534 C 22.421366,206.36074 22.69361,211.54182 26.228099,212.26044 C 29.264282,213.25072 32.856734,212.56406 35.592514,213.29023 C 37.836247,215.10925 40.41172,216.37714 43.236404,216.88795 C 46.7873,219.14793 47.994173,213.52317 50.143135,211.712 C 50.254563,208.88005 52.289143,208.65968 53.65167,211.0443 C 56.75267,213.14665 59.965687,209.52619 62.188846,207.61046 C 64.362335,205.24141 66.800735,203.19046 69.220935,201.1133 C 72.656859,197.23474 73.876753,191.68359 73.684502,186.57828 C 74.025086,183.37895 71.050377,183.20194 69.093953,182.83662 C 69.978541,180.15429 72.207398,176.29503 67.661425,176.00777 C 65.054467,175.32687 59.144131,172.41421 62.52894,169.34575 C 65.026783,166.42704 61.589184,162.49804 60.055409,159.86156 C 57.399191,157.7475 55.855901,154.80261 54.204259,152.23142 C 51.00658,151.7219 48.009922,149.77867 47.194753,146.38632 C 46.341109,143.69228 46.958355,145.68729 47.227723,146.99878" style="fill:#ffffff;fill-opacity:1;fill-rule:evenodd;stroke:#000000;stroke-width:0.81360233;stroke-linecap:butt;stroke-linejoin:miter;stroke-miterlimit:4;stroke-dasharray:none;stroke-opacity:1" id="path2251"/>
		<path d="M 20.404837,181.84614 C 18.803544,179.87774 25.126249,180.80498 24.604349,178.839 C 25.510839,176.55561 24.426082,176.46054 23.723492,175.20529 C 19.529039,178.6389 20.516855,170.50441 17.408648,175.22706 C 19.061434,174.8646 18.789659,168.89349 16.983771,170.67592 C 13.582673,172.36557 14.303245,164.87001 14.300135,167.94087 C 15.455475,171.29037 14.947246,174.78102 12.1994,177.13041 C 9.4813717,179.67219 10.600752,183.41353 10.699815,186.50126 C 9.3328297,188.56657 8.5633877,190.48699 10.365099,192.45427 C 10.746553,196.00247 13.692094,198.35182 13.714041,202.04357 C 14.954094,203.9785 17.440749,203.85877 18.710891,206.04534 C 22.421366,206.36074 22.69361,211.54182 26.228099,212.26044 C 29.264282,213.25072 32.856734,212.56406 35.592514,213.29023 C 37.836247,215.10925 40.41172,216.37714 43.236404,216.88795 C 46.7873,219.14793 47.994173,213.52317 50.143135,211.712 C 50.254563,208.88005 52.289143,208.65968 53.65167,211.0443 C 56.75267,213.14665 59.965687,209.52619 62.188846,207.61046 C 64.362335,205.24141 53.842891,207.96977 56.263091,205.89262 C 59.699011,202.01405 48.510611,211.3064 48.318356,206.20109 C 48.658937,203.00177 35.947977,210.27165 38.63985,204.64718 C 39.524441,201.96485 40.175759,203.89928 35.629786,203.61201 C 33.022828,202.93111 25.826259,198.11841 29.211068,195.04995 C 31.708912,192.13124 27.869004,195.50633 26.335229,192.86986 C 23.67901,190.7558 25.375579,191.91985 23.723937,189.34868 C 20.526258,188.83916 21.932153,187.53207 21.116984,184.13973 C 19.733623,188.11979 20.13547,180.53465 20.404837,181.84614 z " style="opacity:0.0955056;fill:#000000;fill-opacity:1;fill-rule:evenodd;stroke:none;stroke-width:0.99599999;stroke-linecap:butt;stroke-linejoin:miter;stroke-miterlimit:4;stroke-dasharray:none;stroke-opacity:1" id="path4128"/>
		<path d="M 157.67035,192.3615 C 157.67035,192.3615 170.81491,158.84986 173.97327,145.48 C 176.92827,132.97112 176.54591,113.87685 172.12017,110.34279 C 167.69442,106.80873 161.8731,112.92108 161.25955,120.15882 C 160.64601,127.39655 160.13213,129.22046 163.10305,143.02628 C 164.44984,149.28479 163.7772,164.1194 161.9461,171.12086 C 160.115,178.12232 156.11943,194.06693 157.67035,192.3615 z " style="fill:#000000;fill-opacity:0.22346371;fill-rule:evenodd;stroke:none;stroke-width:1px;stroke-linecap:butt;stroke-linejoin:miter;stroke-opacity:1" id="path5880"/>
	</g>
</svg>
