<svg xmlns="http://www.w3.org/2000/svg" viewBox="0 0 664 128">
	<defs>
		<style type="text/css">.a { fill: #fff; }</style>
	</defs>
	<path class="a" d="M122.79,0c17.2,0,30.62,13.56,30.62,31.37,0,7.63-10.19,7.63-10.19,0,0-10.17-7.47-21.2-20.43-21.2s-20.45,11-20.45,21.2c0,7.63-10.17,7.63-10.18,0C92.16,13.56,105.59,0,122.79,0Zm6.76,32a6.76,6.76,0,1,1-6.76-6.76A6.76,6.76,0,0,1,129.55,32Zm24.27,63.26c-.36,24.58-18.15,32.78-30,32.78s-30.52-7-30.52-34.81l-.35-15c0-17.69-12.37-20.25-18.13-20.25-9.07,0-18.13,7.54-18.13,20.25v44.78A5.07,5.07,0,0,1,51.58,128h0a5.07,5.07,0,0,1-5.09-5.07V78.15c0-12.71-9.06-20.25-18.13-20.25S10.18,62.68,10.18,81.48v41.45a5.09,5.09,0,0,1-10.18,0V81.48C0,56.75,13.64,47.74,28.31,47.74c8.88,0,18.41,4.39,23.24,11.07,4.83-6.68,14.37-11.92,23.25-11.92,15.08,0,28.31,11,28.31,32.09l.34,14.21c0,21.85,14.42,24.65,20.35,24.65s19.81-4,19.81-22.62V55.87c0-6.76,10.21-6.76,10.21,0Z"/>
	<path class="a" d="M208.07,85.1,189.2,78.93c-11.17-3.69-10.95-7.71-10.83-9.88C178.75,62.17,186.8,57,197.08,57c9,0,16.55,4.54,19.17,11.58a5.14,5.14,0,1,0,9.62-3.6c-4.16-11.09-15.45-18.25-28.81-18.25-15.85,0-28.3,9.37-29,21.79-.52,9.45,5.31,16.07,17.85,20.21l19.39,6.34c11.48,3.75,11.2,8.41,11.12,10.18-.35,6.12-7.65,12.45-19.23,12.45-9.3,0-16.69-4.5-19.76-12a5.14,5.14,0,1,0-9.52,3.88C172.57,120.9,183.8,128,197.22,128c16.08,0,28.77-9.53,29.5-22.14C227.11,99.26,224.25,90.39,208.07,85.1Z"/>
	<path class="a" d="M307,80.14c0-14.41-12.46-33.45-32.07-33.45C255.07,46.7,240,63,240.05,87.31s15.49,40.62,35.31,40.62c11.46,0,24.77-6.6,29.67-18.29,1.28-2.53,1.05-5.06-1.48-6.33s-5.6-.83-6.86,1.72c-3.43,6.91-13.3,12.62-21.33,12.62-13.29,0-24-10.3-24.94-27.12h45.41C303.55,90.44,307,86.15,307,80.14Zm-56.2.11C252.74,65.7,262.67,57,274.92,57c11.12,0,19.79,8.6,22.1,18.9.49,2.17.18,4.63-2.91,4.38Z"/>
	<path class="a" d="M361.33,85.06,342.46,78.9c-11.17-3.7-10.95-7.72-10.82-9.89.37-6.88,8.42-12.07,18.71-12.07,9,0,16.54,4.54,19.16,11.58a5.14,5.14,0,1,0,9.63-3.59c-4.17-11.1-15.46-18.26-28.81-18.25-15.86,0-28.31,9.37-29,21.78-.52,9.45,5.31,16.07,17.85,20.22L358.59,95c11.48,3.74,11.21,8.4,11.12,10.17-.34,6.12-7.64,12.46-19.23,12.46-9.29,0-16.69-4.51-19.76-12.05a5.14,5.14,0,1,0-9.52,3.89c4.64,11.37,15.86,18.44,29.28,18.44,16.08,0,28.77-9.53,29.5-22.13C380.38,99.23,377.51,90.35,361.33,85.06Z"/>
	<path class="a" d="M426.09,57a20.8,20.8,0,0,1,19.33,12,4.88,4.88,0,0,0,6.66,2.29,5.19,5.19,0,0,0,2.21-6.9,30.86,30.86,0,0,0-28.22-17.69c-19.2,0-32.92,16.32-32.91,40.61s13.75,40.61,32.93,40.6a31,31,0,0,0,28.2-17.7,5.21,5.21,0,0,0-2.22-6.9,4.91,4.91,0,0,0-6.68,2.29,20.82,20.82,0,0,1-19.3,12c-13.67,0-23-11.63-23-30.33S412.44,57,426.09,57Z"/>
	<path class="a" d="M500.94,46.64c-19.84,0-34,16.32-34,40.61s14.21,40.61,34,40.61,34-16.32,34-40.63S520.8,46.64,500.94,46.64Zm0,71c-14.12,0-23.74-11.62-23.74-30.33s9.61-30.34,23.72-30.34,23.75,11.61,23.76,30.33S515.09,117.59,501,117.59Z"/>
	<path class="a" d="M587.5,46.62c-10.21,0-19.73,6.43-26,16.22,0-.73.06-1.76.09-2.42.1-2.4.19-4.44.19-6.93V51.85a5.15,5.15,0,1,0-10.3,0l0,70.9a5.15,5.15,0,0,0,10.3,0V89.52c0-16.3,9.74-32.6,25.73-32.6C595.31,56.91,595.7,46.62,587.5,46.62Z"/>
	<path class="a" d="M660.57,103.23c-2.55-1.27-5.6-.84-6.86,1.71-3.43,6.91-13.3,12.62-21.33,12.63-13.29,0-24-10.3-24.94-27.12h45.41c7.72-.08,11.15-4.37,11.15-10.38,0-14.41-12.46-33.46-32.07-33.45-19.84,0-34.87,16.32-34.86,40.62s15.49,40.62,35.31,40.62c11.46,0,24.77-6.61,29.67-18.3C663.33,107,663.1,104.49,660.57,103.23ZM631.94,56.87c11.12,0,19.79,8.61,22.1,18.9.49,2.17.18,4.64-2.91,4.39H607.8C609.76,65.62,619.69,56.88,631.94,56.87Z"/>
</svg>
