/* XPM */
static const char * plus_xpm[] = {
"13 13 5 1",
" 	c None",
".	c #000000",
"+	c #FFFFFF",
"@	c #DCDCDC",
"#	c #A0A0A4",
"    .....    ",
"  ..+++++..  ",
" .++@@@@@@@. ",
" .+@@@.@@@@. ",
".+@@@@.@@@@#.",
".+@@@@.@@@@#.",
".+@.......@#.",
".+@@@@.@@@@#.",
".+@@@@.@@@@#.",
" .@@@@.@@@#. ",
" .@@@@@@@##. ",
"  ..#####..  ",
"    .....    " };
