<?xml version="1.0" encoding="UTF-8" standalone="no"?>
<svg width="1440px" height="900px" viewBox="0 0 1440 900" version="1.1" xmlns="http://www.w3.org/2000/svg" xmlns:xlink="http://www.w3.org/1999/xlink" style="background: #F8F2E5;">
    <!-- Generator: Sketch 41.2 (35397) - http://www.bohemiancoding.com/sketch -->
    <title>splash 2</title>
    <desc>Created with Sketch.</desc>
    <defs>
        <linearGradient x1="100%" y1="50%" x2="0%" y2="50%" id="linearGradient-1">
            <stop stop-color="#1A75C1" offset="0%"></stop>
            <stop stop-color="#2A567B" offset="100%"></stop>
        </linearGradient>
        <linearGradient x1="50.5194131%" y1="0%" x2="50%" y2="100%" id="linearGradient-2">
            <stop stop-color="#1A75C1" offset="0%"></stop>
            <stop stop-color="#2A567B" offset="100%"></stop>
        </linearGradient>
        <linearGradient x1="50%" y1="0%" x2="50%" y2="100%" id="linearGradient-3">
            <stop stop-color="#1A75C1" offset="0%"></stop>
            <stop stop-color="#2A567B" offset="100%"></stop>
        </linearGradient>
        <linearGradient x1="100%" y1="50%" x2="0%" y2="50%" id="linearGradient-4">
            <stop stop-color="#F8F2E5" offset="0%"></stop>
            <stop stop-color="#D3CDC0" offset="49.9389648%"></stop>
            <stop stop-color="#F8F2E5" offset="100%"></stop>
        </linearGradient>
    </defs>
    <g id="MuseScore-Software" stroke="none" stroke-width="1" fill="none" fill-rule="evenodd">
        <g id="splash-2">
            <text id="version" fill="url(#linearGradient-1)" font-family="HelveticaNeue-Thin, Helvetica Neue" font-size="77.4965973" font-style="condensed" font-weight="normal" letter-spacing="1">
                <tspan x="665.062233" y="574.757709">2.2</tspan>
            </text>
            <text id="version-2" fill="url(#linearGradient-1)" font-family="HelveticaNeue-Thin, Helvetica Neue" font-size="38" font-style="condensed" font-weight="normal" letter-spacing="0.490344107">
                <tspan x="597.668942" y="832.757709">musescore.org</tspan>
            </text>
            <g id="Logo-+-sescore" transform="translate(281.734810, 226.252213)">
                <path d="M134.216083,156.057632 L134.074466,122.623617 C134.074466,117.465243 133.599015,112.787892 132.647588,108.565297 C131.818951,104.382358 130.229226,100.774432 127.878672,97.7876121 C125.677876,94.8144399 122.634305,92.5089826 118.775712,90.8720126 C115.053,89.2350426 110.283822,88.4334243 104.495932,88.4334243 C99.3874458,88.4334243 94.7677635,89.4490306 90.6374088,91.4799859 C86.507054,93.3775526 82.9744174,96.0303865 80.0667272,99.4245821 C77.1865274,102.805387 74.9718551,106.747557 73.4638148,111.224826 C71.9421603,115.554286 71.1810712,120.164686 71.1810712,125.0689 L71.1810712,191.404425 L67.0509783,191.404425 L67.0509783,124.253634 C67.0509783,119.362552 66.629722,114.738762 65.8008234,110.409045 C65.1214199,106.066195 63.7353843,102.271061 61.6704687,98.997121 C59.6052914,95.7563994 56.6976012,93.1774699 52.9748886,91.2796457 C49.2521761,89.3887741 44.4151893,88.4334243 38.4914186,88.4334243 C33.2467897,88.4334243 28.2812769,89.5435543 24.0150415,91.975705 C19.7215775,94.2809048 15.948619,97.5432815 12.9189242,101.612145 C10.0112341,105.554315 7.75598081,110.164972 6.09818377,115.456734 C4.57652925,120.748754 4.14396897,126.338151 4.14396897,132.191535 L4.14396897,191.404425 L2.27373675e-13,191.404425 L2.27373675e-13,132.191536 C2.27373675e-13,112.526733 5.62419576,105.006856 7.68963493,101.612145 C9.75481229,98.2179494 13.1729812,95.0188589 16.1893236,92.4396719 C19.2326326,89.8607425 22.7829737,87.9014587 26.3698055,86.5518662 C30.0925181,85.0552373 34.3471878,84.3506558 38.4914186,84.3506558 C46.7790948,84.0836213 53.6676446,86.1882235 59.184035,90.6716724 C64.8496585,95.0147801 68.5590186,101.041724 70.7600767,108.779027 C72.8386065,101.455795 76.914766,95.5560592 82.9744174,91.0726103 C89.0479448,86.5958566 96.2079943,84.3506558 104.495932,84.3506558 C110.990192,84.3506558 116.357088,85.3062631 120.637199,87.2038298 C124.917049,89.114787 128.354386,91.753973 130.9767,95.1350358 C133.599015,98.4089758 135.46024,102.404707 136.574514,107.162143 C137.674912,111.772543 138.23205,116.917011 138.23205,122.623617 L138.26913,157.65541 C138.323838,162.843555 138.643982,167.454251 140.229418,171.252467 C142.02231,175.461671 144.441196,178.98977 147.457276,181.835992 C150.636728,184.562472 154.22356,186.593943 158.218034,187.930145 C162.362003,189.172872 166.709662,189.773893 171.261273,189.773893 C177.619914,189.773893 183.190762,188.625155 188.027487,186.326136 C192.850859,183.867977 196.858947,180.700387 200.024523,176.758217 C203.325979,172.696049 205.812675,168.00505 207.483562,162.699897 C209.127745,157.421525 209.956382,151.862214 209.956382,146.022477 L209.956382,86.8098446 L214.086998,86.8098446 L214.086998,146.022476 C214.086998,159.702851 211.195449,165.710734 211.195449,165.710734 C209.26589,173.862366 203.794587,180.413633 197.191413,185.69252 C190.697153,190.997673 181.750531,193.635978 171.261273,193.635978 C165.745145,193.635978 160.636396,192.887664 155.948905,191.404425 C151.41117,189.773893 147.402819,187.409209 143.95213,184.294923 C140.650412,181.021241 138.028098,177.078556 136.085187,172.468671 C134.767222,168.993876 134.441004,165.252561 134.2237,161.096661 C134.210085,159.53308 134.210085,157.675684 134.210085,156.058542 L134.216083,156.057632 Z M169.997918,56.7889427 C169.997918,54.2164509 172.130905,52.1319343 174.739344,52.1319343 C177.361658,52.1319343 179.481031,54.2164509 179.481031,56.7889427 C179.481031,59.3681297 177.361658,61.4526463 174.739344,61.4526463 C172.130905,61.4526463 169.997918,59.3681297 169.997918,56.7889427 Z M146.210445,30.7399283 C137.613148,37.7121651 133.068953,47.4754196 133.068953,58.9738869 L136.823129,58.9738869 C136.823129,36.5753572 155.830754,24.8560363 174.606794,24.8560363 C184.139115,24.8560363 192.92107,27.8385991 199.335548,33.2544753 C206.566794,39.3601441 210.389483,48.2535999 210.389483,58.9738869 L214.143659,58.9738869 C214.143659,47.143793 209.868592,37.2813043 201.780924,30.4526109 C194.686236,24.4625614 185.035659,21.1636032 174.606794,21.1636032 C164.0646,21.1636032 153.714573,24.6538756 146.210445,30.7399283 Z" id="Logo" fill="url(#linearGradient-2)"></path>
                <text id="sescore" fill="url(#linearGradient-3)" font-family="HelveticaNeue-UltraLight, Helvetica Neue" font-size="200.584178" font-weight="200">
                    <tspan x="221.527605" y="187">sescore</tspan>
                </text>
            </g>
            <rect id="Rectangle-10" fill="url(#linearGradient-4)" x="373.578231" y="463.929515" width="693.157895" height="2.30754663"></rect>
        </g>
    </g>
</svg>