<svg xmlns="http://www.w3.org/2000/svg" width="62" height="49" fill="none"><path fill="#000" fill-rule="evenodd" d="M11.103 4.62752 61.997 0v2.36529h.0012V28.4903c.0012.0387.0018.0777.0018.1171 0 3.2577-4.0352 6.4045-7.8853 6.4045-2.9986 0-4.1463-1.777-4.1463-3.3689 0-3.4058 4.2944-6.4415 7.8853-6.4415 1.2999 0 2.4572.3918 3.2166 1.1284V11.6721L45.342 13.1022V33.116c.0013.0393.0019.0789.0019.1189 0 3.2578-4.0352 6.4045-7.8853 6.4045-2.9986 0-4.1462-1.777-4.1462-3.3689 0-3.4058 4.2943-6.4414 7.8853-6.4414 1.2998 0 2.4571.3917 3.2165 1.1283V13.1865l-15.7281 1.4301v23.1436c.0009.0339.0014.0679.0014.1022 0 3.2578-4.0352 6.4045-7.8853 6.4045-2.9986 0-4.1463-1.777-4.1463-3.3688 0-3.4059 4.2944-6.4415 7.8853-6.4415 1.3001 0 2.4577.3919 3.217 1.1288V14.701l-15.7286 1.4301V42.369c.0013.04.0019.0803.0019.1209 0 3.2578-4.03517 6.4045-7.88525 6.4045C1.14762 48.8944 0 47.1174 0 45.5256c0-3.4059 4.29433-6.4415 7.88527-6.4415 1.29978 0 2.45713.3918 3.21653 1.1282V6.90885h.0012V4.62752Zm.9266 6.85698 15.7286-1.4301V7.75969L12.0296 9.1898v2.2947Zm16.6565-1.51443L44.4142 8.54V6.24526L28.6861 7.67532v2.29475ZM45.342 8.45564l15.7283-1.43008V4.73082L45.342 6.1609v2.29474Z" clip-rule="evenodd"/></svg>
