<?xml version="1.0" encoding="UTF-8" standalone="no"?>
<!-- Created with Inkscape (http://www.inkscape.org/) -->

<svg
   xmlns:dc="http://purl.org/dc/elements/1.1/"
   xmlns:cc="http://creativecommons.org/ns#"
   xmlns:rdf="http://www.w3.org/1999/02/22-rdf-syntax-ns#"
   xmlns:svg="http://www.w3.org/2000/svg"
   xmlns="http://www.w3.org/2000/svg"
   version="1.1"
   width="20"
   height="24"
   id="svg2">
  <metadata
     id="metadata8">
    <rdf:RDF>
      <cc:Work
         rdf:about="">
        <dc:format>image/svg+xml</dc:format>
        <dc:type
           rdf:resource="http://purl.org/dc/dcmitype/StillImage" />
        <dc:title></dc:title>
      </cc:Work>
    </rdf:RDF>
  </metadata>
  <defs
     id="defs6" />
  <path
     d="m 14.535156,12.40625 c -0.187514,-0.187492 -0.281264,-0.410148 -0.28125,-0.667969 -1.4e-5,-0.281241 0.09374,-0.503897 0.28125,-0.667968 0.187486,-0.187491 0.410142,-0.281241 0.667969,-0.28125 0.257797,9e-6 0.480453,0.09376 0.667969,0.28125 0.187484,0.164071 0.281234,0.386727 0.28125,0.667968 -1.6e-5,0.257821 -0.09377,0.480477 -0.28125,0.667969 -0.187516,0.187507 -0.410172,0.281257 -0.667969,0.28125 -0.257827,7e-6 -0.480483,-0.09374 -0.667969,-0.28125 m 0,-4.6757813 C 14.347642,7.5429812 14.253892,7.3203252 14.253906,7.0625 c -1.4e-5,-0.2812368 0.09374,-0.5038928 0.28125,-0.6679688 0.187486,-0.1874862 0.410142,-0.2812361 0.667969,-0.28125 0.257797,1.39e-5 0.480453,0.093764 0.667969,0.28125 0.187484,0.164076 0.281234,0.386732 0.28125,0.6679688 -1.6e-5,0.2578252 -0.09377,0.4804812 -0.28125,0.6679687 -0.187516,0.1875121 -0.410172,0.281262 -0.667969,0.2812501 -0.257827,1.19e-5 -0.480483,-0.093738 -0.667969,-0.2812501 M 8.171875,4.4609375 c 1.6406155,1.55e-5 2.964833,0.4218901 3.972656,1.265625 1.0078,0.820326 1.511706,1.9687623 1.511719,3.4453125 -1.3e-5,0.960947 -0.199232,1.875009 -0.597656,2.742188 -0.375013,0.843757 -0.855481,1.593756 -1.441406,2.25 -0.585949,0.632817 -1.324229,1.265629 -2.2148442,1.898437 -0.8906333,0.609378 -1.7578199,1.125003 -2.6015626,1.546875 -0.8203181,0.421877 -1.7578172,0.85547 -2.8124999,1.300781 -0.046879,0.04688 -0.1054724,0.07031 -0.1757813,0.07031 -0.1640659,1e-6 -0.246097,-0.08203 -0.2460937,-0.246094 -3.3e-6,-0.07031 0.035153,-0.117186 0.1054687,-0.140625 0.8671833,-0.515623 1.6171825,-0.984373 2.25,-1.40625 0.6562437,-0.421872 1.3359305,-0.937496 2.0390625,-1.546875 0.7265541,-0.632808 1.312491,-1.242182 1.7578125,-1.828125 0.46874,-0.585931 0.855458,-1.265618 1.160156,-2.039062 0.328114,-0.773429 0.492177,-1.582022 0.492188,-2.4257817 C 11.371083,8.1757931 11.078114,7.1562628 10.492188,6.2890625 9.9062404,5.3984521 9.1328037,4.95314 8.171875,4.953125 7.4921803,4.95314 6.8945247,5.1757961 6.3789062,5.6210937 c -0.492193,0.421889 -0.8554739,0.9843884 -1.0898437,1.6875 0.2109323,-0.093737 0.4218696,-0.1406121 0.6328125,-0.140625 0.5156189,1.29e-5 0.9492122,0.1875127 1.3007812,0.5625 0.3749927,0.3750119 0.5624926,0.8086053 0.5625,1.3007813 -7.4e-6,0.5390729 -0.1875073,1.007822 -0.5625,1.40625 -0.351569,0.398447 -0.7851623,0.597665 -1.3007812,0.597656 -0.5625051,9e-6 -1.0546921,-0.187491 -1.4765625,-0.5625 C 4.0234338,10.074229 3.8124965,9.5937604 3.8125,9.03125 3.8124965,7.7890747 4.2343711,6.7226695 5.078125,5.8320312 5.9453069,4.9179838 6.9765558,4.460953 8.171875,4.4609375"
     id="path2994" />
</svg>
