<?xml version="1.0" encoding="UTF-8" standalone="no"?>
<!-- Created with Inkscape (http://www.inkscape.org/) -->

<svg
   xmlns:dc="http://purl.org/dc/elements/1.1/"
   xmlns:cc="http://creativecommons.org/ns#"
   xmlns:rdf="http://www.w3.org/1999/02/22-rdf-syntax-ns#"
   xmlns:svg="http://www.w3.org/2000/svg"
   xmlns="http://www.w3.org/2000/svg"
   xmlns:sodipodi="http://sodipodi.sourceforge.net/DTD/sodipodi-0.dtd"
   xmlns:inkscape="http://www.inkscape.org/namespaces/inkscape"
   id="svg2"
   version="1.1"
   inkscape:version="0.48.4 r9939"
   width="20"
   height="24"
   sodipodi:docname="clef.svg">
  <sodipodi:namedview
     pagecolor="#ffffff"
     bordercolor="#666666"
     borderopacity="1"
     objecttolerance="10"
     gridtolerance="10"
     guidetolerance="10"
     inkscape:pageopacity="0"
     inkscape:pageshadow="2"
     inkscape:window-width="1280"
     inkscape:window-height="974"
     id="namedview4"
     showgrid="true"
     inkscape:zoom="19.666667"
     inkscape:cx="13.740608"
     inkscape:cy="14.602754"
     inkscape:window-x="0"
     inkscape:window-y="0"
     inkscape:window-maximized="1"
     inkscape:current-layer="svg2"
     inkscape:snap-bbox="true">
    <inkscape:grid
       type="xygrid"
       id="grid2987"
       empspacing="5"
       visible="true"
       enabled="true"
       snapvisiblegridlinesonly="true" />
  </sodipodi:namedview>
  <metadata
     id="metadata8">
    <rdf:RDF>
      <cc:Work
         rdf:about="">
        <dc:format>image/svg+xml</dc:format>
        <dc:type
           rdf:resource="http://purl.org/dc/dcmitype/StillImage" />
        <dc:title />
      </cc:Work>
    </rdf:RDF>
  </metadata>
  <defs
     id="defs6">
    <inkscape:perspective
       id="perspective10"
       inkscape:persp3d-origin="0.5 : 0.33333333 : 1"
       inkscape:vp_z="1 : 0.5 : 1"
       inkscape:vp_y="0 : 1000 : 0"
       inkscape:vp_x="0 : 0.5 : 1"
       sodipodi:type="inkscape:persp3d" />
  </defs>
  <path
     inkscape:connector-curvature="0"
     id="path2990"
     d="m 13.652344,15.949219 c -10e-6,0.658856 -0.193369,1.238934 -0.580078,1.740234 -0.372405,0.501303 -0.837899,0.845053 -1.396485,1.03125 0.01432,0.143229 0.02148,0.365234 0.02149,0.666016 -8e-6,0.386718 -0.02149,0.837889 -0.06445,1.353515 -0.07162,0.730467 -0.322273,1.353513 -0.751954,1.869141 -0.429693,0.529944 -0.9596408,0.794917 -1.5898434,0.794922 -0.6588586,-5e-6 -1.2317747,-0.22201 -1.71875,-0.666016 C 7.0996065,22.30859 6.8632786,21.771482 6.8632812,21.126953 6.8632786,20.797524 6.9921847,20.511066 7.25,20.267578 c 0.2578092,-0.229168 0.5585901,-0.343751 0.9023438,-0.34375 0.3007769,-1e-6 0.5514277,0.114582 0.7519531,0.34375 0.2148388,0.243488 0.3222606,0.529946 0.3222656,0.859375 -5e-6,0.300779 -0.1074268,0.55143 -0.3222656,0.751953 -0.2005254,0.214841 -0.4511762,0.322263 -0.7519531,0.322266 -0.1145872,-3e-6 -0.2291704,-0.02149 -0.3437501,-0.06445 0.1575484,0.243486 0.3652305,0.436845 0.6230469,0.580078 0.257808,0.143225 0.5442661,0.21484 0.859375,0.214844 0.5156194,-4e-6 0.9381454,-0.222009 1.2675784,-0.666016 0.372389,-0.472659 0.572909,-1.002606 0.601562,-1.589844 0.02864,-0.58724 0.04296,-1.024089 0.04297,-1.310547 -7e-6,-0.243489 -7e-6,-0.422526 0,-0.537109 -0.315111,0.05729 -0.601569,0.08594 -0.859375,0.08594 -1.1028696,1e-6 -2.0481812,-0.393879 -2.8359375,-1.18164 -0.77344,-0.802081 -1.1601584,-1.761716 -1.1601563,-2.878906 -2.1e-6,-0.257808 0.021482,-0.522782 0.064453,-0.794922 0.057289,-0.27213 0.114581,-0.501297 0.171875,-0.6875 0.057289,-0.200515 0.1575495,-0.444005 0.3007812,-0.730469 0.1575493,-0.286452 0.264971,-0.494134 0.3222656,-0.623047 0.071612,-0.143222 0.222002,-0.372388 0.4511719,-0.6875 0.2434859,-0.329419 0.3867149,-0.52994 0.4296875,-0.601562 0.057288,-0.07161 0.2291626,-0.28645 0.515625,-0.644532 C 8.8899693,9.7115978 9.0475212,9.5039157 9.0761719,9.4609375 8.8040319,8.6158958 8.6035112,7.8925892 8.4746094,7.2910156 8.3600219,6.6894654 8.3027303,6.016289 8.3027344,5.2714844 8.3027303,4.8561339 8.3528604,4.4479312 8.453125,4.046875 8.567704,3.6458487 8.7037715,3.3092605 8.8613281,3.0371094 9.0188754,2.7506673 9.1764273,2.5000165 9.3339844,2.2851563 9.5058541,2.0560065 9.6562445,1.8912932 9.7851563,1.7910156 9.9140568,1.6764496 9.9999942,1.619158 10.042969,1.6191406 c 0.114577,1.74e-5 0.322259,0.2220224 0.623047,0.6660157 0.300774,0.4297037 0.587232,0.9954584 0.859375,1.6972656 0.272127,0.7018372 0.408195,1.3392064 0.408203,1.9121093 -8e-6,0.7877728 -0.179044,1.5254023 -0.53711,2.2128907 -0.343756,0.6875102 -0.845058,1.446624 -1.5039059,2.2773441 0.3150979,0.94532 0.5729109,1.790371 0.7734379,2.535156 0.87369,0.01433 1.589835,0.322271 2.148437,0.923828 0.558585,0.601567 0.837881,1.303389 0.837891,2.105469 m -1.998047,2.277343 c 0.343742,-0.128905 0.637362,-0.365233 0.880859,-0.708984 0.243481,-0.343748 0.365226,-0.730466 0.365235,-1.160156 -9e-6,-0.529945 -0.179045,-1.002601 -0.53711,-1.417969 -0.343758,-0.429683 -0.80209,-0.694657 -1.375,-0.794922 0.358066,1.475264 0.580071,2.83594 0.666016,4.082031 m -1.8476564,-0.83789 c -0.057297,1e-6 -0.1718804,-0.04297 -0.34375,-0.128906 C 9.3053334,17.17383 9.1262972,17.052085 8.9257813,16.894531 8.7395788,16.722659 8.5748654,16.486331 8.4316406,16.185547 8.2884074,15.884769 8.2167929,15.562503 8.2167969,15.21875 c -4e-6,-0.544267 0.1718708,-1.031245 0.515625,-1.460937 0.358068,-0.444005 0.8378852,-0.71614 1.4394531,-0.816407 C 9.9999942,12.325528 9.7851507,11.623705 9.5273438,10.835938 9.1406201,11.337247 8.8470006,11.731127 8.6464844,12.017578 8.4459593,12.304043 8.2096314,12.676439 7.9375,13.134766 7.6653611,13.578781 7.4648405,14.01563 7.3359375,14.445313 c -0.1145864,0.415368 -0.171878,0.852217 -0.171875,1.310546 -3e-6,0.716149 0.3294238,1.339195 0.9882813,1.869141 0.6731724,0.529949 1.4036404,0.794922 2.1914062,0.794922 0.286452,0 0.565748,-0.02148 0.837891,-0.06445 -0.08595,-1.303384 -0.315111,-2.71419 -0.6875,-4.232422 -0.472662,0.02865 -0.8522194,0.179041 -1.1386722,0.451172 -0.2721404,0.272139 -0.4082079,0.587243 -0.4082032,0.945312 -4.7e-6,0.615889 0.3365835,1.095706 1.0097657,1.439453 0.057286,0.05729 0.085932,0.121747 0.085938,0.19336 0.01432,0.05729 -0.0072,0.114585 -0.064453,0.171875 -0.042974,0.04297 -0.1002661,0.06445 -0.171875,0.06445 M 10.666016,3.2734375 C 10.121739,3.6172029 9.6848903,4.0826972 9.3554688,4.6699219 9.0403597,5.2428523 8.8828078,5.8587371 8.8828125,6.5175781 8.8828078,7.0045693 9.0690055,7.8352976 9.4414063,9.0097656 9.9713484,8.3079534 10.379551,7.634777 10.666016,6.9902344 10.96679,6.3457158 11.117181,5.6725394 11.117188,4.9707031 11.117181,4.5983217 11.088535,4.3047022 11.03125,4.0898437 10.973952,3.8750151 10.852207,3.60288 10.666016,3.2734375" />
</svg>
