<?xml version="1.0" encoding="UTF-8" standalone="no"?>
<svg
   xmlns:dc="http://purl.org/dc/elements/1.1/"
   xmlns:cc="http://creativecommons.org/ns#"
   xmlns:rdf="http://www.w3.org/1999/02/22-rdf-syntax-ns#"
   xmlns:svg="http://www.w3.org/2000/svg"
   xmlns="http://www.w3.org/2000/svg"
   xmlns:sodipodi="http://sodipodi.sourceforge.net/DTD/sodipodi-0.dtd"
   xmlns:inkscape="http://www.inkscape.org/namespaces/inkscape"
   height="24"
   version="1.1"
   width="18"
   id="svg2"
   inkscape:version="0.48.5 r10040"
   sodipodi:docname="document.svg">
  <metadata
     id="metadata14">
    <rdf:RDF>
      <cc:Work
         rdf:about="">
        <dc:format>image/svg+xml</dc:format>
        <dc:type
           rdf:resource="http://purl.org/dc/dcmitype/StillImage" />
      </cc:Work>
    </rdf:RDF>
  </metadata>
  <defs
     id="defs12" />
  <sodipodi:namedview
     pagecolor="#ffffff"
     bordercolor="#666666"
     borderopacity="1"
     objecttolerance="10"
     gridtolerance="10"
     guidetolerance="10"
     inkscape:pageopacity="0"
     inkscape:pageshadow="2"
     inkscape:window-width="1156"
     inkscape:window-height="838"
     id="namedview10"
     showgrid="false"
     inkscape:zoom="9.8333333"
     inkscape:cx="12"
     inkscape:cy="12"
     inkscape:window-x="664"
     inkscape:window-y="163"
     inkscape:window-maximized="0"
     inkscape:current-layer="svg2" />
  <path
     inkscape:connector-curvature="0"
     id="path8"
     style="fill:#3b3f45;stroke-width:2"
     d="m 2.21894,4.000076 c -0.6876,0.1305 -1.231079,0.80009 -1.218749,1.49999 l 0,14.99999 c 7.5e-5,0.7854 0.714629,1.49985 1.499998,1.5 l 12.999991,0 c 0.78537,-1.5e-4 1.499924,-0.7146 1.499999,-1.5 l 0,-9.15629 c 0.009,-0.39615 -0.14625,-0.7935 -0.421875,-1.0782 L 11.23456,4.421876 c -0.284685,-0.27555 -0.682049,-0.43095 -1.078124,-0.4218 -3.299861,0 -4.659835,0 -7.937496,0 z m 1.781248,2.99999 5.999603,0 0,3.9999 4.000391,0 0,8.00009 -9.999994,0 z" />
</svg>
