<?xml version="1.0" encoding="UTF-8" standalone="no"?>
<svg
   xmlns:dc="http://purl.org/dc/elements/1.1/"
   xmlns:cc="http://web.resource.org/cc/"
   xmlns:rdf="http://www.w3.org/1999/02/22-rdf-syntax-ns#"
   xmlns:svg="http://www.w3.org/2000/svg"
   xmlns="http://www.w3.org/2000/svg"
   xmlns:sodipodi="http://sodipodi.sourceforge.net/DTD/sodipodi-0.dtd"
   xmlns:inkscape="http://www.inkscape.org/namespaces/inkscape"
   viewBox="-1 -200 1000 1000"
   id="svg34224"
   sodipodi:version="0.32"
   inkscape:version="0.45.1"
   width="128"
   height="128"
   sodipodi:docname="mbeam.svg"
   inkscape:output_extension="org.inkscape.output.svg.inkscape"
   version="1.0"
   sodipodi:docbase="/home/ws/mscore/mscore/trunk/mscore/mscore/data">
  <defs
     id="defs7" />
  <metadata
     id="metadata34233">
    <rdf:RDF>
      <cc:Work
         rdf:about="">
        <dc:format>image/svg+xml</dc:format>
        <dc:type
           rdf:resource="http://purl.org/dc/dcmitype/StillImage" />
      </cc:Work>
    </rdf:RDF>
  </metadata>
  <sodipodi:namedview
     inkscape:window-height="1146"
     inkscape:window-width="1920"
     inkscape:pageshadow="2"
     inkscape:pageopacity="0.0"
     borderopacity="1.0"
     bordercolor="#666666"
     pagecolor="#ffffff"
     id="base"
     showguides="true"
     inkscape:guide-bbox="true"
     inkscape:zoom="5.6862552"
     inkscape:cx="62.153332"
     inkscape:cy="68.014718"
     inkscape:window-x="0"
     inkscape:window-y="0"
     inkscape:current-layer="svg34224"
     width="128px"
     height="128px" />
  <g
     id="g8293"
     transform="matrix(6.0558956,0,0,5.9415537,-53.624698,-5180.1091)">
    <path
       style="fill:#000000;fill-opacity:1"
       d="M 97.93631,842.17676 C 95.232873,843.23895 96.281494,847.05873 95.851967,851.34403 C 96.022123,859.2729 95.851967,926.39931 95.851967,963.92694 C 93.528603,959.1665 87.366534,959.22311 82.802017,958.87468 C 70.626302,959.15944 59.03273,966.2987 52.322637,976.3127 C 47.65094,983.09794 46.182759,993.47228 52.636283,999.6592 C 60.610441,1006.8854 72.827449,1005.5792 81.87426,1001.2141 C 91.996832,996.35577 101.21318,987.40929 102.31956,975.39232 C 102.35004,961.783 102.37329,865.53058 102.3377,851.67791 C 102.26425,845.23046 102.47368,846.68787 102.13954,842.62203 C 100.67726,841.59533 99.487856,841.78298 97.93631,842.17676 z "
       id="path37431"
       sodipodi:nodetypes="ccccccccccc" />
  </g>
  <path
     style="fill:none;fill-opacity:0.75;fill-rule:evenodd;stroke:#000000;stroke-width:117.84955597;stroke-linecap:butt;stroke-linejoin:miter;stroke-miterlimit:4;stroke-dasharray:none;stroke-opacity:1"
     d="M 132.60196,-121.57405 L 939.80902,-120.86218"
     id="path2158" />
  <path
     id="path3136"
     d="M 133.97707,79.020494 L 943.92961,79.729984"
     style="fill:none;fill-opacity:0.75;fill-rule:evenodd;stroke:#000000;stroke-width:117.85194397;stroke-linecap:butt;stroke-linejoin:miter;stroke-miterlimit:4;stroke-dasharray:none;stroke-opacity:1" />
</svg>
