<?xml version="1.0" encoding="UTF-8" standalone="no"?>
<svg
   xmlns:dc="http://purl.org/dc/elements/1.1/"
   xmlns:cc="http://web.resource.org/cc/"
   xmlns:rdf="http://www.w3.org/1999/02/22-rdf-syntax-ns#"
   xmlns:svg="http://www.w3.org/2000/svg"
   xmlns="http://www.w3.org/2000/svg"
   xmlns:sodipodi="http://sodipodi.sourceforge.net/DTD/sodipodi-0.dtd"
   xmlns:inkscape="http://www.inkscape.org/namespaces/inkscape"
   viewBox="-1 -200 1000 1000"
   id="svg34224"
   sodipodi:version="0.32"
   inkscape:version="0.45.1"
   width="128"
   height="128"
   sodipodi:docname="appaggiatura.svg"
   inkscape:output_extension="org.inkscape.output.svg.inkscape"
   version="1.0">
  <defs
     id="defs7" />
  <metadata
     id="metadata34233">
    <rdf:RDF>
      <cc:Work
         rdf:about="">
        <dc:format>image/svg+xml</dc:format>
        <dc:type
           rdf:resource="http://purl.org/dc/dcmitype/StillImage" />
      </cc:Work>
    </rdf:RDF>
  </metadata>
  <sodipodi:namedview
     inkscape:window-height="978"
     inkscape:window-width="1400"
     inkscape:pageshadow="2"
     inkscape:pageopacity="0.0"
     borderopacity="1.0"
     bordercolor="#666666"
     pagecolor="#ffffff"
     id="base"
     showguides="true"
     inkscape:guide-bbox="true"
     inkscape:zoom="2.0103948"
     inkscape:cx="128.33274"
     inkscape:cy="54.089548"
     inkscape:window-x="0"
     inkscape:window-y="0"
     inkscape:current-layer="svg34224"
     width="128px"
     height="128px" />
  <g
     id="g8293"
     transform="matrix(6.0558956,0,0,5.9415537,-53.624698,-5180.1091)">
    <path
       style="fill:#000000;fill-opacity:1"
       d="M 98.497795,842.17676 C 94.7516,843.64773 96.111338,848.21493 95.851967,851.34403 C 95.851967,888.87167 95.851967,926.39931 95.851967,963.92694 C 93.528603,959.1665 87.366534,959.22311 82.802017,958.87468 C 70.626302,959.15944 59.03273,966.2987 52.322637,976.3127 C 47.65094,983.09794 46.182759,993.47228 52.636283,999.6592 C 60.610441,1006.8854 72.827449,1005.5792 81.87426,1001.2141 C 91.996832,996.35577 101.32662,987.06243 102.31956,975.39232 C 102.30556,945.6442 102.29156,915.89607 102.27756,886.14795 C 112.76523,898.09346 124.53148,910.23447 128.29426,926.17529 C 130.74857,939.17912 126.96717,952.43342 122.20793,964.46929 C 121.32294,971.25868 131.61553,970.35923 131.25573,963.96904 C 136.68217,948.21741 139.70027,930.3294 133.30692,914.38306 C 125.4271,894.02091 109.17362,877.73609 103.58551,856.36053 C 102.4579,852.4988 102.16325,848.49912 102.18653,844.50582 C 101.90964,842.76556 100.10606,842.01422 98.497795,842.17676 z "
       id="path37431" />
  </g>
</svg>
