<svg width="512" height="512" viewBox="0 0 512 512" fill="none" xmlns="http://www.w3.org/2000/svg">
<path d="M83 10H73V20V492V502H83H431H441V492V120V115.957L438.19 113.05L341.523 13.0498L338.575 10H334.333H83Z" fill="#000076" stroke="#19F3FF" stroke-width="20"/>
<path d="M181.118 242.413C178.755 234.945 177.484 227.022 177.484 218.816C177.484 173.906 215.543 137.5 262.492 137.5C289.598 137.5 313.741 149.636 329.307 168.537H329.307C333.783 173.451 336.515 180.002 336.515 187.195C336.515 202.443 324.239 214.804 309.096 214.804C293.953 214.804 281.677 202.443 281.677 187.195C281.677 171.947 293.953 159.586 309.096 159.586C309.305 159.586 309.514 159.589 309.722 159.593C300.667 152.66 289.368 148.544 277.114 148.544C247.336 148.544 223.196 172.851 223.196 202.835C223.196 218.441 229.736 232.509 240.206 242.413H181.118Z" fill="#19F3FF"/>
<path d="M342 303.059C342 297.43 341.45 291.924 340.399 286.587H273.348C281.943 296.549 287.162 309.663 287.162 324.031C287.162 355.194 262.61 380.456 232.324 380.456C220.117 380.456 208.841 376.352 199.729 369.412C214.73 369.245 226.838 356.949 226.838 341.805C226.838 326.557 214.562 314.196 199.419 314.196C184.276 314.196 172 326.557 172 341.805C172 348.853 174.623 355.284 178.939 360.163C195.899 379.331 221.235 391.5 249.543 391.5C300.606 391.5 342 351.904 342 303.059Z" fill="#19F3FF"/>
<path d="M311.837 242.412H251.515L202.16 286.586H262.483L311.837 242.412Z" fill="#19F3FF"/>
</svg>
