<?xml version="1.0" encoding="UTF-8" standalone="no"?>
<svg width="1417.32px" height="283.465px" viewBox="0 0 1417.32 283.465"
 xmlns="http://www.w3.org/2000/svg" xmlns:xlink="http://www.w3.org/1999/xlink" version="1.2" baseProfile="tiny">
<title>example (4)</title>
<desc>Generated by MuseScore 4.1.0</desc>
<path class="" fill="#ffffff" fill-rule="evenodd" d="M0,0 L1417.32,0 L1417.32,283.465 L0,283.465 L0,0 "/>
<polyline class="StaffLines" fill="none" stroke="#000000" stroke-width="2.73" stroke-linejoin="bevel" points="28.3465,108.215 1388.98,108.215"/>
<polyline class="StaffLines" fill="none" stroke="#000000" stroke-width="2.73" stroke-linejoin="bevel" points="28.3465,133.018 1388.98,133.018"/>
<polyline class="StaffLines" fill="none" stroke="#000000" stroke-width="2.73" stroke-linejoin="bevel" points="28.3465,157.822 1388.98,157.822"/>
<polyline class="StaffLines" fill="none" stroke="#000000" stroke-width="2.73" stroke-linejoin="bevel" points="28.3465,182.625 1388.98,182.625"/>
<polyline class="StaffLines" fill="none" stroke="#000000" stroke-width="2.73" stroke-linejoin="bevel" points="28.3465,207.428 1388.98,207.428"/>
<path class="SlurSegment" stroke="#000000" stroke-width="1.74" stroke-linecap="round" stroke-linejoin="round" fill-rule="evenodd" d="M1113.92,85.8924 C1136.01,47.6991 1196.21,31.7534 1234.31,54.001 C1197.99,38.4667 1137.79,54.4124 1113.92,85.8924"/>
<path class="SlurSegment" stroke="#000000" stroke-width="1.74" stroke-linecap="round" stroke-linejoin="round" fill-rule="evenodd" d="M181.45,213.133 C190.934,226.808 219.386,226.808 228.871,213.133 C219.386,233.753 190.934,233.753 181.45,213.133"/>
<path class="TieSegment" stroke="#000000" stroke-width="1.74" stroke-linecap="round" stroke-linejoin="round" fill-rule="evenodd" d="M239.763,200.607 C275.386,224.208 382.255,224.208 417.877,200.607 C382.255,231.153 275.386,231.153 239.763,200.607"/>
<polyline class="BarLine" fill="none" stroke="#000000" stroke-width="4.46" stroke-linejoin="bevel" points="1386.74,106.851 1386.74,208.792"/>
<polyline class="BarLine" fill="none" stroke="#000000" stroke-width="4.46" stroke-linejoin="bevel" points="735.652,106.851 735.652,208.792"/>
<polyline class="StemSlash" fill="none" stroke="#000000" stroke-width="2.17" stroke-linejoin="bevel" points="181.45,169.122 210.892,144.417"/>
<path class="Accidental" transform="matrix(0.992126,0,0,0.992126,1172.76,95.8137)" d="M0,19.2969 C0,20.2031 0.703125,20.9063 1.59375,20.9063 L8.09375,20.9063 L8.09375,17.7031 L3.20313,17.7031 L3.20313,-17.7969 L8.09375,-17.7969 L8.09375,-21 L1.59375,-21 C0.703125,-21 0,-20.2969 0,-19.4063 L0,19.2969 "/>
<path class="Accidental" transform="matrix(0.992126,0,0,0.992126,1185.13,95.8137)" d="M16.5938,-18.2969 C16.4063,-18.5 16.0938,-18.5938 15.7031,-18.5938 L15.5,-18.5 C15.5,-18.5 15.4063,-18.5 15.4063,-18.5 L2.79688,-15 L2.79688,-32.5 L0,-32.5 L0,17 C0,18.0938 0.90625,18.2969 1.79688,18.2969 L14.4063,14.7969 L14.4063,32.2969 L17.0938,32.2969 C17.0938,15.7031 17.0938,-0.09375 17.0938,-17.2031 C17.0938,-17.5938 16.9063,-18.0938 16.5938,-18.2969 M2.79688,9.70313 L2.79688,-6.70313 L14.4063,-10 L14.4063,6.5 L2.79688,9.70313 "/>
<path class="Accidental" transform="matrix(0.992126,0,0,0.992126,1206.43,95.8137)" d="M0,-21 L0,-17.7969 L4.90625,-17.7969 L4.90625,17.7031 L0,17.7031 L0,20.9063 L6.5,20.9063 C7.40625,20.9063 8.09375,20.2031 8.09375,19.2969 L8.09375,-19.4063 C8.09375,-20.2969 7.40625,-21 6.5,-21 L0,-21 "/>
<path class="Accidental" transform="matrix(0.694488,0,0,0.694488,148.882,195.026)" d="M23.2969,-10.5 C23.9063,-10.5938 24.4063,-11.2969 24.4063,-11.9063 L24.4063,-17.7969 C24.4063,-18.7969 23.7031,-19.2031 22.7969,-19.2031 L19.5,-18.5 L19.5,-33.4063 L16.7031,-33.4063 L16.7031,-17.9063 L7.79688,-16.0938 L7.79688,-30.2031 L5,-30.2031 L5,-15.5 L1.09375,-14.7031 C0.5,-14.5938 0,-13.9063 0,-13.2969 L0,-7.5 C0,-6.40625 0.796875,-6.09375 1.70313,-6.09375 L5,-6.79688 L5,9.70313 L1.09375,10.5 C0.5,10.5938 0,11.2969 0,11.9063 L0,17.7031 C0,18.7969 0.796875,19.0938 1.70313,19.0938 L5,18.4063 L5,33.2969 L7.79688,33.2969 L7.79688,17.7969 L16.7031,16 L16.7031,30.1094 L19.5,30.1094 L19.5,15.4063 L23.2969,14.7031 C23.9063,14.5938 24.4063,13.9063 24.4063,13.2969 L24.4063,7.40625 C24.4063,6.40625 23.7031,6 22.7969,6 L19.5,6.70313 L19.5,-9.79688 L23.2969,-10.5 M7.79688,-7.40625 L16.7031,-9.20313 L16.7031,7.29688 L7.79688,9.20313 L7.79688,-7.40625 "/>
<path class="Accidental" transform="matrix(0.992126,0,0,0.992126,539.177,182.625)" d="M23.2969,-10.5 C23.9063,-10.5938 24.4063,-11.2969 24.4063,-11.9063 L24.4063,-17.7969 C24.4063,-18.7969 23.7031,-19.2031 22.7969,-19.2031 L19.5,-18.5 L19.5,-33.4063 L16.7031,-33.4063 L16.7031,-17.9063 L7.79688,-16.0938 L7.79688,-30.2031 L5,-30.2031 L5,-15.5 L1.09375,-14.7031 C0.5,-14.5938 0,-13.9063 0,-13.2969 L0,-7.5 C0,-6.40625 0.796875,-6.09375 1.70313,-6.09375 L5,-6.79688 L5,9.70313 L1.09375,10.5 C0.5,10.5938 0,11.2969 0,11.9063 L0,17.7031 C0,18.7969 0.796875,19.0938 1.70313,19.0938 L5,18.4063 L5,33.2969 L7.79688,33.2969 L7.79688,17.7969 L16.7031,16 L16.7031,30.1094 L19.5,30.1094 L19.5,15.4063 L23.2969,14.7031 C23.9063,14.5938 24.4063,13.9063 24.4063,13.2969 L24.4063,7.40625 C24.4063,6.40625 23.7031,6 22.7969,6 L19.5,6.70313 L19.5,-9.79688 L23.2969,-10.5 M7.79688,-7.40625 L16.7031,-9.20313 L16.7031,7.29688 L7.79688,9.20313 L7.79688,-7.40625 "/>
<polyline class="Stem" fill="none" stroke="#000000" stroke-width="2.73" stroke-linejoin="bevel" points="600.457,178.656 600.457,102.014"/>
<polyline class="Stem" fill="none" stroke="#000000" stroke-width="2.73" stroke-linejoin="bevel" points="252.306,178.656 252.306,95.8137"/>
<polyline class="Stem" fill="none" stroke="#000000" stroke-width="2.73" stroke-linejoin="bevel" points="682.374,166.255 682.374,102.014"/>
<polyline class="Stem" fill="none" stroke="#000000" stroke-width="2.73" stroke-linejoin="bevel" points="1099.16,112.382 1099.16,195.026"/>
<polyline class="Stem" fill="none" stroke="#000000" stroke-width="1.91" stroke-linejoin="bevel" points="191.778,192.248 191.778,134.397"/>
<polyline class="Stem" fill="none" stroke="#000000" stroke-width="2.73" stroke-linejoin="bevel" points="771.493,161.988 771.493,225.996"/>
<polyline class="Stem" fill="none" stroke="#000000" stroke-width="2.73" stroke-linejoin="bevel" points="436.621,178.656 436.621,102.014"/>
<polyline class="Stem" fill="none" stroke="#000000" stroke-width="2.73" stroke-linejoin="bevel" points="853.411,137.185 853.411,223.952"/>
<polyline class="Stem" fill="none" stroke="#000000" stroke-width="2.73" stroke-linejoin="bevel" points="935.329,124.784 935.329,221.908"/>
<polyline class="Stem" fill="none" stroke="#000000" stroke-width="2.73" stroke-linejoin="bevel" points="1017.25,137.185 1017.25,219.863"/>
<polyline class="Stem" fill="none" stroke="#000000" stroke-width="2.73" stroke-linejoin="bevel" points="518.539,166.255 518.539,102.014"/>
<polyline class="Stem" fill="none" stroke="#000000" stroke-width="2.73" stroke-linejoin="bevel" points="1222.04,99.9806 1222.04,182.525"/>
<path class="Note" transform="matrix(0.992126,0,0,0.992126,221.434,182.625)" d="M21.2969,-13.2031 C11.5938,-13.2031 0,-5.09375 0,4.20313 C0,8.5 3.09375,13.2969 11.2031,13.2969 C21.5938,13.2969 32.5,4.79688 32.5,-4 C32.5,-9.90625 27.5,-13.2031 21.2969,-13.2031 M7.5,8.59375 C4.20313,8.59375 3.5,5.90625 3.5,5 C3.5,0.09375 20.2969,-8.5 25,-8.5 C27.4063,-8.5 29,-7.09375 29,-4.90625 C29,0.09375 12.0938,8.59375 7.5,8.59375"/>
<path class="Note" transform="matrix(0.694488,0,0,0.694488,170.167,195.026)" d="M0,4.20313 C0,8.5 3.09375,13.2969 11.2031,13.2969 C21.5938,13.2969 32.5,4.79688 32.5,-4 C32.5,-9.90625 27.5,-13.2031 21.2969,-13.2031 C11.5938,-13.2031 0,-5 0,4.20313"/>
<path class="Note" transform="matrix(0.992126,0,0,0.992126,405.749,182.625)" d="M0,4.20313 C0,8.5 3.09375,13.2969 11.2031,13.2969 C21.5938,13.2969 32.5,4.79688 32.5,-4 C32.5,-9.90625 27.5,-13.2031 21.2969,-13.2031 C11.5938,-13.2031 0,-5 0,4.20313"/>
<path class="Note" transform="matrix(0.992126,0,0,0.992126,487.667,170.223)" d="M0,4.20313 C0,8.5 3.09375,13.2969 11.2031,13.2969 C21.5938,13.2969 32.5,4.79688 32.5,-4 C32.5,-9.90625 27.5,-13.2031 21.2969,-13.2031 C11.5938,-13.2031 0,-5 0,4.20313"/>
<path class="Note" transform="matrix(0.992126,0,0,0.992126,933.965,120.617)" d="M0,4.20313 C0,8.5 3.09375,13.2969 11.2031,13.2969 C21.5938,13.2969 32.5,4.79688 32.5,-4 C32.5,-9.90625 27.5,-13.2031 21.2969,-13.2031 C11.5938,-13.2031 0,-5 0,4.20313"/>
<path class="Note" transform="matrix(0.992126,0,0,0.992126,1015.88,133.018)" d="M0,4.20313 C0,8.5 3.09375,13.2969 11.2031,13.2969 C21.5938,13.2969 32.5,4.79688 32.5,-4 C32.5,-9.90625 27.5,-13.2031 21.2969,-13.2031 C11.5938,-13.2031 0,-5 0,4.20313"/>
<path class="Note" transform="matrix(0.992126,0,0,0.992126,1097.8,108.215)" d="M0,4.20313 C0,8.5 3.09375,13.2969 11.2031,13.2969 C21.5938,13.2969 32.5,4.79688 32.5,-4 C32.5,-9.90625 27.5,-13.2031 21.2969,-13.2031 C11.5938,-13.2031 0,-5 0,4.20313"/>
<path class="Note" transform="matrix(0.992126,0,0,0.992126,770.129,157.822)" d="M0,4.20313 C0,8.5 3.09375,13.2969 11.2031,13.2969 C21.5938,13.2969 32.5,4.79688 32.5,-4 C32.5,-9.90625 27.5,-13.2031 21.2969,-13.2031 C11.5938,-13.2031 0,-5 0,4.20313"/>
<path class="Note" transform="matrix(0.992126,0,0,0.992126,1220.68,95.8137)" d="M0,4.20313 C0,8.5 3.09375,13.2969 11.2031,13.2969 C21.5938,13.2969 32.5,4.79688 32.5,-4 C32.5,-9.90625 27.5,-13.2031 21.2969,-13.2031 C11.5938,-13.2031 0,-5 0,4.20313"/>
<path class="Note" transform="matrix(0.992126,0,0,0.992126,651.502,170.223)" d="M0,4.20313 C0,8.5 3.09375,13.2969 11.2031,13.2969 C21.5938,13.2969 32.5,4.79688 32.5,-4 C32.5,-9.90625 27.5,-13.2031 21.2969,-13.2031 C11.5938,-13.2031 0,-5 0,4.20313"/>
<path class="Note" transform="matrix(0.992126,0,0,0.992126,852.047,133.018)" d="M0,4.20313 C0,8.5 3.09375,13.2969 11.2031,13.2969 C21.5938,13.2969 32.5,4.79688 32.5,-4 C32.5,-9.90625 27.5,-13.2031 21.2969,-13.2031 C11.5938,-13.2031 0,-5 0,4.20313"/>
<path class="Note" transform="matrix(0.992126,0,0,0.992126,569.584,182.625)" d="M0,4.20313 C0,8.5 3.09375,13.2969 11.2031,13.2969 C21.5938,13.2969 32.5,4.79688 32.5,-4 C32.5,-9.90625 27.5,-13.2031 21.2969,-13.2031 C11.5938,-13.2031 0,-5 0,4.20313"/>
<path class="Clef" transform="matrix(0.992126,0,0,0.992126,48.189,182.625)" d="M12.2969,51.2969 C12.2969,57.9063 17.2969,66.6094 30.7969,66.6094 C35.5,66.6094 39.6094,65.4063 43.2031,63.2031 C48.6094,59.4063 50,52.7969 50,46.5 C50,42.6094 49.4063,38.1094 48.4063,32.4063 C48.1094,30.4063 47.5,27.4063 46.9063,23.5 C56.7031,20.2969 64,10.0938 64,-0.203125 C64,-15.2969 53.2969,-25.5 38.7031,-25.5 C37.7031,-31.5 36.7031,-37.4063 35.9063,-43 C46.4063,-54.1094 53.7031,-66.6094 53.7031,-82.5 C53.7031,-91.6094 50.9063,-99 49.2969,-102.609 C46.9063,-107.703 44,-111.203 42.2031,-111.203 C41.5,-111.203 38.4063,-110 35.1094,-106.109 C28.7031,-98.5 26.9063,-85.7031 26.9063,-77.3125 C26.9063,-71.9063 27.4063,-67 29.1094,-55.7969 C29,-55.7031 23.7969,-50.4063 21.7031,-48.7031 C12.5938,-40.2969 0,-28.1094 0,-8.09375 C0,10.5938 16.2969,25.2969 34.9063,25.2969 C37.7969,25.2969 40.5,25 42.7969,24.5938 C44.7031,34.2031 45.9063,41.2031 45.9063,46.5 C45.9063,56.9063 40.5,62.4063 30.4063,62.4063 C28,62.4063 25.9063,61.9063 25.7031,61.9063 C25.6094,61.7969 25.4063,61.7031 25.4063,61.6094 C25.4063,61.4063 25.6094,61.2969 25.9063,61.2969 C30.6094,60.5 35.2969,56.5 35.2969,50.1094 C35.2969,44.7031 31.2031,39 23.7031,39 C16.7031,39 12.2969,44.7031 12.2969,51.2969 M33.2031,-82.2031 C34.1094,-86.2031 38.7031,-96.7031 43.9063,-96.7031 C45.4063,-96.7031 47.7969,-91.9063 47.7969,-84.9063 C47.7969,-74.5 40.1094,-66.7031 33.2031,-59.9063 C32.6094,-63.9063 32.1094,-67.7969 32.1094,-72 C32.1094,-75.7031 32.4063,-79.1094 33.2031,-82.2031 M42,20.5938 C40,21 38.1094,21.2031 36.2031,21.2031 C21.9063,21.2031 9.70313,11.2031 9.70313,-3.90625 C9.70313,-16.0938 18.2969,-27 27.1094,-34.6094 C28.7969,-36.1094 30.4063,-37.5 31.9063,-39 C32.7969,-33.6094 33.5,-28.9063 34.2031,-24.7969 C25.0938,-22.0938 18.9063,-12.5 18.9063,-3.09375 C18.9063,3.90625 24.4063,13.5 32.4063,13.5 C33.2031,13.5 34.1094,13.0938 34.1094,12.2031 C34.1094,11.2969 33.1094,10.7969 31.9063,10 C28,7.59375 25.7969,5 25.7969,0.09375 C25.7969,-6 30.4063,-10.9063 36.2031,-12.2969 L42,20.5938 M56.2031,2.09375 C56.2031,9.20313 53.2969,16.5 46.2031,19.4063 C44.1094,7.40625 41.4063,-8.5 40.7031,-12.9063 C49.7031,-12.9063 56.2031,-6.79688 56.2031,2.09375"/>
<path class="Rest" transform="matrix(0.992126,0,0,0.992126,1302.59,157.822)" d="M26.7031,-20.2969 C26.6094,-20.2969 26.4063,-20.4063 26.2969,-20.4063 C25.7031,-20.4063 25.2031,-20.0938 25,-19.5938 C22.7031,-15 17.9063,-8.79688 12.5,-7.79688 C13.5938,-9.09375 14.2969,-10.7031 14.2969,-12.5938 C14.2969,-16.5 11.0938,-19.7031 7.20313,-19.7031 C3.20313,-19.7031 0,-16.5 0,-12.5938 C0,-7.20313 5.29688,-4.70313 10,-4.70313 C15.2969,-4.70313 18.7969,-7.20313 22.2031,-10.9063 L10.7969,24.7031 L13.5,25.5 L27.5,-18.5938 C27.6094,-18.7031 27.6094,-18.9063 27.6094,-19.0938 C27.6094,-19.5938 27.2969,-20 26.7031,-20.2969"/>
<path class="Articulation" transform="matrix(0.992126,0,0,0.992126,499.894,191.159)" d="M1.09375,6.70313 C1.90625,7.5 2.90625,7.79688 3.90625,7.79688 C4.90625,7.79688 5.90625,7.5 6.70313,6.70313 C8.20313,5.09375 8.20313,2.70313 6.70313,1.20313 C5.90625,0.40625 4.90625,0 3.90625,0 C2.90625,0 1.90625,0.40625 1.09375,1.20313 C-0.40625,2.70313 -0.40625,5.09375 1.09375,6.70313"/>
<path class="Articulation" transform="matrix(0.992126,0,0,0.992126,782.356,124.485)" d="M1.09375,-1.09375 C1.90625,-0.40625 2.90625,0 3.90625,0 C4.90625,0 5.90625,-0.40625 6.70313,-1.09375 C8.20313,-2.70313 8.20313,-5.09375 6.70313,-6.70313 C5.90625,-7.5 4.90625,-7.79688 3.90625,-7.79688 C2.90625,-7.79688 1.90625,-7.5 1.09375,-6.70313 C-0.40625,-5.09375 -0.40625,-2.70313 1.09375,-1.09375"/>
<path class="Articulation" transform="matrix(0.992126,0,0,0.992126,946.192,95.0735)" d="M1.09375,-1.09375 C1.90625,-0.40625 2.90625,0 3.90625,0 C4.90625,0 5.90625,-0.40625 6.70313,-1.09375 C8.20313,-2.70313 8.20313,-5.09375 6.70313,-6.70313 C5.90625,-7.5 4.90625,-7.79688 3.90625,-7.79688 C2.90625,-7.79688 1.90625,-7.5 1.09375,-6.70313 C-0.40625,-5.09375 -0.40625,-2.70313 1.09375,-1.09375"/>
<path class="Articulation" transform="matrix(0.992126,0,0,0.992126,1028.11,99.6814)" d="M1.09375,-1.09375 C1.90625,-0.40625 2.90625,0 3.90625,0 C4.90625,0 5.90625,-0.40625 6.70313,-1.09375 C8.20313,-2.70313 8.20313,-5.09375 6.70313,-6.70313 C5.90625,-7.5 4.90625,-7.79688 3.90625,-7.79688 C2.90625,-7.79688 1.90625,-7.5 1.09375,-6.70313 C-0.40625,-5.09375 -0.40625,-2.70313 1.09375,-1.09375"/>
<path class="Articulation" transform="matrix(0.992126,0,0,0.992126,864.274,99.6814)" d="M1.09375,-1.09375 C1.90625,-0.40625 2.90625,0 3.90625,0 C4.90625,0 5.90625,-0.40625 6.70313,-1.09375 C8.20313,-2.70313 8.20313,-5.09375 6.70313,-6.70313 C5.90625,-7.5 4.90625,-7.79688 3.90625,-7.79688 C2.90625,-7.79688 1.90625,-7.5 1.09375,-6.70313 C-0.40625,-5.09375 -0.40625,-2.70313 1.09375,-1.09375"/>
<path class="Articulation" transform="matrix(0.992126,0,0,0.992126,1232.9,70.2703)" d="M1.09375,-1.09375 C1.90625,-0.40625 2.90625,0 3.90625,0 C4.90625,0 5.90625,-0.40625 6.70313,-1.09375 C8.20313,-2.70313 8.20313,-5.09375 6.70313,-6.70313 C5.90625,-7.5 4.90625,-7.79688 3.90625,-7.79688 C2.90625,-7.79688 1.90625,-7.5 1.09375,-6.70313 C-0.40625,-5.09375 -0.40625,-2.70313 1.09375,-1.09375"/>
<path class="Articulation" transform="matrix(0.992126,0,0,0.992126,663.729,191.159)" d="M1.09375,6.70313 C1.90625,7.5 2.90625,7.79688 3.90625,7.79688 C4.90625,7.79688 5.90625,7.5 6.70313,6.70313 C8.20313,5.09375 8.20313,2.70313 6.70313,1.20313 C5.90625,0.40625 4.90625,0 3.90625,0 C2.90625,0 1.90625,0.40625 1.09375,1.20313 C-0.40625,2.70313 -0.40625,5.09375 1.09375,6.70313"/>
<path class="Articulation" transform="matrix(0.992126,0,0,0.992126,581.812,215.962)" d="M1.09375,6.70313 C1.90625,7.5 2.90625,7.79688 3.90625,7.79688 C4.90625,7.79688 5.90625,7.5 6.70313,6.70313 C8.20313,5.09375 8.20313,2.70313 6.70313,1.20313 C5.90625,0.40625 4.90625,0 3.90625,0 C2.90625,0 1.90625,0.40625 1.09375,1.20313 C-0.40625,2.70313 -0.40625,5.09375 1.09375,6.70313"/>
<path class="Beam" fill-rule="evenodd" d="M435.257,95.8137 L683.739,95.8137 L683.739,108.215 L435.257,108.215 L435.257,95.8137 "/>
<path class="Beam" fill-rule="evenodd" d="M770.129,219.828 L1018.61,213.627 L1018.61,226.032 L770.129,232.233 L770.129,219.828 "/>
<path class="Hook" transform="matrix(0.694488,0,0,0.694488,190.823,134.259)" d="M0,22.7031 C0,23 0.09375,23.5938 0.796875,23.7969 C5.09375,25.2031 13.7031,30.6094 20.2031,41.7031 C22,44.7969 24.9063,49.1094 24.9063,57.4063 C24.9063,64.6094 23.0938,72 20.4063,79.2031 C20.2031,79.8125 20.0938,80.3125 20.0938,80.7031 C20.0938,81.4063 20.5,81.7031 21.2031,81.7031 C21.7969,81.7031 22.2969,81.3125 22.7031,80.6094 C27.2031,72.6094 28.9063,63.2969 28.9063,54.2031 C28.4063,41.2969 21,31.7969 21,31.7969 C21.2969,31.7969 11.7969,19.5 9.09375,15.2969 C5.40625,9.59375 3.70313,3.90625 3.5,3.5 C3.40625,3.20313 2.5,-0.40625 2.5,-0.40625 C2.40625,-0.796875 1.90625,-1.20313 1.29688,-1.20313 C0.59375,-1.20313 0,-0.59375 0,0.09375 L0,22.7031 "/>
<path class="Hook" transform="matrix(0.992126,0,0,0.992126,1220.68,182.625)" d="M0,-0.09375 C0,0.59375 0.59375,1.20313 1.29688,1.20313 C1.79688,1.20313 2.40625,0.796875 2.5,0.40625 C2.5,0.296875 3.40625,-3.20313 3.5,-3.5 C3.59375,-3.90625 4.5,-7.70313 8.09375,-13.5938 C12,-20.0938 18,-24.7969 23,-31.7969 C28,-38.7969 30.9063,-45.4063 30.9063,-54.2031 C30.9063,-63.2969 28.9063,-70.9063 23.5,-80.6094 C23.2031,-81.3125 22.5938,-81.7031 22,-81.7031 C21.7969,-81.7031 21.5938,-81.7031 21.5,-81.6094 C21,-81.4063 20.7969,-81 20.7969,-80.4063 C20.7969,-80.1094 20.9063,-79.7031 21.0938,-79.2031 C25.0938,-69.9063 26.7031,-64.6094 26.7031,-57.4063 C26.7031,-49.1094 23.7969,-44.7969 22,-41.7031 C15.5,-30.6094 5,-25.2031 0.796875,-23.7969 C0.09375,-23.5938 0,-23 0,-22.7031 L0,-0.09375 "/>
</svg>
