<?xml version="1.0" encoding="UTF-8" standalone="no"?>
<svg width="1417.32px" height="283.465px" viewBox="0 0 1417.32 283.465"
 xmlns="http://www.w3.org/2000/svg" xmlns:xlink="http://www.w3.org/1999/xlink" version="1.2" baseProfile="tiny">
<title>example (6)</title>
<desc>Generated by MuseScore 4.1.0</desc>
<path class="" fill="#ffffff" fill-rule="evenodd" d="M0,0 L1417.32,0 L1417.32,283.465 L0,283.465 L0,0 "/>
<polyline class="StaffLines" fill="none" stroke="#000000" stroke-width="2.73" stroke-linejoin="bevel" points="28.3465,108.123 1388.98,108.123"/>
<polyline class="StaffLines" fill="none" stroke="#000000" stroke-width="2.73" stroke-linejoin="bevel" points="28.3465,132.926 1388.98,132.926"/>
<polyline class="StaffLines" fill="none" stroke="#000000" stroke-width="2.73" stroke-linejoin="bevel" points="28.3465,157.73 1388.98,157.73"/>
<polyline class="StaffLines" fill="none" stroke="#000000" stroke-width="2.73" stroke-linejoin="bevel" points="28.3465,182.533 1388.98,182.533"/>
<polyline class="StaffLines" fill="none" stroke="#000000" stroke-width="2.73" stroke-linejoin="bevel" points="28.3465,207.336 1388.98,207.336"/>
<path class="SlurSegment" stroke="#000000" stroke-width="1.74" stroke-linecap="round" stroke-linejoin="round" fill-rule="evenodd" d="M1116.8,85.8004 C1138.54,47.7565 1198.12,31.8108 1235.96,53.909 C1199.92,38.5195 1140.34,54.4653 1116.8,85.8004"/>
<path class="SlurSegment" stroke="#000000" stroke-width="1.74" stroke-linecap="round" stroke-linejoin="round" fill-rule="evenodd" d="M181.45,213.041 C190.934,226.716 219.386,226.716 228.871,213.041 C219.386,233.661 190.934,233.661 181.45,213.041"/>
<path class="TieSegment" stroke="#000000" stroke-width="1.74" stroke-linecap="round" stroke-linejoin="round" fill-rule="evenodd" d="M239.763,200.515 C275.016,223.835 380.774,223.835 416.026,200.515 C380.774,230.779 275.016,230.779 239.763,200.515"/>
<polyline class="BarLine" fill="none" stroke="#000000" stroke-width="4.46" stroke-linejoin="bevel" points="1386.74,106.759 1386.74,208.7"/>
<polyline class="BarLine" fill="none" stroke="#000000" stroke-width="4.46" stroke-linejoin="bevel" points="730.511,106.759 730.511,208.7"/>
<polyline class="StemSlash" fill="none" stroke="#000000" stroke-width="2.17" stroke-linejoin="bevel" points="181.45,169.03 210.892,144.325"/>
<path class="Accidental" transform="matrix(0.992126,0,0,0.992126,1049.19,108.123)" d="M8.5,20.7031 C8.59375,20.7969 8.90625,21 9.20313,21 C9.5,21 9.79688,20.5938 9.79688,20.2969 C9.79688,20.2031 9.79688,20.0938 9.70313,19.7969 C8.79688,17.5938 4.20313,10.5 4.20313,0 C4.20313,-5.70313 5.59375,-12.9063 9.70313,-19.9063 C9.79688,-20 9.79688,-20.2031 9.79688,-20.4063 C9.79688,-20.7031 9.5,-21.0938 9.20313,-21.0938 C8.90625,-21.0938 8.70313,-21 8.5,-20.7969 C8.29688,-20.4063 0,-15 0,0 C0,15 8.20313,20.2969 8.5,20.7031"/>
<path class="Accidental" transform="matrix(0.992126,0,0,0.992126,1063.34,108.123)" d="M16.5938,-18.2969 C16.4063,-18.5 16.0938,-18.5938 15.7031,-18.5938 L15.5,-18.5 C15.5,-18.5 15.4063,-18.5 15.4063,-18.5 L2.79688,-15 L2.79688,-32.5 L0,-32.5 L0,17 C0,18.0938 0.90625,18.2969 1.79688,18.2969 L14.4063,14.7969 L14.4063,32.2969 L17.0938,32.2969 C17.0938,15.7031 17.0938,-0.09375 17.0938,-17.2031 C17.0938,-17.5938 16.9063,-18.0938 16.5938,-18.2969 M2.79688,9.70313 L2.79688,-6.70313 L14.4063,-10 L14.4063,6.5 L2.79688,9.70313 "/>
<path class="Accidental" transform="matrix(0.992126,0,0,0.992126,1084.66,108.123)" d="M1.40625,20.7031 C1.70313,20.2969 9.90625,15 9.90625,0 C9.90625,-15 1.59375,-20.4063 1.40625,-20.7969 C1.20313,-21 1,-21.0938 0.703125,-21.0938 C0.40625,-21.0938 0.09375,-20.7031 0.09375,-20.4063 C0.09375,-20.2031 0.09375,-20 0.203125,-19.9063 C4.29688,-12.9063 5.70313,-5.70313 5.70313,0 C5.70313,10.5 1.09375,17.5938 0.203125,19.7969 C0.09375,20.0938 0.09375,20.2031 0.09375,20.2969 C0.09375,20.5938 0.40625,21 0.703125,21 C1,21 1.29688,20.7969 1.40625,20.7031"/>
<path class="Accidental" transform="matrix(0.694488,0,0,0.694488,148.882,194.934)" d="M23.2969,-10.5 C23.9063,-10.5938 24.4063,-11.2969 24.4063,-11.9063 L24.4063,-17.7969 C24.4063,-18.7969 23.7031,-19.2031 22.7969,-19.2031 L19.5,-18.5 L19.5,-33.4063 L16.7031,-33.4063 L16.7031,-17.9063 L7.79688,-16.0938 L7.79688,-30.2031 L5,-30.2031 L5,-15.5 L1.09375,-14.7031 C0.5,-14.5938 0,-13.9063 0,-13.2969 L0,-7.5 C0,-6.40625 0.796875,-6.09375 1.70313,-6.09375 L5,-6.79688 L5,9.70313 L1.09375,10.5 C0.5,10.5938 0,11.2969 0,11.9063 L0,17.7031 C0,18.7969 0.796875,19.0938 1.70313,19.0938 L5,18.4063 L5,33.2969 L7.79688,33.2969 L7.79688,17.7969 L16.7031,16 L16.7031,30.1094 L19.5,30.1094 L19.5,15.4063 L23.2969,14.7031 C23.9063,14.5938 24.4063,13.9063 24.4063,13.2969 L24.4063,7.40625 C24.4063,6.40625 23.7031,6 22.7969,6 L19.5,6.70313 L19.5,-9.79688 L23.2969,-10.5 M7.79688,-7.40625 L16.7031,-9.20313 L16.7031,7.29688 L7.79688,9.20313 L7.79688,-7.40625 "/>
<path class="Accidental" transform="matrix(0.992126,0,0,0.992126,535.681,182.533)" d="M23.2969,-10.5 C23.9063,-10.5938 24.4063,-11.2969 24.4063,-11.9063 L24.4063,-17.7969 C24.4063,-18.7969 23.7031,-19.2031 22.7969,-19.2031 L19.5,-18.5 L19.5,-33.4063 L16.7031,-33.4063 L16.7031,-17.9063 L7.79688,-16.0938 L7.79688,-30.2031 L5,-30.2031 L5,-15.5 L1.09375,-14.7031 C0.5,-14.5938 0,-13.9063 0,-13.2969 L0,-7.5 C0,-6.40625 0.796875,-6.09375 1.70313,-6.09375 L5,-6.79688 L5,9.70313 L1.09375,10.5 C0.5,10.5938 0,11.2969 0,11.9063 L0,17.7031 C0,18.7969 0.796875,19.0938 1.70313,19.0938 L5,18.4063 L5,33.2969 L7.79688,33.2969 L7.79688,17.7969 L16.7031,16 L16.7031,30.1094 L19.5,30.1094 L19.5,15.4063 L23.2969,14.7031 C23.9063,14.5938 24.4063,13.9063 24.4063,13.2969 L24.4063,7.40625 C24.4063,6.40625 23.7031,6 22.7969,6 L19.5,6.70313 L19.5,-9.79688 L23.2969,-10.5 M7.79688,-7.40625 L16.7031,-9.20313 L16.7031,7.29688 L7.79688,9.20313 L7.79688,-7.40625 "/>
<path class="Accidental" transform="matrix(0.992126,0,0,0.992126,1170.83,95.7217)" d="M8.5,20.7031 C8.59375,20.7969 8.90625,21 9.20313,21 C9.5,21 9.79688,20.5938 9.79688,20.2969 C9.79688,20.2031 9.79688,20.0938 9.70313,19.7969 C8.79688,17.5938 4.20313,10.5 4.20313,0 C4.20313,-5.70313 5.59375,-12.9063 9.70313,-19.9063 C9.79688,-20 9.79688,-20.2031 9.79688,-20.4063 C9.79688,-20.7031 9.5,-21.0938 9.20313,-21.0938 C8.90625,-21.0938 8.70313,-21 8.5,-20.7969 C8.29688,-20.4063 0,-15 0,0 C0,15 8.20313,20.2969 8.5,20.7031"/>
<path class="Accidental" transform="matrix(0.992126,0,0,0.992126,1184.99,95.7217)" d="M16.5938,-18.2969 C16.4063,-18.5 16.0938,-18.5938 15.7031,-18.5938 L15.5,-18.5 C15.5,-18.5 15.4063,-18.5 15.4063,-18.5 L2.79688,-15 L2.79688,-32.5 L0,-32.5 L0,17 C0,18.0938 0.90625,18.2969 1.79688,18.2969 L14.4063,14.7969 L14.4063,32.2969 L17.0938,32.2969 C17.0938,15.7031 17.0938,-0.09375 17.0938,-17.2031 C17.0938,-17.5938 16.9063,-18.0938 16.5938,-18.2969 M2.79688,9.70313 L2.79688,-6.70313 L14.4063,-10 L14.4063,6.5 L2.79688,9.70313 "/>
<path class="Accidental" transform="matrix(0.992126,0,0,0.992126,1206.3,95.7217)" d="M1.40625,20.7031 C1.70313,20.2969 9.90625,15 9.90625,0 C9.90625,-15 1.59375,-20.4063 1.40625,-20.7969 C1.20313,-21 1,-21.0938 0.703125,-21.0938 C0.40625,-21.0938 0.09375,-20.7031 0.09375,-20.4063 C0.09375,-20.2031 0.09375,-20 0.203125,-19.9063 C4.29688,-12.9063 5.70313,-5.70313 5.70313,0 C5.70313,10.5 1.09375,17.5938 0.203125,19.7969 C0.09375,20.0938 0.09375,20.2031 0.09375,20.2969 C0.09375,20.5938 0.40625,21 0.703125,21 C1,21 1.29688,20.7969 1.40625,20.7031"/>
<polyline class="Stem" fill="none" stroke="#000000" stroke-width="2.73" stroke-linejoin="bevel" points="596.96,178.564 596.96,101.922"/>
<polyline class="Stem" fill="none" stroke="#000000" stroke-width="2.73" stroke-linejoin="bevel" points="252.306,178.564 252.306,95.7217"/>
<polyline class="Stem" fill="none" stroke="#000000" stroke-width="2.73" stroke-linejoin="bevel" points="678.055,166.163 678.055,101.922"/>
<polyline class="Stem" fill="none" stroke="#000000" stroke-width="2.73" stroke-linejoin="bevel" points="766.351,161.896 766.351,225.904"/>
<polyline class="Stem" fill="none" stroke="#000000" stroke-width="1.91" stroke-linejoin="bevel" points="191.778,192.156 191.778,134.305"/>
<polyline class="Stem" fill="none" stroke="#000000" stroke-width="2.73" stroke-linejoin="bevel" points="847.446,137.093 847.446,223.86"/>
<polyline class="Stem" fill="none" stroke="#000000" stroke-width="2.73" stroke-linejoin="bevel" points="434.77,178.564 434.77,101.922"/>
<polyline class="Stem" fill="none" stroke="#000000" stroke-width="2.73" stroke-linejoin="bevel" points="928.541,124.692 928.541,221.816"/>
<polyline class="Stem" fill="none" stroke="#000000" stroke-width="2.73" stroke-linejoin="bevel" points="1009.64,137.093 1009.64,219.772"/>
<polyline class="Stem" fill="none" stroke="#000000" stroke-width="2.73" stroke-linejoin="bevel" points="1102.04,112.29 1102.04,194.934"/>
<polyline class="Stem" fill="none" stroke="#000000" stroke-width="2.73" stroke-linejoin="bevel" points="515.865,166.163 515.865,101.922"/>
<polyline class="Stem" fill="none" stroke="#000000" stroke-width="2.73" stroke-linejoin="bevel" points="1223.69,99.8886 1223.69,182.433"/>
<path class="Note" transform="matrix(0.992126,0,0,0.992126,221.434,182.533)" d="M21.2969,-13.2031 C11.5938,-13.2031 0,-5.09375 0,4.20313 C0,8.5 3.09375,13.2969 11.2031,13.2969 C21.5938,13.2969 32.5,4.79688 32.5,-4 C32.5,-9.90625 27.5,-13.2031 21.2969,-13.2031 M7.5,8.59375 C4.20313,8.59375 3.5,5.90625 3.5,5 C3.5,0.09375 20.2969,-8.5 25,-8.5 C27.4063,-8.5 29,-7.09375 29,-4.90625 C29,0.09375 12.0938,8.59375 7.5,8.59375"/>
<path class="Note" transform="matrix(0.694488,0,0,0.694488,170.167,194.934)" d="M0,4.20313 C0,8.5 3.09375,13.2969 11.2031,13.2969 C21.5938,13.2969 32.5,4.79688 32.5,-4 C32.5,-9.90625 27.5,-13.2031 21.2969,-13.2031 C11.5938,-13.2031 0,-5 0,4.20313"/>
<path class="Note" transform="matrix(0.992126,0,0,0.992126,403.898,182.533)" d="M0,4.20313 C0,8.5 3.09375,13.2969 11.2031,13.2969 C21.5938,13.2969 32.5,4.79688 32.5,-4 C32.5,-9.90625 27.5,-13.2031 21.2969,-13.2031 C11.5938,-13.2031 0,-5 0,4.20313"/>
<path class="Note" transform="matrix(0.992126,0,0,0.992126,484.993,170.131)" d="M0,4.20313 C0,8.5 3.09375,13.2969 11.2031,13.2969 C21.5938,13.2969 32.5,4.79688 32.5,-4 C32.5,-9.90625 27.5,-13.2031 21.2969,-13.2031 C11.5938,-13.2031 0,-5 0,4.20313"/>
<path class="Note" transform="matrix(0.992126,0,0,0.992126,927.177,120.525)" d="M0,4.20313 C0,8.5 3.09375,13.2969 11.2031,13.2969 C21.5938,13.2969 32.5,4.79688 32.5,-4 C32.5,-9.90625 27.5,-13.2031 21.2969,-13.2031 C11.5938,-13.2031 0,-5 0,4.20313"/>
<path class="Note" transform="matrix(0.992126,0,0,0.992126,1008.27,132.926)" d="M0,4.20313 C0,8.5 3.09375,13.2969 11.2031,13.2969 C21.5938,13.2969 32.5,4.79688 32.5,-4 C32.5,-9.90625 27.5,-13.2031 21.2969,-13.2031 C11.5938,-13.2031 0,-5 0,4.20313"/>
<path class="Note" transform="matrix(0.992126,0,0,0.992126,764.987,157.73)" d="M0,4.20313 C0,8.5 3.09375,13.2969 11.2031,13.2969 C21.5938,13.2969 32.5,4.79688 32.5,-4 C32.5,-9.90625 27.5,-13.2031 21.2969,-13.2031 C11.5938,-13.2031 0,-5 0,4.20313"/>
<path class="Note" transform="matrix(0.992126,0,0,0.992126,846.082,132.926)" d="M0,4.20313 C0,8.5 3.09375,13.2969 11.2031,13.2969 C21.5938,13.2969 32.5,4.79688 32.5,-4 C32.5,-9.90625 27.5,-13.2031 21.2969,-13.2031 C11.5938,-13.2031 0,-5 0,4.20313"/>
<path class="Note" transform="matrix(0.992126,0,0,0.992126,1222.32,95.7217)" d="M0,4.20313 C0,8.5 3.09375,13.2969 11.2031,13.2969 C21.5938,13.2969 32.5,4.79688 32.5,-4 C32.5,-9.90625 27.5,-13.2031 21.2969,-13.2031 C11.5938,-13.2031 0,-5 0,4.20313"/>
<path class="Note" transform="matrix(0.992126,0,0,0.992126,1100.68,108.123)" d="M0,4.20313 C0,8.5 3.09375,13.2969 11.2031,13.2969 C21.5938,13.2969 32.5,4.79688 32.5,-4 C32.5,-9.90625 27.5,-13.2031 21.2969,-13.2031 C11.5938,-13.2031 0,-5 0,4.20313"/>
<path class="Note" transform="matrix(0.992126,0,0,0.992126,647.183,170.131)" d="M0,4.20313 C0,8.5 3.09375,13.2969 11.2031,13.2969 C21.5938,13.2969 32.5,4.79688 32.5,-4 C32.5,-9.90625 27.5,-13.2031 21.2969,-13.2031 C11.5938,-13.2031 0,-5 0,4.20313"/>
<path class="Note" transform="matrix(0.992126,0,0,0.992126,566.088,182.533)" d="M0,4.20313 C0,8.5 3.09375,13.2969 11.2031,13.2969 C21.5938,13.2969 32.5,4.79688 32.5,-4 C32.5,-9.90625 27.5,-13.2031 21.2969,-13.2031 C11.5938,-13.2031 0,-5 0,4.20313"/>
<path class="Clef" transform="matrix(0.992126,0,0,0.992126,48.189,182.533)" d="M12.2969,51.2969 C12.2969,57.9063 17.2969,66.6094 30.7969,66.6094 C35.5,66.6094 39.6094,65.4063 43.2031,63.2031 C48.6094,59.4063 50,52.7969 50,46.5 C50,42.6094 49.4063,38.1094 48.4063,32.4063 C48.1094,30.4063 47.5,27.4063 46.9063,23.5 C56.7031,20.2969 64,10.0938 64,-0.203125 C64,-15.2969 53.2969,-25.5 38.7031,-25.5 C37.7031,-31.5 36.7031,-37.4063 35.9063,-43 C46.4063,-54.1094 53.7031,-66.6094 53.7031,-82.5 C53.7031,-91.6094 50.9063,-99 49.2969,-102.609 C46.9063,-107.703 44,-111.203 42.2031,-111.203 C41.5,-111.203 38.4063,-110 35.1094,-106.109 C28.7031,-98.5 26.9063,-85.7031 26.9063,-77.3125 C26.9063,-71.9063 27.4063,-67 29.1094,-55.7969 C29,-55.7031 23.7969,-50.4063 21.7031,-48.7031 C12.5938,-40.2969 0,-28.1094 0,-8.09375 C0,10.5938 16.2969,25.2969 34.9063,25.2969 C37.7969,25.2969 40.5,25 42.7969,24.5938 C44.7031,34.2031 45.9063,41.2031 45.9063,46.5 C45.9063,56.9063 40.5,62.4063 30.4063,62.4063 C28,62.4063 25.9063,61.9063 25.7031,61.9063 C25.6094,61.7969 25.4063,61.7031 25.4063,61.6094 C25.4063,61.4063 25.6094,61.2969 25.9063,61.2969 C30.6094,60.5 35.2969,56.5 35.2969,50.1094 C35.2969,44.7031 31.2031,39 23.7031,39 C16.7031,39 12.2969,44.7031 12.2969,51.2969 M33.2031,-82.2031 C34.1094,-86.2031 38.7031,-96.7031 43.9063,-96.7031 C45.4063,-96.7031 47.7969,-91.9063 47.7969,-84.9063 C47.7969,-74.5 40.1094,-66.7031 33.2031,-59.9063 C32.6094,-63.9063 32.1094,-67.7969 32.1094,-72 C32.1094,-75.7031 32.4063,-79.1094 33.2031,-82.2031 M42,20.5938 C40,21 38.1094,21.2031 36.2031,21.2031 C21.9063,21.2031 9.70313,11.2031 9.70313,-3.90625 C9.70313,-16.0938 18.2969,-27 27.1094,-34.6094 C28.7969,-36.1094 30.4063,-37.5 31.9063,-39 C32.7969,-33.6094 33.5,-28.9063 34.2031,-24.7969 C25.0938,-22.0938 18.9063,-12.5 18.9063,-3.09375 C18.9063,3.90625 24.4063,13.5 32.4063,13.5 C33.2031,13.5 34.1094,13.0938 34.1094,12.2031 C34.1094,11.2969 33.1094,10.7969 31.9063,10 C28,7.59375 25.7969,5 25.7969,0.09375 C25.7969,-6 30.4063,-10.9063 36.2031,-12.2969 L42,20.5938 M56.2031,2.09375 C56.2031,9.20313 53.2969,16.5 46.2031,19.4063 C44.1094,7.40625 41.4063,-8.5 40.7031,-12.9063 C49.7031,-12.9063 56.2031,-6.79688 56.2031,2.09375"/>
<path class="Rest" transform="matrix(0.992126,0,0,0.992126,1303.42,157.73)" d="M26.7031,-20.2969 C26.6094,-20.2969 26.4063,-20.4063 26.2969,-20.4063 C25.7031,-20.4063 25.2031,-20.0938 25,-19.5938 C22.7031,-15 17.9063,-8.79688 12.5,-7.79688 C13.5938,-9.09375 14.2969,-10.7031 14.2969,-12.5938 C14.2969,-16.5 11.0938,-19.7031 7.20313,-19.7031 C3.20313,-19.7031 0,-16.5 0,-12.5938 C0,-7.20313 5.29688,-4.70313 10,-4.70313 C15.2969,-4.70313 18.7969,-7.20313 22.2031,-10.9063 L10.7969,24.7031 L13.5,25.5 L27.5,-18.5938 C27.6094,-18.7031 27.6094,-18.9063 27.6094,-19.0938 C27.6094,-19.5938 27.2969,-20 26.7031,-20.2969"/>
<path class="Articulation" transform="matrix(0.992126,0,0,0.992126,497.22,191.067)" d="M1.09375,6.70313 C1.90625,7.5 2.90625,7.79688 3.90625,7.79688 C4.90625,7.79688 5.90625,7.5 6.70313,6.70313 C8.20313,5.09375 8.20313,2.70313 6.70313,1.20313 C5.90625,0.40625 4.90625,0 3.90625,0 C2.90625,0 1.90625,0.40625 1.09375,1.20313 C-0.40625,2.70313 -0.40625,5.09375 1.09375,6.70313"/>
<path class="Articulation" transform="matrix(0.992126,0,0,0.992126,939.404,94.9814)" d="M1.09375,-1.09375 C1.90625,-0.40625 2.90625,0 3.90625,0 C4.90625,0 5.90625,-0.40625 6.70313,-1.09375 C8.20313,-2.70313 8.20313,-5.09375 6.70313,-6.70313 C5.90625,-7.5 4.90625,-7.79688 3.90625,-7.79688 C2.90625,-7.79688 1.90625,-7.5 1.09375,-6.70313 C-0.40625,-5.09375 -0.40625,-2.70313 1.09375,-1.09375"/>
<path class="Articulation" transform="matrix(0.992126,0,0,0.992126,1020.5,99.5894)" d="M1.09375,-1.09375 C1.90625,-0.40625 2.90625,0 3.90625,0 C4.90625,0 5.90625,-0.40625 6.70313,-1.09375 C8.20313,-2.70313 8.20313,-5.09375 6.70313,-6.70313 C5.90625,-7.5 4.90625,-7.79688 3.90625,-7.79688 C2.90625,-7.79688 1.90625,-7.5 1.09375,-6.70313 C-0.40625,-5.09375 -0.40625,-2.70313 1.09375,-1.09375"/>
<path class="Articulation" transform="matrix(0.992126,0,0,0.992126,858.309,99.5894)" d="M1.09375,-1.09375 C1.90625,-0.40625 2.90625,0 3.90625,0 C4.90625,0 5.90625,-0.40625 6.70313,-1.09375 C8.20313,-2.70313 8.20313,-5.09375 6.70313,-6.70313 C5.90625,-7.5 4.90625,-7.79688 3.90625,-7.79688 C2.90625,-7.79688 1.90625,-7.5 1.09375,-6.70313 C-0.40625,-5.09375 -0.40625,-2.70313 1.09375,-1.09375"/>
<path class="Articulation" transform="matrix(0.992126,0,0,0.992126,777.214,124.393)" d="M1.09375,-1.09375 C1.90625,-0.40625 2.90625,0 3.90625,0 C4.90625,0 5.90625,-0.40625 6.70313,-1.09375 C8.20313,-2.70313 8.20313,-5.09375 6.70313,-6.70313 C5.90625,-7.5 4.90625,-7.79688 3.90625,-7.79688 C2.90625,-7.79688 1.90625,-7.5 1.09375,-6.70313 C-0.40625,-5.09375 -0.40625,-2.70313 1.09375,-1.09375"/>
<path class="Articulation" transform="matrix(0.992126,0,0,0.992126,1234.55,70.1783)" d="M1.09375,-1.09375 C1.90625,-0.40625 2.90625,0 3.90625,0 C4.90625,0 5.90625,-0.40625 6.70313,-1.09375 C8.20313,-2.70313 8.20313,-5.09375 6.70313,-6.70313 C5.90625,-7.5 4.90625,-7.79688 3.90625,-7.79688 C2.90625,-7.79688 1.90625,-7.5 1.09375,-6.70313 C-0.40625,-5.09375 -0.40625,-2.70313 1.09375,-1.09375"/>
<path class="Articulation" transform="matrix(0.992126,0,0,0.992126,659.41,191.067)" d="M1.09375,6.70313 C1.90625,7.5 2.90625,7.79688 3.90625,7.79688 C4.90625,7.79688 5.90625,7.5 6.70313,6.70313 C8.20313,5.09375 8.20313,2.70313 6.70313,1.20313 C5.90625,0.40625 4.90625,0 3.90625,0 C2.90625,0 1.90625,0.40625 1.09375,1.20313 C-0.40625,2.70313 -0.40625,5.09375 1.09375,6.70313"/>
<path class="Articulation" transform="matrix(0.992126,0,0,0.992126,578.315,215.87)" d="M1.09375,6.70313 C1.90625,7.5 2.90625,7.79688 3.90625,7.79688 C4.90625,7.79688 5.90625,7.5 6.70313,6.70313 C8.20313,5.09375 8.20313,2.70313 6.70313,1.20313 C5.90625,0.40625 4.90625,0 3.90625,0 C2.90625,0 1.90625,0.40625 1.09375,1.20313 C-0.40625,2.70313 -0.40625,5.09375 1.09375,6.70313"/>
<path class="Beam" fill-rule="evenodd" d="M433.406,95.7217 L679.419,95.7217 L679.419,108.123 L433.406,108.123 L433.406,95.7217 "/>
<path class="Beam" fill-rule="evenodd" d="M764.987,219.735 L1011,213.535 L1011,225.94 L764.987,232.141 L764.987,219.735 "/>
<path class="Hook" transform="matrix(0.694488,0,0,0.694488,190.823,134.167)" d="M0,22.7031 C0,23 0.09375,23.5938 0.796875,23.7969 C5.09375,25.2031 13.7031,30.6094 20.2031,41.7031 C22,44.7969 24.9063,49.1094 24.9063,57.4063 C24.9063,64.6094 23.0938,72 20.4063,79.2031 C20.2031,79.8125 20.0938,80.3125 20.0938,80.7031 C20.0938,81.4063 20.5,81.7031 21.2031,81.7031 C21.7969,81.7031 22.2969,81.3125 22.7031,80.6094 C27.2031,72.6094 28.9063,63.2969 28.9063,54.2031 C28.4063,41.2969 21,31.7969 21,31.7969 C21.2969,31.7969 11.7969,19.5 9.09375,15.2969 C5.40625,9.59375 3.70313,3.90625 3.5,3.5 C3.40625,3.20313 2.5,-0.40625 2.5,-0.40625 C2.40625,-0.796875 1.90625,-1.20313 1.29688,-1.20313 C0.59375,-1.20313 0,-0.59375 0,0.09375 L0,22.7031 "/>
<path class="Hook" transform="matrix(0.992126,0,0,0.992126,1222.32,182.533)" d="M0,-0.09375 C0,0.59375 0.59375,1.20313 1.29688,1.20313 C1.79688,1.20313 2.40625,0.796875 2.5,0.40625 C2.5,0.296875 3.40625,-3.20313 3.5,-3.5 C3.59375,-3.90625 4.5,-7.70313 8.09375,-13.5938 C12,-20.0938 18,-24.7969 23,-31.7969 C28,-38.7969 30.9063,-45.4063 30.9063,-54.2031 C30.9063,-63.2969 28.9063,-70.9063 23.5,-80.6094 C23.2031,-81.3125 22.5938,-81.7031 22,-81.7031 C21.7969,-81.7031 21.5938,-81.7031 21.5,-81.6094 C21,-81.4063 20.7969,-81 20.7969,-80.4063 C20.7969,-80.1094 20.9063,-79.7031 21.0938,-79.2031 C25.0938,-69.9063 26.7031,-64.6094 26.7031,-57.4063 C26.7031,-49.1094 23.7969,-44.7969 22,-41.7031 C15.5,-30.6094 5,-25.2031 0.796875,-23.7969 C0.09375,-23.5938 0,-23 0,-22.7031 L0,-0.09375 "/>
</svg>
