<svg width="40" height="45" viewBox="0 0 40 45" fill="none" xmlns="http://www.w3.org/2000/svg">
<path d="M27.5 20.95C27.5 21.8273 27.1 24.0205 25.7 26.104C23.8 28.8455 21.1 29.942 18 29.942C15.3 29.942 13 28.1875 13 25.117C13 23.8011 13.5 21.4983 15 19.6341C16.2 17.9892 18.5 16.125 22.5 16.125C25.1 16.125 27.5 17.7699 27.5 20.95ZM15 27.2006L19.1 22.7045L16.5 19.7438L16 20.5114C14.8 21.9369 14.2 23.8011 14.2 25.0074C14.2 25.8847 14.5 26.6523 15 27.2006ZM23 26.9813L20 23.5818L16 27.9682C16.6 28.2972 17.2 28.5165 18 28.5165C19.6 28.5165 21 28.1875 22.2 27.5295C22.5 27.3102 22.8 27.0909 23 26.9813ZM18.5 18.3182L17.5 18.8665L20 21.7176L23.7 17.5506C23.4 17.5506 22.9 17.4409 22.5 17.4409C21 17.4409 19.6 17.7699 18.5 18.3182ZM26.2 20.95C26.2 19.9631 25.8 19.0858 25.2 18.5375L24.8 18.3182L20.9 22.7045L24 26.104L24.6 25.2267C25.3 24.3494 25.7 23.2528 25.8 22.7045C26.1 21.9369 26.2 21.1693 26.2 20.95Z" fill="black"/>
</svg>
