<svg width="12" height="8" viewBox="0 0 12 8" fill="none" xmlns="http://www.w3.org/2000/svg">
<path d="M0.2 0H0.5C0.6 0 0.7 0.1 0.7 0.2V7.3C0.7 7.4 0.6 7.5 0.5 7.5H0.2C0.1 7.4 0 7.3 0 7.2V0.2C0 0.1 0.1 0 0.2 0ZM0.8 3.7C0.8 2.1 2.8 0.7 5.9 0.7C8.1 0.7 10.8 2 10.8 3.7C10.8 5.3 9.6 6.7 5.7 6.7C2.1 6.7 0.8 5.2 0.8 3.7ZM3.3 2.8C3.3 3.6 3.7 4.4 4.1 4.9C4.7 5.6 5.4 6.1 6.4 6.1C7.5 6.1 8.2 5.6 8.2 4.4C8.2 3 6.9 1.2 5.3 1.2C4.6 1.2 3.7 1.3 3.4 2.1C3.3 2.4 3.3 2.6 3.3 2.8ZM10.8 0.2C10.8 0.1 10.9 0 11 0H11.3C11.4 0 11.5 0.1 11.5 0.2V7.3C11.5 7.4 11.4 7.5 11.3 7.5H11C10.9 7.5 10.8 7.4 10.8 7.3V0.2Z" fill="black"/>
</svg>
