<svg width="392" height="392" viewBox="0 0 392 392" fill="none" xmlns="http://www.w3.org/2000/svg">
<rect width="392" height="392" rx="86" fill="#000076"/>
<path d="M116.71 173.269C114.232 165.493 112.9 157.244 112.9 148.7C112.9 101.939 152.802 64.0321 202.023 64.0321C230.442 64.0321 255.754 76.6682 272.073 96.3487H272.073C276.766 101.465 279.63 108.286 279.63 115.775C279.63 131.652 266.76 144.522 250.884 144.522C235.007 144.522 222.137 131.652 222.137 115.775C222.137 99.899 235.007 87.0287 250.884 87.0287C251.103 87.0287 251.321 87.0312 251.539 87.0361C242.046 79.8167 230.2 75.5312 217.353 75.5312C186.133 75.5312 160.825 100.84 160.825 132.06C160.825 148.309 167.681 162.958 178.659 173.269H116.71Z" fill="#19F3FF"/>
<path d="M285.38 236.415C285.38 230.554 284.804 224.821 283.702 219.264H213.405C222.416 229.636 227.888 243.291 227.888 258.251C227.888 290.699 202.147 317.002 170.394 317.002C157.596 317.002 145.775 312.729 136.222 305.503C151.949 305.329 164.644 292.526 164.644 276.758C164.644 260.882 151.773 248.011 135.897 248.011C120.021 248.011 107.15 260.882 107.15 276.758C107.15 284.096 109.9 290.792 114.425 295.872C132.206 315.83 158.769 328.501 188.448 328.501C241.982 328.501 285.38 287.273 285.38 236.415Z" fill="#19F3FF"/>
<path d="M253.758 173.269H190.515L138.771 219.263H202.014L253.758 173.269Z" fill="#19F3FF"/>
</svg>
