<svg width="40" height="45" viewBox="0 0 40 45" fill="none" xmlns="http://www.w3.org/2000/svg">
<path d="M28.1 22.9801C28.1 28.1341 24.3 32.3011 19.5 32.3011C14.9 32.1915 11 28.0244 11 22.9801C11 17.8261 14.9 13.6591 19.5 13.6591C24.3 13.6591 28.1 17.8261 28.1 22.9801ZM11.7 22.9801C11.7 23.8574 11.8 24.625 12 25.3926V25.1733C12 20.458 16.4 16.0716 21.9 16.0716C23.1 16.0716 24.1 16.2909 24.9 16.8392C23.5 15.4136 21.6 14.5364 19.5 14.5364C15.2 14.4267 11.7 18.2648 11.7 22.9801ZM27.4 22.9801C27.4 21.7739 27.2 20.5676 26.7 19.5807C26.8 19.9097 26.8 20.2386 26.8 20.5676C26.8 25.1733 21.3 29.779 16.9 29.779C15.7 29.779 14.8 29.45 14 28.9017C15.4 30.5466 17.4 31.5335 19.5 31.5335C23.9 31.4239 27.4 27.5858 27.4 22.9801Z" fill="black"/>
</svg>
