<svg width="40" height="45" viewBox="0 0 40 45" fill="none" xmlns="http://www.w3.org/2000/svg">
<path d="M27.5 29.0648C27.5 29.3938 27.3 29.8324 26.8 29.8324C26.7 29.8324 26.6 29.8324 26.5 29.7227L20.2 23.9108L14 29.7227C13.9 29.8324 13.8 29.8324 13.7 29.8324C13.3 29.8324 13 29.5034 13 28.9551C13 28.7358 13 28.5165 13.2 28.4068L19.2 22.9239L13.2 17.4409C13.1 17.3313 13 17.0023 13 16.783C13 16.454 13.2 16.125 13.6 16.125C13.8 16.125 13.9 16.125 14 16.2347L20.2 21.9369L26.5 16.2347C26.6 16.125 26.8 16.125 26.9 16.125C27.2 16.125 27.6 16.454 27.6 16.8926C27.6 17.1119 27.5 17.4409 27.4 17.5506L21.4 23.0335L27.4 28.5165C27.4 28.6261 27.5 28.8455 27.5 29.0648Z" fill="black"/>
</svg>
