<svg width="40" height="45" viewBox="0 0 40 45" fill="none" xmlns="http://www.w3.org/2000/svg">
<path d="M20.2 16.125C23.7 16.125 26.5 19.1955 26.5 22.9239C26.5 26.6523 23.7 29.7227 20.2 29.7227C16.8 29.8324 14 26.7619 14 22.9239C14 19.0858 16.8 16.125 20.2 16.125ZM15.4 22.9239C15.4 24.0205 15.7 25.2267 16.4 26.104L19.3 22.8142L16.4 19.7438C15.8 20.621 15.4 21.8273 15.4 22.9239ZM17.3 27.2006C18.2 27.8585 19.2 28.1875 20.2 28.1875C21.3 28.1875 22.3 27.8585 23.1 27.2006L20.2 24.0205L17.3 27.2006ZM17.4 18.6472L20.2 21.8273L23 18.6472C22.3 18.0989 21.3 17.7699 20.2 17.7699C19.2 17.7699 18.2 18.0989 17.4 18.6472ZM24.2 26.104C24.7 25.2267 25 24.1301 25 22.9239C25 21.7176 24.6 20.621 24.1 19.7438L21.2 22.9239L24.2 26.104Z" fill="black"/>
</svg>
