<svg width="33" height="10" viewBox="0 0 33 10" fill="none" xmlns="http://www.w3.org/2000/svg">
<path d="M7.415 9L6.383 6.348L2.987 6.348L1.967 9L0.875 9L4.223 0.396L5.195 0.396L8.531 9H7.415ZM6.059 5.388L5.099 2.796C5.075 2.732 5.035 2.616 4.979 2.448C4.923 2.28 4.867 2.108 4.811 1.932C4.763 1.748 4.723 1.608 4.691 1.512C4.635 1.76 4.571 2.004 4.499 2.244C4.427 2.476 4.367 2.66 4.319 2.796L3.347 5.388L6.059 5.388ZM16.2191 0.431999V5.976C16.2191 6.568 16.0991 7.104 15.8591 7.584C15.6191 8.056 15.2511 8.432 14.7551 8.712C14.2671 8.984 13.6431 9.12 12.8831 9.12C11.8191 9.12 11.0071 8.832 10.4471 8.256C9.89506 7.672 9.61906 6.904 9.61906 5.952V0.431999L10.6991 0.431999V5.988C10.6991 6.684 10.8831 7.224 11.2511 7.608C11.6271 7.992 12.1911 8.184 12.9431 8.184C13.7191 8.184 14.2791 7.98 14.6231 7.572C14.9751 7.156 15.1511 6.624 15.1511 5.976V0.431999L16.2191 0.431999ZM21.1924 9H20.1124V1.38L17.4364 1.38V0.431999L23.8564 0.431999V1.38L21.1924 1.38V9ZM32.39 4.704C32.39 5.592 32.238 6.368 31.934 7.032C31.638 7.688 31.198 8.2 30.614 8.568C30.03 8.936 29.306 9.12 28.442 9.12C27.554 9.12 26.814 8.936 26.222 8.568C25.638 8.2 25.202 7.684 24.914 7.02C24.626 6.356 24.482 5.58 24.482 4.692C24.482 3.812 24.626 3.044 24.914 2.388C25.202 1.732 25.638 1.22 26.222 0.852C26.814 0.484 27.558 0.3 28.454 0.3C29.31 0.3 30.03 0.484 30.614 0.852C31.198 1.212 31.638 1.724 31.934 2.388C32.238 3.044 32.39 3.816 32.39 4.704ZM25.622 4.704C25.622 5.784 25.85 6.636 26.306 7.26C26.762 7.876 27.474 8.184 28.442 8.184C29.418 8.184 30.13 7.876 30.578 7.26C31.026 6.636 31.25 5.784 31.25 4.704C31.25 3.624 31.026 2.78 30.578 2.172C30.13 1.556 29.422 1.248 28.454 1.248C27.486 1.248 26.77 1.556 26.306 2.172C25.85 2.78 25.622 3.624 25.622 4.704Z" fill="#343434"/>
</svg>
