<svg width="40" height="45" viewBox="0 0 40 45" fill="none" xmlns="http://www.w3.org/2000/svg">
<path d="M10 22.7608C10 16.5102 14.6 11.4659 20.4 11.4659C26.1 11.4659 30.8 16.5102 30.8 22.7608C30.8 29.121 26.1 34.1654 20.4 34.1654C14.6 34.1654 10 29.121 10 22.7608ZM11.2 22.7608C11.2 28.3534 15.3 32.7398 20.3 32.7398C25.3 32.7398 29.5 28.3534 29.5 22.7608C29.5 17.1682 25.4 12.7818 20.3 12.7818C15.3 12.7818 11.2 17.1682 11.2 22.7608ZM13 25.0636C13 20.3483 17.4 15.8523 22.9 15.8523C25.8 15.8523 27.8 17.6068 27.8 20.3483C27.8 25.0636 22.3 29.5597 17.9 29.5597C15.1 29.6693 13 28.0244 13 25.0636Z" fill="black"/>
</svg>
