<svg width="40" height="45" viewBox="0 0 40 45" fill="none" xmlns="http://www.w3.org/2000/svg">
<path d="M31.8 31.2312C31.8 31.4506 31.8 31.5602 31.7 31.6699C31.5 31.8892 31.3 31.9988 31.1 31.9988C31 31.9988 30.8 31.9988 30.7 31.8892L24.6 27.0642C22.6 28.8187 20.2 29.8057 17.9 29.8057C15.2 29.8057 13 28.1608 13 25.3096C13 23.2261 13.8 21.2523 15.2 19.717L9.3 15.221C9.1 15.1113 9 14.892 9 14.6727C9 14.4534 9 14.3437 9.1 14.2341C9.2 13.9051 9.5 13.7954 9.7 13.7954C9.8 13.7954 10 13.7954 10.2 13.9051L16.2 18.6204C18 17.0852 20.3 16.2079 22.9 16.2079C25.8 16.2079 27.8 17.9625 27.8 20.8136C27.8 22.6778 27 24.4324 25.6 26.0773L31.5 30.6829C31.6 30.7926 31.8 31.0119 31.8 31.2312Z" fill="black"/>
</svg>
