<svg width="40" height="45" viewBox="0 0 40 45" fill="none" xmlns="http://www.w3.org/2000/svg">
<path d="M31.8 14.6727C31.8 14.892 31.7 15.1113 31.5 15.221L27.3 18.5108C27.6 19.0591 27.8 19.8267 27.8 20.704C27.8 25.3096 22.3 29.8057 17.9 29.8057C16.5 29.8057 15.2 29.4767 14.4 28.5994L10.2 31.8892C10.1 31.8892 10 31.9988 9.8 31.9988C9.6 31.9988 9.3 31.8892 9.2 31.6699C9 31.5602 9 31.4506 9 31.2312C9 31.0119 9.1 30.6829 9.3 30.5733L13.5 27.2835C13.2 26.7352 13 26.0773 13 25.3096C13 20.4846 17.4 16.0983 22.9 16.0983C24.3 16.0983 25.5 16.5369 26.4 17.3045L30.7 14.0148C30.7 13.7954 30.9 13.7954 31 13.7954C31.4 13.7954 31.8 14.2341 31.8 14.6727Z" fill="black"/>
</svg>
