<svg width="6" height="11" viewBox="0 0 6 11" fill="none" xmlns="http://www.w3.org/2000/svg">
<path d="M2.98873 0.199999C3.5394 0.199999 4.02473 0.302666 4.44473 0.508C4.86473 0.713333 5.18673 0.984 5.41073 1.32C5.64407 1.64667 5.76073 1.99667 5.76073 2.37C5.76073 2.72467 5.70007 3.028 5.57873 3.28C5.46673 3.532 5.32207 3.742 5.14473 3.91C4.97673 4.06867 4.74807 4.25067 4.45873 4.456C4.17873 4.652 3.9594 4.82467 3.80073 4.974C3.64207 5.12333 3.50673 5.31 3.39473 5.534C3.28273 5.758 3.22673 6.02867 3.22673 6.346V6.822H2.05073V6.276C2.05073 5.89333 2.11607 5.562 2.24673 5.282C2.3774 5.002 2.53607 4.77333 2.72273 4.596C2.9094 4.41867 3.15207 4.21333 3.45073 3.98C3.82407 3.69067 4.09473 3.44333 4.26273 3.238C4.44007 3.02333 4.52873 2.75733 4.52873 2.44C4.52873 2.048 4.37473 1.74 4.06673 1.516C3.75873 1.292 3.36207 1.18 2.87673 1.18C2.5314 1.18 2.1814 1.26867 1.82673 1.446C1.4814 1.614 1.16873 1.87067 0.888734 2.216L0.0627344 1.586C0.846734 0.662 1.82207 0.199999 2.98873 0.199999ZM2.68073 8.278C2.9514 8.278 3.1754 8.37133 3.35273 8.558C3.53007 8.73533 3.61873 8.95467 3.61873 9.216C3.61873 9.48667 3.53007 9.71067 3.35273 9.888C3.1754 10.0653 2.9514 10.154 2.68073 10.154C2.4194 10.154 2.1954 10.0653 2.00873 9.888C1.8314 9.70133 1.74273 9.47733 1.74273 9.216C1.74273 8.95467 1.8314 8.73533 2.00873 8.558C2.1954 8.37133 2.4194 8.278 2.68073 8.278Z" fill="black"/>
</svg>
