<svg width="18" height="11" viewBox="0 0 18 11" fill="none" xmlns="http://www.w3.org/2000/svg">
<path d="M17.0156 7.32812H17C17.0104 7.39062 17.0156 7.48958 17.0156 7.625V7.67188C17.0156 7.68229 17.0104 7.70833 17 7.75C17 7.78125 17 7.80208 17 7.8125C17 7.82292 16.9948 7.85938 16.9844 7.92188C16.974 7.97396 16.9688 8.01562 16.9688 8.04688C16.9583 8.09896 16.9427 8.17188 16.9219 8.26562C16.9219 8.27604 16.9167 8.29167 16.9062 8.3125C16.9062 8.33333 16.9062 8.34896 16.9062 8.35938C16.7396 8.99479 16.4323 9.53125 15.9844 9.96875C15.4115 10.5312 14.7552 10.8594 14.0156 10.9531V11H4.14062L4.01562 10.9844C3.21354 10.9531 2.51562 10.6615 1.92188 10.1094C1.33854 9.55729 1.03646 8.88542 1.01562 8.09375C0.994792 7.23958 1.27604 6.51042 1.85938 5.90625C2.45312 5.30208 3.17188 5.00521 4.01562 5.01562C4.01562 5.01562 4.09896 5.02083 4.26562 5.03125C4.32812 3.77083 4.81771 2.70312 5.73438 1.82812C6.65104 0.953125 7.74479 0.515625 9.01562 0.515625C10.099 0.515625 11.0625 0.848958 11.9062 1.51562C12.75 2.17188 13.3125 3.01042 13.5938 4.03125H13.625C13.6875 4.03125 13.7917 4.03646 13.9375 4.04688H13.9688C14.125 4.06771 14.2031 4.07812 14.2031 4.07812C14.2135 4.07812 14.2292 4.08333 14.25 4.09375C14.2708 4.09375 14.2812 4.09896 14.2812 4.10938C14.2917 4.10938 14.3021 4.11458 14.3125 4.125C14.3333 4.125 14.349 4.125 14.3594 4.125C14.5677 4.17708 14.7552 4.23958 14.9219 4.3125C14.9323 4.3125 14.9531 4.31771 14.9844 4.32812C15.2656 4.46354 15.5312 4.63542 15.7812 4.84375C15.8021 4.86458 15.8229 4.88021 15.8438 4.89062C16.0625 5.08854 16.2604 5.31771 16.4375 5.57812C16.4688 5.63021 16.4896 5.66667 16.5 5.6875C16.6042 5.84375 16.6927 6.01042 16.7656 6.1875C16.776 6.20833 16.7812 6.22396 16.7812 6.23438C16.7917 6.24479 16.8177 6.31771 16.8594 6.45312C16.8802 6.51562 16.901 6.59896 16.9219 6.70312C16.9219 6.71354 16.9271 6.73438 16.9375 6.76562C16.9479 6.79688 16.9531 6.8125 16.9531 6.8125C16.9531 6.82292 16.9531 6.84375 16.9531 6.875C16.9844 6.98958 17.0052 7.11979 17.0156 7.26562V7.32812Z" fill="black"/>
</svg>
