<?xml version="1.0" encoding="UTF-8" standalone="no"?>
<!-- Created with Inkscape (http://www.inkscape.org/) -->

<svg
   xmlns:dc="http://purl.org/dc/elements/1.1/"
   xmlns:cc="http://creativecommons.org/ns#"
   xmlns:rdf="http://www.w3.org/1999/02/22-rdf-syntax-ns#"
   xmlns:svg="http://www.w3.org/2000/svg"
   xmlns="http://www.w3.org/2000/svg"
   xmlns:xlink="http://www.w3.org/1999/xlink"
   version="1.1"
   width="16"
   height="16"
   id="svg1307">
  <defs
     id="defs1309">
  </defs>
  <metadata
     id="metadata1312">
    <rdf:RDF>
      <cc:Work
         rdf:about="">
        <dc:format>image/svg+xml</dc:format>
        <dc:type
           rdf:resource="http://purl.org/dc/dcmitype/StillImage" />
        <dc:title></dc:title>
      </cc:Work>
    </rdf:RDF>
  </metadata>
  <g
     id="layer1">
    <path
       d="m 2.9101005,6.9818821 c 0.330072,1.01e-5 0.5797462,0.2708431 0.7490234,0.8125 0.3385348,1.0156332 0.5797455,1.5234452 0.7236328,1.5234375 0.1100187,7.7e-6 0.2242764,-0.084628 0.3427734,-0.2539063 2.3782453,-3.4954312 4.5787639,-5.9837099 6.6015629,-7.4648437 0.854802,-0.626286 1.68846,-0.93943673 2.500976,-0.93945313 1.074852,1.64e-5 1.722313,0.0338705 1.942383,0.1015625 0.09308,0.0254069 0.13963,0.13120107 0.139648,0.31738283 -1.8e-5,0.1523596 -0.09735,0.3427891 -0.291992,0.571289 C 10.176038,7.8959538 6.9345047,11.95845 5.8934989,13.837351 5.5380218,14.480583 4.717059,14.802197 3.4306083,14.802195 3.0074253,14.802197 2.5630898,14.692171 2.0976005,14.472116 1.9029343,14.370557 1.5643929,13.723096 1.0819755,12.529734 0.47259715,11.023229 0.16790995,9.7029181 0.16791296,8.5687962 0.16790995,8.1540915 0.46413361,7.8113184 1.0565848,7.5404758 1.8690801,7.1680899 2.4784545,6.9818922 2.8847098,6.9818821 l 0.025391,0"
       id="path3858"
       style="fill:#00ff00;fill-opacity:1;stroke:none" />
  </g>
</svg>
