<?xml version="1.0" encoding="UTF-8" standalone="no"?>
<!-- Created with Inkscape (http://www.inkscape.org/) -->
<svg
   xmlns:dc="http://purl.org/dc/elements/1.1/"
   xmlns:cc="http://web.resource.org/cc/"
   xmlns:rdf="http://www.w3.org/1999/02/22-rdf-syntax-ns#"
   xmlns:svg="http://www.w3.org/2000/svg"
   xmlns="http://www.w3.org/2000/svg"
   xmlns:xlink="http://www.w3.org/1999/xlink"
   xmlns:sodipodi="http://sodipodi.sourceforge.net/DTD/sodipodi-0.dtd"
   xmlns:inkscape="http://www.inkscape.org/namespaces/inkscape"
   width="88"
   height="88"
   id="svg2"
   sodipodi:version="0.32"
   inkscape:version="0.45.1"
   version="1.0"
   sodipodi:docbase="/home/david"
   sodipodi:docname="format-text-superscript.svgz"
   inkscape:output_extension="org.inkscape.output.svgz.inkscape"
   inkscape:export-filename="/home/david/format-text-superscript.png"
   inkscape:export-xdpi="22.5"
   inkscape:export-ydpi="22.5">
  <defs
     id="defs4">
    <linearGradient
       inkscape:collect="always"
       id="linearGradient3236">
      <stop
         style="stop-color:#2e3436;stop-opacity:1"
         offset="0"
         id="stop3238" />
      <stop
         style="stop-color:#888a85;stop-opacity:1"
         offset="1"
         id="stop3240" />
    </linearGradient>
    <linearGradient
       inkscape:collect="always"
       id="linearGradient3213">
      <stop
         style="stop-color:#ffffff;stop-opacity:1;"
         offset="0"
         id="stop3215" />
      <stop
         style="stop-color:#ffffff;stop-opacity:0;"
         offset="1"
         id="stop3217" />
    </linearGradient>
    <linearGradient
       inkscape:collect="always"
       id="linearGradient3203">
      <stop
         style="stop-color:#d6d6d6;stop-opacity:1"
         offset="0"
         id="stop3205" />
      <stop
         style="stop-color:#dddddd;stop-opacity:0;"
         offset="1"
         id="stop3207" />
    </linearGradient>
    <linearGradient
       inkscape:collect="always"
       id="linearGradient3183">
      <stop
         style="stop-color:#323232;stop-opacity:1;"
         offset="0"
         id="stop3185" />
      <stop
         style="stop-color:#888a85;stop-opacity:1"
         offset="1"
         id="stop3187" />
    </linearGradient>
    <linearGradient
       inkscape:collect="always"
       xlink:href="#linearGradient3183"
       id="linearGradient3189"
       x1="82.531303"
       y1="117.06476"
       x2="82.531303"
       y2="10.50423"
       gradientUnits="userSpaceOnUse"
       gradientTransform="matrix(0.6538462,0,0,0.6538462,0.1538461,0.1538461)" />
    <linearGradient
       inkscape:collect="always"
       xlink:href="#linearGradient3203"
       id="linearGradient3209"
       x1="62.483925"
       y1="134.93735"
       x2="62.483925"
       y2="-58.093334"
       gradientUnits="userSpaceOnUse"
       gradientTransform="matrix(0.6666667,0,0,0.6470588,-0.6666671,1.5882356)" />
    <radialGradient
       inkscape:collect="always"
       xlink:href="#linearGradient3213"
       id="radialGradient3228"
       gradientUnits="userSpaceOnUse"
       gradientTransform="matrix(0.7048488,0,0,9.0366514,-3.1103248,-1065.278)"
       cx="64"
       cy="113.23757"
       fx="64"
       fy="113.23757"
       r="56" />
    <radialGradient
       inkscape:collect="always"
       xlink:href="#linearGradient3213"
       id="radialGradient3272"
       gradientUnits="userSpaceOnUse"
       gradientTransform="matrix(0.1370521,-0.157048,-1.7630093,-1.5385365,213.11838,190.98771)"
       cx="15.697902"
       cy="117.03832"
       fx="15.697902"
       fy="117.03832"
       r="56" />
    <filter
       inkscape:collect="always"
       x="-0.12"
       width="1.24"
       y="-0.12"
       height="1.24"
       id="filter3274">
      <feGaussianBlur
         inkscape:collect="always"
         stdDeviation="0.7109375"
         id="feGaussianBlur3276" />
    </filter>
    <radialGradient
       inkscape:collect="always"
       xlink:href="#linearGradient3213"
       id="radialGradient3289"
       gradientUnits="userSpaceOnUse"
       gradientTransform="matrix(0.1370521,-0.157048,-1.7630093,-1.5385365,217.11838,194.98771)"
       cx="15.697902"
       cy="117.03832"
       fx="15.697902"
       fy="117.03832"
       r="56" />
    <radialGradient
       inkscape:collect="always"
       xlink:href="#linearGradient3213"
       id="radialGradient3295"
       gradientUnits="userSpaceOnUse"
       gradientTransform="matrix(0.1370521,-0.157048,-1.7630093,-1.5385365,217.11838,194.98771)"
       cx="15.697902"
       cy="117.03832"
       fx="15.697902"
       fy="117.03832"
       r="56" />
    <radialGradient
       inkscape:collect="always"
       xlink:href="#linearGradient3213"
       id="radialGradient3297"
       gradientUnits="userSpaceOnUse"
       gradientTransform="matrix(0.1370521,-0.157048,-1.7630093,-1.5385365,217.11838,194.98771)"
       cx="15.697902"
       cy="117.03832"
       fx="15.697902"
       fy="117.03832"
       r="56" />
    <radialGradient
       r="56"
       fy="117.03832"
       fx="15.697902"
       cy="117.03832"
       cx="15.697902"
       gradientTransform="matrix(0.1370521,-0.157048,-1.7630093,-1.5385365,217.11838,194.98771)"
       gradientUnits="userSpaceOnUse"
       id="radialGradient2279"
       xlink:href="#linearGradient3213"
       inkscape:collect="always" />
    <radialGradient
       r="56"
       fy="117.03832"
       fx="15.697902"
       cy="117.03832"
       cx="15.697902"
       gradientTransform="matrix(0.1370521,-0.157048,-1.7630093,-1.5385365,217.11838,194.98771)"
       gradientUnits="userSpaceOnUse"
       id="radialGradient2277"
       xlink:href="#linearGradient3213"
       inkscape:collect="always" />
    <radialGradient
       r="56"
       fy="117.03832"
       fx="15.697902"
       cy="117.03832"
       cx="15.697902"
       gradientTransform="matrix(0.1370521,-0.157048,-1.7630093,-1.5385365,217.11838,194.98771)"
       gradientUnits="userSpaceOnUse"
       id="radialGradient2275"
       xlink:href="#linearGradient3213"
       inkscape:collect="always" />
    <radialGradient
       r="56"
       fy="117.03832"
       fx="15.697902"
       cy="117.03832"
       cx="15.697902"
       gradientTransform="matrix(0.1370521,-0.157048,-1.7630093,-1.5385365,217.11838,194.98771)"
       gradientUnits="userSpaceOnUse"
       id="radialGradient2269"
       xlink:href="#linearGradient3213"
       inkscape:collect="always" />
    <linearGradient
       gradientTransform="translate(-4,0)"
       gradientUnits="userSpaceOnUse"
       y2="107.8762"
       x2="59.993233"
       y1="25.989847"
       x1="59.993233"
       id="linearGradient2267"
       xlink:href="#linearGradient3236"
       inkscape:collect="always" />
    <radialGradient
       r="56"
       fy="113.23757"
       fx="64"
       cy="113.23757"
       cx="64"
       gradientTransform="matrix(1.0780041,0,0,13.820761,-4.9922613,-1629.0134)"
       gradientUnits="userSpaceOnUse"
       id="radialGradient2265"
       xlink:href="#linearGradient3213"
       inkscape:collect="always" />
    <linearGradient
       gradientTransform="matrix(1.0196078,0,0,1,-1.254902,1)"
       gradientUnits="userSpaceOnUse"
       y2="-58.093334"
       x2="62.483925"
       y1="134.93735"
       x1="62.483925"
       id="linearGradient2263"
       xlink:href="#linearGradient3203"
       inkscape:collect="always" />
    <linearGradient
       gradientUnits="userSpaceOnUse"
       y2="10.50423"
       x2="82.531303"
       y1="117.06476"
       x1="82.531303"
       id="linearGradient2261"
       xlink:href="#linearGradient3183"
       inkscape:collect="always" />
    <linearGradient
       y2="108.62701"
       x2="65.353638"
       y1="25.664974"
       x1="64"
       gradientUnits="userSpaceOnUse"
       id="linearGradient3176"
       xlink:href="#linearGradient3236"
       inkscape:collect="always" />
    <linearGradient
       gradientTransform="translate(0,2)"
       y2="108.62701"
       x2="65.353638"
       y1="25.664974"
       x1="64"
       gradientUnits="userSpaceOnUse"
       id="linearGradient3172"
       xlink:href="#linearGradient3236"
       inkscape:collect="always" />
    <radialGradient
       r="56"
       fy="117.03832"
       fx="15.697902"
       cy="117.03832"
       cx="15.697902"
       gradientTransform="matrix(0.1370521,-0.157048,-1.7630093,-1.5385365,217.11838,194.98771)"
       gradientUnits="userSpaceOnUse"
       id="radialGradient2397"
       xlink:href="#linearGradient3213"
       inkscape:collect="always" />
    <radialGradient
       r="56"
       fy="117.03832"
       fx="15.697902"
       cy="117.03832"
       cx="15.697902"
       gradientTransform="matrix(0.1370521,-0.157048,-1.7630093,-1.5385365,217.11838,194.98771)"
       gradientUnits="userSpaceOnUse"
       id="radialGradient2395"
       xlink:href="#linearGradient3213"
       inkscape:collect="always" />
    <radialGradient
       r="56"
       fy="117.03832"
       fx="15.697902"
       cy="117.03832"
       cx="15.697902"
       gradientTransform="matrix(0.1370521,-0.157048,-1.7630093,-1.5385365,217.11838,194.98771)"
       gradientUnits="userSpaceOnUse"
       id="radialGradient2393"
       xlink:href="#linearGradient3213"
       inkscape:collect="always" />
    <radialGradient
       r="56"
       fy="117.03832"
       fx="15.697902"
       cy="117.03832"
       cx="15.697902"
       gradientTransform="matrix(0.1370521,-0.157048,-1.7630093,-1.5385365,217.11838,194.98771)"
       gradientUnits="userSpaceOnUse"
       id="radialGradient2387"
       xlink:href="#linearGradient3213"
       inkscape:collect="always" />
    <linearGradient
       gradientTransform="translate(96,0)"
       gradientUnits="userSpaceOnUse"
       y2="107.8762"
       x2="59.993233"
       y1="25.989847"
       x1="59.993233"
       id="linearGradient2385"
       xlink:href="#linearGradient3236"
       inkscape:collect="always" />
    <radialGradient
       r="56"
       fy="113.23757"
       fx="64"
       cy="113.23757"
       cx="64"
       gradientTransform="matrix(1.0780041,0,0,13.820761,-4.9922613,-1629.0134)"
       gradientUnits="userSpaceOnUse"
       id="radialGradient2383"
       xlink:href="#linearGradient3213"
       inkscape:collect="always" />
    <linearGradient
       gradientTransform="matrix(1.0196078,0,0,1,-1.254902,1)"
       gradientUnits="userSpaceOnUse"
       y2="-58.093334"
       x2="62.483925"
       y1="134.93735"
       x1="62.483925"
       id="linearGradient2381"
       xlink:href="#linearGradient3203"
       inkscape:collect="always" />
    <linearGradient
       gradientUnits="userSpaceOnUse"
       y2="10.50423"
       x2="82.531303"
       y1="117.06476"
       x1="82.531303"
       id="linearGradient2379"
       xlink:href="#linearGradient3183"
       inkscape:collect="always" />
    <linearGradient
       gradientTransform="translate(0,2)"
       y2="121.01086"
       x2="76.663567"
       y1="23.580109"
       x1="76.663567"
       gradientUnits="userSpaceOnUse"
       id="linearGradient3210"
       xlink:href="#linearGradient3183"
       inkscape:collect="always" />
    <radialGradient
       r="56"
       fy="117.03832"
       fx="15.697902"
       cy="117.03832"
       cx="15.697902"
       gradientTransform="matrix(0.1370521,-0.157048,-1.7630093,-1.5385365,217.11838,194.98771)"
       gradientUnits="userSpaceOnUse"
       id="radialGradient2537"
       xlink:href="#linearGradient3213"
       inkscape:collect="always" />
    <radialGradient
       r="56"
       fy="117.03832"
       fx="15.697902"
       cy="117.03832"
       cx="15.697902"
       gradientTransform="matrix(0.1370521,-0.157048,-1.7630093,-1.5385365,217.11838,194.98771)"
       gradientUnits="userSpaceOnUse"
       id="radialGradient2535"
       xlink:href="#linearGradient3213"
       inkscape:collect="always" />
    <radialGradient
       r="56"
       fy="117.03832"
       fx="15.697902"
       cy="117.03832"
       cx="15.697902"
       gradientTransform="matrix(0.1370521,-0.157048,-1.7630093,-1.5385365,217.11838,194.98771)"
       gradientUnits="userSpaceOnUse"
       id="radialGradient2533"
       xlink:href="#linearGradient3213"
       inkscape:collect="always" />
    <radialGradient
       r="56"
       fy="117.03832"
       fx="15.697902"
       cy="117.03832"
       cx="15.697902"
       gradientTransform="matrix(0.1370521,-0.157048,-1.7630093,-1.5385365,217.11838,194.98771)"
       gradientUnits="userSpaceOnUse"
       id="radialGradient2527"
       xlink:href="#linearGradient3213"
       inkscape:collect="always" />
    <linearGradient
       gradientTransform="translate(-104,0)"
       gradientUnits="userSpaceOnUse"
       y2="107.8762"
       x2="59.993233"
       y1="25.989847"
       x1="59.993233"
       id="linearGradient2525"
       xlink:href="#linearGradient3236"
       inkscape:collect="always" />
    <radialGradient
       r="56"
       fy="113.23757"
       fx="64"
       cy="113.23757"
       cx="64"
       gradientTransform="matrix(1.0780041,0,0,13.820761,-4.9922613,-1629.0134)"
       gradientUnits="userSpaceOnUse"
       id="radialGradient2523"
       xlink:href="#linearGradient3213"
       inkscape:collect="always" />
    <linearGradient
       gradientTransform="matrix(1.0196078,0,0,1,-1.254902,1)"
       gradientUnits="userSpaceOnUse"
       y2="-58.093334"
       x2="62.483925"
       y1="134.93735"
       x1="62.483925"
       id="linearGradient2521"
       xlink:href="#linearGradient3203"
       inkscape:collect="always" />
    <linearGradient
       gradientUnits="userSpaceOnUse"
       y2="10.50423"
       x2="82.531303"
       y1="117.06476"
       x1="82.531303"
       id="linearGradient2519"
       xlink:href="#linearGradient3183"
       inkscape:collect="always" />
    <linearGradient
       y2="93.547653"
       x2="63.035397"
       y1="24.885214"
       x1="62.917908"
       gradientTransform="scale(1.0368841,0.9644279)"
       gradientUnits="userSpaceOnUse"
       id="linearGradient3227"
       xlink:href="#linearGradient3236"
       inkscape:collect="always" />
    <linearGradient
       y2="93.547653"
       x2="63.035397"
       y1="24.885214"
       x1="62.917908"
       gradientTransform="matrix(1.0368841,0,0,0.9644279,0,2)"
       gradientUnits="userSpaceOnUse"
       id="linearGradient3223"
       xlink:href="#linearGradient3236"
       inkscape:collect="always" />
    <linearGradient
       gradientTransform="scale(1.0368841,0.9644279)"
       y2="93.547653"
       x2="63.035397"
       y1="24.885214"
       x1="62.917908"
       gradientUnits="userSpaceOnUse"
       id="linearGradient3220"
       xlink:href="#linearGradient3236"
       inkscape:collect="always" />
    <linearGradient
       gradientUnits="userSpaceOnUse"
       y2="105.63113"
       x2="64"
       y1="96"
       x1="64"
       id="linearGradient2679"
       xlink:href="#linearGradient3236"
       inkscape:collect="always" />
    <linearGradient
       gradientTransform="translate(0,-3.3595169e-6)"
       gradientUnits="userSpaceOnUse"
       y2="108.62701"
       x2="65.353638"
       y1="25.664974"
       x1="64"
       id="linearGradient2676"
       xlink:href="#linearGradient3236"
       inkscape:collect="always" />
    <radialGradient
       r="56"
       fy="117.03832"
       fx="15.697902"
       cy="117.03832"
       cx="15.697902"
       gradientTransform="matrix(0.1370521,-0.157048,-1.7630093,-1.5385365,217.11838,194.98771)"
       gradientUnits="userSpaceOnUse"
       id="radialGradient2674"
       xlink:href="#linearGradient3213"
       inkscape:collect="always" />
    <radialGradient
       r="56"
       fy="117.03832"
       fx="15.697902"
       cy="117.03832"
       cx="15.697902"
       gradientTransform="matrix(0.1370521,-0.157048,-1.7630093,-1.5385365,217.11838,194.98771)"
       gradientUnits="userSpaceOnUse"
       id="radialGradient2672"
       xlink:href="#linearGradient3213"
       inkscape:collect="always" />
    <radialGradient
       r="56"
       fy="117.03832"
       fx="15.697902"
       cy="117.03832"
       cx="15.697902"
       gradientTransform="matrix(0.1370521,-0.157048,-1.7630093,-1.5385365,217.11838,194.98771)"
       gradientUnits="userSpaceOnUse"
       id="radialGradient2670"
       xlink:href="#linearGradient3213"
       inkscape:collect="always" />
    <radialGradient
       r="56"
       fy="117.03832"
       fx="15.697902"
       cy="117.03832"
       cx="15.697902"
       gradientTransform="matrix(0.1370521,-0.157048,-1.7630093,-1.5385365,217.11838,194.98771)"
       gradientUnits="userSpaceOnUse"
       id="radialGradient2664"
       xlink:href="#linearGradient3213"
       inkscape:collect="always" />
    <radialGradient
       r="56"
       fy="113.23757"
       fx="64"
       cy="113.23757"
       cx="64"
       gradientTransform="matrix(1.0780041,0,0,13.820761,-4.9922613,-1629.0134)"
       gradientUnits="userSpaceOnUse"
       id="radialGradient2662"
       xlink:href="#linearGradient3213"
       inkscape:collect="always" />
    <linearGradient
       gradientTransform="matrix(1.0196078,0,0,1,-1.254902,1)"
       gradientUnits="userSpaceOnUse"
       y2="-58.093334"
       x2="62.483925"
       y1="134.93735"
       x1="62.483925"
       id="linearGradient2660"
       xlink:href="#linearGradient3203"
       inkscape:collect="always" />
    <linearGradient
       gradientUnits="userSpaceOnUse"
       y2="10.50423"
       x2="82.531303"
       y1="117.06476"
       x1="82.531303"
       id="linearGradient2658"
       xlink:href="#linearGradient3183"
       inkscape:collect="always" />
    <linearGradient
       y2="38.600189"
       x2="31.586304"
       y1="54.540409"
       x1="31.586304"
       gradientTransform="matrix(-1.4,0,0,-1.5,141.6,116)"
       gradientUnits="userSpaceOnUse"
       id="linearGradient3241"
       xlink:href="#linearGradient3236"
       inkscape:collect="always" />
    <linearGradient
       y2="38.600189"
       x2="31.586304"
       y1="54.540409"
       x1="31.586304"
       gradientTransform="matrix(-1.4,0,0,-1.5,141.6,118)"
       gradientUnits="userSpaceOnUse"
       id="linearGradient3237"
       xlink:href="#linearGradient3236"
       inkscape:collect="always" />
    <radialGradient
       r="56"
       fy="117.03832"
       fx="15.697902"
       cy="117.03832"
       cx="15.697902"
       gradientTransform="matrix(0.1370521,-0.157048,-1.7630093,-1.5385365,217.11838,194.98771)"
       gradientUnits="userSpaceOnUse"
       id="radialGradient2908"
       xlink:href="#linearGradient3213"
       inkscape:collect="always" />
    <radialGradient
       r="56"
       fy="117.03832"
       fx="15.697902"
       cy="117.03832"
       cx="15.697902"
       gradientTransform="matrix(0.1370521,-0.157048,-1.7630093,-1.5385365,217.11838,194.98771)"
       gradientUnits="userSpaceOnUse"
       id="radialGradient2906"
       xlink:href="#linearGradient3213"
       inkscape:collect="always" />
    <radialGradient
       r="56"
       fy="117.03832"
       fx="15.697902"
       cy="117.03832"
       cx="15.697902"
       gradientTransform="matrix(0.1370521,-0.157048,-1.7630093,-1.5385365,217.11838,194.98771)"
       gradientUnits="userSpaceOnUse"
       id="radialGradient2904"
       xlink:href="#linearGradient3213"
       inkscape:collect="always" />
    <radialGradient
       r="56"
       fy="117.03832"
       fx="15.697902"
       cy="117.03832"
       cx="15.697902"
       gradientTransform="matrix(0.1370521,-0.157048,-1.7630093,-1.5385365,217.11838,194.98771)"
       gradientUnits="userSpaceOnUse"
       id="radialGradient2898"
       xlink:href="#linearGradient3213"
       inkscape:collect="always" />
    <radialGradient
       r="56"
       fy="113.23757"
       fx="64"
       cy="113.23757"
       cx="64"
       gradientTransform="matrix(1.0780041,0,0,13.820761,-4.9922613,-1629.0134)"
       gradientUnits="userSpaceOnUse"
       id="radialGradient2896"
       xlink:href="#linearGradient3213"
       inkscape:collect="always" />
    <linearGradient
       gradientTransform="matrix(1.0196078,0,0,1,-1.254902,1)"
       gradientUnits="userSpaceOnUse"
       y2="-58.093334"
       x2="62.483925"
       y1="134.93735"
       x1="62.483925"
       id="linearGradient2894"
       xlink:href="#linearGradient3203"
       inkscape:collect="always" />
    <linearGradient
       gradientUnits="userSpaceOnUse"
       y2="10.50423"
       x2="82.531303"
       y1="117.06476"
       x1="82.531303"
       id="linearGradient2892"
       xlink:href="#linearGradient3183"
       inkscape:collect="always" />
    <linearGradient
       y2="37.052422"
       x2="33.224346"
       y1="54.034622"
       x1="33.224346"
       gradientTransform="matrix(1.4,0,0,-1.5,46.4,116)"
       gradientUnits="userSpaceOnUse"
       id="linearGradient3206"
       xlink:href="#linearGradient3236"
       inkscape:collect="always" />
    <linearGradient
       y2="37.052422"
       x2="33.224346"
       y1="54.034622"
       x1="33.224346"
       gradientTransform="matrix(1.4,0,0,-1.5,46.4,118)"
       gradientUnits="userSpaceOnUse"
       id="linearGradient3202"
       xlink:href="#linearGradient3236"
       inkscape:collect="always" />
    <linearGradient
       y2="58.628838"
       x2="35.213223"
       y1="43.980164"
       x1="35.213223"
       gradientTransform="matrix(1.4,0,0,1.5,-13.6,-28)"
       gradientUnits="userSpaceOnUse"
       id="linearGradient3214"
       xlink:href="#linearGradient3236"
       inkscape:collect="always" />
    <linearGradient
       y2="58.628838"
       x2="35.213223"
       y1="43.980164"
       x1="35.213223"
       gradientTransform="matrix(1.4,0,0,1.5,-13.6,-26)"
       gradientUnits="userSpaceOnUse"
       id="linearGradient3050"
       xlink:href="#linearGradient3236"
       inkscape:collect="always" />
    <linearGradient
       y2="58.628838"
       x2="35.213223"
       y1="43.980164"
       x1="35.213223"
       gradientUnits="userSpaceOnUse"
       id="linearGradient3204"
       xlink:href="#linearGradient3236"
       inkscape:collect="always" />
    <linearGradient
       gradientTransform="translate(0,2)"
       y2="58.628838"
       x2="35.213223"
       y1="43.980164"
       x1="35.213223"
       gradientUnits="userSpaceOnUse"
       id="linearGradient3200"
       xlink:href="#linearGradient3236"
       inkscape:collect="always" />
    <linearGradient
       gradientTransform="matrix(1.4,0,0,-1.5,46.4,116)"
       gradientUnits="userSpaceOnUse"
       y2="37.052422"
       x2="33.224346"
       y1="54.034622"
       x1="33.224346"
       id="linearGradient3046"
       xlink:href="#linearGradient3236"
       inkscape:collect="always" />
    <linearGradient
       gradientTransform="translate(-32,0)"
       gradientUnits="userSpaceOnUse"
       y2="100.8178"
       x2="82.889259"
       y1="33.322315"
       x1="82.042976"
       id="linearGradient3044"
       xlink:href="#linearGradient3236"
       inkscape:collect="always" />
    <radialGradient
       r="56"
       fy="117.03832"
       fx="15.697902"
       cy="117.03832"
       cx="15.697902"
       gradientTransform="matrix(0.1370521,-0.157048,-1.7630093,-1.5385365,217.11838,194.98771)"
       gradientUnits="userSpaceOnUse"
       id="radialGradient3042"
       xlink:href="#linearGradient3213"
       inkscape:collect="always" />
    <radialGradient
       r="56"
       fy="117.03832"
       fx="15.697902"
       cy="117.03832"
       cx="15.697902"
       gradientTransform="matrix(0.1370521,-0.157048,-1.7630093,-1.5385365,217.11838,194.98771)"
       gradientUnits="userSpaceOnUse"
       id="radialGradient3040"
       xlink:href="#linearGradient3213"
       inkscape:collect="always" />
    <radialGradient
       r="56"
       fy="117.03832"
       fx="15.697902"
       cy="117.03832"
       cx="15.697902"
       gradientTransform="matrix(0.1370521,-0.157048,-1.7630093,-1.5385365,217.11838,194.98771)"
       gradientUnits="userSpaceOnUse"
       id="radialGradient3038"
       xlink:href="#linearGradient3213"
       inkscape:collect="always" />
    <radialGradient
       r="56"
       fy="117.03832"
       fx="15.697902"
       cy="117.03832"
       cx="15.697902"
       gradientTransform="matrix(0.1370521,-0.157048,-1.7630093,-1.5385365,217.11838,194.98771)"
       gradientUnits="userSpaceOnUse"
       id="radialGradient3032"
       xlink:href="#linearGradient3213"
       inkscape:collect="always" />
    <radialGradient
       r="56"
       fy="113.23757"
       fx="64"
       cy="113.23757"
       cx="64"
       gradientTransform="matrix(1.0780041,0,0,13.820761,-4.9922613,-1629.0134)"
       gradientUnits="userSpaceOnUse"
       id="radialGradient3030"
       xlink:href="#linearGradient3213"
       inkscape:collect="always" />
    <linearGradient
       gradientTransform="matrix(1.0196078,0,0,1,-1.254902,1)"
       gradientUnits="userSpaceOnUse"
       y2="-58.093334"
       x2="62.483925"
       y1="134.93735"
       x1="62.483925"
       id="linearGradient3028"
       xlink:href="#linearGradient3203"
       inkscape:collect="always" />
    <linearGradient
       gradientUnits="userSpaceOnUse"
       y2="10.50423"
       x2="82.531303"
       y1="117.06476"
       x1="82.531303"
       id="linearGradient3026"
       xlink:href="#linearGradient3183"
       inkscape:collect="always" />
    <linearGradient
       inkscape:collect="always"
       xlink:href="#linearGradient3236"
       id="linearGradient3094"
       gradientUnits="userSpaceOnUse"
       gradientTransform="matrix(1.1240601,0,0,1.0743803,-8.5902883,-2.3801701)"
       x1="82.042976"
       y1="33.322315"
       x2="82.889259"
       y2="100.8178" />
    <linearGradient
       inkscape:collect="always"
       xlink:href="#linearGradient3236"
       id="linearGradient3096"
       gradientUnits="userSpaceOnUse"
       gradientTransform="matrix(1.7368418,0,0,-1.6363638,-32.668768,159.68907)"
       x1="47.293221"
       y1="53.375721"
       x2="45.71067"
       y2="39.032188" />
  </defs>
  <sodipodi:namedview
     id="base"
     pagecolor="#ffffff"
     bordercolor="#666666"
     borderopacity="1.0"
     gridtolerance="10000"
     guidetolerance="10"
     objecttolerance="10"
     inkscape:pageopacity="0.0"
     inkscape:pageshadow="2"
     inkscape:zoom="6.7272727"
     inkscape:cx="44"
     inkscape:cy="44"
     inkscape:document-units="px"
     inkscape:current-layer="g3056"
     width="88px"
     height="88px"
     showgrid="false"
     gridspacingx="4px"
     gridspacingy="4px"
     showborder="false"
     gridempspacing="2"
     inkscape:showpageshadow="false"
     borderlayer="true"
     inkscape:window-width="794"
     inkscape:window-height="704"
     inkscape:window-x="13"
     inkscape:window-y="24" />
  <metadata
     id="metadata7">
    <rdf:RDF>
      <cc:Work
         rdf:about="">
        <dc:format>image/svg+xml</dc:format>
        <dc:type
           rdf:resource="http://purl.org/dc/dcmitype/StillImage" />
      </cc:Work>
    </rdf:RDF>
  </metadata>
  <g
     inkscape:label="Layer 1"
     inkscape:groupmode="layer"
     id="layer1">
    <rect
       ry="5.7779021"
       rx="5.7779021"
       y="8"
       x="8"
       height="68"
       width="68"
       id="rect3181"
       style="opacity:1;fill:#323232;fill-opacity:1;stroke:url(#linearGradient3189);stroke-width:8;stroke-linecap:round;stroke-linejoin:round;stroke-miterlimit:4;stroke-dasharray:none;stroke-dashoffset:0.65000001;stroke-opacity:1" />
    <rect
       ry="5.7779016"
       rx="5.7779016"
       y="-76"
       x="7.9999995"
       height="68"
       width="68"
       id="rect3226"
       style="opacity:0.64480878;fill:none;fill-opacity:1;stroke:url(#radialGradient3228);stroke-width:7.99999952;stroke-linecap:round;stroke-linejoin:round;stroke-miterlimit:4;stroke-dasharray:none;stroke-dashoffset:0.65000001;stroke-opacity:1"
       transform="scale(1,-1)" />
    <path
       style="opacity:0.6;fill:none;fill-opacity:1;stroke:url(#radialGradient3272);stroke-width:8;stroke-linecap:round;stroke-linejoin:round;stroke-miterlimit:4;stroke-dasharray:none;stroke-dashoffset:0.65000001;stroke-opacity:1;filter:url(#filter3274)"
       d="M 14.78125,9 C 11.580293,9 9,11.580292 9,14.78125 L 9,15.21875 C 12.225943,14.77685 14.77685,12.225943 15.21875,9 L 14.78125,9 z "
       id="rect3264" />
    <path
       id="path3287"
       d="M 18.78125,13 C 15.580293,13 13,15.580292 13,18.78125 L 13,19.21875 C 16.225943,18.77685 18.77685,16.225943 19.21875,13 L 18.78125,13 z "
       style="opacity:0.6;fill:none;fill-opacity:1;stroke:url(#radialGradient3289);stroke-width:8;stroke-linecap:round;stroke-linejoin:round;stroke-miterlimit:4;stroke-dasharray:none;stroke-dashoffset:0.65000001;stroke-opacity:1;filter:url(#filter3274)"
       transform="matrix(-1,0,0,1,88,-4)" />
    <rect
       style="opacity:1;fill:#ffffff;fill-opacity:1;stroke:none;stroke-width:0.5;stroke-linecap:round;stroke-linejoin:round;stroke-miterlimit:4;stroke-dasharray:none;stroke-dashoffset:0.65000001;stroke-opacity:1"
       id="rect3177"
       width="68"
       height="68"
       x="8"
       y="8"
       rx="5.7779016"
       ry="5.7779016" />
    <path
       id="path3291"
       d="M 18.78125,13 C 15.580293,13 13,15.580292 13,18.78125 L 13,19.21875 C 16.225943,18.77685 18.77685,16.225943 19.21875,13 L 18.78125,13 z "
       style="opacity:0.2786885;fill:none;fill-opacity:1;stroke:url(#radialGradient3295);stroke-width:8;stroke-linecap:round;stroke-linejoin:round;stroke-miterlimit:4;stroke-dasharray:none;stroke-dashoffset:0.65000001;stroke-opacity:1;filter:url(#filter3274)"
       transform="matrix(1,0,0,-1,-4,88.21875)" />
    <path
       transform="matrix(-1,0,0,-1,88,88.21875)"
       style="opacity:0.2786885;fill:none;fill-opacity:1;stroke:url(#radialGradient3297);stroke-width:8;stroke-linecap:round;stroke-linejoin:round;stroke-miterlimit:4;stroke-dasharray:none;stroke-dashoffset:0.65000001;stroke-opacity:1;filter:url(#filter3274)"
       d="M 18.78125,13 C 15.580293,13 13,15.580292 13,18.78125 L 13,19.21875 C 16.225943,18.77685 18.77685,16.225943 19.21875,13 L 18.78125,13 z "
       id="path3293" />
    <rect
       ry="5.7779016"
       rx="5.7779016"
       y="10"
       x="8"
       height="66"
       width="68"
       id="rect3201"
       style="opacity:1;fill:url(#linearGradient3209);fill-opacity:1;stroke:none;stroke-width:0.5;stroke-linecap:round;stroke-linejoin:round;stroke-miterlimit:4;stroke-dasharray:none;stroke-dashoffset:0.65000001;stroke-opacity:1" />
    <g
       id="g3056"
       inkscape:label="Layer 1"
       transform="matrix(0.5757576,0,0,0.5641025,4.4848478,5.948719)">
      <path
         id="path2194"
         d="M 66.961163,100.76034 L 59.498327,82.34551 L 29.73971,82.34551 L 22.230523,100.76034 L 13.052632,100.76034 L 39.705601,32 L 49.764199,32 L 76,100.76034 L 66.961163,100.76034 M 48.466317,50.69071 C 47.971848,49.389407 47.492867,48.071786 47.029372,46.737845 C 46.596711,45.404012 46.210436,44.200259 45.870549,43.126584 C 45.530593,42.020492 45.237024,41.109545 44.989841,40.393739 C 44.773495,39.645521 44.649887,39.190047 44.619017,39.027316 C 44.557182,39.190047 44.418124,39.645521 44.201842,40.393739 C 43.985497,41.142079 43.691927,42.069292 43.321133,43.175386 C 42.981182,44.281594 42.579456,45.501612 42.115957,46.835447 C 41.683298,48.169387 41.23522,49.487008 40.771721,50.788313 L 32.428183,75.074188 L 56.856206,75.074188 L 48.466317,50.69071"
         style="font-size:62.13482285px;font-style:normal;font-weight:normal;fill:url(#linearGradient3094);fill-opacity:1;stroke:none;stroke-width:1px;stroke-linecap:butt;stroke-linejoin:miter;stroke-opacity:1;font-family:Liberation Sans" />
      <path
         sodipodi:nodetypes="csccccccccsccsccccccsccccccccccccccc"
         id="path2202"
         d="M 44.631697,39.017046 C 44.569857,39.179776 44.426457,39.645378 44.210174,40.393596 C 43.993833,41.141935 43.702797,42.074176 43.332002,43.18027 C 42.992047,44.286479 42.566061,45.506042 42.102561,46.839878 C 41.669903,48.173818 41.231238,49.500351 40.76774,50.801655 L 32.44267,75.075936 L 33.180334,75.075936 L 40.76774,52.950416 C 41.231238,51.649112 41.669903,50.322579 42.102561,48.988639 C 42.566061,47.654803 42.992047,46.43524 43.332002,45.329031 C 43.702797,44.222937 43.993833,43.290696 44.210174,42.542357 C 44.426457,41.794139 44.569857,41.328537 44.631697,41.165807 C 44.662567,41.328538 44.766617,41.794138 44.982966,42.542357 C 45.230149,43.258163 45.521186,44.155789 45.861138,45.261882 C 46.201024,46.335556 46.587664,47.554084 47.020325,48.887916 C 47.48382,50.221856 47.966059,51.54839 48.460527,52.849693 L 56.118186,75.075936 L 56.855851,75.075936 L 48.460527,50.700932 C 47.966059,49.399629 47.48382,48.073096 47.020325,46.739155 C 46.587664,45.405324 46.201024,44.186796 45.861138,43.113121 C 45.521186,42.007029 45.230149,41.109402 44.982966,40.393596 C 44.766617,39.645377 44.662567,39.179777 44.631697,39.017046 z M 29.7379,82.361577 L 22.220748,100.76034 L 13.895677,100.76034 L 13.052632,102.9091 L 22.220748,102.9091 L 29.7379,84.510338 L 59.490367,84.510338 L 66.972392,102.9091 L 76,102.9091 L 75.192082,100.76034 L 66.972392,100.76034 L 59.490367,82.361577 L 29.7379,82.361577 z "
         style="font-size:62.13482285px;font-style:normal;font-weight:normal;fill:#ffffff;fill-opacity:1;stroke:none;stroke-width:1px;stroke-linecap:butt;stroke-linejoin:miter;stroke-opacity:1;font-family:Liberation Sans" />
      <path
         id="path3194"
         d="M 82.526314,95.81821 L 117.26315,95.81821 L 99.894731,69.636367 L 82.526314,95.81821 z "
         style="fill:url(#linearGradient3096);fill-opacity:1;fill-rule:evenodd;stroke:none;stroke-width:1px;stroke-linecap:butt;stroke-linejoin:miter;stroke-opacity:1" />
      <path
         id="text2199"
         d="M 110.31579,43.663702 C 110.31576,45.136812 110.03869,46.494052 109.48458,47.735422 C 108.94624,48.976802 108.10711,50.052672 106.96719,50.963012 C 105.82721,51.856802 104.38644,52.560249 102.64488,53.073349 C 100.91911,53.569899 98.86878,53.818179 96.493907,53.818179 C 92.329914,53.818179 89.084229,53.056799 86.756842,51.534042 C 84.429441,50.011292 82.949093,47.809912 82.31579,44.929902 L 86.709344,44.011282 C 86.930994,44.921642 87.271395,45.749222 87.730548,46.494042 C 88.189686,47.238882 88.807158,47.884392 89.582966,48.430592 C 90.374587,48.960252 91.348292,49.374042 92.504085,49.671972 C 93.659854,49.969912 95.045207,50.118872 96.66015,50.118872 C 98.005907,50.118872 99.240852,50.003012 100.36499,49.771282 C 101.48909,49.523012 102.45487,49.150602 103.26235,48.654042 C 104.0698,48.157502 104.69518,47.520252 105.13852,46.742322 C 105.59764,45.947842 105.82721,45.004402 105.82724,43.911972 C 105.82721,42.769917 105.57389,41.843022 105.06727,41.131286 C 104.57643,40.419575 103.8798,39.831989 102.97736,39.368528 C 102.07489,38.905094 100.99827,38.516129 99.747513,38.201632 C 98.496716,37.887163 97.111363,37.547854 95.591447,37.1837 C 94.657308,36.968543 93.715267,36.73682 92.765324,36.488528 C 91.831187,36.223717 90.928728,35.917511 90.057944,35.569907 C 89.202973,35.205787 88.39551,34.783719 87.635553,34.3037 C 86.87558,33.82372 86.218527,33.252686 85.664391,32.590596 C 85.110244,31.911997 84.674847,31.134068 84.358199,30.256804 C 84.041542,29.363035 83.883216,28.336829 83.88322,27.178183 C 83.883216,25.523039 84.199868,24.107867 84.833178,22.932666 C 85.48231,21.740973 86.376853,20.764422 87.516808,20.003011 C 88.656749,19.241666 90.00252,18.687183 91.554128,18.339563 C 93.105712,17.992011 94.783969,17.818219 96.588903,17.818183 C 98.662958,17.818219 100.43621,17.992011 101.90867,18.339563 C 103.38108,18.670631 104.62393,19.175458 105.63725,19.854045 C 106.65051,20.532698 107.45798,21.376835 108.05964,22.386459 C 108.67708,23.379592 109.16789,24.538212 109.53207,25.862321 L 105.06727,26.681632 C 104.84559,25.837521 104.52103,25.084418 104.09357,24.422321 C 103.68189,23.760281 103.13567,23.2058 102.45489,22.758873 C 101.77407,22.312007 100.94286,21.972697 99.961256,21.740942 C 98.995443,21.509249 97.855494,21.393387 96.541405,21.393355 C 94.989793,21.393387 93.683603,21.542352 92.62283,21.840252 C 91.577865,22.121663 90.730821,22.510627 90.081693,23.007148 C 89.448379,23.50373 88.989233,24.091315 88.704255,24.769907 C 88.435092,25.432004 88.300514,26.152004 88.300523,26.929907 C 88.300514,27.972691 88.54592,28.833379 89.03674,29.511976 C 89.543374,30.174068 90.224177,30.72855 91.079149,31.175425 C 91.934099,31.622342 92.923637,31.994756 94.047766,32.292666 C 95.171868,32.590617 96.36723,32.888548 97.633856,33.186459 C 98.662958,33.434754 99.684163,33.691305 100.69747,33.956114 C 101.72657,34.204409 102.70818,34.510616 103.64234,34.874735 C 104.57643,35.222339 105.44723,35.636132 106.25472,36.116114 C 107.07799,36.596131 107.79046,37.183716 108.39213,37.878872 C 108.99374,38.57406 109.4608,39.393369 109.79331,40.336803 C 110.1416,41.280264 110.31576,42.389228 110.31579,43.663702"
         style="font-size:64px;font-style:normal;font-weight:normal;fill:#000000;fill-opacity:1;stroke:none;stroke-width:1px;stroke-linecap:butt;stroke-linejoin:miter;stroke-opacity:1;font-family:Liberation Sans" />
      <path
         id="path2204"
         d="M 96.53454,21.380683 C 94.982927,21.380715 93.689063,21.551533 92.62829,21.849433 C 91.583328,22.130843 90.746168,22.509162 90.09704,23.005683 C 89.463729,23.502265 88.975768,24.077091 88.69079,24.755683 C 88.421626,25.417781 88.315781,26.16528 88.31579,26.943183 C 88.315787,27.290017 88.323995,27.605388 88.37829,27.911933 C 88.445026,27.516455 88.544014,27.116726 88.69079,26.755683 C 88.975768,26.077091 89.463729,25.502265 90.09704,25.005683 C 90.746168,24.509162 91.583328,24.130843 92.62829,23.849433 C 93.689063,23.551533 94.982927,23.380715 96.53454,23.380683 C 97.848629,23.380715 99.006231,23.523991 99.972036,23.755683 C 100.95365,23.987438 101.75997,24.308818 102.44079,24.755683 C 103.12157,25.20261 103.68536,25.749894 104.09704,26.411933 C 104.5245,27.07403 104.84411,27.849072 105.06579,28.693183 L 109.53454,27.849433 C 109.34963,27.177141 109.12848,26.561402 108.87829,25.974433 L 105.06579,26.693183 C 104.84411,25.849072 104.5245,25.07403 104.09704,24.411933 C 103.68536,23.749894 103.12157,23.20261 102.44079,22.755683 C 101.75997,22.308818 100.95365,21.987438 99.972036,21.755683 C 99.006231,21.523991 97.848629,21.380715 96.53454,21.380683 z M 83.94079,28.193183 C 83.914112,28.512677 83.878289,28.853471 83.87829,29.193183 C 83.878286,30.351829 84.03038,31.361913 84.34704,32.255683 C 84.663688,33.132947 85.105392,33.920836 85.65954,34.599433 C 86.213676,35.261523 86.868317,35.838204 87.62829,36.318183 C 88.388247,36.798202 89.210816,37.204063 90.06579,37.568183 C 90.936574,37.915787 91.819155,38.209622 92.75329,38.474433 C 93.703233,38.722725 94.6629,38.978026 95.59704,39.193183 C 97.116956,39.557337 98.502491,39.878713 99.75329,40.193183 C 101.00405,40.50768 102.06957,40.917248 102.97204,41.380683 C 103.87448,41.844144 104.57495,42.418972 105.06579,43.130683 C 105.41435,43.620372 105.64453,44.218542 105.75329,44.911932 C 105.80109,44.590492 105.81578,44.264392 105.81579,43.911932 C 105.81576,42.769875 105.57241,41.842419 105.06579,41.130683 C 104.57495,40.418972 103.87448,39.844144 102.97204,39.380683 C 102.06957,38.917248 101.00405,38.50768 99.75329,38.193183 C 98.502491,37.878713 97.116956,37.557337 95.59704,37.193183 C 94.6629,36.978026 93.703233,36.722725 92.75329,36.474433 C 91.819155,36.209622 90.936574,35.915787 90.06579,35.568183 C 89.210816,35.204063 88.388247,34.798202 87.62829,34.318183 C 86.868317,33.838204 86.213676,33.261523 85.65954,32.599433 C 85.105392,31.920836 84.663688,31.132947 84.34704,30.255683 C 84.125528,29.630467 84.007345,28.948012 83.94079,28.193183 z M 110.25329,44.536932 C 110.16456,45.678082 109.91524,46.731532 109.47204,47.724432 C 108.9337,48.965812 108.11196,50.064092 106.97204,50.974432 C 105.83206,51.868222 104.4011,52.555079 102.65954,53.068179 C 100.93377,53.564729 98.878163,53.818179 96.50329,53.818179 C 92.339298,53.818179 89.080677,53.059689 86.75329,51.536932 C 84.961494,50.364612 83.665993,48.794942 82.87829,46.818182 L 82.31579,46.943182 C 82.949093,49.823192 84.425886,52.014172 86.75329,53.536929 C 89.080677,55.059689 92.339298,55.818179 96.50329,55.818179 C 98.878163,55.818179 100.93377,55.564729 102.65954,55.068179 C 104.4011,54.555079 105.83206,53.868219 106.97204,52.974429 C 108.11196,52.064092 108.9337,50.965812 109.47204,49.724432 C 110.02615,48.483062 110.31576,47.135042 110.31579,45.661932 C 110.31578,45.272082 110.28589,44.895812 110.25329,44.536932 z "
         style="font-size:64px;font-style:normal;font-weight:normal;fill:#ffffff;fill-opacity:1;stroke:none;stroke-width:1px;stroke-linecap:butt;stroke-linejoin:miter;stroke-opacity:1;font-family:Liberation Sans" />
      <path
         id="path3200"
         d="M 82.526314,93.636378 L 99.894731,67.454547 L 117.26315,93.636378 L 115.82871,93.636378 L 99.894731,69.636367 L 83.960759,93.636378 L 82.526314,93.636378 z "
         style="fill:#ffffff;fill-opacity:1;fill-rule:evenodd;stroke:none;stroke-width:1px;stroke-linecap:butt;stroke-linejoin:miter;stroke-opacity:1" />
    </g>
  </g>
</svg>
