<?xml version="1.0" encoding="UTF-8" standalone="no"?>
<!-- Created with Inkscape (http://www.inkscape.org/) -->

<svg
   xmlns:dc="http://purl.org/dc/elements/1.1/"
   xmlns:cc="http://creativecommons.org/ns#"
   xmlns:rdf="http://www.w3.org/1999/02/22-rdf-syntax-ns#"
   xmlns:svg="http://www.w3.org/2000/svg"
   xmlns="http://www.w3.org/2000/svg"
   xmlns:sodipodi="http://sodipodi.sourceforge.net/DTD/sodipodi-0.dtd"
   xmlns:inkscape="http://www.inkscape.org/namespaces/inkscape"
   width="30"
   height="64"
   id="svg3332"
   sodipodi:version="0.32"
   inkscape:version="0.47pre4 r22446"
   version="1.0"
   sodipodi:docname="note64.svg"
   inkscape:output_extension="org.inkscape.output.svg.inkscape">
  <defs
     id="defs3334">
    <inkscape:perspective
       sodipodi:type="inkscape:persp3d"
       inkscape:vp_x="0 : 526.18109 : 1"
       inkscape:vp_y="0 : 1000 : 0"
       inkscape:vp_z="744.09448 : 526.18109 : 1"
       inkscape:persp3d-origin="372.04724 : 350.78739 : 1"
       id="perspective3340" />
  </defs>
  <sodipodi:namedview
     id="base"
     pagecolor="#ffffff"
     bordercolor="#666666"
     borderopacity="1.0"
     gridtolerance="10000"
     guidetolerance="10"
     objecttolerance="10"
     inkscape:pageopacity="0.0"
     inkscape:pageshadow="2"
     inkscape:zoom="3.5291667"
     inkscape:cx="-27.260921"
     inkscape:cy="25.714286"
     inkscape:document-units="px"
     inkscape:current-layer="layer1"
     showgrid="false"
     inkscape:window-width="1280"
     inkscape:window-height="752"
     inkscape:window-x="0"
     inkscape:window-y="0"
     inkscape:window-maximized="1" />
  <metadata
     id="metadata3337">
    <rdf:RDF>
      <cc:Work
         rdf:about="">
        <dc:format>image/svg+xml</dc:format>
        <dc:type
           rdf:resource="http://purl.org/dc/dcmitype/StillImage" />
      </cc:Work>
    </rdf:RDF>
  </metadata>
  <g
     inkscape:label="Layer 1"
     inkscape:groupmode="layer"
     id="layer1"
     transform="translate(-249.54053,-481.82949)">
    <path
       style="font-size:7.02919579000000017px;font-family:Emmentaler;fill:#ffffff;fill-opacity:1"
       d="m 266.08068,505.52819 0,22.25362 0.5786,0 0.5341,0 0,-2.49241 0,-2.53691 1.2462,1.2462 c 0.76311,0.78348 1.39548,1.46407 1.89712,2.04177 0.5016,0.57766 0.9671,1.15807 1.39642,1.74135 0.58044,0.80758 1.05518,1.60685 1.42423,2.39783 0.36902,0.79088 0.62121,1.53452 0.75662,2.23092 0.1947,1.12932 0.15019,2.42003 -0.13354,3.87213 -0.28373,1.452 -0.77331,2.83172 -1.46874,4.13918 -0.10662,0.18539 -0.17153,0.3152 -0.1947,0.38941 -0.0234,0.0741 -0.0323,0.18166 -0.0279,0.32267 0.0253,0.29019 0.11961,0.53308 0.28373,0.72881 0.16412,0.19559 0.38111,0.33837 0.65092,0.42835 0.40055,0.12606 0.75661,0.0964 1.06817,-0.089 0.15114,-0.0835 0.28278,-0.19477 0.39498,-0.33381 0.1122,-0.13918 0.2327,-0.33946 0.36161,-0.60083 0.53593,-1.21567 0.94392,-2.46743 1.22395,-3.7553 0.28,-1.28798 0.42094,-2.52862 0.42284,-3.72192 -1e-5,-0.88742 -0.12239,-1.78312 -0.36718,-2.68713 -0.24479,-0.9041 -0.61198,-1.83319 -1.10156,-2.78726 -0.0909,-0.16229 -0.16507,-0.30514 -0.2225,-0.42842 -0.0576,-0.12334 -0.0872,-0.18824 -0.089,-0.1947 9.2e-4,-0.0241 0.0215,-0.065 0.0614,-0.1224 0.0399,-0.0576 0.0937,-0.12055 0.16134,-0.18913 0.40429,-0.54061 0.71952,-1.12849 0.94578,-1.7636 0.22624,-0.63519 0.34122,-1.27869 0.3449,-1.9305 -0.006,-0.75666 -0.11594,-1.56892 -0.32825,-2.43677 -0.21237,-0.86793 -0.48863,-1.65793 -0.82894,-2.37001 l -0.13354,-0.22257 0.17805,-0.35604 c 0.2244,-0.43119 0.42094,-0.91521 0.58975,-1.45204 0.16874,-0.53688 0.29854,-1.07655 0.38941,-1.61895 0.0667,-0.42747 0.1001,-0.94118 0.10017,-1.54107 -1e-5,-0.59994 -0.0336,-1.12476 -0.10017,-1.57444 -0.0909,-0.51927 -0.22067,-1.04966 -0.38941,-1.59114 -0.16875,-0.54156 -0.36535,-1.04965 -0.58975,-1.52437 l -0.17805,-0.40055 0.17805,-0.44507 c 0.24479,-0.66021 0.42278,-1.29815 0.53409,-1.91381 0.11125,-0.61571 0.15576,-1.25364 0.13354,-1.91381 -0.0424,-0.94673 -0.20218,-1.90178 -0.47844,-2.86516 -0.27632,-0.96341 -0.68059,-1.99635 -1.21282,-3.09881 -0.26613,-0.53966 -0.59063,-1.12939 -0.97359,-1.76916 -0.38295,-0.63981 -0.9634,-1.56333 -1.74135,-2.77058 -0.69821,-1.10898 -1.24899,-2.00655 -1.65233,-2.69269 -0.40334,-0.68616 -0.74271,-1.31668 -1.01811,-1.89155 -0.4664,-0.97175 -0.8243,-1.89899 -1.07373,-2.78171 -0.24941,-0.88273 -0.39593,-1.76545 -0.4395,-2.64818 l 0,-0.53409 -0.5786,0 -0.53409,0 0,22.25363 0,0 z m 1.91381,-11.79442 c 1.59021,2.00467 2.80488,3.78124 3.64403,5.32974 0.83915,1.54846 1.37509,2.99124 1.60783,4.32833 0.0443,0.33286 0.0667,0.7464 0.0667,1.24064 0,0.4942 -0.0222,0.8076 -0.0667,0.94021 -0.0177,0.0494 -0.038,0.0621 -0.0614,0.0393 -0.0234,-0.0234 -0.0769,-0.11036 -0.16134,-0.2615 -0.076,-0.10201 -0.2244,-0.3097 -0.44506,-0.62312 -0.22067,-0.31343 -0.45805,-0.65465 -0.71212,-1.02367 -0.89386,-1.2592 -1.58743,-2.26803 -2.08072,-3.02649 -0.49331,-0.7585 -0.89756,-1.45577 -1.21282,-2.09184 -0.4664,-0.9291 -0.81319,-1.83037 -1.04035,-2.70382 -0.22719,-0.87346 -0.34028,-1.75248 -0.33939,-2.63705 -0.002,-0.23643 0.002,-0.37554 0.0114,-0.41727 0.009,-0.0418 0.0355,-0.0361 0.0779,0.0165 0.0266,0.0285 0.10663,0.12702 0.23921,0.29488 0.13259,0.16779 0.29026,0.36623 0.47287,0.59526 l 0,0 z m 0.93465,10.85977 c 0.90591,0.97171 1.66439,1.87669 2.27544,2.71494 0.61102,0.83819 1.1136,1.65416 1.50768,2.44789 0.53409,1.07557 0.86788,2.07327 1.00141,2.99311 0.13354,0.91979 0.0667,1.85073 -0.20027,2.79284 -0.0253,0.0927 -0.0526,0.17431 -0.0835,0.24479 -0.0304,0.0704 -0.0475,0.10751 -0.05,0.11125 l -0.26708,-0.35604 c -0.077,-0.1243 -0.24573,-0.37649 -0.50629,-0.75663 -0.26056,-0.38016 -0.55169,-0.81043 -0.87345,-1.29071 l -1.60226,-2.22536 c -1.0181,-1.52162 -1.7636,-2.92915 -2.23649,-4.22263 -0.47289,-1.29351 -0.70655,-2.5564 -0.70099,-3.78867 l 0,-0.53409 0.53409,0.5786 c 0.16413,0.16501 0.35883,0.36902 0.58418,0.61198 0.22529,0.24289 0.43114,0.46912 0.61755,0.67873 l 0,0 z m -0.93465,8.99046 c 1.20911,1.27027 2.18456,2.39037 2.92636,3.3603 0.74178,0.96985 1.33892,1.91192 1.79141,2.82621 0.2874,0.57018 0.5137,1.09873 0.67874,1.58557 0.16507,0.48673 0.27999,0.9819 0.34489,1.48542 0.0462,0.4376 0.0538,0.83077 0.0222,1.17944 -0.0317,0.34864 -0.11315,0.69724 -0.24479,1.04592 -0.0862,0.21693 -0.1474,0.35047 -0.18356,0.40056 -0.0361,0.05 -0.064,0.05 -0.0835,0 -0.008,-0.0304 -0.0927,-0.15862 -0.25593,-0.3839 -0.16317,-0.22535 -0.35978,-0.49794 -0.58975,-0.81782 -1.04685,-1.4048 -1.76824,-2.38952 -2.16416,-2.95417 -0.39594,-0.56474 -0.72789,-1.09325 -0.99585,-1.58557 -0.59805,-0.95416 -1.05983,-1.88325 -1.38529,-2.78727 -0.32546,-0.90408 -0.53131,-1.79979 -0.61755,-2.68712 -0.0215,-0.25593 -0.0342,-0.55638 -0.0393,-0.90128 -0.005,-0.34495 -0.006,-0.53409 -0.006,-0.56746 0.0279,0.006 0.11682,0.0835 0.26707,0.23365 0.1502,0.15019 0.32825,0.33932 0.5341,0.56746 l 0,0 z"
       id="text835" />
    <path
       d="m 266.19192,482.82949 0.55638,0 c 0.24657,0 0.44507,0.1985 0.44507,0.44507 l 0,52.65482 c 0,0.24656 -0.1985,0.44506 -0.44507,0.44506 l -0.55638,0 c -0.24656,0 -0.44506,-0.1985 -0.44506,-0.44506 l 0,-52.65482 c 0,-0.24657 0.1985,-0.44507 0.44506,-0.44507 z"
       id="rect841"
       style="fill:#ffffff;fill-opacity:1" />
    <path
       style="font-size:7.02919579000000017px;font-family:Emmentaler;fill:#ffffff;fill-opacity:1"
       d="m 260.5151,532.09973 c -1.60876,0.24384 -3.06452,0.82432 -4.36728,1.74134 -1.30276,0.91704 -2.28006,2.0427 -2.93191,3.37699 -0.24295,0.49794 -0.41353,0.95969 -0.51187,1.38529 -0.0983,0.42562 -0.13537,0.89849 -0.11125,1.41867 -0.002,0.29854 0.002,0.52478 0.0114,0.67873 0.01,0.15393 0.0355,0.31343 0.0779,0.47844 0.30133,1.09783 0.90034,1.96202 1.79698,2.59254 0.89663,0.63053 2.01858,0.98287 3.36586,1.05705 1.95831,0.0234 3.7831,-0.53504 5.47439,-1.67459 1.69126,-1.13957 2.84845,-2.59904 3.47157,-4.37839 0.10846,-0.34123 0.18077,-0.64907 0.21699,-0.92353 0.0361,-0.27449 0.0525,-0.60456 0.05,-0.99029 0.002,-0.29766 -0.002,-0.52573 -0.0114,-0.68429 -0.009,-0.15855 -0.0355,-0.33103 -0.0779,-0.51738 -0.11499,-0.40796 -0.28557,-0.80484 -0.5118,-1.19057 -0.22624,-0.38574 -0.48591,-0.71582 -0.77888,-0.99029 -0.71955,-0.63053 -1.63936,-1.06075 -2.75945,-1.29071 -0.3171,-0.0649 -0.71769,-0.10201 -1.2017,-0.11125 -0.484,-0.01 -0.88459,-0.002 -1.20169,0.0222 l 0,0 z"
       id="text845" />
  </g>
</svg>
