<?xml version="1.0" encoding="UTF-8" standalone="no"?>
<!-- Created with Inkscape (http://www.inkscape.org/) -->

<svg
   xmlns:dc="http://purl.org/dc/elements/1.1/"
   xmlns:cc="http://creativecommons.org/ns#"
   xmlns:rdf="http://www.w3.org/1999/02/22-rdf-syntax-ns#"
   xmlns:svg="http://www.w3.org/2000/svg"
   xmlns="http://www.w3.org/2000/svg"
   xmlns:sodipodi="http://sodipodi.sourceforge.net/DTD/sodipodi-0.dtd"
   xmlns:inkscape="http://www.inkscape.org/namespaces/inkscape"
   sodipodi:docname="note-2.svg"
   height="24"
   id="svg7384"
   inkscape:version="0.48.3.1 r9886"
   version="1.1"
   width="24">
  <metadata
     id="metadata90">
    <rdf:RDF>
      <cc:Work
         rdf:about="">
        <dc:format>image/svg+xml</dc:format>
        <dc:type
           rdf:resource="http://purl.org/dc/dcmitype/StillImage" />
        <dc:title>MuseScore Icon Theme</dc:title>
      </cc:Work>
    </rdf:RDF>
  </metadata>
  <sodipodi:namedview
     inkscape:bbox-nodes="false"
     inkscape:bbox-paths="true"
     bordercolor="#666666"
     borderopacity="1"
     inkscape:current-layer="actions"
     inkscape:cx="8.5197164"
     inkscape:cy="12.24708"
     fit-margin-bottom="6"
     fit-margin-left="6"
     fit-margin-right="6"
     fit-margin-top="6"
     gridtolerance="10"
     inkscape:guide-bbox="true"
     guidetolerance="10"
     id="namedview88"
     inkscape:object-nodes="false"
     inkscape:object-paths="false"
     objecttolerance="10"
     pagecolor="#24201f"
     inkscape:pageopacity="1"
     inkscape:pageshadow="2"
     showborder="true"
     showgrid="true"
     showguides="true"
     inkscape:snap-bbox="true"
     inkscape:snap-bbox-midpoints="false"
     inkscape:snap-global="true"
     inkscape:snap-grids="true"
     inkscape:snap-nodes="false"
     inkscape:snap-others="false"
     inkscape:snap-to-guides="true"
     inkscape:window-height="974"
     inkscape:window-maximized="1"
     inkscape:window-width="1280"
     inkscape:window-x="0"
     inkscape:window-y="0"
     inkscape:zoom="20.48"
     borderlayer="true">
    <inkscape:grid
       type="xygrid"
       id="grid3800"
       empspacing="4"
       visible="true"
       enabled="true"
       snapvisiblegridlinesonly="true"
       dotted="false" />
  </sodipodi:namedview>
  <title
     id="title9167">MuseScore Icon Theme</title>
  <defs
     id="defs7386" />
  <g
     inkscape:groupmode="layer"
     id="actions"
     inkscape:label="actions"
     style="display:inline"
     transform="translate(-327.9994,-267)">
    <path
       inkscape:connector-curvature="0"
       d="m 344.87336,282.48157 c -0.0231,-0.38926 -0.17265,-0.70556 -0.44876,-0.94888 -0.27619,-0.26763 -0.60989,-0.40146 -1.00112,-0.40147 -0.64439,1e-5 -2.00219,0.71778 -4.0734,2.15329 -2.07124,1.4112 -3.36001,2.43309 -3.86631,3.06568 -0.25314,0.31631 -0.37972,0.65696 -0.37972,1.02192 0,0.41362 0.13806,0.76643 0.41426,1.05839 0.29918,0.29196 0.64436,0.43795 1.0356,0.43795 0.6444,0 2.0022,-0.70559 4.07344,-2.11679 2.09424,-1.43552 3.39449,-2.46956 3.9008,-3.10219 0.23012,-0.26763 0.34521,-0.60826 0.34521,-1.02192 l 0,-0.14574 M 336.89911,290 c -1.93315,0 -2.89971,-0.87591 -2.89971,-2.62773 0,-0.85157 0.23013,-1.83699 0.69041,-2.9562 0.46027,-1.14356 1.09315,-2.00732 1.89862,-2.59123 1.703,-1.21656 3.8778,-1.82482 6.52437,-1.82484 0.73644,2e-5 1.32329,0.12175 1.76056,0.36496 0.1772,0.12738 1.12604,0.45444 1.12604,0.45444 0,0 -10e-4,1.01734 -0.0205,1.77184 -3e-5,0.85159 -0.23015,1.84917 -0.69043,2.99269 -0.46029,1.14357 -1.09315,2.00732 -1.89861,2.59126 C 341.6868,289.39174 339.52351,290 336.89996,290"
       id="path8816-4"
       sodipodi:nodetypes="ccccsscscccccsccccccccc"
       style="font-size:20px;font-style:normal;font-variant:normal;font-weight:normal;font-stretch:normal;text-align:start;line-height:125%;writing-mode:lr-tb;text-anchor:start;fill:#ffffff;fill-opacity:1;stroke:none;font-family:MScore1;-inkscape-font-specification:MScore1" />
    <rect
       height="14"
       id="use4354-4-5-2"
       style="color:#000000;fill:#ffffff;fill-opacity:1;fill-rule:nonzero;stroke:none;stroke-width:1.50800002;marker:none;visibility:visible;display:inline;overflow:visible;enable-background:new"
       width="2.0000002"
       x="343.99939"
       y="267" />
  </g>
</svg>
