<?xml version="1.0" encoding="UTF-8" standalone="no"?>
<!-- Created with Inkscape (http://www.inkscape.org/) -->

<svg
   xmlns:dc="http://purl.org/dc/elements/1.1/"
   xmlns:cc="http://creativecommons.org/ns#"
   xmlns:rdf="http://www.w3.org/1999/02/22-rdf-syntax-ns#"
   xmlns:svg="http://www.w3.org/2000/svg"
   xmlns="http://www.w3.org/2000/svg"
   xmlns:sodipodi="http://sodipodi.sourceforge.net/DTD/sodipodi-0.dtd"
   xmlns:inkscape="http://www.inkscape.org/namespaces/inkscape"
   width="30"
   height="64"
   id="svg3332"
   sodipodi:version="0.32"
   inkscape:version="0.47pre4 r22446"
   version="1.0"
   sodipodi:docname="note32.svg"
   inkscape:output_extension="org.inkscape.output.svg.inkscape">
  <defs
     id="defs3334">
    <inkscape:perspective
       sodipodi:type="inkscape:persp3d"
       inkscape:vp_x="0 : 526.18109 : 1"
       inkscape:vp_y="0 : 1000 : 0"
       inkscape:vp_z="744.09448 : 526.18109 : 1"
       inkscape:persp3d-origin="372.04724 : 350.78739 : 1"
       id="perspective3340" />
  </defs>
  <sodipodi:namedview
     id="base"
     pagecolor="#ffffff"
     bordercolor="#666666"
     borderopacity="1.0"
     gridtolerance="10000"
     guidetolerance="10"
     objecttolerance="10"
     inkscape:pageopacity="0.0"
     inkscape:pageshadow="2"
     inkscape:zoom="3.137037"
     inkscape:cx="-42.632822"
     inkscape:cy="48.571429"
     inkscape:document-units="px"
     inkscape:current-layer="layer1"
     showgrid="false"
     inkscape:window-width="1280"
     inkscape:window-height="752"
     inkscape:window-x="0"
     inkscape:window-y="0"
     inkscape:window-maximized="1" />
  <metadata
     id="metadata3337">
    <rdf:RDF>
      <cc:Work
         rdf:about="">
        <dc:format>image/svg+xml</dc:format>
        <dc:type
           rdf:resource="http://purl.org/dc/dcmitype/StillImage" />
      </cc:Work>
    </rdf:RDF>
  </metadata>
  <g
     inkscape:label="Layer 1"
     inkscape:groupmode="layer"
     id="layer1"
     transform="translate(-429.54212,-552.81875)">
    <path
       style="font-size:7.02919579000000017px;font-family:Emmentaler;fill:#ffffff;fill-opacity:1"
       d="m 446.24577,572.64323 0,18.33552 0.63564,0 0.58674,0 0,-2.54252 0,-2.49364 0.19561,0.14671 1.07568,1.02679 c 1.78262,1.70822 3.18019,3.31563 4.19272,4.82224 1.01253,1.50653 1.65224,2.93058 1.91913,4.27217 0.21591,1.18057 0.17522,2.52313 -0.12222,4.02771 -0.29744,1.50449 -0.82714,2.98151 -1.58908,4.43109 -0.14058,0.27699 -0.22614,0.46849 -0.25668,0.5745 -0.0306,0.10587 -0.0431,0.22405 -0.0369,0.35448 0.0278,0.31879 0.1314,0.5857 0.3117,0.80064 0.1803,0.21488 0.41869,0.37173 0.71509,0.47065 0.3005,0.0968 0.59182,0.11095 0.87399,0.0431 0.28214,-0.0682 0.51239,-0.21293 0.69067,-0.43392 0.21292,-0.26183 0.48386,-0.81395 0.81287,-1.65631 0.32902,-0.84247 0.61221,-1.72461 0.84955,-2.64643 0.31782,-1.2764 0.50118,-2.50081 0.55009,-3.67322 0.0487,-1.1725 -0.0369,-2.26244 -0.25668,-3.26984 -0.0794,-0.38307 -0.20173,-0.81494 -0.36672,-1.2957 -0.165,-0.48081 -0.33619,-0.91275 -0.51343,-1.29571 l -0.29334,-0.58674 0.24444,-0.48895 c 0.65908,-1.60337 0.96668,-3.18837 0.92289,-4.755 -0.0438,-1.56671 -0.43294,-3.17615 -1.16736,-4.82836 l -0.24451,-0.53784 0.14671,-0.29341 c 0.12423,-0.27608 0.24242,-0.59182 0.35448,-0.94733 0.11206,-0.35553 0.20576,-0.70798 0.28116,-1.05735 0.0466,-0.24346 0.0754,-0.46557 0.0856,-0.66618 0.0104,-0.20068 0.0139,-0.53276 0.0125,-0.99623 0.002,-0.51954 -0.0146,-0.97181 -0.0487,-1.35683 -0.0348,-0.38509 -0.0998,-0.8129 -0.19561,-1.28349 -0.3423,-1.5239 -1.0268,-3.21892 -2.05358,-5.08504 -0.25772,-0.44415 -0.56128,-0.94939 -0.91066,-1.51574 -0.34977,-0.56675 -0.81223,-1.31648 -1.38776,-2.24954 l -1.41795,-2.20026 c -1.11541,-1.76124 -1.94051,-3.34828 -2.47529,-4.76113 -0.53479,-1.41285 -0.83427,-2.79209 -0.89844,-4.13771 l 0,-0.58674 -0.63565,0 -0.58674,0 0,18.33553 0,0 z m 2.00469,-7.04084 c 1.26209,1.57277 2.29499,2.97441 3.0987,4.20495 0.8037,1.23049 1.43322,2.38767 1.88855,3.47152 0.3718,0.87907 0.64274,1.76121 0.81288,2.64642 0.17007,0.88518 0.20882,1.63287 0.1161,2.24306 l 0,0.1956 -0.88011,-1.22237 c -0.25466,-0.3341 -0.52769,-0.70492 -0.81898,-1.11235 -0.29132,-0.40749 -0.53986,-0.75382 -0.74565,-1.03901 -1.27738,-1.76941 -2.23082,-3.29125 -2.86034,-4.56555 -0.62953,-1.27434 -1.04513,-2.53949 -1.24682,-3.79545 -0.0529,-0.36061 -0.0937,-0.764 -0.12222,-1.21015 -0.0285,-0.44616 -0.0202,-0.67843 0.0244,-0.69675 0.006,0.0306 0.0794,0.12834 0.22002,0.29334 0.14058,0.16499 0.3117,0.3606 0.51343,0.58674 l 0,0 z m 2.20025,12.81042 c 0.47468,0.54389 0.86992,1.02065 1.1857,1.43017 0.31581,0.4095 0.63766,0.86174 0.96567,1.35683 0.87909,1.31707 1.48008,2.57 1.803,3.75878 0.3229,1.18872 0.37381,2.33163 0.15282,3.42875 -0.0244,0.14969 -0.0487,0.27803 -0.0733,0.38501 -0.0243,0.10692 -0.0487,0.17418 -0.0733,0.20166 -0.008,0.0487 -0.13857,-0.0978 -0.39114,-0.44004 -0.10698,-0.1579 -0.28422,-0.40442 -0.53172,-0.73953 -0.24757,-0.33514 -0.51037,-0.69171 -0.78843,-1.06958 -1.14088,-1.51067 -1.98839,-2.68211 -2.54253,-3.51431 -0.55411,-0.83225 -1.01049,-1.6492 -1.36905,-2.45085 -0.41868,-0.86688 -0.74259,-1.7368 -0.97179,-2.60975 -0.2292,-0.873 -0.34529,-1.68179 -0.34835,-2.4264 l 0,-0.44004 1.12457,1.17347 c 0.33104,0.33209 0.67126,0.68246 1.02068,1.05124 0.3494,0.36874 0.62848,0.67022 0.83732,0.90455 l 0,0 z"
       id="text835" />
    <path
       d="m 446.36798,553.81875 0.61122,0 c 0.27087,0 0.48894,0.21808 0.48894,0.48894 l 0,51.73357 c 0,0.27087 -0.21807,0.48894 -0.48894,0.48894 l -0.61122,0 c -0.27087,0 -0.48894,-0.21807 -0.48894,-0.48894 l 0,-51.73357 c 0,-0.27086 0.21807,-0.48894 0.48894,-0.48894 z"
       id="rect841"
       style="fill:#ffffff;fill-opacity:1" />
    <path
       style="font-size:7.02919579000000017px;font-family:Emmentaler;fill:#ffffff;fill-opacity:1"
       d="m 440.13153,601.8341 c -1.76735,0.26788 -3.36661,0.90558 -4.79779,1.91301 -1.43119,1.00743 -2.50484,2.24406 -3.22094,3.70988 -0.26691,0.54703 -0.4543,1.0543 -0.56233,1.52185 -0.10796,0.46759 -0.14872,0.98706 -0.12222,1.55852 -0.002,0.32798 0.002,0.57652 0.0125,0.74565 0.0104,0.1691 0.039,0.34432 0.0856,0.5256 0.33104,1.20606 0.9891,2.15543 1.97413,2.84811 0.98502,0.69269 2.21757,1.07976 3.69766,1.16125 2.15136,0.0257 4.15604,-0.58778 6.01406,-1.83966 1.85798,-1.25192 3.12924,-2.85525 3.81378,-4.81002 0.11916,-0.37486 0.1986,-0.71305 0.23839,-1.01457 0.0396,-0.30154 0.0577,-0.66416 0.055,-1.08791 0.002,-0.327 -0.002,-0.57756 -0.0125,-0.75175 -0.0104,-0.17418 -0.039,-0.36366 -0.0856,-0.56838 -0.12632,-0.44818 -0.31372,-0.88418 -0.56226,-1.30794 -0.24854,-0.42376 -0.5338,-0.78638 -0.85566,-1.08791 -0.79048,-0.69268 -1.80097,-1.16531 -3.03147,-1.41794 -0.34836,-0.0713 -0.78844,-0.11206 -1.32016,-0.12222 -0.53172,-0.0104 -0.97179,-0.002 -1.32016,0.0244 l 0,0 z"
       id="text845" />
  </g>
</svg>
