<?xml version="1.0" encoding="UTF-8" standalone="no"?>
<!-- Created with Inkscape (http://www.inkscape.org/) -->
<svg
   xmlns:svg="http://www.w3.org/2000/svg"
   xmlns="http://www.w3.org/2000/svg"
   version="1.0"
   width="128pt"
   height="128pt"
   viewBox="0 0 507.946 507.946"
   id="svg49"
   xml:space="preserve">
  <defs
   id="defs62">
    <radialGradient
   cx="218.9404"
   cy="219.7715"
   r="150.7063"
   fx="218.9404"
   fy="219.7715"
   id="aigrd1"
   gradientUnits="userSpaceOnUse">
      <stop
   style="stop-color:#73ffff;stop-opacity:1"
   offset="0"
   id="stop53" />
      <stop
   style="stop-color:#2ea6b9;stop-opacity:1"
   offset="0.2809"
   id="stop54" />
      <stop
   style="stop-color:#006b8b;stop-opacity:1"
   offset="1"
   id="stop55" />
    </radialGradient>
  </defs>
  
  <path
   d="M 134.757,263.776 C 134.757,330.515 189.055,384.816 255.796,384.816 C 322.535,384.816 376.835,330.515 376.835,263.776 C 376.835,197.035 322.535,142.737 255.796,142.737 C 189.055,142.737 134.757,197.035 134.757,263.776 z "
   transform="matrix(1.89511,0,0,1.91236,-231.458,-247.971)"
   style="font-size:12px;fill:#a4c9ee;fill-opacity:0.7;stroke:none;stroke-width:0.97926801;stroke-opacity:0.98601403"
   id="path51" />
  <path
   d="M 356.643,263.366 C 356.643,320.393 310.413,366.623 253.387,366.623 C 196.36,366.623 150.131,320.394 150.131,263.366 C 150.131,206.339 196.36,160.11 253.387,160.11 C 310.412,160.11 356.643,206.339 356.643,263.366 z "
   transform="matrix(2.04451,0,0,2.04451,-264.353,-281.723)"
   style="font-size:12px;fill:url(#aigrd1);fill-rule:evenodd;stroke:#1c6671;stroke-width:7.73106003;stroke-opacity:0.98823499"
   id="path56" />
  <path
   d="M 305.753,281.376 C 305.753,281.376 286.895,262.52 277.899,253.525 C 285.842,245.581 299.051,232.372 299.051,232.372 C 300.964,230.459 301.98,227.901 301.98,225.299 C 301.98,224.01 301.731,222.711 301.218,221.474 C 299.67,217.738 296.025,215.301 291.98,215.301 L 215.117,215.301 C 209.594,215.301 205.117,219.778 205.117,225.301 L 205.117,302.168 C 205.117,306.213 207.554,309.859 211.29,311.407 C 215.027,312.955 219.329,312.098 222.188,309.238 C 222.188,309.238 235.396,296.027 243.34,288.083 C 252.336,297.079 271.192,315.937 271.192,315.937 C 273.067,317.813 275.611,318.867 278.263,318.867 C 280.915,318.867 283.458,317.813 285.334,315.938 L 305.754,295.518 C 307.629,293.642 308.683,291.099 308.683,288.447 C 308.683,285.795 307.629,283.251 305.753,281.376 L 305.753,281.376 z "
   transform="matrix(1.41062,1.39947,-1.39947,1.41062,269.133,-465.329)"
   style="font-size:12px;opacity:1;fill:#ffffff;fill-opacity:0.7;stroke:#1c6772;stroke-width:4.99274015;stroke-opacity:0.98823499"
   id="path59" />
</svg>