<?xml version="1.0" encoding="UTF-8" standalone="no"?>
<!-- Created with Inkscape (http://www.inkscape.org/) -->

<svg
   xmlns:dc="http://purl.org/dc/elements/1.1/"
   xmlns:cc="http://creativecommons.org/ns#"
   xmlns:rdf="http://www.w3.org/1999/02/22-rdf-syntax-ns#"
   xmlns:svg="http://www.w3.org/2000/svg"
   xmlns="http://www.w3.org/2000/svg"
   version="1.1"
   width="128pt"
   height="128pt"
   viewBox="0 0 507.946 507.946"
   id="svg49"
   xml:space="preserve"><metadata
   id="metadata16"><rdf:RDF><cc:Work
       rdf:about=""><dc:format>image/svg+xml</dc:format><dc:type
         rdf:resource="http://purl.org/dc/dcmitype/StillImage" /><dc:title></dc:title></cc:Work></rdf:RDF></metadata>
  <defs
   id="defs62">
    <radialGradient
   cx="218.9404"
   cy="219.7715"
   r="150.7063"
   fx="218.9404"
   fy="219.7715"
   id="aigrd1"
   gradientUnits="userSpaceOnUse">
      <stop
   id="stop53"
   style="stop-color:#73ffff;stop-opacity:1"
   offset="0" />
      <stop
   id="stop54"
   style="stop-color:#2ea6b9;stop-opacity:1"
   offset="0.2809" />
      <stop
   id="stop55"
   style="stop-color:#006b8b;stop-opacity:1"
   offset="1" />
    </radialGradient>
  </defs>
  
  
  
  
  
  
  
<rect
   width="439.66571"
   height="15.873313"
   x="36.533657"
   y="222.22638"
   id="rect3937"
   style="fill:#ffffff;fill-opacity:1;fill-rule:evenodd;stroke:#f0f0f0;stroke-width:3.17466259;stroke-miterlimit:4;stroke-opacity:1;stroke-dasharray:none" /><rect
   width="95.239876"
   height="31.746626"
   x="142.8598"
   y="126.9865"
   id="rect3156"
   style="fill:#ffffff;fill-opacity:1;stroke:#f0f0f0;stroke-width:3.17466259;stroke-miterlimit:4;stroke-opacity:1;stroke-dasharray:none" /><rect
   width="31.746626"
   height="190.47975"
   x="349.21283"
   y="126.9865"
   id="rect3164"
   style="fill:#ffffff;fill-opacity:1;stroke:#f0f0f0;stroke-width:3.17466259;stroke-miterlimit:4;stroke-opacity:1;stroke-dasharray:none" /><rect
   width="31.746626"
   height="158.73312"
   x="126.9865"
   y="63.493252"
   id="rect3154"
   style="fill:#ffffff;fill-opacity:1;stroke:#f0f0f0;stroke-width:3.17466259;stroke-miterlimit:4;stroke-opacity:1;stroke-dasharray:none" /><rect
   width="31.746626"
   height="158.73312"
   x="222.22636"
   y="63.493252"
   id="rect3158"
   style="fill:#ffffff;fill-opacity:1;stroke:#f0f0f0;stroke-width:3.17466259;stroke-miterlimit:4;stroke-opacity:1;stroke-dasharray:none" /><path
   d="m 349.21285,174.60643 c 0,8.76659 -7.10672,15.87331 -15.87331,15.87331 -8.76659,0 -15.87331,-7.10672 -15.87331,-15.87331 0,-8.76659 7.10672,-15.87331 15.87331,-15.87331 8.76659,0 15.87331,7.10673 15.87331,15.87331 z m 31.74663,0 c 0,26.29976 -21.32017,47.61993 -47.61994,47.61993 -26.29976,0 -47.61994,-21.32017 -47.61994,-47.61993 0,-26.29977 21.32018,-47.61994 47.61994,-47.61994 26.29978,0 47.61994,21.32018 47.61994,47.61994 z"
   id="path3162"
   style="fill:#ffffff;fill-opacity:1;fill-rule:evenodd;stroke:#f0f0f0;stroke-width:3.17466259;stroke-miterlimit:4;stroke-opacity:1" /></svg>