<?xml version="1.0" encoding="UTF-8" standalone="no"?>
<!-- Created with Inkscape (http://www.inkscape.org/) -->
<svg
   xmlns:svg="http://www.w3.org/2000/svg"
   xmlns="http://www.w3.org/2000/svg"
   version="1.0"
   width="18"
   height="18"
   id="svg2">
  <defs
     id="defs5" />
  <path
     d="M 18.095238 8.7380953 A 9.0476189 8.7857141 0 1 1  0,8.7380953 A 9.0476189 8.7857141 0 1 1  18.095238 8.7380953 z"
     transform="matrix(0.951892,4.874094e-3,0,0.972139,0.411454,0.413643)"
     style="fill:#c3c8e1;fill-opacity:1;stroke:#000000;stroke-width:0.69233489;stroke-miterlimit:4;stroke-dasharray:none;stroke-opacity:1"
     id="path1877" />
  <path
     d="M 7,17 L 7,15 L 11,15 L 11,17"
     style="fill:none;fill-opacity:0.75;fill-rule:evenodd;stroke:#000000;stroke-width:1px;stroke-linecap:butt;stroke-linejoin:miter;stroke-opacity:1"
     id="path2768" />
  <path
     d="M 9.1428576 3.4523809 A 0.5 0.45238096 0 1 1  8.1428576,3.4523809 A 0.5 0.45238096 0 1 1  9.1428576 3.4523809 z"
     transform="translate(0.307142,-0.354762)"
     style="fill:#bbd4c9;fill-opacity:1;stroke:#000000;stroke-width:0.89999998;stroke-miterlimit:4;stroke-dasharray:none;stroke-opacity:1"
     id="path2770" />
  <path
     d="M 9.1428576 3.4523809 A 0.5 0.45238096 0 1 1  8.1428576,3.4523809 A 0.5 0.45238096 0 1 1  9.1428576 3.4523809 z"
     transform="translate(6.407142,5.45)"
     style="fill:#bbd4c9;fill-opacity:1;stroke:#000000;stroke-width:0.89999998;stroke-miterlimit:4;stroke-dasharray:none;stroke-opacity:1"
     id="path2772" />
  <path
     d="M 9.1428576 3.4523809 A 0.5 0.45238096 0 1 1  8.1428576,3.4523809 A 0.5 0.45238096 0 1 1  9.1428576 3.4523809 z"
     transform="translate(-5.592858,5.45)"
     style="fill:#bbd4c9;fill-opacity:1;stroke:#000000;stroke-width:0.89999998;stroke-miterlimit:4;stroke-dasharray:none;stroke-opacity:1"
     id="path2774" />
  <path
     d="M 9.1428576 3.4523809 A 0.5 0.45238096 0 1 1  8.1428576,3.4523809 A 0.5 0.45238096 0 1 1  9.1428576 3.4523809 z"
     transform="translate(6.407142,5.45)"
     style="fill:#bbd4c9;fill-opacity:1;stroke:#000000;stroke-width:0.89999998;stroke-miterlimit:4;stroke-dasharray:none;stroke-opacity:1"
     id="path2776" />
  <path
     d="M 9.1428576 3.4523809 A 0.5 0.45238096 0 1 1  8.1428576,3.4523809 A 0.5 0.45238096 0 1 1  9.1428576 3.4523809 z"
     transform="translate(-3.692858,1.645238)"
     style="fill:#bbd4c9;fill-opacity:1;stroke:#000000;stroke-width:0.89999998;stroke-miterlimit:4;stroke-dasharray:none;stroke-opacity:1"
     id="path2778" />
  <path
     d="M 9.1428576 3.4523809 A 0.5 0.45238096 0 1 1  8.1428576,3.4523809 A 0.5 0.45238096 0 1 1  9.1428576 3.4523809 z"
     transform="translate(5.307142,1.645238)"
     style="fill:#bbd4c9;fill-opacity:1;stroke:#000000;stroke-width:0.89999998;stroke-miterlimit:4;stroke-dasharray:none;stroke-opacity:1"
     id="path2780" />
</svg>
