<?xml version="1.0" encoding="UTF-8" standalone="no"?>
<!-- Created with Inkscape (http://www.inkscape.org/) -->
<svg
   xmlns:svg="http://www.w3.org/2000/svg"
   xmlns="http://www.w3.org/2000/svg"
   version="1.0"
   width="120"
   height="120"
   viewBox="0 0 507.946 507.946"
   id="svg49"
   xml:space="preserve">
  <defs
   id="defs62" />
  
  
<path
   d="M 277.14286 315.21933 A 22.857143 22.857143 0 1 1  231.42858,315.21933 A 22.857143 22.857143 0 1 1  277.14286 315.21933 z"
   transform="matrix(0.4000699,0,0,0.4940512,103.8531,46.166134)"
   style="fill:#ff0000;fill-rule:evenodd;stroke:#000000;stroke-width:1px;stroke-linecap:butt;stroke-linejoin:miter;stroke-opacity:1"
   id="path2168" /><rect
   width="16.002796"
   height="278.08023"
   x="131.50079"
   y="110.95992"
   style="fill:#000000;fill-rule:evenodd;stroke:#000000;stroke-width:4.25404787;stroke-linecap:round;stroke-linejoin:round;stroke-miterlimit:4;stroke-dasharray:none;stroke-opacity:1"
   id="rect2160" /><rect
   width="7.9199109"
   height="278.22656"
   x="173.39888"
   y="110.88678"
   style="fill:#000000;fill-rule:evenodd;stroke:#000000;stroke-width:0.3128458px;stroke-linecap:butt;stroke-linejoin:miter;stroke-opacity:1"
   id="rect2164" /><path
   d="M 277.14286 315.21933 A 22.857143 22.857143 0 1 1  231.42858,315.21933 A 22.857143 22.857143 0 1 1  277.14286 315.21933 z"
   transform="matrix(0.4000699,0,0,0.4940512,103.85309,146.38815)"
   style="fill:#ff0000;fill-rule:evenodd;stroke:#000000;stroke-width:1px;stroke-linecap:butt;stroke-linejoin:miter;stroke-opacity:1"
   id="path2170" /><path
   d="M 277.14286 315.21933 A 22.857143 22.857143 0 1 1  231.42858,315.21933 A 22.857143 22.857143 0 1 1  277.14286 315.21933 z"
   transform="matrix(-0.4000699,0,0,0.4940512,404.08114,46.166134)"
   style="fill:#ff0000;fill-rule:evenodd;stroke:#000000;stroke-width:1px;stroke-linecap:butt;stroke-linejoin:miter;stroke-opacity:1"
   id="path2291" /><rect
   width="16.002796"
   height="278.08023"
   x="-376.43347"
   y="110.95992"
   transform="scale(-1,1)"
   style="fill:#000000;fill-rule:evenodd;stroke:#000000;stroke-width:0.44458407px;stroke-linecap:butt;stroke-linejoin:miter;stroke-opacity:1"
   id="rect2293" /><rect
   width="7.9199109"
   height="278.22656"
   x="-334.53537"
   y="110.88678"
   transform="scale(-1,1)"
   style="fill:#000000;fill-rule:evenodd;stroke:#000000;stroke-width:4.23288345;stroke-linecap:round;stroke-linejoin:round;stroke-miterlimit:4;stroke-dasharray:none;stroke-opacity:1"
   id="rect2295" /><path
   d="M 277.14286 315.21933 A 22.857143 22.857143 0 1 1  231.42858,315.21933 A 22.857143 22.857143 0 1 1  277.14286 315.21933 z"
   transform="matrix(-0.4000699,0,0,0.4940512,404.08115,146.38815)"
   style="fill:#ff0000;fill-rule:evenodd;stroke:#000000;stroke-width:1px;stroke-linecap:butt;stroke-linejoin:miter;stroke-opacity:1"
   id="path2297" /></svg>