<svg xmlns="http://www.w3.org/2000/svg" width="62" height="49" fill="none"><path fill="#000" fill-rule="evenodd" d="M11.103 4.62751 61.997 0v2.36529h.0011V28.4865c.0013.04.0019.0802.0019.1209 0 3.2577-4.0352 6.4044-7.8853 6.4044-2.9986 0-4.1462-1.7769-4.1462-3.3688 0-3.4058 4.2943-6.4415 7.8853-6.4415 1.2997 0 2.457.3918 3.2164 1.1283V11.6721l-15.7281 1.4301v20.0156c.0012.0387.0018.0777.0018.1171 0 3.2577-4.0352 6.4044-7.8853 6.4044-2.9986 0-4.1462-1.7769-4.1462-3.3688 0-3.4058 4.2943-6.4415 7.8852-6.4415 1.2999 0 2.4573.3918 3.2166 1.1284V13.1865l-15.7281 1.4301V37.758c.0009.0345.0014.0693.0014.1044 0 3.2578-4.0352 6.4045-7.8853 6.4045-2.9986 0-4.1462-1.777-4.1462-3.3689 0-3.4058 4.2943-6.4415 7.8853-6.4415 1.3 0 2.4576.392 3.2169 1.1288V14.701l-15.7286 1.4301V42.369c.0013.0399.0019.0803.0019.1209 0 3.2578-4.03517 6.4045-7.88525 6.4045C1.14762 48.8944 0 47.1174 0 45.5255c0-3.4058 4.29433-6.4414 7.88527-6.4414 1.29978 0 2.45713.3917 3.21643 1.1282V6.90885h.0013V4.62751Zm.9266 6.85699 49.0406-4.45894V4.73082L12.0296 9.1898v2.2947Z" clip-rule="evenodd"/></svg>
