<?xml version="1.0" encoding="UTF-8" standalone="no"?>
<svg width="1488.19px" height="510.235px" viewBox="0 0 1488.19 510.235"
 xmlns="http://www.w3.org/2000/svg" xmlns:xlink="http://www.w3.org/1999/xlink" version="1.2" baseProfile="tiny">
<title>example (2)</title>
<desc>Generated by MuseScore 4.1.0</desc>
<path class="" fill="#ffffff" fill-rule="evenodd" d="M0,0 L1488.19,0 L1488.19,510.235 L0,510.235 L0,0 "/>
<polyline class="StaffLines" fill="none" stroke="#000000" stroke-width="2.73" stroke-linejoin="bevel" points="77.9526,78.2284 1410.24,78.2284"/>
<polyline class="StaffLines" fill="none" stroke="#000000" stroke-width="2.73" stroke-linejoin="bevel" points="77.9526,103.032 1410.24,103.032"/>
<polyline class="StaffLines" fill="none" stroke="#000000" stroke-width="2.73" stroke-linejoin="bevel" points="77.9526,127.835 1410.24,127.835"/>
<polyline class="StaffLines" fill="none" stroke="#000000" stroke-width="2.73" stroke-linejoin="bevel" points="77.9526,152.638 1410.24,152.638"/>
<polyline class="StaffLines" fill="none" stroke="#000000" stroke-width="2.73" stroke-linejoin="bevel" points="77.9526,177.441 1410.24,177.441"/>
<polyline class="StaffLines" fill="none" stroke="#000000" stroke-width="2.73" stroke-linejoin="bevel" points="77.9526,338.661 1410.24,338.661"/>
<polyline class="StaffLines" fill="none" stroke="#000000" stroke-width="2.73" stroke-linejoin="bevel" points="77.9526,363.465 1410.24,363.465"/>
<polyline class="StaffLines" fill="none" stroke="#000000" stroke-width="2.73" stroke-linejoin="bevel" points="77.9526,388.268 1410.24,388.268"/>
<polyline class="StaffLines" fill="none" stroke="#000000" stroke-width="2.73" stroke-linejoin="bevel" points="77.9526,413.071 1410.24,413.071"/>
<polyline class="StaffLines" fill="none" stroke="#000000" stroke-width="2.73" stroke-linejoin="bevel" points="77.9526,437.874 1410.24,437.874"/>
<polyline class="BarLine" fill="none" stroke="#000000" stroke-width="4.46" stroke-linejoin="bevel" points="80.1849,76.8642 80.1849,338.661"/>
<polyline class="BarLine" fill="none" stroke="#000000" stroke-width="4.46" stroke-linejoin="bevel" points="1408,76.8642 1408,338.661"/>
<polyline class="BarLine" fill="none" stroke="#000000" stroke-width="4.46" stroke-linejoin="bevel" points="858.406,76.8642 858.406,338.661"/>
<polyline class="BarLine" fill="none" stroke="#000000" stroke-width="4.46" stroke-linejoin="bevel" points="80.1849,337.297 80.1849,439.238"/>
<polyline class="BarLine" fill="none" stroke="#000000" stroke-width="4.46" stroke-linejoin="bevel" points="1408,337.297 1408,439.238"/>
<polyline class="BarLine" fill="none" stroke="#000000" stroke-width="4.46" stroke-linejoin="bevel" points="858.406,337.297 858.406,439.238"/>
<path class="Accidental" transform="matrix(0.992126,0,0,0.992126,589.432,177.441)" d="M12,-15.5 C7,-15.5 4.09375,-12.4063 3.59375,-11.7969 L4,-43.9063 C4,-44.7031 3.40625,-45.2969 2.59375,-45.2969 L1.40625,-45.2969 C0.59375,-45.2969 0,-44.7031 0,-43.9063 L0.5,16.2031 C0.5,17 1.09375,17.5938 1.90625,17.5938 C2.09375,17.5938 2.5,17.5 2.70313,17.4063 C11.2969,13.0938 20.2969,4.90625 20.2969,-5.40625 C20.2969,-10.5938 17.9063,-15.5 12,-15.5 M3.29688,12.7031 L3.59375,-6.79688 C3.79688,-7.70313 5.29688,-10.5938 9.29688,-10.5938 C12.9063,-10.5938 13.2031,-7.20313 13.2031,-5.09375 C13.2031,3.79688 9.90625,7.5 3.29688,12.7031"/>
<path class="Accidental" transform="matrix(0.992126,0,0,0.992126,1032.5,289.055)" d="M16.5938,-18.2969 C16.4063,-18.5 16.0938,-18.5938 15.7031,-18.5938 L15.5,-18.5 C15.5,-18.5 15.4063,-18.5 15.4063,-18.5 L2.79688,-15 L2.79688,-32.5 L0,-32.5 L0,17 C0,18.0938 0.90625,18.2969 1.79688,18.2969 L14.4063,14.7969 L14.4063,32.2969 L17.0938,32.2969 C17.0938,15.7031 17.0938,-0.09375 17.0938,-17.2031 C17.0938,-17.5938 16.9063,-18.0938 16.5938,-18.2969 M2.79688,9.70313 L2.79688,-6.70313 L14.4063,-10 L14.4063,6.5 L2.79688,9.70313 "/>
<polyline class="LedgerLine" fill="none" stroke="#000000" stroke-width="3.97" stroke-linejoin="bevel" points="436.621,313.858 485.228,313.858"/>
<polyline class="LedgerLine" fill="none" stroke="#000000" stroke-width="3.97" stroke-linejoin="bevel" points="1312.11,289.055 1360.71,289.055"/>
<polyline class="LedgerLine" fill="none" stroke="#000000" stroke-width="3.97" stroke-linejoin="bevel" points="1312.11,313.858 1360.71,313.858"/>
<polyline class="LedgerLine" fill="none" stroke="#000000" stroke-width="3.97" stroke-linejoin="bevel" points="1055.66,289.055 1104.27,289.055"/>
<polyline class="LedgerLine" fill="none" stroke="#000000" stroke-width="3.97" stroke-linejoin="bevel" points="721.56,313.858 770.167,313.858"/>
<polyline class="LedgerLine" fill="none" stroke="#000000" stroke-width="3.97" stroke-linejoin="bevel" points="1055.66,313.858 1104.27,313.858"/>
<polyline class="Stem" fill="none" stroke="#000000" stroke-width="2.48" stroke-linejoin="bevel" points="817.729,136.268 817.729,59.6704"/>
<polyline class="Stem" fill="none" stroke="#000000" stroke-width="2.48" stroke-linejoin="bevel" points="646.766,173.472 646.766,65.7825"/>
<polyline class="Stem" fill="none" stroke="#000000" stroke-width="2.48" stroke-linejoin="bevel" points="703.754,161.071 703.754,63.7451"/>
<polyline class="Stem" fill="none" stroke="#000000" stroke-width="2.48" stroke-linejoin="bevel" points="760.741,148.669 760.741,61.7077"/>
<polyline class="Stem" fill="none" stroke="#000000" stroke-width="2.48" stroke-linejoin="bevel" points="304.839,148.669 304.839,65.8268"/>
<polyline class="Stem" fill="none" stroke="#000000" stroke-width="2.48" stroke-linejoin="bevel" points="475.803,161.071 475.803,78.2284"/>
<polyline class="Stem" fill="none" stroke="#000000" stroke-width="2.48" stroke-linejoin="bevel" points="894.123,132.002 894.123,202.244"/>
<polyline class="Stem" fill="none" stroke="#000000" stroke-width="2.48" stroke-linejoin="bevel" points="275.083,417.238 275.083,474.904"/>
<polyline class="Stem" fill="none" stroke="#000000" stroke-width="2.48" stroke-linejoin="bevel" points="1150.57,404.836 1150.57,468.703"/>
<polyline class="Stem" fill="none" stroke="#000000" stroke-width="2.48" stroke-linejoin="bevel" points="617.01,367.632 617.01,437.808"/>
<polyline class="Stem" fill="none" stroke="#000000" stroke-width="2.48" stroke-linejoin="bevel" points="730.985,305.624 730.985,431.739"/>
<polyline class="Stem" fill="none" stroke="#000000" stroke-width="2.48" stroke-linejoin="bevel" points="894.123,404.836 894.123,468.703"/>
<polyline class="Stem" fill="none" stroke="#000000" stroke-width="2.48" stroke-linejoin="bevel" points="531.528,417.238 531.528,474.904"/>
<polyline class="Stem" fill="none" stroke="#000000" stroke-width="2.48" stroke-linejoin="bevel" points="979.604,355.23 979.604,456.651"/>
<polyline class="Stem" fill="none" stroke="#000000" stroke-width="2.48" stroke-linejoin="bevel" points="1065.09,293.222 1065.09,456.651"/>
<polyline class="Stem" fill="none" stroke="#000000" stroke-width="2.48" stroke-linejoin="bevel" points="360.565,367.632 360.565,462.852"/>
<polyline class="Stem" fill="none" stroke="#000000" stroke-width="2.48" stroke-linejoin="bevel" points="1321.53,293.222 1321.53,407.045"/>
<polyline class="Stem" fill="none" stroke="#000000" stroke-width="2.48" stroke-linejoin="bevel" points="1236.05,355.23 1236.05,419.097"/>
<polyline class="Stem" fill="none" stroke="#000000" stroke-width="2.48" stroke-linejoin="bevel" points="446.047,305.624 446.047,462.852"/>
<path class="Note" transform="matrix(0.992126,0,0,0.992126,729.745,152.638)" d="M0,4.20313 C0,8.5 3.09375,13.2969 11.2031,13.2969 C21.5938,13.2969 32.5,4.79688 32.5,-4 C32.5,-9.90625 27.5,-13.2031 21.2969,-13.2031 C11.5938,-13.2031 0,-5 0,4.20313"/>
<path class="Note" transform="matrix(0.992126,0,0,0.992126,672.757,165.039)" d="M0,4.20313 C0,8.5 3.09375,13.2969 11.2031,13.2969 C21.5938,13.2969 32.5,4.79688 32.5,-4 C32.5,-9.90625 27.5,-13.2031 21.2969,-13.2031 C11.5938,-13.2031 0,-5 0,4.20313"/>
<path class="Note" transform="matrix(0.992126,0,0,0.992126,892.883,127.835)" d="M21.2969,-13.2031 C11.5938,-13.2031 0,-5.09375 0,4.20313 C0,8.5 3.09375,13.2969 11.2031,13.2969 C21.5938,13.2969 32.5,4.79688 32.5,-4 C32.5,-9.90625 27.5,-13.2031 21.2969,-13.2031 M7.5,8.59375 C4.20313,8.59375 3.5,5.90625 3.5,5 C3.5,0.09375 20.2969,-8.5 25,-8.5 C27.4063,-8.5 29,-7.09375 29,-4.90625 C29,0.09375 12.0938,8.59375 7.5,8.59375"/>
<path class="Note" transform="matrix(0.992126,0,0,0.992126,273.843,152.638)" d="M0,4.20313 C0,8.5 3.09375,13.2969 11.2031,13.2969 C21.5938,13.2969 32.5,4.79688 32.5,-4 C32.5,-9.90625 27.5,-13.2031 21.2969,-13.2031 C11.5938,-13.2031 0,-5 0,4.20313"/>
<path class="Note" transform="matrix(0.992126,0,0,0.992126,444.806,165.039)" d="M0,4.20313 C0,8.5 3.09375,13.2969 11.2031,13.2969 C21.5938,13.2969 32.5,4.79688 32.5,-4 C32.5,-9.90625 27.5,-13.2031 21.2969,-13.2031 C11.5938,-13.2031 0,-5 0,4.20313"/>
<path class="Note" transform="matrix(0.992126,0,0,0.992126,615.77,177.441)" d="M0,4.20313 C0,8.5 3.09375,13.2969 11.2031,13.2969 C21.5938,13.2969 32.5,4.79688 32.5,-4 C32.5,-9.90625 27.5,-13.2031 21.2969,-13.2031 C11.5938,-13.2031 0,-5 0,4.20313"/>
<path class="Note" transform="matrix(0.992126,0,0,0.992126,786.733,140.236)" d="M0,4.20313 C0,8.5 3.09375,13.2969 11.2031,13.2969 C21.5938,13.2969 32.5,4.79688 32.5,-4 C32.5,-9.90625 27.5,-13.2031 21.2969,-13.2031 C11.5938,-13.2031 0,-5 0,4.20313"/>
<path class="Note" transform="matrix(0.992126,0,0,0.992126,273.843,413.071)" d="M0,4.20313 C0,8.5 3.09375,13.2969 11.2031,13.2969 C21.5938,13.2969 32.5,4.79688 32.5,-4 C32.5,-9.90625 27.5,-13.2031 21.2969,-13.2031 C11.5938,-13.2031 0,-5 0,4.20313"/>
<path class="Note" transform="matrix(0.992126,0,0,0.992126,978.364,351.063)" d="M0,4.20313 C0,8.5 3.09375,13.2969 11.2031,13.2969 C21.5938,13.2969 32.5,4.79688 32.5,-4 C32.5,-9.90625 27.5,-13.2031 21.2969,-13.2031 C11.5938,-13.2031 0,-5 0,4.20313"/>
<path class="Note" transform="matrix(0.992126,0,0,0.992126,892.883,400.669)" d="M0,4.20313 C0,8.5 3.09375,13.2969 11.2031,13.2969 C21.5938,13.2969 32.5,4.79688 32.5,-4 C32.5,-9.90625 27.5,-13.2031 21.2969,-13.2031 C11.5938,-13.2031 0,-5 0,4.20313"/>
<path class="Note" transform="matrix(0.992126,0,0,0.992126,1063.85,289.055)" d="M0,4.20313 C0,8.5 3.09375,13.2969 11.2031,13.2969 C21.5938,13.2969 32.5,4.79688 32.5,-4 C32.5,-9.90625 27.5,-13.2031 21.2969,-13.2031 C11.5938,-13.2031 0,-5 0,4.20313"/>
<path class="Note" transform="matrix(0.992126,0,0,0.992126,729.745,301.457)" d="M0,4.20313 C0,8.5 3.09375,13.2969 11.2031,13.2969 C21.5938,13.2969 32.5,4.79688 32.5,-4 C32.5,-9.90625 27.5,-13.2031 21.2969,-13.2031 C11.5938,-13.2031 0,-5 0,4.20313"/>
<path class="Note" transform="matrix(0.992126,0,0,0.992126,1149.33,400.669)" d="M0,4.20313 C0,8.5 3.09375,13.2969 11.2031,13.2969 C21.5938,13.2969 32.5,4.79688 32.5,-4 C32.5,-9.90625 27.5,-13.2031 21.2969,-13.2031 C11.5938,-13.2031 0,-5 0,4.20313"/>
<path class="Note" transform="matrix(0.992126,0,0,0.992126,1234.81,351.063)" d="M0,4.20313 C0,8.5 3.09375,13.2969 11.2031,13.2969 C21.5938,13.2969 32.5,4.79688 32.5,-4 C32.5,-9.90625 27.5,-13.2031 21.2969,-13.2031 C11.5938,-13.2031 0,-5 0,4.20313"/>
<path class="Note" transform="matrix(0.992126,0,0,0.992126,359.325,363.465)" d="M0,4.20313 C0,8.5 3.09375,13.2969 11.2031,13.2969 C21.5938,13.2969 32.5,4.79688 32.5,-4 C32.5,-9.90625 27.5,-13.2031 21.2969,-13.2031 C11.5938,-13.2031 0,-5 0,4.20313"/>
<path class="Note" transform="matrix(0.992126,0,0,0.992126,530.288,413.071)" d="M0,4.20313 C0,8.5 3.09375,13.2969 11.2031,13.2969 C21.5938,13.2969 32.5,4.79688 32.5,-4 C32.5,-9.90625 27.5,-13.2031 21.2969,-13.2031 C11.5938,-13.2031 0,-5 0,4.20313"/>
<path class="Note" transform="matrix(0.992126,0,0,0.992126,615.77,363.465)" d="M0,4.20313 C0,8.5 3.09375,13.2969 11.2031,13.2969 C21.5938,13.2969 32.5,4.79688 32.5,-4 C32.5,-9.90625 27.5,-13.2031 21.2969,-13.2031 C11.5938,-13.2031 0,-5 0,4.20313"/>
<path class="Note" transform="matrix(0.992126,0,0,0.992126,1320.29,289.055)" d="M0,4.20313 C0,8.5 3.09375,13.2969 11.2031,13.2969 C21.5938,13.2969 32.5,4.79688 32.5,-4 C32.5,-9.90625 27.5,-13.2031 21.2969,-13.2031 C11.5938,-13.2031 0,-5 0,4.20313"/>
<path class="Note" transform="matrix(0.992126,0,0,0.992126,444.806,301.457)" d="M0,4.20313 C0,8.5 3.09375,13.2969 11.2031,13.2969 C21.5938,13.2969 32.5,4.79688 32.5,-4 C32.5,-9.90625 27.5,-13.2031 21.2969,-13.2031 C11.5938,-13.2031 0,-5 0,4.20313"/>
<path class="Clef" transform="matrix(0.992126,0,0,0.992126,101.02,152.638)" d="M12.2969,51.2969 C12.2969,57.9063 17.2969,66.6094 30.7969,66.6094 C35.5,66.6094 39.6094,65.4063 43.2031,63.2031 C48.6094,59.4063 50,52.7969 50,46.5 C50,42.6094 49.4063,38.1094 48.4063,32.4063 C48.1094,30.4063 47.5,27.4063 46.9063,23.5 C56.7031,20.2969 64,10.0938 64,-0.203125 C64,-15.2969 53.2969,-25.5 38.7031,-25.5 C37.7031,-31.5 36.7031,-37.4063 35.9063,-43 C46.4063,-54.1094 53.7031,-66.6094 53.7031,-82.5 C53.7031,-91.6094 50.9063,-99 49.2969,-102.609 C46.9063,-107.703 44,-111.203 42.2031,-111.203 C41.5,-111.203 38.4063,-110 35.1094,-106.109 C28.7031,-98.5 26.9063,-85.7031 26.9063,-77.3125 C26.9063,-71.9063 27.4063,-67 29.1094,-55.7969 C29,-55.7031 23.7969,-50.4063 21.7031,-48.7031 C12.5938,-40.2969 0,-28.1094 0,-8.09375 C0,10.5938 16.2969,25.2969 34.9063,25.2969 C37.7969,25.2969 40.5,25 42.7969,24.5938 C44.7031,34.2031 45.9063,41.2031 45.9063,46.5 C45.9063,56.9063 40.5,62.4063 30.4063,62.4063 C28,62.4063 25.9063,61.9063 25.7031,61.9063 C25.6094,61.7969 25.4063,61.7031 25.4063,61.6094 C25.4063,61.4063 25.6094,61.2969 25.9063,61.2969 C30.6094,60.5 35.2969,56.5 35.2969,50.1094 C35.2969,44.7031 31.2031,39 23.7031,39 C16.7031,39 12.2969,44.7031 12.2969,51.2969 M33.2031,-82.2031 C34.1094,-86.2031 38.7031,-96.7031 43.9063,-96.7031 C45.4063,-96.7031 47.7969,-91.9063 47.7969,-84.9063 C47.7969,-74.5 40.1094,-66.7031 33.2031,-59.9063 C32.6094,-63.9063 32.1094,-67.7969 32.1094,-72 C32.1094,-75.7031 32.4063,-79.1094 33.2031,-82.2031 M42,20.5938 C40,21 38.1094,21.2031 36.2031,21.2031 C21.9063,21.2031 9.70313,11.2031 9.70313,-3.90625 C9.70313,-16.0938 18.2969,-27 27.1094,-34.6094 C28.7969,-36.1094 30.4063,-37.5 31.9063,-39 C32.7969,-33.6094 33.5,-28.9063 34.2031,-24.7969 C25.0938,-22.0938 18.9063,-12.5 18.9063,-3.09375 C18.9063,3.90625 24.4063,13.5 32.4063,13.5 C33.2031,13.5 34.1094,13.0938 34.1094,12.2031 C34.1094,11.2969 33.1094,10.7969 31.9063,10 C28,7.59375 25.7969,5 25.7969,0.09375 C25.7969,-6 30.4063,-10.9063 36.2031,-12.2969 L42,20.5938 M56.2031,2.09375 C56.2031,9.20313 53.2969,16.5 46.2031,19.4063 C44.1094,7.40625 41.4063,-8.5 40.7031,-12.9063 C49.7031,-12.9063 56.2031,-6.79688 56.2031,2.09375"/>
<path class="Clef" transform="matrix(0.992126,0,0,0.992126,101.02,363.465)" d="M25.4063,-25.0938 C17.7969,-25.0938 11.7031,-20.7031 11.5938,-20.7031 C5.70313,-16.4063 1.90625,-9.79688 1.90625,-2.5 C1.90625,4.79688 6.09375,10.2031 13.5,10.2031 C19.9063,10.2031 24.9063,5.90625 24.9063,-0.703125 C24.9063,-6.40625 19.9063,-11.0938 14.2969,-11.0938 C13.0938,-11.0938 12,-10.9063 11.0938,-10.5938 C10.0938,-10.2031 8.40625,-9.20313 7.59375,-8.5 C8.29688,-12.9063 11.2969,-17.2969 15.2031,-19.4063 C17.7031,-20.7969 20.9063,-21.4063 24.4063,-21.4063 C34.6094,-21.4063 39.6094,-13.2031 39.6094,3.59375 C39.6094,16.5938 31.2969,35.2969 21.5,44.1094 C11.0938,53.6094 1.29688,58.1094 1.20313,58.1094 C1.20313,58.1094 0,58.7969 0,60 C0,60.2031 0.09375,60.2969 0.09375,60.5 C0.40625,61.5 1.29688,61.7031 2,61.7031 L2.29688,61.6094 C2.5,61.6094 13.9063,56.9063 23,49.7969 C37,39.7031 52.7969,21.9063 52.7969,3.5 C52.7969,-13.9063 43.4063,-25.0938 25.4063,-25.0938 M56.7969,-12.4063 C56.7969,-9.59375 59,-7.40625 61.6094,-7.40625 C64.2031,-7.40625 66.4063,-9.59375 66.4063,-12.4063 C66.4063,-15.2031 64.2031,-17.5 61.6094,-17.5 C59,-17.5 56.7969,-15.2031 56.7969,-12.4063 M56.7969,12.2969 C56.7969,15.0938 59,17.4063 61.6094,17.4063 C64.2031,17.4063 66.4063,15.0938 66.4063,12.2969 C66.4063,9.5 64.2031,7.20313 61.6094,7.20313 C59,7.20313 56.7969,9.5 56.7969,12.2969"/>
<path class="KeySig" transform="matrix(0.992126,0,0,0.992126,191.698,127.835)" d="M12,-15.5 C7,-15.5 4.09375,-12.4063 3.59375,-11.7969 L4,-43.9063 C4,-44.7031 3.40625,-45.2969 2.59375,-45.2969 L1.40625,-45.2969 C0.59375,-45.2969 0,-44.7031 0,-43.9063 L0.5,16.2031 C0.5,17 1.09375,17.5938 1.90625,17.5938 C2.09375,17.5938 2.5,17.5 2.70313,17.4063 C11.2969,13.0938 20.2969,4.90625 20.2969,-5.40625 C20.2969,-10.5938 17.9063,-15.5 12,-15.5 M3.29688,12.7031 L3.59375,-6.79688 C3.79688,-7.70313 5.29688,-10.5938 9.29688,-10.5938 C12.9063,-10.5938 13.2031,-7.20313 13.2031,-5.09375 C13.2031,3.79688 9.90625,7.5 3.29688,12.7031"/>
<path class="KeySig" transform="matrix(0.992126,0,0,0.992126,191.698,413.071)" d="M12,-15.5 C7,-15.5 4.09375,-12.4063 3.59375,-11.7969 L4,-43.9063 C4,-44.7031 3.40625,-45.2969 2.59375,-45.2969 L1.40625,-45.2969 C0.59375,-45.2969 0,-44.7031 0,-43.9063 L0.5,16.2031 C0.5,17 1.09375,17.5938 1.90625,17.5938 C2.09375,17.5938 2.5,17.5 2.70313,17.4063 C11.2969,13.0938 20.2969,4.90625 20.2969,-5.40625 C20.2969,-10.5938 17.9063,-15.5 12,-15.5 M3.29688,12.7031 L3.59375,-6.79688 C3.79688,-7.70313 5.29688,-10.5938 9.29688,-10.5938 C12.9063,-10.5938 13.2031,-7.20313 13.2031,-5.09375 C13.2031,3.79688 9.90625,7.5 3.29688,12.7031"/>
<path class="Beam" fill-rule="evenodd" d="M645.526,59.6221 L818.969,53.4213 L818.969,65.8308 L645.526,72.0316 L645.526,59.6221 "/>
<path class="Beam" fill-rule="evenodd" d="M645.526,78.2244 L818.969,72.0236 L818.969,84.4331 L645.526,90.6339 L645.526,78.2244 "/>
<path class="Beam" fill-rule="evenodd" d="M273.843,468.817 L361.805,456.415 L361.805,468.939 L273.843,481.341 L273.843,468.817 "/>
<path class="Beam" fill-rule="evenodd" d="M615.77,431.664 L732.226,425.464 L732.226,437.883 L615.77,444.084 L615.77,431.664 "/>
<path class="Beam" fill-rule="evenodd" d="M892.883,462.616 L980.845,450.214 L980.845,462.739 L892.883,475.14 L892.883,462.616 "/>
<path class="Beam" fill-rule="evenodd" d="M1063.85,450.214 L1151.81,462.616 L1151.81,475.14 L1063.85,462.739 L1063.85,450.214 "/>
<path class="Beam" fill-rule="evenodd" d="M1234.81,413.01 L1322.77,400.608 L1322.77,413.132 L1234.81,425.534 L1234.81,413.01 "/>
<path class="Beam" fill-rule="evenodd" d="M444.806,456.415 L532.768,468.817 L532.768,481.341 L444.806,468.939 L444.806,456.415 "/>
<path class="NoteDot" transform="matrix(0.992126,0,0,0.992126,937.521,115.433)" d="M0,0 C0,2.79688 2.20313,5 5,5 C7.79688,5 10,2.79688 10,0 C10,-2.79688 7.79688,-5 5,-5 C2.20313,-5 0,-2.79688 0,0"/>
<path class="Bracket" transform="matrix(3.59646,0,0,3.59646,46.6251,437.874)" d="M0.90625,-50 C2.70313,-51.9063 6.20313,-55.7969 6.20313,-63 C6.20313,-72.1094 2.29688,-81.3125 2.29688,-87 C2.29688,-93.1094 5.79688,-98.8125 6,-99 C6,-99.1094 6,-99.1094 6,-99.2031 C6,-99.3125 6,-99.4063 5.90625,-99.5 C5.79688,-99.5 5.59375,-99.5 5.5,-99.3125 C5.40625,-99.2031 0,-93.8125 0,-85.6094 C0,-76.8125 3.5,-70.6094 3.5,-59.1094 C3.5,-56.9063 2.59375,-53.4063 0.09375,-50.2969 C0,-50.2969 0,-50.1094 -0.09375,-50 C-0.09375,-49.9063 0,-49.7969 0.09375,-49.7031 C2.59375,-46.6094 3.5,-43.1094 3.5,-40.9063 C3.5,-29.4063 0,-23.2031 0,-14.4063 C0,-6.29688 5.40625,-0.796875 5.5,-0.703125 C5.59375,-0.5 5.79688,-0.40625 5.90625,-0.5 C6,-0.59375 6.09375,-0.703125 6,-0.796875 C6,-0.796875 6,-0.90625 6,-1 C5.79688,-1.20313 2.29688,-6.90625 2.29688,-13 C2.29688,-18.7031 6.20313,-27.9063 6.20313,-37 C6.20313,-44.2969 2.70313,-48.1094 0.90625,-50"/>
</svg>
