<svg xmlns="http://www.w3.org/2000/svg" version="1.1" viewBox="0 0 512 512">
  <g id="crash-cymbals">
    <path fill="#f95428" d="M221.6 217.5c-21.3 0-38.5 17.2-38.5 38.5 0 10.6 4.3 20.3 11.3 27.2 7 7 16.6 11.3 27.2 11.3s20.3-4.3 27.2-11.3c7-7 11.3-16.6 11.3-27.2.1-21.3-17.2-38.5-38.5-38.5z"/>
    <path fill="#4d4d4d" opacity=".25" d="M221.6 217.5c-6.5 0-12.7 1.6-18 4.5 12.2 6.5 20.5 19.3 20.5 34 0 10.6-4.3 20.3-11.3 27.2-2.7 2.7-5.8 5-9.2 6.8 5.4 2.9 11.5 4.5 18 4.5 10.6 0 20.3-4.3 27.2-11.3 7-7 11.3-16.6 11.3-27.2.1-21.3-17.2-38.5-38.5-38.5z"/>
    <path fill="#f7b239" d="M290.4 34.4C412.8 34.4 512 133.6 512 256c0 122.4-99.2 221.6-221.6 221.6-11.7 0-23.2-.9-34.4-2.6 106.1-16.5 187.3-108.3 187.3-219S362.1 53.5 256 37c11.2-1.7 22.7-2.6 34.4-2.6z"/>
    <path fill="#4d4d4d" opacity=".25" d="M264.6 34.4c122.4 0 221.6 99.2 221.6 221.6 0 122.4-99.2 221.6-221.6 221.6-11.7 0-23.2-.9-34.4-2.6 106.1-16.5 187.3-108.3 187.3-219S336.3 53.5 230.3 37c11.1-1.7 22.6-2.6 34.3-2.6z"/>
    <path fill="#f7b239" d="M256 37c-11.2-1.8-22.7-2.7-34.4-2.7C99.2 34.4 0 133.6 0 256c0 122.4 99.2 221.6 221.6 221.6 11.7 0 23.2-.9 34.4-2.6 106.1-16.5 187.3-108.3 187.3-219S362.1 53.5 256 37zm-34.4 180.5c21.3 0 38.5 17.2 38.5 38.5 0 10.6-4.3 20.3-11.3 27.2-7 7-16.6 11.3-27.2 11.3s-20.3-4.3-27.2-11.3c-7-7-11.3-16.6-11.3-27.2 0-21.3 17.3-38.5 38.5-38.5z"/>
    <path fill="#4d4d4d" d="M221.6 386.6c-14.7 0-29.4-5.6-40.6-16.8-10.9-10.9-16.8-25.3-16.8-40.6s6-29.8 16.8-40.6l36.6-36.6c1.1-1.1 2.5-1.7 4.1-1.7s3 .6 4.1 1.7l36.6 36.6c22.4 22.4 22.4 58.9 0 81.3-11.3 11.1-26 16.7-40.8 16.7zm0-122.5l-32.5 32.5c-8.7 8.7-13.5 20.2-13.5 32.5s4.8 23.8 13.5 32.5c17.9 17.9 47.1 17.9 65.1 0s17.9-47.1 0-65.1l-32.6-32.4z"/>
  </g>
</svg>
