<svg xmlns="http://www.w3.org/2000/svg" xmlns:xlink="http://www.w3.org/1999/xlink" version="1.1" viewBox="0 0 240 240">
  <g id="musicxml-logo" fill="#444">
    <path id="less-than" d="m 0,122 60,-30 v 16 l -44,22 44,22 v 16 l -60,-30 z"/>
    <path id="g-clef" d="m 126.52346,132.41439 c -3.68673,0.75608 -7.11711,2.76515 -10.36445,6.00142 -3.27896,3.26778 -5.013,7.02447 -5.29872,11.16546 -0.1796,2.6029 0.51869,5.6162 2.00922,8.87609 1.51219,3.30726 3.86985,5.96195 7.22743,7.51242 1.04772,0.48382 1.60327,0.94276 1.54613,1.77096 -0.0204,0.29578 -0.47279,0.97937 -1.48036,0.73 -5.41509,-1.34021 -9.56517,-4.92811 -12.69148,-9.49429 -3.15258,-4.60456 -4.72085,-9.71584 -4.3003,-15.39408 0.45131,-6.09356 2.82213,-11.63806 6.68643,-16.59749 3.91494,-5.02443 8.74461,-8.43128 14.4699,-10.23546 l -2.64272,-21.283007 c -9.65476,6.941957 -17.597,14.308977 -23.93383,22.183417 -6.306334,7.83655 -10.055991,16.54073 -10.803433,26.18021 -0.334769,4.31739 0.431004,8.58459 1.803196,12.72537 1.389453,4.19287 3.595136,8.05425 6.704507,11.63704 6.21863,7.16545 14.69213,11.50513 25.30643,12.32617 3.62287,0.28024 7.53311,-0.3718 11.75763,-1.15021 z m 4.31046,-0.29696 6.11203,46.12991 c 9.38537,-3.0376 14.90259,-10.6877 15.3434,-22.89503 0.14891,-4.12366 -1.22117,-7.84935 -2.97674,-11.26095 -1.7647,-3.42934 -4.15797,-6.23074 -7.34819,-8.35289 -3.19022,-2.12216 -6.86086,-3.32644 -11.1305,-3.62104 z m -7.9116,-62.361917 c 2.03855,-1.04811 4.42107,-2.976443 7.06618,-5.69404 2.61355,-2.685173 5.22349,-5.885902 7.74659,-9.51059 2.56961,-3.691502 4.67681,-7.466923 6.32315,-11.33253 1.62438,-3.814054 2.54277,-7.49212 2.77951,-10.92321 0.10204,-1.47892 -0.007,-2.954843 -0.12122,-4.28794 -0.18332,-2.140072 -0.61235,-3.861507 -1.67743,-5.04913 -1.03751,-1.156881 -2.43564,-1.83234 -4.21466,-1.95509 -3.55804,-0.2455 -7.00995,1.64986 -10.05978,5.90356 -2.55584,3.564712 -4.58371,8.010452 -6.25954,13.00119 -1.69887,5.059353 -3.04274,10.072221 -3.31468,15.2253 -0.30976,5.869797 0.5106,10.73416 1.73188,14.62248 z m -3.97268,3.17333 c -2.00729,-9.76754 -2.96861,-19.63783 -2.42708,-29.58952 0.34799,-6.394937 1.59255,-12.306469 3.1937,-17.7895 1.59759,-5.470841 3.64216,-10.137944 6.15918,-14.13744 2.50205,-3.9757068 5.24271,-6.95423 8.23949,-8.8822099 2.67715,-1.72234652 4.43947,-2.5301731 5.59636,-2.5301731 0.77484,0 1.40281,0.39782307 1.95908,0.97115307 0.55627,0.57333003 1.33529,1.46845953 2.13313,2.76247003 6.43763,10.4411709 9.0923,22.7979099 8.12085,36.8772399 -0.46124,6.68473 -1.81954,13.123723 -4.02775,19.5151 -2.18445,6.322625 -5.13041,12.311755 -8.91513,17.8108 -3.83081,5.566009 -8.21884,10.31015 -13.20156,14.30536 l 3.19514,23.639217 c 2.62963,-0.11575 4.42498,-0.22963 5.43309,-0.16007 4.50685,0.31097 8.47398,1.53571 12.07931,3.68651 3.60532,2.15079 6.61674,4.92617 9.01677,8.34915 2.37357,3.38524 4.1792,7.17413 5.28946,11.42052 1.10547,4.22805 1.55113,8.60673 1.24092,13.10265 -0.48165,6.98051 -2.7608,13.2426 -6.83337,18.72713 -4.07257,5.48453 -9.87734,9.30414 -17.47768,11.5139 l 1.68868,12.65804 c 0.73833,5.53437 1.40203,9.90408 1.77462,13.13946 0.37259,3.23538 0.39754,6.32792 0.18937,9.34491 -0.32245,4.67342 -1.71439,8.75134 -4.24139,12.24887 -2.54538,3.52298 -5.85034,6.12334 -9.89797,7.87619 -3.41925,1.48073 -7.08115,2.21741 -10.96379,2.2111 -6.77957,-0.011 -14.31744,-2.96476 -18.69708,-6.6946 -4.648085,-3.95845 -7.076417,-9.10247 -6.68456,-15.38031 0.173976,-2.78722 1.201644,-5.32596 2.55909,-7.72872 1.357444,-2.40275 3.120052,-4.26872 5.279,-5.69847 2.14969,-1.42361 4.61649,-2.19918 7.41427,-2.10372 2.31688,0.079 4.48558,0.92835 6.45176,2.34721 1.95061,1.40763 3.49195,3.25951 4.56276,5.54539 1.05857,2.25975 1.51994,4.74109 1.34034,7.34399 -0.24082,3.49025 -1.63092,6.36624 -4.1703,8.62801 -3.93212,2.8049 -5.65049,3.29528 -10.63068,2.95168 2.06782,3.70899 5.73652,5.80474 11.01428,6.16889 2.66853,0.18412 5.44218,-0.2034 8.23848,-1.09583 2.86977,-0.91588 5.27945,-2.25103 7.36699,-4.00903 2.08754,-1.758 3.36418,-3.74111 4.21158,-5.77212 1.01379,-2.42983 1.88252,-5.69507 2.17233,-9.89521 0.19592,-2.83952 0.10082,-5.70015 -0.24243,-8.57586 -0.33635,-2.81786 -0.97399,-6.59157 -1.72326,-11.29335 l -1.70477,-10.69767 c -3.61927,0.64185 -7.32856,0.86143 -11.1831,0.59547 -6.46377,-0.44599 -12.48194,-2.1689 -18.05042,-5.22785 -5.56849,-3.05895 -10.373013,-7.06076 -14.41768,-12.10979 -4.019496,-5.01761 -7.030964,-10.58349 -9.030171,-16.79035 -1.975562,-6.13345 -2.923991,-12.50589 -2.382722,-19.0064 0.50227,-6.03214 2.190009,-11.73265 4.690613,-17.03239 2.524178,-5.3497 5.601451,-10.37187 9.31629,-14.989507 3.71484,-4.61763 7.490861,-8.84344 11.41053,-12.5269 3.91743,-3.681355 9.09634,-8.34757 15.56543,-14.02337 z" />
    <use id="greater-than" xlink:href="#less-than" transform="translate(240,0) scale(-1, 1)"/>
  </g>
 </svg>
