<svg width="16" height="17" viewBox="0 0 16 17" fill="none" xmlns="http://www.w3.org/2000/svg">
<path d="M7.64062 0.78125C7.73438 0.677083 7.85417 0.625 8 0.625C8.14583 0.625 8.26562 0.677083 8.35938 0.78125L10.5 2.90625C10.5938 3.01042 10.6406 3.13021 10.6406 3.26562C10.6406 3.40104 10.5885 3.52083 10.4844 3.625C10.3906 3.71875 10.2708 3.76562 10.125 3.76562C9.98958 3.76562 9.86979 3.71354 9.76562 3.60938L8.5 2.35938V14.4688L9.75 13.1875C9.85417 13.0938 9.97396 13.0469 10.1094 13.0469C10.2552 13.0469 10.375 13.099 10.4688 13.2031C10.5729 13.2969 10.625 13.4167 10.625 13.5625C10.625 13.6979 10.5729 13.8125 10.4688 13.9062L8.34375 16.0312C8.23958 16.125 8.11458 16.1719 7.96875 16.1719C7.83333 16.1719 7.71875 16.125 7.625 16.0312L5.5 13.9062C5.40625 13.8021 5.35938 13.6823 5.35938 13.5469C5.35938 13.4115 5.40625 13.2917 5.5 13.1875C5.60417 13.0833 5.72917 13.0312 5.875 13.0312C6.02083 13.0312 6.14583 13.0885 6.25 13.2031L7.5 14.4531V2.35938L6.25 3.60938C6.14583 3.70312 6.02604 3.75 5.89062 3.75C5.75521 3.75 5.63542 3.70312 5.53125 3.60938C5.4375 3.51562 5.39062 3.40104 5.39062 3.26562C5.39062 3.11979 5.4375 3 5.53125 2.90625L7.64062 0.78125ZM15.625 8.04688C15.7292 8.14062 15.7812 8.26042 15.7812 8.40625C15.7812 8.5625 15.7292 8.6875 15.625 8.78125L13.5 10.9062C13.3958 11 13.276 11.0469 13.1406 11.0469C13.0052 11.0469 12.8854 11 12.7812 10.9062C12.6875 10.8021 12.6406 10.6771 12.6406 10.5312C12.6406 10.3958 12.6927 10.276 12.7969 10.1719L14.0469 8.90625H1.9375L3.20312 10.1562C3.29688 10.2604 3.34375 10.3802 3.34375 10.5156C3.34375 10.651 3.29688 10.7708 3.20312 10.875C3.10938 10.9688 2.98958 11.0156 2.84375 11.0156C2.70833 11.0156 2.59375 10.9688 2.5 10.875L0.375 8.76562C0.270833 8.67188 0.21875 8.55208 0.21875 8.40625C0.21875 8.26042 0.270833 8.14062 0.375 8.04688L2.5 5.90625C2.60417 5.8125 2.72396 5.76562 2.85938 5.76562C2.99479 5.76562 3.11458 5.81771 3.21875 5.92188C3.32292 6.01562 3.375 6.13542 3.375 6.28125C3.375 6.42708 3.31771 6.55208 3.20312 6.65625L1.95312 7.90625H14.0469L12.7812 6.65625C12.6875 6.55208 12.6406 6.43229 12.6406 6.29688C12.6406 6.15104 12.6875 6.03125 12.7812 5.9375C12.8854 5.83333 13.0052 5.78125 13.1406 5.78125C13.2865 5.78125 13.4062 5.83333 13.5 5.9375L15.625 8.04688Z" fill="black"/>
</svg>
