<svg width="13" height="13" viewBox="0 0 13 13" fill="none" xmlns="http://www.w3.org/2000/svg">
<path d="M12 0.40625C12.1354 0.40625 12.25 0.458333 12.3438 0.5625C12.4479 0.65625 12.5 0.770833 12.5 0.90625V3.90625C12.5 4.04167 12.4479 4.16146 12.3438 4.26562C12.25 4.35938 12.1354 4.40625 12 4.40625H11.5V11.9062C11.5 12.0417 11.4479 12.1562 11.3438 12.25C11.25 12.3542 11.1354 12.4062 11 12.4062C10.8646 12.4062 10.7448 12.3542 10.6406 12.25C10.5469 12.1562 10.5 12.0417 10.5 11.9062V4.40625H9C8.86458 4.40625 8.74479 4.35938 8.64062 4.26562C8.54688 4.16146 8.5 4.04167 8.5 3.90625V3.40625H0.5V1.40625H8.5V0.90625C8.5 0.770833 8.54688 0.65625 8.64062 0.5625C8.74479 0.458333 8.86458 0.40625 9 0.40625H12ZM11.5 3.40625V1.40625H9.5V3.40625H11.5Z" fill="black"/>
</svg>
