<svg width="13" height="13" viewBox="0 0 13 13" fill="none" xmlns="http://www.w3.org/2000/svg">
<path d="M12 2.40625V3.40625H4V3.90625C4 4.04167 3.94792 4.16146 3.84375 4.26562C3.75 4.35938 3.63542 4.40625 3.5 4.40625H2V11.9062C2 12.0417 1.94792 12.1562 1.84375 12.25C1.75 12.3542 1.63542 12.4062 1.5 12.4062C1.36458 12.4062 1.24479 12.3542 1.14062 12.25C1.04688 12.1562 1 12.0417 1 11.9062V4.40625H0.5C0.364583 4.40625 0.244792 4.35938 0.140625 4.26562C0.046875 4.16146 0 4.04167 0 3.90625V0.90625C0 0.770833 0.046875 0.65625 0.140625 0.5625C0.244792 0.458333 0.364583 0.40625 0.5 0.40625H3.5C3.63542 0.40625 3.75 0.458333 3.84375 0.5625C3.94792 0.65625 4 0.770833 4 0.90625V1.40625H12V2.29688C12.0521 2.36979 12.2188 2.40625 12.5 2.40625H12ZM1 3.40625H3V1.40625H1V3.40625Z" fill="black"/>
</svg>
