<svg width="14" height="11" viewBox="0 0 14 11" fill="none" xmlns="http://www.w3.org/2000/svg">
<path d="M4.0625 10.4375C3.92708 10.4375 3.8125 10.3854 3.71875 10.2812L0.53125 7.09375C0.40625 7 0.34375 6.86979 0.34375 6.70312C0.34375 6.56771 0.390625 6.45312 0.484375 6.35938C0.578125 6.25521 0.697917 6.20312 0.84375 6.20312C1.01042 6.20312 1.14062 6.27083 1.23438 6.40625L4.0625 9.23438L12.7656 0.53125C12.8594 0.4375 12.974 0.390625 13.1094 0.390625C13.2448 0.390625 13.3594 0.4375 13.4531 0.53125C13.5573 0.625 13.6094 0.744792 13.6094 0.890625C13.6094 1.02604 13.5625 1.14062 13.4688 1.23438L4.42188 10.2812C4.32812 10.375 4.20833 10.4271 4.0625 10.4375Z" fill="black"/>
</svg>
