<svg width="14" height="10" viewBox="0 0 14 10" fill="none" xmlns="http://www.w3.org/2000/svg">
<path d="M5.57813 8.8125C5.19271 8.42708 5 7.95833 5 7.40625C5 6.85417 5.19271 6.38542 5.57813 6C5.97396 5.60417 6.44792 5.40625 7 5.40625C7.55208 5.40625 8.02083 5.60417 8.40625 6C8.80208 6.38542 9 6.85417 9 7.40625C9 7.95833 8.80208 8.42708 8.40625 8.8125C8.02083 9.20833 7.55208 9.40625 7 9.40625C6.44792 9.40625 5.97396 9.20833 5.57813 8.8125ZM0.0625 1.84375C0.0208333 1.80208 0 1.65625 0 1.40625C0 1.15625 0.0208333 1.01042 0.0625 0.96875C0.104167 0.927083 0.25 0.90625 0.5 0.90625L13.5 0.90625C13.75 0.90625 13.8958 0.927083 13.9375 0.96875C13.9792 1.01042 14 1.15625 14 1.40625C14 1.65625 13.9792 1.80208 13.9375 1.84375C13.8958 1.88542 13.75 1.90625 13.5 1.90625L0.5 1.90625C0.25 1.90625 0.104167 1.88542 0.0625 1.84375Z" fill="black"/>
</svg>
