<svg width="14" height="9" viewBox="0 0 14 9" fill="none" xmlns="http://www.w3.org/2000/svg">
<path d="M0.0625 8.84375C0.0208333 8.80208 0 8.65625 0 8.40625C0 8.15625 0.0208333 8.01042 0.0625 7.96875C0.104167 7.92708 0.25 7.90625 0.5 7.90625L13.5 7.90625C13.75 7.90625 13.8958 7.92708 13.9375 7.96875C13.9792 8.01042 14 8.15625 14 8.40625C14 8.65625 13.9792 8.80208 13.9375 8.84375C13.8958 8.88542 13.75 8.90625 13.5 8.90625L0.5 8.90625C0.25 8.90625 0.104167 8.88542 0.0625 8.84375ZM5.57813 3.82812C5.19271 3.43229 5 2.95833 5 2.40625C5 1.85417 5.19271 1.38542 5.57812 1C5.97396 0.604167 6.44792 0.40625 7 0.40625C7.55208 0.40625 8.02083 0.604167 8.40625 1C8.80208 1.38542 9 1.85417 9 2.40625C9 2.95833 8.80208 3.43229 8.40625 3.82812C8.02083 4.21354 7.55208 4.40625 7 4.40625C6.44792 4.40625 5.97396 4.21354 5.57813 3.82812Z" fill="black"/>
</svg>
