<svg width="18" height="13" viewBox="0 0 18 13" fill="none" xmlns="http://www.w3.org/2000/svg">
<path d="M1.42188 4.40625H5.85938H13.0156C13.151 4.40625 13.2656 4.45833 13.3594 4.5625C13.4635 4.65625 13.5156 4.77083 13.5156 4.90625C13.5156 5.04167 13.4635 5.16146 13.3594 5.26562C13.2656 5.35938 13.151 5.40625 13.0156 5.40625H5.85938L13.1094 7.40625C13.2344 7.41667 13.3385 7.47396 13.4219 7.57812C13.5156 7.67188 13.5625 7.78125 13.5625 7.90625C13.5625 8.04167 13.5156 8.16146 13.4219 8.26562C13.3281 8.35938 13.2083 8.40625 13.0625 8.40625C13.0521 8.40625 13.0365 8.40625 13.0156 8.40625H12.9219L1.42188 5.40625C1.27604 5.40625 1.15625 5.35938 1.0625 5.26562C0.96875 5.16146 0.921875 5.04167 0.921875 4.90625C0.921875 4.77083 0.96875 4.65625 1.0625 4.5625C1.15625 4.45833 1.27604 4.40625 1.42188 4.40625ZM17.0156 11.4062V11.9062C17.0156 12.0417 16.9635 12.1562 16.8594 12.25C16.7656 12.3542 16.651 12.4062 16.5156 12.4062H15.5156C15.3802 12.4062 15.2604 12.3542 15.1562 12.25C15.0625 12.1562 15.0156 12.0417 15.0156 11.9062C15.0156 11.7708 15.0625 11.6562 15.1562 11.5625C15.2604 11.4583 15.3802 11.4062 15.5156 11.4062H16.0156V1.40625H15.5156C15.3802 1.40625 15.2604 1.35938 15.1562 1.26562C15.0625 1.16146 15.0156 1.04167 15.0156 0.90625C15.0156 0.770833 15.0625 0.65625 15.1562 0.5625C15.2604 0.458333 15.3802 0.40625 15.5156 0.40625H16.5156C16.651 0.40625 16.7656 0.458333 16.8594 0.5625C16.9635 0.65625 17.0156 0.770833 17.0156 0.90625V11.4062Z" fill="black"/>
</svg>
