<svg width="17" height="13" viewBox="0 0 17 13" fill="none" xmlns="http://www.w3.org/2000/svg">
<path d="M15.5938 4.40625C15.7396 4.40625 15.8594 4.45833 15.9531 4.5625C16.0469 4.65625 16.0938 4.77083 16.0938 4.90625C16.0938 5.04167 16.0469 5.16146 15.9531 5.26562C15.8594 5.35938 15.7396 5.40625 15.5938 5.40625L4.09375 8.40625H4C3.97917 8.40625 3.96354 8.40625 3.95312 8.40625C3.80729 8.40625 3.6875 8.35938 3.59375 8.26562C3.5 8.16146 3.45312 8.04167 3.45312 7.90625C3.45312 7.82292 3.46875 7.74479 3.5 7.67188C3.54167 7.59896 3.59896 7.54167 3.67188 7.5C3.74479 7.44792 3.82292 7.41667 3.90625 7.40625L11.1562 5.40625H4C3.86458 5.40625 3.74479 5.35938 3.64062 5.26562C3.54688 5.16146 3.5 5.04167 3.5 4.90625C3.5 4.77083 3.54688 4.65625 3.64062 4.5625C3.74479 4.45833 3.86458 4.40625 4 4.40625H11.1562H15.5938ZM1.5 11.4062C1.63542 11.4062 1.75 11.4583 1.84375 11.5625C1.94792 11.6562 2 11.7708 2 11.9062C2 12.0417 1.94792 12.1562 1.84375 12.25C1.75 12.3542 1.63542 12.4062 1.5 12.4062H0.5C0.364583 12.4062 0.244792 12.3542 0.140625 12.25C0.046875 12.1562 0 12.0417 0 11.9062V0.90625C0 0.770833 0.046875 0.65625 0.140625 0.5625C0.244792 0.458333 0.364583 0.40625 0.5 0.40625H1.5C1.63542 0.40625 1.75 0.458333 1.84375 0.5625C1.94792 0.65625 2 0.770833 2 0.90625C2 1.04167 1.94792 1.16146 1.84375 1.26562C1.75 1.35938 1.63542 1.40625 1.5 1.40625H1V11.4062H1.5Z" fill="black"/>
</svg>
