<svg width="8" height="14" viewBox="0 0 8 14" fill="none" xmlns="http://www.w3.org/2000/svg">
<path d="M0.046875 13C0.046875 12.7292 0.140625 12.5 0.328125 12.3125L5.21875 7.45312L0.328125 2.57812C0.140625 2.39062 0.046875 2.16146 0.046875 1.89062C0.046875 1.60938 0.140625 1.38021 0.328125 1.20312C0.526042 1.01562 0.760417 0.916667 1.03125 0.90625C1.3125 0.895833 1.54688 0.989583 1.73438 1.1875L7.96875 7.45312L1.73438 13.7031C1.53646 13.8906 1.30729 13.9844 1.04688 13.9844C0.786458 13.9844 0.552083 13.8906 0.34375 13.7031C0.145833 13.5156 0.046875 13.2812 0.046875 13Z" fill="black"/>
</svg>
