<svg width="16" height="10" viewBox="0 0 16 10" fill="none" xmlns="http://www.w3.org/2000/svg">
<path d="M6.9375 9.46875C6.64583 9.17708 6.5 8.82292 6.5 8.40625C6.5 7.98958 6.64583 7.63542 6.9375 7.34375C7.22917 7.05208 7.58333 6.90625 8 6.90625C8.41667 6.90625 8.77083 7.05208 9.0625 7.34375C9.35417 7.63542 9.5 7.98958 9.5 8.40625C9.5 8.82292 9.35417 9.17708 9.0625 9.46875C8.77083 9.76042 8.41667 9.90625 8 9.90625C7.58333 9.90625 7.22917 9.76042 6.9375 9.46875ZM15.8438 8.76562C15.75 8.85938 15.6354 8.90625 15.5 8.90625C15.3646 8.90625 15.2448 8.85938 15.1406 8.76562C15.0469 8.66146 15 8.54167 15 8.40625C15 6.47917 14.3125 4.83333 12.9375 3.46875C11.5729 2.09375 9.92708 1.40625 8 1.40625C6.07292 1.40625 4.42188 2.09375 3.04688 3.46875C1.68229 4.83333 1 6.47917 1 8.40625C1 8.54167 0.947917 8.66146 0.84375 8.76562C0.75 8.85938 0.635417 8.90625 0.5 8.90625C0.364583 8.90625 0.244792 8.85938 0.140625 8.76562C0.046875 8.66146 0 8.54167 0 8.40625C0 6.95833 0.354167 5.61979 1.0625 4.39062C1.78125 3.16146 2.75521 2.19271 3.98438 1.48438C5.21354 0.765625 6.55208 0.40625 8 0.40625C9.44792 0.40625 10.7865 0.765625 12.0156 1.48438C13.2448 2.19271 14.2135 3.16146 14.9219 4.39062C15.6406 5.61979 16 6.95833 16 8.40625C16 8.54167 15.9479 8.66146 15.8438 8.76562Z" fill="black"/>
</svg>
