<svg width="40" height="45" viewBox="0 0 40 45" fill="none" xmlns="http://www.w3.org/2000/svg">
<path d="M20.3 15.9886C20.5 15.9886 20.8 16.3176 21.1 16.9755C22 18.2915 23 19.6074 24.3 20.5943L26.8 22.2392C27.3 22.5682 27.6 22.7875 27.6 23.1165C27.6 23.3358 27.4 23.5551 26.8 23.8841C26 24.213 24.5 25.2 24 25.7483C23.4 26.2966 21.1 28.5994 20.8 29.0381C20.6 29.4767 20.4 29.5863 20.1 29.5863C19.9 29.5863 19.6 29.4767 19.3 29.0381C18.1 26.9545 15.8 24.6517 13.4 23.5551C13.2 23.4454 13 23.1165 13 22.8971C13 22.5682 13.2 22.4585 13.6 22.2392L15 21.4716C16.7 20.2653 18.5 19.0591 19.4 16.9755C19.8 16.3176 20.1 15.9886 20.3 15.9886Z" fill="black"/>
</svg>
