<svg width="40" height="45" viewBox="0 0 40 45" fill="none" xmlns="http://www.w3.org/2000/svg">
<path d="M14.2 32.2744C11 30.0813 9 26.5722 9 22.2955C9 17.6898 11 14.8386 14.2 12.4261L14.4 12.7551C11.4 15.6063 10.9 17.9091 10.9 22.2955C10.9 24.5983 11.1 26.3528 11.7 27.9977C12.2 29.7523 12.8 30.6295 14.5 32.0551L14.2 32.2744ZM25.6 31.9455C27.3 30.5199 27.9 29.7523 28.5 27.8881C29 26.2432 29.3 24.5983 29.3 22.1858C29.3 17.7994 28.8 15.4966 25.7 12.7551L25.8 12.4261C29.1 14.8386 31.1 17.7994 31.1 22.2955C31.1 26.4625 29.1 30.0813 25.9 32.2744L25.6 31.9455Z" fill="black"/>
</svg>
