<svg width="40" height="45" viewBox="0 0 40 45" fill="none" xmlns="http://www.w3.org/2000/svg">
<path d="M10.6 11.4659C11 11.4659 11.2 11.6852 11.2 12.1239V14.2074C11.2 15.0847 11.7 15.5233 12.1 15.5233H28.3C28.8 15.5233 29.5 15.0847 29.5 14.0977V12.1239C29.5 11.7949 29.7 11.4659 30.1 11.4659C30.4 11.4659 30.7 11.6852 30.7 12.1239V32.0818C30.7 32.4108 30.4 32.8494 30.1 32.8494C29.7 32.8494 29.5 32.4108 29.5 32.0818V30.3273C29.5 29.8886 29 29.2307 28.3 29.2307H12.3C11.9 29.2307 11.3 29.8886 11.3 30.5466V32.1915C11.3 32.5205 11 32.9591 10.6 32.9591C10.3 32.9591 10 32.5205 10 32.1915V12.1239C10 11.6852 10.2 11.4659 10.6 11.4659ZM11.2 23.1994C11.2 24.296 12.2 24.954 14 24.954H26.9C28.5 24.954 29.5 24.4057 29.5 23.1994V21.2256C29.5 20.3483 28.5 19.6903 26.9 19.6903H13.9C12 19.6903 11.2 20.2386 11.2 21.4449V23.1994Z" fill="black"/>
</svg>
