<svg width="11" height="15" viewBox="0 0 11 15" fill="none" xmlns="http://www.w3.org/2000/svg">
<path d="M6 13.9062C6 14.0417 5.94792 14.1562 5.84375 14.25C5.75 14.3542 5.63542 14.4062 5.5 14.4062C5.36458 14.4062 5.24479 14.3542 5.14063 14.25C5.04688 14.1562 5 14.0417 5 13.9062L5 2.125L1.75 5.375C1.65625 5.47917 1.53646 5.53125 1.39063 5.53125C1.25521 5.53125 1.14063 5.47917 1.04688 5.375C0.942708 5.28125 0.890625 5.16667 0.890625 5.03125C0.890625 4.88542 0.942708 4.76562 1.04688 4.67188L5.15625 0.5625C5.25 0.458333 5.36458 0.40625 5.5 0.40625C5.64583 0.40625 5.77083 0.458333 5.875 0.5625L10 4.67187C10.1042 4.77604 10.1562 4.90104 10.1562 5.04687C10.1562 5.18229 10.1042 5.30208 10 5.40625C9.89583 5.51042 9.77083 5.5625 9.625 5.5625C9.48958 5.5625 9.375 5.51042 9.28125 5.40625L6 2.125L6 13.9062Z" fill="#343434"/>
</svg>
