<svg width="14" height="10" viewBox="0 0 14 10" fill="none" xmlns="http://www.w3.org/2000/svg">
<path d="M13.5 4.40625C13.6354 4.40625 13.75 4.45833 13.8438 4.5625C13.9479 4.65625 14 4.77083 14 4.90625C14 5.04167 13.9479 5.16146 13.8438 5.26562C13.75 5.35937 13.6354 5.40625 13.5 5.40625L1.71875 5.40625L5 8.65625C5.09375 8.76042 5.14063 8.88542 5.14063 9.03125C5.14063 9.16667 5.08854 9.28646 4.98438 9.39062C4.89063 9.48438 4.77083 9.53125 4.625 9.53125C4.48958 9.53125 4.36979 9.47917 4.26563 9.375L0.15625 5.26562C0.0520833 5.16146 0 5.04167 0 4.90625C0 4.76042 0.0520833 4.64062 0.15625 4.54688L4.28125 0.40625C4.38542 0.302083 4.50521 0.25 4.64062 0.25C4.78646 0.25 4.90625 0.302083 5 0.40625C5.10417 0.510417 5.15625 0.635417 5.15625 0.78125C5.15625 0.927083 5.10417 1.04687 5 1.14062L1.71875 4.40625L13.5 4.40625Z" fill="black"/>
</svg>
