<svg width="15" height="10" viewBox="0 0 15 10" fill="none" xmlns="http://www.w3.org/2000/svg">
<path d="M0.5 5.40625C0.364583 5.40625 0.244792 5.35938 0.140625 5.26562C0.046875 5.16146 0 5.04167 0 4.90625C0 4.77083 0.046875 4.65625 0.140625 4.5625C0.244792 4.45833 0.364583 4.40625 0.5 4.40625L12.2813 4.40625L9.03125 1.15625C8.9375 1.0625 8.89062 0.947917 8.89062 0.8125C8.89062 0.666667 8.9375 0.546875 9.03125 0.453125C9.13542 0.348958 9.25521 0.296875 9.39062 0.296875C9.53646 0.296875 9.65625 0.348958 9.75 0.453125L13.8594 4.5625C13.9635 4.66667 14.0156 4.79167 14.0156 4.9375C14.0156 5.07292 13.9635 5.1875 13.8594 5.28125L9.73438 9.40625C9.64063 9.5 9.52083 9.54687 9.375 9.54687C9.23958 9.54687 9.11979 9.5 9.01563 9.40625C8.92188 9.30208 8.875 9.17708 8.875 9.03125C8.875 8.88542 8.92708 8.76562 9.03125 8.67187L12.2813 5.40625L0.5 5.40625Z" fill="black"/>
</svg>
