<svg width="11" height="15" viewBox="0 0 11 15" fill="none" xmlns="http://www.w3.org/2000/svg">
<path d="M5 0.90625C5 0.770833 5.04688 0.65625 5.14062 0.5625C5.24479 0.458333 5.36458 0.40625 5.5 0.40625C5.63542 0.40625 5.75 0.458333 5.84375 0.5625C5.94792 0.65625 6 0.770833 6 0.90625L6 12.6875L9.23438 9.4375C9.33854 9.33333 9.45833 9.28125 9.59375 9.28125C9.72917 9.28125 9.84375 9.33333 9.9375 9.4375C10.0417 9.53125 10.0938 9.65104 10.0938 9.79687C10.0938 9.93229 10.0469 10.0521 9.95313 10.1562L5.84375 14.2656C5.73958 14.3698 5.61458 14.4219 5.46875 14.4219C5.33333 14.4219 5.21875 14.3698 5.125 14.2656L1 10.1406C0.895833 10.0365 0.84375 9.91667 0.84375 9.78125C0.84375 9.63542 0.895833 9.51042 1 9.40625C1.10417 9.30208 1.22917 9.25 1.375 9.25C1.52083 9.25 1.64063 9.30208 1.73438 9.40625L5 12.7031L5 0.90625Z" fill="#343434"/>
</svg>
