<svg width="16" height="13" viewBox="0 0 16 13" fill="none" xmlns="http://www.w3.org/2000/svg">
<path d="M12.9062 0.5C13 0.416667 13.1146 0.375 13.25 0.375C13.3958 0.375 13.5208 0.432292 13.625 0.546875C14.2812 1.22396 14.8385 2.14062 15.2969 3.29688C15.7656 4.44271 16 5.48438 16 6.42188C16 7.04688 15.8906 7.73438 15.6719 8.48438C15.4635 9.22396 15.1771 9.9375 14.8125 10.625C14.4479 11.3021 14.0521 11.8646 13.625 12.3125C13.5312 12.4167 13.4115 12.4688 13.2656 12.4688C13.1198 12.4688 13 12.4167 12.9062 12.3125C12.8125 12.2083 12.7656 12.0885 12.7656 11.9531C12.7656 11.8177 12.8125 11.7031 12.9062 11.6094C13.4896 11.0156 13.9844 10.2083 14.3906 9.1875C14.8073 8.16667 15.0156 7.23958 15.0156 6.40625C15.0156 5.57292 14.8073 4.64583 14.3906 3.625C13.9844 2.60417 13.4896 1.79688 12.9062 1.20312C12.8125 1.10938 12.7656 0.994792 12.7656 0.859375C12.7656 0.723958 12.8125 0.604167 12.9062 0.5ZM13 6.40625C13 6.41667 13 6.43229 13 6.45312C13 7.04688 12.8542 7.71354 12.5625 8.45312C12.2708 9.18229 11.9167 9.76562 11.5 10.2031C11.4062 10.3073 11.2865 10.3594 11.1406 10.3594C10.9948 10.3594 10.875 10.3073 10.7812 10.2031C10.6875 10.1094 10.6406 9.99479 10.6406 9.85938C10.6406 9.72396 10.6875 9.60938 10.7812 9.51562C11.1146 9.15104 11.401 8.66667 11.6406 8.0625C11.8906 7.45833 12.0156 6.91146 12.0156 6.42188C12.0156 5.93229 11.8906 5.38542 11.6406 4.78125C11.401 4.17708 11.1146 3.69271 10.7812 3.32812C10.6875 3.23438 10.6406 3.11979 10.6406 2.98438C10.6406 2.84896 10.6875 2.73438 10.7812 2.64062C10.875 2.53646 10.9948 2.48438 11.1406 2.48438C11.2865 2.48438 11.4062 2.53646 11.5 2.64062C11.9167 3.07812 12.2708 3.66667 12.5625 4.40625C12.8542 5.13542 13 5.79688 13 6.39062C13 6.39062 13 6.39583 13 6.40625ZM9.8125 5.53125C9.9375 5.85417 10 6.14583 10 6.40625C10 6.66667 9.9375 6.95833 9.8125 7.28125C9.6875 7.60417 9.53646 7.86458 9.35938 8.0625C9.26562 8.15625 9.14583 8.20312 9 8.20312C8.86458 8.20312 8.75 8.15625 8.65625 8.0625C8.5625 7.96875 8.51562 7.85938 8.51562 7.73438C8.51562 7.59896 8.5625 7.47917 8.65625 7.375C8.75 7.26042 8.83333 7.10938 8.90625 6.92188C8.97917 6.73438 9.01562 6.5625 9.01562 6.40625C9.01562 6.30208 9 6.19271 8.96875 6.07812C8.9375 5.95312 8.89062 5.83333 8.82812 5.71875C8.77604 5.60417 8.71875 5.51042 8.65625 5.4375C8.5625 5.33333 8.51562 5.21875 8.51562 5.09375C8.51562 4.95833 8.5625 4.84375 8.65625 4.75C8.75 4.65625 8.86458 4.60938 9 4.60938C9.14583 4.60938 9.26562 4.65625 9.35938 4.75C9.53646 4.94792 9.6875 5.20833 9.8125 5.53125ZM6 0.328125C6.27083 0.328125 6.50521 0.427083 6.70312 0.625C6.90104 0.822917 7 1.05729 7 1.32812V11.4844C7 11.7656 6.90104 12 6.70312 12.1875C6.50521 12.3854 6.27083 12.4844 6 12.4844C5.72917 12.4844 5.49479 12.3906 5.29688 12.2031L2.79688 9.75C2.74479 9.6875 2.67188 9.63021 2.57812 9.57812C2.49479 9.52604 2.40625 9.48438 2.3125 9.45312C2.21875 9.42188 2.13021 9.40625 2.04688 9.40625H1C0.729167 9.40625 0.494792 9.30729 0.296875 9.10938C0.0989583 8.91146 0 8.67708 0 8.40625V4.40625C0 4.13542 0.0989583 3.90104 0.296875 3.70312C0.494792 3.50521 0.729167 3.40625 1 3.40625H2.04688C2.17188 3.40625 2.30729 3.375 2.45312 3.3125C2.60938 3.23958 2.72917 3.15625 2.8125 3.0625L5.3125 0.609375C5.5 0.421875 5.72917 0.328125 6 0.328125ZM6 6.40625L6.04688 1.32812L3.54688 3.75C3.44271 3.875 3.30208 3.98958 3.125 4.09375C2.95833 4.1875 2.78125 4.26562 2.59375 4.32812C2.40625 4.38021 2.22917 4.40625 2.0625 4.40625C2.0625 4.40625 2.05729 4.40625 2.04688 4.40625H1V8.40625H2.04688C2.20312 8.40625 2.375 8.4375 2.5625 8.5C2.75 8.55208 2.92708 8.63021 3.09375 8.73438C3.26042 8.82812 3.39583 8.9375 3.5 9.0625L6 11.4844V6.40625Z" fill="black"/>
</svg>
