<svg width="14" height="16" viewBox="0 0 14 16" fill="none" xmlns="http://www.w3.org/2000/svg">
<path d="M7.04688 12.2656C6.91146 12.2656 6.79167 12.2188 6.6875 12.125C6.59375 12.0208 6.54688 11.901 6.54688 11.7656C6.54688 11.6719 6.56771 11.5885 6.60938 11.5156L12.5625 1.15625C12.6562 0.989583 12.8021 0.90625 13 0.90625C13.1354 0.90625 13.25 0.958333 13.3438 1.0625C13.4479 1.15625 13.5 1.27083 13.5 1.40625C13.5 1.5 13.4792 1.58333 13.4375 1.65625L7.5 12.0156C7.40625 12.1823 7.26042 12.2656 7.0625 12.2656C7.0625 12.2656 7.05729 12.2656 7.04688 12.2656ZM12.6406 14.4062L11.0625 8.79688L11.7656 7.57812L13.5938 14.1094C13.625 14.2031 13.6406 14.3021 13.6406 14.4062C13.6406 14.6771 13.5417 14.9115 13.3438 15.1094C13.1562 15.3073 12.9219 15.4062 12.6406 15.4062H1.35938C1.07812 15.4062 0.838542 15.3073 0.640625 15.1094C0.453125 14.9115 0.359375 14.6771 0.359375 14.4062C0.359375 14.3021 0.375 14.2031 0.40625 14.1094L3.78125 2.10938C3.84375 1.91146 3.96875 1.74479 4.15625 1.60938C4.34375 1.47396 4.53646 1.40625 4.73438 1.40625C4.74479 1.40625 4.75521 1.40625 4.76562 1.40625H9.26562C9.46354 1.40625 9.65104 1.47917 9.82812 1.625C10.0156 1.76042 10.1354 1.92188 10.1875 2.10938L10.2188 2.1875L9.53125 3.40625L9.23438 2.40625H4.73438L1.35938 14.4062H12.6406Z" fill="black"/>
</svg>
