<svg width="25" height="9" viewBox="0 0 25 9" fill="none" xmlns="http://www.w3.org/2000/svg">
<path d="M5.16133 8L4.80133 6.51H2.78133L2.43133 8H0.731328L2.82133 1.07H4.81133L6.90133 8H5.16133ZM3.06133 5.32H4.52133L3.79133 2.26L3.06133 5.32ZM12.6221 5.7C12.6221 6.17333 12.5188 6.59667 12.3121 6.97C12.1121 7.34333 11.8088 7.63667 11.4021 7.85C10.9954 8.06333 10.4988 8.17 9.91211 8.17C9.03211 8.17 8.36211 7.94667 7.90211 7.5C7.44211 7.05333 7.21211 6.45333 7.21211 5.7V1.07H8.85211V5.63C8.85211 6.07667 8.93544 6.41 9.10211 6.63C9.27544 6.84333 9.54544 6.95 9.91211 6.95C10.2854 6.95 10.5554 6.84333 10.7221 6.63C10.8954 6.41 10.9821 6.07667 10.9821 5.63V1.07H12.6221V5.7ZM18.5658 1.07L18.4058 2.33H16.6958V8H15.0558V2.33H13.2658V1.07H18.5658ZM21.6746 0.9C22.6613 0.9 23.4279 1.21667 23.9746 1.85C24.5279 2.48333 24.8046 3.37667 24.8046 4.53C24.8046 5.28333 24.6779 5.93333 24.4246 6.48C24.1779 7.02667 23.8179 7.44667 23.3446 7.74C22.8779 8.02667 22.3213 8.17 21.6746 8.17C21.0279 8.17 20.4713 8.02667 20.0046 7.74C19.5379 7.45333 19.1779 7.04 18.9246 6.5C18.6779 5.95333 18.5546 5.29667 18.5546 4.53C18.5546 3.78333 18.6779 3.13667 18.9246 2.59C19.1779 2.04333 19.5379 1.62667 20.0046 1.34C20.4713 1.04667 21.0279 0.9 21.6746 0.9ZM21.6746 2.1C21.2013 2.1 20.8479 2.29333 20.6146 2.68C20.3879 3.06 20.2746 3.67667 20.2746 4.53C20.2746 5.38333 20.3913 6.00333 20.6246 6.39C20.8579 6.77667 21.2079 6.97 21.6746 6.97C22.1546 6.97 22.5079 6.78 22.7346 6.4C22.9679 6.01333 23.0846 5.39 23.0846 4.53C23.0846 3.67 22.9679 3.05 22.7346 2.67C22.5013 2.29 22.1479 2.1 21.6746 2.1Z" fill="black"/>
</svg>
