<svg width="12" height="14" viewBox="0 0 12 14" fill="none" xmlns="http://www.w3.org/2000/svg">
<path d="M5.78125 7.9375C5.85417 7.91667 5.92708 7.90625 6 7.90625C6.27083 7.90625 6.50521 8.00521 6.70312 8.20312C6.90104 8.40104 7 8.63542 7 8.90625C7 9.0625 6.94792 9.22396 6.84375 9.39062C6.75 9.55729 6.63542 9.68229 6.5 9.76562V10.9062C6.5 11.0417 6.44792 11.1615 6.34375 11.2656C6.25 11.3594 6.13542 11.4062 6 11.4062C5.86458 11.4062 5.74479 11.3594 5.64062 11.2656C5.54688 11.1615 5.5 11.0417 5.5 10.9062V9.76562C5.36458 9.68229 5.25 9.55729 5.15625 9.39062C5.0625 9.22396 5.01562 9.0625 5.01562 8.90625C5.01562 8.76042 5.04688 8.61979 5.10938 8.48438C5.18229 8.34896 5.27604 8.23438 5.39062 8.14062C5.51562 8.03646 5.64583 7.96875 5.78125 7.9375ZM11 5.90625C11.2708 5.90625 11.5052 6.00521 11.7031 6.20312C11.901 6.40104 12 6.63542 12 6.90625V12.4062C12 12.6771 11.901 12.9115 11.7031 13.1094C11.5052 13.3073 11.2708 13.4062 11 13.4062H1C0.729167 13.4062 0.494792 13.3073 0.296875 13.1094C0.0989583 12.9115 0 12.6771 0 12.4062V6.90625C0 6.63542 0.0989583 6.40104 0.296875 6.20312C0.494792 6.00521 0.729167 5.90625 1 5.90625H2V4.65625C2 4.57292 2.01042 4.48958 2.03125 4.40625C2.15625 3.44792 2.60417 2.63021 3.375 1.95312C4.15625 1.27604 5.03125 0.9375 6 0.9375C7.09375 0.9375 8.03125 1.32812 8.8125 2.10938C9.59375 2.88021 9.98958 3.8125 10 4.90625V5.90625H11ZM3 4.65625V5.90625H9V4.90625C9 4.86458 9 4.82292 9 4.78125C9 3.94792 8.70833 3.23958 8.125 2.65625C7.54167 2.07292 6.83333 1.78125 6 1.78125C5.20833 1.78125 4.51562 2.0625 3.92188 2.625C3.33854 3.1875 3.03125 3.86458 3 4.65625ZM11 6.90625H1V12.4062H11V6.90625Z" fill="black"/>
</svg>
