<svg width="30" height="10" viewBox="0 0 30 10" fill="none" xmlns="http://www.w3.org/2000/svg">
<path d="M7.16894 9H5.90894L1.32494 1.884H1.27694C1.29294 2.164 1.31294 2.512 1.33694 2.928C1.36094 3.344 1.37294 3.772 1.37294 4.212V9H0.376936V0.431999H1.62494L6.19694 7.524H6.24494C6.23694 7.396 6.22494 7.204 6.20894 6.948C6.20094 6.692 6.18894 6.412 6.17294 6.108C6.16494 5.804 6.16094 5.524 6.16094 5.268V0.431999H7.16894V9ZM14.9421 5.772C14.9421 6.836 14.6701 7.66 14.1261 8.244C13.5901 8.828 12.8621 9.12 11.9421 9.12C11.3741 9.12 10.8661 8.992 10.4181 8.736C9.97812 8.472 9.63012 8.092 9.37412 7.596C9.11812 7.092 8.99012 6.484 8.99012 5.772C8.99012 4.708 9.25812 3.888 9.79412 3.312C10.3301 2.736 11.0581 2.448 11.9781 2.448C12.5621 2.448 13.0741 2.58 13.5141 2.844C13.9621 3.1 14.3101 3.476 14.5581 3.972C14.8141 4.46 14.9421 5.06 14.9421 5.772ZM10.0821 5.772C10.0821 6.532 10.2301 7.136 10.5261 7.584C10.8301 8.024 11.3101 8.244 11.9661 8.244C12.6141 8.244 13.0901 8.024 13.3941 7.584C13.6981 7.136 13.8501 6.532 13.8501 5.772C13.8501 5.012 13.6981 4.416 13.3941 3.984C13.0901 3.552 12.6101 3.336 11.9541 3.336C11.2981 3.336 10.8221 3.552 10.5261 3.984C10.2301 4.416 10.0821 5.012 10.0821 5.772ZM19.7117 2.448C20.4797 2.448 21.0597 2.636 21.4517 3.012C21.8437 3.38 22.0397 3.98 22.0397 4.812V9H20.9957V4.884C20.9957 3.852 20.5157 3.336 19.5557 3.336C18.8437 3.336 18.3517 3.536 18.0797 3.936C17.8077 4.336 17.6717 4.912 17.6717 5.664V9H16.6157V2.568H17.4677L17.6237 3.444H17.6837C17.8917 3.108 18.1797 2.86 18.5477 2.7C18.9157 2.532 19.3037 2.448 19.7117 2.448ZM26.5177 2.448C27.0697 2.448 27.5417 2.568 27.9337 2.808C28.3337 3.048 28.6377 3.388 28.8457 3.828C29.0617 4.26 29.1697 4.768 29.1697 5.352V5.988H24.7657C24.7817 6.716 24.9657 7.272 25.3177 7.656C25.6777 8.032 26.1777 8.22 26.8177 8.22C27.2257 8.22 27.5857 8.184 27.8977 8.112C28.2177 8.032 28.5457 7.92 28.8817 7.776V8.7C28.5537 8.844 28.2297 8.948 27.9097 9.012C27.5897 9.084 27.2097 9.12 26.7697 9.12C26.1617 9.12 25.6217 8.996 25.1497 8.748C24.6857 8.5 24.3217 8.132 24.0577 7.644C23.8017 7.148 23.6737 6.544 23.6737 5.832C23.6737 5.128 23.7897 4.524 24.0217 4.02C24.2617 3.516 24.5937 3.128 25.0177 2.856C25.4497 2.584 25.9497 2.448 26.5177 2.448ZM26.5057 3.312C26.0017 3.312 25.6017 3.476 25.3057 3.804C25.0177 4.124 24.8457 4.572 24.7897 5.148H28.0657C28.0577 4.604 27.9297 4.164 27.6817 3.828C27.4337 3.484 27.0417 3.312 26.5057 3.312Z" fill="black"/>
</svg>
