<svg width="31" height="18" viewBox="0 0 31 18" fill="none" xmlns="http://www.w3.org/2000/svg">
<path d="M5.12507 0V13.25L5.17568 13.3C4.92263 13.2 4.56836 13.1 4.21409 13.1C2.08848 13.1 0.317139 14.65 0.317139 16.35C0.317139 17.35 1.1775 17.95 2.24031 17.95C4.01165 17.95 6.13726 16.5 6.13726 14.85V1.85L6.54214 2L17.2208 4.55V13.25L17.2714 13.3C17.0184 13.2 16.6641 13.1 16.3098 13.1C14.1842 13.1 12.4129 14.65 12.4129 16.35C12.4129 17.35 13.2732 17.95 14.336 17.95C16.1074 17.95 18.233 16.5 18.233 14.85V4.75L29.3671 7.4V13.25L29.4177 13.3C29.1647 13.2 28.8104 13.1 28.4562 13.1C26.3306 13.1 24.5592 14.65 24.5592 16.35C24.5592 17.35 25.4196 17.95 26.4824 17.95C28.2537 17.95 30.3793 16.5 30.3793 14.85V0H5.12507ZM29.4177 5.85L18.486 3.3L29.4177 4.6V5.85ZM29.4177 3.05L20.4092 2H29.3671V3.05H29.4177Z" fill="black"/>
</svg>
