<?xml version="1.0" encoding="UTF-8"?>
<svg width="512px" height="512px" viewBox="0 0 512 512" version="1.1" xmlns="http://www.w3.org/2000/svg" xmlns:xlink="http://www.w3.org/1999/xlink">
    <!-- Generator: Sketch 52 (66869) - http://www.bohemiancoding.com/sketch -->
    <title>msc-icon-master</title>
    <desc>Created with Sketch.</desc>
    <defs>
        <filter x="-9.5%" y="-7.0%" width="121.1%" height="114.0%" filterUnits="objectBoundingBox" id="filter-1">
            <feOffset dx="0" dy="3" in="SourceAlpha" result="shadowOffsetOuter1"></feOffset>
            <feGaussianBlur stdDeviation="7" in="shadowOffsetOuter1" result="shadowBlurOuter1"></feGaussianBlur>
            <feColorMatrix values="0 0 0 0 0   0 0 0 0 0   0 0 0 0 0  0 0 0 0.547044837 0" type="matrix" in="shadowBlurOuter1" result="shadowMatrixOuter1"></feColorMatrix>
            <feMerge>
                <feMergeNode in="shadowMatrixOuter1"></feMergeNode>
                <feMergeNode in="SourceGraphic"></feMergeNode>
            </feMerge>
        </filter>
        <linearGradient x1="100%" y1="-22.0930648%" x2="38.9779202%" y2="60.2529194%" id="linearGradient-2">
            <stop stop-color="#BBBBBB" offset="0%"></stop>
            <stop stop-color="#D9D9D9" offset="29.2980029%"></stop>
            <stop stop-color="#F5F5F5" offset="63.7161705%"></stop>
            <stop stop-color="#FFFFFF" offset="100%"></stop>
        </linearGradient>
        <path d="M2.84217094e-14,476.818182 L2.84217094e-14,0.818181818 C90,-1.18181818 152.666667,0.484848485 188,5.81818182 C220.666667,16.4848485 235.333333,54.8181818 232,120.818182 C276.42356,117.72677 308.42356,123.393437 328,137.818182 C340.666667,147.151515 348.333333,163.484848 351,186.818182 L351,476.818182 L2.84217094e-14,476.818182 Z" id="path-3"></path>
        <filter x="-10.5%" y="-7.8%" width="121.1%" height="115.5%" filterUnits="objectBoundingBox" id="filter-4">
            <feGaussianBlur stdDeviation="29" in="SourceAlpha" result="shadowBlurInner1"></feGaussianBlur>
            <feOffset dx="0" dy="16" in="shadowBlurInner1" result="shadowOffsetInner1"></feOffset>
            <feComposite in="shadowOffsetInner1" in2="SourceAlpha" operator="arithmetic" k2="-1" k3="1" result="shadowInnerInner1"></feComposite>
            <feColorMatrix values="0 0 0 0 0   0 0 0 0 0   0 0 0 0 0  0 0 0 0.0463088768 0" type="matrix" in="shadowInnerInner1"></feColorMatrix>
        </filter>
        <linearGradient x1="39.2870272%" y1="37.2580144%" x2="18.3693136%" y2="67.3067132%" id="linearGradient-5">
            <stop stop-color="#DEDEDE" offset="0%"></stop>
            <stop stop-color="#EEEEEE" offset="44.5532052%"></stop>
            <stop stop-color="#F8F8F8" offset="100%"></stop>
        </linearGradient>
        <path d="M0.868976709,0.462572502 L118.2,115 C118.140784,115.048766 118.08159,115.097496 118.022417,115.146191 C116.44613,113.566529 114.771991,112.123859 113,110.818182 C93.4235604,96.3934369 61.4235604,90.7267702 17,93.8181818 C19.156452,51.1204326 13.779442,20.0018934 0.868970145,0.46256421 Z" id="path-6"></path>
        <filter x="-36.2%" y="-25.7%" width="172.4%" height="174.0%" filterUnits="objectBoundingBox" id="filter-7">
            <feOffset dx="0" dy="13" in="SourceAlpha" result="shadowOffsetOuter1"></feOffset>
            <feGaussianBlur stdDeviation="12" in="shadowOffsetOuter1" result="shadowBlurOuter1"></feGaussianBlur>
            <feColorMatrix values="0 0 0 0 0   0 0 0 0 0   0 0 0 0 0  0 0 0 0.33740942 0" type="matrix" in="shadowBlurOuter1"></feColorMatrix>
        </filter>
    </defs>
    <g id="msc-icon-master" stroke="none" stroke-width="1" fill="none" fill-rule="evenodd">
        <g id="Group-9" filter="url(#filter-1)" transform="translate(81.000000, 18.000000)">
            <g id="Group-8-Copy-2">
                <g id="Path-3">
                    <use fill="url(#linearGradient-2)" fill-rule="evenodd" xlink:href="#path-3"></use>
                    <use fill="black" fill-opacity="1" filter="url(#filter-4)" xlink:href="#path-3"></use>
                </g>
            </g>
            <g id="Group-8-Copy" transform="translate(215.000000, 28.000000)">
                <g id="Combined-Shape">
                    <use fill="black" fill-opacity="1" filter="url(#filter-7)" xlink:href="#path-6"></use>
                    <use fill="url(#linearGradient-5)" fill-rule="evenodd" xlink:href="#path-6"></use>
                </g>
            </g>
        </g>
        <path d="M287.759107,329.283512 C287.814801,334.577771 288.14071,339.282771 289.754696,343.158673 C291.579875,347.453969 294.042321,351.054229 297.112716,353.958665 C300.349424,356.740912 304.000848,358.813932 308.067255,360.177464 C312.28585,361.445609 316.711802,362.058922 321.34538,362.058922 C327.818529,362.058922 333.489697,360.88669 338.413523,358.540647 C343.323755,356.032211 347.404022,352.799834 350.626604,348.777034 C353.987513,344.631781 356.51899,339.844836 358.219967,334.431175 C359.893759,329.044843 360.737318,323.371825 360.737318,317.412647 L360.737318,256.988922 L364.942319,256.988922 L364.942319,317.412646 C364.942319,331.372829 361.998698,337.503593 361.998698,337.503593 C360.034391,345.821953 354.46456,352.507215 347.742474,357.894072 C341.131264,363.307733 332.02353,366 321.34538,366 C315.729916,366 310.529168,365.23638 305.757263,363.722804 C301.137812,362.058922 297.057278,359.645873 293.544448,356.46789 C290.183272,353.12725 287.513735,349.103924 285.535835,344.399752 C284.194137,340.853886 283.862044,337.036049 283.640826,332.795147 C283.626967,331.199586 283.626967,329.304201 283.626967,327.653983 L283.633073,327.653054 L283.488906,293.535203 C283.488906,288.271324 283.004892,283.498305 282.036332,279.189345 C281.192773,274.920851 279.574419,271.239131 277.181537,268.191221 C274.941108,265.157238 271.842728,262.804626 267.914648,261.134175 C264.124896,259.463723 259.269835,258.645709 253.377715,258.645709 C248.177234,258.645709 243.47436,259.682088 239.269625,261.754583 C235.06489,263.690961 231.468637,266.398054 228.508585,269.861672 C225.576518,273.311626 223.321963,277.334426 221.786766,281.90327 C220.237709,286.321281 219.462914,291.025979 219.462914,296.030501 L219.462914,363.722804 L215.258446,363.722804 L215.258446,295.19856 C215.258446,290.207439 214.829603,285.489078 213.985778,281.070803 C213.294139,276.639128 211.883144,272.766371 209.781043,269.425468 C207.678675,266.118463 204.718623,263.486786 200.928871,261.550145 C197.139119,259.620599 192.215027,258.645709 186.18458,258.645709 C180.845504,258.645709 175.790572,259.778545 171.447509,262.260441 C167.076728,264.61279 163.235825,267.941893 160.151571,272.093978 C157.191518,276.116778 154.895652,280.821738 153.208001,286.221734 C151.658944,291.621993 151.218594,297.325712 151.218594,303.298817 L151.218594,363.722804 L147,363.722804 L147,303.298818 C147,283.231805 152.725477,275.558122 154.828111,272.093978 C156.930479,268.63036 160.410203,265.365838 163.480864,262.733898 C166.578978,260.102221 170.193254,258.102863 173.844678,256.725667 C177.63443,255.198427 181.965719,254.479435 186.18458,254.479435 C194.621502,254.206939 201.634102,256.354587 207.249833,260.929737 C213.017484,265.361675 216.793643,271.51189 219.034338,279.407447 C221.150298,271.93443 225.299862,265.914025 231.468637,261.338875 C237.651538,256.770557 244.940527,254.479435 253.377715,254.479435 C259.988926,254.479435 265.452469,255.454587 269.809658,257.390966 C274.16658,259.341008 277.665817,262.034174 280.335354,265.484391 C283.004892,268.825294 284.899635,272.902751 286.033975,277.757492 C287.154189,282.462189 287.721359,287.711879 287.721359,293.535203 L287.759107,329.283512 Z M320.059274,226.353994 C320.059274,223.728887 322.230672,221.601735 324.886084,221.601735 C327.555622,221.601735 329.71316,223.728887 329.71316,226.353994 C329.71316,228.985934 327.555622,231.113086 324.886084,231.113086 C322.230672,231.113086 320.059274,228.985934 320.059274,226.353994 Z M295.843431,199.772192 C303.482695,193.56166 314.019107,190 324.751147,190 C335.367817,190 345.192184,193.366433 352.414635,199.478998 C360.647946,206.447361 365,216.51157 365,228.583628 L361.178219,228.583628 C361.178219,217.644076 357.28669,208.56872 349.925222,202.33817 C343.395231,196.811521 334.455128,193.767955 324.751147,193.767955 C305.636985,193.767955 286.287067,205.726975 286.287067,228.583628 L282.465285,228.583628 C282.465285,216.849979 287.091313,206.887034 295.843431,199.772192 Z" id="Logo" stroke="#1E7DBB" stroke-width="13.2765013" fill="#1E7DBB"></path>
        <text id="MSCZ" font-family="HelveticaNeue-Medium, Helvetica Neue" font-size="83" font-weight="400" fill="#424242">
            <tspan x="134.6065" y="456">MSCZ</tspan>
        </text>
    </g>
</svg>