<?xml version="1.0" encoding="UTF-8" standalone="no"?>
<svg xmlns:rdf="http://www.w3.org/1999/02/22-rdf-syntax-ns#" xmlns="http://www.w3.org/2000/svg" height="48" width="48" version="1.0" xmlns:cc="http://creativecommons.org/ns#" xmlns:xlink="http://www.w3.org/1999/xlink" xmlns:dc="http://purl.org/dc/elements/1.1/">
 <defs>
  <linearGradient id="f" x1="302.86" gradientUnits="userSpaceOnUse" y1="366.65" gradientTransform="matrix(.067325 0 0 .0147 -.34114 37.04)" x2="302.86" y2="609.51">
   <stop stop-opacity="0" offset="0"/>
   <stop offset=".5"/>
   <stop stop-opacity="0" offset="1"/>
  </linearGradient>
  <radialGradient id="c" xlink:href="#a" gradientUnits="userSpaceOnUse" cy="486.65" cx="605.71" gradientTransform="matrix(-.023040 0 0 .0147 21.623 37.04)" r="117.14"/>
  <linearGradient id="a">
   <stop offset="0"/>
   <stop stop-opacity="0" offset="1"/>
  </linearGradient>
  <radialGradient id="d" xlink:href="#a" gradientUnits="userSpaceOnUse" cy="486.65" cx="605.71" gradientTransform="matrix(.023040 0 0 .0147 26.361 37.04)" r="117.14"/>
  <linearGradient id="g" x1="-51.786" gradientUnits="userSpaceOnUse" y1="50.786" gradientTransform="matrix(.80750 0 0 .89483 59.41 -2.9806)" x2="-51.786" y2="2.9062">
   <stop stop-color="#aaa" offset="0"/>
   <stop stop-color="#c8c8c8" offset="1"/>
  </linearGradient>
  <linearGradient id="h" x1="25.132" gradientUnits="userSpaceOnUse" y1=".98521" gradientTransform="matrix(1 0 0 .95617 -1.0065e-7 -1.9149)" x2="25.132" y2="47.013">
   <stop stop-color="#f8f2e5" offset="0"/>
   <stop stop-color="#efe2c7" offset="1"/>
  </linearGradient>
  <radialGradient id="e" gradientUnits="userSpaceOnUse" cy="112.3" cx="102" gradientTransform="matrix(.36170 0 0 -.39078 .85106 47.517)" r="139.56">
   <stop stop-opacity=".28125" offset="0"/>
   <stop stop-opacity=".078125" offset=".18851"/>
   <stop stop-opacity=".023438" offset=".25718"/>
   <stop stop-opacity="0" offset=".30111"/>
   <stop stop-color="#e1e2e3" stop-opacity="0" offset="1"/>
  </radialGradient>
  <linearGradient id="i" x1="24" gradientUnits="userSpaceOnUse" y1="2" gradientTransform="matrix(1 0 0 .97778 0 -.96667)" x2="24" y2="46.017">
   <stop stop-color="#fff" offset="0"/>
   <stop stop-color="#fff" stop-opacity="0" offset="1"/>
  </linearGradient>
  <filter id="k" width="1.2969" y="-.16434" x="-.14846" height="1.3287" color-interpolation-filters="sRGB">
   <feGaussianBlur stdDeviation="0.77391625"/>
  </filter>
  <linearGradient id="j" x1="32.892" gradientUnits="userSpaceOnUse" y1="8.059" gradientTransform="matrix(.99770 0 0 1.0407 .16380 -1.1058)" x2="36.358" y2="5.4565">
   <stop stop-color="#fefefe" offset="0"/>
   <stop stop-color="#cbcbcb" offset="1"/>
  </linearGradient>
  <filter id="l" height="200%" width="200%" y="-50%" x="-50%" filterUnits="objectBoundingBox">
   <feMorphology operator="dilate" in="SourceAlpha" radius="1" result="shadowSpreadOuter1"/>
   <feOffset dy="10" in="shadowSpreadOuter1" dx="0" result="shadowOffsetOuter1"/>
   <feGaussianBlur in="shadowOffsetOuter1" stdDeviation="2.5" result="shadowBlurOuter1"/>
   <feColorMatrix values="0 0 0 0 0   0 0 0 0 0   0 0 0 0 0  0 0 0 0.28 0" in="shadowBlurOuter1" type="matrix" result="shadowMatrixOuter1"/>
   <feMerge>
    <feMergeNode in="shadowMatrixOuter1"/>
    <feMergeNode in="SourceGraphic"/>
   </feMerge>
  </filter>
  <linearGradient id="b" x1="314" gradientUnits="userSpaceOnUse" y1="-12.58" gradientTransform="matrix(1.1101 0 0 .90080 -645.1 241.27)" x2="314" y2="631.64">
   <stop stop-color="#1B75C0" offset="0"/>
   <stop stop-color="#2A567B" offset="1"/>
  </linearGradient>
 </defs>
 <rect opacity=".3" height="3.5701" width="32.508" y="42.43" x="7.7378" fill="url(#f)"/>
 <path opacity=".3" fill="url(#c)" d="m7.7378 42.43v3.5699c-1.1865 0.0067-2.8684-0.79982-2.8684-1.7852 0-0.98533 1.324-1.7847 2.8684-1.7847z"/>
 <path opacity=".3" fill="url(#d)" d="m40.246 42.43v3.5699c1.1865 0.0067 2.8684-0.79982 2.8684-1.7852 0-0.98533-1.324-1.7847-2.8684-1.7847z"/>
 <path stroke-linejoin="round" d="m6.5 0.4972h24.061c1.4069 0.47465 8.9655 5.8822 10.939 9.6264v34.379h-35v-44.006z" stroke="url(#g)" stroke-width=".99992" fill="url(#h)"/>
 <path fill="url(#e)" d="m7.3617 44c-0.1993 0-0.3617-0.17546-0.3617-0.39078v-42.204c0-0.21571 0.1624-0.39078 0.3617-0.39078 7.4833 0.1082 15.775-0.16138 23.249 0.0271l10.283 8.866 0.106 33.702c0 0.216-0.162 0.391-0.362 0.391h-33.276z"/>
 <path opacity=".6" stroke-linejoin="round" d="m40.5 10.259v33.263h-33v-42.045h22.866" stroke="url(#i)" stroke-width=".99992" fill="none"/>
 <g opacity=".4">
  <path d="m10.185 40.916h1.37v-5.54l1.93 5.54h1.12l1.93-5.54v5.54h1.37v-7.39h-1.88l-1.97 5.6-1.99-5.6h-1.88v7.39z"/>
  <path d="m18.649 38.806c0.05 0.58 0.18 0.95 0.48 1.34 0.44 0.57 1.17 0.9 1.95 0.9 1.33 0 2.36-1.03 2.36-2.37 0-0.61-0.23-1.14-0.66-1.54-0.29-0.27-0.53-0.4-1.25-0.67-0.7-0.26-0.72-0.27-0.82-0.33-0.27-0.17-0.41-0.4-0.41-0.67 0-0.44 0.31-0.75 0.76-0.75 0.46 0 0.74 0.28 0.78 0.78h1.42c-0.03-0.56-0.16-0.94-0.46-1.31-0.4-0.5-1.04-0.79-1.73-0.79-1.19 0-2.15 0.93-2.15 2.1 0 0.93 0.55 1.64 1.54 2.01s1.05 0.4 1.28 0.57c0.22 0.18 0.34 0.44 0.34 0.75 0 0.53-0.41 0.9-1 0.9-0.61 0-0.94-0.3-1-0.92h-1.43z"/>
  <path d="m29.694 38.856c-0.6 0.63-1.12 0.87-1.83 0.87-1.36 0-2.48-1.14-2.48-2.52 0-0.6 0.23-1.24 0.61-1.68 0.45-0.53 1.09-0.81 1.84-0.81 0.86 0 1.44 0.28 1.94 0.93h1.53c-0.29-0.64-0.55-0.99-1.05-1.4-0.68-0.55-1.55-0.85-2.45-0.85-2.09 0-3.8 1.71-3.8 3.8 0 2.13 1.73 3.85 3.89 3.85 1.51 0 2.83-0.84 3.41-2.19h-1.61z"/>
  <path d="m31.547 40.916h1.63l1.72-2.55 1.77 2.55h1.59l-2.56-3.68 2.56-3.71h-1.59l-1.77 2.58-1.72-2.58h-1.63l2.54 3.71-2.54 3.68z"/>
 </g>
 <path d="m114.4 558.1-0.461-109.01c0-16.818-1.5479-32.068-4.6454-45.834-2.6977-13.638-7.8732-25.401-15.526-35.139-7.1649-9.6935-17.074-17.21-29.636-22.547-12.12-5.337-27.646-7.9505-46.489-7.9505-16.631 0-31.671 3.3112-45.118 9.9327-13.447 6.1867-24.948 14.836-34.414 25.902-9.3768 11.022-16.587 23.875-21.496 38.472-4.9539 14.115-7.4317 29.147-7.4317 45.136v216.27h-13.446v-218.93c0-15.946-1.3714-31.021-4.07-45.138-2.2118-14.159-6.7242-26.532-13.447-37.206-6.7233-10.566-16.19-18.974-28.309-25.161-12.12-6.1649-27.867-9.2796-47.152-9.2796-17.074 0-33.24 3.6194-47.129 11.549-13.978 7.5157-26.261 18.152-36.125 31.418-9.4663 12.853-16.808 27.885-22.206 45.138-4.9539 17.254-6.3622 35.477-6.3622 54.561v193.05h-13.491v-193.05c0-64.113 18.31-88.63 25.034-99.698 6.7234-11.066 17.852-21.496 27.672-29.905 9.9078-8.4081 21.466-14.796 33.144-19.196 12.12-4.8794 25.971-7.1766 39.463-7.1766 26.981-0.8706 49.408 5.991 67.367 20.608 18.445 14.16 30.521 33.81 37.687 59.036 6.7669-23.876 20.037-43.111 39.765-57.728 19.773-14.596 43.083-21.916 70.066-21.916 21.143 0 38.615 3.1156 52.55 9.3022 13.934 6.2303 25.124 14.835 33.661 25.858 8.5372 10.674 14.597 23.701 18.224 39.212 3.5825 15.031 5.3963 31.804 5.3963 50.409l0.1207 114.21c0.1781 16.915 1.2204 31.947 6.3819 44.331 5.837 13.723 13.712 25.226 23.531 34.506 10.351 8.8892 22.028 15.512 35.033 19.869 13.491 4.0517 27.645 6.0112 42.464 6.0112 20.701 0 38.838-3.7452 54.584-11.241 15.703-8.0144 28.752-18.342 39.058-31.194 10.748-13.244 18.844-28.538 24.284-45.834 5.3528-17.209 8.0505-35.334 8.0505-54.374v-193.05h13.448v193.05c0 44.602-9.4138 64.19-9.4138 64.19-6.2819 26.577-24.094 47.936-45.592 65.147-21.143 17.296-50.269 25.898-84.418 25.898-17.958 0-34.59-2.4397-49.851-7.2755-14.773-5.3161-27.823-13.026-39.057-23.179-10.749-10.673-19.286-23.528-25.612-38.557-4.2908-11.329-5.3528-23.527-6.0603-37.076-0.044-5.0977-0.044-11.153-0.044-16.426h0.019zm116.49-323.65c0-8.3871 6.9442-15.183 15.436-15.183 8.5373 0 15.437 6.7962 15.437 15.183 0 8.409-6.8998 15.205-15.437 15.205-8.492 0-15.436-6.7962-15.436-15.205zm-77.442-84.928c-27.989 22.732-42.784 54.563-42.784 92.051h12.222c0-73.026 61.881-111.23 123.01-111.23 31.034 0 59.624 9.7241 80.507 27.382 23.542 19.906 35.987 48.902 35.987 83.853h12.222c0-38.57-13.918-70.724-40.248-92.988-23.098-19.529-54.516-30.285-88.468-30.285-34.321 0-68.017 11.379-92.447 31.222z" fill-rule="evenodd" transform="matrix(.036268 0 0 .036268 23.111 6.0239)" filter="url(#l)" stroke="url(#b)" stroke-width="18" fill="url(#b)"/>
 <g fill-rule="evenodd">
  <path opacity=".4" d="m28.617 0.92126c4.2825 0 2.1532 8.4832 2.1532 8.4832s10.358-1.8023 10.358 2.8187c0-2.6097-11.302-10.729-12.511-11.302z" filter="url(#k)"/>
  <path fill="url(#j)" d="m28.617 0.92126c3.1865 0 2.3358 7.6619 2.3358 7.6619s10.175-0.98105 10.175 3.64c0-1.1259 0.08591-1.9322-0.13378-2.2836-1.578-2.5243-8.395-8.1885-10.857-8.9309-0.184-0.05556-0.593-0.08754-1.52-0.08754z"/>
 </g>
</svg>
