<svg width="512" height="512" viewBox="0 0 512 512" fill="none" xmlns="http://www.w3.org/2000/svg">
<g filter="url(#filter0_d)">
<path d="M81 494.818V18.8182C171 16.8182 233.667 18.4848 269 23.8182C301.667 34.4848 316.333 72.8182 313 138.818C357.424 135.727 389.424 141.393 409 155.818C421.667 165.152 429.333 181.485 432 204.818V494.818H81Z" fill="url(#paint0_linear)"/>
<g filter="url(#filter1_i)">
<path d="M81 494.818V18.8182C171 16.8182 233.667 18.4848 269 23.8182C301.667 34.4848 316.333 72.8182 313 138.818C357.424 135.727 389.424 141.393 409 155.818C421.667 165.152 429.333 181.485 432 204.818V494.818H81Z" fill="white"/>
</g>
<g filter="url(#filter2_d)">
<path d="M296.869 46.4626L414.2 161C414.141 161.049 414.082 161.097 414.022 161.146C412.446 159.567 410.772 158.124 409 156.818C389.424 142.393 357.424 136.727 313 139.818C315.156 97.1204 309.779 66.0019 296.869 46.4626L296.869 46.4626Z" fill="black"/>
</g>
<path d="M296.869 46.4626L414.2 161C414.141 161.049 414.082 161.097 414.022 161.146C412.446 159.567 410.772 158.124 409 156.818C389.424 142.393 357.424 136.727 313 139.818C315.156 97.1204 309.779 66.0019 296.869 46.4626L296.869 46.4626Z" fill="url(#paint1_linear)"/>
</g>
<path d="M140.749 395.738H155.357L171.708 442.135H171.874L187.81 395.738H202.252V455H192.375V409.267H192.209L175.775 455H167.226L150.792 409.267H150.626V455H140.749V395.738ZM221.48 435.246C221.48 437.515 221.868 439.451 222.642 441.056C223.417 442.661 224.496 443.989 225.879 445.04C227.263 446.036 228.84 446.783 230.61 447.281C232.436 447.724 234.401 447.945 236.503 447.945C238.772 447.945 240.709 447.696 242.313 447.198C243.918 446.645 245.218 445.953 246.214 445.123C247.21 444.293 247.93 443.352 248.372 442.301C248.815 441.194 249.036 440.088 249.036 438.981C249.036 436.712 248.511 435.052 247.459 434.001C246.463 432.894 245.357 432.12 244.139 431.677C242.037 430.902 239.574 430.183 236.752 429.519C233.986 428.8 230.555 427.887 226.46 426.78C223.915 426.116 221.785 425.258 220.069 424.207C218.409 423.1 217.081 421.883 216.085 420.555C215.089 419.227 214.37 417.816 213.927 416.322C213.54 414.828 213.346 413.306 213.346 411.757C213.346 408.769 213.955 406.196 215.172 404.038C216.445 401.825 218.105 399.999 220.152 398.56C222.2 397.121 224.524 396.07 227.124 395.406C229.725 394.687 232.353 394.327 235.009 394.327C238.108 394.327 241.013 394.742 243.724 395.572C246.491 396.347 248.898 397.536 250.945 399.141C253.048 400.746 254.708 402.738 255.925 405.117C257.143 407.441 257.751 410.152 257.751 413.251H247.376C247.1 409.433 245.799 406.749 243.475 405.2C241.151 403.595 238.191 402.793 234.594 402.793C233.377 402.793 232.132 402.931 230.859 403.208C229.587 403.429 228.425 403.844 227.373 404.453C226.322 405.006 225.437 405.781 224.717 406.777C224.053 407.773 223.721 409.018 223.721 410.512C223.721 412.615 224.358 414.275 225.63 415.492C226.958 416.654 228.674 417.539 230.776 418.148C230.998 418.203 231.855 418.452 233.349 418.895C234.899 419.282 236.614 419.725 238.495 420.223C240.377 420.721 242.203 421.219 243.973 421.717C245.799 422.16 247.1 422.492 247.874 422.713C249.811 423.322 251.499 424.152 252.937 425.203C254.376 426.254 255.566 427.472 256.506 428.855C257.502 430.183 258.222 431.622 258.664 433.171C259.162 434.72 259.411 436.27 259.411 437.819C259.411 441.139 258.72 443.989 257.336 446.368C256.008 448.692 254.238 450.601 252.024 452.095C249.811 453.589 247.293 454.668 244.471 455.332C241.649 456.051 238.772 456.411 235.839 456.411C232.464 456.411 229.282 455.996 226.294 455.166C223.306 454.336 220.706 453.063 218.492 451.348C216.279 449.633 214.508 447.447 213.18 444.791C211.852 442.08 211.161 438.898 211.105 435.246H221.48ZM308.501 414.579C308.058 412.864 307.449 411.287 306.675 409.848C305.9 408.409 304.904 407.164 303.687 406.113C302.469 405.062 301.031 404.259 299.371 403.706C297.766 403.097 295.885 402.793 293.727 402.793C290.573 402.793 287.834 403.429 285.51 404.702C283.241 405.975 281.387 407.69 279.949 409.848C278.51 411.951 277.431 414.358 276.712 417.069C276.048 419.78 275.716 422.547 275.716 425.369C275.716 428.191 276.048 430.958 276.712 433.669C277.431 436.38 278.51 438.815 279.949 440.973C281.387 443.076 283.241 444.763 285.51 446.036C287.834 447.309 290.573 447.945 293.727 447.945C296.051 447.945 298.098 447.558 299.869 446.783C301.639 445.953 303.161 444.846 304.434 443.463C305.706 442.024 306.702 440.364 307.422 438.483C308.141 436.602 308.611 434.582 308.833 432.424H318.959C318.737 435.965 317.963 439.202 316.635 442.135C315.362 445.068 313.619 447.613 311.406 449.771C309.192 451.874 306.592 453.506 303.604 454.668C300.616 455.83 297.323 456.411 293.727 456.411C289.3 456.411 285.316 455.609 281.775 454.004C278.289 452.344 275.328 450.103 272.894 447.281C270.459 444.459 268.578 441.167 267.25 437.404C265.977 433.641 265.341 429.63 265.341 425.369C265.341 421.164 265.977 417.18 267.25 413.417C268.578 409.654 270.459 406.362 272.894 403.54C275.328 400.718 278.289 398.477 281.775 396.817C285.316 395.157 289.3 394.327 293.727 394.327C297.047 394.327 300.173 394.797 303.106 395.738C306.038 396.623 308.611 397.951 310.825 399.722C313.093 401.437 314.919 403.54 316.303 406.03C317.686 408.52 318.544 411.37 318.876 414.579H308.501ZM323.248 395.738H335.615L349.061 416.654L363.088 395.738H374.708L355.12 424.29L376.119 455H363.503L348.729 432.341L333.706 455H321.837L342.836 424.29L323.248 395.738Z" fill="#424242"/>
<path d="M218.046 262.009C210.797 251.986 196.509 245.406 183.195 245.406C161.195 245.406 140.737 258.921 140.737 296.008V358.186C140.737 362.4 144.155 365.793 148.369 365.793C152.586 365.793 156.004 362.375 156.004 358.186V296.008C155.997 267.822 169.598 260.647 183.195 260.647C196.791 260.647 210.388 271.949 210.388 291.024V358.186C210.388 362.4 213.806 365.793 218.02 365.793H218.053H218.086C222.3 365.793 225.719 362.4 225.719 358.186V291.024C225.719 271.949 239.315 260.647 252.912 260.647C261.544 260.647 280.102 264.481 280.102 291.024L280.618 313.581C280.618 355.262 308.595 365.793 326.398 365.793C344.201 365.793 370.87 353.496 371.414 316.618V257.607C371.414 247.455 356.103 247.455 356.103 257.607V316.618C356.103 344.595 335.299 350.554 326.398 350.554C317.496 350.554 295.878 346.36 295.878 313.581L295.369 292.258C295.369 260.644 275.532 244.134 252.912 244.134C239.597 244.134 225.294 251.986 218.046 262.009Z" fill="#1F74BD"/>
<path d="M294.206 223.788C294.206 208.528 305.445 191.997 324.879 191.997C344.312 191.997 355.513 208.528 355.513 223.788C355.513 235.233 370.808 235.233 370.808 223.788C370.808 197.083 350.67 176.737 324.879 176.737C299.087 176.737 278.954 197.083 278.954 223.788C278.957 235.233 294.206 235.233 294.206 223.788Z" fill="#1F74BD"/>
<path d="M336.423 224.214C336.423 218.649 331.916 214.142 326.351 214.142C320.787 214.142 316.28 218.649 316.28 224.214C316.28 229.779 320.787 234.285 326.351 234.285C331.916 234.285 336.423 229.779 336.423 224.214Z" fill="#1F74BD"/>
<defs>
<filter id="filter0_d" x="67" y="7" width="379" height="504.818" filterUnits="userSpaceOnUse" color-interpolation-filters="sRGB">
<feFlood flood-opacity="0" result="BackgroundImageFix"/>
<feColorMatrix in="SourceAlpha" type="matrix" values="0 0 0 0 0 0 0 0 0 0 0 0 0 0 0 0 0 0 127 0"/>
<feOffset dy="3"/>
<feGaussianBlur stdDeviation="7"/>
<feColorMatrix type="matrix" values="0 0 0 0 0 0 0 0 0 0 0 0 0 0 0 0 0 0 0.547045 0"/>
<feBlend mode="normal" in2="BackgroundImageFix" result="effect1_dropShadow"/>
<feBlend mode="normal" in="SourceGraphic" in2="effect1_dropShadow" result="shape"/>
</filter>
<filter id="filter1_i" x="81" y="18" width="351" height="492.818" filterUnits="userSpaceOnUse" color-interpolation-filters="sRGB">
<feFlood flood-opacity="0" result="BackgroundImageFix"/>
<feBlend mode="normal" in="SourceGraphic" in2="BackgroundImageFix" result="shape"/>
<feColorMatrix in="SourceAlpha" type="matrix" values="0 0 0 0 0 0 0 0 0 0 0 0 0 0 0 0 0 0 127 0" result="hardAlpha"/>
<feOffset dy="16"/>
<feGaussianBlur stdDeviation="29"/>
<feComposite in2="hardAlpha" operator="arithmetic" k2="-1" k3="1"/>
<feColorMatrix type="matrix" values="0 0 0 0 0 0 0 0 0 0 0 0 0 0 0 0 0 0 0.0463089 0"/>
<feBlend mode="normal" in2="shape" result="effect1_innerShadow"/>
</filter>
<filter id="filter2_d" x="272.869" y="35.4626" width="165.331" height="162.684" filterUnits="userSpaceOnUse" color-interpolation-filters="sRGB">
<feFlood flood-opacity="0" result="BackgroundImageFix"/>
<feColorMatrix in="SourceAlpha" type="matrix" values="0 0 0 0 0 0 0 0 0 0 0 0 0 0 0 0 0 0 127 0"/>
<feOffset dy="13"/>
<feGaussianBlur stdDeviation="12"/>
<feColorMatrix type="matrix" values="0 0 0 0 0 0 0 0 0 0 0 0 0 0 0 0 0 0 0.337409 0"/>
<feBlend mode="normal" in2="BackgroundImageFix" result="effect1_dropShadow"/>
<feBlend mode="normal" in="SourceGraphic" in2="effect1_dropShadow" result="shape"/>
</filter>
<linearGradient id="paint0_linear" x1="432" y1="-87.3437" x2="127.878" y2="214.761" gradientUnits="userSpaceOnUse">
<stop stop-color="#BBBBBB"/>
<stop offset="0.29298" stop-color="#D9D9D9"/>
<stop offset="0.637162" stop-color="#F5F5F5"/>
<stop offset="1" stop-color="white"/>
</linearGradient>
<linearGradient id="paint1_linear" x1="342.965" y1="89.1914" x2="319.17" y2="124.162" gradientUnits="userSpaceOnUse">
<stop stop-color="#DEDEDE"/>
<stop offset="0.445532" stop-color="#EEEEEE"/>
<stop offset="1" stop-color="#F8F8F8"/>
</linearGradient>
</defs>
</svg>
