<svg width="1024" height="1024" viewBox="0 0 1024 1024" fill="none" xmlns="http://www.w3.org/2000/svg">
<path fill-rule="evenodd" clip-rule="evenodd" d="M512 1024C794.77 1024 1024 794.77 1024 512C1024 229.23 794.77 0 512 0C229.23 0 0 229.23 0 512C0 794.77 229.23 1024 512 1024Z" fill="url(#paint0_linear)"/>
<path d="M402.927 450.435C382.154 421.708 341.205 402.851 303.048 402.851C240 402.851 181.368 441.583 181.368 547.872V726.068C181.368 738.145 191.165 747.869 203.242 747.869C215.327 747.869 225.123 738.072 225.123 726.068V547.872C225.101 467.094 264.082 446.531 303.048 446.531C342.014 446.531 380.981 478.922 380.981 533.588V726.068C380.981 738.145 390.777 747.869 402.854 747.869H402.949H403.044C415.122 747.869 424.918 738.145 424.918 726.068V533.588C424.918 478.922 463.884 446.531 502.85 446.531C527.588 446.531 580.775 457.518 580.775 533.588L582.255 598.235C582.255 717.687 662.432 747.869 713.454 747.869C764.476 747.869 840.907 712.627 842.466 606.939V437.817C842.466 408.725 798.588 408.725 798.588 437.817V606.939C798.588 687.116 738.965 704.194 713.454 704.194C687.943 704.194 625.988 692.176 625.988 598.235L624.53 537.126C624.53 446.521 567.677 399.207 502.85 399.207C464.693 399.207 423.701 421.708 402.927 450.435Z" fill="white"/>
<path d="M621.197 340.896C621.197 297.163 653.406 249.786 709.1 249.786C764.794 249.786 796.895 297.163 796.895 340.896C796.895 373.696 840.73 373.696 840.73 340.896C840.73 264.363 783.017 206.053 709.1 206.053C635.184 206.053 577.486 264.363 577.486 340.896C577.493 373.696 621.197 373.696 621.197 340.896Z" fill="white"/>
<path d="M742.185 342.117C742.185 326.168 729.269 313.253 713.321 313.253C697.373 313.253 684.457 326.168 684.457 342.117C684.457 358.065 697.373 370.98 713.321 370.98C729.269 370.98 742.185 358.065 742.185 342.117Z" fill="white"/>
<defs>
<linearGradient id="paint0_linear" x1="239.484" y1="-58.0267" x2="1107.04" y2="1029.03" gradientUnits="userSpaceOnUse">
<stop stop-color="#208EBB"/>
<stop offset="1" stop-color="#2162B2"/>
</linearGradient>
</defs>
</svg>
