<svg fill="none" height="1024" viewBox="0 0 1024 1024" width="1024" xmlns="http://www.w3.org/2000/svg" xmlns:xlink="http://www.w3.org/1999/xlink"><linearGradient id="a" gradientUnits="userSpaceOnUse" x1="239.484" x2="1107.04" y1="-58.0267" y2="1029.03"><stop offset="0" stop-color="#208ebb"/><stop offset="1" stop-color="#2162b2"/></linearGradient><path clip-rule="evenodd" d="m512 1024c282.77 0 512-229.23 512-512s-229.23-512-512-512-512 229.23-512 512 229.23 512 512 512z" fill="url(#a)" fill-rule="evenodd"/><g fill="#fff"><path d="m402.927 450.435c-20.773-28.727-61.722-47.584-99.879-47.584-63.048 0-121.68 38.732-121.68 145.021v178.196c0 12.077 9.797 21.801 21.874 21.801 12.085 0 21.881-9.797 21.881-21.801v-178.196c-.022-80.778 38.959-101.341 77.925-101.341s77.933 32.391 77.933 87.057v192.48c0 12.077 9.796 21.801 21.873 21.801h.095.095c12.078 0 21.874-9.724 21.874-21.801v-192.48c0-54.666 38.966-87.057 77.932-87.057 24.738 0 77.925 10.987 77.925 87.057l1.48 64.647c0 119.452 80.177 149.634 131.199 149.634s127.453-35.242 129.012-140.93v-169.122c0-29.092-43.878-29.092-43.878 0v169.122c0 80.177-59.623 97.255-85.134 97.255s-87.466-12.018-87.466-105.959l-1.458-61.109c0-90.605-56.853-137.919-121.68-137.919-38.157 0-79.149 22.501-99.923 51.228z"/><path d="m621.197 340.896c0-43.733 32.209-91.11 87.903-91.11s87.795 47.377 87.795 91.11c0 32.8 43.835 32.8 43.835 0 0-76.533-57.713-134.843-131.63-134.843-73.916 0-131.614 58.31-131.614 134.843.007 32.8 43.711 32.8 43.711 0z"/><path d="m742.185 342.117c0-15.949-12.916-28.864-28.864-28.864s-28.864 12.915-28.864 28.864c0 15.948 12.916 28.863 28.864 28.863s28.864-12.915 28.864-28.863z"/></g></svg>