<?xml version="1.0" encoding="UTF-8"?>
<!-- Generated by Pixelmator Pro 3.5.6 -->
<svg width="512" height="512" viewBox="0 0 512 512" xmlns="http://www.w3.org/2000/svg">
    <linearGradient id="linearGradient1" x1="80.281128" y1="69.528076" x2="444.852295" y2="433.857727" gradientUnits="userSpaceOnUse">
        <stop offset="0" stop-color="#508bff" stop-opacity="1"/>
        <stop offset="1" stop-color="#1043a9" stop-opacity="1"/>
    </linearGradient>
    <path id="Ellipse" fill="url(#linearGradient1)" fill-rule="evenodd" stroke="none" d="M 511.5 256 C 511.5 114.891235 397.108765 0.5 256 0.5 C 114.891243 0.5 0.5 114.891235 0.5 256 C 0.5 397.108765 114.891243 511.5 256 511.5 C 397.108765 511.5 511.5 397.108765 511.5 256 Z"/>
    <path id="Rectangle-copy-5" fill="#ffffff" fill-rule="evenodd" stroke="none" d="M 356.577393 378.002625 C 313.996643 378.002625 293.409363 343.234131 292.542542 307.575134 C 292.52359 307.36615 292.513641 307.161011 292.513641 306.960754 C 292.513641 299.455078 291.982941 285.399353 291.982941 280.501312 C 291.982941 278.005035 291.736694 271.870483 291.679688 269.811401 C 291.679688 235.391449 271.361176 224.019073 250.663727 224.019073 C 227.540253 224.019073 210.633377 245.323303 210.633377 270.493713 C 210.633377 272.967224 210.633377 277.600647 210.633377 280.501312 C 210.633377 280.501312 210.633377 299.877686 210.633377 310.496979 C 210.633377 330.851837 210.633377 351.32077 210.633377 367.991913 C 210.633377 373.67804 206.236084 377.999512 200.853226 377.999512 C 200.840561 377.999512 200.827957 377.999268 200.815323 377.999207 C 200.802673 377.999268 200.79007 377.999512 200.777405 377.999512 C 195.394577 377.999512 190.997269 373.67804 190.997269 367.991913 C 190.997269 351.32074 190.997269 330.851837 190.997269 310.496979 C 190.997269 299.877686 190.997269 280.501312 190.997269 280.501312 C 190.997269 277.600647 190.997269 272.967224 190.997269 270.493713 C 190.997269 245.323303 174.090393 223.943268 150.966904 223.943268 C 117.911736 223.943268 110.957794 250.735046 110.026764 272.843994 C 110.026764 274.882996 110.026764 278.005035 110.026764 280.501312 C 110.026764 291.149292 110.026764 304.204834 110.026764 313.164124 C 110.026764 333.595459 110.026764 352.094147 110.026764 367.991913 C 110.026764 373.67804 105.629471 377.999512 100.24662 377.999512 C 94.863777 377.999512 90.466476 373.67804 90.466476 367.991913 C 90.466476 348.646667 90.466476 319.51944 90.466476 301.274658 C 90.466476 295.593872 90.466476 280.501312 90.466476 280.501312 C 90.466476 277.586426 90.466476 271.668854 90.466476 271.668854 C 91.409531 242.282257 103.313301 205.07132 150.208755 204.155518 C 169.779739 204.155518 189.613815 213.443756 200.877365 229.27002 C 212.743027 212.516968 233.647263 202.260162 251.42189 202.260162 C 278.942688 202.260162 311.164154 221.934326 311.164154 271.668854 C 311.164154 271.668854 311.998138 302.679688 311.998138 305.144318 C 311.998138 346.008575 338.760895 358.214874 356.577393 358.214874 C 375.152039 358.214874 401.535736 345.781128 401.535736 307.494568 C 401.535736 306.334747 401.535736 245.962616 401.535736 220.834839 C 401.535736 215.148712 405.933014 210.827271 411.315887 210.827271 C 416.698761 210.827271 421.096039 215.148712 421.096039 220.834839 C 421.096039 245.962616 421.096039 306.334747 421.096039 307.494568 C 421.096039 307.505707 421.096039 308.325439 421.096039 308.325439 L 421.092163 308.325439 C 420.70462 354.851135 387.779541 378.002625 356.577393 378.002625 Z M 355.127869 182.529999 C 348.977783 182.529999 343.992096 177.544281 343.992096 171.394226 C 343.992096 165.244141 348.977783 160.258575 355.127869 160.258575 C 361.277954 160.258575 366.263519 165.244141 366.263519 171.394226 C 366.263519 177.544281 361.277954 182.529999 355.127869 182.529999 Z M 299.845642 177.926605 C 298.516754 177.925415 290.011749 177.459106 290.011749 165.717255 C 290.011749 132.358673 315.637299 99 355.061096 99 C 394.484894 99 420.110443 132.358673 420.110443 165.717255 C 420.110443 178.454193 410.102844 177.923492 410.102844 177.923492 C 410.102844 177.923492 400.55014 178.454193 400.55014 165.717255 C 400.361603 145.199463 385.083832 118.78772 355.061096 118.78772 C 325.038361 118.78772 309.76059 145.199463 309.572052 165.717255 C 309.572052 178.454193 300.019348 177.923492 300.019348 177.923492 C 300.019348 177.923492 299.958252 177.926697 299.845642 177.926605 Z"/>
</svg>
