<?xml version="1.0" encoding="UTF-8"?>
<svg width="960px" height="960px" viewBox="0 0 960 960" version="1.1" xmlns="http://www.w3.org/2000/svg" xmlns:xlink="http://www.w3.org/1999/xlink">
    <!-- Generator: Sketch 52 (66869) - http://www.bohemiancoding.com/sketch -->
    <title>musescore-icon-round</title>
    <desc>Created with Sketch.</desc>
    <defs>
        <linearGradient x1="69.1086066%" y1="91.6752049%" x2="15.5737705%" y2="20.4405738%" id="linearGradient-1">
            <stop stop-color="#1D6DB8" offset="0%"></stop>
            <stop stop-color="#1E8CBD" offset="100%"></stop>
        </linearGradient>
    </defs>
    <g id="musescore-icon-round" stroke="none" stroke-width="1" fill="none" fill-rule="evenodd">
        <circle id="Oval" fill="url(#linearGradient-1)" cx="480" cy="480" r="480"></circle>
        <path d="M567.477136,592.461653 C567.631239,607.060434 568.533023,620.034348 572.998883,630.722046 C578.049111,642.566213 584.862641,652.493836 593.358351,660.502742 C602.314245,668.174713 612.41765,673.891013 623.669303,677.650916 C635.342054,681.147793 647.588561,682.838989 660.40956,682.838989 C678.320611,682.838989 694.0126,679.606588 707.63671,673.137438 C721.223208,666.220491 732.51321,657.307295 741.430018,646.214529 C750.729575,634.784104 757.734111,621.584227 762.440675,606.6562 C767.072017,591.803531 769.406125,576.160333 769.406125,559.728055 L769.406125,393.11122 L781.041265,393.11122 L781.041265,559.728052 C781.041265,598.222892 772.896334,615.128313 772.896334,615.128313 C767.461145,638.06597 752.049552,656.500405 733.4497,671.354524 C715.156637,686.28255 689.955751,693.706407 660.40956,693.706407 C644.871704,693.706407 630.481358,691.600745 617.277609,687.4271 C604.495695,682.838989 593.204956,676.185068 583.485038,667.421863 C574.184743,658.210136 566.798195,647.115921 561.325395,634.14429 C557.612946,624.366657 556.694053,613.839072 556.081949,602.144896 C556.0436,597.745179 556.0436,592.518703 556.0436,587.96827 L556.060495,587.965709 L555.661588,493.886631 C555.661588,479.371622 554.322334,466.210148 551.64235,454.328303 C549.308243,442.558044 544.830296,432.405797 538.209247,424.001265 C532.010033,415.635135 523.436889,409.147871 512.567985,404.541645 C502.081831,399.935419 488.64799,397.679767 472.344634,397.679767 C457.955025,397.679767 444.942282,400.537554 433.30788,406.252405 C421.673477,411.591917 411.722729,419.056655 403.532334,428.607491 C395.419374,438.120648 389.181074,449.213414 384.93322,461.81188 C380.647016,473.994431 378.503177,486.967511 378.503177,500.767349 L378.503177,687.4271 L366.869511,687.4271 L366.869511,498.473293 C366.869511,484.710409 365.682915,471.699651 363.348069,459.516375 C361.434322,447.296146 357.53013,436.617121 351.713667,427.404669 C345.896465,418.28569 337.70607,411.02891 327.219916,405.688673 C316.733761,400.368 303.108914,397.679767 286.422809,397.679767 C271.649714,397.679767 257.662834,400.803532 245.645682,407.647295 C233.551832,414.133835 222.924145,423.31375 214.390087,434.763014 C206.199691,445.85578 199.847083,458.829584 195.177393,473.719932 C190.891189,488.611005 189.672751,504.338859 189.672751,520.80954 L189.672751,687.4271 L178,687.4271 L178,520.809543 C178,465.475282 193.842261,444.3153 199.6602,434.763015 C205.477401,425.212179 215.105716,416.210344 223.602163,408.95284 C232.17457,401.696059 242.175187,396.182883 252.278592,392.385301 C262.764747,388.173977 274.74932,386.191374 286.422809,386.191374 C309.767574,385.439973 329.171274,391.362057 344.709868,403.977913 C360.668823,416.198867 371.117366,433.157923 377.317317,454.929713 C383.17213,434.323066 394.653875,417.721958 411.722729,405.106102 C428.83067,392.509084 448.999131,386.191374 472.344634,386.191374 C490.637697,386.191374 505.755193,388.880332 517.811431,394.219844 C529.866932,399.597035 539.549238,407.02337 546.935786,416.537251 C554.322334,425.749703 559.565042,436.993184 562.703735,450.380005 C565.803342,463.353085 567.372688,477.828967 567.372688,493.886631 L567.477136,592.461653 Z M656.850937,308.63621 C656.850937,301.397545 662.859144,295.53198 670.206606,295.53198 C677.593154,295.53198 683.563012,301.397545 683.563012,308.63621 C683.563012,315.893715 677.593154,321.759281 670.206606,321.759281 C662.859144,321.759281 656.850937,315.893715 656.850937,308.63621 Z M589.84627,235.337589 C610.983932,218.212208 640.137937,208.391025 669.833239,208.391025 C699.209315,208.391025 726.393108,217.673874 746.377458,234.529114 C769.158837,253.744191 781.200867,281.495983 781.200867,314.784366 L770.626088,314.784366 C770.626088,284.618838 759.858319,259.593782 739.489311,242.413205 C721.420979,227.173616 696.683926,218.781063 669.833239,218.781063 C616.944803,218.781063 563.404034,251.757745 563.404034,314.784366 L552.829255,314.784366 C552.829255,282.429138 565.629364,254.956578 589.84627,235.337589 Z" id="Logo" stroke="#FFFFFF" stroke-width="36.608" fill="#FFFFFF"></path>
    </g>
</svg>