<?xml version="1.0" encoding="UTF-8" standalone="no"?>
<svg width="1024px" height="1024px" viewBox="0 0 1024 1024" version="1.1" xmlns="http://www.w3.org/2000/svg" xmlns:xlink="http://www.w3.org/1999/xlink" xmlns:sketch="http://www.bohemiancoding.com/sketch/ns">
    <!-- Generator: Sketch 3.0.4 (8054) - http://www.bohemiancoding.com/sketch -->
    <title>musescore-icon-square</title>
    <desc>Created with Sketch.</desc>
    <defs>
        <linearGradient x1="50%" y1="0%" x2="50%" y2="5%" id="linearGradient-1">
            <stop stop-color="#FFFFFF" offset="0%"></stop>
            <stop stop-color="#FFFFFF" stop-opacity="0" offset="100%"></stop>
        </linearGradient>
        <filter x="-50%" y="-50%" width="200%" height="200%" filterUnits="objectBoundingBox" id="filter-2">
            <feOffset dx="0" dy="0" in="SourceAlpha" result="shadowOffsetInner1"></feOffset>
            <feGaussianBlur stdDeviation="15" in="shadowOffsetInner1" result="shadowBlurInner1"></feGaussianBlur>
            <feComposite in="shadowBlurInner1" in2="SourceAlpha" operator="arithmetic" k2="-1" k3="1" result="shadowInnerInner1"></feComposite>
            <feColorMatrix values="0 0 0 0 0   0 0 0 0 0   0 0 0 0 0  0 0 0 0.028 0" in="shadowInnerInner1" type="matrix" result="shadowMatrixInner1"></feColorMatrix>
            <feOffset dx="0" dy="1" in="SourceAlpha" result="shadowOffsetInner2"></feOffset>
            <feGaussianBlur stdDeviation="0" in="shadowOffsetInner2" result="shadowBlurInner2"></feGaussianBlur>
            <feComposite in="shadowBlurInner2" in2="SourceAlpha" operator="arithmetic" k2="-1" k3="1" result="shadowInnerInner2"></feComposite>
            <feColorMatrix values="0 0 0 0 1   0 0 0 0 1   0 0 0 0 1  0 0 0 0.7 0" in="shadowInnerInner2" type="matrix" result="shadowMatrixInner2"></feColorMatrix>
            <feMorphology radius="1" in="SourceAlpha" operator="dilate" result="shadowSpreadInner3"></feMorphology>
            <feOffset dx="0" dy="0" in="shadowSpreadInner3" result="shadowOffsetInner3"></feOffset>
            <feGaussianBlur stdDeviation="0" in="shadowOffsetInner3" result="shadowBlurInner3"></feGaussianBlur>
            <feComposite in="shadowBlurInner3" in2="SourceAlpha" operator="arithmetic" k2="-1" k3="1" result="shadowInnerInner3"></feComposite>
            <feColorMatrix values="0 0 0 0 1   0 0 0 0 1   0 0 0 0 1  0 0 0 0.28 0" in="shadowInnerInner3" type="matrix" result="shadowMatrixInner3"></feColorMatrix>
            <feMerge>
                <feMergeNode in="SourceGraphic"></feMergeNode>
                <feMergeNode in="shadowMatrixInner1"></feMergeNode>
                <feMergeNode in="shadowMatrixInner2"></feMergeNode>
                <feMergeNode in="shadowMatrixInner3"></feMergeNode>
            </feMerge>
        </filter>
        <rect id="path-3" x="0.827317073" y="0.827317073" width="1023.00098" height="1023.00098" rx="8"></rect>
        <linearGradient x1="50%" y1="0%" x2="50%" y2="100%" id="linearGradient-4">
            <stop stop-color="#FFFFFF" offset="0%"></stop>
            <stop stop-color="#FFFFFF" offset="100%"></stop>
        </linearGradient>
        <linearGradient x1="50%" y1="0%" x2="50%" y2="100%" id="linearGradient-5">
            <stop stop-color="#F8F2E5" stop-opacity="0.510501585" offset="0%"></stop>
            <stop stop-color="#EFE2C7" offset="100%"></stop>
        </linearGradient>
        <filter x="-50%" y="-50%" width="200%" height="200%" filterUnits="objectBoundingBox" id="filter-6">
            <feMorphology radius="1" in="SourceAlpha" operator="dilate" result="shadowSpreadOuter1"></feMorphology>
            <feOffset dx="0" dy="0" in="shadowSpreadOuter1" result="shadowOffsetOuter1"></feOffset>
            <feGaussianBlur stdDeviation="1" in="shadowOffsetOuter1" result="shadowBlurOuter1"></feGaussianBlur>
            <feColorMatrix values="0 0 0 0 1   0 0 0 0 1   0 0 0 0 1  0 0 0 0.35 0" in="shadowBlurOuter1" type="matrix" result="shadowMatrixOuter1"></feColorMatrix>
            <feOffset dx="0" dy="0" in="SourceAlpha" result="shadowOffsetInner1"></feOffset>
            <feGaussianBlur stdDeviation="1.5" in="shadowOffsetInner1" result="shadowBlurInner1"></feGaussianBlur>
            <feComposite in="shadowBlurInner1" in2="SourceAlpha" operator="arithmetic" k2="-1" k3="1" result="shadowInnerInner1"></feComposite>
            <feColorMatrix values="0 0 0 0 0   0 0 0 0 0   0 0 0 0 0  0 0 0 0.35 0" in="shadowInnerInner1" type="matrix" result="shadowMatrixInner1"></feColorMatrix>
            <feMerge>
                <feMergeNode in="shadowMatrixOuter1"></feMergeNode>
                <feMergeNode in="SourceGraphic"></feMergeNode>
                <feMergeNode in="shadowMatrixInner1"></feMergeNode>
            </feMerge>
        </filter>
        <rect id="path-7" x="18.7270663" y="18.7270663" width="986.872842" height="986.872842" rx="8"></rect>
        <linearGradient x1="50%" y1="0%" x2="50%" y2="100%" id="linearGradient-8">
            <stop stop-color="#1B75C0" offset="0%"></stop>
            <stop stop-color="#2A567B" offset="100%"></stop>
        </linearGradient>
        <filter x="-50%" y="-50%" width="200%" height="200%" filterUnits="objectBoundingBox" id="filter-9">
            <feMorphology radius="1" in="SourceAlpha" operator="dilate" result="shadowSpreadOuter1"></feMorphology>
            <feOffset dx="0" dy="10" in="shadowSpreadOuter1" result="shadowOffsetOuter1"></feOffset>
            <feGaussianBlur stdDeviation="2.5" in="shadowOffsetOuter1" result="shadowBlurOuter1"></feGaussianBlur>
            <feColorMatrix values="0 0 0 0 0   0 0 0 0 0   0 0 0 0 0  0 0 0 0.28 0" in="shadowBlurOuter1" type="matrix" result="shadowMatrixOuter1"></feColorMatrix>
            <feMerge>
                <feMergeNode in="shadowMatrixOuter1"></feMergeNode>
                <feMergeNode in="SourceGraphic"></feMergeNode>
            </feMerge>
        </filter>
    </defs>
    <g id="Square" stroke="none" stroke-width="1" fill="none" fill-rule="evenodd" sketch:type="MSPage">
        <g id="musescore-icon-square" sketch:type="MSArtboardGroup">
            <g id="Icon-2" sketch:type="MSLayerGroup">
                <g id="Base" filter="url(#filter-2)">
                    <use fill="#D8D8D8" sketch:type="MSShapeGroup" xlink:href="#path-3"></use>
                    <use fill="url(#linearGradient-1)" xlink:href="#path-3"></use>
                </g>
                <rect id="Rectangle-2" fill="url(#linearGradient-4)" sketch:type="MSShapeGroup" x="18.7270663" y="18.7270663" width="986.872842" height="986.872842" rx="8"></rect>
                <g id="Rectangle-1" filter="url(#filter-6)">
                    <use fill="none" sketch:type="MSShapeGroup" xlink:href="#path-7"></use>
                    <use fill="url(#linearGradient-5)" fill-rule="evenodd" xlink:href="#path-7"></use>
                </g>
                <g id="Icon" transform="translate(160.731744, 202.965662)" stroke="url(#linearGradient-8)" filter="url(#filter-9)" stroke-width="18" fill="url(#linearGradient-8)" sketch:type="MSShapeGroup">
                    <path d="M436.954197,437.464388 L436.493148,328.459103 C436.493148,311.6412 434.945267,296.391581 431.8478,282.624609 C429.150088,268.986929 423.974573,257.223968 416.322107,247.486006 C409.15719,237.79254 399.248533,230.276033 386.686488,224.939001 C374.566816,219.60197 359.040271,216.988445 340.197203,216.988445 C323.566003,216.988445 308.526154,220.299638 295.079361,226.921183 C281.632569,233.107841 270.131708,241.756904 260.665426,252.823037 C251.28864,263.845513 244.078548,276.698213 239.168968,291.295501 C234.215066,305.410886 231.737263,320.442223 231.737263,336.431488 L231.737263,552.705922 L218.291323,552.705922 L218.291323,333.773466 C218.291323,317.827019 216.91988,302.752025 214.221316,288.635801 C212.009448,274.476759 207.497067,262.103443 200.774523,251.429381 C194.051127,240.863621 184.584844,232.455509 172.465172,226.268012 C160.3455,220.103183 144.598195,216.988445 125.312753,216.988445 C108.238327,216.988445 92.0725916,220.607814 78.1834255,228.537382 C64.2056142,236.05305 51.9223615,246.689412 42.05888,259.955171 C32.5925972,272.80787 25.2503894,287.840046 19.8532614,305.092837 C14.8993594,322.346467 13.4911151,340.569639 13.4911151,359.653492 L13.4911151,552.705922 L5.68434189e-14,552.705922 L5.68434189e-14,359.653495 C5.68434189e-14,295.540123 18.3101449,271.022984 25.0343936,259.955172 C31.7577898,248.889039 42.8859887,238.45901 52.706,230.050058 C62.613804,221.641946 74.1723027,215.254072 85.849601,210.853981 C97.9692728,205.974506 111.820786,203.677351 125.312753,203.677351 C152.294131,202.806735 174.72051,209.668393 192.679684,224.28583 C211.124701,238.445712 223.200902,258.095423 230.366672,283.321437 C237.133539,259.445422 250.403893,240.21045 270.131708,225.593012 C289.904699,210.997403 313.214973,203.677351 340.197203,203.677351 C361.339932,203.677351 378.812409,206.792928 392.74675,212.979585 C406.680239,219.2099 417.870841,227.814466 426.408054,238.837782 C434.945267,249.511845 441.004677,262.539171 444.63231,278.049891 C448.214769,293.081228 450.028586,309.853795 450.028586,328.459103 L450.149304,442.673641 C450.327413,459.588605 451.369676,474.620908 456.531222,487.004273 C462.368166,500.727588 470.243097,512.230288 480.062256,521.509854 C490.413286,530.399029 502.090585,537.022254 515.095003,541.378688 C528.586119,545.430366 542.740368,547.38988 557.558604,547.38988 C578.259811,547.38988 596.396275,543.644639 612.142728,536.14912 C627.845711,528.134758 640.894453,517.807431 651.200308,504.954731 C661.948536,491.710801 670.044228,476.416685 675.483974,459.120237 C680.836779,441.911103 683.534491,423.786018 683.534491,404.746662 L683.534491,211.695071 L696.982136,211.695071 L696.982136,404.746658 C696.982136,449.348934 687.5684,468.936501 687.5684,468.936501 C681.286525,495.513355 663.474137,516.872523 641.976828,534.083336 C620.834099,551.379783 591.707456,559.981478 557.558604,559.981478 C539.600283,559.981478 522.96823,557.541741 507.707621,552.705922 C492.93456,547.38988 479.884966,539.680275 468.650894,529.526735 C457.901813,518.853512 449.364599,505.999134 443.039254,490.969477 C438.748486,479.640564 437.686449,467.442715 436.978992,453.893188 C436.934669,448.795429 436.934669,442.739741 436.934669,437.467355 L436.954197,437.464388 L436.954197,437.464388 Z M553.445623,113.817597 C553.445623,105.430474 560.38978,98.6343018 568.881819,98.6343018 C577.419032,98.6343018 584.318866,105.430474 584.318866,113.817597 C584.318866,122.226548 577.419032,129.022721 568.881819,129.022721 C560.38978,129.022721 553.445623,122.226548 553.445623,113.817597 Z M476.003069,28.8897115 C448.01369,51.6213709 433.219598,83.4526162 433.219598,120.941195 L445.441701,120.941195 C445.441701,47.9150239 507.322971,9.706394 568.45029,9.706394 C599.483736,9.706394 628.07429,19.430476 648.95728,37.0879162 C672.499341,56.9942949 684.944498,85.9897258 684.944498,120.941195 L697.1666,120.941195 C697.1666,82.3714102 683.248681,50.2166308 656.918452,27.9529673 C633.82097,8.4235435 602.402527,-2.33208575 568.45029,-2.33208575 C534.129097,-2.33208575 500.433524,9.04728724 476.003069,28.8897115 Z" id="Logo"></path>
                </g>
            </g>
        </g>
    </g>
</svg>