<svg id="MXL" xmlns="http://www.w3.org/2000/svg" xmlns:xlink="http://www.w3.org/1999/xlink" viewBox="0 0 353.01 465.01">
    <defs>
        <linearGradient id="linear-gradient" x1="-53.67" y1="646.37" x2="-54.56" y2="645.48" gradientTransform="matrix(320.01, 0, 0, -309.34, 17561.59, 200076.09)" gradientUnits="userSpaceOnUse">
            <stop offset="0" stop-opacity="0.5"/>
            <stop offset="0.01" stop-opacity="0.35"/>
            <stop offset="0.02" stop-opacity="0.31"/>
            <stop offset="0.04" stop-opacity="0.26"/>
            <stop offset="0.12" stop-opacity="0.2"/>
            <stop offset="0.18" stop-opacity="0.13"/>
            <stop offset="0.32" stop-opacity="0.06"/>
            <stop offset="1" stop-opacity="0.01"/>
        </linearGradient>
        <linearGradient id="linear-gradient-2" x1="83.01" y1="250" x2="436.01" y2="250" gradientUnits="userSpaceOnUse">
            <stop offset="0" stop-color="#c7c8ce"/>
            <stop offset="1" stop-color="#949495"/>
        </linearGradient>
        <linearGradient id="linear-gradient-3" x1="-51.54" y1="642.32" x2="-52.54" y2="641.32" gradientTransform="matrix(40, 0, 0, -40, 2417.98, 25789.74)" gradientUnits="userSpaceOnUse">
            <stop offset="0" stop-opacity="0.5"/>
            <stop offset="0.01" stop-opacity="0.35"/>
            <stop offset="0.02" stop-opacity="0.31"/>
            <stop offset="0.04" stop-opacity="0.26"/>
            <stop offset="0.08" stop-opacity="0.2"/>
            <stop offset="0.16" stop-opacity="0.13"/>
            <stop offset="0.32" stop-opacity="0.06"/>
            <stop offset="0.64" stop-opacity="0.01"/>
            <stop offset="1" stop-opacity="0"/>
        </linearGradient>
    </defs>
    <title>
        mxl-icon-master
    </title>
    <g id="Paper">
        <g id="page">
            <path id="white" d="M83.51,18V482h352V258c0-48,1-81-19-101l-120-120c-20-20-53-19-101-19Z" transform="translate(-83.01 -17.5)" style="fill:#fff"/>
            <path id="shading" d="M83.51,18V482h352V258c0-48,1-81-19-101l-120-120c-20-20-53-19-101-19Z" transform="translate(-83.01 -17.5)" style="stroke-miterlimit:10;fill:url(#linear-gradient);stroke:url(#linear-gradient-2)"/>
        </g>
        <g id="fold">
            <path id="white-2" data-name="white" d="M296.51,37c20,20,19,53,19,101,48,0,81-1,101,19Z" transform="translate(-83.01 -17.5)" style="fill:#fff"/>
            <path id="shading-2" data-name="shading" d="M296.51,37c20,20,19,53,19,101,48,0,81-1,101,19Z" transform="translate(-83.01 -17.5)" style="fill:url(#linear-gradient-3)"/>
        </g>
    </g>
    <g id="Content">
        <text transform="translate(98.18 410.8)" style="font-size:76px;fill:#989898;font-family:Roboto-Bold,Roboto;font-weight:700">
            <tspan style="letter-spacing:.00830078125em">M</tspan><tspan x="67.21" y="0">XL</tspan>
        </text>
        <path id="Logo" d="M140.54,224.61,197,196v16.38l-39,19.24,38.87,19.24L197,267l-56.42-28.6Zm218.92,13.91L303,267V250.74l39-19.24-38.87-19.24L303,196l56.42,28.6Zm-103.87-4.17a18.74,18.74,0,0,0-9.42,5.66,16.5,16.5,0,0,0-4.82,10.53,18.1,18.1,0,0,0,1.83,8.37,14.46,14.46,0,0,0,6.57,7.08c1,.3,1.46.89,1.4,1.67,0,.28-.41.53-1.34.69a22.14,22.14,0,0,1-11.54-9,23.74,23.74,0,0,1-3.91-14.52,30.55,30.55,0,0,1,6.08-15.65,26.65,26.65,0,0,1,13.15-9.65l-2.4-20.06a111.37,111.37,0,0,0-21.76,20.91,46.23,46.23,0,0,0-9.82,24.69,34.67,34.67,0,0,0,1.64,12,32.67,32.67,0,0,0,6.1,11c5.67,6.74,13.38,10.6,23,11.62A56.37,56.37,0,0,0,261,278.63Zm3.92-.28,5.56,43.5c8.53-2.86,13.18-10.1,13.94-21.59a26.37,26.37,0,0,0-2.7-10.62,19.65,19.65,0,0,0-16.8-11.29Zm-7.19-58.8a26.47,26.47,0,0,0,6.42-5.37,67.36,67.36,0,0,0,7-9,58.76,58.76,0,0,0,5.75-10.69,32.76,32.76,0,0,0,2.53-10.3,19.21,19.21,0,0,0-.11-4,7.64,7.64,0,0,0-1.53-4.76,5.43,5.43,0,0,0-3.83-1.85q-4.84-.35-9.14,5.57a50.44,50.44,0,0,0-5.69,12.26,63.53,63.53,0,0,0-3,14.35,45.5,45.5,0,0,0,1.58,13.79Zm-3.61,3a119.77,119.77,0,0,1-2.21-27.9,83.27,83.27,0,0,1,2.9-16.77,51.46,51.46,0,0,1,5.6-13.33,25.86,25.86,0,0,1,7.49-8.37c2.44-1.62,4.17-2.45,5.09-2.39a2.64,2.64,0,0,1,1.78.92,21.64,21.64,0,0,1,1.94,2.6q8.68,14.83,7.38,34.77a72,72,0,0,1-3.66,18.4,70.42,70.42,0,0,1-8.1,16.8,62.52,62.52,0,0,1-12,13.49l2.9,22.28c2.39-.1,4-.21,4.94-.15a23.66,23.66,0,0,1,11,3.48,26.54,26.54,0,0,1,8.2,7.87,34.19,34.19,0,0,1,4.81,10.77,40.08,40.08,0,0,1,1.12,12.35,33.51,33.51,0,0,1-6.21,17.66c-3.7,5.17-9,8.78-15.89,10.86.25,2.76.74,6.78,1.54,11.93s1.27,9.34,1.61,12.39a49.3,49.3,0,0,1,.17,8.81,22.5,22.5,0,0,1-3.85,11.55,21.55,21.55,0,0,1-9,7.43,24,24,0,0,1-11.78,2,24.94,24.94,0,0,1-15.18-6.25A17.85,17.85,0,0,1,223.2,315a20.5,20.5,0,0,1,2.33-7.29,14.78,14.78,0,0,1,4.79-5.37,10.48,10.48,0,0,1,12.61.23,14,14,0,0,1,4.15,5.23,14.68,14.68,0,0,1,1.22,6.92,11.73,11.73,0,0,1-3.8,8.14,10.77,10.77,0,0,1-8.42,2.87l-1.24-.09c1.88,3.5,5.22,5.48,10,5.82a19.9,19.9,0,0,0,7.49-1,19.53,19.53,0,0,0,6.7-3.78,12.21,12.21,0,0,0,3.83-5.45,26.15,26.15,0,0,0,2-9.33,44.65,44.65,0,0,0-.22-8.08c-.31-2.66-.83-6.23-1.56-10.65s-1.27-7.77-1.55-10.09a39.89,39.89,0,0,1-10.17.56,38.11,38.11,0,0,1-16.41-4.93,44.28,44.28,0,0,1-13.11-11.41,50.51,50.51,0,0,1-10.37-33.76,51.31,51.31,0,0,1,4.26-16.06,70.58,70.58,0,0,1,8.47-14.13,121,121,0,0,1,10.38-11.81c3.58-3.44,8.27-7.87,14.15-13.23Z" transform="translate(-83.01 -17.5)" style="fill:#4d4d4d;stroke:#333;stroke-width:.75px"/>
    </g>
</svg>
