<svg height="512" viewBox="0 0 512 512" width="512" xmlns="http://www.w3.org/2000/svg" xmlns:xlink="http://www.w3.org/1999/xlink"><defs><filter id="a" height="114%" width="121.1%" x="-9.5%" y="-7%"><feOffset dx="0" dy="3" in="SourceAlpha" result="shadowOffsetOuter1"/><feGaussianBlur in="shadowOffsetOuter1" result="shadowBlurOuter1" stdDeviation="7"/><feColorMatrix in="shadowBlurOuter1" result="shadowMatrixOuter1" type="matrix" values="0 0 0 0 0   0 0 0 0 0   0 0 0 0 0  0 0 0 0.547044837 0"/><feMerge><feMergeNode in="shadowMatrixOuter1"/><feMergeNode in="SourceGraphic"/></feMerge></filter><linearGradient id="b" x1="100%" x2="38.97792%" y1="-22.093065%" y2="60.252919%"><stop offset="0" stop-color="#bbb"/><stop offset=".292980029" stop-color="#d9d9d9"/><stop offset=".637161705" stop-color="#f5f5f5"/><stop offset="1" stop-color="#fff"/></linearGradient><path id="c" d="m0 476.818182v-476.00000018c90-2 152.666667-.33333333 188 5 32.666667 10.66666668 47.333333 48.99999998 44 115.00000018 44.42356-3.091412 76.42356 2.575255 96 17 12.666667 9.333333 20.333333 25.666666 23 49v290z"/><filter id="d" height="115.5%" width="121.1%" x="-10.5%" y="-7.8%"><feGaussianBlur in="SourceAlpha" result="shadowBlurInner1" stdDeviation="29"/><feOffset dx="0" dy="16" in="shadowBlurInner1" result="shadowOffsetInner1"/><feComposite in="shadowOffsetInner1" in2="SourceAlpha" k2="-1" k3="1" operator="arithmetic" result="shadowInnerInner1"/><feColorMatrix in="shadowInnerInner1" type="matrix" values="0 0 0 0 0   0 0 0 0 0   0 0 0 0 0  0 0 0 0.0463088768 0"/></filter><linearGradient id="e" x1="39.287027%" x2="18.369314%" y1="37.258014%" y2="67.306713%"><stop offset="0" stop-color="#dedede"/><stop offset=".445532052" stop-color="#eee"/><stop offset="1" stop-color="#f8f8f8"/></linearGradient><path id="f" d="m.86897671.4625725 117.33102329 114.5374275c-.059216.048766-.11841.097496-.177583.146191-1.576287-1.579662-3.250426-3.022332-5.022417-4.328009-19.5764396-14.4247451-51.5764396-20.0914118-96-17.0000002 2.156452-42.6977492-3.220558-73.8162884-16.13102985-93.35561759z"/><filter id="g" height="174%" width="172.4%" x="-36.2%" y="-25.7%"><feOffset dx="0" dy="13" in="SourceAlpha" result="shadowOffsetOuter1"/><feGaussianBlur in="shadowOffsetOuter1" result="shadowBlurOuter1" stdDeviation="12"/><feColorMatrix in="shadowBlurOuter1" type="matrix" values="0 0 0 0 0   0 0 0 0 0   0 0 0 0 0  0 0 0 0.33740942 0"/></filter></defs><g fill="none" fill-rule="evenodd"><g filter="url(#a)" transform="translate(81 18)"><use fill="url(#b)" fill-rule="evenodd" xlink:href="#c"/><use fill="#000" filter="url(#d)" xlink:href="#c"/><g transform="translate(215 28)"><use fill="#000" filter="url(#g)" xlink:href="#f"/><use fill="url(#e)" fill-rule="evenodd" xlink:href="#f"/></g></g><text fill="#424242" font-family="HelveticaNeue-Medium, Helvetica Neue" font-size="83" font-weight="400"><tspan x="166.8935" y="456">MXL</tspan></text><g fill="#000" transform="translate(195 89)"><path d="m68.716 62.478c-4.111 6.276-8.881 11.511-14.212 15.609l-8.728 6.962c-13.339 11.855-22.937 21.433-28.542 28.464-10.209 12.788-15.806 25.779-16.65 38.611-.942 14.473 3.187 28.21 12.275 40.84 9.636 13.458 21.8 20.754 36.164 21.69 3.291.218 6.897.182 9.896-.015l-1.121-10.104c-2.09.192-4.306.223-6.628.068-9.437-.617-17.864-4.511-25.064-11.573-7.524-7.333-10.895-15.415-10.287-24.7 1.149-17.59 12.562-35.004 33.925-51.792l9.543-7.599c8.394-7.174 15.192-16.191 20.216-26.825 4.971-10.556 7.886-21.983 8.673-33.96.466-7.037-.513-15.775-2.874-25.965-3.241-13.839-7.854-20.765-14.136-21.179-2.232-.138-4.676.986-7.658 3.617-7.252 6.548-12.523 14.481-15.683 23.542-2.438 6.926-4.057 16.189-4.805 27.529-.313 4.72.313 13.438 1.805 23.962l8.844-8.192c-.028-1.183.005-2.413.096-3.703.466-7.221 2.289-15.062 5.394-23.293 3.956-10.296 7.689-13.409 10.133-14.204.668-.218 1.32-.298 2.015-.254 3.185.212 6.358 1.559 5.815 9.979-.458 7.139-3.291 14.7-8.406 22.485z"/><path d="m76.55 210.161c5.728-2.568 10.621-6.478 14.576-11.651 5.055-6.561 7.897-14.316 8.467-23.047.72-10.719-1.854-20.438-7.617-28.895-6.322-9.264-14.98-14.317-25.745-15.026-1.232-.081-2.543-.075-3.895.025l-2.304-17.191-9.668 7.112 1.483 12.194c-5.789 2.393-10.827 6.17-15.017 11.255-4.823 5.924-7.508 12.443-7.964 19.382-.466 7.208 1.142 13.81 4.782 19.583 1.895 3.081 4.507 5.82 7.498 8.058 4.906 3.65 10.563 3.376 11.459 1.393.906-1.983-2.455-5.095-5.09-9.248-1.502-2.351-2.242-5.173-2.242-8.497 0-7.053 4.256-13.116 10.317-15.799l5.673 44.211 1.325 10.258c.864 4.873 1.719 9.725 2.537 14.52 1 6.488 1.352 12.112 1.041 16.715-.419 6.375-2.408 11.584-5.919 15.493-2.234 2.485-4.844 4.055-7.795 4.925 3.961-3.962 6.414-9.43 6.414-15.478 0-12.075-9.792-21.872-21.87-21.872-3.353 0-6.491.812-9.329 2.159-.36.155-.699.388-1.054.574-.779.425-1.559.85-2.286 1.362-.249.187-.487.403-.732.605-4.888 3.816-8.091 9.616-8.375 16.229 0 .01-.011.021-.011.031v.016c-.013.311-.09.59-.09.896 0 .259.067.492.078.74-.011 7.084 2.933 13.179 8.839 18.118 5.584 4.666 12.277 7.28 19.892 7.777 4.327.28 8.505-.217 12.407-1.485 3.189-1.041 6.275-2.62 9.149-4.687 6.96-5.022 10.75-11.584 11.272-19.532.399-6.063.094-13.235-.937-21.411l-2.838-18.429-7.156-52.899c7.984 1.532 14.027 8.543 14.027 16.968 0 5.986-1.937 15.431-5.551 20.376z"/></g></g></svg>