<svg height="48" width="48" xmlns="http://www.w3.org/2000/svg" xmlns:xlink="http://www.w3.org/1999/xlink"><linearGradient id="a" gradientTransform="matrix(.067325 0 0 .0147 -.34114 37.04)" gradientUnits="userSpaceOnUse" x1="302.86" x2="302.86" y1="366.65" y2="609.51"><stop offset="0" stop-opacity="0"/><stop offset=".5"/><stop offset="1" stop-opacity="0"/></linearGradient><radialGradient id="b" cx="605.71" cy="486.65" gradientTransform="matrix(-.02304 0 0 .0147 21.623 37.04)" gradientUnits="userSpaceOnUse" r="117.14" xlink:href="#c"/><linearGradient id="c"><stop offset="0"/><stop offset="1" stop-opacity="0"/></linearGradient><radialGradient id="d" cx="605.71" cy="486.65" gradientTransform="matrix(.02304 0 0 .0147 26.361 37.04)" gradientUnits="userSpaceOnUse" r="117.14" xlink:href="#c"/><linearGradient id="e" gradientTransform="matrix(.8075 0 0 .89483 59.41 -2.9806)" gradientUnits="userSpaceOnUse" x1="-51.786" x2="-51.786" y1="50.786" y2="2.9062"><stop offset="0" stop-color="#aaa"/><stop offset="1" stop-color="#c8c8c8"/></linearGradient><linearGradient id="f" gradientTransform="matrix(1 0 0 .95617 0 -1.9149)" gradientUnits="userSpaceOnUse" x1="25.132" x2="25.132" y1=".98521" y2="47.013"><stop offset="0" stop-color="#f4f4f4"/><stop offset="1" stop-color="#dbdbdb"/></linearGradient><radialGradient id="g" cx="102" cy="112.3" gradientTransform="matrix(.3617 0 0 -.39078 .85106 47.517)" gradientUnits="userSpaceOnUse" r="139.56"><stop offset="0" stop-color="#b7b8b9"/><stop offset=".18851" stop-color="#ececec"/><stop offset=".25718" stop-color="#fafafa" stop-opacity="0"/><stop offset=".30111" stop-color="#fff" stop-opacity="0"/><stop offset=".5313" stop-color="#fafafa" stop-opacity="0"/><stop offset=".8449" stop-color="#ebecec" stop-opacity="0"/><stop offset="1" stop-color="#e1e2e3" stop-opacity="0"/></radialGradient><linearGradient id="h" gradientTransform="matrix(1 0 0 .97778 0 -.96667)" gradientUnits="userSpaceOnUse" x1="24" x2="24" y1="2" y2="46.017"><stop offset="0" stop-color="#fff"/><stop offset="1" stop-color="#fff" stop-opacity="0"/></linearGradient><filter id="i" color-interpolation-filters="sRGB" height="1.3287" width="1.2969" x="-.14846" y="-.16434"><feGaussianBlur stdDeviation=".77391625"/></filter><linearGradient id="j" gradientTransform="matrix(.9977 0 0 1.0407 .1638 -1.1058)" gradientUnits="userSpaceOnUse" x1="32.892" x2="36.358" y1="8.059" y2="5.4565"><stop offset="0" stop-color="#fefefe"/><stop offset="1" stop-color="#cbcbcb"/></linearGradient><path d="m7.7378 42.43h32.508v3.5701h-32.508z" fill="url(#a)" opacity=".3"/><path d="m7.7378 42.43v3.5699c-1.1865.0067-2.8684-.79982-2.8684-1.7852 0-.98533 1.324-1.7847 2.8684-1.7847z" fill="url(#b)" opacity=".3"/><path d="m40.246 42.43v3.5699c1.1865.0067 2.8684-.79982 2.8684-1.7852 0-.98533-1.324-1.7847-2.8684-1.7847z" fill="url(#d)" opacity=".3"/><path d="m6.5.4972h24.061c1.4069.47465 8.9655 5.8822 10.939 9.6264v34.379h-35v-44.006z" fill="url(#f)" stroke="url(#e)" stroke-linejoin="round" stroke-width=".99992"/><path d="m7.3617 44c-.1993 0-.3617-.17546-.3617-.39078v-42.204c0-.21571.1624-.39078.3617-.39078 7.4833.1082 15.775-.16138 23.249.0271l10.283 8.866.106 33.702c0 .216-.162.391-.362.391h-33.276z" fill="url(#g)"/><path d="m40.5 10.259v33.263h-33v-42.045h22.866" fill="none" opacity=".6" stroke="url(#h)" stroke-linejoin="round" stroke-width=".99992"/><g fill-rule="evenodd"><path d="m28.617.92126c4.2825 0 2.1532 8.4832 2.1532 8.4832s10.358-1.8023 10.358 2.8187c0-2.6097-11.302-10.729-12.511-11.302z" filter="url(#i)" opacity=".4"/><path d="m28.617.92126c3.1865 0 2.3358 7.6619 2.3358 7.6619s10.175-.98105 10.175 3.64c0-1.1259.08591-1.9322-.13378-2.2836-1.578-2.5243-8.395-8.1885-10.857-8.9309-.184-.05556-.593-.08754-1.52-.08754z" fill="url(#j)"/><path d="m24.686 20.299c-.44214.09405-.85191.34568-1.243.74653-.39159.40821-.60121.8738-.63547 1.3889-.0215.32378.06064.69935.24096 1.1041.17982.41213.47365.72151.86679.93449.13317.03912.19228.11727.18543.2203-.0024.03681-.05471.07004-.17754.09081-.63592-.21557-1.1453-.61432-1.5221-1.181-.37627-.57407-.54851-1.2075-.51574-1.9149.07178-.75642.33923-1.4471.8019-2.0646.47028-.62439 1.0487-1.0488 1.7354-1.2732l-.31694-2.6475c-1.1579.86353-2.112 1.7786-2.8704 2.7595-.7579.97349-1.1874 2.0592-1.2957 3.2566-.0215.5382.05044 1.0683.21626 1.583.16536.522.4337.99962.80407 1.4476.74833.88905 1.7649 1.398 3.035 1.5333.43579.0016.90345-.04621 1.4101-.14307l-.71905-5.8408zm.51696-.03697.73302 5.7382c1.1256-.37785 1.7393-1.3321 1.8401-2.848-.0302-.51233-.14212-.97875-.357-1.4008-.20728-.42888-.49867-.77506-.88127-1.039-.38261-.26398-.82282-.41378-1.3349-.45043zm-.94884-7.7574c.24449-.13038.53187-.36859.84745-.7083.31508-.33235.62746-.73144.92905-1.1831.30919-.45846.56196-.92836.75834-1.4097.19588-.47397.30496-.93197.33335-1.3588.01225-.18396.01028-.36895-.01455-.53339-.01083-.26695-.07534-.47859-.20117-.62807-.12632-.14213-.29211-.22794-.50546-.2432-.42672-.03052-.82888.21425-1.2065.73436-.29447.45213-.55215.99561-.75071 1.6173-.20616.6285-.34072 1.2547-.39753 1.8939-.01289.73106.06119 1.3353.2077 1.8189zm-.47644.39474c-.24074-1.215-.33776-2.4419-.29108-3.6807.06001-.79422.18765-1.5319.38302-2.2129.18826-.68154.43415-1.2628.73868-1.7586.29741-.49628.62916-.8644.98816-1.1049.32147-.21359.55026-.32291.67117-.31426.09246.0064.16824.049.23495.12033.06672.07131.15183.18831.25583.34363.76359 1.3042 1.0904 2.8359.97394 4.5873-.05534.83153-.21584 1.6334-.48305 2.4275-.2596.78734-.61633 1.5308-1.0692 2.2155-.46047.69163-.98569 1.2825-1.5833 1.7795l.38319 2.9406c.31537-.01442.53069-.02853.65159-.01992.5405.03864 1.0163.19103 1.4487.45858.43239.26754.79538.61145 1.0814 1.0386.28649.41976.49794.89331.63437 1.4206.12931.52682.18603 1.0706.14883 1.6299-.05779.86833-.3311 1.6473-.81953 2.3295-.48843.68224-1.1846 1.1574-2.0961 1.4323.03289.36465.09772.89424.20252 1.5746.0972.68718.16815 1.232.21283 1.6345.04467.40246.04767.78715.02269 1.1624-.03866.58134-.20806 1.0868-.50867 1.5237-.30772.43639-.70103.76314-1.1871.97974-.47892.21712-.9993.30557-1.554.26586-.78232-.05601-1.4499-.33297-2.0032-.82359-.55283-.49797-.82512-1.1311-.80168-1.9132.04435-.34433.14411-.66251.30691-.9614s.37147-.53534.63311-.70885c.25502-.18138.55347-.26354.8892-.26169.27736.01984.53512.11963.77375.29197.23104.1792.41598.40685.54721.68981.12413.28246.18229.58976.16075.91354-.02886.43417-.1956.79192-.50014 1.0733-.30455.28134-.67754.40993-1.1114.37888l-.16357-.01171c.248.46137.68798.72206 1.3209.76737.32004.02287.65208-.02725.98805-.13631.34356-.1159.63316-.28001.88352-.4987.25036-.21868.42347-.45768.5051-.71801.14098-.29305.22577-.70843.26053-1.2309.02348-.35322.01146-.70898-.02909-1.0668-.04103-.35044-.10972-.82116-.20666-1.4048-.09744-.57629-.16763-1.0249-.20446-1.3307-.43406.07984-.87892.10715-1.3412.0741-.7752-.05546-1.497-.26979-2.1648-.6503-.66783-.38051-1.242-.88002-1.7291-1.5064-.48001-.62585-.84134-1.3171-1.083-2.0886-.23503-.76359-.33249-1.5543-.28576-2.3643.07842-.74855.26148-1.46.56255-2.1187.30156-.66604.67178-1.2902 1.1173-1.8646s.90183-1.0963 1.3685-1.5583c.47325-.45412 1.0909-1.0384 1.8668-1.7444z" fill="#4d4d4d" stroke="#333" stroke-width=".75"/></g><g opacity=".4"><path d="m15.209 40.916h1.6l1.16-1.9 1.16 1.9h1.6l-1.97-2.86 1.69-2.68h-1.5l-.98 1.67-1-1.67h-1.5l1.7 2.68z"/><path d="m21.344 40.916h1.33v-2.73c0-.55.05-.92.14-1.15.16-.36.5-.57.94-.57.36 0 .67.13.85.35.16.21.23.54.23 1.06v3.04h1.33v-2.73c0-.62.05-.93.19-1.19.17-.34.51-.53.93-.53.33 0 .61.12.79.34.18.21.25.52.25 1.07v3.04h1.33v-3.2c0-.67-.12-1.21-.36-1.59-.35-.56-1.05-.88-1.88-.88-.78 0-1.33.26-1.78.86-.38-.6-.87-.86-1.63-.86-.65 0-1.05.18-1.44.65v-.52h-1.22z"/><path d="m30.739 40.916h1.33v-7.39h-1.33z"/></g></svg>