<?xml version="1.0" encoding="UTF-8" standalone="no"?>
<svg width="1417.32px" height="283.465px" viewBox="0 0 1417.32 283.465"
 xmlns="http://www.w3.org/2000/svg" xmlns:xlink="http://www.w3.org/1999/xlink" version="1.2" baseProfile="tiny">
<title>example (1)</title>
<desc>Generated by MuseScore 4.1.0</desc>
<path class="" fill="#ffffff" fill-rule="evenodd" d="M0,0 L1417.32,0 L1417.32,283.465 L0,283.465 L0,0 "/>
<polyline class="StaffLines" fill="none" stroke="#000000" stroke-width="2.73" stroke-linejoin="bevel" points="28.3465,88.5827 1388.98,88.5827"/>
<polyline class="StaffLines" fill="none" stroke="#000000" stroke-width="2.73" stroke-linejoin="bevel" points="28.3465,113.386 1388.98,113.386"/>
<polyline class="StaffLines" fill="none" stroke="#000000" stroke-width="2.73" stroke-linejoin="bevel" points="28.3465,138.189 1388.98,138.189"/>
<polyline class="StaffLines" fill="none" stroke="#000000" stroke-width="2.73" stroke-linejoin="bevel" points="28.3465,162.992 1388.98,162.992"/>
<polyline class="StaffLines" fill="none" stroke="#000000" stroke-width="2.73" stroke-linejoin="bevel" points="28.3465,187.795 1388.98,187.795"/>
<path class="SlurSegment" stroke="#000000" stroke-width="1.74" stroke-linecap="round" stroke-linejoin="round" fill-rule="evenodd" d="M287.839,129.012 C288.743,144.222 305.932,155.681 319.142,148.11 C304.123,158.645 286.935,147.186 287.839,129.012"/>
<path class="TieSegment" stroke="#000000" stroke-width="1.74" stroke-linecap="round" stroke-linejoin="round" fill-rule="evenodd" d="M348.98,97.9992 C380.295,70.7273 474.24,70.7273 505.555,97.9992 C474.24,77.6722 380.295,77.6722 348.98,97.9992"/>
<polyline class="BarLine" fill="none" stroke="#000000" stroke-width="4.46" stroke-linejoin="bevel" points="782.211,87.2185 782.211,189.159"/>
<polyline class="BarLine" fill="none" stroke="#000000" stroke-width="4.46" stroke-linejoin="bevel" points="795.853,87.2185 795.853,189.159"/>
<polyline class="BarLine" fill="none" stroke="#000000" stroke-width="4.46" stroke-linejoin="bevel" points="1386.74,87.2185 1386.74,189.159"/>
<polyline class="StemSlash" fill="none" stroke="#000000" stroke-width="2.17" stroke-linejoin="bevel" points="287.839,91.822 317.281,67.1168"/>
<polyline class="LedgerLine" fill="none" stroke="#000000" stroke-width="3.97" stroke-linejoin="bevel" points="1194.97,63.7795 1244.57,63.7795"/>
<polyline class="LedgerLine" fill="none" stroke="#000000" stroke-width="3.97" stroke-linejoin="bevel" points="1014.11,63.7795 1063.71,63.7795"/>
<polyline class="Stem" fill="none" stroke="#000000" stroke-width="2.73" stroke-linejoin="bevel" points="1205.01,67.9465 1205.01,163.105"/>
<polyline class="Stem" fill="none" stroke="#000000" stroke-width="2.73" stroke-linejoin="bevel" points="1306.87,146.622 1306.87,69.9803"/>
<polyline class="Stem" fill="none" stroke="#000000" stroke-width="2.73" stroke-linejoin="bevel" points="329.187,129.954 329.187,206.398"/>
<polyline class="Stem" fill="none" stroke="#000000" stroke-width="2.73" stroke-linejoin="bevel" points="491.963,129.954 491.963,218.799"/>
<polyline class="Stem" fill="none" stroke="#000000" stroke-width="2.73" stroke-linejoin="bevel" points="1132.67,105.151 1132.67,169.08"/>
<polyline class="Stem" fill="none" stroke="#000000" stroke-width="1.91" stroke-linejoin="bevel" points="298.167,110.608 298.167,57.0976"/>
<polyline class="Stem" fill="none" stroke="#000000" stroke-width="2.73" stroke-linejoin="bevel" points="951.807,142.356 951.807,206.285"/>
<polyline class="Stem" fill="none" stroke="#000000" stroke-width="2.73" stroke-linejoin="bevel" points="1024.15,55.5449 1024.15,138.189"/>
<polyline class="Stem" fill="none" stroke="#000000" stroke-width="2.73" stroke-linejoin="bevel" points="564.308,154.757 564.308,218.799"/>
<polyline class="Stem" fill="none" stroke="#000000" stroke-width="2.73" stroke-linejoin="bevel" points="636.653,142.356 636.653,218.799"/>
<polyline class="Stem" fill="none" stroke="#000000" stroke-width="2.73" stroke-linejoin="bevel" points="879.462,117.553 879.462,200.31"/>
<polyline class="Stem" fill="none" stroke="#000000" stroke-width="2.73" stroke-linejoin="bevel" points="708.998,105.151 708.998,218.799"/>
<path class="Note" transform="matrix(0.992126,0,0,0.992126,562.944,150.591)" d="M0,4.20313 C0,8.5 3.09375,13.2969 11.2031,13.2969 C21.5938,13.2969 32.5,4.79688 32.5,-4 C32.5,-9.90625 27.5,-13.2031 21.2969,-13.2031 C11.5938,-13.2031 0,-5 0,4.20313"/>
<path class="Note" transform="matrix(0.992126,0,0,0.992126,635.289,138.189)" d="M0,4.20313 C0,8.5 3.09375,13.2969 11.2031,13.2969 C21.5938,13.2969 32.5,4.79688 32.5,-4 C32.5,-9.90625 27.5,-13.2031 21.2969,-13.2031 C11.5938,-13.2031 0,-5 0,4.20313"/>
<path class="Note" transform="matrix(0.992126,0,0,0.992126,707.634,100.984)" d="M0,4.20313 C0,8.5 3.09375,13.2969 11.2031,13.2969 C21.5938,13.2969 32.5,4.79688 32.5,-4 C32.5,-9.90625 27.5,-13.2031 21.2969,-13.2031 C11.5938,-13.2031 0,-5 0,4.20313"/>
<path class="Note" transform="matrix(0.992126,0,0,0.992126,878.098,113.386)" d="M0,4.20313 C0,8.5 3.09375,13.2969 11.2031,13.2969 C21.5938,13.2969 32.5,4.79688 32.5,-4 C32.5,-9.90625 27.5,-13.2031 21.2969,-13.2031 C11.5938,-13.2031 0,-5 0,4.20313"/>
<path class="Note" transform="matrix(0.992126,0,0,0.992126,950.443,138.189)" d="M0,4.20313 C0,8.5 3.09375,13.2969 11.2031,13.2969 C21.5938,13.2969 32.5,4.79688 32.5,-4 C32.5,-9.90625 27.5,-13.2031 21.2969,-13.2031 C11.5938,-13.2031 0,-5 0,4.20313"/>
<path class="Note" transform="matrix(0.992126,0,0,0.992126,1022.79,51.378)" d="M0,4.20313 C0,8.5 3.09375,13.2969 11.2031,13.2969 C21.5938,13.2969 32.5,4.79688 32.5,-4 C32.5,-9.90625 27.5,-13.2031 21.2969,-13.2031 C11.5938,-13.2031 0,-5 0,4.20313"/>
<path class="Note" transform="matrix(0.992126,0,0,0.992126,1131.31,100.984)" d="M0,4.20313 C0,8.5 3.09375,13.2969 11.2031,13.2969 C21.5938,13.2969 32.5,4.79688 32.5,-4 C32.5,-9.90625 27.5,-13.2031 21.2969,-13.2031 C11.5938,-13.2031 0,-5 0,4.20313"/>
<path class="Note" transform="matrix(0.992126,0,0,0.992126,1203.65,63.7795)" d="M0,4.20313 C0,8.5 3.09375,13.2969 11.2031,13.2969 C21.5938,13.2969 32.5,4.79688 32.5,-4 C32.5,-9.90625 27.5,-13.2031 21.2969,-13.2031 C11.5938,-13.2031 0,-5 0,4.20313"/>
<path class="Note" transform="matrix(0.992126,0,0,0.992126,1276,150.591)" d="M0,4.20313 C0,8.5 3.09375,13.2969 11.2031,13.2969 C21.5938,13.2969 32.5,4.79688 32.5,-4 C32.5,-9.90625 27.5,-13.2031 21.2969,-13.2031 C11.5938,-13.2031 0,-5 0,4.20313"/>
<path class="Note" transform="matrix(0.694488,0,0,0.694488,276.556,113.386)" d="M0,4.20313 C0,8.5 3.09375,13.2969 11.2031,13.2969 C21.5938,13.2969 32.5,4.79688 32.5,-4 C32.5,-9.90625 27.5,-13.2031 21.2969,-13.2031 C11.5938,-13.2031 0,-5 0,4.20313"/>
<path class="Note" transform="matrix(0.992126,0,0,0.992126,327.823,125.787)" d="M21.2969,-13.2031 C11.5938,-13.2031 0,-5.09375 0,4.20313 C0,8.5 3.09375,13.2969 11.2031,13.2969 C21.5938,13.2969 32.5,4.79688 32.5,-4 C32.5,-9.90625 27.5,-13.2031 21.2969,-13.2031 M7.5,8.59375 C4.20313,8.59375 3.5,5.90625 3.5,5 C3.5,0.09375 20.2969,-8.5 25,-8.5 C27.4063,-8.5 29,-7.09375 29,-4.90625 C29,0.09375 12.0938,8.59375 7.5,8.59375"/>
<path class="Note" transform="matrix(0.992126,0,0,0.992126,490.599,125.787)" d="M0,4.20313 C0,8.5 3.09375,13.2969 11.2031,13.2969 C21.5938,13.2969 32.5,4.79688 32.5,-4 C32.5,-9.90625 27.5,-13.2031 21.2969,-13.2031 C11.5938,-13.2031 0,-5 0,4.20313"/>
<path class="Clef" transform="matrix(0.992126,0,0,0.992126,48.189,162.992)" d="M12.2969,51.2969 C12.2969,57.9063 17.2969,66.6094 30.7969,66.6094 C35.5,66.6094 39.6094,65.4063 43.2031,63.2031 C48.6094,59.4063 50,52.7969 50,46.5 C50,42.6094 49.4063,38.1094 48.4063,32.4063 C48.1094,30.4063 47.5,27.4063 46.9063,23.5 C56.7031,20.2969 64,10.0938 64,-0.203125 C64,-15.2969 53.2969,-25.5 38.7031,-25.5 C37.7031,-31.5 36.7031,-37.4063 35.9063,-43 C46.4063,-54.1094 53.7031,-66.6094 53.7031,-82.5 C53.7031,-91.6094 50.9063,-99 49.2969,-102.609 C46.9063,-107.703 44,-111.203 42.2031,-111.203 C41.5,-111.203 38.4063,-110 35.1094,-106.109 C28.7031,-98.5 26.9063,-85.7031 26.9063,-77.3125 C26.9063,-71.9063 27.4063,-67 29.1094,-55.7969 C29,-55.7031 23.7969,-50.4063 21.7031,-48.7031 C12.5938,-40.2969 0,-28.1094 0,-8.09375 C0,10.5938 16.2969,25.2969 34.9063,25.2969 C37.7969,25.2969 40.5,25 42.7969,24.5938 C44.7031,34.2031 45.9063,41.2031 45.9063,46.5 C45.9063,56.9063 40.5,62.4063 30.4063,62.4063 C28,62.4063 25.9063,61.9063 25.7031,61.9063 C25.6094,61.7969 25.4063,61.7031 25.4063,61.6094 C25.4063,61.4063 25.6094,61.2969 25.9063,61.2969 C30.6094,60.5 35.2969,56.5 35.2969,50.1094 C35.2969,44.7031 31.2031,39 23.7031,39 C16.7031,39 12.2969,44.7031 12.2969,51.2969 M33.2031,-82.2031 C34.1094,-86.2031 38.7031,-96.7031 43.9063,-96.7031 C45.4063,-96.7031 47.7969,-91.9063 47.7969,-84.9063 C47.7969,-74.5 40.1094,-66.7031 33.2031,-59.9063 C32.6094,-63.9063 32.1094,-67.7969 32.1094,-72 C32.1094,-75.7031 32.4063,-79.1094 33.2031,-82.2031 M42,20.5938 C40,21 38.1094,21.2031 36.2031,21.2031 C21.9063,21.2031 9.70313,11.2031 9.70313,-3.90625 C9.70313,-16.0938 18.2969,-27 27.1094,-34.6094 C28.7969,-36.1094 30.4063,-37.5 31.9063,-39 C32.7969,-33.6094 33.5,-28.9063 34.2031,-24.7969 C25.0938,-22.0938 18.9063,-12.5 18.9063,-3.09375 C18.9063,3.90625 24.4063,13.5 32.4063,13.5 C33.2031,13.5 34.1094,13.0938 34.1094,12.2031 C34.1094,11.2969 33.1094,10.7969 31.9063,10 C28,7.59375 25.7969,5 25.7969,0.09375 C25.7969,-6 30.4063,-10.9063 36.2031,-12.2969 L42,20.5938 M56.2031,2.09375 C56.2031,9.20313 53.2969,16.5 46.2031,19.4063 C44.1094,7.40625 41.4063,-8.5 40.7031,-12.9063 C49.7031,-12.9063 56.2031,-6.79688 56.2031,2.09375"/>
<path class="KeySig" transform="matrix(0.992126,0,0,0.992126,136.48,138.189)" d="M12,-15.5 C7,-15.5 4.09375,-12.4063 3.59375,-11.7969 L4,-43.9063 C4,-44.7031 3.40625,-45.2969 2.59375,-45.2969 L1.40625,-45.2969 C0.59375,-45.2969 0,-44.7031 0,-43.9063 L0.5,16.2031 C0.5,17 1.09375,17.5938 1.90625,17.5938 C2.09375,17.5938 2.5,17.5 2.70313,17.4063 C11.2969,13.0938 20.2969,4.90625 20.2969,-5.40625 C20.2969,-10.5938 17.9063,-15.5 12,-15.5 M3.29688,12.7031 L3.59375,-6.79688 C3.79688,-7.70313 5.29688,-10.5938 9.29688,-10.5938 C12.9063,-10.5938 13.2031,-7.20313 13.2031,-5.09375 C13.2031,3.79688 9.90625,7.5 3.29688,12.7031"/>
<path class="KeySig" transform="matrix(0.992126,0,0,0.992126,164.043,100.984)" d="M12,-15.5 C7,-15.5 4.09375,-12.4063 3.59375,-11.7969 L4,-43.9063 C4,-44.7031 3.40625,-45.2969 2.59375,-45.2969 L1.40625,-45.2969 C0.59375,-45.2969 0,-44.7031 0,-43.9063 L0.5,16.2031 C0.5,17 1.09375,17.5938 1.90625,17.5938 C2.09375,17.5938 2.5,17.5 2.70313,17.4063 C11.2969,13.0938 20.2969,4.90625 20.2969,-5.40625 C20.2969,-10.5938 17.9063,-15.5 12,-15.5 M3.29688,12.7031 L3.59375,-6.79688 C3.79688,-7.70313 5.29688,-10.5938 9.29688,-10.5938 C12.9063,-10.5938 13.2031,-7.20313 13.2031,-5.09375 C13.2031,3.79688 9.90625,7.5 3.29688,12.7031"/>
<path class="KeySig" transform="matrix(0.992126,0,0,0.992126,191.621,150.591)" d="M12,-15.5 C7,-15.5 4.09375,-12.4063 3.59375,-11.7969 L4,-43.9063 C4,-44.7031 3.40625,-45.2969 2.59375,-45.2969 L1.40625,-45.2969 C0.59375,-45.2969 0,-44.7031 0,-43.9063 L0.5,16.2031 C0.5,17 1.09375,17.5938 1.90625,17.5938 C2.09375,17.5938 2.5,17.5 2.70313,17.4063 C11.2969,13.0938 20.2969,4.90625 20.2969,-5.40625 C20.2969,-10.5938 17.9063,-15.5 12,-15.5 M3.29688,12.7031 L3.59375,-6.79688 C3.79688,-7.70313 5.29688,-10.5938 9.29688,-10.5938 C12.9063,-10.5938 13.2031,-7.20313 13.2031,-5.09375 C13.2031,3.79688 9.90625,7.5 3.29688,12.7031"/>
<path class="KeySig" transform="matrix(0.992126,0,0,0.992126,219.199,113.386)" d="M12,-15.5 C7,-15.5 4.09375,-12.4063 3.59375,-11.7969 L4,-43.9063 C4,-44.7031 3.40625,-45.2969 2.59375,-45.2969 L1.40625,-45.2969 C0.59375,-45.2969 0,-44.7031 0,-43.9063 L0.5,16.2031 C0.5,17 1.09375,17.5938 1.90625,17.5938 C2.09375,17.5938 2.5,17.5 2.70313,17.4063 C11.2969,13.0938 20.2969,4.90625 20.2969,-5.40625 C20.2969,-10.5938 17.9063,-15.5 12,-15.5 M3.29688,12.7031 L3.59375,-6.79688 C3.79688,-7.70313 5.29688,-10.5938 9.29688,-10.5938 C12.9063,-10.5938 13.2031,-7.20313 13.2031,-5.09375 C13.2031,3.79688 9.90625,7.5 3.29688,12.7031"/>
<path class="KeySig" transform="matrix(0.992126,0,0,0.992126,810.486,88.5827)" d="M23.2969,-10.5 C23.9063,-10.5938 24.4063,-11.2969 24.4063,-11.9063 L24.4063,-17.7969 C24.4063,-18.7969 23.7031,-19.2031 22.7969,-19.2031 L19.5,-18.5 L19.5,-33.4063 L16.7031,-33.4063 L16.7031,-17.9063 L7.79688,-16.0938 L7.79688,-30.2031 L5,-30.2031 L5,-15.5 L1.09375,-14.7031 C0.5,-14.5938 0,-13.9063 0,-13.2969 L0,-7.5 C0,-6.40625 0.796875,-6.09375 1.70313,-6.09375 L5,-6.79688 L5,9.70313 L1.09375,10.5 C0.5,10.5938 0,11.2969 0,11.9063 L0,17.7031 C0,18.7969 0.796875,19.0938 1.70313,19.0938 L5,18.4063 L5,33.2969 L7.79688,33.2969 L7.79688,17.7969 L16.7031,16 L16.7031,30.1094 L19.5,30.1094 L19.5,15.4063 L23.2969,14.7031 C23.9063,14.5938 24.4063,13.9063 24.4063,13.2969 L24.4063,7.40625 C24.4063,6.40625 23.7031,6 22.7969,6 L19.5,6.70313 L19.5,-9.79688 L23.2969,-10.5 M7.79688,-7.40625 L16.7031,-9.20313 L16.7031,7.29688 L7.79688,9.20313 L7.79688,-7.40625 "/>
<path class="Articulation" transform="matrix(0.992126,0,0,0.992126,1143.53,75.4409)" d="M1.09375,-1.09375 C1.90625,-0.40625 2.90625,0 3.90625,0 C4.90625,0 5.90625,-0.40625 6.70313,-1.09375 C8.20313,-2.70313 8.20313,-5.09375 6.70313,-6.70313 C5.90625,-7.5 4.90625,-7.79688 3.90625,-7.79688 C2.90625,-7.79688 1.90625,-7.5 1.09375,-6.70313 C-0.40625,-5.09375 -0.40625,-2.70313 1.09375,-1.09375"/>
<path class="Articulation" transform="matrix(0.992126,0,0,0.992126,962.67,104.852)" d="M1.09375,-1.09375 C1.90625,-0.40625 2.90625,0 3.90625,0 C4.90625,0 5.90625,-0.40625 6.70313,-1.09375 C8.20313,-2.70313 8.20313,-5.09375 6.70313,-6.70313 C5.90625,-7.5 4.90625,-7.79688 3.90625,-7.79688 C2.90625,-7.79688 1.90625,-7.5 1.09375,-6.70313 C-0.40625,-5.09375 -0.40625,-2.70313 1.09375,-1.09375"/>
<path class="Articulation" transform="matrix(0.992126,0,0,0.992126,1215.88,38.2362)" d="M1.09375,-1.09375 C1.90625,-0.40625 2.90625,0 3.90625,0 C4.90625,0 5.90625,-0.40625 6.70313,-1.09375 C8.20313,-2.70313 8.20313,-5.09375 6.70313,-6.70313 C5.90625,-7.5 4.90625,-7.79688 3.90625,-7.79688 C2.90625,-7.79688 1.90625,-7.5 1.09375,-6.70313 C-0.40625,-5.09375 -0.40625,-2.70313 1.09375,-1.09375"/>
<path class="Articulation" transform="matrix(0.992126,0,0,0.992126,890.325,80.0489)" d="M1.09375,-1.09375 C1.90625,-0.40625 2.90625,0 3.90625,0 C4.90625,0 5.90625,-0.40625 6.70313,-1.09375 C8.20313,-2.70313 8.20313,-5.09375 6.70313,-6.70313 C5.90625,-7.5 4.90625,-7.79688 3.90625,-7.79688 C2.90625,-7.79688 1.90625,-7.5 1.09375,-6.70313 C-0.40625,-5.09375 -0.40625,-2.70313 1.09375,-1.09375"/>
<path class="Beam" fill-rule="evenodd" d="M1131.31,162.971 L1206.38,156.77 L1206.38,169.214 L1131.31,175.415 L1131.31,162.971 "/>
<path class="Beam" fill-rule="evenodd" d="M490.599,212.598 L710.362,212.598 L710.362,225 L490.599,225 L490.599,212.598 "/>
<path class="Beam" fill-rule="evenodd" d="M878.098,193.975 L953.172,200.176 L953.172,212.62 L878.098,206.419 L878.098,193.975 "/>
<path class="Hook" transform="matrix(0.694488,0,0,0.694488,297.212,56.9587)" d="M0,22.7031 C0,23 0.09375,23.5938 0.796875,23.7969 C5.09375,25.2031 13.7031,30.6094 20.2031,41.7031 C22,44.7969 24.9063,49.1094 24.9063,57.4063 C24.9063,64.6094 23.0938,72 20.4063,79.2031 C20.2031,79.8125 20.0938,80.3125 20.0938,80.7031 C20.0938,81.4063 20.5,81.7031 21.2031,81.7031 C21.7969,81.7031 22.2969,81.3125 22.7031,80.6094 C27.2031,72.6094 28.9063,63.2969 28.9063,54.2031 C28.4063,41.2969 21,31.7969 21,31.7969 C21.2969,31.7969 11.7969,19.5 9.09375,15.2969 C5.40625,9.59375 3.70313,3.90625 3.5,3.5 C3.40625,3.20313 2.5,-0.40625 2.5,-0.40625 C2.40625,-0.796875 1.90625,-1.20313 1.29688,-1.20313 C0.59375,-1.20313 0,-0.59375 0,0.09375 L0,22.7031 "/>
</svg>
