<?xml version="1.0" encoding="UTF-8"?><svg id="Layer_1" xmlns="http://www.w3.org/2000/svg" xmlns:xlink="http://www.w3.org/1999/xlink" viewBox="0 0 810 406"><defs><style>.cls-1{fill:url(#linear-gradient);}.cls-1,.cls-2,.cls-3{stroke-width:0px;}.cls-2{fill:#22a0f4;}.cls-3{fill:#eaeaea;}</style><linearGradient id="linear-gradient" x1="268.04" y1="12.05" x2="564.28" y2="425.07" gradientUnits="userSpaceOnUse"><stop offset=".02" stop-color="#000021"/><stop offset=".41" stop-color="#000023"/><stop offset=".66" stop-color="#00002c"/><stop offset=".87" stop-color="#00003b"/><stop offset="1" stop-color="#000048"/></linearGradient></defs><rect class="cls-1" width="810" height="406" rx="10.25" ry="10.25"/><path class="cls-3" d="m235.77,192.19v31.27c0,.29.24.53.53.53h2.47c.29,0,.53-.24.53-.53v-33.1c0-.84-.68-1.52-1.52-1.52h-2.8c-.85,0-1.32.31-1.7,1.1l-13.02,26.26-.54-1.06-12.76-25.39c-.37-.75-.95-.9-1.75-.9h-2.71c-.81,0-1.48.66-1.48,1.48v33.15c0,.29.24.53.53.53h2.35c.29,0,.53-.24.53-.53v-31.7l13.69,27.77c.1.23.28.36.5.36h3c.21,0,.41-.13.49-.32l13.64-27.37Z"/><path class="cls-3" d="m248.01,198.11c-.37,0-.67.3-.67.67v16.87c0,3.49,3,9.02,11.04,9.02s11.04-4.86,11.04-9.02v-16.87c0-.37-.3-.67-.67-.67h-2.24c-.37,0-.67.3-.67.67v16.22c0,4.05-3.07,6.62-7.47,6.62s-7.47-2.7-7.47-6.62v-16.22c0-.37-.3-.67-.67-.67h-2.24Z"/><path class="cls-3" d="m277.16,220.59c-.07,0-.15.02-.21.05-.06.04-.14.26-.25.64l-.4,1.39c-.09.28.06.58.33.67.81.29,1.74.53,2.76.73,1.57.3,3.22.45,4.91.45,3.09,0,5.51-.7,7.19-2.08,1.65-1.35,2.45-3.1,2.45-5.33,0-1.83-.58-3.29-1.72-4.34-1.34-1.22-3.2-2.19-5.53-2.89l-1.76-.53c-2.16-.63-3.57-1.29-4.32-2.02-.87-.84-1.3-1.74-1.3-2.75,0-1.39.62-2.53,1.74-3.2,1.12-.67,4.08-1.5,8.07-.35.04.01,1.39.39,2.07.61l.32.1c.1.03.15.02.18,0,.09-.05.19-.21.26-.42l.43-1.76c.08-.29-.07-.58-.35-.68-.88-.31-1.8-.54-2.73-.7-3.11-.54-5.75-.49-7.82.15-1.1.34-2.06.81-2.85,1.41-.76.58-1.38,1.3-1.82,2.15-.44.84-.66,1.79-.66,2.8,0,1.72.56,3.23,1.58,4.25,1.12,1.13,2.91,2.09,5.3,2.85l1.82.59c1.73.52,3.1,1.08,4.06,1.64,1.24.73,1.82,1.8,1.82,3.36,0,1.9-.77,2.74-2.01,3.49-1.12.68-2.61.99-4.69.99-1.45,0-2.89-.18-4.28-.53-.84-.21-1.64-.46-2.39-.75-.06-.02-.11-.03-.17-.03Z"/><path class="cls-3" d="m329.65,219.83c-.06,0-.13.01-.19.04-.17.08-.31.27-.39.52l-.4,1.71c-.08.27.04.56.28.65,1.45.59,2.93,1.02,4.4,1.27,4.13.71,7.75.64,10.47-.21,1.45-.45,2.72-1.11,3.78-1.95,1.04-.83,1.87-1.85,2.45-3.03.58-1.18.87-2.51.87-3.97,0-2.05-.64-3.93-1.89-5.57-1.27-1.66-3.51-3-6.68-4l-3.71-1.17c-2.32-.71-4.03-1.57-5.09-2.56-1.15-1.08-1.74-2.51-1.74-4.27,0-2.11,1.16-3.96,3.19-5.09,2.44-1.36,6.62-1.17,9.31-.31,1.02.32,1.89.66,2.46.88.17.07.32.12.43.16.15.06.3.05.44-.01.14-.07.26-.21.31-.37h0c.08-.25.13-.4.17-.5h0s0,0,0,0c0,0,0,0,0-.01h0s.59-1.67.59-1.67c.07-.24-.06-.52-.28-.61-1.18-.48-2.4-.83-3.63-1.04-1.62-.28-3.32-.43-5.07-.43-3.82,0-6.74.88-8.69,2.61-1.92,1.71-2.89,4.07-2.89,7.03,0,2.28.64,4.1,1.91,5.4,1.34,1.37,3.3,2.48,5.84,3.29l3.7,1.18c1.42.45,2.61.92,3.56,1.41.99.52,1.79,1.09,2.39,1.71.62.65,1.07,1.35,1.32,2.07.26.72.38,1.49.38,2.28-.01,2.14-.77,3.64-2.47,4.85-1.42,1.02-3.47,1.54-6.11,1.54-1.83,0-3.6-.21-5.28-.62-1.18-.29-2.38-.69-3.59-1.2-.06-.02-.12-.04-.18-.04Z"/><path class="cls-3" d="m413.46,198.24c-.29,0-.53.24-.53.53v24.69c0,.29.24.53.53.53h2.41c.29,0,.53-.24.53-.53v-12.81c0-1.59.23-3.04.67-4.28.45-1.27,1.09-2.36,1.9-3.23.81-.88,1.78-1.55,2.86-1.99,1.07-.44,2.25-.66,3.5-.66,1.02,0,1.7.13,2.01.2.56.13.82-.2.88-.39l.44-1.4c.09-.4-.03-.56-.57-.79l-.09-.02c-.08-.02-.16-.05-.16-.05-.56-.13-1.35-.2-2.27-.2-6.49,0-8.78,4.55-8.8,4.6l-.72,1.54v-5.2c0-.29-.24-.53-.53-.53h-2.06Z"/><path class="cls-3" d="m356.91,211.4c.02,1.97.36,3.78.99,5.36.66,1.64,1.57,3.04,2.73,4.17,1.15,1.14,2.56,2.02,4.2,2.64,1.65.62,3.49.94,5.49.94,1.15,0,2.3-.09,3.42-.25.78-.12,1.68-.37,2.67-.75.17-.06.26-.26.2-.44l-.48-1.97c-.02-.08-.07-.14-.15-.18-.1-.05-.23-.06-.34-.02-1.7.53-3.24.77-4.86.77-3.6,0-5.86-.72-7.54-2.42-1.93-1.96-2.91-4.73-2.91-8.25s.93-5.84,2.91-7.86c1.71-1.72,3.97-2.46,7.59-2.46,1.61,0,3.15.24,4.85.77.12.04.25.03.35-.02.07-.04.13-.1.15-.19l.42-1.95c.06-.19-.03-.38-.2-.45-.98-.38-1.88-.63-2.67-.75-1.12-.17-2.26-.25-3.42-.25-1.99,0-3.84.32-5.49.94-1.64.62-3.05,1.51-4.2,2.64-1.15,1.13-2.07,2.54-2.73,4.18-.64,1.6-.97,3.43-.99,5.43v.39Z"/><path class="cls-3" d="m312.26,197.83c-1.95,0-3.71.32-5.25.96-1.54.63-2.86,1.53-3.94,2.66-1.08,1.13-1.93,2.53-2.53,4.17-.6,1.65-.91,3.52-.91,5.55,0,2.37.36,4.42,1.07,6.1.7,1.67,1.68,3.04,2.89,4.09,1.23,1.07,2.67,1.87,4.28,2.38,1.65.52,3.45.78,5.33.78,1.68,0,3.29-.15,4.78-.45.93-.19,1.81-.42,2.6-.69.27-.09.43-.39.36-.66l-.28-1c-.02-.09-.05-.19-.07-.3-.05-.2-.1-.41-.16-.58-.08-.2-.18-.35-.69-.19-.83.25-1.43.43-2.21.59-1.21.25-2.61.37-4.16.37-2.2,0-5.46-.6-7.42-2.28-1.93-1.65-2.78-3.78-2.78-6.93v-.59h18.25c1.15,0,1.55-1.15,1.55-2.13v-.68c0-1.69-.26-3.24-.76-4.61-.51-1.36-1.23-2.54-2.15-3.49-.93-.96-2.05-1.72-3.35-2.25-1.31-.54-2.8-.81-4.43-.81Zm-9.1,11.23v-.18c0-2.87,2.66-8.51,8.81-8.51,5.55,0,7.52,4.51,7.52,8.38v.18h-.18s-16.15.13-16.15.13Z"/><path class="cls-3" d="m393.66,197.83c-7.41,0-12.58,5.49-12.58,13.34,0,9.84,6.5,13.34,12.58,13.34s12.58-3.51,12.58-13.34c0-7.86-5.17-13.34-12.58-13.34Zm0,23.84c-3.05,0-5.51-1.15-7.12-3.33-1.35-1.83-2.09-4.37-2.09-7.16,0-5.05,2.88-10.49,9.21-10.49s9.21,5.28,9.21,10.49c0,4.84-2.41,10.49-9.21,10.49Z"/><path class="cls-3" d="m444.48,197.83c-1.95,0-3.71.32-5.25.96-1.54.63-2.86,1.53-3.94,2.66-1.08,1.13-1.93,2.53-2.53,4.17-.6,1.65-.91,3.52-.91,5.55,0,2.37.36,4.42,1.07,6.1.7,1.67,1.68,3.04,2.89,4.09,1.23,1.07,2.67,1.87,4.28,2.38,1.65.52,3.45.78,5.33.78,1.68,0,3.29-.15,4.78-.45.93-.19,1.81-.42,2.6-.69.27-.09.43-.39.36-.66l-.28-1c-.02-.09-.05-.19-.07-.3-.05-.2-.1-.41-.16-.57-.08-.2-.18-.35-.69-.19-.83.25-1.43.43-2.21.59-1.21.25-2.61.37-4.16.37-2.2,0-5.46-.6-7.42-2.28-1.93-1.65-2.78-3.78-2.78-6.93v-.59h18.25c1.15,0,1.55-1.15,1.55-2.13v-.68c0-1.69-.26-3.24-.76-4.61-.51-1.36-1.23-2.54-2.15-3.49-.93-.96-2.05-1.72-3.35-2.25-1.31-.54-2.8-.81-4.43-.81Zm-9.1,11.23v-.18c0-2.87,2.66-8.51,8.81-8.51,5.55,0,7.52,4.51,7.52,8.38v.18h-.18s-16.15.13-16.15.13Z"/><path class="cls-2" d="m566.28,186.9c0-.29-.2-.53-.45-.53h-1.98c-.25,0-.45.24-.45.53v36.56c0,.29.2.53.45.53h1.98c.25,0,.45-.24.45-.53v-36.56Z"/><path class="cls-2" d="m577.4,198.39h-2.35c-.29,0-.53.24-.53.53v24.54c0,.29.24.53.53.53h2.35c.29,0,.53-.24.53-.53v-24.54c0-.29-.24-.53-.53-.53Z"/><path class="cls-2" d="m553.7,197.83c-7.41,0-12.58,5.49-12.58,13.34,0,9.84,6.5,13.34,12.58,13.34s12.58-3.51,12.58-13.34c0-7.86-5.17-13.34-12.58-13.34Zm0,23.84c-3.05,0-5.51-1.15-7.12-3.33-1.35-1.83-2.09-4.37-2.09-7.16,0-5.05,2.88-10.49,9.21-10.49s9.21,5.28,9.21,10.49c0,4.84-2.41,10.49-9.21,10.49Z"/><path class="cls-2" d="m578.5,191.05c.04,1.26-.88,2.26-2.35,2.26-1.3,0-2.22-1.01-2.22-2.26s.96-2.31,2.31-2.31,2.26,1.01,2.26,2.31Z"/><path class="cls-2" d="m513.34,198.11c-.37,0-.67.3-.67.67v16.87c0,3.49,3,9.02,11.04,9.02s11.04-4.86,11.04-9.02v-16.87c0-.37-.3-.67-.67-.67h-2.24c-.37,0-.67.3-.67.67v16.22c0,4.05-3.07,6.62-7.47,6.62s-7.47-2.7-7.47-6.62v-16.22c0-.37-.3-.67-.67-.67h-2.24Z"/><path class="cls-2" d="m506.03,220.58c-1.63.49-6.47,1.77-6.47-2.93v-25.96c0-.37-.3-.67-.67-.67h-2.24c-.37,0-.67.3-.67.67v26.61c0,6.73,7.75,7.08,10.96,5.34"/><path class="cls-2" d="m467.5,219.83c-.06,0-.13.01-.19.04-.17.08-.31.27-.39.52l-.4,1.71c-.08.27.04.56.28.65,1.45.59,2.93,1.02,4.4,1.27,4.13.71,7.75.64,10.47-.21,1.45-.45,2.72-1.11,3.78-1.95,1.04-.83,1.87-1.85,2.45-3.03.58-1.18.87-2.51.87-3.97,0-2.05-.64-3.93-1.89-5.57-1.27-1.66-3.51-3-6.68-4l-3.71-1.17c-2.32-.71-4.03-1.57-5.09-2.56-1.15-1.08-1.74-2.51-1.74-4.27,0-2.11,1.16-3.96,3.19-5.09,2.44-1.36,6.62-1.17,9.31-.31,1.02.32,1.89.66,2.46.88.17.07.32.12.43.16.15.06.3.05.44-.01.14-.07.26-.21.31-.37h0c.08-.25.13-.4.17-.5h0s0,0,0,0c0,0,0,0,0-.01h0s.59-1.67.59-1.67c.07-.24-.06-.52-.28-.61-1.18-.48-2.4-.83-3.63-1.04-1.62-.28-3.32-.43-5.07-.43-3.82,0-6.74.88-8.69,2.61-1.92,1.71-2.89,4.07-2.89,7.03,0,2.28.64,4.1,1.91,5.4,1.34,1.37,3.3,2.48,5.84,3.29l3.7,1.18c1.42.45,2.61.92,3.56,1.41.99.52,1.79,1.09,2.39,1.71.62.65,1.07,1.35,1.32,2.07.26.72.38,1.49.38,2.28-.01,2.14-.77,3.64-2.47,4.85-1.42,1.02-3.47,1.54-6.11,1.54-1.83,0-3.6-.21-5.28-.62-1.18-.29-2.38-.69-3.59-1.2-.06-.02-.12-.04-.18-.04Z"/><path class="cls-2" d="m491.83,198.64v2.35c0,.29.24.53.53.53h12.85c.29,0,.53-.24.53-.53v-2.35c0-.29-.24-.53-.53-.53h-12.85c-.29,0-.53.24-.53.53Z"/><path class="cls-2" d="m597.39,197.83c-7.41,0-12.58,5.49-12.58,13.34,0,9.84,6.5,13.34,12.58,13.34s12.58-3.51,12.58-13.34c0-7.86-5.17-13.34-12.58-13.34Zm0,23.84c-3.05,0-5.51-1.15-7.12-3.33-1.35-1.83-2.09-4.37-2.09-7.16,0-5.05,2.88-10.49,9.21-10.49s9.21,5.28,9.21,10.49c0,4.84-2.41,10.49-9.21,10.49Z"/></svg>