<svg width="800" height="380" viewBox="0 0 800 380" fill="none" xmlns="http://www.w3.org/2000/svg">
<g clip-path="url(#clip0_8843_25798)">
<rect width="800" height="380" fill="#00081C"/>
<path d="M39.707 171.008C39.2645 169.672 39.0266 168.253 39.0266 166.785C39.0266 158.746 46.1513 152.23 54.9402 152.23C60.0145 152.23 64.5341 154.402 67.4481 157.785H67.448C68.286 158.665 68.7974 159.837 68.7974 161.125C68.7974 163.854 66.4994 166.067 63.6645 166.067C60.8297 166.067 58.5316 163.854 58.5316 161.125C58.5316 158.396 60.8297 156.183 63.6645 156.183C63.7036 156.183 63.7427 156.184 63.7816 156.184C62.0865 154.943 59.9713 154.207 57.6774 154.207C52.1029 154.207 47.5839 158.557 47.5839 163.924C47.5839 166.718 48.8082 169.236 50.7683 171.008H39.707Z" fill="#19F3FF"/>
<path d="M69.8241 181.863C69.8241 180.856 69.7212 179.87 69.5245 178.915H56.9725C58.5814 180.698 59.5585 183.045 59.5585 185.617C59.5585 191.195 54.9623 195.716 49.2926 195.716C47.0075 195.716 44.8967 194.982 43.1909 193.74C45.999 193.71 48.2658 191.509 48.2658 188.798C48.2658 186.069 45.9677 183.857 43.1329 183.857C40.2981 183.857 38 186.069 38 188.798C38 190.06 38.491 191.211 39.299 192.084C42.4738 195.515 47.2169 197.693 52.5162 197.693C62.0751 197.693 69.8241 190.606 69.8241 181.863Z" fill="#19F3FF"/>
<path d="M64.1777 171.008H52.8853L43.6461 178.915H54.9385L64.1777 171.008Z" fill="#19F3FF"/>
<path d="M84.8184 161.815H90.1364V164.077C90.6521 163.275 91.3289 162.617 92.1669 162.104C93.0372 161.59 93.9718 161.334 94.971 161.334H95.2127C97.5656 161.334 99.2093 162.377 100.144 164.462C100.627 163.596 101.337 162.858 102.271 162.248C103.238 161.639 104.318 161.334 105.51 161.334H105.752C107.557 161.334 108.943 161.943 109.91 163.163C110.909 164.382 111.409 166.195 111.409 168.601V188.285H105.897V169.275C105.897 168.312 105.688 167.558 105.269 167.013C104.882 166.435 104.286 166.146 103.48 166.146H103.286C102.481 166.146 101.868 166.435 101.449 167.013C101.063 167.558 100.869 168.312 100.869 169.275V188.285H95.3578V169.275C95.3578 168.312 95.1483 167.558 94.7293 167.013C94.3425 166.435 93.7462 166.146 92.9405 166.146H92.7471C91.9413 166.146 91.3289 166.435 90.9099 167.013C90.5232 167.558 90.3298 168.312 90.3298 169.275V188.285H84.8184V161.815Z" fill="#19F3FF"/>
<path d="M121.261 188.766C118.554 188.766 116.556 188.093 115.266 186.745C113.977 185.397 113.333 183.36 113.333 180.633V161.815H118.844V180.825C118.844 181.788 119.054 182.558 119.473 183.135C119.892 183.681 120.504 183.954 121.31 183.954H121.6C122.406 183.954 123.018 183.681 123.437 183.135C123.856 182.558 124.065 181.788 124.065 180.825V161.815H129.577V180.633C129.577 183.36 128.932 185.397 127.643 186.745C126.354 188.093 124.355 188.766 121.648 188.766H121.261Z" fill="#19F3FF"/>
<path d="M139.196 188.766C136.844 188.766 134.926 188.141 133.443 186.889C131.961 185.606 131.219 183.905 131.219 181.788V179.67H136.586V181.258C136.586 182.157 136.828 182.863 137.311 183.376C137.827 183.889 138.471 184.146 139.245 184.146H139.535C140.308 184.146 140.921 183.938 141.372 183.52C141.856 183.071 142.097 182.478 142.097 181.74V181.499C142.097 180.857 141.936 180.312 141.614 179.863C141.324 179.381 140.776 178.9 139.97 178.419L135.716 175.916C134.297 175.082 133.218 174.087 132.476 172.932C131.767 171.777 131.413 170.382 131.413 168.745V168.408C131.413 166.195 132.106 164.462 133.492 163.211C134.878 161.959 136.715 161.334 139.003 161.334H139.438C141.856 161.334 143.773 161.927 145.191 163.114C146.61 164.302 147.319 166.002 147.319 168.216V169.997H141.952V168.649C141.952 167.815 141.71 167.157 141.227 166.676C140.776 166.195 140.18 165.954 139.438 165.954H139.245C138.504 165.954 137.907 166.163 137.456 166.58C137.005 166.965 136.779 167.51 136.779 168.216V168.457C136.779 169.034 136.94 169.547 137.263 169.997C137.617 170.446 138.117 170.863 138.761 171.248L142.822 173.654C144.531 174.649 145.723 175.708 146.4 176.831C147.109 177.922 147.464 179.365 147.464 181.162V181.595C147.464 183.777 146.738 185.526 145.288 186.841C143.838 188.125 141.952 188.766 139.632 188.766H139.196Z" fill="#19F3FF"/>
<path d="M156.855 188.766C154.148 188.766 152.166 188.093 150.909 186.745C149.652 185.365 149.023 183.376 149.023 180.777V169.323C149.023 163.997 151.698 161.334 157.049 161.334H157.387C162.447 161.334 164.977 163.997 164.977 169.323V176.253H154.535V180.922C154.535 181.884 154.744 182.638 155.163 183.184C155.582 183.697 156.194 183.954 157 183.954H157.194C157.999 183.954 158.596 183.681 158.982 183.135C159.401 182.558 159.611 181.788 159.611 180.825V179.959H164.977V180.777C164.977 183.312 164.349 185.285 163.092 186.697C161.867 188.076 159.965 188.766 157.387 188.766H156.855ZM159.611 172.355V169.275C159.611 168.312 159.401 167.558 158.982 167.013C158.596 166.435 157.999 166.146 157.194 166.146H157C156.194 166.146 155.582 166.435 155.163 167.013C154.744 167.558 154.535 168.312 154.535 169.275V172.355H159.611Z" fill="#19F3FF"/>
<path d="M174.512 188.766C172.159 188.766 170.241 188.141 168.758 186.889C167.276 185.606 166.535 183.905 166.535 181.788V179.67H171.901V181.258C171.901 182.157 172.143 182.863 172.626 183.376C173.142 183.889 173.786 184.146 174.56 184.146H174.85C175.624 184.146 176.236 183.938 176.687 183.52C177.171 183.071 177.412 182.478 177.412 181.74V181.499C177.412 180.857 177.251 180.312 176.929 179.863C176.639 179.381 176.091 178.9 175.285 178.419L171.031 175.916C169.613 175.082 168.533 174.087 167.792 172.932C167.082 171.777 166.728 170.382 166.728 168.745V168.408C166.728 166.195 167.421 164.462 168.807 163.211C170.193 161.959 172.03 161.334 174.318 161.334H174.753C177.171 161.334 179.088 161.927 180.507 163.114C181.925 164.302 182.634 166.002 182.634 168.216V169.997H177.267V168.649C177.267 167.815 177.026 167.157 176.542 166.676C176.091 166.195 175.495 165.954 174.753 165.954H174.56C173.819 165.954 173.222 166.163 172.771 166.58C172.32 166.965 172.094 167.51 172.094 168.216V168.457C172.094 169.034 172.255 169.547 172.578 169.997C172.932 170.446 173.432 170.863 174.077 171.248L178.138 173.654C179.846 174.649 181.038 175.708 181.715 176.831C182.424 177.922 182.779 179.365 182.779 181.162V181.595C182.779 183.777 182.054 185.526 180.603 186.841C179.153 188.125 177.267 188.766 174.947 188.766H174.512Z" fill="#19F3FF"/>
<path d="M192.364 188.766C189.721 188.766 187.723 188.076 186.369 186.697C185.015 185.317 184.338 183.344 184.338 180.777V169.323C184.338 166.756 185.015 164.783 186.369 163.403C187.723 162.024 189.721 161.334 192.364 161.334H192.702C197.762 161.334 200.292 163.997 200.292 169.323V170.43H194.926V169.275C194.926 168.28 194.717 167.51 194.298 166.965C193.911 166.419 193.315 166.146 192.509 166.146H192.315C191.51 166.146 190.897 166.435 190.478 167.013C190.059 167.558 189.85 168.312 189.85 169.275V180.825C189.85 181.788 190.059 182.558 190.478 183.135C190.897 183.681 191.51 183.954 192.315 183.954H192.509C193.315 183.954 193.911 183.681 194.298 183.135C194.717 182.558 194.926 181.788 194.926 180.825V179.718H200.292V180.777C200.292 186.103 197.762 188.766 192.702 188.766H192.364Z" fill="#19F3FF"/>
<path d="M210.069 188.766C204.718 188.766 202.043 186.103 202.043 180.777V169.323C202.043 163.997 204.702 161.334 210.02 161.334H210.407C215.725 161.334 218.384 163.997 218.384 169.323V180.777C218.384 186.103 215.709 188.766 210.359 188.766H210.069ZM207.555 180.825C207.555 181.788 207.78 182.558 208.231 183.135C208.683 183.681 209.311 183.954 210.117 183.954H210.31C211.116 183.954 211.745 183.681 212.196 183.135C212.647 182.558 212.873 181.788 212.873 180.825V169.275C212.873 168.312 212.647 167.558 212.196 167.013C211.745 166.435 211.116 166.146 210.31 166.146H210.117C209.311 166.146 208.683 166.435 208.231 167.013C207.78 167.558 207.555 168.312 207.555 169.275V180.825Z" fill="#19F3FF"/>
<path d="M220.413 161.815H225.731V165.232C226.15 164.27 226.763 163.467 227.569 162.826C228.374 162.152 229.406 161.815 230.663 161.815H231.726V167.013H229.841C228.487 167.013 227.488 167.302 226.843 167.879C226.231 168.425 225.925 169.339 225.925 170.622V188.285H220.413V161.815Z" fill="#19F3FF"/>
<path d="M240.705 188.766C237.998 188.766 236.016 188.093 234.759 186.745C233.502 185.365 232.873 183.376 232.873 180.777V169.323C232.873 163.997 235.548 161.334 240.898 161.334H241.237C246.297 161.334 248.827 163.997 248.827 169.323V176.253H238.384V180.922C238.384 181.884 238.594 182.638 239.013 183.184C239.432 183.697 240.044 183.954 240.85 183.954H241.043C241.849 183.954 242.446 183.681 242.832 183.135C243.251 182.558 243.461 181.788 243.461 180.825V179.959H248.827V180.777C248.827 183.312 248.199 185.285 246.942 186.697C245.717 188.076 243.815 188.766 241.237 188.766H240.705ZM243.461 172.355V169.275C243.461 168.312 243.251 167.558 242.832 167.013C242.446 166.435 241.849 166.146 241.043 166.146H240.85C240.044 166.146 239.432 166.435 239.013 167.013C238.594 167.558 238.384 168.312 238.384 169.275V172.355H243.461Z" fill="#19F3FF"/>
<path d="M262.988 188.766C260.635 188.766 258.718 188.141 257.235 186.889C255.753 185.606 255.011 183.905 255.011 181.788V179.67H260.378V181.258C260.378 182.157 260.619 182.863 261.103 183.376C261.619 183.889 262.263 184.146 263.037 184.146H263.327C264.1 184.146 264.713 183.938 265.164 183.52C265.647 183.071 265.889 182.478 265.889 181.74V181.499C265.889 180.857 265.728 180.312 265.406 179.863C265.116 179.381 264.568 178.9 263.762 178.419L259.507 175.916C258.089 175.082 257.01 174.087 256.268 172.932C255.559 171.777 255.205 170.382 255.205 168.745V168.408C255.205 166.195 255.898 164.462 257.284 163.211C258.669 161.959 260.507 161.334 262.795 161.334H263.23C265.647 161.334 267.565 161.927 268.983 163.114C270.401 164.302 271.11 166.002 271.11 168.216V169.997H265.744V168.649C265.744 167.815 265.502 167.157 265.019 166.676C264.568 166.195 263.971 165.954 263.23 165.954H263.037C262.295 165.954 261.699 166.163 261.248 166.58C260.797 166.965 260.571 167.51 260.571 168.216V168.457C260.571 169.034 260.732 169.547 261.055 169.997C261.409 170.446 261.909 170.863 262.553 171.248L266.614 173.654C268.323 174.649 269.515 175.708 270.192 176.831C270.901 177.922 271.255 179.365 271.255 181.162V181.595C271.255 183.777 270.53 185.526 269.08 186.841C267.63 188.125 265.744 188.766 263.423 188.766H262.988Z" fill="#19F3FF"/>
<path d="M281.093 188.285C278.741 188.285 277.016 187.772 275.92 186.745C274.857 185.686 274.325 183.889 274.325 181.355V166.435H271.908V161.815H274.325V157.099H279.837V161.815H283.462V166.435H279.837V181.018C279.837 181.948 279.998 182.606 280.32 182.991C280.642 183.344 281.206 183.52 282.012 183.52H283.462V188.285H281.093Z" fill="#19F3FF"/>
<path d="M292.738 188.766C290.031 188.766 288.032 188.093 286.743 186.745C285.454 185.397 284.809 183.36 284.809 180.633V161.815H290.321V180.825C290.321 181.788 290.53 182.558 290.949 183.135C291.368 183.681 291.981 183.954 292.786 183.954H293.076C293.882 183.954 294.495 183.681 294.914 183.135C295.333 182.558 295.542 181.788 295.542 180.825V161.815H301.054V180.633C301.054 183.36 300.409 185.397 299.12 186.745C297.83 188.093 295.832 188.766 293.125 188.766H292.738Z" fill="#19F3FF"/>
<path d="M308.981 188.766C307.144 188.766 305.661 188.173 304.533 186.986C303.437 185.766 302.89 183.954 302.89 181.547V168.553C302.89 166.146 303.437 164.35 304.533 163.163C305.661 161.943 307.144 161.334 308.981 161.334H309.223C310.222 161.334 311.108 161.59 311.882 162.104C312.655 162.585 313.236 163.227 313.622 164.029V155.558H319.134V188.285H313.719V186.264C313.203 187.034 312.559 187.643 311.785 188.093C311.044 188.542 310.19 188.766 309.223 188.766H308.981ZM308.401 180.825C308.401 181.788 308.61 182.558 309.029 183.135C309.448 183.681 310.061 183.954 310.867 183.954H311.108C311.914 183.954 312.526 183.681 312.945 183.135C313.364 182.558 313.574 181.788 313.574 180.825V169.275C313.574 168.312 313.364 167.558 312.945 167.013C312.526 166.435 311.914 166.146 311.108 166.146H310.867C310.061 166.146 309.448 166.435 309.029 167.013C308.61 167.558 308.401 168.312 308.401 169.275V180.825Z" fill="#19F3FF"/>
<path d="M321.357 161.815H326.868V188.285H321.357V161.815ZM320.921 157.676C320.921 156.746 321.211 155.992 321.792 155.414C322.404 154.805 323.178 154.5 324.112 154.5C325.047 154.5 325.804 154.805 326.384 155.414C326.997 155.992 327.303 156.746 327.303 157.676C327.303 158.607 326.997 159.377 326.384 159.986C325.804 160.564 325.047 160.852 324.112 160.852C323.178 160.852 322.404 160.564 321.792 159.986C321.211 159.377 320.921 158.607 320.921 157.676Z" fill="#19F3FF"/>
<path d="M336.929 188.766C331.579 188.766 328.904 186.103 328.904 180.777V169.323C328.904 163.997 331.563 161.334 336.881 161.334H337.268C342.586 161.334 345.245 163.997 345.245 169.323V180.777C345.245 186.103 342.57 188.766 337.219 188.766H336.929ZM334.415 180.825C334.415 181.788 334.641 182.558 335.092 183.135C335.543 183.681 336.172 183.954 336.978 183.954H337.171C337.977 183.954 338.605 183.681 339.056 183.135C339.508 182.558 339.733 181.788 339.733 180.825V169.275C339.733 168.312 339.508 167.558 339.056 167.013C338.605 166.435 337.977 166.146 337.171 166.146H336.978C336.172 166.146 335.543 166.435 335.092 167.013C334.641 167.558 334.415 168.312 334.415 169.275V180.825Z" fill="#19F3FF"/>
<g clip-path="url(#clip1_8843_25798)">
<path d="M739.596 259.977L709.519 126.279L747.384 234.793L739.596 259.977Z" fill="#5682FE"/>
<path d="M741.067 248.753L700.681 108.617L749.474 217.771L741.067 248.753Z" fill="#4F76F1"/>
<path d="M742.781 234.562L690.237 90.9493L751.468 197.86L742.781 234.562Z" fill="#496BE7"/>
<path d="M744.37 218.046L677.938 73.7749L752.967 175.776L744.37 218.046Z" fill="#4260DC"/>
<path d="M745.497 199.843L663.64 57.5503L753.629 152.201L745.497 199.843Z" fill="#3B55D0"/>
<path d="M745.877 180.57L647.306 42.6849L753.163 127.781L745.877 180.57Z" fill="#3246C2"/>
<path d="M745.286 160.816L629.042 29.5017L751.371 103.123L745.286 160.816Z" fill="#2B3BB7"/>
<path d="M457.925 317.703L411.14 176.03L478.125 289.866L457.925 317.703Z" fill="#36C1FA"/>
<path d="M483.242 302.018L419.833 154.098L503.214 268.28L483.242 302.018Z" fill="#3EB4F8"/>
<path d="M431.642 329.73L399.885 197.608L451.394 307.864L431.642 329.73Z" fill="#32C9FA"/>
<path d="M507.178 283.396L425.906 132.335L526.331 243.926L507.178 283.396Z" fill="#46A6F7"/>
<path d="M743.574 141.125L609.076 18.2268L748.136 78.8007L743.574 141.125Z" fill="#222BA7"/>
<path d="M404.91 337.454L386.191 218.288L423.473 321.454L404.91 337.454Z" fill="#2BD5FC"/>
<path d="M529.446 262.542L429.418 111.238L547.271 217.562L529.446 262.542Z" fill="#4C9BF5"/>
<path d="M549.856 240.143L430.514 91.2671L565.917 189.903L549.856 240.143Z" fill="#538FF4"/>
<path d="M378.352 340.365L370.27 237.511L394.947 329.865L378.352 340.365Z" fill="#27DCFC"/>
<path d="M740.67 122.011L587.759 8.98058L743.439 55.3495L740.67 122.011Z" fill="#191D99"/>
<path d="M568.315 216.843L429.459 72.8189L582.25 161.592L568.315 216.843Z" fill="#5886F3"/>
<path d="M736.599 103.937L565.559 1.76961L737.366 33.2753L736.599 103.937Z" fill="#17158B"/>
<path d="M584.809 193.234L426.619 56.2209L596.326 133.243L584.809 193.234Z" fill="#5E7DF2"/>
<path d="M352.656 338.203L352.381 254.725L366.524 332.488L352.656 338.203Z" fill="#22E3FD"/>
<path d="M599.413 169.86L422.475 41.7035L608.284 105.407L599.413 169.86Z" fill="#6C77F2"/>
<path d="M731.437 87.3367L542.996 -3.52606L730.095 13.0424L731.437 87.3367Z" fill="#251898"/>
<path d="M328.514 331.042L332.865 269.386L339.001 329.018L328.514 331.042Z" fill="#1DECFE"/>
<path d="M612.264 147.223L417.579 29.3905L618.335 78.6133L612.264 147.223Z" fill="#7770F3"/>
<path d="M725.333 72.5779L520.647 -7.1022L721.875 -4.93227L725.333 72.5779Z" fill="#3A23A5"/>
<path d="M623.549 125.781L412.547 19.2821L626.764 53.3534L623.549 125.781Z" fill="#8470F3"/>
<path d="M306.554 319.368L312.101 281.009L313.194 319.566L306.554 319.368Z" fill="#19F3FF"/>
<path d="M718.49 59.9914L499.073 -9.24073L713.015 -20.288L718.49 59.9914Z" fill="#4F2DB2"/>
<path d="M633.509 105.944L407.995 11.2622L633.893 30.0853L633.509 105.944Z" fill="#966EF8"/>
<path d="M711.124 49.8519L478.817 -10.245L703.848 -32.7102L711.124 49.8519Z" fill="#6437BF"/>
<path d="M642.412 88.0826L404.53 5.11659L640.106 9.20674L642.412 88.0826Z" fill="#A56DFA"/>
<path d="M703.458 42.3867L460.359 -10.4228L694.711 -41.954L703.458 42.3867Z" fill="#7942CB"/>
<path d="M650.547 72.5079L402.7 0.556665L645.789 -8.91996L650.547 72.5079Z" fill="#B66DFC"/>
<path d="M695.679 37.7586L444.096 -10.033L685.899 -47.8231L695.679 37.7586Z" fill="#8E4CD8"/>
<path d="M658.19 59.4766L402.962 -2.75296L651.324 -24.001L658.19 59.4766Z" fill="#BF6CFD"/>
<path d="M687.953 36.087L430.339 -9.27037L677.64 -50.1866L687.953 36.087Z" fill="#A356E5"/>
<path d="M665.579 49.199L405.677 -5.13647L657.05 -35.8069L665.579 49.199Z" fill="#C16CFD"/>
<path d="M680.367 37.4385L419.301 -8.22549L670.078 -48.9727L680.367 37.4385Z" fill="#B861F2"/>
<path d="M671.956 42.7963L410.111 -5.91495L662.266 -43.193L671.956 42.7963Z" fill="#C86AFA"/>
</g>
</g>
<defs>
<clipPath id="clip0_8843_25798">
<rect width="800" height="380" fill="white"/>
</clipPath>
<clipPath id="clip1_8843_25798">
<rect width="467.21" height="352.781" fill="white" transform="translate(773.99 293.632) rotate(173.229)"/>
</clipPath>
</defs>
</svg>
