<svg width="800" height="380" viewBox="0 0 800 380" fill="none" xmlns="http://www.w3.org/2000/svg">
<g clip-path="url(#clip0_8590_25845)">
<rect width="800" height="380" fill="#00081C"/>
<g clip-path="url(#clip1_8590_25845)">
<path d="M740.707 269.348L710.15 131.599L748.411 243.448L740.707 269.348Z" fill="#5682FE"/>
<path d="M742.141 257.799L701.247 113.385L750.443 225.932L742.141 257.799Z" fill="#4F76F1"/>
<path d="M743.804 243.194L690.735 95.159L752.367 205.439L743.804 243.194Z" fill="#496BE7"/>
<path d="M745.337 226.197L678.371 77.4347L753.79 182.709L745.337 226.197Z" fill="#4260DC"/>
<path d="M746.399 207.461L664.01 60.6811L754.368 158.441L746.399 207.461Z" fill="#3B55D0"/>
<path d="M746.714 187.62L647.62 45.3196L753.819 133.298L746.714 187.62Z" fill="#3246C2"/>
<path d="M746.053 167.281L629.301 31.6834L751.939 107.906L746.053 167.281Z" fill="#2B3BB7"/>
<path d="M459.122 327.791L411.821 181.773L479.233 299.204L459.122 327.791Z" fill="#36C1FA"/>
<path d="M484.395 311.732L420.441 159.224L504.257 277.068L484.395 311.732Z" fill="#3EB4F8"/>
<path d="M432.87 340.082L400.638 203.948L452.554 317.64L432.87 340.082Z" fill="#32C9FA"/>
<path d="M508.276 292.645L426.441 136.84L527.298 252.077L508.276 292.645Z" fill="#46A6F7"/>
<path d="M744.271 147.002L609.286 20.0057L748.616 82.8547L744.271 147.002Z" fill="#222BA7"/>
<path d="M406.154 347.94L387.01 225.191L424.668 331.533L406.154 347.94Z" fill="#2BD5FC"/>
<path d="M530.479 271.252L429.879 115.132L548.154 225.008L530.479 271.252Z" fill="#4C9BF5"/>
<path d="M550.819 248.264L430.905 94.576L566.711 196.597L550.819 248.264Z" fill="#538FF4"/>
<path d="M379.596 350.843L371.15 244.925L396.161 340.091L379.596 350.843Z" fill="#27DCFC"/>
<path d="M741.299 127.314L587.928 10.4118L743.835 58.6949L741.299 127.314Z" fill="#191D99"/>
<path d="M569.203 224.341L429.785 75.5797L582.951 167.509L569.203 224.341Z" fill="#5886F3"/>
<path d="M737.162 108.692L565.692 2.91029L737.682 35.948L737.162 108.692Z" fill="#17158B"/>
<path d="M585.623 200.093L426.888 58.4819L596.935 138.372L585.623 200.093Z" fill="#5E7DF2"/>
<path d="M353.881 348.527L353.313 262.585L367.734 342.693L353.881 348.527Z" fill="#22E3FD"/>
<path d="M600.152 176.081L422.691 43.5214L608.8 109.756L600.152 176.081Z" fill="#6C77F2"/>
<path d="M731.938 91.5842L543.101 -2.62077L730.336 15.0924L731.938 91.5842Z" fill="#251898"/>
<path d="M329.703 341.07L333.84 277.61L340.188 339.024L329.703 341.07Z" fill="#1DECFE"/>
<path d="M612.928 152.82L417.749 30.8278L618.761 82.2069L612.928 152.82Z" fill="#7770F3"/>
<path d="M725.783 76.3684L520.731 -6.38075L722.051 -3.44159L725.783 76.3684Z" fill="#3A23A5"/>
<path d="M624.14 130.785L412.678 20.4034L627.103 56.2311L624.14 130.785Z" fill="#8470F3"/>
<path d="M307.693 328.975L313.108 289.503L314.336 329.202L307.693 328.975Z" fill="#19F3FF"/>
<path d="M718.892 63.3865L499.142 -8.65803L713.134 -19.2817L718.892 63.3865Z" fill="#4F2DB2"/>
<path d="M634.036 110.398L408.097 12.1309L634.155 32.3012L634.036 110.398Z" fill="#966EF8"/>
<path d="M711.487 52.9218L478.873 -9.76294L703.919 -32.1026L711.487 52.9218Z" fill="#6437BF"/>
<path d="M642.881 92.0402L404.609 5.79178L640.297 10.8282L642.881 92.0402Z" fill="#A56DFA"/>
<path d="M703.792 45.2094L460.406 -10.0106L694.745 -41.6512L703.792 45.2094Z" fill="#7942CB"/>
<path d="M650.965 76.0343L402.763 1.09083L645.919 -7.81363L650.965 76.0343Z" fill="#B66DFC"/>
<path d="M695.996 40.4174L444.14 -9.66638L685.911 -47.7245L695.996 40.4174Z" fill="#8E4CD8"/>
<path d="M658.566 62.6452L403.015 -2.31558L651.406 -23.3204L658.566 62.6452Z" fill="#BF6CFD"/>
<path d="M688.26 38.6694L430.38 -8.92942L677.64 -50.1867L688.26 38.6694Z" fill="#A356E5"/>
<path d="M665.923 52.0901L405.722 -4.75994L657.092 -35.4548L665.923 52.0901Z" fill="#C16CFD"/>
<path d="M680.674 40.0343L419.339 -7.89238L670.078 -48.9635L680.674 40.0343Z" fill="#B861F2"/>
<path d="M672.278 45.5208L410.153 -5.54585L662.283 -43.0405L672.278 45.5208Z" fill="#C86AFA"/>
</g>
<path d="M47.9848 169.744C47.4703 168.19 47.1937 166.541 47.1937 164.833C47.1937 155.487 55.4781 147.91 65.6975 147.91C71.5977 147.91 76.853 150.435 80.2412 154.369H80.2411C81.2155 155.392 81.8102 156.755 81.8102 158.252C81.8102 161.426 79.1381 163.998 75.8418 163.998C72.5456 163.998 69.8735 161.426 69.8735 158.252C69.8735 155.079 72.5456 152.506 75.8418 152.506C75.8873 152.506 75.9327 152.507 75.9779 152.508C74.0069 151.065 71.5475 150.208 68.8802 150.208C62.3984 150.208 57.1438 155.267 57.1438 161.507C57.1438 164.755 58.5673 167.683 60.8465 169.744H47.9848Z" fill="#19F3FF"/>
<path d="M83.004 182.366C83.004 181.195 82.8843 180.049 82.6556 178.938H68.0606C69.9313 181.011 71.0674 183.74 71.0674 186.731C71.0674 193.216 65.7232 198.474 59.1307 198.474C56.4736 198.474 54.0192 197.62 52.0358 196.175C55.301 196.141 57.9367 193.582 57.9367 190.43C57.9367 187.256 55.2646 184.684 51.9684 184.684C48.6721 184.684 46 187.256 46 190.43C46 191.897 46.5709 193.235 47.5104 194.25C51.202 198.24 56.7171 200.772 62.8789 200.772C73.9937 200.772 83.004 192.532 83.004 182.366Z" fill="#19F3FF"/>
<path d="M76.4385 169.744H63.3081L52.5651 178.938H65.6955L76.4385 169.744Z" fill="#19F3FF"/>
<path d="M102.826 152.32H107.954V154.501C108.451 153.727 109.104 153.093 109.912 152.598C110.751 152.103 111.652 151.856 112.615 151.856H112.848C115.117 151.856 116.702 152.861 117.603 154.872C118.069 154.037 118.753 153.325 119.654 152.737C120.586 152.15 121.627 151.856 122.777 151.856H123.01C124.75 151.856 126.087 152.444 127.019 153.619C127.982 154.795 128.464 156.543 128.464 158.863V177.842H123.15V159.512C123.15 158.584 122.948 157.857 122.544 157.331C122.171 156.775 121.596 156.496 120.819 156.496H120.633C119.856 156.496 119.265 156.775 118.861 157.331C118.489 157.857 118.302 158.584 118.302 159.512V177.842H112.988V159.512C112.988 158.584 112.786 157.857 112.382 157.331C112.009 156.775 111.434 156.496 110.657 156.496H110.471C109.694 156.496 109.104 156.775 108.7 157.331C108.327 157.857 108.14 158.584 108.14 159.512V177.842H102.826V152.32Z" fill="#19F3FF"/>
<path d="M137.964 178.306C135.353 178.306 133.427 177.656 132.184 176.357C130.941 175.058 130.319 173.093 130.319 170.464V152.32H135.633V170.649C135.633 171.577 135.835 172.32 136.239 172.877C136.643 173.402 137.234 173.665 138.01 173.665H138.29C139.067 173.665 139.658 173.402 140.061 172.877C140.465 172.32 140.667 171.577 140.667 170.649V152.32H145.982V170.464C145.982 173.093 145.36 175.058 144.117 176.357C142.874 177.656 140.947 178.306 138.337 178.306H137.964Z" fill="#19F3FF"/>
<path d="M155.257 178.306C152.988 178.306 151.139 177.703 149.71 176.496C148.28 175.259 147.565 173.619 147.565 171.577V169.536H152.739V171.067C152.739 171.933 152.973 172.614 153.439 173.109C153.936 173.604 154.557 173.851 155.303 173.851H155.583C156.329 173.851 156.919 173.65 157.354 173.248C157.82 172.815 158.054 172.242 158.054 171.531V171.299C158.054 170.68 157.898 170.154 157.587 169.721C157.308 169.257 156.779 168.793 156.002 168.329L151.9 165.916C150.533 165.112 149.492 164.153 148.777 163.039C148.094 161.925 147.752 160.58 147.752 159.002V158.677C147.752 156.543 148.42 154.872 149.756 153.666C151.092 152.459 152.864 151.856 155.07 151.856H155.49C157.82 151.856 159.669 152.428 161.037 153.573C162.404 154.717 163.088 156.357 163.088 158.491V160.208H157.914V158.909C157.914 158.105 157.681 157.471 157.214 157.007C156.779 156.543 156.204 156.311 155.49 156.311H155.303C154.589 156.311 154.014 156.512 153.579 156.914C153.143 157.285 152.926 157.811 152.926 158.491V158.723C152.926 159.28 153.081 159.775 153.392 160.208C153.734 160.642 154.216 161.044 154.837 161.415L158.753 163.735C160.4 164.694 161.55 165.715 162.202 166.798C162.886 167.85 163.228 169.242 163.228 170.974V171.392C163.228 173.495 162.528 175.181 161.13 176.45C159.732 177.687 157.914 178.306 155.676 178.306H155.257Z" fill="#19F3FF"/>
<path d="M172.283 178.306C169.672 178.306 167.761 177.656 166.549 176.357C165.337 175.027 164.731 173.109 164.731 170.603V159.559C164.731 154.423 167.311 151.856 172.469 151.856H172.796C177.675 151.856 180.114 154.423 180.114 159.559V166.241H170.045V170.742C170.045 171.67 170.247 172.397 170.651 172.923C171.055 173.418 171.646 173.665 172.423 173.665H172.609C173.386 173.665 173.961 173.402 174.334 172.877C174.738 172.32 174.94 171.577 174.94 170.649V169.814H180.114V170.603C180.114 173.047 179.508 174.949 178.296 176.31C177.115 177.641 175.282 178.306 172.796 178.306H172.283ZM174.94 162.482V159.512C174.94 158.584 174.738 157.857 174.334 157.331C173.961 156.775 173.386 156.496 172.609 156.496H172.423C171.646 156.496 171.055 156.775 170.651 157.331C170.247 157.857 170.045 158.584 170.045 159.512V162.482H174.94Z" fill="#19F3FF"/>
<path d="M189.307 178.306C187.038 178.306 185.189 177.703 183.76 176.496C182.33 175.259 181.616 173.619 181.616 171.577V169.536H186.79V171.067C186.79 171.933 187.023 172.614 187.489 173.109C187.986 173.604 188.608 173.851 189.354 173.851H189.633C190.379 173.851 190.969 173.65 191.405 173.248C191.871 172.815 192.104 172.242 192.104 171.531V171.299C192.104 170.68 191.948 170.154 191.638 169.721C191.358 169.257 190.83 168.793 190.053 168.329L185.951 165.916C184.583 165.112 183.542 164.153 182.828 163.039C182.144 161.925 181.802 160.58 181.802 159.002V158.677C181.802 156.543 182.47 154.872 183.806 153.666C185.143 152.459 186.914 151.856 189.12 151.856H189.54C191.871 151.856 193.72 152.428 195.087 153.573C196.454 154.717 197.138 156.357 197.138 158.491V160.208H191.964V158.909C191.964 158.105 191.731 157.471 191.265 157.007C190.83 156.543 190.255 156.311 189.54 156.311H189.354C188.639 156.311 188.064 156.512 187.629 156.914C187.194 157.285 186.976 157.811 186.976 158.491V158.723C186.976 159.28 187.132 159.775 187.442 160.208C187.784 160.642 188.266 161.044 188.887 161.415L192.803 163.735C194.45 164.694 195.6 165.715 196.252 166.798C196.936 167.85 197.278 169.242 197.278 170.974V171.392C197.278 173.495 196.579 175.181 195.18 176.45C193.782 177.687 191.964 178.306 189.726 178.306H189.307Z" fill="#19F3FF"/>
<path d="M206.52 178.306C203.971 178.306 202.045 177.641 200.739 176.31C199.434 174.98 198.782 173.078 198.782 170.603V159.559C198.782 157.084 199.434 155.181 200.739 153.851C202.045 152.521 203.971 151.856 206.52 151.856H206.846C211.725 151.856 214.164 154.423 214.164 159.559V160.626H208.99V159.512C208.99 158.553 208.788 157.811 208.384 157.285C208.011 156.759 207.436 156.496 206.659 156.496H206.473C205.696 156.496 205.106 156.775 204.702 157.331C204.298 157.857 204.096 158.584 204.096 159.512V170.649C204.096 171.577 204.298 172.32 204.702 172.877C205.106 173.402 205.696 173.665 206.473 173.665H206.659C207.436 173.665 208.011 173.402 208.384 172.877C208.788 172.32 208.99 171.577 208.99 170.649V169.582H214.164V170.603C214.164 175.738 211.725 178.306 206.846 178.306H206.52Z" fill="#19F3FF"/>
<path d="M223.59 178.306C218.432 178.306 215.852 175.738 215.852 170.603V159.559C215.852 154.423 218.416 151.856 223.544 151.856H223.917C229.044 151.856 231.608 154.423 231.608 159.559V170.603C231.608 175.738 229.029 178.306 223.87 178.306H223.59ZM221.166 170.649C221.166 171.577 221.384 172.32 221.819 172.877C222.254 173.402 222.86 173.665 223.637 173.665H223.823C224.6 173.665 225.206 173.402 225.641 172.877C226.076 172.32 226.294 171.577 226.294 170.649V159.512C226.294 158.584 226.076 157.857 225.641 157.331C225.206 156.775 224.6 156.496 223.823 156.496H223.637C222.86 156.496 222.254 156.775 221.819 157.331C221.384 157.857 221.166 158.584 221.166 159.512V170.649Z" fill="#19F3FF"/>
<path d="M233.565 152.32H238.692V155.614C239.096 154.686 239.687 153.913 240.464 153.294C241.24 152.645 242.235 152.32 243.447 152.32H244.472V157.331H242.654C241.349 157.331 240.386 157.61 239.764 158.167C239.174 158.693 238.879 159.574 238.879 160.812V177.842H233.565V152.32Z" fill="#19F3FF"/>
<path d="M253.129 178.306C250.519 178.306 248.608 177.656 247.396 176.357C246.184 175.027 245.578 173.109 245.578 170.603V159.559C245.578 154.423 248.157 151.856 253.316 151.856H253.642C258.521 151.856 260.961 154.423 260.961 159.559V166.241H250.892V170.742C250.892 171.67 251.094 172.397 251.498 172.923C251.902 173.418 252.492 173.665 253.269 173.665H253.456C254.233 173.665 254.808 173.402 255.181 172.877C255.584 172.32 255.786 171.577 255.786 170.649V169.814H260.961V170.603C260.961 173.047 260.355 174.949 259.143 176.31C257.962 177.641 256.128 178.306 253.642 178.306H253.129ZM255.786 162.482V159.512C255.786 158.584 255.584 157.857 255.181 157.331C254.808 156.775 254.233 156.496 253.456 156.496H253.269C252.492 156.496 251.902 156.775 251.498 157.331C251.094 157.857 250.892 158.584 250.892 159.512V162.482H255.786Z" fill="#19F3FF"/>
<path d="M274.615 178.306C272.346 178.306 270.497 177.703 269.068 176.496C267.638 175.259 266.923 173.619 266.923 171.577V169.536H272.097V171.067C272.097 171.933 272.331 172.614 272.797 173.109C273.294 173.604 273.915 173.851 274.661 173.851H274.941C275.687 173.851 276.277 173.65 276.712 173.248C277.178 172.815 277.411 172.242 277.411 171.531V171.299C277.411 170.68 277.256 170.154 276.945 169.721C276.666 169.257 276.137 168.793 275.36 168.329L271.258 165.916C269.891 165.112 268.85 164.153 268.135 163.039C267.452 161.925 267.11 160.58 267.11 159.002V158.677C267.11 156.543 267.778 154.872 269.114 153.666C270.45 152.459 272.222 151.856 274.428 151.856H274.848C277.178 151.856 279.027 152.428 280.395 153.573C281.762 154.717 282.446 156.357 282.446 158.491V160.208H277.272V158.909C277.272 158.105 277.039 157.471 276.572 157.007C276.137 156.543 275.562 156.311 274.848 156.311H274.661C273.946 156.311 273.372 156.512 272.937 156.914C272.501 157.285 272.284 157.811 272.284 158.491V158.723C272.284 159.28 272.439 159.775 272.75 160.208C273.092 160.642 273.574 161.044 274.195 161.415L278.111 163.735C279.758 164.694 280.908 165.715 281.56 166.798C282.244 167.85 282.586 169.242 282.586 170.974V171.392C282.586 173.495 281.886 175.181 280.488 176.45C279.09 177.687 277.272 178.306 275.034 178.306H274.615Z" fill="#19F3FF"/>
<path d="M292.071 177.842C289.803 177.842 288.14 177.347 287.084 176.357C286.058 175.336 285.545 173.604 285.545 171.16V156.775H283.215V152.32H285.545V147.772H290.859V152.32H294.355V156.775H290.859V170.835C290.859 171.732 291.015 172.366 291.326 172.737C291.636 173.078 292.18 173.248 292.957 173.248H294.355V177.842H292.071Z" fill="#19F3FF"/>
<path d="M303.299 178.306C300.688 178.306 298.762 177.656 297.519 176.357C296.276 175.058 295.654 173.093 295.654 170.464V152.32H300.968V170.649C300.968 171.577 301.17 172.32 301.574 172.877C301.978 173.402 302.569 173.665 303.345 173.665H303.625C304.402 173.665 304.992 173.402 305.396 172.877C305.8 172.32 306.002 171.577 306.002 170.649V152.32H311.316V170.464C311.316 173.093 310.695 175.058 309.452 176.357C308.209 177.656 306.282 178.306 303.672 178.306H303.299Z" fill="#19F3FF"/>
<path d="M318.96 178.306C317.189 178.306 315.759 177.733 314.672 176.589C313.615 175.413 313.087 173.665 313.087 171.345V158.816C313.087 156.496 313.615 154.764 314.672 153.619C315.759 152.444 317.189 151.856 318.96 151.856H319.193C320.157 151.856 321.011 152.103 321.757 152.598C322.503 153.062 323.062 153.681 323.435 154.454V146.287H328.749V177.842H323.528V175.893C323.031 176.635 322.41 177.223 321.664 177.656C320.949 178.089 320.125 178.306 319.193 178.306H318.96ZM318.401 170.649C318.401 171.577 318.603 172.32 319.007 172.877C319.411 173.402 320.001 173.665 320.778 173.665H321.011C321.788 173.665 322.378 173.402 322.782 172.877C323.186 172.32 323.388 171.577 323.388 170.649V159.512C323.388 158.584 323.186 157.857 322.782 157.331C322.378 156.775 321.788 156.496 321.011 156.496H320.778C320.001 156.496 319.411 156.775 319.007 157.331C318.603 157.857 318.401 158.584 318.401 159.512V170.649Z" fill="#19F3FF"/>
<path d="M330.892 152.32H336.206V177.842H330.892V152.32ZM330.473 148.329C330.473 147.432 330.752 146.705 331.312 146.148C331.902 145.56 332.648 145.266 333.549 145.266C334.45 145.266 335.181 145.56 335.74 146.148C336.331 146.705 336.626 147.432 336.626 148.329C336.626 149.226 336.331 149.969 335.74 150.556C335.181 151.113 334.45 151.392 333.549 151.392C332.648 151.392 331.902 151.113 331.312 150.556C330.752 149.969 330.473 149.226 330.473 148.329Z" fill="#19F3FF"/>
<path d="M345.907 178.306C340.749 178.306 338.169 175.738 338.169 170.603V159.559C338.169 154.423 340.733 151.856 345.861 151.856H346.233C351.361 151.856 353.925 154.423 353.925 159.559V170.603C353.925 175.738 351.345 178.306 346.187 178.306H345.907ZM343.483 170.649C343.483 171.577 343.701 172.32 344.136 172.877C344.571 173.402 345.177 173.665 345.954 173.665H346.14C346.917 173.665 347.523 173.402 347.958 172.877C348.393 172.32 348.611 171.577 348.611 170.649V159.512C348.611 158.584 348.393 157.857 347.958 157.331C347.523 156.775 346.917 156.496 346.14 156.496H345.954C345.177 156.496 344.571 156.775 344.136 157.331C343.701 157.857 343.483 158.584 343.483 159.512V170.649Z" fill="#19F3FF"/>
<path d="M106.359 198.06C105.763 198.06 105.24 197.928 104.79 197.664C104.34 197.39 104.037 197.024 103.881 196.565H104.086V197.913H102.928V187.943H104.101V192.327H103.881C104.037 191.868 104.355 191.496 104.834 191.213C105.323 190.929 105.875 190.788 106.491 190.788C107.077 190.788 107.605 190.924 108.074 191.198C108.543 191.472 108.915 191.873 109.189 192.4C109.462 192.928 109.599 193.568 109.599 194.321C109.599 195.084 109.467 195.748 109.203 196.315C108.939 196.872 108.563 197.303 108.074 197.606C107.586 197.909 107.014 198.06 106.359 198.06ZM106.285 197.019C106.716 197.019 107.092 196.907 107.414 196.682C107.737 196.457 107.986 196.144 108.162 195.743C108.338 195.333 108.426 194.869 108.426 194.35C108.426 193.578 108.236 192.967 107.854 192.518C107.473 192.058 106.95 191.829 106.285 191.829C105.904 191.829 105.547 191.912 105.215 192.078C104.883 192.244 104.614 192.488 104.409 192.811C104.203 193.134 104.101 193.525 104.101 193.984V194.996C104.101 195.416 104.199 195.778 104.394 196.081C104.599 196.384 104.868 196.618 105.2 196.784C105.533 196.941 105.894 197.019 106.285 197.019ZM111.387 199.673H111.827C112.179 199.673 112.472 199.595 112.706 199.438C112.941 199.282 113.136 199.018 113.293 198.647L113.762 197.503L113.791 198.324L110.639 190.934H111.929L114.466 197.078L113.997 197.048L116.269 190.934H117.486L114.305 198.984C114.129 199.424 113.933 199.771 113.718 200.025C113.513 200.289 113.273 200.474 113 200.582C112.736 200.699 112.423 200.758 112.061 200.758H111.387V199.673ZM122.542 190.934H123.686V192.4H123.422C123.559 191.902 123.857 191.511 124.317 191.227C124.776 190.934 125.279 190.788 125.827 190.788C126.511 190.788 127.068 190.949 127.498 191.271C127.938 191.594 128.212 192.019 128.319 192.547H127.982C128.109 192 128.417 191.57 128.906 191.257C129.395 190.944 129.942 190.788 130.548 190.788C131.076 190.788 131.53 190.885 131.912 191.081C132.303 191.267 132.601 191.55 132.806 191.931C133.021 192.303 133.129 192.757 133.129 193.295V197.913H131.956V193.471C131.956 192.972 131.824 192.576 131.56 192.283C131.296 191.99 130.885 191.843 130.328 191.843C129.781 191.843 129.326 192.019 128.965 192.371C128.603 192.713 128.422 193.168 128.422 193.735V197.913H127.249V193.471C127.249 192.972 127.112 192.576 126.838 192.283C126.575 191.99 126.164 191.843 125.607 191.843C125.059 191.843 124.605 192.019 124.243 192.371C123.891 192.713 123.715 193.168 123.715 193.735V197.913H122.542V190.934ZM138.036 198.06C137.489 198.06 137.019 197.967 136.628 197.781C136.247 197.586 135.954 197.303 135.749 196.931C135.543 196.55 135.441 196.09 135.441 195.553V190.934H136.614V195.377C136.614 195.875 136.746 196.271 137.01 196.565C137.283 196.858 137.704 197.004 138.271 197.004C138.838 197.004 139.312 196.833 139.693 196.491C140.084 196.139 140.279 195.68 140.279 195.113V190.934H141.452V197.913H140.309V196.447H140.543C140.406 196.946 140.094 197.342 139.605 197.635C139.126 197.918 138.603 198.06 138.036 198.06ZM146.455 198.06C145.634 198.06 144.964 197.884 144.446 197.532C143.928 197.171 143.605 196.657 143.478 195.993H144.651C144.769 196.364 144.974 196.638 145.267 196.814C145.57 196.99 145.976 197.078 146.484 197.078C147.012 197.078 147.413 196.99 147.686 196.814C147.97 196.628 148.112 196.374 148.112 196.051C148.112 195.748 148.004 195.519 147.789 195.362C147.584 195.196 147.227 195.069 146.719 194.981L145.81 194.82C145.125 194.693 144.607 194.478 144.255 194.175C143.913 193.872 143.742 193.427 143.742 192.84C143.742 192.42 143.85 192.058 144.065 191.755C144.29 191.442 144.602 191.203 145.003 191.037C145.414 190.871 145.888 190.788 146.425 190.788C147.227 190.788 147.867 190.978 148.346 191.359C148.835 191.731 149.128 192.205 149.226 192.782H148.082C147.975 192.479 147.784 192.234 147.51 192.048C147.247 191.863 146.875 191.77 146.396 191.77C145.927 191.77 145.551 191.868 145.267 192.063C144.993 192.249 144.857 192.498 144.857 192.811C144.857 193.114 144.964 193.339 145.179 193.485C145.394 193.622 145.731 193.73 146.191 193.808L147.085 193.969C147.838 194.106 148.38 194.341 148.713 194.673C149.055 195.005 149.226 195.455 149.226 196.022C149.226 196.433 149.118 196.789 148.903 197.092C148.698 197.395 148.39 197.635 147.98 197.811C147.569 197.977 147.061 198.06 146.455 198.06ZM154.049 198.06C153.091 198.06 152.319 197.747 151.733 197.122C151.146 196.496 150.853 195.597 150.853 194.424C150.853 193.642 150.995 192.977 151.278 192.43C151.571 191.882 151.967 191.472 152.466 191.198C152.964 190.924 153.526 190.788 154.152 190.788C155.08 190.788 155.823 191.081 156.381 191.667C156.938 192.244 157.216 193.041 157.216 194.057C157.216 194.38 157.211 194.585 157.202 194.673H151.777L151.982 194.409C151.982 194.429 151.982 194.453 151.982 194.482C151.982 195.313 152.163 195.949 152.524 196.389C152.896 196.828 153.404 197.048 154.049 197.048C154.548 197.048 154.944 196.951 155.237 196.755C155.53 196.56 155.745 196.296 155.882 195.963H157.04C156.884 196.589 156.547 197.097 156.029 197.488C155.511 197.869 154.851 198.06 154.049 198.06ZM156.102 194.116C156.102 194.008 156.102 193.906 156.102 193.808C156.102 193.221 155.926 192.738 155.574 192.356C155.232 191.975 154.758 191.785 154.152 191.785C153.516 191.785 153.003 191.985 152.612 192.386C152.231 192.787 152.021 193.363 151.982 194.116L151.777 193.749H156.293L156.102 194.116ZM165.534 200.905C164.752 200.905 164.078 200.714 163.511 200.333C162.954 199.961 162.597 199.414 162.44 198.691H163.657C163.794 199.091 164.034 199.389 164.376 199.585C164.718 199.79 165.104 199.893 165.534 199.893C166.218 199.893 166.756 199.727 167.147 199.394C167.548 199.062 167.748 198.539 167.748 197.825V196.066H168.056C167.929 196.672 167.641 197.131 167.191 197.444C166.741 197.757 166.165 197.913 165.461 197.913C164.816 197.913 164.249 197.781 163.76 197.518C163.271 197.254 162.89 196.863 162.616 196.345C162.352 195.827 162.22 195.191 162.22 194.438C162.22 193.686 162.352 193.036 162.616 192.488C162.88 191.931 163.257 191.511 163.745 191.227C164.244 190.934 164.83 190.788 165.505 190.788C166.15 190.788 166.707 190.949 167.176 191.271C167.646 191.584 167.939 192.024 168.056 192.591H167.704V190.934H168.848V197.84C168.848 198.906 168.55 199.683 167.953 200.171C167.357 200.66 166.551 200.905 165.534 200.905ZM165.534 196.902C166.209 196.902 166.737 196.696 167.118 196.286C167.509 195.875 167.704 195.367 167.704 194.761V193.852C167.704 193.412 167.606 193.041 167.411 192.738C167.225 192.425 166.966 192.19 166.634 192.034C166.311 191.877 165.955 191.799 165.564 191.799C165.133 191.799 164.752 191.912 164.42 192.136C164.088 192.352 163.828 192.655 163.643 193.046C163.467 193.437 163.379 193.891 163.379 194.409C163.379 195.191 163.569 195.802 163.951 196.242C164.332 196.682 164.86 196.902 165.534 196.902ZM171.322 190.934H172.437V192.239H172.29C172.476 191.77 172.769 191.438 173.17 191.242C173.57 191.037 174.005 190.934 174.475 190.934H175.105V192.063H174.577C174.04 192.063 173.561 192.171 173.14 192.386C172.72 192.591 172.51 192.894 172.51 193.295V197.913H171.322V190.934ZM179.594 198.06C178.587 198.06 177.781 197.742 177.175 197.107C176.578 196.462 176.28 195.567 176.28 194.424C176.28 193.661 176.417 193.006 176.691 192.459C176.964 191.912 177.35 191.496 177.849 191.213C178.347 190.929 178.929 190.788 179.594 190.788C180.601 190.788 181.407 191.11 182.013 191.755C182.619 192.391 182.922 193.28 182.922 194.424C182.922 195.186 182.78 195.841 182.497 196.389C182.223 196.936 181.837 197.351 181.339 197.635C180.84 197.918 180.258 198.06 179.594 198.06ZM179.594 197.019C180.053 197.019 180.444 196.916 180.767 196.711C181.089 196.506 181.334 196.208 181.5 195.817C181.666 195.426 181.749 194.961 181.749 194.424C181.749 193.612 181.559 192.977 181.177 192.518C180.806 192.058 180.278 191.829 179.594 191.829C179.144 191.829 178.758 191.931 178.435 192.136C178.113 192.342 177.869 192.64 177.702 193.031C177.536 193.422 177.453 193.886 177.453 194.424C177.453 195.235 177.639 195.87 178.01 196.33C178.382 196.789 178.91 197.019 179.594 197.019ZM187.502 198.06C186.955 198.06 186.486 197.967 186.095 197.781C185.714 197.586 185.42 197.303 185.215 196.931C185.01 196.55 184.907 196.09 184.907 195.553V190.934H186.08V195.377C186.08 195.875 186.212 196.271 186.476 196.565C186.75 196.858 187.17 197.004 187.737 197.004C188.304 197.004 188.778 196.833 189.159 196.491C189.55 196.139 189.746 195.68 189.746 195.113V190.934H190.919V197.913H189.775V196.447H190.01C189.873 196.946 189.56 197.342 189.071 197.635C188.592 197.918 188.069 198.06 187.502 198.06ZM193.414 190.934H194.587V192.767H194.264C194.372 192.141 194.685 191.658 195.203 191.315C195.721 190.963 196.312 190.788 196.977 190.788C197.563 190.788 198.091 190.924 198.56 191.198C199.03 191.472 199.401 191.877 199.675 192.415C199.948 192.953 200.085 193.598 200.085 194.35C200.085 195.113 199.948 195.773 199.675 196.33C199.411 196.887 199.03 197.317 198.531 197.62C198.033 197.913 197.456 198.06 196.801 198.06C196.234 198.06 195.735 197.948 195.305 197.723C194.875 197.488 194.538 197.156 194.294 196.726H194.587V200.758H193.414V190.934ZM196.801 197.019C197.231 197.019 197.602 196.912 197.915 196.696C198.238 196.481 198.482 196.178 198.648 195.787C198.824 195.387 198.912 194.922 198.912 194.394C198.912 193.622 198.722 193.002 198.34 192.532C197.959 192.063 197.436 191.829 196.772 191.829C196.4 191.829 196.043 191.921 195.701 192.107C195.369 192.283 195.1 192.547 194.895 192.899C194.69 193.251 194.587 193.671 194.587 194.16V194.996C194.587 195.406 194.685 195.768 194.88 196.081C195.085 196.384 195.354 196.618 195.687 196.784C196.029 196.941 196.4 197.019 196.801 197.019Z" fill="#A7A4A9"/>
</g>
<defs>
<clipPath id="clip0_8590_25845">
<rect width="800" height="380" fill="white"/>
</clipPath>
<clipPath id="clip1_8590_25845">
<rect width="467.21" height="363.34" fill="white" transform="translate(775.234 304.118) rotate(173.229)"/>
</clipPath>
</defs>
</svg>
