<svg width="800" height="380" viewBox="0 0 800 380" fill="none" xmlns="http://www.w3.org/2000/svg">
<g clip-path="url(#clip0_7983_13158)">
<rect width="800" height="380" fill="#00081C"/>
<g clip-path="url(#clip1_7983_13158)">
<path d="M739.596 259.977L709.519 126.279L747.384 234.793L739.596 259.977Z" fill="#5682FE"/>
<path d="M741.067 248.753L700.681 108.617L749.474 217.771L741.067 248.753Z" fill="#4F76F1"/>
<path d="M742.781 234.562L690.237 90.9493L751.468 197.86L742.781 234.562Z" fill="#496BE7"/>
<path d="M744.37 218.046L677.938 73.7749L752.967 175.776L744.37 218.046Z" fill="#4260DC"/>
<path d="M745.497 199.843L663.64 57.5503L753.629 152.201L745.497 199.843Z" fill="#3B55D0"/>
<path d="M745.877 180.57L647.306 42.6849L753.163 127.781L745.877 180.57Z" fill="#3246C2"/>
<path d="M745.286 160.816L629.042 29.5017L751.371 103.123L745.286 160.816Z" fill="#2B3BB7"/>
<path d="M457.925 317.703L411.14 176.03L478.125 289.866L457.925 317.703Z" fill="#36C1FA"/>
<path d="M483.242 302.018L419.833 154.098L503.214 268.28L483.242 302.018Z" fill="#3EB4F8"/>
<path d="M431.642 329.73L399.885 197.608L451.394 307.864L431.642 329.73Z" fill="#32C9FA"/>
<path d="M507.178 283.396L425.906 132.335L526.331 243.926L507.178 283.396Z" fill="#46A6F7"/>
<path d="M743.574 141.125L609.076 18.2268L748.136 78.8007L743.574 141.125Z" fill="#222BA7"/>
<path d="M404.91 337.454L386.191 218.288L423.473 321.454L404.91 337.454Z" fill="#2BD5FC"/>
<path d="M529.446 262.542L429.418 111.238L547.271 217.562L529.446 262.542Z" fill="#4C9BF5"/>
<path d="M549.856 240.143L430.514 91.2671L565.917 189.903L549.856 240.143Z" fill="#538FF4"/>
<path d="M378.352 340.365L370.27 237.511L394.947 329.865L378.352 340.365Z" fill="#27DCFC"/>
<path d="M740.67 122.011L587.759 8.98058L743.439 55.3495L740.67 122.011Z" fill="#191D99"/>
<path d="M568.315 216.843L429.459 72.8189L582.25 161.592L568.315 216.843Z" fill="#5886F3"/>
<path d="M736.599 103.937L565.559 1.76961L737.366 33.2753L736.599 103.937Z" fill="#17158B"/>
<path d="M584.809 193.234L426.619 56.2209L596.326 133.243L584.809 193.234Z" fill="#5E7DF2"/>
<path d="M352.656 338.203L352.381 254.725L366.524 332.488L352.656 338.203Z" fill="#22E3FD"/>
<path d="M599.413 169.86L422.475 41.7035L608.284 105.407L599.413 169.86Z" fill="#6C77F2"/>
<path d="M731.437 87.3367L542.996 -3.52606L730.095 13.0424L731.437 87.3367Z" fill="#251898"/>
<path d="M328.514 331.042L332.865 269.386L339.001 329.018L328.514 331.042Z" fill="#1DECFE"/>
<path d="M612.264 147.223L417.579 29.3905L618.335 78.6133L612.264 147.223Z" fill="#7770F3"/>
<path d="M725.333 72.5779L520.647 -7.1022L721.875 -4.93227L725.333 72.5779Z" fill="#3A23A5"/>
<path d="M623.549 125.781L412.547 19.2821L626.764 53.3534L623.549 125.781Z" fill="#8470F3"/>
<path d="M306.554 319.368L312.101 281.009L313.194 319.566L306.554 319.368Z" fill="#19F3FF"/>
<path d="M718.49 59.9914L499.073 -9.24073L713.015 -20.288L718.49 59.9914Z" fill="#4F2DB2"/>
<path d="M633.509 105.944L407.995 11.2622L633.893 30.0853L633.509 105.944Z" fill="#966EF8"/>
<path d="M711.124 49.8519L478.817 -10.245L703.848 -32.7102L711.124 49.8519Z" fill="#6437BF"/>
<path d="M642.412 88.0826L404.53 5.11659L640.106 9.20674L642.412 88.0826Z" fill="#A56DFA"/>
<path d="M703.458 42.3867L460.359 -10.4228L694.711 -41.954L703.458 42.3867Z" fill="#7942CB"/>
<path d="M650.547 72.5079L402.7 0.556665L645.789 -8.91996L650.547 72.5079Z" fill="#B66DFC"/>
<path d="M695.679 37.7586L444.096 -10.033L685.899 -47.8231L695.679 37.7586Z" fill="#8E4CD8"/>
<path d="M658.19 59.4766L402.962 -2.75296L651.324 -24.001L658.19 59.4766Z" fill="#BF6CFD"/>
<path d="M687.953 36.087L430.339 -9.27037L677.64 -50.1866L687.953 36.087Z" fill="#A356E5"/>
<path d="M665.579 49.199L405.677 -5.13647L657.05 -35.8069L665.579 49.199Z" fill="#C16CFD"/>
<path d="M680.367 37.4385L419.301 -8.22549L670.078 -48.9727L680.367 37.4385Z" fill="#B861F2"/>
<path d="M671.956 42.7963L410.111 -5.91495L662.266 -43.193L671.956 42.7963Z" fill="#C86AFA"/>
</g>
<path d="M46.0866 185.982V159.5H51.3831V161.763C52.3461 160.27 54.0794 159.018 56.198 159.018H56.4388C58.7499 159.018 60.4352 160.077 61.35 162.148C62.2167 160.559 64.1427 159.018 66.6946 159.018H66.9353C70.4502 159.018 72.5688 161.425 72.5688 166.289V185.982H67.0798V166.963C67.0798 165.085 66.3094 163.833 64.6723 163.833H64.4797C62.8426 163.833 62.0722 165.085 62.0722 166.963V185.982H56.5832V166.963C56.5832 165.085 55.8128 163.833 54.1757 163.833H53.9831C52.3461 163.833 51.5757 165.085 51.5757 166.963V185.982H46.0866ZM82.3815 186.463C76.9406 186.463 74.485 183.767 74.485 178.326V159.5H79.974V178.519C79.974 180.396 80.7926 181.648 82.4296 181.648H82.7185C84.3556 181.648 85.1742 180.396 85.1742 178.519V159.5H90.6632V178.326C90.6632 183.767 88.2076 186.463 82.7667 186.463H82.3815ZM100.244 186.463C95.6696 186.463 92.2991 183.815 92.2991 179.482V177.363H97.6437V178.952C97.6437 180.782 98.7993 181.841 100.292 181.841H100.581C102.073 181.841 103.133 180.926 103.133 179.433V179.193C103.133 177.941 102.651 177.074 101.014 176.111L96.777 173.607C94.0325 171.97 92.4917 169.803 92.4917 166.433V166.096C92.4917 161.618 95.5733 159.018 100.051 159.018H100.485C105.155 159.018 108.333 161.377 108.333 165.903V167.685H102.988V166.337C102.988 164.603 101.929 163.64 100.485 163.64H100.292C98.8475 163.64 97.8363 164.507 97.8363 165.903V166.144C97.8363 167.396 98.6067 168.215 99.8105 168.937L103.855 171.344C107.177 173.318 108.477 175.196 108.477 178.856V179.289C108.477 183.719 105.251 186.463 100.677 186.463H100.244ZM117.831 186.463C112.294 186.463 110.031 183.526 110.031 178.47V167.011C110.031 161.955 112.486 159.018 118.023 159.018H118.36C123.657 159.018 125.92 161.955 125.92 167.011V173.944H115.52V178.615C115.52 180.493 116.338 181.648 117.975 181.648H118.168C119.805 181.648 120.575 180.396 120.575 178.519V177.652H125.92V178.47C125.92 183.333 123.657 186.463 118.36 186.463H117.831ZM115.52 170.044H120.575V166.963C120.575 165.085 119.805 163.833 118.168 163.833H117.975C116.338 163.833 115.52 165.085 115.52 166.963V170.044ZM135.415 186.463C130.841 186.463 127.471 183.815 127.471 179.482V177.363H132.815V178.952C132.815 180.782 133.971 181.841 135.464 181.841H135.752C137.245 181.841 138.304 180.926 138.304 179.433V179.193C138.304 177.941 137.823 177.074 136.186 176.111L131.949 173.607C129.204 171.97 127.663 169.803 127.663 166.433V166.096C127.663 161.618 130.745 159.018 135.223 159.018H135.656C140.327 159.018 143.505 161.377 143.505 165.903V167.685H138.16V166.337C138.16 164.603 137.101 163.64 135.656 163.64H135.464C134.019 163.64 133.008 164.507 133.008 165.903V166.144C133.008 167.396 133.778 168.215 134.982 168.937L139.027 171.344C142.349 173.318 143.649 175.196 143.649 178.856V179.289C143.649 183.719 140.423 186.463 135.849 186.463H135.415ZM153.195 186.463C147.899 186.463 145.202 183.526 145.202 178.47V167.011C145.202 161.955 147.899 159.018 153.195 159.018H153.532C158.828 159.018 161.091 161.955 161.091 167.011V168.118H155.747V166.963C155.747 165.085 155.025 163.833 153.339 163.833H153.147C151.462 163.833 150.691 165.085 150.691 166.963V178.519C150.691 180.396 151.462 181.648 153.147 181.648H153.339C155.025 181.648 155.747 180.396 155.747 178.519V177.411H161.091V178.47C161.091 183.526 158.828 186.463 153.532 186.463H153.195ZM170.828 186.463C165.291 186.463 162.835 183.526 162.835 178.47V167.011C162.835 161.955 165.242 159.018 170.78 159.018H171.165C176.702 159.018 179.11 161.955 179.11 167.011V178.47C179.11 183.526 176.654 186.463 171.117 186.463H170.828ZM168.324 178.519C168.324 180.396 169.239 181.648 170.876 181.648H171.069C172.706 181.648 173.62 180.396 173.62 178.519V166.963C173.62 165.085 172.706 163.833 171.069 163.833H170.876C169.239 163.833 168.324 165.085 168.324 166.963V178.519ZM181.131 185.982V159.5H186.427V162.918C187.149 161.233 188.642 159.5 191.338 159.5H192.398V164.7H190.52C187.872 164.7 186.62 165.711 186.62 168.311V185.982H181.131ZM201.34 186.463C195.803 186.463 193.54 183.526 193.54 178.47V167.011C193.54 161.955 195.995 159.018 201.532 159.018H201.87C207.166 159.018 209.429 161.955 209.429 167.011V173.944H199.029V178.615C199.029 180.493 199.847 181.648 201.484 181.648H201.677C203.314 181.648 204.084 180.396 204.084 178.519V177.652H209.429V178.47C209.429 183.333 207.166 186.463 201.87 186.463H201.34ZM199.029 170.044H204.084V166.963C204.084 165.085 203.314 163.833 201.677 163.833H201.484C199.847 163.833 199.029 165.085 199.029 166.963V170.044ZM223.533 186.463C218.958 186.463 215.588 183.815 215.588 179.482V177.363H220.933V178.952C220.933 180.782 222.088 181.841 223.581 181.841H223.87C225.362 181.841 226.422 180.926 226.422 179.433V179.193C226.422 177.941 225.94 177.074 224.303 176.111L220.066 173.607C217.321 171.97 215.781 169.803 215.781 166.433V166.096C215.781 161.618 218.862 159.018 223.34 159.018H223.773C228.444 159.018 231.622 161.377 231.622 165.903V167.685H226.277V166.337C226.277 164.603 225.218 163.64 223.773 163.64H223.581C222.136 163.64 221.125 164.507 221.125 165.903V166.144C221.125 167.396 221.896 168.215 223.099 168.937L227.144 171.344C230.466 173.318 231.766 175.196 231.766 178.856V179.289C231.766 183.719 228.54 186.463 223.966 186.463H223.533ZM241.564 185.982C236.99 185.982 234.823 184.248 234.823 179.048V164.122H232.416V159.5H234.823V154.781H240.312V159.5H243.923V164.122H240.312V178.711C240.312 180.589 240.89 181.215 242.479 181.215H243.923V185.982H241.564ZM253.161 186.463C247.721 186.463 245.265 183.767 245.265 178.326V159.5H250.754V178.519C250.754 180.396 251.572 181.648 253.21 181.648H253.498C255.136 181.648 255.954 180.396 255.954 178.519V159.5H261.443V178.326C261.443 183.767 258.987 186.463 253.547 186.463H253.161ZM269.338 186.463C265.872 186.463 263.272 184.296 263.272 179.241V166.24C263.272 161.185 265.872 159.018 269.338 159.018H269.579C271.65 159.018 273.239 160.125 273.961 161.714V153.24H279.45V185.982H274.057V183.959C273.094 185.452 271.553 186.463 269.579 186.463H269.338ZM268.761 178.519C268.761 180.396 269.579 181.648 271.216 181.648H271.457C273.094 181.648 273.913 180.396 273.913 178.519V166.963C273.913 165.085 273.094 163.833 271.457 163.833H271.216C269.579 163.833 268.761 165.085 268.761 166.963V178.519ZM281.664 185.982V159.5H287.153V185.982H281.664ZM281.23 155.359C281.23 153.481 282.53 152.181 284.408 152.181C286.286 152.181 287.586 153.481 287.586 155.359C287.586 157.236 286.286 158.537 284.408 158.537C282.53 158.537 281.23 157.236 281.23 155.359ZM297.173 186.463C291.636 186.463 289.18 183.526 289.18 178.47V167.011C289.18 161.955 291.588 159.018 297.125 159.018H297.51C303.047 159.018 305.455 161.955 305.455 167.011V178.47C305.455 183.526 302.999 186.463 297.462 186.463H297.173ZM294.669 178.519C294.669 180.396 295.584 181.648 297.221 181.648H297.414C299.051 181.648 299.966 180.396 299.966 178.519V166.963C299.966 165.085 299.051 163.833 297.414 163.833H297.221C295.584 163.833 294.669 165.085 294.669 166.963V178.519Z" fill="#19F3FF"/>
</g>
<defs>
<clipPath id="clip0_7983_13158">
<rect width="800" height="380" fill="white"/>
</clipPath>
<clipPath id="clip1_7983_13158">
<rect width="467.21" height="352.781" fill="white" transform="translate(773.99 293.632) rotate(173.229)"/>
</clipPath>
</defs>
</svg>
