<svg width="1024" height="1025" viewBox="0 0 1024 1025" fill="none" xmlns="http://www.w3.org/2000/svg">
<path d="M304.183 452.784C297.71 432.47 294.23 410.922 294.23 388.601C294.23 266.451 398.463 167.429 527.042 167.429C601.279 167.429 667.4 200.438 710.03 251.848H710.029C722.288 265.213 729.771 283.03 729.771 302.595C729.771 344.068 696.15 377.689 654.677 377.689C613.205 377.689 579.584 344.068 579.584 302.595C579.584 261.123 613.205 227.502 654.677 227.502C655.25 227.502 655.821 227.509 656.39 227.521C631.591 208.662 600.647 197.468 567.088 197.468C485.534 197.468 419.421 263.58 419.421 345.134C419.421 387.582 437.332 425.847 466.008 452.784H304.183Z" fill="#19F3FF"/>
<path d="M744.791 617.736C744.791 602.426 743.286 587.449 740.407 572.933H556.774C580.312 600.028 594.606 635.697 594.606 674.777C594.606 759.538 527.366 828.249 444.42 828.249C410.988 828.249 380.108 817.087 355.153 798.21C396.235 797.755 429.398 764.311 429.398 723.122C429.398 681.649 395.777 648.028 354.304 648.028C312.831 648.028 279.211 681.649 279.211 723.122C279.211 742.291 286.394 759.783 298.215 773.053C344.662 825.188 414.052 858.288 491.579 858.288C631.424 858.288 744.791 750.589 744.791 617.736Z" fill="#19F3FF"/>
<path d="M662.185 452.782H496.98L361.812 572.931H527.017L662.185 452.782Z" fill="#19F3FF"/>
</svg>
