<?xml version="1.0" encoding="UTF-8" standalone="no"?>
<svg xmlns:rdf="http://www.w3.org/1999/02/22-rdf-syntax-ns#" xmlns="http://www.w3.org/2000/svg" height="48" width="48" version="1.0" xmlns:cc="http://creativecommons.org/ns#" xmlns:xlink="http://www.w3.org/1999/xlink" xmlns:dc="http://purl.org/dc/elements/1.1/">
 <defs>
  <linearGradient id="e" x1="302.86" gradientUnits="userSpaceOnUse" y1="366.65" gradientTransform="matrix(.067325 0 0 .0147 -.34114 37.04)" x2="302.86" y2="609.51">
   <stop stop-opacity="0" offset="0"/>
   <stop offset=".5"/>
   <stop stop-opacity="0" offset="1"/>
  </linearGradient>
  <radialGradient id="b" xlink:href="#a" gradientUnits="userSpaceOnUse" cy="486.65" cx="605.71" gradientTransform="matrix(-.023040 0 0 .0147 21.623 37.04)" r="117.14"/>
  <linearGradient id="a">
   <stop offset="0"/>
   <stop stop-opacity="0" offset="1"/>
  </linearGradient>
  <radialGradient id="c" xlink:href="#a" gradientUnits="userSpaceOnUse" cy="486.65" cx="605.71" gradientTransform="matrix(.023040 0 0 .0147 26.361 37.04)" r="117.14"/>
  <linearGradient id="f" x1="-51.786" gradientUnits="userSpaceOnUse" y1="50.786" gradientTransform="matrix(.80750 0 0 .89483 59.41 -2.9806)" x2="-51.786" y2="2.9062">
   <stop stop-color="#aaa" offset="0"/>
   <stop stop-color="#c8c8c8" offset="1"/>
  </linearGradient>
  <linearGradient id="g" x1="25.132" gradientUnits="userSpaceOnUse" y1=".98521" gradientTransform="matrix(1 0 0 .95617 -1.0065e-7 -1.9149)" x2="25.132" y2="47.013">
   <stop stop-color="#f4f4f4" offset="0"/>
   <stop stop-color="#dbdbdb" offset="1"/>
  </linearGradient>
  <radialGradient id="d" gradientUnits="userSpaceOnUse" cy="112.3" cx="102" gradientTransform="matrix(.36170 0 0 -.39078 .85106 47.517)" r="139.56">
   <stop stop-color="#b7b8b9" offset="0"/>
   <stop stop-color="#ececec" offset=".18851"/>
   <stop stop-color="#fafafa" stop-opacity="0" offset=".25718"/>
   <stop stop-color="#fff" stop-opacity="0" offset=".30111"/>
   <stop stop-color="#fafafa" stop-opacity="0" offset=".5313"/>
   <stop stop-color="#ebecec" stop-opacity="0" offset=".8449"/>
   <stop stop-color="#e1e2e3" stop-opacity="0" offset="1"/>
  </radialGradient>
  <linearGradient id="h" x1="24" gradientUnits="userSpaceOnUse" y1="2" gradientTransform="matrix(1 0 0 .97778 0 -.96667)" x2="24" y2="46.017">
   <stop stop-color="#fff" offset="0"/>
   <stop stop-color="#fff" stop-opacity="0" offset="1"/>
  </linearGradient>
  <filter id="j" width="1.2969" y="-.16434" x="-.14846" height="1.3287" color-interpolation-filters="sRGB">
   <feGaussianBlur stdDeviation="0.77391625"/>
  </filter>
  <linearGradient id="i" x1="32.892" gradientUnits="userSpaceOnUse" y1="8.059" gradientTransform="matrix(.99770 0 0 1.0407 .16380 -1.1058)" x2="36.358" y2="5.4565">
   <stop stop-color="#fefefe" offset="0"/>
   <stop stop-color="#cbcbcb" offset="1"/>
  </linearGradient>
 </defs>
 <rect opacity=".3" height="3.5701" width="32.508" y="42.43" x="7.7378" fill="url(#e)"/>
 <path opacity=".3" fill="url(#b)" d="m7.7378 42.43v3.5699c-1.1865 0.0067-2.8684-0.79982-2.8684-1.7852 0-0.98533 1.324-1.7847 2.8684-1.7847z"/>
 <path opacity=".3" fill="url(#c)" d="m40.246 42.43v3.5699c1.1865 0.0067 2.8684-0.79982 2.8684-1.7852 0-0.98533-1.324-1.7847-2.8684-1.7847z"/>
 <path stroke-linejoin="round" d="m6.5 0.4972h24.061c1.4069 0.47465 8.9655 5.8822 10.939 9.6264v34.379h-35v-44.006z" stroke="url(#f)" stroke-width=".99992" fill="url(#g)"/>
 <path fill="url(#d)" d="m7.3617 44c-0.1993 0-0.3617-0.17546-0.3617-0.39078v-42.204c0-0.21571 0.1624-0.39078 0.3617-0.39078 7.4833 0.1082 15.775-0.16138 23.249 0.0271l10.283 8.866 0.106 33.702c0 0.216-0.162 0.391-0.362 0.391h-33.276z"/>
 <path opacity=".6" stroke-linejoin="round" d="m40.5 10.259v33.263h-33v-42.045h22.866" stroke="url(#h)" stroke-width=".99992" fill="none"/>
 <g fill-rule="evenodd">
  <path opacity=".4" d="m28.617 0.92126c4.2825 0 2.1532 8.4832 2.1532 8.4832s10.358-1.8023 10.358 2.8187c0-2.6097-11.302-10.729-12.511-11.302z" filter="url(#j)"/>
  <path fill="url(#i)" d="m28.617 0.92126c3.1865 0 2.3358 7.6619 2.3358 7.6619s10.175-0.98105 10.175 3.64c0-1.1259 0.08591-1.9322-0.13378-2.2836-1.578-2.5243-8.395-8.1885-10.857-8.9309-0.184-0.05556-0.593-0.08754-1.52-0.08754z"/>
  <path d="m24.686 20.299c-0.44214 0.09405-0.85191 0.34568-1.243 0.74653-0.39159 0.40821-0.60121 0.8738-0.63547 1.3889-0.0215 0.32378 0.06064 0.69935 0.24096 1.1041 0.17982 0.41213 0.47365 0.72151 0.86679 0.93449 0.13317 0.03912 0.19228 0.11727 0.18543 0.2203-0.0024 0.03681-0.05471 0.07004-0.17754 0.09081-0.63592-0.21557-1.1453-0.61432-1.5221-1.181-0.37627-0.57407-0.54851-1.2075-0.51574-1.9149 0.07178-0.75642 0.33923-1.4471 0.8019-2.0646 0.47028-0.62439 1.0487-1.0488 1.7354-1.2732l-0.31694-2.6475c-1.1579 0.86353-2.112 1.7786-2.8704 2.7595-0.7579 0.97349-1.1874 2.0592-1.2957 3.2566-0.0215 0.5382 0.05044 1.0683 0.21626 1.583 0.16536 0.522 0.4337 0.99962 0.80407 1.4476 0.74833 0.88905 1.7649 1.398 3.035 1.5333 0.43579 0.0016 0.90345-0.04621 1.4101-0.14307l-0.71905-5.8408zm0.51696-0.03697 0.73302 5.7382c1.1256-0.37785 1.7393-1.3321 1.8401-2.848-0.0302-0.51233-0.14212-0.97875-0.357-1.4008-0.20728-0.42888-0.49867-0.77506-0.88127-1.039-0.38261-0.26398-0.82282-0.41378-1.3349-0.45043zm-0.94884-7.7574c0.24449-0.13038 0.53187-0.36859 0.84745-0.7083 0.31508-0.33235 0.62746-0.73144 0.92905-1.1831 0.30919-0.45846 0.56196-0.92836 0.75834-1.4097 0.19588-0.47397 0.30496-0.93197 0.33335-1.3588 0.01225-0.18396 0.01028-0.36895-0.01455-0.53339-0.01083-0.26695-0.07534-0.47859-0.20117-0.62807-0.12632-0.14213-0.29211-0.22794-0.50546-0.2432-0.42672-0.03052-0.82888 0.21425-1.2065 0.73436-0.29447 0.45213-0.55215 0.99561-0.75071 1.6173-0.20616 0.6285-0.34072 1.2547-0.39753 1.8939-0.01289 0.73106 0.06119 1.3353 0.2077 1.8189zm-0.47644 0.39474c-0.24074-1.215-0.33776-2.4419-0.29108-3.6807 0.06001-0.79422 0.18765-1.5319 0.38302-2.2129 0.18826-0.68154 0.43415-1.2628 0.73868-1.7586 0.29741-0.49628 0.62916-0.8644 0.98816-1.1049 0.32147-0.21359 0.55026-0.32291 0.67117-0.31426 0.09246 0.0064 0.16824 0.049 0.23495 0.12033 0.06672 0.07131 0.15183 0.18831 0.25583 0.34363 0.76359 1.3042 1.0904 2.8359 0.97394 4.5873-0.05534 0.83153-0.21584 1.6334-0.48305 2.4275-0.2596 0.78734-0.61633 1.5308-1.0692 2.2155-0.46047 0.69163-0.98569 1.2825-1.5833 1.7795l0.38319 2.9406c0.31537-0.01442 0.53069-0.02853 0.65159-0.01992 0.5405 0.03864 1.0163 0.19103 1.4487 0.45858 0.43239 0.26754 0.79538 0.61145 1.0814 1.0386 0.28649 0.41976 0.49794 0.89331 0.63437 1.4206 0.12931 0.52682 0.18603 1.0706 0.14883 1.6299-0.05779 0.86833-0.3311 1.6473-0.81953 2.3295-0.48843 0.68224-1.1846 1.1574-2.0961 1.4323 0.03289 0.36465 0.09772 0.89424 0.20252 1.5746 0.0972 0.68718 0.16815 1.232 0.21283 1.6345 0.04467 0.40246 0.04767 0.78715 0.02269 1.1624-0.03866 0.58134-0.20806 1.0868-0.50867 1.5237-0.30772 0.43639-0.70103 0.76314-1.1871 0.97974-0.47892 0.21712-0.9993 0.30557-1.554 0.26586-0.78232-0.05601-1.4499-0.33297-2.0032-0.82359-0.55283-0.49797-0.82512-1.1311-0.80168-1.9132 0.04435-0.34433 0.14411-0.66251 0.30691-0.9614s0.37147-0.53534 0.63311-0.70885c0.25502-0.18138 0.55347-0.26354 0.8892-0.26169 0.27736 0.01984 0.53512 0.11963 0.77375 0.29197 0.23104 0.1792 0.41598 0.40685 0.54721 0.68981 0.12413 0.28246 0.18229 0.58976 0.16075 0.91354-0.02886 0.43417-0.1956 0.79192-0.50014 1.0733-0.30455 0.28134-0.67754 0.40993-1.1114 0.37888l-0.16357-0.01171c0.248 0.46137 0.68798 0.72206 1.3209 0.76737 0.32004 0.02287 0.65208-0.02725 0.98805-0.13631 0.34356-0.1159 0.63316-0.28001 0.88352-0.4987 0.25036-0.21868 0.42347-0.45768 0.5051-0.71801 0.14098-0.29305 0.22577-0.70843 0.26053-1.2309 0.02348-0.35322 0.01146-0.70898-0.02909-1.0668-0.04103-0.35044-0.10972-0.82116-0.20666-1.4048-0.09744-0.57629-0.16763-1.0249-0.20446-1.3307-0.43406 0.07984-0.87892 0.10715-1.3412 0.0741-0.7752-0.05546-1.497-0.26979-2.1648-0.6503-0.66783-0.38051-1.242-0.88002-1.7291-1.5064-0.48001-0.62585-0.84134-1.3171-1.083-2.0886-0.23503-0.76359-0.33249-1.5543-0.28576-2.3643 0.07842-0.74855 0.26148-1.46 0.56255-2.1187 0.30156-0.66604 0.67178-1.2902 1.1173-1.8646s0.90183-1.0963 1.3685-1.5583c0.47325-0.45412 1.0909-1.0384 1.8668-1.7444z" stroke="#333" stroke-width=".75" fill="#4d4d4d"/>
 </g>
 <g opacity=".4">
  <path d="m15.209 40.916h1.6l1.16-1.9 1.16 1.9h1.6l-1.97-2.86 1.69-2.68h-1.5l-0.98 1.67-1-1.67h-1.5l1.7 2.68-1.96 2.86z"/>
  <path d="m21.344 40.916h1.33v-2.73c0-0.55 0.05-0.92 0.14-1.15 0.16-0.36 0.5-0.57 0.94-0.57 0.36 0 0.67 0.13 0.85 0.35 0.16 0.21 0.23 0.54 0.23 1.06v3.04h1.33v-2.73c0-0.62 0.05-0.93 0.19-1.19 0.17-0.34 0.51-0.53 0.93-0.53 0.33 0 0.61 0.12 0.79 0.34 0.18 0.21 0.25 0.52 0.25 1.07v3.04h1.33v-3.2c0-0.67-0.12-1.21-0.36-1.59-0.35-0.56-1.05-0.88-1.88-0.88-0.78 0-1.33 0.26-1.78 0.86-0.38-0.6-0.87-0.86-1.63-0.86-0.65 0-1.05 0.18-1.44 0.65v-0.52h-1.22v5.54z"/>
  <path d="m30.739 40.916h1.33v-7.39h-1.33v7.39z"/>
 </g>
</svg>
