<svg xmlns="http://www.w3.org/2000/svg" xmlns:xlink="http://www.w3.org/1999/xlink" width="24" height="24" version="1.1" viewBox="0 0 24 24"><title>align-vertical-baseline</title><desc>Created with Sketch.</desc><g id="Derived-24" fill="none" fill-rule="evenodd" stroke="none" stroke-width="1"><g id="align-vertical-baseline" fill="#3B3F45"><path id="Line" d="M3,19 L5,19 L5,17 L3,17 L3,19 Z M7,19 L9,19 L9,17 L7,17 L7,19 Z M11,19 L13,19 L13,17 L11,17 L11,19 Z M15,19 L17,19 L17,17 L15,17 L15,19 Z M19,19 L21,19 L21,17 L19,17 L19,19 Z"/><path id="Shape" d="M13.5,5 L11.5,5 L7,17 L9,17 L10.12,14 L14.87,14 L16,17 L18,17 L13.5,5 Z M10.88,12 L12.5,7.67 L14.12,12 L10.88,12 L10.88,12 Z"/></g></g></svg>