<svg xmlns="http://www.w3.org/2000/svg" xmlns:xlink="http://www.w3.org/1999/xlink" width="24" height="24" version="1.1" viewBox="0 0 24 24"><title>align-vertical-bottom</title><desc>Created with Sketch.</desc><g id="Derived-24" fill="none" fill-rule="evenodd" stroke="none" stroke-width="1"><g id="align-vertical-bottom" fill="#3B3F45"><path id="Line" d="M3,19 L5,19 L5,17 L3,17 L3,19 Z M7,19 L9,19 L9,17 L7,17 L7,19 Z M11,19 L13,19 L13,17 L11,17 L11,19 Z M15,19 L17,19 L17,17 L15,17 L15,19 Z M19,19 L21,19 L21,17 L19,17 L19,19 Z"/><path id="Shape" d="M13.5,4 L11.5,4 L7,16 L9,16 L10.12,13 L14.87,13 L16,16 L18,16 L13.5,4 Z M10.88,11 L12.5,6.67 L14.12,11 L10.88,11 L10.88,11 Z"/></g></g></svg>