<svg width="24" height="24" viewBox="0 0 24 24" fill="none" xmlns="http://www.w3.org/2000/svg">
<g clip-path="url(#clip0)">
<path d="M19.2 34.7077L11.9999 41.9077L4.79991 34.7077C4.07991 33.9877 2.93529 33.9877 2.21529 34.7077C1.49529 35.4277 1.49529 36.5723 2.21529 37.2923L10.6891 45.7662C11.4091 46.4862 12.5722 46.4862 13.2922 45.7662L21.7846 37.2923C22.5046 36.5723 22.5046 35.4277 21.7846 34.7077C21.0646 33.9877 19.92 33.9877 19.2 34.7077ZM19.2 22.5231L11.9999 15.3231L4.79991 22.5231C4.07991 23.2431 2.93529 23.2431 2.21529 22.5231C1.49529 21.8031 1.49529 20.6585 2.21529 19.9385L10.6891 11.4646C11.4091 10.7446 12.5722 10.7446 13.2922 11.4646L21.7846 19.9385C22.5046 20.6585 22.5046 21.8031 21.7846 22.5231C21.0646 23.2431 19.92 23.2431 19.2 22.5231Z" fill="#3B3F45"/>
<path d="M19.2 25.4769L11.9999 32.6769L4.79991 25.4769C4.07991 24.7569 2.93529 24.7569 2.21529 25.4769C1.49529 26.1969 1.49529 27.3415 2.21529 28.0615L10.6891 36.5354C11.4091 37.2554 12.5722 37.2554 13.2922 36.5354L21.7846 28.0615C22.5046 27.3415 22.5046 26.1969 21.7846 25.4769C21.0646 24.7569 19.92 24.7569 19.2 25.4769ZM19.2 13.2923L11.9999 6.09234L4.79991 13.2923C4.07991 14.0123 2.93529 14.0123 2.21529 13.2923C1.49529 12.5723 1.49529 11.4277 2.21529 10.7077L10.6891 2.23384C11.4091 1.51384 12.5722 1.51384 13.2922 2.23384L21.7846 10.7077C22.5046 11.4277 22.5046 12.5723 21.7846 13.2923C21.0646 14.0123 19.92 14.0123 19.2 13.2923Z" fill="#3B3F45"/>
</g>
<defs>
<clipPath id="clip0">
<rect width="24" height="24" fill="white"/>
</clipPath>
</defs>
</svg>
