<svg xmlns="http://www.w3.org/2000/svg" xmlns:svg="http://www.w3.org/2000/svg" id="svg2" width="24" height="24" version="1.1"><metadata id="metadata22"/><path id="path3011" fill="#3b3f45" fill-opacity="1" d="m 7.6225823,15.954584 c 0.5690034,0.803991 0.8307338,1.071288 1.7780367,2.383751 0.94731,1.312462 1.938612,2.686663 2.202911,3.05378 0.264289,0.367116 0.482772,0.664306 0.485505,0.660427 0.0029,-0.0035 0.563056,-0.810827 1.245151,-1.793214 1.276595,-1.838633 1.835684,-2.552089 2.706181,-3.797197 0.279479,-0.399756 1.052654,-1.401324 1.089799,-1.471497 0.304195,-0.540703 0.899073,-0.893595 0.423294,-1.320227 -0.401363,-0.359903 -0.658202,-0.202629 -0.944364,-0.101038 -0.119393,0.04239 -0.851876,0.588689 -1.214531,0.854402 l -1.730381,1.267829 0,-6.8720868 0,-6.872093 -1.621048,0 -1.621055,0 0,6.85446 c 0,3.7699468 -0.0072,6.8616518 -0.01596,6.8704408 -0.0088,0.0088 -1.3330114,-0.984219 -1.8290658,-1.329756 C 7.8783401,13.855861 7.6374553,13.597891 7.2213826,13.495816 6.6290952,13.350511 6.3548788,13.823788 6.336841,14.014135 c -0.021734,0.229357 0.1322996,0.44461 0.3329653,0.726981 z" display="inline"/></svg>