<?xml version="1.0" encoding="UTF-8" standalone="no"?>
<svg
   xmlns:dc="http://purl.org/dc/elements/1.1/"
   xmlns:cc="http://creativecommons.org/ns#"
   xmlns:rdf="http://www.w3.org/1999/02/22-rdf-syntax-ns#"
   xmlns:svg="http://www.w3.org/2000/svg"
   xmlns="http://www.w3.org/2000/svg"
   xmlns:sodipodi="http://sodipodi.sourceforge.net/DTD/sodipodi-0.dtd"
   xmlns:inkscape="http://www.inkscape.org/namespaces/inkscape"
   height="24"
   version="1.1"
   width="24"
   id="svg2"
   inkscape:version="0.48.4 r9939"
   sodipodi:docname="arrow_up.svg">
  <metadata
     id="metadata22">
    <rdf:RDF>
      <cc:Work
         rdf:about="">
        <dc:format>image/svg+xml</dc:format>
        <dc:type
           rdf:resource="http://purl.org/dc/dcmitype/StillImage" />
        <dc:title />
      </cc:Work>
    </rdf:RDF>
  </metadata>
  <defs
     id="defs20" />
  <sodipodi:namedview
     pagecolor="#ffffff"
     bordercolor="#666666"
     borderopacity="1"
     objecttolerance="10"
     gridtolerance="10"
     guidetolerance="10"
     inkscape:pageopacity="0"
     inkscape:pageshadow="2"
     inkscape:window-width="1600"
     inkscape:window-height="880"
     id="namedview18"
     showgrid="false"
     inkscape:zoom="3.4766083"
     inkscape:cx="75.071857"
     inkscape:cy="3.8722386"
     inkscape:window-x="-2"
     inkscape:window-y="-3"
     inkscape:window-maximized="1"
     inkscape:current-layer="svg2" />
  <path
     style="fill:#3b3f45;fill-opacity:1;display:inline"
     d="M 7.6225823,8.0454166 C 8.1915857,7.241425 8.4533161,6.9741284 9.400619,5.6616656 c 0.94731,-1.3124629 1.938612,-2.6866638 2.202911,-3.05378 0.264289,-0.3671164 0.482772,-0.6643064 0.485505,-0.6604279 0.0029,0.00353 0.563056,0.8108278 1.245151,1.7932144 1.276595,1.8386333 1.835684,2.5520891 2.706181,3.7971972 0.279479,0.3997554 1.052654,1.4013235 1.089799,1.4714971 0.304195,0.540703 0.899073,0.8935945 0.423294,1.3202266 -0.401363,0.359903 -0.658202,0.202629 -0.944364,0.101038 -0.119393,-0.04239 -0.851876,-0.5886884 -1.214531,-0.8544014 l -1.730381,-1.2678297 0,6.8720871 0,6.872093 -1.621048,0 -1.621055,0 0,-6.85446 c 0,-3.769947 -0.0072,-6.861652 -0.01596,-6.8704408 -0.0088,-0.0088 -1.3330114,0.9842193 -1.8290658,1.3297561 C 7.8783401,10.144139 7.6374553,10.402109 7.2213826,10.504184 6.6290952,10.649489 6.3548788,10.176212 6.336841,9.985865 6.3151066,9.7565079 6.4691406,9.541255 6.6698063,9.2588837 z"
     id="path3011"
     inkscape:connector-curvature="0"
     sodipodi:nodetypes="csscsscscscccccssssscc" />
</svg>
