<?xml version="1.0" encoding="UTF-8" standalone="no"?>
<svg width="80px" height="124px" viewBox="0 0 80 124"
 xmlns="http://www.w3.org/2000/svg" xmlns:xlink="http://www.w3.org/1999/xlink" version="1.2" baseProfile="tiny">
<title>chord_symbol_issue_0</title>
<desc>Generated by MuseScore 3.4.2</desc>
<path class="" d="M22.4861,61.5873 C23.2361,61.5561 26.3923,54.9155 26.3923,49.7436 C26.3923,49.3373 26.3923,48.5873 26.2673,48.0561 C25.658,43.1811 23.2986,35.9155 23.2986,31.9311 C23.2986,28.2123 24.9548,24.6967 25.1736,24.3061 C25.6267,23.8686 25.9861,22.7748 25.9861,22.2436 C25.9861,21.1811 24.6736,19.853 23.8142,21.6967 C24.3298,21.3217 24.7986,19.5561 23.408,19.5561 C21.9236,19.5561 21.9861,21.0248 21.1423,20.853 C19.2205,23.3373 16.7205,28.5717 16.7205,37.0405 C16.7205,45.728 19.533,48.9155 19.533,53.2436 C19.533,56.2748 18.4705,57.7592 15.158,61.6655 C18.0017,64.8998 19.533,65.6967 19.533,69.6342 C19.533,74.6967 16.7205,79.6967 16.7205,86.0405 C16.7205,94.5092 19.2205,99.8373 21.1423,102.322 C21.6423,102.822 22.3455,103.525 23.408,103.525 C24.3767,103.525 25.0798,102.822 23.8142,101.478 C24.6736,103.322 25.9861,102.009 25.9861,100.947 C25.9861,100.4 25.6736,99.4623 25.2048,98.8373 C24.9236,98.4155 23.2986,94.978 23.2986,91.2436 C23.2986,87.2592 25.658,79.8998 26.2673,75.1186 C26.3923,74.603 26.3923,73.9467 26.3923,73.4467 C26.3923,68.2748 23.2205,61.5873 22.4861,61.5873"/>
<path class="" d="M56.1267,61.5873 C55.3923,61.5873 52.2205,68.2748 52.2205,73.4467 C52.2205,73.9467 52.2205,74.603 52.3611,75.1186 C52.9705,79.8998 55.3298,87.2592 55.3298,91.2436 C55.3298,94.978 53.6892,98.4155 53.408,98.8373 C52.9392,99.4623 52.6267,100.4 52.6267,100.947 C52.6267,102.009 53.9548,103.322 54.8142,101.478 C53.533,102.822 54.2517,103.525 55.2048,103.525 C56.2673,103.525 56.9861,102.822 57.4705,102.322 C59.3923,99.8373 61.8923,94.5092 61.8923,86.0405 C61.8923,77.353 59.0955,74.1498 59.0955,69.9467 C59.0955,65.6967 60.6267,64.8998 63.4392,61.6811 C60.6423,58.2905 59.0955,57.478 59.0955,53.4467 C59.0955,48.9155 61.8923,45.728 61.8923,37.0405 C61.8923,28.5717 59.3923,23.3373 57.4705,20.853 C56.6423,21.0248 56.7048,19.5561 55.2048,19.5561 C53.8298,19.5561 54.283,21.3217 54.8142,21.6967 C53.9548,19.853 52.6267,21.1811 52.6267,22.2436 C52.6267,22.7748 52.9861,23.8686 53.4392,24.3061 C53.658,24.6967 55.3298,28.2123 55.3298,31.9311 C55.3298,35.9155 52.9705,43.1811 52.3611,48.0561 C52.2205,48.5873 52.2205,49.3373 52.2205,49.7436 C52.2205,54.9155 55.3767,61.5561 56.1267,61.5873"/>
</svg>
