<?xml version="1.0" encoding="UTF-8" standalone="no"?>
<!-- Created with Inkscape (http://www.inkscape.org/) -->

<svg
   xmlns:dc="http://purl.org/dc/elements/1.1/"
   xmlns:cc="http://creativecommons.org/ns#"
   xmlns:rdf="http://www.w3.org/1999/02/22-rdf-syntax-ns#"
   xmlns:svg="http://www.w3.org/2000/svg"
   xmlns="http://www.w3.org/2000/svg"
   xmlns:sodipodi="http://sodipodi.sourceforge.net/DTD/sodipodi-0.dtd"
   xmlns:inkscape="http://www.inkscape.org/namespaces/inkscape"
   id="svg2"
   version="1.1"
   inkscape:version="0.48.0 r9654"
   width="20"
   height="24"
   sodipodi:docname="brevis.svg">
  <sodipodi:namedview
     pagecolor="#ffffff"
     bordercolor="#666666"
     borderopacity="1"
     objecttolerance="10"
     gridtolerance="10"
     guidetolerance="10"
     inkscape:pageopacity="0"
     inkscape:pageshadow="2"
     inkscape:window-width="667"
     inkscape:window-height="700"
     id="namedview4"
     showgrid="false"
     inkscape:zoom="9.8333333"
     inkscape:cx="19.557074"
     inkscape:cy="11.649199"
     inkscape:window-x="0"
     inkscape:window-y="0"
     inkscape:window-maximized="0"
     inkscape:current-layer="svg2" />
  <metadata
     id="metadata8">
    <rdf:RDF>
      <cc:Work
         rdf:about="">
        <dc:format>image/svg+xml</dc:format>
        <dc:type
           rdf:resource="http://purl.org/dc/dcmitype/StillImage" />
        <dc:title />
      </cc:Work>
    </rdf:RDF>
  </metadata>
  <defs
     id="defs6">
    <inkscape:perspective
       id="perspective10"
       inkscape:persp3d-origin="0.5 : 0.33333333 : 1"
       inkscape:vp_z="1 : 0.5 : 1"
       inkscape:vp_y="0 : 1000 : 0"
       inkscape:vp_x="0 : 0.5 : 1"
       sodipodi:type="inkscape:persp3d" />
  </defs>
  <g
     style="font-size:20px;font-style:normal;font-variant:normal;font-weight:normal;font-stretch:normal;text-align:start;line-height:125%;writing-mode:lr-tb;text-anchor:start;fill:#000000;fill-opacity:1;stroke:none;font-family:MScore;-inkscape-font-specification:MScore"
     id="text2816"
     transform="translate(0,6.754695)">
    <path
       d="m 9.9430513,9.1383049 c 1.3066607,2.8e-6 2.3599927,0.2133359 3.1599997,0.64 0.799991,0.4133351 1.326658,0.8600011 1.58,1.3400001 l 0,-1.4600001 c -9e-6,-0.1466642 0.04666,-0.2666641 0.14,-0.36 0.106657,-0.1066639 0.226657,-0.1599972 0.36,-0.16 0.133323,2.8e-6 0.246657,0.053336 0.34,0.16 0.106656,0.093336 0.15999,0.2133358 0.16,0.36 l 0,4.4800001 c -1e-5,0.146664 -0.05334,0.266664 -0.16,0.36 -0.09334,0.106664 -0.206677,0.159997 -0.34,0.16 -0.133343,-3e-6 -0.253343,-0.05334 -0.36,-0.16 -0.09334,-0.09334 -0.140009,-0.213336 -0.14,-0.36 l 0,-1.46 c -0.253342,0.479999 -0.780009,0.926665 -1.58,1.34 -0.800007,0.426664 -1.853339,0.639997 -3.1599997,0.64 -1.3200036,-3e-6 -2.3800026,-0.213336 -3.18,-0.64 -0.800001,-0.413335 -1.3266671,-0.860001 -1.58,-1.34 l 0,1.46 c -2e-7,0.146664 -0.053333,0.266664 -0.16,0.36 -0.093333,0.106664 -0.2066665,0.159997 -0.34,0.16 -0.1333329,-3e-6 -0.2466661,-0.05334 -0.34,-0.16 -0.1066659,-0.09334 -0.1599992,-0.213336 -0.16,-0.36 l 0,-4.4800001 c 8e-7,-0.1466642 0.053334,-0.2666641 0.16,-0.36 0.093334,-0.1066639 0.2066671,-0.1599972 0.34,-0.16 0.1333335,2.8e-6 0.2466667,0.053336 0.34,0.16 0.1066665,0.093336 0.1599998,0.2133358 0.16,0.36 l 0,1.4600001 c 0.2533329,-0.479999 0.779999,-0.926665 1.58,-1.3400001 0.7999974,-0.4266641 1.8599964,-0.6399972 3.18,-0.64 m -0.66,0.52 c -0.4666705,2.3e-6 -0.8133368,0.1600021 -1.04,0.4800001 -0.2266697,0.320001 -0.3400029,0.746668 -0.34,1.28 -2.9e-6,0.613333 0.1599969,1.133333 0.48,1.56 0.3333296,0.439998 0.6933292,0.739998 1.08,0.9 0.3866618,0.173331 0.7599947,0.259998 1.1199997,0.26 0.466661,-2e-6 0.813327,-0.160002 1.04,-0.48 0.22666,-0.320002 0.339993,-0.746668 0.34,-1.28 -7e-6,-0.613333 -0.166673,-1.133333 -0.5,-1.56 -0.320006,-0.439999 -0.673339,-0.739998 -1.06,-0.9000001 -0.386671,-0.1733311 -0.7600044,-0.2599977 -1.1199997,-0.26"
       id="path2815"
       inkscape:connector-curvature="0" />
  </g>
</svg>
