<?xml version="1.0" standalone="no"?><!-- Generator: Gravit.io --><svg xmlns="http://www.w3.org/2000/svg" xmlns:xlink="http://www.w3.org/1999/xlink" style="isolation:isolate" viewBox="0 0 164 174" width="164" height="174"><defs><clipPath id="_clipPath_Q7c3oMLQWnGE9HCOy5RrvRCmMH0Z2mWx"><rect width="164" height="174"/></clipPath></defs><g clip-path="url(#_clipPath_Q7c3oMLQWnGE9HCOy5RrvRCmMH0Z2mWx)"><path d=" M 82 0.851 C 66.408 0.851 53.509 12.351 51.329 27.351 L 112.671 27.351 C 110.49 12.351 97.592 0.851 82 0.851 Z " fill="rgb(59,63,69)"/><path d=" M 59 34.004 L 39.049 34.004 L 26.756 13.425 C 25.445 11.232 23.123 10.004 20.741 10.004 C 19.519 10.004 18.282 10.324 17.157 10.997 C 13.839 12.98 12.756 17.29 14.74 20.608 L 31.107 48.004 L 41.985 48.004 C 30.602 57.73 22.614 71.459 20.545 87.004 L 5 87.004 C 2.239 87.004 0 89.242 0 92.004 L 0 95.004 C 0 97.766 2.239 100.004 5 100.004 L 20.223 100.004 C 21.359 113.764 27.126 126.248 35.849 136.004 L 31.107 136.004 L 14.739 163.389 C 12.755 166.707 13.838 171.005 17.156 172.989 C 18.281 173.662 19.519 173.981 20.74 173.981 C 23.122 173.981 25.445 172.765 26.755 170.572 L 39.049 150.004 L 53.81 150.004 C 60.931 153.728 68.786 156.11 76.999 156.785 L 76.999 150.004 L 76.999 136.004 L 76.999 100.004 L 76.999 87.004 L 76.999 48.004 L 76.999 34.004 L 71.126 34.004 L 59 34.004 Z " fill="rgb(59,63,69)"/><path d=" M 159 87 L 143.475 87 C 141.477 71.455 133.744 57.726 122.438 48 L 133.328 48 L 149.709 21.451 C 151.74 18.161 150.72 13.843 147.43 11.812 C 144.139 9.782 139.826 10.812 137.797 14.101 L 125.517 34 L 95 34 L 93.041 34 L 87 34 L 87 48 L 87 87 L 87 100 L 87 136 L 87 150 L 87 156.781 C 95.479 156.106 103.457 153.723 110.618 150 L 125.516 150 L 137.795 169.891 C 139.824 173.18 144.137 174.201 147.428 172.17 C 150.718 170.14 151.739 165.826 149.707 162.537 L 133.327 136 L 128.513 136 C 137.121 126.244 142.691 113.76 143.786 100 L 159 100 C 161.762 100 164 97.762 164 95 L 164 92 C 164 89.238 161.762 87 159 87 Z " fill="rgb(59,63,69)"/></g></svg>