<?xml version="1.0" encoding="UTF-8" standalone="no"?>
<svg
   xmlns:dc="http://purl.org/dc/elements/1.1/"
   xmlns:cc="http://creativecommons.org/ns#"
   xmlns:rdf="http://www.w3.org/1999/02/22-rdf-syntax-ns#"
   xmlns:svg="http://www.w3.org/2000/svg"
   xmlns="http://www.w3.org/2000/svg"
   id="svg15"
   version="1.1"
   height="24"
   width="24"
   viewBox="0 0 24 24"
   style="isolation:isolate">
  <metadata
     id="metadata19">
    <rdf:RDF>
      <cc:Work
         rdf:about="">
        <dc:format>image/svg+xml</dc:format>
        <dc:type
           rdf:resource="http://purl.org/dc/dcmitype/StillImage" />
        <dc:title></dc:title>
      </cc:Work>
    </rdf:RDF>
  </metadata>
  <defs
     id="defs5">
    <clipPath
       id="_clipPath_Q7c3oMLQWnGE9HCOy5RrvRCmMH0Z2mWx">
      <rect
         y="0"
         x="0"
         id="rect2"
         height="174"
         width="164" />
    </clipPath>
  </defs>
  <path
     style="fill:#3b3f45;stroke-width:1"
     d="M 12.000181,-8.1984e-7 C 9.8387532,-8.1984e-7 8.0506402,1.594177 7.7484395,3.6735394 H 16.251923 C 15.949583,1.594177 14.161609,-8.1984e-7 12.000181,-8.1984e-7 Z"
     id="path7" />
  <path
     id="path852"
     d="M 3.5078125 1.2695312 C 3.3384138 1.2695312 3.167671 1.3129562 3.0117188 1.40625 C 2.5517636 1.6811417 2.4007509 2.2783264 2.6757812 2.7382812 L 4.9453125 6.5371094 L 6.453125 6.5371094 C 4.8751661 7.885368 3.7672821 9.7884481 3.4804688 11.943359 L 1.3261719 11.943359 C 0.94343052 11.943359 0.6328125 12.253839 0.6328125 12.636719 L 0.6328125 13.052734 C 0.6328125 13.435614 0.94343053 13.744141 1.3261719 13.744141 L 3.4355469 13.744141 C 3.5930239 15.651609 4.392344 17.383911 5.6015625 18.736328 L 4.9453125 18.736328 L 2.6757812 22.53125 C 2.4007509 22.991205 2.5517637 23.588251 3.0117188 23.863281 C 3.1676707 23.956575 3.3385524 24 3.5078125 24 C 3.8380152 24 4.1601993 23.831347 4.3417969 23.527344 L 6.046875 20.675781 L 8.0917969 20.675781 C 8.9892572 21.145117 9.9734603 21.45218 11 21.576172 L 11 4.5957031 L 10.492188 4.5957031 L 8.8125 4.5957031 L 6.046875 4.5957031 L 4.3417969 1.7421875 C 4.1600607 1.4381847 3.8380153 1.2695314 3.5078125 1.2695312 z M 20.427734 1.3847656 C 20.150501 1.4229214 19.892589 1.5794741 19.734375 1.8359375 L 18.033203 4.5957031 L 13.802734 4.5957031 L 13.53125 4.5957031 L 13 4.5957031 L 13 21.574219 C 14.05985 21.451194 15.0619 21.146237 15.966797 20.675781 L 18.033203 20.675781 L 19.734375 23.433594 C 20.015644 23.889529 20.6141 24.029592 21.070312 23.748047 C 21.526385 23.46664 21.668403 22.869999 21.386719 22.414062 L 19.115234 18.734375 L 18.447266 18.734375 C 19.640542 17.381957 20.41266 15.651609 20.564453 13.744141 L 22.673828 13.744141 C 23.056708 13.744141 23.367188 13.433661 23.367188 13.050781 L 23.367188 12.634766 C 23.367188 12.251886 23.056708 11.941406 22.673828 11.941406 L 20.521484 11.941406 C 20.244513 9.7864921 19.172754 7.8834149 17.605469 6.5351562 L 19.115234 6.5351562 L 21.386719 2.8554688 C 21.668265 2.399395 21.526385 1.8010772 21.070312 1.5195312 C 20.95626 1.4491795 20.833586 1.4057816 20.708984 1.3867188 C 20.615533 1.3724215 20.520145 1.372047 20.427734 1.3847656 z M 15 7.1777344 C 17.154978 8.2767856 18.609108 10.51552 18.609375 13.066406 C 18.606972 15.615697 17.154003 17.851252 15 18.949219 L 15 7.1777344 z M 9 7.1835938 L 9 18.955078 C 6.8450221 17.856027 5.3908919 15.617293 5.390625 13.066406 C 5.3930259 10.517116 6.8459964 8.28156 9 7.1835938 z "
     style="fill:#3b3f45;stroke-width:1" />
</svg>
