<?xml version="1.0" encoding="UTF-8" standalone="no"?>
<!-- Created with Inkscape (http://www.inkscape.org/) -->

<svg
   xmlns:dc="http://purl.org/dc/elements/1.1/"
   xmlns:cc="http://creativecommons.org/ns#"
   xmlns:rdf="http://www.w3.org/1999/02/22-rdf-syntax-ns#"
   xmlns:svg="http://www.w3.org/2000/svg"
   xmlns="http://www.w3.org/2000/svg"
   xmlns:sodipodi="http://sodipodi.sourceforge.net/DTD/sodipodi-0.dtd"
   xmlns:inkscape="http://www.inkscape.org/namespaces/inkscape"
   width="160"
   height="160"
   id="svg4292"
   version="1.1"
   inkscape:version="0.47 r22583"
   sodipodi:docname="Nouveau document 3">
  <defs
     id="defs3">
    <inkscape:perspective
       sodipodi:type="inkscape:persp3d"
       inkscape:vp_x="0 : 526.18109 : 1"
       inkscape:vp_y="0 : 1000 : 0"
       inkscape:vp_z="744.09448 : 526.18109 : 1"
       inkscape:persp3d-origin="372.04724 : 350.78739 : 1"
       id="perspective4298" />
    <inkscape:perspective
       id="perspective4272"
       inkscape:persp3d-origin="0.5 : 0.33333333 : 1"
       inkscape:vp_z="1 : 0.5 : 1"
       inkscape:vp_y="0 : 1000 : 0"
       inkscape:vp_x="0 : 0.5 : 1"
       sodipodi:type="inkscape:persp3d" />
  </defs>
  <sodipodi:namedview
     inkscape:document-units="mm"
     id="base"
     pagecolor="#ffffff"
     bordercolor="#666666"
     borderopacity="1.0"
     inkscape:pageopacity="0.0"
     inkscape:pageshadow="2"
     inkscape:zoom="1.979899"
     inkscape:cx="-15.520253"
     inkscape:cy="37.425585"
     inkscape:current-layer="layer1"
     showgrid="false"
     inkscape:window-width="1440"
     inkscape:window-height="850"
     inkscape:window-x="-8"
     inkscape:window-y="-8"
     inkscape:window-maximized="1" />
  <metadata
     id="metadata4">
    <rdf:RDF>
      <cc:Work
         rdf:about="">
        <dc:format>image/svg+xml</dc:format>
        <dc:type
           rdf:resource="http://purl.org/dc/dcmitype/StillImage" />
        <dc:title></dc:title>
      </cc:Work>
    </rdf:RDF>
  </metadata>
  <g
     inkscape:label="Layer 1"
     inkscape:groupmode="layer"
     id="layer1"
     transform="translate(0,-892.36218)">
    <g
       transform="matrix(3.3670367,0,0,3.3670367,-823.39283,-1113.3143)"
       id="All_Friend"
       style="fill:#000000">
      <g
         id="g1005"
         style="fill:#000000">
        <g
           id="g1007"
           style="fill:#000000">
          <path
             style="fill:#000000"
             d="m 261.393,625.386 c -1.182,-0.914 -2.127,-2.369 -2.556,-3.586 -0.051,-0.047 -0.118,-0.105 -0.173,-0.154 -0.661,-0.58 -1.894,-1.66 -1.894,-4.082 0,-1.143 0.22,-1.955 0.69,-2.559 0.063,-0.082 0.146,-0.178 0.248,-0.273 v -2.426 c 0,-2.928 2.106,-6.811 6.684,-8.232 -0.799,-1.83 -2.781,-3.816 -6.708,-3.816 -5.431,0 -7.151,3.803 -7.151,5.73 0,1.039 0,2.811 0,2.939 0,0.131 -0.773,-0.354 -0.773,1.395 0,1.992 1.344,2.131 1.582,2.883 0.424,1.336 1.736,2.789 2.604,2.789 0,0 0.067,0.275 0.067,0.785 0,0.412 -0.012,0.404 -0.301,0.404 -4.721,0 -7.967,4.988 -7.967,6.582 0,2.037 0,4.275 0,4.275 h 10.012 c 1.651,-1.238 3.589,-2.24 5.636,-2.654 z"
             id="path1009" />
          <path
             style="fill:#000000"
             d="m 282.779,617.183 c -0.291,0 -0.301,0.008 -0.301,-0.404 0,-0.51 0.066,-0.785 0.066,-0.785 0.869,0 2.183,-1.453 2.604,-2.789 0.239,-0.752 1.582,-0.891 1.582,-2.883 0,-1.748 -0.771,-1.264 -0.771,-1.395 0,-0.129 0,-1.9 0,-2.939 0,-1.928 -1.721,-5.73 -7.152,-5.73 -3.938,0 -5.918,1.998 -6.713,3.832 4.548,1.432 6.643,5.299 6.643,8.217 v 2.426 c 0.518,0.494 0.938,1.352 0.938,2.832 0,2.422 -1.232,3.504 -1.895,4.084 -0.055,0.047 -0.123,0.105 -0.173,0.152 -0.429,1.217 -1.372,2.672 -2.554,3.586 2.047,0.414 3.983,1.418 5.634,2.654 h 10.06 c 0,0 0,-2.238 0,-4.275 -0.001,-1.595 -3.247,-6.583 -7.968,-6.583 z"
             id="path1011" />
        </g>
        <path
           style="fill:#000000"
           d="m 273.042,627.017 c -0.352,0 -0.365,-1.119 -0.365,-1.619 0,-0.615 0.081,-0.953 0.081,-0.953 1.054,0 2.648,-1.76 3.159,-3.383 0.29,-0.912 1.921,-1.078 1.921,-3.498 0,-2.119 -0.938,-1.531 -0.938,-1.689 0,-0.158 0,-2.307 0,-3.568 0,-2.338 -2.089,-6.951 -8.678,-6.951 -6.59,0 -8.677,4.613 -8.677,6.951 0,1.262 0,3.41 0,3.568 0,0.158 -0.938,-0.43 -0.938,1.689 0,2.42 1.631,2.586 1.919,3.498 0.513,1.623 2.106,3.383 3.16,3.383 0,0 0.081,0.338 0.081,0.953 0,0.5 -0.014,1.619 -0.365,1.619 -5.727,0 -10.791,6.053 -10.791,7.986 0,2.471 0,4.059 0,4.059 h 15.611 15.611 c 0,0 0,-1.588 0,-4.059 10e-4,-1.934 -5.063,-7.986 -10.791,-7.986 z"
           id="path1013" />
      </g>
    </g>
  </g>
</svg>
