<?xml version="1.0" encoding="UTF-8"?>
<svg width="24px" height="24px" viewBox="0 0 24 24" version="1.1" xmlns="http://www.w3.org/2000/svg" xmlns:xlink="http://www.w3.org/1999/xlink">
    <!-- Generator: Sketch 41.2 (35397) - http://www.bohemiancoding.com/sketch -->
    <title>default</title>
    <desc>Created with Sketch.</desc>
    <defs></defs>
    <g id="Original-24" stroke="none" stroke-width="1" fill="none" fill-rule="evenodd">
        <g id="default" fill="#000000">
            <path d="M1.92,13.51 L1.57,15 L-0.13,15 L1.96,8.07 L3.95,8.07 L6.04,15 L4.3,15 L3.95,13.51 L1.92,13.51 Z M2.93,9.26 L2.2,12.32 L3.66,12.32 L2.93,9.26 Z M11.455,13.97 C11.2516657,14.3433352 10.9466687,14.6366656 10.54,14.85 C10.1333313,15.0633344 9.6366696,15.17 9.05,15.17 C8.1699956,15.17 7.5000023,14.9466689 7.04,14.5 C6.5799977,14.0533311 6.35,13.4533371 6.35,12.7 L6.35,8.07 L7.99,8.07 L7.99,12.63 C7.99,13.0766689 8.07499915,13.4083323 8.245,13.625 C8.41500085,13.8416678 8.6833315,13.95 9.05,13.95 C9.4233352,13.95 9.69499915,13.8416678 9.865,13.625 C10.0350009,13.4083323 10.12,13.0766689 10.12,12.63 L10.12,8.07 L11.76,8.07 L11.76,12.7 C11.76,13.1733357 11.6583344,13.5966648 11.455,13.97 Z M15.83,9.33 L15.83,15 L14.19,15 L14.19,9.33 L12.4,9.33 L12.4,8.07 L17.7,8.07 L17.54,9.33 L15.83,9.33 Z M23.105,8.85 C23.6550028,9.4833365 23.93,10.3766609 23.93,11.53 C23.93,12.2833371 23.8050013,12.9333306 23.555,13.48 C23.3049987,14.0266694 22.9450023,14.4449986 22.475,14.735 C22.0049977,15.0250014 21.4466699,15.17 20.8,15.17 C20.1533301,15.17 19.596669,15.0266681 19.13,14.74 C18.663331,14.4533319 18.3050013,14.038336 18.055,13.495 C17.8049987,12.951664 17.68,12.2966705 17.68,11.53 C17.68,10.7833296 17.8049987,10.1366694 18.055,9.59 C18.3050013,9.0433306 18.663331,8.62500145 19.13,8.335 C19.596669,8.04499855 20.1533301,7.9 20.8,7.9 C21.7866716,7.9 22.5549972,8.2166635 23.105,8.85 Z M19.745,9.675 C19.5149989,10.0583353 19.4,10.6766624 19.4,11.53 C19.4,12.3833376 19.5166655,13.0033314 19.75,13.39 C19.9833345,13.7766686 20.333331,13.97 20.8,13.97 C21.2800024,13.97 21.6349989,13.7783352 21.865,13.395 C22.0950012,13.0116647 22.21,12.3900043 22.21,11.53 C22.21,10.6699957 22.0933345,10.0500019 21.86,9.67 C21.6266655,9.2899981 21.2733357,9.1 20.8,9.1 C20.3266643,9.1 19.9750012,9.29166475 19.745,9.675 Z" id="AUTO"></path>
        </g>
    </g>
</svg>