<?xml version="1.0" encoding="UTF-8" standalone="no"?>
<svg
   xmlns:dc="http://purl.org/dc/elements/1.1/"
   xmlns:cc="http://creativecommons.org/ns#"
   xmlns:rdf="http://www.w3.org/1999/02/22-rdf-syntax-ns#"
   xmlns:svg="http://www.w3.org/2000/svg"
   xmlns="http://www.w3.org/2000/svg"
   id="svg11"
   version="1.1"
   viewBox="0 0 48 48"
   height="48px"
   width="48px">
  <metadata
     id="metadata15">
    <rdf:RDF>
      <cc:Work
         rdf:about="">
        <dc:format>image/svg+xml</dc:format>
        <dc:type
           rdf:resource="http://purl.org/dc/dcmitype/StillImage" />
        <dc:title>dialog-error</dc:title>
      </cc:Work>
    </rdf:RDF>
  </metadata>
  <!-- Generator: Sketch 41.2 (35397) - http://www.bohemiancoding.com/sketch -->
  <title
     id="title2">dialog-error</title>
  <desc
     id="desc4">Created with Sketch.</desc>
  <defs
     id="defs6" />
  <path
     d="m 25.30092,14.872507 c -0.903103,0.628443 -1.813322,0.993546 -2.73354,1.098134 -0.913913,0.11358 -1.544826,-0.10329 -1.916403,-0.634985 -0.352686,-0.504652 -0.332487,-1.160284 0.05954,-1.982251 0.392013,-0.821969 1.043839,-1.558159 1.983069,-2.21174 0.903103,-0.628443 1.815614,-1.00948 2.720504,-1.116789 0.920212,-0.10458 1.557867,0.12195 1.929442,0.653639 0.352666,0.504655 0.342151,1.153567 -0.04085,1.969241 -0.382992,0.815683 -1.053508,1.564888 -2.001762,2.224751 z m -0.724156,-0.161508 c 0.224637,-0.156318 0.440408,-0.390311 0.611747,-0.675232 0.168515,-0.262636 0.27337,-0.599206 0.281891,-1.027941 l -0.0129,-0.01862 c 0.02239,-0.411698 -0.09855,-0.816914 -0.373141,-1.209821 -0.239406,-0.342564 -0.49512,-0.536343 -0.771874,-0.627371 -0.26153,-0.09393 -0.514872,-0.0576 -0.793767,0.13647 -0.226164,0.15735 -0.434095,0.398271 -0.611782,0.675228 -0.165098,0.274566 -0.258606,0.600165 -0.281894,1.027939 -0.0083,0.416061 0.129675,0.82169 0.404874,1.215468 0.240092,0.343548 0.503155,0.530839 0.771873,0.627372 0.271834,0.08939 0.496161,0.07063 0.775072,-0.12345 z"
     style="fill:#3b3f45;fill-opacity:1;stroke-width:1"
     id="path2" />
  <path
     id="path858"
     d="M 24,45 C 35.57429,45 45,35.57429 45,24 45,12.42571 35.57429,3 24,3 12.42571,3 3,12.42571 3,24 3,35.57429 12.42571,45 24,45 Z m 0,-4 C 14.58747,41 7,33.41253 7,24 7,14.58747 14.58747,7 24,7 c 9.41253,0 17,7.58747 17,17 0,9.41253 -7.58747,17 -17,17 z"
     style="color:#3b3f45;font-style:normal;font-variant:normal;font-weight:normal;font-stretch:normal;font-size:medium;line-height:normal;font-family:sans-serif;font-variant-ligatures:normal;font-variant-position:normal;font-variant-caps:normal;font-variant-numeric:normal;font-variant-alternates:normal;font-feature-settings:normal;text-indent:0;text-align:start;text-decoration:none;text-decoration-line:none;text-decoration-style:solid;text-decoration-color:#3b3f45;letter-spacing:normal;word-spacing:normal;text-transform:none;writing-mode:lr-tb;direction:ltr;text-orientation:mixed;dominant-baseline:auto;baseline-shift:baseline;text-anchor:start;white-space:normal;shape-padding:0;clip-rule:nonzero;display:inline;overflow:visible;visibility:visible;opacity:1;isolation:auto;mix-blend-mode:normal;color-interpolation:sRGB;color-interpolation-filters:linearRGB;solid-color:#3b3f45;solid-opacity:1;vector-effect:none;fill:#3b3f45;fill-opacity:1;fill-rule:nonzero;stroke:none;stroke-width:3.99999976;stroke-linecap:round;stroke-linejoin:round;stroke-miterlimit:4;stroke-dasharray:none;stroke-dashoffset:0;stroke-opacity:1;color-rendering:auto;image-rendering:auto;shape-rendering:auto;text-rendering:auto;enable-background:accumulate" />
  <path
     style="color:#3b3f45;font-style:normal;font-variant:normal;font-weight:normal;font-stretch:normal;font-size:medium;line-height:normal;font-family:sans-serif;font-variant-ligatures:normal;font-variant-position:normal;font-variant-caps:normal;font-variant-numeric:normal;font-variant-alternates:normal;font-feature-settings:normal;text-indent:0;text-align:start;text-decoration:none;text-decoration-line:none;text-decoration-style:solid;text-decoration-color:#3b3f45;letter-spacing:normal;word-spacing:normal;text-transform:none;writing-mode:lr-tb;direction:ltr;text-orientation:mixed;dominant-baseline:auto;baseline-shift:baseline;text-anchor:start;white-space:normal;shape-padding:0;clip-rule:nonzero;display:inline;overflow:visible;visibility:visible;opacity:1;isolation:auto;mix-blend-mode:normal;color-interpolation:sRGB;color-interpolation-filters:linearRGB;solid-color:#3b3f45;solid-opacity:1;vector-effect:none;fill:#3b3f45;fill-opacity:1;fill-rule:nonzero;stroke:none;stroke-width:4;stroke-linecap:round;stroke-linejoin:round;stroke-miterlimit:4;stroke-dasharray:none;stroke-dashoffset:0;stroke-opacity:1;color-rendering:auto;image-rendering:auto;shape-rendering:auto;text-rendering:auto;enable-background:accumulate"
     d="m 26.475383,20.405753 c 0.02047,-1.396003 -0.109214,-2.532961 -1.505222,-2.512501 -1.367587,0.02002 -3.467276,1.144914 -3.447234,2.512501 l 0.0017,15.487228 c -0.02047,1.396003 0.109214,2.532961 1.505222,2.512501 1.367587,-0.02002 3.467276,-1.144914 3.447234,-2.512501 z"
     id="path1508" />
</svg>
