<?xml version="1.0" encoding="UTF-8" standalone="no"?>
<svg
   xmlns:dc="http://purl.org/dc/elements/1.1/"
   xmlns:cc="http://creativecommons.org/ns#"
   xmlns:rdf="http://www.w3.org/1999/02/22-rdf-syntax-ns#"
   xmlns:svg="http://www.w3.org/2000/svg"
   xmlns="http://www.w3.org/2000/svg"
   id="svg11"
   version="1.1"
   viewBox="0 0 48 48"
   height="48px"
   width="48px">
  <metadata
     id="metadata15">
    <rdf:RDF>
      <cc:Work
         rdf:about="">
        <dc:format>image/svg+xml</dc:format>
        <dc:type
           rdf:resource="http://purl.org/dc/dcmitype/StillImage" />
        <dc:title>dialog-error</dc:title>
      </cc:Work>
    </rdf:RDF>
  </metadata>
  <!-- Generator: Sketch 41.2 (35397) - http://www.bohemiancoding.com/sketch -->
  <title
     id="title2">dialog-error</title>
  <desc
     id="desc4">Created with Sketch.</desc>
  <defs
     id="defs6" />
  <path
     id="path825"
     d="M 24.255672,3.2771048 A 1.9999146,2.0004853 0 0 0 22.429646,4.2758077 L 11.928973,22.468064 1.4303344,40.658287 a 1.9999146,2.0004853 0 0 0 1.7304555,3.000177 H 24.162134 45.161445 a 1.9999146,2.0004853 0 0 0 1.73249,-3.000177 L 36.393262,22.468064 25.89259,4.2758077 A 1.9999146,2.0004853 0 0 0 24.255672,3.2771048 Z m -0.09354,5.9983191 8.768183,15.1920801 8.768184,15.19208 H 24.162134 6.6257677 l 8.7681833,-15.19208 z"
     style="color:#000000;font-style:normal;font-variant:normal;font-weight:normal;font-stretch:normal;font-size:medium;line-height:normal;font-family:sans-serif;font-variant-ligatures:normal;font-variant-position:normal;font-variant-caps:normal;font-variant-numeric:normal;font-variant-alternates:normal;font-feature-settings:normal;text-indent:0;text-align:start;text-decoration:none;text-decoration-line:none;text-decoration-style:solid;text-decoration-color:#000000;letter-spacing:normal;word-spacing:normal;text-transform:none;writing-mode:lr-tb;direction:ltr;text-orientation:mixed;dominant-baseline:auto;baseline-shift:baseline;text-anchor:start;white-space:normal;shape-padding:0;clip-rule:nonzero;display:inline;overflow:visible;visibility:visible;opacity:1;isolation:auto;mix-blend-mode:normal;color-interpolation:sRGB;color-interpolation-filters:linearRGB;solid-color:#000000;solid-opacity:1;vector-effect:none;fill:#666666;fill-opacity:1;fill-rule:nonzero;stroke:none;stroke-width:3.99999976;stroke-linecap:round;stroke-linejoin:round;stroke-miterlimit:4;stroke-dasharray:none;stroke-dashoffset:0;stroke-opacity:1;color-rendering:auto;image-rendering:auto;shape-rendering:auto;text-rendering:auto;enable-background:accumulate" />
  <g
     id="g1456"
     transform="translate(6.5165414e-4)">
    <path
       id="path2"
       style="fill:#666666;fill-opacity:1;stroke-width:1"
       d="m 22.860562,34.127492 c 0.903103,-0.628443 1.813322,-0.993546 2.73354,-1.098134 0.913913,-0.11358 1.544826,0.10329 1.916403,0.634985 0.352686,0.504652 0.332487,1.160284 -0.05954,1.982251 -0.392013,0.821969 -1.043839,1.558159 -1.983069,2.21174 -0.903103,0.628443 -1.815614,1.00948 -2.720504,1.116789 -0.920212,0.10458 -1.557867,-0.12195 -1.929442,-0.653639 -0.352666,-0.504655 -0.342151,-1.153567 0.04085,-1.969241 0.382992,-0.815683 1.053508,-1.564888 2.001763,-2.224751 z M 23.584718,34.289 c -0.224637,0.156318 -0.440408,0.390311 -0.611747,0.675232 -0.168515,0.262636 -0.27337,0.599206 -0.281891,1.027941 l 0.0129,0.01862 c -0.02239,0.411698 0.09855,0.816914 0.373141,1.209821 0.239406,0.342564 0.49512,0.536343 0.771874,0.627371 0.26153,0.09393 0.514872,0.0576 0.793767,-0.13647 0.226164,-0.15735 0.434095,-0.398271 0.611782,-0.675228 0.165098,-0.274566 0.258606,-0.600165 0.281894,-1.027939 0.0083,-0.416061 -0.129675,-0.82169 -0.404874,-1.215468 -0.240092,-0.343548 -0.503155,-0.530839 -0.771873,-0.627372 -0.271834,-0.08939 -0.496161,-0.07063 -0.775072,0.12345 z" />
    <path
       style="color:#000000;font-style:normal;font-variant:normal;font-weight:normal;font-stretch:normal;font-size:medium;line-height:normal;font-family:sans-serif;font-variant-ligatures:normal;font-variant-position:normal;font-variant-caps:normal;font-variant-numeric:normal;font-variant-alternates:normal;font-feature-settings:normal;text-indent:0;text-align:start;text-decoration:none;text-decoration-line:none;text-decoration-style:solid;text-decoration-color:#000000;letter-spacing:normal;word-spacing:normal;text-transform:none;writing-mode:lr-tb;direction:ltr;text-orientation:mixed;dominant-baseline:auto;baseline-shift:baseline;text-anchor:start;white-space:normal;shape-padding:0;clip-rule:nonzero;display:inline;overflow:visible;visibility:visible;opacity:1;isolation:auto;mix-blend-mode:normal;color-interpolation:sRGB;color-interpolation-filters:linearRGB;solid-color:#000000;solid-opacity:1;vector-effect:none;fill:#666666;fill-opacity:1;fill-rule:nonzero;stroke:none;stroke-width:4;stroke-linecap:round;stroke-linejoin:round;stroke-miterlimit:4;stroke-dasharray:none;stroke-dashoffset:0;stroke-opacity:1;color-rendering:auto;image-rendering:auto;shape-rendering:auto;text-rendering:auto;enable-background:accumulate"
       d="m 24.945063,13.909016 c -1.104573,0.01617 -2.80045,0.924724 -2.784262,2.029297 L 23.17775,30 c -0.0094,1.352322 0.232588,2.028484 0.728814,2.028484 0.496226,0 1.246688,-0.676162 1.237288,-2.028484 l 1.016949,-14.061687 c 0.01653,-1.127524 -0.08821,-2.045822 -1.215738,-2.029297 z"
       id="path833" />
  </g>
</svg>
