<?xml version="1.0" encoding="UTF-8" standalone="no"?>
<svg
   xmlns:dc="http://purl.org/dc/elements/1.1/"
   xmlns:cc="http://creativecommons.org/ns#"
   xmlns:rdf="http://www.w3.org/1999/02/22-rdf-syntax-ns#"
   xmlns:svg="http://www.w3.org/2000/svg"
   xmlns="http://www.w3.org/2000/svg"
   id="svg13"
   version="1.1"
   viewBox="0 0 48 48"
   height="48px"
   width="48px">
  <metadata
     id="metadata17">
    <rdf:RDF>
      <cc:Work
         rdf:about="">
        <dc:format>image/svg+xml</dc:format>
        <dc:type
           rdf:resource="http://purl.org/dc/dcmitype/StillImage" />
        <dc:title>dialog-question</dc:title>
      </cc:Work>
    </rdf:RDF>
  </metadata>
  <!-- Generator: Sketch 41.2 (35397) - http://www.bohemiancoding.com/sketch -->
  <title
     id="title2">dialog-question</title>
  <desc
     id="desc4">Created with Sketch.</desc>
  <defs
     id="defs6" />
  <polygon
     points="0,0 48,0 48,48 0,48 "
     id="Shape"
     style="fill:none;fill-rule:evenodd;stroke:none;stroke-width:1" />
  <g
     style="stroke-width:1.30283916"
     transform="matrix(0.76755448,0,0,0.76755448,5.5787179,5.5496368)"
     id="g834">
    <path
       style="color:#000000;font-style:normal;font-variant:normal;font-weight:normal;font-stretch:normal;font-size:medium;line-height:normal;font-family:sans-serif;font-variant-ligatures:normal;font-variant-position:normal;font-variant-caps:normal;font-variant-numeric:normal;font-variant-alternates:normal;font-feature-settings:normal;text-indent:0;text-align:start;text-decoration:none;text-decoration-line:none;text-decoration-style:solid;text-decoration-color:#000000;letter-spacing:normal;word-spacing:normal;text-transform:none;writing-mode:lr-tb;direction:ltr;text-orientation:mixed;dominant-baseline:auto;baseline-shift:baseline;text-anchor:start;white-space:normal;shape-padding:0;clip-rule:nonzero;display:inline;overflow:visible;visibility:visible;opacity:1;isolation:auto;mix-blend-mode:normal;color-interpolation:sRGB;color-interpolation-filters:linearRGB;solid-color:#000000;solid-opacity:1;vector-effect:none;fill:#666666;fill-opacity:1;fill-rule:nonzero;stroke:none;stroke-width:0.65141958;stroke-linecap:butt;stroke-linejoin:miter;stroke-miterlimit:4;stroke-dasharray:none;stroke-dashoffset:0;stroke-opacity:1;color-rendering:auto;image-rendering:auto;shape-rendering:auto;text-rendering:auto;enable-background:accumulate"
       d="m 23.164062,3.75 c -0.641269,0 -1.349102,0.052739 -2.125,0.1582031 l -0.0059,0.00195 -1.162109,0.1972657 -0.0098,0.00195 c -1.395934,0.3478813 -2.572894,0.9961018 -3.511719,1.9394531 -6.99e-4,6.774e-4 -0.0013,0.00128 -0.002,0.00195 -6.47e-4,6.509e-4 -0.0013,0.0013 -0.002,0.00195 -0.97769,0.9493633 -1.484346,2.0793941 -1.484375,3.3417968 2.4e-5,1.5370033 0.731112,2.8968073 2.132813,4.0253913 1.408303,1.133846 3.214286,1.709729 5.382812,1.736328 h 0.0039 l 1.220703,-0.03906 0.01172,-0.002 c 1.502923,-0.187281 2.724889,-0.701844 3.640625,-1.550781 h 0.002 c 0.875064,-0.817774 1.333994,-1.78111 1.333985,-2.841797 9e-6,-0.6719 -0.190729,-1.3089162 -0.5625,-1.8925784 C 27.663998,8.2595995 27.240471,7.8031718 26.755859,7.46875 l -0.0078,-0.00586 -0.0078,-0.00391 C 26.244697,7.1678855 25.800911,6.9418306 25.402344,6.7792969 l -0.0039,-0.00195 -0.0039,-0.00195 c -0.426809,-0.1595497 -0.690928,-0.2500015 -0.923828,-0.25 -0.211655,-1.1e-6 -0.410422,0.049888 -0.568359,0.1679688 -0.08966,0.067071 -0.165705,0.1423006 -0.216797,0.2441406 -0.04391,0.087535 -0.04357,0.1983714 -0.02344,0.2988281 0.01366,0.204634 0.123655,0.394909 0.292969,0.5214844 l 0.02734,0.021484 0.0332,0.011719 c 0.795922,0.3038504 1.376945,0.6629594 1.75,1.0605469 0.373055,0.3975875 0.546881,0.8248343 0.546875,1.3242183 1.1e-5,0.566786 -0.27434,1.055864 -0.894531,1.519531 -0.646708,0.457728 -1.517621,0.72073 -2.63086,0.771485 l -1.166015,-0.03906 c -1.351922,-0.17795 -2.409405,-0.639 -3.201172,-1.378906 l -0.0039,-0.002 -0.0039,-0.0039 C 17.580464,10.32166 17.191444,9.5412302 17.191423,8.652312 c 2e-5,-0.7186576 0.263523,-1.3517607 0.820313,-1.9394532 0.562931,-0.5941404 1.233578,-0.997613 2.029297,-1.2207031 l 1.126953,-0.2285156 0.0059,-0.00195 c 0.646159,-0.075494 1.309143,-0.1132813 1.990234,-0.1132813 1.874649,0 3.602013,0.4701212 5.203126,1.4121094 1.560835,0.9386005 2.285162,1.9850692 2.285156,3.1855469 7e-6,0.8053909 -0.136211,1.5696749 -0.404297,2.2968749 -2.21e-4,6e-4 2.21e-4,0.0014 0,0.002 -0.302277,0.75072 -0.774445,1.522761 -1.421875,2.3125 h -0.002 v 0.002 c -0.659465,0.830366 -1.231776,1.503728 -1.712891,2.017578 -0.482921,0.515776 -1.19518,1.230032 -2.134766,2.140625 l -0.884765,0.81836 -0.002,0.002 c -1.61269,1.520213 -2.843552,2.911957 -3.695313,4.185547 -0.895297,1.28659 -1.349589,2.683448 -1.349609,4.166015 2e-5,1.095335 0.346411,2.292087 1.021484,3.59375 0.669086,1.289991 1.375466,2.337127 2.126953,3.140625 0.371316,0.409771 0.686801,0.719583 0.957032,0.935547 0.27023,0.215964 0.484019,0.359344 0.74414,0.359375 h 0.002 c 0.135298,-4.3e-5 0.22625,-0.04593 0.345704,-0.105469 0.119453,-0.05954 0.257737,-0.142231 0.419921,-0.25 l 0.226563,-0.15039 -2.310547,-2.90625 -0.0039,-0.0039 C 22.131911,31.717042 21.850425,31.235922 21.726579,30.888791 21.602508,30.5409 21.531285,30.02966 21.531267,29.36926 c 1.7e-5,-1.229216 0.350137,-2.402897 1.060547,-3.541016 v -0.002 l 0.002,-0.0039 c 0.681727,-1.146763 1.660328,-2.353758 2.935547,-3.617188 l 0.0039,-0.0039 c 7.53e-4,-7.45e-4 0.0012,-0.0012 0.002,-0.002 l 0.892578,-0.824219 0.0078,-0.0078 c 0.0165,-0.0185 0.137153,-0.143826 0.328125,-0.332032 0.190269,-0.187513 0.458206,-0.450346 0.804687,-0.787109 l 0.0039,-0.002 c 0.694108,-0.648671 1.112877,-1.039963 1.251953,-1.169922 l 0.01367,-0.01172 0.0098,-0.01367 c 0.07743,-0.09648 0.437926,-0.47801 1.029297,-1.076172 l 0.002,-0.002 c 0.561855,-0.577582 0.931265,-0.992554 1.126953,-1.285156 l 0.002,-0.0059 0.0039,-0.0059 c 0.129569,-0.217953 0.390092,-0.594853 0.771484,-1.113281 l 0.0039,-0.0039 0.002,-0.0059 c 0.353633,-0.528771 0.605588,-0.98144 0.75586,-1.373046 l 0.002,-0.0059 c 0.143901,-0.350379 0.285134,-0.772043 0.425781,-1.271484 l 0.002,-0.0078 0.002,-0.0078 c 0.107878,-0.510778 0.162113,-1.010394 0.16211,-1.498047 3e-6,-2.1098812 -0.993183,-3.9417302 -2.919922,-5.4355467 l -0.002,-0.00195 -0.002,-0.00195 C 28.252874,4.4823938 25.892607,3.7499983 23.164062,3.75 Z"
       id="path857" />
    <path
       id="path2"
       style="fill:#666666;fill-opacity:1;stroke-width:1.30283916"
       d="m 25.613852,37.97581 c -1.116564,-0.776983 -2.241926,-1.228383 -3.37965,-1.357691 -1.129927,-0.140429 -1.909965,0.12771 -2.369369,0.78507 -0.436048,0.623935 -0.411076,1.434533 0.0736,2.450784 0.484671,1.016253 1.290565,1.92645 2.451794,2.734515 1.116564,0.776984 2.24476,1.248084 3.363533,1.380757 1.137716,0.129294 1.926089,-0.15078 2.385491,-0.808135 0.436024,-0.623938 0.423023,-1.426229 -0.05049,-2.434698 -0.473517,-1.008482 -1.302518,-1.934771 -2.474906,-2.750602 z m -0.895319,0.199683 c 0.277733,0.193266 0.544503,0.482567 0.75634,0.834832 0.208347,0.324715 0.337985,0.740837 0.348521,1.270909 l -0.01604,0.02302 c 0.02769,0.509009 -0.121839,1.010004 -0.461339,1.49578 -0.295992,0.423533 -0.612148,0.663114 -0.954316,0.775658 -0.323347,0.116139 -0.63657,0.07122 -0.981385,-0.16872 -0.27962,-0.194542 -0.536699,-0.492407 -0.756385,-0.834826 -0.20412,-0.339463 -0.319732,-0.742023 -0.348524,-1.270908 -0.01021,-0.514402 0.160331,-1.015905 0.500572,-1.502759 0.296841,-0.424751 0.622083,-0.656311 0.954316,-0.775659 0.336086,-0.110516 0.613434,-0.08733 0.958271,0.152636 z" />
  </g>
  <path
     style="color:#000000;font-style:normal;font-variant:normal;font-weight:normal;font-stretch:normal;font-size:medium;line-height:normal;font-family:sans-serif;font-variant-ligatures:normal;font-variant-position:normal;font-variant-caps:normal;font-variant-numeric:normal;font-variant-alternates:normal;font-feature-settings:normal;text-indent:0;text-align:start;text-decoration:none;text-decoration-line:none;text-decoration-style:solid;text-decoration-color:#000000;letter-spacing:normal;word-spacing:normal;text-transform:none;writing-mode:lr-tb;direction:ltr;text-orientation:mixed;dominant-baseline:auto;baseline-shift:baseline;text-anchor:start;white-space:normal;shape-padding:0;clip-rule:nonzero;display:inline;overflow:visible;visibility:visible;opacity:1;isolation:auto;mix-blend-mode:normal;color-interpolation:sRGB;color-interpolation-filters:linearRGB;solid-color:#000000;solid-opacity:1;vector-effect:none;fill:#666666;fill-opacity:1;fill-rule:nonzero;stroke:none;stroke-width:3.99999976;stroke-linecap:round;stroke-linejoin:round;stroke-miterlimit:4;stroke-dasharray:none;stroke-dashoffset:0;stroke-opacity:1;color-rendering:auto;image-rendering:auto;shape-rendering:auto;text-rendering:auto;enable-background:accumulate"
     d="M 24,3 C 12.42571,3 3,12.42571 3,24 3,35.57429 12.42571,45 24,45 35.57429,45 45,35.57429 45,24 45,12.42571 35.57429,3 24,3 Z m 0,4 c 9.41253,0 17,7.58747 17,17 0,9.41253 -7.58747,17 -17,17 C 14.58747,41 7,33.41253 7,24 7,14.58747 14.58747,7 24,7 Z"
     id="path858" />
</svg>
