<?xml version="1.0" encoding="UTF-8" standalone="no"?>
<svg
   xmlns:dc="http://purl.org/dc/elements/1.1/"
   xmlns:cc="http://creativecommons.org/ns#"
   xmlns:rdf="http://www.w3.org/1999/02/22-rdf-syntax-ns#"
   xmlns:svg="http://www.w3.org/2000/svg"
   xmlns="http://www.w3.org/2000/svg"
   width="24px"
   height="24px"
   viewBox="0 0 24 24"
   version="1.1"
   id="svg12">
  <metadata
     id="metadata16">
    <rdf:RDF>
      <cc:Work
         rdf:about="">
        <dc:format>image/svg+xml</dc:format>
        <dc:type
           rdf:resource="http://purl.org/dc/dcmitype/StillImage" />
        <dc:title>document-new</dc:title>
      </cc:Work>
    </rdf:RDF>
  </metadata>
  <!-- Generator: Sketch 41.2 (35397) - http://www.bohemiancoding.com/sketch -->
  <title
     id="title2">document-new</title>
  <desc
     id="desc4">Created with Sketch.</desc>
  <defs
     id="defs6" />
  <g
     id="Derived-24"
     transform="translate(2,-2)"
     style="fill:none;fill-rule:evenodd;stroke:none;stroke-width:1">
    <g
       id="document-new"
       style="fill:#3b3f45" />
  </g>
  <path
     id="path844"
     d="M 4.1640625 1.2050781 C 3.0590625 1.2050781 2.0306138 2.1081659 2.1640625 3.2050781 L 2.1640625 19.644531 L 4.1640625 19.644531 L 20.154297 19.869141 C 21.259297 19.869141 22.341043 18.958247 22.154297 17.869141 L 22.154297 4.2050781 L 19.154297 1.2050781 L 4.1640625 1.2050781 z M 4.1640625 3.2050781 L 6.1640625 3.2050781 L 6.1640625 7.2050781 L 16.023438 7.2050781 C 17.128438 7.2050781 18.023438 6.3100781 18.023438 5.2050781 L 18.023438 3.2050781 L 18.314453 3.2050781 L 20.154297 5.046875 L 20.154297 17.869141 L 4.1660156 17.869141 L 4.1640625 3.2050781 z M 8.1640625 3.2050781 L 16.023438 3.2050781 L 16.023438 5.2050781 L 8.1640625 5.2050781 L 8.1640625 3.2050781 z "
     style="fill:#3b3f45;stroke-width:1.50800002" />
  <path
     id="path862"
     d="m 13.416598,10.025 c -1.21704,0 -2.354836,0.44679 -3.416016,1.337891 -1.0611799,0.8911 -1.5918069,1.848276 -1.5917969,2.873046 0,0.62377 0.229364,1.125187 0.689454,1.503907 0.4601,0.37872 1.0606439,0.568359 1.8027339,0.568359 1.21702,0 2.356779,-0.444838 3.417969,-1.335938 1.06119,-0.8911 1.591797,-1.850229 1.591797,-2.875 0,-0.62377 -0.229354,-1.125196 -0.689454,-1.503906 C 14.761195,10.214629 14.158658,10.025 13.416598,10.025 Z m -1.255859,1.195312 c 0.06631,0.0081 0.134239,0.02553 0.205078,0.04883 0.280104,0.100623 0.554422,0.296191 0.804687,0.654296 0.28686,0.410463 0.430575,0.831934 0.421875,1.265625 -0.02427,0.4459 -0.120875,0.786066 -0.292969,1.072266 -0.185216,0.288693 -0.402923,0.539107 -0.638671,0.703125 -0.290713,0.202292 -0.55356,0.240488 -0.826172,0.142578 -0.288481,-0.09489 -0.555138,-0.297218 -0.804688,-0.654297 -0.286227,-0.409556 -0.412012,-0.830622 -0.388672,-1.259765 l -0.01367,-0.01953 c 0.0089,-0.446901 0.117314,-0.7985 0.292969,-1.072265 0.1786,-0.296994 0.404516,-0.540183 0.638672,-0.703125 0.218047,-0.151726 0.40263,-0.202061 0.601563,-0.177735 z"
     style="fill:#3b3f45" />
</svg>
