<svg xmlns="http://www.w3.org/2000/svg" xmlns:svg="http://www.w3.org/2000/svg" id="svg2" width="18" height="24" version="1.1"><metadata id="metadata14"/><path id="path8" fill="#3b3f45" stroke-width="2" d="m 2.21894,4.000076 c -0.6876,0.1305 -1.231079,0.80009 -1.218749,1.49999 l 0,14.99999 c 7.5e-5,0.7854 0.714629,1.49985 1.499998,1.5 l 12.999991,0 c 0.78537,-1.5e-4 1.499924,-0.7146 1.499999,-1.5 l 0,-9.15629 c 0.009,-0.39615 -0.14625,-0.7935 -0.421875,-1.0782 L 11.23456,4.421876 c -0.284685,-0.27555 -0.682049,-0.43095 -1.078124,-0.4218 -3.299861,0 -4.659835,0 -7.937496,0 z m 1.781248,2.99999 5.999603,0 0,3.9999 4.000391,0 0,8.00009 -9.999994,0 z"/></svg>