<?xml version="1.0" encoding="UTF-8" standalone="no"?>
<svg
   xmlns:dc="http://purl.org/dc/elements/1.1/"
   xmlns:cc="http://creativecommons.org/ns#"
   xmlns:rdf="http://www.w3.org/1999/02/22-rdf-syntax-ns#"
   xmlns:svg="http://www.w3.org/2000/svg"
   xmlns="http://www.w3.org/2000/svg"
   id="svg12"
   version="1.1"
   viewBox="0 0 24 24"
   height="24px"
   width="24px">
  <metadata
     id="metadata16">
    <rdf:RDF>
      <cc:Work
         rdf:about="">
        <dc:format>image/svg+xml</dc:format>
        <dc:type
           rdf:resource="http://purl.org/dc/dcmitype/StillImage" />
        <dc:title>document-new</dc:title>
      </cc:Work>
    </rdf:RDF>
  </metadata>
  <!-- Generator: Sketch 41.2 (35397) - http://www.bohemiancoding.com/sketch -->
  <title
     id="title2">document-new</title>
  <desc
     id="desc4">Created with Sketch.</desc>
  <defs
     id="defs6" />
  <g
     style="fill:none;fill-rule:evenodd;stroke:none;stroke-width:1"
     transform="translate(2,-2)"
     id="Derived-24">
    <g
       style="fill:#3b3f45"
       id="document-new" />
  </g>
  <path
     style="fill:#3b3f45;stroke-width:1.50800002"
     d="m 4.1640625,1.2050781 c -1.105,0 -2.1334487,0.9030878 -2,2 V 19.644531 h 2 l 15.9902345,0.22461 c 1.105,0 2.186746,-0.910894 2,-2 V 4.2050781 l -3,-3 z m 0,2 h 2 v 4 h 9.8593755 c 1.105,0 2,-0.895 2,-2 v -2 h 0.291015 L 20.154297,5.046875 V 17.869141 H 4.1660156 Z"
     id="path844" />
  <path
     style="fill:#3b3f45"
     d="m 13.416598,10.025 c -1.21704,0 -2.354836,0.44679 -3.416016,1.337891 -1.0611799,0.8911 -1.5918069,1.848276 -1.5917969,2.873046 0,0.62377 0.229364,1.125187 0.689454,1.503907 0.4601,0.37872 1.0606439,0.568359 1.8027339,0.568359 1.21702,0 2.356779,-0.444838 3.417969,-1.335938 1.06119,-0.8911 1.591797,-1.850229 1.591797,-2.875 0,-0.62377 -0.229354,-1.125196 -0.689454,-1.503906 C 14.761195,10.214629 14.158658,10.025 13.416598,10.025 Z m -1.255859,1.195312 c 0.06631,0.0081 0.134239,0.02553 0.205078,0.04883 0.280104,0.100623 0.554422,0.296191 0.804687,0.654296 0.28686,0.410463 0.430575,0.831934 0.421875,1.265625 -0.02427,0.4459 -0.120875,0.786066 -0.292969,1.072266 -0.185216,0.288693 -0.402923,0.539107 -0.638671,0.703125 -0.290713,0.202292 -0.55356,0.240488 -0.826172,0.142578 -0.288481,-0.09489 -0.555138,-0.297218 -0.804688,-0.654297 -0.286227,-0.409556 -0.412012,-0.830622 -0.388672,-1.259765 l -0.01367,-0.01953 c 0.0089,-0.446901 0.117314,-0.7985 0.292969,-1.072265 0.1786,-0.296994 0.404516,-0.540183 0.638672,-0.703125 0.218047,-0.151726 0.40263,-0.202061 0.601563,-0.177735 z"
     id="path862" />
</svg>
