<svg width="31" height="31" viewBox="0 0 31 31" fill="none" xmlns="http://www.w3.org/2000/svg">
<path d="M14 18H11L15.5 12.5L20 18H17V25.5C17 26.3284 16.3284 27 15.5 27C14.6716 27 14 26.3284 14 25.5V18Z" fill="#3B3F45"/>
<path d="M21.7354 22.9951L21.5 23H19.5C19.2239 23 19 22.7761 19 22.5V20.5C19 20.2239 19.2239 20 19.5 20H21.5C21.5742 20 21.6475 19.9971 21.7207 19.9902L21.8926 19.999L22 20C24.209 20 26 18.209 26 16C26 13.791 24.209 12 22 12C19.8753 12 19.2554 12.7524 19.0745 12.6586C19 12.6199 19 12.4376 19 12C19 9.23828 16.7617 7 14 7C11.2383 7 9 9.23828 9 12C9 13.4667 9.4639 13.9065 9.39582 14.0162C9.34598 14.0966 9.01098 14 8 14C6.34277 14 5 15.3428 5 17C5 18.6572 6.34277 20 8 20L8.15918 19.9961L8.26172 19.9883C8.33984 19.9961 8.41992 20 8.5 20H11.5C11.7761 20 12 20.2239 12 20.5V22.5C12 22.7761 11.7761 23 11.5 23H8.5L8.25586 22.9951L8 23C4.68652 23 2 20.3135 2 17C2 14.377 3.68262 12.1475 6.02734 11.332C6.36719 7.22656 9.80664 4 14 4C17.3662 4 20.2471 6.0791 21.4277 9.02344C21.6162 9.00781 21.8076 9 22 9C25.8662 9 29 12.1338 29 16C29 19.8662 25.8662 23 22 23L21.7354 22.9951Z" fill="#3B3F45"/>
</svg>
