<?xml version="1.0" encoding="UTF-8" standalone="no"?>
<svg
   xmlns:dc="http://purl.org/dc/elements/1.1/"
   xmlns:cc="http://creativecommons.org/ns#"
   xmlns:rdf="http://www.w3.org/1999/02/22-rdf-syntax-ns#"
   xmlns:svg="http://www.w3.org/2000/svg"
   xmlns="http://www.w3.org/2000/svg"
   width="24px"
   height="24px"
   viewBox="0 0 24 24"
   version="1.1"
   id="svg12">
  <metadata
     id="metadata16">
    <rdf:RDF>
      <cc:Work
         rdf:about="">
        <dc:format>image/svg+xml</dc:format>
        <dc:type
           rdf:resource="http://purl.org/dc/dcmitype/StillImage" />
        <dc:title>document-new</dc:title>
      </cc:Work>
    </rdf:RDF>
  </metadata>
  <!-- Generator: Sketch 41.2 (35397) - http://www.bohemiancoding.com/sketch -->
  <title
     id="title2">document-new</title>
  <desc
     id="desc4">Created with Sketch.</desc>
  <defs
     id="defs6" />
  <g
     id="Derived-24"
     transform="translate(2,-2)"
     style="fill:none;fill-rule:evenodd;stroke:none;stroke-width:1">
    <g
       id="document-new"
       style="fill:#3b3f45" />
  </g>
  <g
     transform="translate(-334.9903,-244.14142)"
     id="g6">
    <path
       d="m 340.54626,261.85913 c -1.21704,0 -2.35613,0.44556 -3.41731,1.33666 -1.06118,0.8911 -1.59177,1.84904 -1.59176,2.87381 0,0.62377 0.23004,1.12501 0.69013,1.50373 0.4601,0.37872 1.06118,0.56809 1.80327,0.56809 1.21702,0 2.35609,-0.44556 3.41728,-1.33666 1.06119,-0.8911 1.59178,-1.84904 1.59178,-2.87381 0,-0.62377 -0.23004,-1.12502 -0.69014,-1.50373 -0.46009,-0.37873 -1.06119,-0.56809 -1.80325,-0.56809"
       style="fill:#3b3f45"
       id="path2" />
    <path
       id="path4"
       style="fill:#3b3f45;stroke-width:1.50800002"
       d="m 343.00022,263.78601 h -2 l 4.6e-4,-17.64496 c 0,0 0.99967,-1.00939 1.99462,-0.99963 h 7.995 l 6,6 v 11 c 0,1.105 -0.895,2 -2,2 v -2 -10.17157 l -4.82843,-4.82843 h -7.16156 z" />
    <path
       id="path4-6"
       style="fill:#3b3f45;stroke-width:1.50800002"
       d="m 349.9903,260.14125 c 0,1.105 -0.895,2.00017 -2,2.00017 v -2.00017 l -5.3e-4,-5.97483 h 1.99948 z" />
    <g
       id="g845"
       transform="translate(0.03779,6.8474)">
      <path
         d="m 344.95413,250.31678 h 7.99517 v 2 h -7.99016 z"
         style="fill:#3b3f45;stroke-width:1.50800002"
         id="path4-3" />
    </g>
  </g>
</svg>
