<?xml version="1.0" encoding="UTF-8" standalone="no"?>
<svg
   xmlns:dc="http://purl.org/dc/elements/1.1/"
   xmlns:cc="http://creativecommons.org/ns#"
   xmlns:rdf="http://www.w3.org/1999/02/22-rdf-syntax-ns#"
   xmlns:svg="http://www.w3.org/2000/svg"
   xmlns="http://www.w3.org/2000/svg"
   width="24px"
   height="24px"
   viewBox="0 0 24 24"
   version="1.1"
   id="svg12">
  <metadata
     id="metadata16">
    <rdf:RDF>
      <cc:Work
         rdf:about="">
        <dc:format>image/svg+xml</dc:format>
        <dc:type
           rdf:resource="http://purl.org/dc/dcmitype/StillImage" />
        <dc:title>document-new</dc:title>
      </cc:Work>
    </rdf:RDF>
  </metadata>
  <!-- Generator: Sketch 41.2 (35397) - http://www.bohemiancoding.com/sketch -->
  <title
     id="title2">document-new</title>
  <desc
     id="desc4">Created with Sketch.</desc>
  <defs
     id="defs6" />
  <g
     id="Derived-24"
     transform="translate(2,-2)"
     style="fill:none;fill-rule:evenodd;stroke:none;stroke-width:1">
    <g
       id="document-new"
       style="fill:#3b3f45" />
  </g>
  <path
     id="path845"
     d="m 4.0097656,6 c -1.105,0 -2,0.895 -2,2 v 12 h 2 4 v -2 h -4 V 8 L 20,7.9355469 V 18 h -4 v 2 h 4 c 1.105,0 2,-0.895 2,-2 V 6 Z"
     style="fill:#3b3f45;fill-opacity:1;stroke-width:1.50800002" />
  <path
     style="fill:#3b3f45;fill-opacity:1;stroke-width:1.50800002"
     d="M 18,7 V 1 H 8.0097656 c -1.105,0 -2,0.895 -2,2 v 4 h 2 V 3 L 16,2.9355469 V 7 Z"
     id="path837" />
  <path
     style="fill:#3b3f45;fill-opacity:1;stroke-width:1.50800002"
     d="m 8.0097656,10 c -1.105,0 -2,0.895 -2,2 v 12 h 2 H 16 c 1.105,0 2,-0.895 2,-2 V 10 Z m 0,2 L 16,11.935547 V 22 H 8.0097656 Z"
     id="path839" />
  <g
     style="stroke-width:1.91363108"
     transform="matrix(0.52256674,0,0,0.52256674,-146.45612,-115.13377)"
     id="g881" />
  <g
     style="fill:none;fill-rule:evenodd;stroke:none;stroke-width:1"
     transform="translate(30.578564,-2.0001407)"
     id="Derived-24-5">
    <g
       style="fill:#3b3f45"
       id="document-new-0" />
  </g>
</svg>
