<?xml version="1.0" encoding="UTF-8" standalone="no"?>
<svg
   xmlns:dc="http://purl.org/dc/elements/1.1/"
   xmlns:cc="http://creativecommons.org/ns#"
   xmlns:rdf="http://www.w3.org/1999/02/22-rdf-syntax-ns#"
   xmlns:svg="http://www.w3.org/2000/svg"
   xmlns="http://www.w3.org/2000/svg"
   width="24px"
   height="24px"
   viewBox="0 0 24 24"
   version="1.1"
   id="svg12">
  <metadata
     id="metadata16">
    <rdf:RDF>
      <cc:Work
         rdf:about="">
        <dc:format>image/svg+xml</dc:format>
        <dc:type
           rdf:resource="http://purl.org/dc/dcmitype/StillImage" />
        <dc:title>document-new</dc:title>
      </cc:Work>
    </rdf:RDF>
  </metadata>
  <!-- Generator: Sketch 41.2 (35397) - http://www.bohemiancoding.com/sketch -->
  <title
     id="title2">document-new</title>
  <desc
     id="desc4">Created with Sketch.</desc>
  <defs
     id="defs6" />
  <g
     id="Derived-24"
     transform="translate(2,-2)"
     style="fill:none;fill-rule:evenodd;stroke:none;stroke-width:1">
    <g
       id="document-new"
       style="fill:#3b3f45" />
  </g>
  <path
     id="path845"
     d="m 4.0097656,5.2050781 c -1.105,0 -2,0.895 -2,2 V 17.869141 h 2 4 v -2 h -4 V 7.2050781 L 20,7.140625 v 8.728516 h -4 v 2 h 4 c 1.105,0 2,-0.895 2,-2 V 5.2050781 Z"
     style="fill:#3b3f45;fill-opacity:1;stroke-width:1.50800002" />
  <path
     style="fill:#3b3f45;fill-opacity:1;stroke-width:1.50800002"
     d="M 18,5.869141 V 1.2050781 H 8.0097656 c -1.105,0 -2,0.895 -2,2 V 5.869141 h 2 V 3.2050781 L 16,3.140625 v 2.728516 z"
     id="path837" />
  <path
     style="fill:#3b3f45;fill-opacity:1;stroke-width:1.50800002"
     d="m 8.0097656,9.205078 c -1.105,0 -2,0.895 -2,2 v 10.664063 h 2 H 16 c 1.105,0 2,-0.895 2,-2 V 9.205078 Z m 0,2 L 16,11.140625 v 8.728516 H 8.0097656 Z"
     id="path839" />
  <g
     style="stroke-width:1.91363108"
     transform="matrix(0.52256674,0,0,0.52256674,-146.45612,-122.69476)"
     id="g881">
    <path
       d="m 304.50658,259.71773 c -1.21704,0 -2.35613,0.44556 -3.41731,1.33666 -1.06118,0.8911 -1.59177,1.84904 -1.59176,2.87381 0,0.62377 0.23004,1.12501 0.69013,1.50373 0.4601,0.37872 1.06118,0.56809 1.80327,0.56809 1.21702,0 2.35609,-0.44556 3.41728,-1.33666 1.06119,-0.8911 1.59178,-1.84904 1.59178,-2.87381 0,-0.62377 -0.23004,-1.12502 -0.69014,-1.50373 -0.46009,-0.37873 -1.06119,-0.56809 -1.80325,-0.56809"
       style="fill:#3b3f45;stroke-width:1.91363108"
       id="path875" />
    <path
       d="m 305.00082,255.12921 c 0,0 0.99961,0.36264 1.99962,0.36264 2.5e-4,0.0105 0,6.29375 0,6.29375 h -2 z"
       style="fill:#3b3f45;stroke-width:2.88575554"
       id="path879" />
  </g>
</svg>
