<?xml version="1.0" encoding="UTF-8" standalone="no"?>
<svg
   xmlns:dc="http://purl.org/dc/elements/1.1/"
   xmlns:cc="http://creativecommons.org/ns#"
   xmlns:rdf="http://www.w3.org/1999/02/22-rdf-syntax-ns#"
   xmlns:svg="http://www.w3.org/2000/svg"
   xmlns="http://www.w3.org/2000/svg"
   id="svg12"
   version="1.1"
   viewBox="0 0 24 24"
   height="24px"
   width="24px">
  <metadata
     id="metadata16">
    <rdf:RDF>
      <cc:Work
         rdf:about="">
        <dc:format>image/svg+xml</dc:format>
        <dc:type
           rdf:resource="http://purl.org/dc/dcmitype/StillImage" />
        <dc:title>document-new</dc:title>
      </cc:Work>
    </rdf:RDF>
  </metadata>
  <!-- Generator: Sketch 41.2 (35397) - http://www.bohemiancoding.com/sketch -->
  <title
     id="title2">document-new</title>
  <desc
     id="desc4">Created with Sketch.</desc>
  <defs
     id="defs6" />
  <g
     style="fill:none;fill-rule:evenodd;stroke:none;stroke-width:1"
     transform="translate(2,-2)"
     id="Derived-24">
    <g
       style="fill:#3b3f45"
       id="document-new" />
  </g>
  <path
     style="fill:#3b3f45;fill-opacity:1;stroke-width:1.50800002"
     d="m 4.0097656,1 c -1.105,0 -1.9993652,0.8950002 -2,2 L 2,20 h 2 15.990234 c 1.105,0 1.999157,-0.895 2,-2 L 22,5 H 18 L 14,1 Z m 0,2 h 9.1621094 l 3.943167,3.9355469 H 20 L 19.990234,18 H 4 Z"
     id="path845" />
  <path
     style="fill:#3b3f45"
     d="m 15.255859,9.804688 c -1.21704,0 -2.354836,0.44679 -3.416016,1.337891 -1.06118,0.8911 -1.591807,1.848276 -1.591797,2.873046 0,0.62377 0.229364,1.125187 0.689454,1.503907 0.4601,0.37872 1.060644,0.568359 1.802734,0.568359 1.21702,0 2.356779,-0.444838 3.417969,-1.335938 1.06119,-0.8911 1.591797,-1.850229 1.591797,-2.875 0,-0.62377 -0.229354,-1.125196 -0.689454,-1.503906 -0.46009,-0.37873 -1.062627,-0.568359 -1.804687,-0.568359 z M 14,11 c 0.06631,0.0081 0.134239,0.02553 0.205078,0.04883 0.280104,0.100623 0.554422,0.296191 0.804687,0.654296 0.28686,0.410463 0.430575,0.831934 0.421875,1.265625 -0.02427,0.4459 -0.120875,0.786066 -0.292969,1.072266 C 14.953455,14.32971 14.735748,14.580124 14.5,14.744142 14.209287,14.946434 13.94644,14.98463 13.673828,14.88672 13.385347,14.79183 13.11869,14.589502 12.86914,14.232423 12.582913,13.822867 12.457128,13.401801 12.480468,12.972658 l -0.01367,-0.01953 c 0.0089,-0.446901 0.117314,-0.7985 0.292969,-1.072265 0.1786,-0.296994 0.404516,-0.540183 0.638672,-0.703125 0.218047,-0.151726 0.40263,-0.202061 0.601563,-0.177735 z"
     id="path862" />
</svg>
