<?xml version="1.0" encoding="UTF-8"?>
<svg width="24px" height="24px" viewBox="0 0 24 24" version="1.1" xmlns="http://www.w3.org/2000/svg" xmlns:xlink="http://www.w3.org/1999/xlink">
    <!-- Generator: Sketch 41.2 (35397) - http://www.bohemiancoding.com/sketch -->
    <title>document-save</title>
    <desc>Created with Sketch.</desc>
    <defs></defs>
    <g id="Derived-24" stroke="none" stroke-width="1" fill="none" fill-rule="evenodd">
        <g id="document-save" fill="#3B3F45">
            <path d="M17,3 L5,3 C3.89,3 3,3.9 3,5 L3,19 C3,20.1 3.89,21 5,21 L19,21 C20.1,21 21,20.1 21,19 L21,7 L17,3 Z M12,19 C10.34,19 9,17.66 9,16 C9,14.34 10.34,13 12,13 C13.66,13 15,14.34 15,16 C15,17.66 13.66,19 12,19 Z M15,9 L5,9 L5,5 L15,5 L15,9 Z" id="Shape"></path>
        </g>
    </g>
</svg>