<?xml version="1.0" encoding="UTF-8" standalone="no"?>
<svg
   xmlns:dc="http://purl.org/dc/elements/1.1/"
   xmlns:cc="http://creativecommons.org/ns#"
   xmlns:rdf="http://www.w3.org/1999/02/22-rdf-syntax-ns#"
   xmlns:svg="http://www.w3.org/2000/svg"
   xmlns="http://www.w3.org/2000/svg"
   style="fill:none"
   id="svg6"
   version="1.1"
   viewBox="0 0 24 24"
   height="24"
   width="24">
  <metadata
     id="metadata12">
    <rdf:RDF>
      <cc:Work
         rdf:about="">
        <dc:format>image/svg+xml</dc:format>
        <dc:type
           rdf:resource="http://purl.org/dc/dcmitype/StillImage" />
        <dc:title></dc:title>
      </cc:Work>
    </rdf:RDF>
  </metadata>
  <defs
     id="defs10" />
  <path
     id="path4"
     d="m 10.965507,1.08233 c -3.09636,0 -5.611327,2.3877768 -6.070845,5.467357 C 3.201283,7.328029 2,9.047986 2,11.082334 c 0,2.752871 2.169653,5.000001 4.82758,5.000001 h 0.0067 l 0.169717,-0.0028 0.161638,0.0028 L 9,16.08233 v -1.999994 l -1.3018036,-0.08233 -0.1562522,-0.0037 -0.1574547,0.0037 h -0.00121 c -1.7058966,-7.02e-4 -3.075774,-1.41987 -3.075774,-3.186868 0,-1.399254 0.8644228,-2.577643 2.0649371,-3.010097 L 6.7510584,7.666109 6.7835092,7.25281 C 6.9666741,4.9611057 8.8119494,3.1646559 11.076846,3.1646559 c 1.818146,0 3.364989,1.1618016 4.000063,2.8022036 l 0.168273,0.4357045 0.453131,-0.0386 c 0.09864,-0.0084 0.199939,-0.01245 0.301687,-0.01245 2.046694,0 3.692367,1.704449 3.692367,3.824243 0,2.119367 -1.645043,3.823559 -3.691164,3.824243 L 15.836537,13.9963 15.686293,14 15,14.08233 v 2 h 1.144649 l 0.15625,-0.0028 0.175107,0.0028 h 0.0068 c 3.039015,0 5.517235,-2.566732 5.517235,-5.714287 0,-3.147556 -2.47822,-5.7142877 -5.517235,-5.7142877 -0.0054,0 -0.01074,0.00138 -0.01616,0.00139 C 15.444785,2.5523625 13.385901,1.08233 10.96553,1.08233 Z"
     style="color:#3b3f45;font-style:normal;font-variant:normal;font-weight:normal;font-stretch:normal;font-size:medium;line-height:normal;font-family:sans-serif;font-variant-ligatures:normal;font-variant-position:normal;font-variant-caps:normal;font-variant-numeric:normal;font-variant-alternates:normal;font-feature-settings:normal;text-indent:0;text-align:start;text-decoration:none;text-decoration-line:none;text-decoration-style:solid;text-decoration-color:#3b3f45;letter-spacing:normal;word-spacing:normal;text-transform:none;writing-mode:lr-tb;direction:ltr;text-orientation:mixed;dominant-baseline:auto;baseline-shift:baseline;text-anchor:start;white-space:normal;shape-padding:0;clip-rule:nonzero;display:inline;overflow:visible;visibility:visible;opacity:1;isolation:auto;mix-blend-mode:normal;color-interpolation:sRGB;color-interpolation-filters:linearRGB;solid-color:#3b3f45;solid-opacity:1;vector-effect:none;fill:#3b3f45;fill-opacity:1;fill-rule:nonzero;stroke:none;stroke-width:1.99999976;stroke-linecap:butt;stroke-linejoin:miter;stroke-miterlimit:4;stroke-dasharray:none;stroke-dashoffset:0;stroke-opacity:1;color-rendering:auto;image-rendering:auto;shape-rendering:auto;text-rendering:auto;enable-background:accumulate" />
  <path
     d="m 13,18.1478 c 0,1.105 -0.895,2 -2,2 v -2 L 11.00026,12 H 8.0300298 L 12,7.1478 15.96998,12 h -2.97024 z"
     style="fill:#3b3f45;stroke-width:1.50800002"
     id="path4-6" />
</svg>
