<?xml version="1.0" encoding="UTF-8" standalone="no"?>
<!-- Created with Inkscape (http://www.inkscape.org/) -->

<svg
   xmlns:dc="http://purl.org/dc/elements/1.1/"
   xmlns:cc="http://creativecommons.org/ns#"
   xmlns:rdf="http://www.w3.org/1999/02/22-rdf-syntax-ns#"
   xmlns:svg="http://www.w3.org/2000/svg"
   xmlns="http://www.w3.org/2000/svg"
   xmlns:sodipodi="http://sodipodi.sourceforge.net/DTD/sodipodi-0.dtd"
   xmlns:inkscape="http://www.inkscape.org/namespaces/inkscape"
   id="svg2"
   version="1.1"
   inkscape:version="0.47 r22583"
   width="20"
   height="24"
   sodipodi:docname="dotdot.svg">
  <sodipodi:namedview
     pagecolor="#ffffff"
     bordercolor="#666666"
     borderopacity="1"
     objecttolerance="10"
     gridtolerance="10"
     guidetolerance="10"
     inkscape:pageopacity="0"
     inkscape:pageshadow="2"
     inkscape:window-width="756"
     inkscape:window-height="482"
     id="namedview4"
     showgrid="false"
     inkscape:zoom="9.8333333"
     inkscape:cx="31.152542"
     inkscape:cy="11.649199"
     inkscape:window-x="857"
     inkscape:window-y="119"
     inkscape:window-maximized="0"
     inkscape:current-layer="svg2" />
  <metadata
     id="metadata8">
    <rdf:RDF>
      <cc:Work
         rdf:about="">
        <dc:format>image/svg+xml</dc:format>
        <dc:type
           rdf:resource="http://purl.org/dc/dcmitype/StillImage" />
        <dc:title />
      </cc:Work>
    </rdf:RDF>
  </metadata>
  <defs
     id="defs6">
    <inkscape:perspective
       id="perspective10"
       inkscape:persp3d-origin="0.5 : 0.33333333 : 1"
       inkscape:vp_z="1 : 0.5 : 1"
       inkscape:vp_y="0 : 1000 : 0"
       inkscape:vp_x="0 : 0.5 : 1"
       sodipodi:type="inkscape:persp3d" />
  </defs>
  <g
     style="font-size:20px;font-style:normal;font-variant:normal;font-weight:normal;font-stretch:normal;text-align:start;line-height:125%;writing-mode:lr-tb;text-anchor:start;fill:#000000;fill-opacity:1;stroke:none;font-family:MScore1;-inkscape-font-specification:MScore1"
     id="text2816">
    <path
       d="m 10.811526,19.452542 c -0.213339,-0.226665 -0.320005,-0.493331 -0.32,-0.8 -5e-6,-0.306664 0.106661,-0.566663 0.32,-0.78 0.226661,-0.226663 0.493327,-0.339996 0.8,-0.34 0.30666,4e-6 0.56666,0.113337 0.78,0.34 0.226659,0.213337 0.339992,0.473336 0.34,0.78 -8e-6,0.306669 -0.113341,0.573335 -0.34,0.8 -0.21334,0.213335 -0.47334,0.320001 -0.78,0.32 -0.306673,10e-7 -0.573339,-0.106665 -0.8,-0.32 m -5.0000003,0 c -0.2133335,-0.226665 -0.32,-0.493331 -0.32,-0.8 0,-0.306664 0.1066665,-0.566663 0.32,-0.78 0.2266661,-0.226663 0.4933325,-0.339996 0.8,-0.34 0.3066652,4e-6 0.5666649,0.113337 0.78,0.34 0.2266645,0.213337 0.3399977,0.473336 0.34,0.78 -2.3e-6,0.306669 -0.1133355,0.573335 -0.34,0.8 -0.2133351,0.213335 -0.4733348,0.320001 -0.78,0.32 -0.3066675,10e-7 -0.5733339,-0.106665 -0.8,-0.32"
       style=""
       id="path2815" />
  </g>
</svg>
