<?xml version="1.0" encoding="UTF-8"?>
<svg width="24px" height="24px" viewBox="0 0 24 24" version="1.1" xmlns="http://www.w3.org/2000/svg" xmlns:xlink="http://www.w3.org/1999/xlink">
    <!-- Generator: Sketch 41.2 (35397) - http://www.bohemiancoding.com/sketch -->
    <title>edit-copy</title>
    <desc>Created with Sketch.</desc>
    <defs></defs>
    <g id="Derived-24" stroke="none" stroke-width="1" fill="none" fill-rule="evenodd">
        <g id="edit-copy" fill="#3B3F45">
            <path d="M16,1 L4,1 C2.9,1 2,1.9 2,3 L2,17 L4,17 L4,3 L16,3 L16,1 Z M19,5 L8,5 C6.9,5 6,5.9 6,7 L6,21 C6,22.1 6.9,23 8,23 L19,23 C20.1,23 21,22.1 21,21 L21,7 C21,5.9 20.1,5 19,5 Z M19,21 L8,21 L8,7 L19,7 L19,21 Z" id="Shape"></path>
        </g>
    </g>
</svg>