<svg xmlns="http://www.w3.org/2000/svg" xmlns:svg="http://www.w3.org/2000/svg" id="svg2" width="16" height="16.016" version="1.1"><metadata id="metadata24"/><g id="g4" transform="translate(-41.0004,-123)"><rect id="rect6" width="6" height="4" x="46" y="123" fill="#3b3f45" rx=".53" ry=".53"/><path id="path8" fill="#3b3f45" stroke-width="2" d="m 43.53125,124 c -0.292435,0 -0.647518,0.036 -1,0.3125 C 42.178768,124.58897 42,125.08125 42,125.4375 l 0,12.03125 c 0,0.384 0.128379,0.81517 0.4375,1.125 0.284782,0.28544 0.678742,0.44852 1.0625,0.4375 l 5.546875,-5e-5 -0.01563,-2.03125 -5.03125,0 0,-11 1,0 0,-2 -1.46875,0 z M 53,124 l 0,2 1,0 0,6.0625 2.015625,0 0.01563,-6.59375 c 7.9e-4,-0.33333 -0.150824,-0.82334 -0.4375,-1.09375 C 55.307075,124.10459 54.924184,124 54.625,124 Z"/><path id="path12" fill="#3b3f45" stroke-width="2" d="m 56.016458,133.97513 -5.024812,-0.002 0.03159,5.06494 0.857063,-0.007 c 0.382876,-0.003 0.83411,-0.4532 0.830109,-0.84231 l -0.01378,-1.34034 1.889792,1.9206 c 0.791566,0.80456 1.979015,-0.40224 1.187349,-1.2067 l -1.916603,-1.88741 1.342547,0.0128 c 0.493604,0.005 0.800808,-0.46902 0.805711,-0.85176 z" enable-background="new"/><path id="path12-5" fill="#3b3f45" stroke-width="2" d="m 44.992618,133.08484 5.024806,0.002 -0.03155,-5.00244 -0.857063,0.007 c -0.382875,0.003 -0.834109,0.44762 -0.830111,0.83192 l 0.01379,1.3238 -1.889787,-1.89689 c -0.79157,-0.79464 -1.979017,0.39727 -1.187347,1.19181 l 1.916598,1.86412 -1.34255,-0.0127 c -0.493598,-0.005 -0.800805,0.46323 -0.805703,0.84125 z" enable-background="new"/></g></svg>