<?xml version="1.0" encoding="UTF-8" standalone="no"?>
<svg
   height="24"
   version="1.1"
   width="24"
   id="svg274"
   sodipodi:docname="edit-playback.svg"
   inkscape:version="1.1.2 (0a00cf5339, 2022-02-04)"
   inkscape:export-filename="/home/user/edit-playback.png"
   inkscape:export-xdpi="1800"
   inkscape:export-ydpi="1800"
   xmlns:inkscape="http://www.inkscape.org/namespaces/inkscape"
   xmlns:sodipodi="http://sodipodi.sourceforge.net/DTD/sodipodi-0.dtd"
   xmlns:xlink="http://www.w3.org/1999/xlink"
   xmlns="http://www.w3.org/2000/svg"
   xmlns:svg="http://www.w3.org/2000/svg">
  <defs
     id="defs278">
    <color-profile
       name="Artifex-PS-Gray-Profile"
       xlink:href="file:///usr/share/color/icc/ghostscript/ps_gray.icc"
       id="color-profile44230" />
    <color-profile
       name="Artifex-CMYK-SWOP-Profile"
       xlink:href="file:///usr/share/color/icc/ghostscript/default_cmyk.icc"
       id="color-profile44232" />
  </defs>
  <sodipodi:namedview
     id="namedview276"
     pagecolor="#ffffff"
     bordercolor="#666666"
     borderopacity="1.0"
     inkscape:pageshadow="2"
     inkscape:pageopacity="0.0"
     inkscape:pagecheckerboard="0"
     showgrid="false"
     inkscape:zoom="11.313709"
     inkscape:cx="-7.7781746"
     inkscape:cy="19.489631"
     inkscape:window-width="1920"
     inkscape:window-height="1023"
     inkscape:window-x="1920"
     inkscape:window-y="29"
     inkscape:window-maximized="1"
     inkscape:current-layer="svg274" />
  <path
     style="fill:#3b3f45;stroke-width:0.0533333;fill-opacity:1"
     d="m 0.64385331,23.314157 c 0,-0.04781 2.62036199,-5.904793 2.66130199,-5.948493 0.03747,-0.04 3.153277,2.810367 3.150644,2.882238 -7.63e-4,0.02083 -1.073491,0.601864 -2.38384,1.291197 -1.31035,0.689333 -2.617726,1.377306 -2.90528,1.528828 -0.28755399,0.151522 -0.52282599,0.262325 -0.52282599,0.24623 z M 14.304645,23.298497 c -1.831085,-0.19151 -3.714217,-0.957008 -5.3114487,-2.15912 -0.223996,-0.168584 -0.400233,-0.32616 -0.391637,-0.350168 0.02744,-0.07665 1.02541,-1.223448 1.064672,-1.223448 0.02075,0 0.225201,0.139853 0.4543387,0.310784 1.096373,0.817866 2.468632,1.425614 3.696616,1.63716 0.656134,0.113033 1.714711,0.113651 2.314015,0.0014 1.344049,-0.251852 2.569184,-0.925752 3.72744,-2.050321 0.96809,-0.939934 1.410314,-1.613216 1.746151,-2.658504 0.23504,-0.731555 0.325337,-1.329765 0.328128,-2.173804 0.0049,-1.497487 -0.363988,-2.805646 -1.105551,-3.92 -0.25225,-0.379104 -0.731309,-0.9016827 -1.058664,-1.1548837 l -0.208481,-0.161255 0.465402,-0.675286 c 0.255971,-0.371411 0.479571,-0.67529 0.496888,-0.67529 0.08351,0 0.648334,0.48858 1.025718,0.88726 0.973852,1.028808 1.633631,2.3475747 1.984224,3.9660727 0.106437,0.491361 0.121305,0.710354 0.121305,1.786667 0,1.071442 -0.01509,1.295836 -0.119287,1.773281 -0.411379,1.885089 -1.206292,3.226005 -2.703954,4.561225 -1.298929,1.158042 -2.842134,1.935682 -4.357606,2.195852 -0.601832,0.103319 -1.603994,0.141394 -2.168269,0.08238 z m -0.202971,-3.758375 c -0.462223,-0.08387 -0.982795,-0.252294 -1.484488,-0.480288 -0.358466,-0.162905 -1.193631,-0.661558 -1.461898,-0.872857 l -0.128565,-0.101263 0.500789,-0.646643 c 0.275434,-0.355654 0.518138,-0.646644 0.539343,-0.646644 0.02121,0 0.189704,0.1051 0.374443,0.233554 1.538856,1.070017 3.173116,1.091448 4.441609,0.05825 0.439518,-0.357992 0.532212,-0.472628 0.775009,-0.958466 0.397932,-0.796261 0.522239,-1.664853 0.345529,-2.414356 -0.101518,-0.43058 -0.272241,-0.763482 -0.588626,-1.147791 l -0.253844,-0.308342 0.526403,-0.544756 c 0.289522,-0.299616 0.545206,-0.567591 0.568185,-0.595501 0.05298,-0.06435 0.400077,0.269292 0.718605,0.690746 1.132804,1.498848 1.255105,3.538921 0.319461,5.328844 -0.931345,1.781699 -3.097865,2.785483 -5.191955,2.405517 z m -7.1488917,-2.965665 -1.338427,-1.235231 4.7715767,-5.087824 4.771576,-5.0878227 0.339342,0.307757 c 1.040321,0.943494 2.312026,2.125217 2.315884,2.152021 0.0035,0.0243 -8.7883767,9.4364427 -9.3762127,10.0376997 l -0.145312,0.14863 z M 18.537186,4.4026273 c -0.704,-0.653264 -1.28,-1.21526 -1.28,-1.248879 0,-0.106259 1.037377,-1.236336 1.484238,-1.61687 1.10202,-0.938448 1.935975,-0.986469 2.764734,-0.159202 0.418371,0.417619 0.560716,0.769869 0.497334,1.230711 -0.04628,0.336465 -0.364581,0.992226 -0.697703,1.437379 -0.251429,0.335987 -1.393841,1.547714 -1.457224,1.54564 -0.01726,-5.65e-4 -0.607379,-0.535516 -1.311379,-1.188779 z"
     id="path40098" />
</svg>
