<?xml version="1.0" encoding="UTF-8" standalone="no"?>
<!-- Created with Inkscape (http://www.inkscape.org/) -->

<svg
   xmlns:dc="http://purl.org/dc/elements/1.1/"
   xmlns:cc="http://creativecommons.org/ns#"
   xmlns:rdf="http://www.w3.org/1999/02/22-rdf-syntax-ns#"
   xmlns:svg="http://www.w3.org/2000/svg"
   xmlns="http://www.w3.org/2000/svg"
   xmlns:sodipodi="http://sodipodi.sourceforge.net/DTD/sodipodi-0.dtd"
   xmlns:inkscape="http://www.inkscape.org/namespaces/inkscape"
   id="svg2"
   version="1.1"
   inkscape:version="0.47 r22583"
   width="20"
   height="24"
   sodipodi:docname="flat.svg">
  <sodipodi:namedview
     pagecolor="#ffff9f"
     bordercolor="#666666"
     borderopacity="1"
     objecttolerance="10"
     gridtolerance="10"
     guidetolerance="10"
     inkscape:pageopacity="1"
     inkscape:pageshadow="2"
     inkscape:window-width="756"
     inkscape:window-height="482"
     id="namedview4"
     showgrid="false"
     inkscape:zoom="9.8333333"
     inkscape:cx="13.050847"
     inkscape:cy="11.649199"
     inkscape:window-x="857"
     inkscape:window-y="119"
     inkscape:window-maximized="0"
     inkscape:current-layer="svg2"
     inkscape:snap-grids="true"
     inkscape:snap-to-guides="true" />
  <metadata
     id="metadata8">
    <rdf:RDF>
      <cc:Work
         rdf:about="">
        <dc:format>image/svg+xml</dc:format>
        <dc:type
           rdf:resource="http://purl.org/dc/dcmitype/StillImage" />
        <dc:title />
      </cc:Work>
    </rdf:RDF>
  </metadata>
  <defs
     id="defs6">
    <inkscape:perspective
       id="perspective10"
       inkscape:persp3d-origin="0.5 : 0.33333333 : 1"
       inkscape:vp_z="1 : 0.5 : 1"
       inkscape:vp_y="0 : 1000 : 0"
       inkscape:vp_x="0 : 0.5 : 1"
       sodipodi:type="inkscape:persp3d" />
  </defs>
  <g
     style="font-size:20px;font-style:normal;font-variant:normal;font-weight:normal;font-stretch:normal;text-align:start;line-height:125%;writing-mode:lr-tb;text-anchor:start;fill:#000000;fill-opacity:1;stroke:none;font-family:MScore1;-inkscape-font-specification:MScore1"
     id="text2816">
    <path
       d="m 8.5738984,13.86644 -0.02,1.32 0,0.22 c -6e-7,0.493334 0.026666,0.933334 0.08,1.32 0.3866656,-0.333333 0.6866653,-0.606666 0.9,-0.82 0.2266649,-0.213332 0.439998,-0.499999 0.6399996,-0.86 0.213331,-0.373331 0.319998,-0.739998 0.32,-1.1 -2e-6,-0.359997 -0.08,-0.67333 -0.24,-0.94 -0.146668,-0.266663 -0.3533348,-0.399996 -0.6199996,-0.4 -0.306668,4e-6 -0.5600011,0.126671 -0.76,0.38 -0.1866674,0.240003 -0.2866673,0.533337 -0.3,0.88 m -0.84,3.58 -0.24,-11.9000005 c 0.1733337,-0.1066549 0.3533335,-0.1599882 0.54,-0.16 0.1866664,1.18e-5 0.3666663,0.053345 0.54,0.16 l -0.14,6.9000005 c 0.5333324,-0.453329 1.1399984,-0.679995 1.8199996,-0.68 0.506664,5e-6 0.926664,0.206671 1.26,0.62 0.346663,0.400004 0.519996,0.873337 0.52,1.42 -4e-6,0.373336 -0.10667,0.733335 -0.32,1.08 -0.213336,0.333335 -0.440003,0.600001 -0.68,0.8 -0.226669,0.200001 -0.560002,0.460001 -1,0.78 -0.4266679,0.32 -0.7400009,0.56 -0.9399996,0.72 -0.066668,0.05333 -0.1533343,0.153333 -0.26,0.3 -0.1066674,0.146666 -0.213334,0.259999 -0.32,0.34 -0.093334,0.08 -0.2000003,0.119999 -0.32,0.12 -0.1333334,-10e-7 -0.24,-0.04667 -0.32,-0.14 -0.093333,-0.09333 -0.1399997,-0.213334 -0.14,-0.36"
       style=""
       id="path2814" />
  </g>
</svg>
