<?xml version="1.0" encoding="UTF-8" standalone="no"?>
<!-- Created with Inkscape (http://www.inkscape.org/) -->

<svg
   xmlns:dc="http://purl.org/dc/elements/1.1/"
   xmlns:cc="http://creativecommons.org/ns#"
   xmlns:rdf="http://www.w3.org/1999/02/22-rdf-syntax-ns#"
   xmlns:svg="http://www.w3.org/2000/svg"
   xmlns="http://www.w3.org/2000/svg"
   xmlns:sodipodi="http://sodipodi.sourceforge.net/DTD/sodipodi-0.dtd"
   xmlns:inkscape="http://www.inkscape.org/namespaces/inkscape"
   id="svg2"
   version="1.1"
   inkscape:version="0.47 r22583"
   width="20"
   height="24"
   sodipodi:docname="flatflat.svg">
  <sodipodi:namedview
     pagecolor="#ffffff"
     bordercolor="#666666"
     borderopacity="1"
     objecttolerance="10"
     gridtolerance="10"
     guidetolerance="10"
     inkscape:pageopacity="0"
     inkscape:pageshadow="2"
     inkscape:window-width="756"
     inkscape:window-height="482"
     id="namedview4"
     showgrid="false"
     inkscape:zoom="9.8333333"
     inkscape:cx="31.152542"
     inkscape:cy="11.649199"
     inkscape:window-x="857"
     inkscape:window-y="119"
     inkscape:window-maximized="0"
     inkscape:current-layer="svg2" />
  <metadata
     id="metadata8">
    <rdf:RDF>
      <cc:Work
         rdf:about="">
        <dc:format>image/svg+xml</dc:format>
        <dc:type
           rdf:resource="http://purl.org/dc/dcmitype/StillImage" />
        <dc:title />
      </cc:Work>
    </rdf:RDF>
  </metadata>
  <defs
     id="defs6">
    <inkscape:perspective
       id="perspective10"
       inkscape:persp3d-origin="0.5 : 0.33333333 : 1"
       inkscape:vp_z="1 : 0.5 : 1"
       inkscape:vp_y="0 : 1000 : 0"
       inkscape:vp_x="0 : 0.5 : 1"
       sodipodi:type="inkscape:persp3d" />
  </defs>
  <g
     style="font-size:20px;font-style:normal;font-variant:normal;font-weight:normal;font-stretch:normal;text-align:start;line-height:125%;writing-mode:lr-tb;text-anchor:start;fill:#000000;fill-opacity:1;stroke:none;font-family:MScore;-inkscape-font-specification:MScore"
     id="text2816">
    <path
       d="m 10.41017,12.603729 -0.02,1.32 c -0.01334,0.05333 -0.02,0.126666 -0.02,0.22 -4e-6,0.293332 0.02666,0.733332 0.08,1.32 1.159995,-1.000001 1.739994,-1.926667 1.74,-2.78 -6e-6,-0.373332 -0.06667,-0.686665 -0.2,-0.94 -0.133339,-0.266665 -0.333338,-0.399998 -0.6,-0.4 -0.293338,2e-6 -0.526671,0.126669 -0.7,0.38 -0.173337,0.240001 -0.266671,0.533334 -0.28,0.88 m -0.8600001,3.58 -0.04,-2.12 c -0.2000027,0.266666 -0.5600024,0.626665 -1.08,1.08 -0.5200013,0.453331 -0.8133344,0.713331 -0.88,0.78 -0.026668,0.02666 -0.1266675,0.159997 -0.3,0.4 -0.1600005,0.239997 -0.3200003,0.359997 -0.48,0.36 -0.1333334,-3e-6 -0.2399999,-0.05334 -0.32,-0.16 -0.093333,-0.09334 -0.1399997,-0.20667 -0.14,-0.34 l -0.24,-11.9000001 c 0.1733337,-0.1066574 0.3533335,-0.1599907 0.54,-0.16 0.1866665,9.3e-6 0.3666663,0.053343 0.54,0.16 l -0.14,6.9000001 c 0.3733325,-0.453331 0.8399987,-0.679997 1.4,-0.68 0.3866645,3e-6 0.7333308,0.140003 1.04,0.42 l -0.14,-6.6400001 c 0.1866638,-0.1066574 0.3666636,-0.1599907 0.54,-0.16 0.1866631,9.3e-6 0.3666631,0.053343 0.5400001,0.16 l -0.12,6.9000001 c 0.493329,-0.453331 1.073328,-0.679997 1.74,-0.68 0.519994,3e-6 0.953327,0.200003 1.3,0.6 0.359993,0.400002 0.539993,0.873335 0.54,1.42 -7e-6,0.373334 -0.106674,0.733333 -0.32,1.08 -0.21334,0.346666 -0.440007,0.619999 -0.68,0.82 -0.226673,0.199999 -0.560006,0.459998 -1,0.78 -0.440005,0.319998 -0.753338,0.559998 -0.94,0.72 -0.06667,0.05333 -0.153338,0.146664 -0.26,0.28 -0.09334,0.146664 -0.193337,0.259997 -0.3,0.34 -0.09334,0.09333 -0.200004,0.139997 -0.32,0.14 -0.1333367,-3e-6 -0.24667,-0.05334 -0.3400001,-0.16 -0.093336,-0.09334 -0.140003,-0.20667 -0.14,-0.34 m -2.6,-2.24 0,0.2 c -4e-7,0.319999 0.026666,0.773332 0.08,1.36 0.9466653,-0.893335 1.4199981,-1.833334 1.42,-2.82 -1.9e-6,-0.893332 -0.2200016,-1.339998 -0.66,-1.34 -0.2666676,2e-6 -0.4666674,0.126669 -0.6,0.38 -0.1333338,0.240001 -0.2000004,0.533334 -0.2,0.88 l -0.04,1.34"
       style=""
       id="path2815" />
  </g>
</svg>
