<?xml version="1.0" encoding="UTF-8"?>
<svg width="24px" height="24px" viewBox="0 0 24 24" version="1.1" xmlns="http://www.w3.org/2000/svg" xmlns:xlink="http://www.w3.org/1999/xlink">
    <!-- Generator: Sketch 41.2 (35397) - http://www.bohemiancoding.com/sketch -->
    <title>format-text-superscript</title>
    <desc>Created with Sketch.</desc>
    <defs></defs>
    <g id="Derived-24" stroke="none" stroke-width="1" fill="none" fill-rule="evenodd">
        <g id="format-text-superscript" fill="#3B3F45">
            <path d="M19.9989973,8.37011719 C19.9989973,8.92610955 19.9468378,9.43424249 19.8425173,9.89453125 C19.7381967,10.35482 19.5807151,10.7513004 19.3700679,11.0839844 C19.1594206,11.4166683 18.8956139,11.675292 18.5786399,11.8598633 C18.2616659,12.0444345 17.890531,12.1367187 17.4652242,12.1367187 C17.0880652,12.1367187 16.7620684,12.0558276 16.4872238,11.894043 C16.2123793,11.7322583 15.9746524,11.5055353 15.7740359,11.2138672 C15.7740359,11.2138672 14.9693139,7.15219327 14.9998446,5.26660156 C15.0303752,3.38100986 15.8703313,5.26660156 15.8703313,5.26660156 C16.0629231,5.01139195 16.2886132,4.81429106 16.5474085,4.67529297 C16.8062037,4.53629488 17.1081269,4.46679687 17.4531872,4.46679687 C17.8784941,4.46679687 18.2506321,4.56022042 18.5696122,4.74707031 C18.8885924,4.93392021 19.1544052,5.19368323 19.3670586,5.52636719 C19.5797121,5.85905114 19.7381967,6.25553155 19.8425173,6.71582031 C19.9468378,7.17610907 19.9989973,7.67968477 19.9989973,8.2265625 L19.9989973,8.37011719 Z M18.2596613,8.2265625 C18.2596613,7.93489437 18.2416061,7.65804167 18.2054952,7.39599609 C18.1693842,7.13395051 18.1041848,6.9049489 18.0098951,6.70898438 C17.9156054,6.51301985 17.7882158,6.35807349 17.6277227,6.24414062 C17.4672295,6.13020776 17.2626038,6.07324219 17.0138394,6.07324219 C16.7209394,6.07324219 16.4822094,6.14046157 16.2976422,6.27490234 C16.1130751,6.40934312 15.9706395,6.59960814 15.8703313,6.84570312 L15.8703313,9.76464844 C15.9706395,10.0107434 16.1130751,10.2021478 16.2976422,10.3388672 C16.4822094,10.4755866 16.7249516,10.5439453 17.0258763,10.5439453 C17.2706284,10.5439453 17.4722449,10.4892584 17.6307319,10.3798828 C17.7892189,10.2705073 17.9156054,10.1201181 18.0098951,9.92871094 C18.1041848,9.73730373 18.1693842,9.50830211 18.2054952,9.24169922 C18.2416061,8.97509632 18.2596613,8.68457188 18.2596613,8.37011719 L18.2596613,8.2265625 Z" id="b"></path>
            <path d="M10.5,6 L8.5,6 L4,18 L6,18 L7.12,15 L11.87,15 L13,18 L15,18 L10.5,6 Z M7.88,13 L9.5,8.67 L11.12,13 L7.88,13 L7.88,13 Z" id="Shape"></path>
            <rect id="Rectangle" x="14" y="2" width="2" height="10"></rect>
        </g>
    </g>
</svg>