<?xml version="1.0" encoding="UTF-8"?>
<svg width="24px" height="24px" viewBox="0 0 24 24" version="1.1" xmlns="http://www.w3.org/2000/svg" xmlns:xlink="http://www.w3.org/1999/xlink">
    <!-- Generator: Sketch 41.2 (35397) - http://www.bohemiancoding.com/sketch -->
    <title>format-text-subscript</title>
    <desc>Created with Sketch.</desc>
    <defs></defs>
    <g id="Derived-24" stroke="none" stroke-width="1" fill="none" fill-rule="evenodd">
        <g id="format-text-subscript" fill="#3B3F45">
            <path d="M9.5,6 L7.5,6 L3,18 L5,18 L6.12,15 L10.87,15 L12,18 L14,18 L9.5,6 Z M6.88,13 L8.5,8.67 L10.12,13 L6.88,13 L6.88,13 Z" id="Shape"></path>
            <g id="Group" transform="translate(15.000000, 11.000000)">
                <path d="M5.9989973,6.37011719 C5.9989973,6.92610955 5.94683781,7.43424249 5.84251725,7.89453125 C5.73819669,8.35482001 5.58071514,8.75130042 5.37006786,9.08398437 C5.15942059,9.41666833 4.89561391,9.67529205 4.57863991,9.85986328 C4.26166591,10.0444345 3.89053104,10.1367187 3.46522416,10.1367187 C3.08806522,10.1367187 2.76206837,10.0558276 2.48722383,9.89404297 C2.21237929,9.73225831 1.97465236,9.50553531 1.7740359,9.21386719 C1.7740359,9.21386719 0.969313932,5.15219327 0.999844574,3.26660156 C1.03037522,1.38100986 1.87033132,3.26660156 1.87033132,3.26660156 C2.06292312,3.01139195 2.28861324,2.81429106 2.54740847,2.67529297 C2.80620369,2.53629488 3.10812693,2.46679687 3.45318723,2.46679687 C3.87849411,2.46679687 4.25063205,2.56022042 4.56961221,2.74707031 C4.88859238,2.93392021 5.15440519,3.19368323 5.36705863,3.52636719 C5.57971207,3.85905114 5.73819669,4.25553155 5.84251725,4.71582031 C5.94683781,5.17610907 5.9989973,5.67968477 5.9989973,6.2265625 L5.9989973,6.37011719 Z M4.25966134,6.2265625 C4.25966134,5.93489438 4.24160613,5.65804167 4.20549517,5.39599609 C4.16938421,5.13395051 4.10418484,4.9049489 4.00989511,4.70898438 C3.91560537,4.51301985 3.78821583,4.35807349 3.62772267,4.24414063 C3.46722951,4.13020776 3.26260379,4.07324219 3.01383939,4.07324219 C2.72093937,4.07324219 2.48220937,4.14046157 2.29764223,4.27490234 C2.11307509,4.40934312 1.97063955,4.59960814 1.87033132,4.84570313 L1.87033132,7.76464844 C1.97063955,8.01074342 2.11307509,8.20214775 2.29764223,8.33886719 C2.48220937,8.47558662 2.72495164,8.54394531 3.02587632,8.54394531 C3.27062839,8.54394531 3.4722449,8.48925836 3.6307319,8.37988281 C3.7892189,8.27050727 3.91560537,8.12011814 4.00989511,7.92871094 C4.10418484,7.73730373 4.16938421,7.50830211 4.20549517,7.24169922 C4.24160613,6.97509632 4.25966134,6.68457188 4.25966134,6.37011719 L4.25966134,6.2265625 Z" id="b"></path>
                <rect id="Rectangle" x="0" y="0" width="2" height="10"></rect>
            </g>
        </g>
    </g>
</svg>