<svg xmlns="http://www.w3.org/2000/svg" xmlns:xlink="http://www.w3.org/1999/xlink" width="24" height="24" version="1.1" viewBox="0 0 24 24"><title>format-indent-more</title><desc>Created with Sketch.</desc><g id="Derived-24" fill="none" fill-rule="evenodd" stroke="none" stroke-width="1"><g id="format-indent-more"><g id="ic_format_indent_increase_24px"><path id="Shape" fill="#3B3F45" d="M3,21 L21,21 L21,19 L3,19 L3,21 Z M3,8 L3,16 L7,12 L3,8 Z M11,17 L21,17 L21,15 L11,15 L11,17 Z M3,3 L3,5 L21,5 L21,3 L3,3 Z M11,9 L21,9 L21,7 L11,7 L11,9 Z M11,13 L21,13 L21,11 L11,11 L11,13 Z"/><polygon id="Shape" points="0 0 24 0 24 24 0 24"/></g></g></g></svg>