<svg xmlns="http://www.w3.org/2000/svg" xmlns:xlink="http://www.w3.org/1999/xlink" width="24" height="24" version="1.1" viewBox="0 0 24 24"><title>format-justify-right</title><desc>Created with Sketch.</desc><g id="Derived-24" fill="none" fill-rule="evenodd" stroke="none" stroke-width="1"><g id="format-justify-right"><g id="ic_format_align_right_24px"><path id="Shape" fill="#3B3F45" d="M3,21 L21,21 L21,19 L3,19 L3,21 Z M9,17 L21,17 L21,15 L9,15 L9,17 Z M3,13 L21,13 L21,11 L3,11 L3,13 Z M9,9 L21,9 L21,7 L9,7 L9,9 Z M3,3 L3,5 L21,5 L21,3 L3,3 Z"/><polygon id="Shape" points="0 0 24 0 24 24 0 24"/></g></g></g></svg>