<svg xmlns="http://www.w3.org/2000/svg" xmlns:xlink="http://www.w3.org/1999/xlink" width="24" height="24" version="1.1" viewBox="0 0 24 24"><title>format-justify-left</title><desc>Created with Sketch.</desc><g id="Derived-24" fill="none" fill-rule="evenodd" stroke="none" stroke-width="1"><g id="format-justify-left"><g id="ic_format_align_left_24px"><path id="Shape" fill="#3B3F45" d="M15,15 L3,15 L3,17 L15,17 L15,15 Z M15,7 L3,7 L3,9 L15,9 L15,7 Z M3,13 L21,13 L21,11 L3,11 L3,13 Z M3,21 L21,21 L21,19 L3,19 L3,21 Z M3,3 L3,5 L21,5 L21,3 L3,3 Z"/><polygon id="Shape" points="0 0 24 0 24 24 0 24"/></g></g></g></svg>