<svg xmlns="http://www.w3.org/2000/svg" xmlns:xlink="http://www.w3.org/1999/xlink" width="24" height="24" version="1.1" viewBox="0 0 24 24"><title>format-justify-center</title><desc>Created with Sketch.</desc><g id="Derived-24" fill="none" fill-rule="evenodd" stroke="none" stroke-width="1"><g id="format-justify-center"><g id="ic_format_align_center_24px"><path id="Shape" fill="#3B3F45" d="M7,15 L7,17 L17,17 L17,15 L7,15 Z M3,21 L21,21 L21,19 L3,19 L3,21 Z M3,13 L21,13 L21,11 L3,11 L3,13 Z M7,7 L7,9 L17,9 L17,7 L7,7 Z M3,3 L3,5 L21,5 L21,3 L3,3 Z"/><polygon id="Shape" points="0 0 24 0 24 24 0 24"/></g></g></g></svg>