<?xml version="1.0" encoding="UTF-8" standalone="no"?>
<!-- Created with Inkscape (http://www.inkscape.org/) -->

<svg
   xmlns:dc="http://purl.org/dc/elements/1.1/"
   xmlns:cc="http://creativecommons.org/ns#"
   xmlns:rdf="http://www.w3.org/1999/02/22-rdf-syntax-ns#"
   xmlns:svg="http://www.w3.org/2000/svg"
   xmlns="http://www.w3.org/2000/svg"
   xmlns:sodipodi="http://sodipodi.sourceforge.net/DTD/sodipodi-0.dtd"
   xmlns:inkscape="http://www.inkscape.org/namespaces/inkscape"
   id="svg2"
   version="1.1"
   inkscape:version="0.47 r22583"
   width="128"
   height="128"
   sodipodi:docname="camera3.png">
  <metadata
     id="metadata8">
    <rdf:RDF>
      <cc:Work
         rdf:about="">
        <dc:format>image/svg+xml</dc:format>
        <dc:type
           rdf:resource="http://purl.org/dc/dcmitype/StillImage" />
        <dc:title></dc:title>
      </cc:Work>
    </rdf:RDF>
  </metadata>
  <defs
     id="defs6">
    <inkscape:perspective
       sodipodi:type="inkscape:persp3d"
       inkscape:vp_x="0 : 0.5 : 1"
       inkscape:vp_y="0 : 1000 : 0"
       inkscape:vp_z="1 : 0.5 : 1"
       inkscape:persp3d-origin="0.5 : 0.33333333 : 1"
       id="perspective10" />
  </defs>
  <sodipodi:namedview
     pagecolor="#ffffff"
     bordercolor="#666666"
     borderopacity="1"
     objecttolerance="10"
     gridtolerance="10"
     guidetolerance="10"
     inkscape:pageopacity="0"
     inkscape:pageshadow="2"
     inkscape:window-width="867"
     inkscape:window-height="838"
     id="namedview4"
     showgrid="false"
     inkscape:zoom="1.84375"
     inkscape:cx="78.372881"
     inkscape:cy="58.763412"
     inkscape:window-x="726"
     inkscape:window-y="209"
     inkscape:window-maximized="0"
     inkscape:current-layer="svg2" />
  <path
     style="fill:#000000"
     d="M 49.255324,125.03883 C -2.084116,108.13395 9.496356,33.466085 63.457627,33.466085 c 61.552533,0 63.018953,91.026875 1.5,93.111525 -7.782973,0.26373 -11.264216,-0.0774 -15.702303,-1.53878 z m 26.211903,-9.61058 C 93.489566,109.13539 104.5472,89.523683 100.02519,71.872529 92.521624,42.583233 58.015477,32.515299 37.036574,53.494201 9.294148,81.236628 38.516285,128.33042 75.467227,115.42825 z M 56.451153,105.04088 C 27.750147,95.623777 33.45212,54.46161 63.457627,54.46161 c 33.170505,0 34.643796,49.18685 1.529412,51.06051 -3.316177,0.18764 -7.157325,-0.0289 -8.535886,-0.48124 z M 73.149737,93.134491 c 9.242744,-6.581415 8.023752,-22.804469 -2.073545,-27.59595 -15.435593,-7.324668 -30.674505,10.254447 -20.849925,24.051797 4.674993,6.565422 16.182006,8.344499 22.92347,3.544153 z M 8.858696,121.00982 c -8.86954803,-4.02807 -8.90106903,-4.1736 -8.90106903,-41.094566 0,-41.828559 0.593535,-42.929296 23.17441603,-42.978038 10.174416,-0.02196 10.174416,-0.02196 10.5,-13.952656 0.524076,-22.42354915 1.973964,-23.56930615 29.825584,-23.56930615 27.85162,0 29.301508,1.145757 29.825584,23.56930615 0.325584,13.930694 0.325584,13.930694 10.499989,13.952656 22.58089,0.04874 23.17442,1.149479 23.17442,42.978038 0,36.920966 -0.0315,37.066496 -8.90107,41.094566 -4.19959,1.90722 -26.654512,2.88421 -26.556327,1.15543 0.116181,-2.04566 9.972917,-8.25033 13.114787,-8.25558 13.2865,-0.0222 13.84261,-1.38785 13.84261,-33.994416 0,-32.735183 -0.0919,-33 -11.45541,-33 -4.77434,0 -5.71807,-0.389625 -9.650625,-3.984338 C 94.954243,40.73953 91.109747,37.94763 88.808259,36.726693 84.623737,34.506809 84.623737,34.506809 84.290682,23.736308 83.810421,8.2053818 84.095799,8.4152538 63.457627,8.4152538 c -20.668776,0 -20.352327,-0.235174 -20.837424,15.4856362 -0.303086,9.822285 -0.536944,10.998408 -2.298045,11.55736 -1.078341,0.342252 -4.847684,2.835091 -8.376318,5.539641 -4.674778,3.583021 -7.307433,4.918876 -9.701955,4.92294 -13.222482,0.02244 -13.786258,1.41261 -13.786258,33.994423 0,32.606566 0.55611,33.972256 13.842614,33.994416 3.14187,0.005 12.998609,6.20992 13.11479,8.25558 0.09819,1.72878 -22.356748,0.75179 -26.556335,-1.15543 z M 48.531941,26.494358 C 40.697353,18.154821 47.3425,11.415254 63.39979,11.415254 c 16.081154,0 23.190449,7.390082 14.743386,15.325686 -3.710125,3.485481 -26.281723,3.29752 -29.611235,-0.246582 z"
     id="path2824" />
</svg>
