<?xml version="1.0" encoding="UTF-8"?>
<svg width="24px" height="24px" viewBox="0 0 24 24" version="1.1" xmlns="http://www.w3.org/2000/svg" xmlns:xlink="http://www.w3.org/1999/xlink">
    <!-- Generator: Sketch 41.2 (35397) - http://www.bohemiancoding.com/sketch -->
    <title>frame-fretboard</title>
    <desc>Created with Sketch.</desc>
    <defs></defs>
    <g id="Original-24" stroke="none" stroke-width="1" fill="none" fill-rule="evenodd">
        <g id="frame-fretboard">
            <g transform="translate(12.000000, 12.000000) rotate(90.000000) translate(-12.000000, -12.000000) ">
                <rect id="rect9212" transform="translate(12.000297, 11.999984) rotate(90.000000) translate(-12.000297, -11.999984) " x="0.00031275" y="-1.575e-05" width="23.9999685" height="24"></rect>
                <rect id="rect9216" stroke="#5999DB" stroke-width="1.00000003" stroke-dasharray="2.000000059604644,2.000000059604644" transform="translate(12.000297, 12.000000) rotate(-90.000000) translate(-12.000297, -12.000000) " x="1.500297" y="1.5" width="21" height="21"></rect>
                <path d="M4.0001565,20.0004 L20.000157,20.0004 L20.000157,19.00041 L16.0001565,19.00041 L16.0001565,17.0004 L20.000157,17.0004 L20.000157,16.00041 L16.0001565,16.00041 L16.0001565,14.0004 L20.000157,14.0004 L20.000157,13.00041 L16.0001565,13.00041 L16.0001565,11.0004 L20.000157,11.0004 L20.000157,10.00041 L16.0001565,10.00041 L16.0001565,8.0004 L20.000157,8.0004 L20.000157,7.00041 L16.0001565,7.00041 L16.0001565,5.0004 L20.000157,5.0004 L20.000157,4.00041 L16.0001565,4.00041 L15.0001575,4.00041 L6.000156,4.00041 L4.0001565,4.00041 L4.0001565,20.0004 Z M6.000156,19.00041 L6.000156,17.0004 L10.000158,17.0004 L10.000158,19.00041 L6.000156,19.00041 Z M6.000156,16.00041 L6.000156,14.0004 L10.000158,14.0004 L10.000158,16.00041 L6.000156,16.00041 Z M6.000156,13.00041 L6.000156,11.0004 L10.000158,11.0004 L10.000158,13.00041 L6.000156,13.00041 Z M6.000156,10.00041 L6.000156,8.0004 L10.000158,8.0004 L10.000158,10.00041 L6.000156,10.00041 Z M6.000156,7.00041 L6.000156,5.0004 L10.000158,5.0004 L10.000158,7.00041 L6.000156,7.00041 Z M11.000157,19.00041 L11.000157,17.0004 L15.0001575,17.0004 L15.0001575,19.00041 L11.000157,19.00041 Z M11.000157,16.00041 L11.000157,14.0004 L15.0001575,14.0004 L15.0001575,16.00041 L11.000157,16.00041 Z M11.000157,13.00041 L11.000157,11.0004 L15.0001575,11.0004 L15.0001575,13.00041 L11.000157,13.00041 Z M11.000157,10.00041 L11.000157,8.0004 L15.0001575,8.0004 L15.0001575,10.00041 L11.000157,10.00041 Z M11.000157,7.00041 L11.000157,5.0004 L15.0001575,5.0004 L15.0001575,7.00041 L11.000157,7.00041 Z" id="rect5528-0" fill="#3B3F45"></path>
                <path d="M14.7501452,7.50039311 C14.7501452,8.4668978 13.9666429,9.25040002 13.0001382,9.25040002 C12.0336474,9.25040002 11.2501452,8.4668978 11.2501452,7.50039311 C11.2501452,6.53390225 12.0336474,5.75040002 13.0001382,5.75040002 C13.9666429,5.75040002 14.7501452,6.53390225 14.7501452,7.50039311 Z" id="path9244" fill="#3B3F45" transform="translate(13.000145, 7.500400) rotate(-90.000000) translate(-13.000145, -7.500400) "></path>
                <path d="M9.75015016,13.5003931 C9.75015016,14.4668978 8.96664794,15.2504 8.00014325,15.2504 C7.03365239,15.2504 6.25015016,14.4668978 6.25015016,13.5003931 C6.25015016,12.5339022 7.03365239,11.7504 8.00014325,11.7504 C8.96664794,11.7504 9.75015016,12.5339022 9.75015016,13.5003931 Z" id="path9754" fill="#3B3F45" transform="translate(8.000150, 13.500400) rotate(-90.000000) translate(-8.000150, -13.500400) "></path>
            </g>
        </g>
    </g>
</svg>