<?xml version="1.0" encoding="UTF-8" standalone="no"?>
<!-- Created with Inkscape (http://www.inkscape.org/) -->
<svg
   xmlns:dc="http://purl.org/dc/elements/1.1/"
   xmlns:cc="http://creativecommons.org/ns#"
   xmlns:rdf="http://www.w3.org/1999/02/22-rdf-syntax-ns#"
   xmlns:svg="http://www.w3.org/2000/svg"
   xmlns="http://www.w3.org/2000/svg"
   xmlns:sodipodi="http://sodipodi.sourceforge.net/DTD/sodipodi-0.dtd"
   xmlns:inkscape="http://www.inkscape.org/namespaces/inkscape"
   id="svg2"
   sodipodi:version="0.32"
   inkscape:version="0.46"
   width="128"
   height="128"
   version="1.0"
   sodipodi:docname="grace32.svg"
   inkscape:output_extension="org.inkscape.output.svg.inkscape">
  <metadata
     id="metadata7">
    <rdf:RDF>
      <cc:Work
         rdf:about="">
        <dc:format>image/svg+xml</dc:format>
        <dc:type
           rdf:resource="http://purl.org/dc/dcmitype/StillImage" />
      </cc:Work>
    </rdf:RDF>
  </metadata>
  <defs
     id="defs5">
    <inkscape:perspective
       sodipodi:type="inkscape:persp3d"
       inkscape:vp_x="0 : 526.18109 : 1"
       inkscape:vp_y="0 : 1000 : 0"
       inkscape:vp_z="744.09448 : 526.18109 : 1"
       inkscape:persp3d-origin="372.04724 : 350.78739 : 1"
       id="perspective9" />
  </defs>
  <sodipodi:namedview
     inkscape:window-height="1113"
     inkscape:window-width="1126"
     inkscape:pageshadow="2"
     inkscape:pageopacity="0.0"
     guidetolerance="10.0"
     gridtolerance="10.0"
     objecttolerance="10.0"
     borderopacity="1.0"
     bordercolor="#666666"
     pagecolor="#ffffff"
     id="base"
     showgrid="false"
     inkscape:zoom="2"
     inkscape:cx="165"
     inkscape:cy="-7.6119341"
     inkscape:window-x="0"
     inkscape:window-y="0"
     inkscape:current-layer="svg2" />
  <path
     style="fill:#000000"
     d="M 44.42322,124.24717 C 38.72762,122.60854 35.67909,117.62906 37.11793,112.31469 C 38.25364,108.11997 44.45824,101.94304 50.14734,99.3434 C 56.7527,96.325065 62.59694,96.220008 68.34063,99.01635 C 68.52943,99.10827 68.6839,77.154961 68.6839,50.231218 L 68.6839,1.278965 L 70.29715,1.278965 C 72.15389,1.278965 72.48618,1.8053711 73.02972,5.6078306 C 73.89202,11.640269 77.24441,18.587104 83.57927,27.468602 C 92.22534,39.590429 95.02871,48.629577 92.513,56.274461 L 91.6267,58.967817 L 93.01809,62.895756 C 94.30072,66.516648 94.39391,67.180467 94.21028,71.387796 C 94.06982,74.605895 93.71563,76.728646 93.00927,78.58575 L 92.00747,81.219601 L 93.13035,83.563946 C 96.23226,90.040076 95.62505,99.488 91.55341,108.1005 C 90.24267,110.87304 89.93061,111.23215 88.83204,111.23215 C 88.14956,111.23215 87.23333,110.85816 86.79595,110.40105 C 86.03614,109.60698 86.07485,109.39475 87.66521,105.63521 C 91.88022,95.671129 91.64294,88.7254 86.8557,81.938449 C 84.33163,78.360035 73.82158,68.246351 72.95415,68.561171 C 72.49754,68.726894 72.34516,70.002311 72.34434,73.665657 C 72.3406,90.198963 72.0241,108.60666 71.72446,109.71705 C 71.14082,111.87993 68.75599,114.98393 65.46126,117.86902 C 61.90976,120.97896 58.16127,123.02465 54.24756,123.9888 C 51.43803,124.68093 46.39214,124.81363 44.42322,124.24717 z M 89.54854,74.328572 C 90.64607,69.80308 89.4165,64.659115 86.06489,59.754567 C 83.96981,56.68876 73.50951,46.356334 72.99305,46.842535 C 71.95651,47.818365 75.03219,57.11156 77.76715,61.267514 C 79.76222,64.299161 88.53857,75.686498 88.90043,75.712985 C 89.06923,75.725344 89.36088,75.102356 89.54854,74.328572 z M 88.82238,50.923044 C 88.82238,44.410095 84.58159,36.638835 76.23072,27.848807 C 74.49587,26.022722 72.99518,24.75926 72.89584,25.041115 C 72.52806,26.084659 73.82768,31.45664 75.21009,34.607068 C 76.85536,38.356529 87.48816,53.613477 88.47911,53.646724 C 88.66791,53.653057 88.82238,52.427403 88.82238,50.923044 z"
     id="path2394" />
</svg>
