<?xml version="1.0" encoding="UTF-8" standalone="no"?>
<!-- Created with Inkscape (http://www.inkscape.org/) -->
<svg
   xmlns:dc="http://purl.org/dc/elements/1.1/"
   xmlns:cc="http://creativecommons.org/ns#"
   xmlns:rdf="http://www.w3.org/1999/02/22-rdf-syntax-ns#"
   xmlns:svg="http://www.w3.org/2000/svg"
   xmlns="http://www.w3.org/2000/svg"
   xmlns:sodipodi="http://sodipodi.sourceforge.net/DTD/sodipodi-0.dtd"
   xmlns:inkscape="http://www.inkscape.org/namespaces/inkscape"
   id="svg2"
   sodipodi:version="0.32"
   inkscape:version="0.46"
   width="128"
   height="128"
   version="1.0"
   sodipodi:docname="grace16.svg"
   inkscape:output_extension="org.inkscape.output.svg.inkscape">
  <metadata
     id="metadata7">
    <rdf:RDF>
      <cc:Work
         rdf:about="">
        <dc:format>image/svg+xml</dc:format>
        <dc:type
           rdf:resource="http://purl.org/dc/dcmitype/StillImage" />
      </cc:Work>
    </rdf:RDF>
  </metadata>
  <defs
     id="defs5">
    <inkscape:perspective
       sodipodi:type="inkscape:persp3d"
       inkscape:vp_x="0 : 526.18109 : 1"
       inkscape:vp_y="0 : 1000 : 0"
       inkscape:vp_z="744.09448 : 526.18109 : 1"
       inkscape:persp3d-origin="372.04724 : 350.78739 : 1"
       id="perspective9" />
  </defs>
  <sodipodi:namedview
     inkscape:window-height="974"
     inkscape:window-width="853"
     inkscape:pageshadow="2"
     inkscape:pageopacity="0.0"
     guidetolerance="10.0"
     gridtolerance="10.0"
     objecttolerance="10.0"
     borderopacity="1.0"
     bordercolor="#666666"
     pagecolor="#ffffff"
     id="base"
     showgrid="false"
     inkscape:zoom="2"
     inkscape:cx="99.17783"
     inkscape:cy="71.928463"
     inkscape:window-x="11"
     inkscape:window-y="0"
     inkscape:current-layer="svg2"
     showborder="true" />
  <path
     style="fill:#000000;fill-opacity:1"
     d="M 37.201184,125.74242 C 33.907954,124.63553 31.104061,122.32367 29.871225,119.69873 C 28.956755,117.75166 28.797553,116.53551 29.022567,113.21593 C 29.284048,109.35827 29.442584,108.95372 31.858065,105.98034 C 36.610601,100.13011 42.423798,95.940689 48.550813,93.950322 C 53.764782,92.256553 61.32617,92.230904 65.158294,93.89398 L 67.840937,95.058206 L 67.840937,48.279102 L 67.840937,1.4999998 L 70.048978,1.4999998 L 72.257019,1.4999998 L 72.941426,5.3564242 C 74.591907,14.656311 77.437423,20.433945 86.236611,32.351394 C 96.739014,46.575653 99.759197,53.203819 99.688355,61.872988 C 99.659287,65.429835 99.327724,67.480564 98.398341,69.851797 C 97.71035,71.607135 97.140456,73.282685 97.131917,73.575241 C 97.123375,73.867798 97.831114,75.902394 98.704655,78.096566 C 100.13284,81.683871 100.29369,82.756143 100.30052,88.734978 C 100.30909,96.251426 99.381571,100.84303 96.486027,107.61816 C 94.872581,111.39336 94.48826,111.89287 93.08011,112.04494 C 89.632004,112.41732 89.055263,110.27683 91.309899,105.47519 C 95.332599,96.908167 96.084397,85.735159 93.059656,79.470714 C 90.425845,74.01589 85.317131,67.42109 79.528208,62.003053 C 76.451972,59.123905 73.643991,56.859418 73.288256,56.970866 C 72.820572,57.117384 72.55259,64.158263 72.32055,82.395831 C 72.144049,96.268112 71.781293,108.21657 71.514424,108.94796 C 69.880678,113.42548 62.365149,120.5385 56.131511,123.50699 C 50.141474,126.35949 41.924137,127.32985 37.201184,125.74242 z M 94.147996,64.432893 C 95.392303,56.617831 89.282114,45.284022 78.28632,35.010997 L 72.87754,29.957751 L 73.226075,32.351394 C 73.769601,36.0842 75.687809,41.842219 77.561288,45.364703 C 79.400102,48.822007 92.643317,66.926234 93.333517,66.926234 C 93.563133,66.926234 93.929653,65.804232 94.147996,64.432893 z"
     id="path2384" />
</svg>
