<?xml version="1.0" encoding="UTF-8" standalone="no"?>
<svg
   xmlns:dc="http://purl.org/dc/elements/1.1/"
   xmlns:cc="http://creativecommons.org/ns#"
   xmlns:rdf="http://www.w3.org/1999/02/22-rdf-syntax-ns#"
   xmlns:svg="http://www.w3.org/2000/svg"
   xmlns="http://www.w3.org/2000/svg"
   id="svg11"
   version="1.1"
   viewBox="0 0 24 24"
   height="24px"
   width="24px">
  <metadata
     id="metadata15">
    <rdf:RDF>
      <cc:Work
         rdf:about="">
        <dc:format>image/svg+xml</dc:format>
        <dc:type
           rdf:resource="http://purl.org/dc/dcmitype/StillImage" />
        <dc:title>insert-symbol</dc:title>
      </cc:Work>
    </rdf:RDF>
  </metadata>
  <!-- Generator: Sketch 41.2 (35397) - http://www.bohemiancoding.com/sketch -->
  <title
     id="title2">insert-symbol</title>
  <desc
     id="desc4">Created with Sketch.</desc>
  <defs
     id="defs6" />
  <g
     style="fill:none;fill-rule:evenodd;stroke:none;stroke-width:0.55000001"
     id="Original-24"
     transform="matrix(1.8181818,0,0,1.8181818,-8.9090908,-9.8865368)">
    <path
       style="fill:#3b3f45;stroke-width:0.55000001"
       d="M 15.16188,7 C 14.835103,7.4825532 14.616202,8.0621406 14.44385,8.55091 14.33451,8.85788 14.22262,9.24679 14.0992,9.61358 13.79085,9.13114 13.51243,8.62238 13.09399,8.2637 12.43982,7.70299 11.62368,7.34464 10.68146,7.34464 8.04258,7.34464 6,9.61354 6,12.2846 c 0,2.53918 2.13105,4.53785 4.68146,4.53785 1.48252,0 2.5631,-0.92577 3.38903,-2.06789 0.311058,0.904478 0.628487,1.647843 1.12011,2.41253 0.621201,0.17395 1.358673,-0.615341 1.80222,-1.20985 -0.802028,-1.134131 -1.241978,-2.5397 -1.60117,-3.67264 0.21845,-0.66927 0.46849,-1.45611 0.71801,-2.15406 C 16.342033,9.4495283 16.592249,8.795237 17,8.20627 16.817494,7.4435491 16.015919,7.1953734 15.16188,7 Z m -4.48041,2.44125 c 0.647,0 1.12425,0.31405 1.55091,0.86162 0.39641,0.50875 0.66953,1.24654 0.91906,1.98173 -0.23945,0.64448 -0.52017,1.2642 -0.91906,1.69451 -0.43352,0.46764 -0.93369,0.74673 -1.55091,0.74673 -1.36539,0 -2.4987,-1.08778 -2.4987,-2.44124 0,-1.54593 1.08929,-2.84335 2.4987,-2.84335 z"
       id="Combined-Shape" />
  </g>
</svg>
