<?xml version="1.0" encoding="UTF-8"?>
<svg width="24px" height="24px" viewBox="0 0 24 24" version="1.1" xmlns="http://www.w3.org/2000/svg" xmlns:xlink="http://www.w3.org/1999/xlink">
    <!-- Generator: Sketch 41.2 (35397) - http://www.bohemiancoding.com/sketch -->
    <title>insert-symbol</title>
    <desc>Created with Sketch.</desc>
    <defs></defs>
    <g id="Original-24" stroke="none" stroke-width="1" fill="none" fill-rule="evenodd">
        <g id="insert-symbol" fill="#3B3F45">
            <path d="M2,5.99922997 C2,3.79051625 3.79246765,2 5.99922997,2 L18.00077,2 C20.2094838,2 22,3.79246765 22,5.99922997 L22,18.00077 C22,20.2094838 20.2075324,22 18.00077,22 L5.99922997,22 C3.79051625,22 2,20.2075324 2,18.00077 L2,5.99922997 Z M15.16188,7 L14.9321,7.40208 C14.8421,7.54212 14.7776,7.64259 14.70234,7.8329 C14.62714,8.0232 14.54161,8.27638 14.44385,8.55091 C14.33451,8.85788 14.22262,9.24679 14.0992,9.61358 C13.79085,9.13114 13.51243,8.62238 13.09399,8.2637 C12.43982,7.70299 11.62368,7.34464 10.68146,7.34464 C8.04258,7.34464 6,9.61354 6,12.2846 C6,14.82378 8.13105,16.82245 10.68146,16.82245 C12.16398,16.82245 13.24456,15.89668 14.07049,14.75456 C14.33786,15.49739 14.59496,16.26602 14.9321,16.76501 L15.1906,17.16709 L16.99282,15.95724 L16.74151,15.58746 C16.15125,14.70892 15.76802,13.47198 15.39165,12.2846 C15.6101,11.61533 15.86014,10.82849 16.10966,10.13054 C16.37615,9.38511 16.66501,8.69255 16.74151,8.57964 L17,8.20627 L16.59792,7.94778 L15.56396,7.25848 L15.16188,7 Z M10.68147,9.44125 C11.32847,9.44125 11.80572,9.7553 12.23238,10.30287 C12.62879,10.81162 12.90191,11.54941 13.15144,12.2846 C12.91199,12.92908 12.63127,13.5488 12.23238,13.97911 C11.79886,14.44675 11.29869,14.72584 10.68147,14.72584 C9.31608,14.72584 8.18277,13.63806 8.18277,12.2846 C8.18277,10.73867 9.27206,9.44125 10.68147,9.44125 L10.68147,9.44125 Z" id="Combined-Shape"></path>
        </g>
    </g>
</svg>