<?xml version="1.0" encoding="UTF-8" standalone="no"?>
<!-- Created with Inkscape (http://www.inkscape.org/) -->
<svg
   xmlns:dc="http://purl.org/dc/elements/1.1/"
   xmlns:cc="http://creativecommons.org/ns#"
   xmlns:rdf="http://www.w3.org/1999/02/22-rdf-syntax-ns#"
   xmlns:svg="http://www.w3.org/2000/svg"
   xmlns="http://www.w3.org/2000/svg"
   xmlns:sodipodi="http://sodipodi.sourceforge.net/DTD/sodipodi-0.dtd"
   xmlns:inkscape="http://www.inkscape.org/namespaces/inkscape"
   version="1.0"
   width="128pt"
   height="128pt"
   viewBox="0 0 507.946 507.946"
   id="svg49"
   xml:space="preserve"
   sodipodi:version="0.32"
   inkscape:version="0.46"
   sodipodi:docname="keyboard.svg"
   inkscape:output_extension="org.inkscape.output.svg.inkscape"><metadata
   id="metadata15"><rdf:RDF><cc:Work
       rdf:about=""><dc:format>image/svg+xml</dc:format><dc:type
         rdf:resource="http://purl.org/dc/dcmitype/StillImage" /></cc:Work></rdf:RDF></metadata><sodipodi:namedview
   inkscape:window-height="1135"
   inkscape:window-width="1920"
   inkscape:pageshadow="2"
   inkscape:pageopacity="0.0"
   guidetolerance="10.0"
   gridtolerance="10.0"
   objecttolerance="10.0"
   borderopacity="1.0"
   bordercolor="#666666"
   pagecolor="#ffffff"
   id="base"
   showgrid="false"
   inkscape:zoom="4"
   inkscape:cx="66.371157"
   inkscape:cy="85.99465"
   inkscape:window-x="-5"
   inkscape:window-y="0"
   inkscape:current-layer="svg49" />
  <defs
   id="defs62"><inkscape:perspective
   sodipodi:type="inkscape:persp3d"
   inkscape:vp_x="0 : 80 : 1"
   inkscape:vp_y="0 : 1000 : 0"
   inkscape:vp_z="160 : 80 : 1"
   inkscape:persp3d-origin="80 : 53.333333 : 1"
   id="perspective17" />
    <radialGradient
   cx="218.9404"
   cy="219.7715"
   r="150.7063"
   fx="218.9404"
   fy="219.7715"
   id="aigrd1"
   gradientUnits="userSpaceOnUse">
      <stop
   style="stop-color:#73ffff;stop-opacity:1"
   offset="0"
   id="stop53" />
      <stop
   style="stop-color:#2ea6b9;stop-opacity:1"
   offset="0.2809"
   id="stop54" />
      <stop
   style="stop-color:#006b8b;stop-opacity:1"
   offset="1"
   id="stop55" />
    </radialGradient>
  </defs>
  
  
  
  
  
  
  
<path
   transform="matrix(1.8335788,0,0,2.028801,-17.601584,-13.21353)"
   style="font-size:203.17840576px;font-style:normal;font-variant:normal;font-weight:normal;font-stretch:normal;text-align:start;line-height:125%;writing-mode:lr-tb;text-anchor:start;fill:#000000;fill-opacity:1;stroke:none;stroke-width:1px;stroke-linecap:butt;stroke-linejoin:miter;stroke-opacity:1;font-family:Bitstream Vera Sans;-inkscape-font-specification:Bitstream Vera Sans"
   d="M 35.423748,57.587554 L 261.02321,57.587554 C 275.63961,57.587702 282.94794,64.896033 282.94822,79.512568 L 282.94822,183.78039 C 282.94794,198.39707 275.63961,205.70541 261.02321,205.70541 L 35.423748,205.70541 C 20.807053,205.70541 13.498723,198.39707 13.498735,183.78039 L 13.498735,79.512568 C 13.498723,64.896033 20.807053,57.587702 35.423748,57.587554 M 28.082341,79.512568 L 28.082341,183.78039 C 28.082314,188.67468 30.529448,191.12181 35.423748,191.1218 L 261.02321,191.1218 C 265.85108,191.12181 268.26514,188.67468 268.26541,183.78039 L 268.26541,79.512568 C 268.26514,74.618427 265.85108,72.171294 261.02321,72.17116 L 35.423748,72.17116 C 30.529448,72.171294 28.082314,74.618427 28.082341,79.512568 M 53.777266,170.98253 L 53.777266,178.22473 C 53.777214,180.67189 52.553647,181.89546 50.106563,181.89544 L 42.765155,181.89544 C 40.317981,181.89546 39.094414,180.67189 39.094452,178.22473 L 39.094452,170.98253 C 39.094414,168.4693 40.317981,167.21266 42.765155,167.21262 L 50.106563,167.21262 C 52.553647,167.21266 53.777214,168.4693 53.777266,170.98253 M 75.900696,170.88333 L 75.900696,178.22473 C 75.900622,180.67189 74.677055,181.89546 72.229993,181.89544 L 64.789377,181.89544 C 62.408319,181.89546 61.217822,180.67189 61.217882,178.22473 L 61.217882,170.88333 C 61.217822,168.43623 62.408319,167.21266 64.789377,167.21262 L 72.229993,167.21262 C 74.677055,167.21266 75.900622,168.43623 75.900696,170.88333 M 108.6394,149.05752 L 108.6394,156.39893 C 108.6393,158.84611 107.41573,160.06968 104.9687,160.06963 L 97.627293,160.06963 C 95.180064,160.06968 93.956497,158.84611 93.95659,156.39893 L 93.95659,149.05752 C 93.956497,146.61044 95.180064,145.38688 97.627293,145.38682 L 104.9687,145.38682 C 107.41573,145.38688 108.6393,146.61044 108.6394,149.05752 M 64.789377,149.05752 L 64.789377,156.39893 C 64.789314,158.84611 63.565747,160.06968 61.118674,160.06963 L 53.777266,160.06963 C 51.330081,160.06968 50.106514,158.84611 50.106563,156.39893 L 50.106563,149.05752 C 50.106514,146.61044 51.330081,145.38688 53.777266,145.38682 L 61.118674,145.38682 C 63.565747,145.38688 64.789314,146.61044 64.789377,149.05752 M 86.714391,149.05752 L 86.714391,156.39893 C 86.714306,158.84611 85.490739,160.06968 83.043687,160.06963 L 75.70228,160.06963 C 73.255072,160.06968 72.031506,158.84611 72.031576,156.39893 L 72.031576,149.05752 C 72.031506,146.61044 73.255072,145.38688 75.70228,145.38682 L 83.043687,145.38682 C 85.490739,145.38688 86.714306,146.61044 86.714391,149.05752 M 130.46521,149.05752 L 130.46521,156.39893 C 130.46508,158.84611 129.24151,160.06968 126.79451,160.06963 L 119.4531,160.06963 C 117.00585,160.06968 115.78228,158.84611 115.7824,156.39893 L 115.7824,149.05752 C 115.78228,146.61044 117.00585,145.38688 119.4531,145.38682 L 126.79451,145.38682 C 129.24151,145.38688 130.46508,146.61044 130.46521,149.05752 M 152.39022,149.05752 L 152.39022,156.39893 C 152.39007,158.84611 151.16651,160.06968 148.71952,160.06963 L 141.37811,160.06963 C 138.93084,160.06968 137.70727,158.84611 137.70741,156.39893 L 137.70741,149.05752 C 137.70727,146.61044 138.93084,145.38688 141.37811,145.38682 L 148.71952,145.38682 C 151.16651,145.38688 152.39007,146.61044 152.39022,149.05752 M 174.31524,149.05752 L 174.31524,156.39893 C 174.31506,158.84611 173.0915,160.06968 170.64453,160.06963 L 163.30313,160.06963 C 160.85583,160.06968 159.63226,158.84611 159.63242,156.39893 L 159.63242,149.05752 C 159.63226,146.61044 160.85583,145.38688 163.30313,145.38682 L 170.64453,145.38682 C 173.0915,145.38688 174.31506,146.61044 174.31524,149.05752 M 196.24025,149.05752 L 196.24025,156.39893 C 196.24006,158.84611 195.01649,160.06968 192.56955,160.06963 L 185.22814,160.06963 C 182.78082,160.06968 181.55726,158.84611 181.55744,156.39893 L 181.55744,149.05752 C 181.55726,146.61044 182.78082,145.38688 185.22814,145.38682 L 192.56955,145.38682 C 195.01649,145.38688 196.24006,146.61044 196.24025,149.05752 M 218.16526,149.05752 L 218.16526,156.39893 C 218.16505,158.84611 216.94148,160.06968 214.49456,160.06963 L 207.15315,160.06963 C 204.70581,160.06968 203.48225,158.84611 203.48245,156.39893 L 203.48245,149.05752 C 203.48225,146.61044 204.70581,145.38688 207.15315,145.38682 L 214.49456,145.38682 C 216.94148,145.38688 218.16505,146.61044 218.16526,149.05752 M 257.65013,149.05752 L 257.65013,156.39893 C 257.64987,158.84611 256.42631,160.06968 253.97943,160.06963 L 229.07817,160.06963 C 226.63081,160.06968 225.40724,158.84611 225.40746,156.39893 L 225.40746,149.05752 C 225.40724,146.61044 226.63081,145.38688 229.07817,145.38682 L 253.97943,145.38682 C 256.42631,145.38688 257.64987,146.61044 257.65013,149.05752 M 61.118674,127.23171 L 61.118674,134.57312 C 61.118614,137.02033 59.895047,138.24389 57.44797,138.24383 L 50.106563,138.24383 C 47.659381,138.24389 46.435814,137.02033 46.435859,134.57312 L 46.435859,127.23171 C 46.435814,124.78466 47.659381,123.56109 50.106563,123.56101 L 57.44797,123.56101 C 59.895047,123.56109 61.118614,124.78466 61.118674,127.23171 M 83.043687,127.23171 L 83.043687,134.57312 C 83.043606,137.02033 81.820039,138.24389 79.372983,138.24383 L 72.031576,138.24383 C 69.584372,138.24389 68.360806,137.02033 68.360873,134.57312 L 68.360873,127.23171 C 68.360806,124.78466 69.584372,123.56109 72.031576,123.56101 L 79.372983,123.56101 C 81.820039,123.56109 83.043606,124.78466 83.043687,127.23171 M 104.9687,127.23171 L 104.9687,134.57312 C 104.9686,137.02033 103.74503,138.24389 101.298,138.24383 L 93.95659,138.24383 C 91.509364,138.24389 90.285797,137.02033 90.285886,134.57312 L 90.285886,127.23171 C 90.285797,124.78466 91.509364,123.56109 93.95659,123.56101 L 101.298,123.56101 C 103.74503,123.56109 104.9686,124.78466 104.9687,127.23171 M 126.79451,127.23171 L 126.79451,134.57312 C 126.79438,137.02033 125.57081,138.24389 123.1238,138.24383 L 115.7824,138.24383 C 113.33515,138.24389 112.11158,137.02033 112.11169,134.57312 L 112.11169,127.23171 C 112.11158,124.78466 113.33515,123.56109 115.7824,123.56101 L 123.1238,123.56101 C 125.57081,123.56109 126.79438,124.78466 126.79451,127.23171 M 148.71952,127.23171 L 148.71952,134.57312 C 148.71937,137.02033 147.49581,138.24389 145.04882,138.24383 L 137.70741,138.24383 C 135.26014,138.24389 134.03657,137.02033 134.0367,134.57312 L 134.0367,127.23171 C 134.03657,124.78466 135.26014,123.56109 137.70741,123.56101 L 145.04882,123.56101 C 147.49581,123.56109 148.71937,124.78466 148.71952,127.23171 M 170.64453,127.23171 L 170.64453,134.57312 C 170.64436,137.02033 169.4208,138.24389 166.97383,138.24383 L 159.63242,138.24383 C 157.18513,138.24389 155.96156,137.02033 155.96172,134.57312 L 155.96172,127.23171 C 155.96156,124.78466 157.18513,123.56109 159.63242,123.56101 L 166.97383,123.56101 C 169.4208,123.56109 170.64436,124.78466 170.64453,127.23171 M 192.56955,127.23171 L 192.56955,134.57312 C 192.56936,137.02033 191.34579,138.24389 188.89884,138.24383 L 181.55744,138.24383 C 179.11012,138.24389 177.88656,137.02033 177.88673,134.57312 L 177.88673,127.23171 C 177.88656,124.78466 179.11012,123.56109 181.55744,123.56101 L 188.89884,123.56101 C 191.34579,123.56109 192.56936,124.78466 192.56955,127.23171 M 214.49456,127.23171 L 214.49456,134.57312 C 214.49435,137.02033 213.27078,138.24389 210.82386,138.24383 L 203.48245,138.24383 C 201.03511,138.24389 199.81155,137.02033 199.81175,134.57312 L 199.81175,127.23171 C 199.81155,124.78466 201.03511,123.56109 203.48245,123.56101 L 210.82386,123.56101 C 213.27078,123.56109 214.49435,124.78466 214.49456,127.23171 M 210.92306,105.40591 L 210.92306,112.74732 C 210.92286,115.19454 209.69929,116.41811 207.25236,116.41802 L 199.91095,116.41802 C 197.46362,116.41811 196.24006,115.19454 196.24025,112.74732 L 196.24025,105.40591 C 196.24006,102.95888 197.46362,101.73531 199.91095,101.73521 L 207.25236,101.73521 C 209.69929,101.73531 210.92286,102.95888 210.92306,105.40591 M 188.99805,105.40591 L 188.99805,112.74732 C 188.99786,115.19454 187.7743,116.41811 185.32735,116.41802 L 177.98594,116.41802 C 175.53863,116.41811 174.31506,115.19454 174.31524,112.74732 L 174.31524,105.40591 C 174.31506,102.95888 175.53863,101.73531 177.98594,101.73521 L 185.32735,101.73521 C 187.7743,101.73531 188.99786,102.95888 188.99805,105.40591 M 167.07304,105.40591 L 167.07304,112.74732 C 167.07287,115.19454 165.84931,116.41811 163.40233,116.41802 L 156.06093,116.41802 C 153.61364,116.41811 152.39007,115.19454 152.39022,112.74732 L 152.39022,105.40591 C 152.39007,102.95888 153.61364,101.73531 156.06093,101.73521 L 163.40233,101.73521 C 165.84931,101.73531 167.07287,102.95888 167.07304,105.40591 M 145.14802,105.40591 L 145.14802,112.74732 C 145.14788,115.19454 143.92431,116.41811 141.47732,116.41802 L 134.13591,116.41802 C 131.68865,116.41811 130.46508,115.19454 130.46521,112.74732 L 130.46521,105.40591 C 130.46508,102.95888 131.68865,101.73531 134.13591,101.73521 L 141.47732,101.73521 C 143.92431,101.73531 145.14788,102.95888 145.14802,105.40591 M 123.32222,105.40591 L 123.32222,112.74732 C 123.3221,115.19454 122.09853,116.41811 119.65152,116.41802 L 112.31011,116.41802 C 109.86286,116.41811 108.6393,115.19454 108.6394,112.74732 L 108.6394,105.40591 C 108.6393,102.95888 109.86286,101.73531 112.31011,101.73521 L 119.65152,101.73521 C 122.09853,101.73531 123.3221,102.95888 123.32222,105.40591 M 101.39721,105.40591 L 101.39721,112.74732 C 101.39711,115.19454 100.17354,116.41811 97.726502,116.41802 L 90.385094,116.41802 C 87.937872,116.41811 86.714306,115.19454 86.714391,112.74732 L 86.714391,105.40591 C 86.714306,102.95888 87.937872,101.73531 90.385094,101.73521 L 97.726502,101.73521 C 100.17354,101.73531 101.39711,102.95888 101.39721,105.40591 M 79.472192,105.40591 L 79.472192,112.74732 C 79.472114,115.19454 78.248547,116.41811 75.801488,116.41802 L 68.460081,116.41802 C 66.012881,116.41811 64.789314,115.19454 64.789377,112.74732 L 64.789377,105.40591 C 64.789314,102.95888 66.012881,101.73531 68.460081,101.73521 L 75.801488,101.73521 C 78.248547,101.73531 79.472114,102.95888 79.472192,105.40591 M 57.547178,105.40591 L 57.547178,112.74732 C 57.547122,115.19454 56.323556,116.41811 53.876475,116.41802 L 46.535067,116.41802 C 44.087889,116.41811 42.864322,115.19454 42.864364,112.74732 L 42.864364,105.40591 C 42.864322,102.95888 44.087889,101.73531 46.535067,101.73521 L 53.876475,101.73521 C 56.323556,101.73531 57.547122,102.95888 57.547178,105.40591 M 53.975683,83.877729 L 53.975683,91.219136 C 53.97563,93.666384 52.752064,94.88995 50.304979,94.889839 L 42.963572,94.889839 C 40.516397,94.88995 39.292831,93.666384 39.292868,91.219136 L 39.292868,83.877729 C 39.292831,81.430717 40.516397,80.20715 42.963572,80.207025 L 50.304979,80.207025 C 52.752064,80.20715 53.97563,81.430717 53.975683,83.877729 M 75.900696,83.877729 L 75.900696,91.219136 C 75.900622,93.666384 74.677055,94.88995 72.229993,94.889839 L 64.888585,94.889839 C 62.441389,94.88995 61.217822,93.666384 61.217882,91.219136 L 61.217882,83.877729 C 61.217822,81.430717 62.441389,80.20715 64.888585,80.207025 L 72.229993,80.207025 C 74.677055,80.20715 75.900622,81.430717 75.900696,83.877729 M 97.82571,83.877729 L 97.82571,91.219136 C 97.825614,93.666384 96.602047,94.88995 94.155006,94.889839 L 86.813599,94.889839 C 84.36638,94.88995 83.142814,93.666384 83.142895,91.219136 L 83.142895,83.877729 C 83.142814,81.430717 84.36638,80.20715 86.813599,80.207025 L 94.155006,80.207025 C 96.602047,80.20715 97.825614,81.430717 97.82571,83.877729 M 119.75072,83.877729 L 119.75072,91.219136 C 119.75061,93.666384 118.52704,94.88995 116.08002,94.889839 L 108.73861,94.889839 C 106.29137,94.88995 105.06781,93.666384 105.06791,91.219136 L 105.06791,83.877729 C 105.06781,81.430717 106.29137,80.20715 108.73861,80.207025 L 116.08002,80.207025 C 118.52704,80.20715 119.75061,81.430717 119.75072,83.877729 M 141.57653,83.877729 L 141.57653,91.219136 C 141.57639,93.666384 140.35282,94.88995 137.90582,94.889839 L 130.56442,94.889839 C 128.11716,94.88995 126.89359,93.666384 126.89371,91.219136 L 126.89371,83.877729 C 126.89359,81.430717 128.11716,80.20715 130.56442,80.207025 L 137.90582,80.207025 C 140.35282,80.20715 141.57639,81.430717 141.57653,83.877729 M 163.50154,83.877729 L 163.50154,91.219136 C 163.50138,93.666384 162.27781,94.88995 159.83084,94.889839 L 152.48943,94.889839 C 150.04215,94.88995 148.81858,93.666384 148.81873,91.219136 L 148.81873,83.877729 C 148.81858,81.430717 150.04215,80.20715 152.48943,80.207025 L 159.83084,80.207025 C 162.27781,80.20715 163.50138,81.430717 163.50154,83.877729 M 185.42656,83.877729 L 185.42656,91.219136 C 185.42637,93.666384 184.20281,94.88995 181.75585,94.889839 L 174.41444,94.889839 C 171.96714,94.88995 170.74357,93.666384 170.74374,91.219136 L 170.74374,83.877729 C 170.74357,81.430717 171.96714,80.20715 174.41444,80.207025 L 181.75585,80.207025 C 184.20281,80.20715 185.42637,81.430717 185.42656,83.877729 M 207.35157,83.877729 L 207.35157,91.219136 C 207.35136,93.666384 206.1278,94.88995 203.68087,94.889839 L 196.33946,94.889839 C 193.89213,94.88995 192.66856,93.666384 192.66875,91.219136 L 192.66875,83.877729 C 192.66856,81.430717 193.89213,80.20715 196.33946,80.207025 L 203.68087,80.207025 C 206.1278,80.20715 207.35136,81.430717 207.35157,83.877729 M 229.27658,83.877729 L 229.27658,91.219136 C 229.27635,93.666384 228.05279,94.88995 225.60588,94.889839 L 218.26447,94.889839 C 215.81712,94.88995 214.59356,93.666384 214.59377,91.219136 L 214.59377,83.877729 C 214.59356,81.430717 215.81712,80.20715 218.26447,80.207025 L 225.60588,80.207025 C 228.05279,80.20715 229.27635,81.430717 229.27658,83.877729 M 257.65013,83.877729 L 257.65013,91.219136 C 257.64987,93.666384 256.42631,94.88995 253.97943,94.889839 L 240.18949,94.889839 C 237.74211,94.88995 236.51855,93.666384 236.51878,91.219136 L 236.51878,83.877729 C 236.51855,81.430717 237.74211,80.20715 240.18949,80.207025 L 253.97943,80.207025 C 256.42631,80.20715 257.64987,81.430717 257.65013,83.877729 M 253.97943,101.93362 C 256.42631,101.93373 257.64987,103.15729 257.65013,105.60433 L 257.65013,134.37471 C 257.64987,136.82191 256.42631,138.04548 253.97943,138.04541 L 229.57421,138.04541 C 226.79615,138.04548 225.40724,136.82191 225.40746,134.37471 L 225.40746,119.59268 C 225.40724,117.47633 224.21674,116.41811 221.83597,116.41802 C 219.38861,116.41811 218.16505,115.19454 218.16526,112.74732 L 218.16526,105.50512 C 218.16505,103.05808 219.38861,101.83452 221.83597,101.83441 L 253.97943,101.93362 M 236.51878,170.88333 L 236.51878,178.22473 C 236.51855,180.67189 235.29498,181.89546 232.84808,181.89544 L 225.50667,181.89544 C 223.05931,181.89546 221.83575,180.67189 221.83597,178.22473 L 221.83597,170.88333 C 221.83575,168.43623 223.05931,167.21266 225.50667,167.21262 L 232.84808,167.21262 C 235.29498,167.21266 236.51855,168.43623 236.51878,170.88333 M 258.64221,170.88333 L 258.64221,178.22473 C 258.64195,180.67189 257.41839,181.89546 254.97151,181.89544 L 247.53089,181.89544 C 245.14965,181.89546 243.95915,180.67189 243.9594,178.22473 L 243.9594,170.88333 C 243.95915,168.43623 245.14965,167.21266 247.53089,167.21262 L 254.97151,167.21262 C 257.41839,167.21266 258.64195,168.43623 258.64221,170.88333 M 97.230461,181.89544 C 94.783232,181.89546 93.559665,180.67189 93.559757,178.22473 L 93.559757,170.88333 C 93.559665,168.43623 94.783232,167.21266 97.230461,167.21262 L 199.2165,167.21262 C 201.66343,167.21266 202.887,168.43623 202.8872,170.88333 L 202.8872,178.22473 C 202.887,180.67189 201.66343,181.89546 199.2165,181.89544 L 97.230461,181.89544"
   id="flowRoot2689" /></svg>