<?xml version="1.0" encoding="UTF-8"?>
<svg width="24px" height="24px" viewBox="0 0 24 24" version="1.1" xmlns="http://www.w3.org/2000/svg" xmlns:xlink="http://www.w3.org/1999/xlink">
    <!-- Generator: Sketch 41.2 (35397) - http://www.bohemiancoding.com/sketch -->
    <title>list-ordered</title>
    <desc>Created with Sketch.</desc>
    <defs></defs>
    <g id="Derived-24" stroke="none" stroke-width="1" fill="none" fill-rule="evenodd">
        <g id="list-ordered">
            <g id="ic_format_list_numbered_24px">
                <path d="M2,17 L4,17 L4,17.5 L3,17.5 L3,18.5 L4,18.5 L4,19 L2,19 L2,20 L5,20 L5,16 L2,16 L2,17 Z M3,8 L4,8 L4,4 L2,4 L2,5 L3,5 L3,8 Z M2,11 L3.8,11 L2,13.1 L2,14 L5,14 L5,13 L3.2,13 L5,10.9 L5,10 L2,10 L2,11 Z M7,5 L7,7 L21,7 L21,5 L7,5 Z M7,19 L21,19 L21,17 L7,17 L7,19 Z M7,13 L21,13 L21,11 L7,11 L7,13 Z" id="Shape" fill="#3B3F45"></path>
                <polygon id="Shape" points="0 0 24 0 24 24 0 24"></polygon>
            </g>
        </g>
    </g>
</svg>