<?xml version="1.0" encoding="UTF-8" standalone="no"?>
<!-- Created with Inkscape (http://www.inkscape.org/) -->

<svg
   xmlns:dc="http://purl.org/dc/elements/1.1/"
   xmlns:cc="http://creativecommons.org/ns#"
   xmlns:rdf="http://www.w3.org/1999/02/22-rdf-syntax-ns#"
   xmlns:svg="http://www.w3.org/2000/svg"
   xmlns="http://www.w3.org/2000/svg"
   xmlns:sodipodi="http://sodipodi.sourceforge.net/DTD/sodipodi-0.dtd"
   xmlns:inkscape="http://www.inkscape.org/namespaces/inkscape"
   id="svg2"
   version="1.1"
   inkscape:version="0.47 r22583"
   width="20"
   height="24"
   sodipodi:docname="longaUp.svg">
  <sodipodi:namedview
     pagecolor="#ffffff"
     bordercolor="#666666"
     borderopacity="1"
     objecttolerance="10"
     gridtolerance="10"
     guidetolerance="10"
     inkscape:pageopacity="0"
     inkscape:pageshadow="2"
     inkscape:window-width="756"
     inkscape:window-height="482"
     id="namedview4"
     showgrid="false"
     inkscape:zoom="9.8333333"
     inkscape:cx="31.152542"
     inkscape:cy="11.649199"
     inkscape:window-x="857"
     inkscape:window-y="119"
     inkscape:window-maximized="0"
     inkscape:current-layer="svg2" />
  <metadata
     id="metadata8">
    <rdf:RDF>
      <cc:Work
         rdf:about="">
        <dc:format>image/svg+xml</dc:format>
        <dc:type
           rdf:resource="http://purl.org/dc/dcmitype/StillImage" />
        <dc:title />
      </cc:Work>
    </rdf:RDF>
  </metadata>
  <defs
     id="defs6">
    <inkscape:perspective
       id="perspective10"
       inkscape:persp3d-origin="0.5 : 0.33333333 : 1"
       inkscape:vp_z="1 : 0.5 : 1"
       inkscape:vp_y="0 : 1000 : 0"
       inkscape:vp_x="0 : 0.5 : 1"
       sodipodi:type="inkscape:persp3d" />
  </defs>
  <g
     style="font-size:20px;font-style:normal;font-variant:normal;font-weight:normal;font-stretch:normal;text-align:start;line-height:125%;writing-mode:lr-tb;text-anchor:start;fill:#000000;fill-opacity:1;stroke:none;font-family:MScore;-inkscape-font-specification:MScore"
     id="text2816">
    <path
       d="m 9.1294918,15.85017 c 1.3066602,3e-6 2.3599922,0.213336 3.1600002,0.64 0.799991,0.413335 1.326657,0.860002 1.58,1.34 l 0,-16.4599996 c -10e-6,-0.1466493 0.04666,-0.2666492 0.14,-0.36 0.106656,-0.106649 0.226656,-0.15998228 0.36,-0.16000004 0.133323,1.776e-5 0.246656,0.053351 0.34,0.16000004 0.106656,0.093351 0.159989,0.2133507 0.16,0.36 l 0,19.4799996 c -1.1e-5,0.146665 -0.05334,0.266665 -0.16,0.36 -0.09334,0.106664 -0.206677,0.159998 -0.34,0.16 -0.133344,-2e-6 -0.253344,-0.05334 -0.36,-0.16 -0.09334,-0.09334 -0.14001,-0.213335 -0.14,-0.36 l 0,-1.46 c -0.253343,0.479999 -0.780009,0.926665 -1.58,1.34 -0.800008,0.426664 -1.85334,0.639998 -3.1600002,0.64 -1.3200037,-2e-6 -2.3800026,-0.213336 -3.18,-0.64 -0.800001,-0.413335 -1.3266672,-0.860001 -1.58,-1.34 l 0,1.46 c -2e-7,0.146665 -0.053333,0.266665 -0.16,0.36 -0.093333,0.106664 -0.2066665,0.159998 -0.34,0.16 -0.1333329,-2e-6 -0.2466662,-0.05334 -0.34,-0.16 -0.106666,-0.09334 -0.1599992,-0.213335 -0.16,-0.36 l 0,-4.48 c 8e-7,-0.146664 0.053334,-0.266664 0.16,-0.36 0.093334,-0.106664 0.2066671,-0.159997 0.34,-0.16 0.1333335,3e-6 0.2466667,0.05334 0.34,0.16 0.1066665,0.09334 0.1599998,0.213336 0.16,0.36 l 0,1.46 c 0.2533328,-0.479998 0.779999,-0.926665 1.58,-1.34 0.7999974,-0.426664 1.8599963,-0.639997 3.18,-0.64 m -0.66,0.52 c -0.4666705,3e-6 -0.8133369,0.160002 -1.04,0.48 -0.2266697,0.320002 -0.340003,0.746668 -0.34,1.28 -3e-6,0.613334 0.1599969,1.133333 0.48,1.56 0.3333296,0.439999 0.6933292,0.739999 1.08,0.9 0.3866618,0.173332 0.7599947,0.259998 1.12,0.26 0.4666602,-2e-6 0.8133272,-0.160002 1.0400002,-0.48 0.22666,-0.320001 0.339993,-0.746667 0.34,-1.28 -7e-6,-0.613333 -0.166674,-1.133332 -0.5,-1.56 -0.320006,-0.439998 -0.6733394,-0.739998 -1.0600002,-0.9 -0.3866717,-0.173331 -0.7600047,-0.259997 -1.12,-0.26"
       style=""
       id="path2815" />
  </g>
</svg>
