<svg xmlns="http://www.w3.org/2000/svg" xmlns:xlink="http://www.w3.org/1999/xlink" width="24" height="24" version="1.1" viewBox="0 0 24 24"><title>measure</title><desc>Created with Sketch.</desc><g id="Original-24" fill="none" fill-rule="evenodd" stroke="none" stroke-width="1"><g id="measure"><g><rect id="rect5522" width="24" height="24" x="0" y="0" transform="translate(12.000297, 11.999984) rotate(90.000000) translate(-12.000297, -11.999984)"/><path id="rect5528" fill="#3B3F45" d="M1.0001565,3.000015 L1.0001565,4.000005 L3.000156,4.000005 L3.000156,7.000005 L1.0001565,7.000005 L1.0001565,8.00001 L3.000156,8.00001 L3.000156,11.00001 L1.0001565,11.00001 L1.0001565,12.000015 L3.000156,12.000015 L3.000156,15.000015 L1.0001565,15.000015 L1.0001565,16.000005 L3.000156,16.000005 L3.000156,19.000005 L1.0001565,19.000005 L1.0001565,20.00001 L23.0001555,20.00001 L23.0001555,19.000005 L21.000156,19.000005 L21.000156,16.000005 L23.0001555,16.000005 L23.0001555,15.000015 L21.000156,15.000015 L21.000156,12.000015 L23.0001555,12.000015 L23.0001555,11.00001 L21.000156,11.00001 L21.000156,8.00001 L23.0001555,8.00001 L23.0001555,7.000005 L21.000156,7.000005 L21.000156,4.000005 L23.0001555,4.000005 L23.0001555,3.000015 L21.000156,3.000015 L20.000157,3.000015 L4.0001565,3.000015 L3.000156,3.000015 L1.0001565,3.000015 Z M4.0001565,4.000005 L20.000157,4.000005 L20.000157,7.000005 L4.0001565,7.000005 L4.0001565,4.000005 Z M4.0001565,8.00001 L20.000157,8.00001 L20.000157,11.00001 L4.0001565,11.00001 L4.0001565,8.00001 Z M4.0001565,12.000015 L20.000157,12.000015 L20.000157,15.000015 L4.0001565,15.000015 L4.0001565,12.000015 Z M4.0001565,16.000005 L20.000157,16.000005 L20.000157,19.000005 L4.0001565,19.000005 L4.0001565,16.000005 Z"/></g></g></g></svg>