<?xml version="1.0" encoding="UTF-8" standalone="no"?>
<!-- Created with Inkscape (http://www.inkscape.org/) -->

<svg
   xmlns:dc="http://purl.org/dc/elements/1.1/"
   xmlns:cc="http://creativecommons.org/ns#"
   xmlns:rdf="http://www.w3.org/1999/02/22-rdf-syntax-ns#"
   xmlns:svg="http://www.w3.org/2000/svg"
   xmlns="http://www.w3.org/2000/svg"
   xmlns:sodipodi="http://sodipodi.sourceforge.net/DTD/sodipodi-0.dtd"
   xmlns:inkscape="http://www.inkscape.org/namespaces/inkscape"
   width="16px"
   height="16px"
   id="svg2998"
   version="1.1"
   inkscape:version="0.48.4 r9939"
   sodipodi:docname="media-playback-loop.svg">
  <defs
     id="defs3000" />
  <sodipodi:namedview
     id="base"
     pagecolor="#ffffff"
     bordercolor="#666666"
     borderopacity="1.0"
     inkscape:pageopacity="0.0"
     inkscape:pageshadow="2"
     inkscape:zoom="16"
     inkscape:cx="-5.5053789"
     inkscape:cy="16.374596"
     inkscape:current-layer="layer1"
     showgrid="true"
     inkscape:grid-bbox="true"
     inkscape:document-units="px"
     inkscape:window-width="1920"
     inkscape:window-height="1123"
     inkscape:window-x="0"
     inkscape:window-y="25"
     inkscape:window-maximized="1" />
  <metadata
     id="metadata3003">
    <rdf:RDF>
      <cc:Work
         rdf:about="">
        <dc:format>image/svg+xml</dc:format>
        <dc:type
           rdf:resource="http://purl.org/dc/dcmitype/StillImage" />
        <dc:title />
      </cc:Work>
    </rdf:RDF>
  </metadata>
  <g
     id="layer1"
     inkscape:label="Layer 1"
     inkscape:groupmode="layer">
    <path
       inkscape:connector-curvature="0"
       d="M 8.0005168,12.43968 C 10.451589,12.434992 12.4351,10.451431 12.439755,8.0002587 12.435067,5.5480508 10.451589,3.5639406 8.0005168,3.5598023 5.5484109,3.563943 3.564382,5.5480508 3.5602445,8.0002587 c 0,0.9894687 0.3253266,1.8956632 0.8720211,2.6327213 L 5.3544562,9.7112695 6.5212882,14.071037 2.1627352,12.902088 3.140268,11.924515 C 2.2729016,10.852805 1.75,9.4847212 1.75,8.0002587 1.7515625,4.5482375 4.5486383,1.7510344 8.0005168,1.75 11.452913,1.7510312 14.25,4.5482375 14.25,8.0002587 14.25,11.45228 11.452913,14.25 8.0005168,14.25 l 0,-1.81032 z"
       id="path4" />
  </g>
</svg>
