<?xml version="1.0" encoding="UTF-8" standalone="no"?>
<svg
   xmlns:dc="http://purl.org/dc/elements/1.1/"
   xmlns:cc="http://creativecommons.org/ns#"
   xmlns:rdf="http://www.w3.org/1999/02/22-rdf-syntax-ns#"
   xmlns:svg="http://www.w3.org/2000/svg"
   xmlns="http://www.w3.org/2000/svg"
   xmlns:sodipodi="http://sodipodi.sourceforge.net/DTD/sodipodi-0.dtd"
   xmlns:inkscape="http://www.inkscape.org/namespaces/inkscape"
   height="16"
   version="1.1"
   width="16.012447"
   id="svg8"
   sodipodi:docname="media-playback-countin.svg"
   inkscape:version="0.92.4 (5da689c313, 2019-01-14)">
  <metadata
     id="metadata14">
    <rdf:RDF>
      <cc:Work
         rdf:about="">
        <dc:format>image/svg+xml</dc:format>
        <dc:type
           rdf:resource="http://purl.org/dc/dcmitype/StillImage" />
      </cc:Work>
    </rdf:RDF>
  </metadata>
  <defs
     id="defs12" />
  <sodipodi:namedview
     pagecolor="#ffffff"
     bordercolor="#666666"
     borderopacity="1"
     objecttolerance="10"
     gridtolerance="10"
     guidetolerance="10"
     inkscape:pageopacity="0"
     inkscape:pageshadow="2"
     inkscape:window-width="1920"
     inkscape:window-height="1017"
     id="namedview10"
     showgrid="false"
     inkscape:zoom="45.254834"
     inkscape:cx="6.1939894"
     inkscape:cy="8.2243162"
     inkscape:window-x="-8"
     inkscape:window-y="-8"
     inkscape:window-maximized="1"
     inkscape:current-layer="svg8" />
  <g
     transform="translate(-292.98736,-178.99999)"
     id="g6">
    <path
       d="m 301.57417,182.94827 c -1.93785,0.23409 -3.19777,0.53966 -4.93343,1.1519 -0.60613,0.21476 -1.22382,0.50393 -1.57688,1.07146 -0.97744,1.42159 -1.24817,4.1052 -1.7824,5.73332 -0.18489,0.56105 -0.34161,1.13758 -0.28077,1.73413 10e-4,0.78681 0.007,2.36043 0.007,2.36043 2.27514,-0.27125 5.28472,-0.39419 6.89707,-1.80578 1.19658,-1.15007 2.51126,-2.91795 2.97274,-4.57521 0.1662,-0.59684 0.21944,-1.31073 -0.29542,-1.83772 -0.382,-0.391 -0.97547,-0.267 -1.38173,0.0332 -1.25305,0.92593 -2.22382,2.15537 -3.38259,3.18085 0.47735,-0.54188 0.40126,-1.30869 0.60956,-1.95673 0.2804,-0.87235 1.12709,-1.38768 1.75863,-2.02704 0.67994,-0.68836 1.74351,-1.00904 2.64335,-0.59151 0.70571,0.32745 1.08836,1.14678 1.04556,1.89979 0.13729,-0.46544 -0.0612,-1.56229 -0.2552,-2.45275 -0.19403,-0.89047 -0.24003,-2.41759 -2.04529,-1.91834 z"
       style="fill:#3b3f45"
       id="path2"
       inkscape:connector-curvature="0"
       sodipodi:nodetypes="cccccccssscssscccc" />
    <path
       d="m 308.25,179.09375 c -0.11267,0.028 -0.21211,0.0942 -0.28125,0.1875 l -4.75,5.65625 c -0.26308,0.31327 0.3713,1.03038 0.51798,0.85702 l 4.98202,-5.88827 c 0.29674,-0.35711 -0.0111,-0.89063 -0.46875,-0.8125 z"
       style="fill:#3b3f45;stroke-width:1"
       id="path4"
       inkscape:connector-curvature="0"
       sodipodi:nodetypes="ccsscc" />
  </g>
</svg>
