<?xml version="1.0" encoding="UTF-8"?>
<svg width="24px" height="24px" viewBox="0 0 24 24" version="1.1" xmlns="http://www.w3.org/2000/svg" xmlns:xlink="http://www.w3.org/1999/xlink">
    <!-- Generator: Sketch 41.2 (35397) - http://www.bohemiancoding.com/sketch -->
    <title>media-playback-metronome</title>
    <desc>Created with Sketch.</desc>
    <defs></defs>
    <g id="Original-24" stroke="none" stroke-width="1" fill="none" fill-rule="evenodd">
        <g id="media-playback-metronome">
            <g>
                <rect id="rect27705-9" x="0" y="0" width="24" height="24"></rect>
                <path d="M8.56260615,2.00000056 L4.81260613,22.0000007 L18.6563562,22.0000007 L17.1251062,14.0000006 L15.4376062,16.9062506 L16.0001062,20.0000007 L7.46885615,20.0000007 L10.4063562,4.00000057 L13.0626062,4.00000057 L13.4063562,6.00000058 C13.8869362,5.45923058 14.5078062,5.03722058 15.2188562,4.78125058 C15.2714562,4.76235058 15.3214262,4.73575058 15.3751062,4.71875058 C15.3326762,4.56041058 14.9063562,2.00000056 14.9063562,2.00000056 L8.56260615,2.00000056 Z" id="path17616-0" fill="#3B3F45"></path>
                <polygon id="rect17622-4" fill="#3B3F45" points="17.7188562 5.59375058 11.1251062 17.0000006 13.0938562 17.0000006 19.1876062 6.43750059"></polygon>
                <path d="M19.2341626,9.02188519 C19.2341626,10.4022529 18.1151618,11.5212659 16.7347941,11.5212659 C15.3544142,11.5212659 14.2354134,10.4022529 14.2354134,9.02188519 C14.2354134,7.64151745 15.3544142,6.5225045 16.7347941,6.5225045 C18.1151618,6.5225045 19.2341626,7.64151745 19.2341626,9.02188519 Z" id="path17657-3-4" fill="#3B3F45" transform="translate(16.734788, 9.021885) rotate(75.000000) translate(-16.734788, -9.021885) "></path>
            </g>
        </g>
    </g>
</svg>