<?xml version="1.0" encoding="UTF-8"?>
<svg width="24px" height="24px" viewBox="0 0 24 24" version="1.1" xmlns="http://www.w3.org/2000/svg" xmlns:xlink="http://www.w3.org/1999/xlink">
    <!-- Generator: Sketch 41.2 (35397) - http://www.bohemiancoding.com/sketch -->
    <title>midi-input</title>
    <desc>Created with Sketch.</desc>
    <defs></defs>
    <g id="Original-24" stroke="none" stroke-width="1" fill="none" fill-rule="evenodd">
        <g id="midi-input" fill="#3B3F45">
            <path d="M7.99962017,11.9999976 C7.99962017,12.8284252 7.32804335,13.4999976 6.49961427,13.4999976 C5.67118519,13.4999976 4.99962314,12.8284252 4.99962314,11.9999976 C4.99962314,11.1715715 5.67118519,10.4999976 6.49961427,10.4999976 C7.32804335,10.4999976 7.99962017,11.1715715 7.99962017,11.9999976 Z" id="path4340-1"></path>
            <path d="M13.5007352,6.49999262 C13.5007352,7.32842023 12.8291584,7.99999261 12.0007293,7.99999261 C11.1723002,7.99999261 10.5007381,7.32842023 10.5007381,6.49999262 C10.5007381,5.67156649 11.1723002,4.99999263 12.0007293,4.99999263 C12.8291584,4.99999263 13.5007352,5.67156649 13.5007352,6.49999262 Z" id="path13787-3"></path>
            <path d="M18.9996119,11.9999976 C18.9996119,12.8284252 18.3280351,13.4999976 17.499606,13.4999976 C16.6711769,13.4999976 15.9996148,12.8284252 15.9996148,11.9999976 C15.9996148,11.1715715 16.6711769,10.4999976 17.499606,10.4999976 C18.3280351,10.4999976 18.9996119,11.1715715 18.9996119,11.9999976 Z" id="path13789-5" transform="translate(17.499613, 11.999998) scale(-1, 1) translate(-17.499613, -11.999998) "></path>
            <path d="M9.49962017,8.50000262 C9.49962017,9.32843023 8.82804335,10.0000026 7.99961427,10.0000026 C7.17118519,10.0000026 6.49962314,9.32843023 6.49962314,8.50000262 C6.49962314,7.67157649 7.17118519,7.00000263 7.99961427,7.00000263 C8.82804335,7.00000263 9.49962017,7.67157649 9.49962017,8.50000262 Z" id="path27671-4"></path>
            <path d="M17.4996152,8.50000262 C17.4996152,9.32843023 16.8280384,10.0000026 15.9996093,10.0000026 C15.1711802,10.0000026 14.4996181,9.32843023 14.4996181,8.50000262 C14.4996181,7.67157649 15.1711802,7.00000263 15.9996093,7.00000263 C16.8280384,7.00000263 17.4996152,7.67157649 17.4996152,8.50000262 Z" id="path27675-1"></path>
            <rect id="rect5501" x="9.999819" y="16.99995" width="4.00000005" height="4.00000005"></rect>
            <path d="M12.0076065,1.999995 C6.4847565,1.999995 2.0076075,6.47715 2.0076075,12 C2.0076075,17.52285 6.4847565,21.99999 12.0076065,21.99999 C17.530458,21.99999 22.007607,17.52285 22.007607,12 C22.007607,6.47715 17.530458,1.999995 12.0076065,1.999995 L12.0076065,1.999995 Z M12.0076065,3.99999 C16.425888,3.99999 20.0076075,7.58172 20.0076075,12 C20.0076075,16.41828 16.425888,19.999995 12.0076065,19.999995 C7.5893265,19.999995 4.007607,16.41828 4.007607,12 C4.007607,7.58172 7.5893265,3.99999 12.0076065,3.99999 Z" id="path3546"></path>
        </g>
    </g>
</svg>