<?xml version="1.0" encoding="UTF-8" standalone="no"?>
<svg
   xmlns:dc="http://purl.org/dc/elements/1.1/"
   xmlns:cc="http://creativecommons.org/ns#"
   xmlns:rdf="http://www.w3.org/1999/02/22-rdf-syntax-ns#"
   xmlns:svg="http://www.w3.org/2000/svg"
   xmlns="http://www.w3.org/2000/svg"
   id="svg17"
   version="1.1"
   viewBox="0 0 24 24"
   height="24px"
   width="24px">
  <metadata
     id="metadata21">
    <rdf:RDF>
      <cc:Work
         rdf:about="">
        <dc:format>image/svg+xml</dc:format>
        <dc:type
           rdf:resource="http://purl.org/dc/dcmitype/StillImage" />
        <dc:title>midi-input</dc:title>
      </cc:Work>
    </rdf:RDF>
  </metadata>
  <!-- Generator: Sketch 41.2 (35397) - http://www.bohemiancoding.com/sketch -->
  <title
     id="title2">midi-input</title>
  <desc
     id="desc4">Created with Sketch.</desc>
  <defs
     id="defs6" />
  <path
     id="path4340-1"
     d="m 7.9996202,11.999998 c 0,0.828427 -0.6715769,1.5 -1.5000059,1.5 -0.8284291,0 -1.4999912,-0.671573 -1.4999912,-1.5 0,-0.828426 0.6715621,-1.5 1.4999912,-1.5 0.828429,0 1.5000059,0.671574 1.5000059,1.5 z"
     style="fill:#3b3f45;fill-rule:evenodd;stroke:none;stroke-width:1" />
  <path
     id="path13787-3"
     d="m 13.500735,6.4999926 c 0,0.8284276 -0.671577,1.5 -1.500006,1.5 -0.828429,0 -1.499991,-0.6715724 -1.499991,-1.5 0,-0.8284261 0.671562,-1.5 1.499991,-1.5 0.828429,0 1.500006,0.6715739 1.500006,1.5 z"
     style="fill:#3b3f45;fill-rule:evenodd;stroke:none;stroke-width:1" />
  <path
     id="path13789-5"
     d="m 15.999614,11.999998 c 0,0.828427 0.671577,1.5 1.500006,1.5 0.828429,0 1.499991,-0.671573 1.499991,-1.5 0,-0.828426 -0.671562,-1.5 -1.499991,-1.5 -0.828429,0 -1.500006,0.671574 -1.500006,1.5 z"
     style="fill:#3b3f45;fill-rule:evenodd;stroke:none;stroke-width:1" />
  <path
     id="path27671-4"
     d="m 9.601315,8.1694941 c 0,0.8284276 -0.671577,1.5000004 -1.500006,1.5000004 -0.828429,0 -1.499991,-0.6715728 -1.499991,-1.5000004 0,-0.8284261 0.671562,-1.5 1.499991,-1.5 0.828429,0 1.500006,0.6715739 1.500006,1.5 z"
     style="fill:#3b3f45;fill-rule:evenodd;stroke:none;stroke-width:1" />
  <path
     id="path27675-1"
     d="m 17.347073,8.1694941 c 0,0.8284276 -0.671577,1.5000004 -1.500006,1.5000004 -0.828429,0 -1.499991,-0.6715728 -1.499991,-1.5000004 0,-0.8284261 0.671562,-1.5 1.499991,-1.5 0.828429,0 1.500006,0.6715739 1.500006,1.5 z"
     style="fill:#3b3f45;fill-rule:evenodd;stroke:none;stroke-width:1" />
  <rect
     height="4"
     width="4"
     y="16.99995"
     x="9.9998188"
     id="rect5501"
     style="fill:#3b3f45;fill-rule:evenodd;stroke:none;stroke-width:1" />
  <path
     id="path3546"
     d="M 12.007607,1.999995 C 6.4847565,1.999995 2.0076075,6.47715 2.0076075,12 c 0,5.52285 4.477149,9.99999 9.9999995,9.99999 5.522851,0 10,-4.47714 10,-9.99999 0,-5.52285 -4.477149,-10.000005 -10,-10.000005 z m 0,1.999995 c 4.418281,0 8,3.58173 8,8.00001 0,4.41828 -3.581719,7.999995 -8,7.999995 -4.4182805,0 -8,-3.581715 -8,-7.999995 0,-4.41828 3.5817195,-8.00001 8,-8.00001 z"
     style="fill:#3b3f45;fill-rule:evenodd;stroke:none;stroke-width:1" />
</svg>
