<?xml version="1.0" encoding="UTF-8" standalone="no"?>
<svg
   xmlns:dc="http://purl.org/dc/elements/1.1/"
   xmlns:cc="http://creativecommons.org/ns#"
   xmlns:rdf="http://www.w3.org/1999/02/22-rdf-syntax-ns#"
   xmlns:svg="http://www.w3.org/2000/svg"
   xmlns="http://www.w3.org/2000/svg"
   id="svg28"
   version="1.1"
   viewBox="0 0 8.4666665 8.4666669"
   height="32"
   width="32">
  <defs
     id="defs22" />
  <metadata
     id="metadata25">
    <rdf:RDF>
      <cc:Work
         rdf:about="">
        <dc:format>image/svg+xml</dc:format>
        <dc:type
           rdf:resource="http://purl.org/dc/dcmitype/StillImage" />
        <dc:title></dc:title>
      </cc:Work>
    </rdf:RDF>
  </metadata>
  <g
     transform="translate(0,-288.53332)"
     id="layer1">
    <g
       id="Derived-24"
       style="fill:none;fill-rule:evenodd;stroke:none;stroke-width:1"
       transform="matrix(0.26458333,0,0,0.26458333,2.38125,289.59166)">
      <g
         id="sound-while-editing"
         style="fill:#3b3f45" />
    </g>
    <path
       id="rect1456"
       transform="matrix(0.26458333,0,0,0.26458333,0,288.53332)"
       d="M 8.1113281,2.7558594 C 8.6950913,2.8883318 9.2383577,3.1250598 9.7246094,3.4414062 L 8.9179688,4.2460938 C 8.6648583,4.1020937 8.3957414,3.985052 8.1113281,3.9003906 Z M 10.771484,3.1230469 11.503906,3.8554688 3.2285156,12.132812 2.4960938,11.400391 Z M 7,3.1835938 V 6.1640625 L 3.8710938,9.2949219 H 2 V 5.9609375 h 2.2226562 z m 4.1875,1.71875 C 11.69953,5.6863312 12,6.6207295 12,7.6269531 12,10.00473 10.339106,11.99445 8.1113281,12.5 v -1.144531 c 1.605555,-0.47777 2.7773439,-1.9674072 2.7773439,-3.7285159 0,-0.6978141 -0.18568,-1.3496156 -0.507813,-1.9160156 z M 9.3359375,6.7539062 C 9.438069,7.0262212 9.5,7.3181657 9.5,7.6269531 9.5,8.6103106 8.9335507,9.455747 8.1113281,9.8613281 V 7.9785156 Z M 23,7.2304688 C 27.01,8.1404656 30,11.720025 30,16 c 0,4.280013 -2.99,7.859534 -7,8.769531 V 22.708984 C 25.89,21.848991 28,19.170003 28,16 28,12.829997 25.89,10.149056 23,9.2890625 Z M 21,8 v 16 l -5,-5 h -4 v -6 h 4 z M 7,9.0898438 V 12.072266 L 5.5097656,10.582031 Z M 23,11.96875 c 1.48,0.739994 2.5,2.261259 2.5,4.03125 0,1.770028 -1.02,3.289516 -2.5,4.019531 z M 8.1113281,19.755859 c 0.5837632,0.132473 1.1270296,0.369201 1.6132813,0.685547 l -0.8066406,0.804688 c -0.2531105,-0.144 -0.5222274,-0.261042 -0.8066407,-0.345703 z m 2.6601559,0.367188 0.732422,0.732422 -8.2753904,8.277343 -0.7324218,-0.732421 z M 7,20.183594 v 2.980468 l -3.1289062,3.13086 H 2 v -3.333984 h 2.2226562 z m 4.1875,1.71875 C 11.69953,22.686331 12,23.62073 12,24.626953 12,27.00473 10.339106,28.99445 8.1113281,29.5 v -1.144531 c 1.605555,-0.47777 2.7773439,-1.967407 2.7773439,-3.728516 0,-0.697814 -0.18568,-1.349616 -0.507813,-1.916015 z M 9.3359375,23.753906 C 9.438069,24.026221 9.5,24.318166 9.5,24.626953 c 0,0.983358 -0.5664493,1.828794 -1.3886719,2.234375 V 24.978516 Z M 7,26.089844 v 2.982422 L 5.5097656,27.582031 Z"
       style="opacity:1;vector-effect:none;fill:#3b3f45;fill-opacity:1;fill-rule:nonzero;stroke:none;stroke-width:5.99999952;stroke-linecap:butt;stroke-linejoin:miter;stroke-miterlimit:4;stroke-dasharray:none;stroke-dashoffset:0;stroke-opacity:1" />
    <g
       style="stroke-width:2.79999995"
       id="layer1-3"
       transform="matrix(0.35714286,0,0,0.35714286,0.34017857,190.48998)">
      <g
         transform="matrix(0.42627315,0,0,0.42627315,-0.88194462,287.65138)"
         style="fill:none;fill-rule:evenodd;stroke:none;stroke-width:1.73793089"
         id="Derived-24-6">
        <g
           style="fill:#3b3f45;stroke-width:1.73793089"
           id="sound-while-editing-7" />
      </g>
    </g>
  </g>
</svg>
