<?xml version="1.0" encoding="UTF-8" standalone="no"?>
<svg
   xmlns:dc="http://purl.org/dc/elements/1.1/"
   xmlns:cc="http://creativecommons.org/ns#"
   xmlns:rdf="http://www.w3.org/1999/02/22-rdf-syntax-ns#"
   xmlns:svg="http://www.w3.org/2000/svg"
   xmlns="http://www.w3.org/2000/svg"
   id="svg28"
   version="1.1"
   viewBox="0 0 8.4666665 8.4666669"
   height="32"
   width="32">
  <defs
     id="defs22" />
  <metadata
     id="metadata25">
    <rdf:RDF>
      <cc:Work
         rdf:about="">
        <dc:format>image/svg+xml</dc:format>
        <dc:type
           rdf:resource="http://purl.org/dc/dcmitype/StillImage" />
        <dc:title></dc:title>
      </cc:Work>
    </rdf:RDF>
  </metadata>
  <g
     transform="translate(0,-288.53332)"
     id="layer1">
    <g
       id="Derived-24"
       style="fill:none;fill-rule:evenodd;stroke:none;stroke-width:0.62068963"
       transform="matrix(0.42627315,0,0,0.42627315,-0.88194462,287.65138)">
      <g
         id="sound-while-editing"
         style="fill:#3b3f45;stroke-width:0.62068963">
        <path
           d="M 18.554957,4.1721439 4.1721442,18.554956 5.445043,19.827856 19.827856,5.4450426 Z M 13.931295,3.5327258 v 1.9886481 c 0.494291,0.1470902 0.963519,0.3513919 1.403408,0.6016276 l 1.399895,-1.399896 C 15.889526,4.1730739 14.945835,3.762958 13.931295,3.5327258 Z M 12,4.2759815 7.1729342,9.1030479 H 3.3103451 V 14.896931 H 6.5607723 L 12,9.4577032 Z m 7.278055,2.9882395 -1.403408,1.4034073 c 0.559847,0.9843294 0.883714,2.1195747 0.883714,3.3323617 0,3.060689 -2.036722,5.64827 -4.827066,6.478615 v 1.988648 c 3.871724,-0.878621 6.75836,-4.334849 6.75836,-8.467263 0,-1.748797 -0.521728,-3.3732084 -1.4116,-4.735769 z m -3.217654,3.217654 -2.129106,2.129106 v 3.270326 c 1.428966,-0.704828 2.413533,-2.172351 2.413533,-3.881317 0,-0.536677 -0.106927,-1.044896 -0.284427,-1.518115 z M 12,14.542276 9.4085539,17.133722 12,19.723998 Z"
           style="color:#3b3f45;font-style:normal;font-variant:normal;font-weight:normal;font-stretch:normal;font-size:medium;line-height:normal;font-family:sans-serif;font-variant-ligatures:normal;font-variant-position:normal;font-variant-caps:normal;font-variant-numeric:normal;font-variant-alternates:normal;font-feature-settings:normal;text-indent:0;text-align:start;text-decoration:none;text-decoration-line:none;text-decoration-style:solid;text-decoration-color:#3b3f45;letter-spacing:normal;word-spacing:normal;text-transform:none;writing-mode:lr-tb;direction:ltr;text-orientation:mixed;dominant-baseline:auto;baseline-shift:baseline;text-anchor:start;white-space:normal;shape-padding:0;clip-rule:nonzero;display:inline;overflow:visible;visibility:visible;opacity:1;isolation:auto;mix-blend-mode:normal;color-interpolation:sRGB;color-interpolation-filters:linearRGB;solid-color:#3b3f45;solid-opacity:1;vector-effect:none;fill:#3b3f45;fill-opacity:1;fill-rule:nonzero;stroke:none;stroke-width:1.8626554;stroke-linecap:butt;stroke-linejoin:miter;stroke-miterlimit:4;stroke-dasharray:none;stroke-dashoffset:0;stroke-opacity:1;color-rendering:auto;image-rendering:auto;shape-rendering:auto;text-rendering:auto;enable-background:accumulate"
           id="path1398" />
      </g>
    </g>
  </g>
</svg>
