<?xml version="1.0" encoding="UTF-8" standalone="no"?>
<svg
   xmlns:dc="http://purl.org/dc/elements/1.1/"
   xmlns:cc="http://creativecommons.org/ns#"
   xmlns:rdf="http://www.w3.org/1999/02/22-rdf-syntax-ns#"
   xmlns:svg="http://www.w3.org/2000/svg"
   xmlns="http://www.w3.org/2000/svg"
   xmlns:sodipodi="http://sodipodi.sourceforge.net/DTD/sodipodi-0.dtd"
   xmlns:inkscape="http://www.inkscape.org/namespaces/inkscape"
   id="svg4649"
   version="1.1"
   viewBox="0 0 32 32"
   height="32"
   width="32"
   sodipodi:docname="mixer-dial.svg"
   inkscape:version="0.92.2 5c3e80d, 2017-08-06">
  <sodipodi:namedview
     pagecolor="#ffffff"
     bordercolor="#666666"
     borderopacity="1"
     objecttolerance="10"
     gridtolerance="10"
     guidetolerance="10"
     inkscape:pageopacity="0"
     inkscape:pageshadow="2"
     inkscape:window-width="1920"
     inkscape:window-height="1015"
     id="namedview7"
     showgrid="false"
     inkscape:zoom="14.75"
     inkscape:cx="13.382109"
     inkscape:cy="17.475684"
     inkscape:window-x="0"
     inkscape:window-y="0"
     inkscape:window-maximized="1"
     inkscape:current-layer="layer1" />
  <defs
     id="defs4643" />
  <metadata
     id="metadata4646">
    <rdf:RDF>
      <cc:Work
         rdf:about="">
        <dc:format>image/svg+xml</dc:format>
        <dc:type
           rdf:resource="http://purl.org/dc/dcmitype/StillImage" />
        <dc:title></dc:title>
      </cc:Work>
    </rdf:RDF>
  </metadata>
  <g
     transform="translate(0,-13.714286)"
     id="layer1">
    <path
       id="path5206-6"
       style="fill:#3b3f45;fill-opacity:1;stroke:#3b3f45;stroke-width:1;stroke-miterlimit:4;stroke-dasharray:none;stroke-opacity:1"
       d="m 26.515738,29.927521 c -10e-7,5.858279 -4.765112,10.607353 -10.643175,10.607352 -5.8780626,0 -10.6431732,-4.749073 -10.6431738,-10.607352 -5e-7,-5.07916 3.5819265,-9.324532 8.3655708,-10.363917 0.733788,-0.159437 0.123878,4.333497 2.427561,4.412814 2.303678,0.07932 1.602253,-4.547663 2.427561,-4.343074 4.632668,1.148412 8.065657,5.321735 8.065656,10.294177 z M 13.547465,17.012374 c -0.367054,0.557209 -1.334039,0.817466 -1.93051,0.518365 L 10.225988,16.8332 c -0.9736302,0.424631 -1.8972495,0.955719 -2.7539793,1.583617 0,0 -0.3547788,0.64002 -0.09394,1.55712 0.1826283,0.642071 -0.7822535,1.588116 -1.4239586,1.404146 -0.9126205,-0.261656 -1.5456759,0.09423 -1.5456759,0.09423 -0.63226,0.851985 -1.1683576,1.771285 -1.598514,2.741127 l 0.7044,1.402671 c 0.2993358,0.596079 0.032434,1.561895 -0.5251592,1.927936 l -1.3073674,0.85826 c -0.1124303,0.987387 -0.1222674,1.983726 -0.029364,2.973139 0.1599468,0.496939 0.8816079,0.759921 1.3325618,1.056978 0.5572208,0.367065 0.8174758,1.334057 0.5183656,1.93051 l -0.6975412,1.390974 c 0.4246128,0.97364 0.9557262,1.897264 1.5836299,2.753975 l 1.5571043,0.09399 c 0.6663798,0.04024 1.3634918,0.75765 1.4041333,1.423992 l 0.094277,1.545673 c 0.8519759,0.632272 1.7712657,1.168358 2.7411027,1.598514 l 1.402696,-0.704411 c 0.596085,-0.29935 1.561946,-0.03249 1.927939,0.525141 l 0.858239,1.307411 c 0.987383,0.112477 1.983731,0.122481 2.973151,0.02949 0.06548,-0.0076 0.130958,-0.0175 0.196332,-0.02575 l 0.860771,-1.306687 c 0.367059,-0.557209 1.33404,-0.817466 1.930512,-0.518366 l 1.390968,0.697537 c 0.973629,-0.424624 1.897252,-0.955738 2.753981,-1.583634 l 0.09394,-1.55712 c 0.04019,-0.666292 0.757641,-1.363503 1.42396,-1.404122 l 1.545675,-0.09423 c 0.632264,-0.85201 1.960327,-2.020645 1.598515,-2.741128 l -0.704401,-1.402671 c -0.299336,-0.596077 -0.03245,-1.561895 0.525159,-1.927936 l 1.30737,-0.858259 c 0.101952,-1.129405 0.09975,-2.191131 0.0035,-3.169359 l -1.306691,-0.860759 c -0.557225,-0.367065 -0.817476,-1.334057 -0.518366,-1.93051 l 0.69754,-1.390973 c -0.424612,-0.97364 -0.955725,-1.897264 -1.583631,-2.754 l -1.557103,-0.09399 C 25.339741,21.365476 24.642627,20.6481 24.601985,19.98176 l -0.09427,-1.545673 c -0.851974,-0.632272 -1.771266,-1.16836 -2.741104,-1.598515 l -1.402698,0.704386 c -0.596086,0.299326 -1.56194,0.03249 -1.927935,-0.525139 l -2.494867,-2.571137 z" />
  </g>
</svg>
