<?xml version="1.0" encoding="UTF-8" standalone="no"?>
<svg
   xmlns:dc="http://purl.org/dc/elements/1.1/"
   xmlns:cc="http://creativecommons.org/ns#"
   xmlns:rdf="http://www.w3.org/1999/02/22-rdf-syntax-ns#"
   xmlns:svg="http://www.w3.org/2000/svg"
   xmlns="http://www.w3.org/2000/svg"
   id="svg8"
   version="1.1"
   viewBox="0 0 7.9374997 11.90625"
   height="45"
   width="30">
  <defs
     id="defs2" />
  <metadata
     id="metadata5">
    <rdf:RDF>
      <cc:Work
         rdf:about="">
        <dc:format>image/svg+xml</dc:format>
        <dc:type
           rdf:resource="http://purl.org/dc/dcmitype/StillImage" />
        <dc:title></dc:title>
      </cc:Work>
    </rdf:RDF>
  </metadata>
  <path
     id="rect823"
     transform="scale(0.26458333)"
     d="M 8 2 C 6.8919997 2 5.7596409 2.9183848 6 4 L 10 22 L 10 23 L 6 41 C 6 42.107999 6.8919997 43 8 43 L 22 43 C 23.108 43 24.240359 42.081614 24 41 L 20 23 L 20 22 L 24 4 C 24.240359 2.9183848 23.108 2 22 2 L 8 2 z M 7.5 4 L 22.5 4 L 18.427734 21.5 L 11.572266 21.5 L 7.5 4 z M 11.572266 23.5 L 18.427734 23.5 L 22.5 41 L 7.5 41 L 11.572266 23.5 z "
     style="opacity:1;vector-effect:none;fill:#3b3f45;fill-opacity:1;fill-rule:nonzero;stroke:none;stroke-width:1.99999988;stroke-linecap:butt;stroke-linejoin:round;stroke-miterlimit:4;stroke-dasharray:none;stroke-dashoffset:0;stroke-opacity:1" />
</svg>
