<svg xmlns="http://www.w3.org/2000/svg" xmlns:svg="http://www.w3.org/2000/svg" xmlns:xlink="http://www.w3.org/1999/xlink" id="svg28" width="32" height="32" version="1.1" viewBox="0 0 8.467 8.467"><defs id="defs22"><linearGradient id="linearGradient4599"><stop id="stop4595" offset="0" stop-color="#618569" stop-opacity="1"/><stop id="stop4597" offset="1" stop-color="#566d5b" stop-opacity="0"/></linearGradient><linearGradient id="linearGradient4605" x1="4.195" x2="4.191" y1="290.361" y2="295.123" gradientUnits="userSpaceOnUse" xlink:href="#linearGradient4599"/></defs><metadata id="metadata25"/><g id="layer1" transform="translate(0,-288.53332)"><circle id="path32" cx="4.233" cy="292.767" r="3.704" fill="#a9a9a9" fill-opacity="1" stroke="none" stroke-opacity="1" stroke-width=".265"/><path id="path4552-1-0" fill="#6c6c6c" fill-opacity="1" stroke="none" stroke-opacity="1" stroke-width=".265" d="m 7.2732044,292.43954 c 0.073048,-0.76338 -0.3126362,-1.59027 -0.9394394,-2.10939 -0.6268031,-0.51912 -1.483032,-0.83571 -2.1405976,-0.83571 -0.6575657,0 -1.4912279,0.33616 -2.0908597,0.8727 -0.5996318,0.53654 -0.9652333,1.41379 -0.9205384,2.07501 0.8740815,-1.16984 1.6469057,-2.6381 2.962032,-2.6381 1.3151265,0 2.3084979,1.54005 3.1294031,2.63549 z"/><circle id="path4542" cx="4.233" cy="292.767" r="2.91" fill="#146b24" fill-opacity="1" stroke="#000" stroke-opacity="1" stroke-width=".265"/><ellipse id="path4550" cx="4.268" cy="292.031" fill="url(#linearGradient4605)" fill-opacity="1" stroke="none" stroke-opacity="1" stroke-width=".199" rx="2.354" ry="1.854"/><path id="path4552" fill="#0c2b12" fill-opacity=".51" stroke="none" stroke-opacity="1" stroke-width=".265" d="m 6.9701172,293.31236 c -0.2397739,1.24612 -1.4193019,2.26147 -2.7344333,2.26147 -1.3151314,0 -2.5572334,-1.10392 -2.7367837,-2.21589 0.8244722,0.86392 1.4136325,1.36883 2.7287589,1.36883 1.3151263,0 2.2440139,-0.81507 2.7424581,-1.41441 z"/><path id="path4552-1" fill="#6c6c6c" fill-opacity="1" stroke="none" stroke-opacity="1" stroke-width=".265" d="m 7.5311815,294.19907 c -0.2397738,1.24612 -2.0642238,2.27801 -3.3793551,2.27801 -1.3151316,0 -3.003718,-1.1866 -3.18326827,-2.29857 0.53767807,0.74532 0.97234997,1.1421 1.44496747,1.4342 0.4726175,0.2921 1.0698754,0.50974 1.7274386,0.50974 0.6575632,0 1.4687479,-0.23019 1.9382783,-0.54888 0.4693144,-0.31854 0.7836309,-0.54991 1.451939,-1.3745 z"/><circle id="path32-6" cx="4.233" cy="292.767" r="3.704" fill="none" fill-opacity="1" stroke="#000" stroke-opacity="1" stroke-width=".265"/><g id="text4613" fill="#000" fill-opacity="1" stroke="none" stroke-width=".093" aria-label="S" font-family="sans-serif" font-size="3.735" font-style="normal" font-weight="normal" letter-spacing="0" transform="translate(-0.06614583,0.08268229)" word-spacing="0" style="line-height:1.25"><path id="path4615" stroke-width=".093" d="m 3.6539353,293.90217 c 0.041087,0.0261 0.1792903,0.11953 0.2614651,0.16062 0.1456734,0.0635 0.2988172,0.0896 0.4556963,0.0896 0.537871,0 0.8852461,-0.35111 0.8852461,-0.88151 0,-0.99356 -1.6659062,-0.51172 -1.6659062,-1.28865 0,-0.29881 0.2726707,-0.49678 0.5565471,-0.49678 0.4818429,0 0.7208967,0.45196 0.8329531,0.86283 H 5.0994637 V 291.3697 H 4.9687312 l -0.1830256,0.22411 C 4.60268,291.43693 4.393508,291.34355 4.150719,291.34355 c -0.4631668,0 -0.8068066,0.35111 -0.8068066,0.81428 0,0.34737 0.2129073,0.58643 0.5453415,0.67981 l 0.78066,0.22411 c 0.1867608,0.0486 0.3249638,0.22038 0.3249638,0.41087 0,0.33617 -0.2913468,0.53414 -0.6051049,0.53414 -0.5602824,0 -0.795601,-0.39967 -0.9487448,-0.90766 H 3.3177659 v 1.02719 h 0.1307325 z" font-family="Academico" font-size="3.735" font-stretch="normal" font-style="normal" font-variant="normal" font-weight="normal" text-anchor="start" writing-mode="lr-tb" style="-inkscape-font-specification:'Academico, Normal';font-variant-ligatures:normal;font-variant-caps:normal;font-variant-numeric:normal;font-feature-settings:normal;text-align:start"/></g></g></svg>