<?xml version="1.0" encoding="UTF-8" standalone="no"?>
<svg
   xmlns:dc="http://purl.org/dc/elements/1.1/"
   xmlns:cc="http://creativecommons.org/ns#"
   xmlns:rdf="http://www.w3.org/1999/02/22-rdf-syntax-ns#"
   xmlns:svg="http://www.w3.org/2000/svg"
   xmlns="http://www.w3.org/2000/svg"
   id="svg28"
   version="1.1"
   viewBox="0 0 8.4666665 8.4666669"
   height="32"
   width="32">
  <defs
     id="defs22" />
  <metadata
     id="metadata25">
    <rdf:RDF>
      <cc:Work
         rdf:about="">
        <dc:format>image/svg+xml</dc:format>
        <dc:type
           rdf:resource="http://purl.org/dc/dcmitype/StillImage" />
        <dc:title></dc:title>
      </cc:Work>
    </rdf:RDF>
  </metadata>
  <g
     transform="translate(0,-288.53332)"
     id="layer1">
    <g
       id="Derived-24"
       style="fill:none;fill-rule:evenodd;stroke:none;stroke-width:1"
       transform="matrix(0.26458333,0,0,0.26458333,2.38125,289.59166)">
      <g
         id="sound-while-editing"
         style="fill:#3b3f45" />
    </g>
    <path
       id="rect1456"
       transform="matrix(0.26458333,0,0,0.26458333,0,288.53332)"
       d="M 2 0 C 0.89200005 0 0 0.85255662 0 1.9121094 L 0 30.087891 C 0 31.147481 0.89200005 32 2 32 L 30 32 C 31.108 32 32 31.147481 32 30.087891 L 32 1.9121094 C 32 0.85255662 31.108 0 30 0 L 2 0 z M 8.1113281 2.7558594 C 8.6950913 2.8883318 9.2383577 3.1250598 9.7246094 3.4414062 L 8.9179688 4.2460938 C 8.6648583 4.1020937 8.3957414 3.985052 8.1113281 3.9003906 L 8.1113281 2.7558594 z M 10.771484 3.1230469 L 11.503906 3.8554688 L 3.2285156 12.132812 L 2.4960938 11.400391 L 10.771484 3.1230469 z M 7 3.1835938 L 7 6.1640625 L 3.8710938 9.2949219 L 2 9.2949219 L 2 5.9609375 L 4.2226562 5.9609375 L 7 3.1835938 z M 11.1875 4.9023438 C 11.69953 5.6863312 12 6.6207295 12 7.6269531 C 12 10.00473 10.339106 11.99445 8.1113281 12.5 L 8.1113281 11.355469 C 9.7168831 10.877699 10.888672 9.3880618 10.888672 7.6269531 C 10.888672 6.929139 10.702992 6.2773375 10.380859 5.7109375 L 11.1875 4.9023438 z M 9.3359375 6.7539062 C 9.438069 7.0262212 9.5 7.3181657 9.5 7.6269531 C 9.5 8.6103106 8.9335507 9.455747 8.1113281 9.8613281 L 8.1113281 7.9785156 L 9.3359375 6.7539062 z M 23 7.2304688 C 27.01 8.1404656 30 11.720025 30 16 C 30 20.280013 27.01 23.859534 23 24.769531 L 23 22.708984 C 25.89 21.848991 28 19.170003 28 16 C 28 12.829997 25.89 10.149056 23 9.2890625 L 23 7.2304688 z M 21 8 L 21 24 L 16 19 L 12 19 L 12 13 L 16 13 L 21 8 z M 7 9.0898438 L 7 12.072266 L 5.5097656 10.582031 L 7 9.0898438 z M 23 11.96875 C 24.48 12.708744 25.5 14.230009 25.5 16 C 25.5 17.770028 24.48 19.289516 23 20.019531 L 23 11.96875 z M 8.1113281 19.755859 C 8.6950913 19.888332 9.2383577 20.12506 9.7246094 20.441406 L 8.9179688 21.246094 C 8.6648583 21.102094 8.3957414 20.985052 8.1113281 20.900391 L 8.1113281 19.755859 z M 10.771484 20.123047 L 11.503906 20.855469 L 3.2285156 29.132812 L 2.4960938 28.400391 L 10.771484 20.123047 z M 7 20.183594 L 7 23.164062 L 3.8710938 26.294922 L 2 26.294922 L 2 22.960938 L 4.2226562 22.960938 L 7 20.183594 z M 11.1875 21.902344 C 11.69953 22.686331 12 23.62073 12 24.626953 C 12 27.00473 10.339106 28.99445 8.1113281 29.5 L 8.1113281 28.355469 C 9.7168831 27.877699 10.888672 26.388062 10.888672 24.626953 C 10.888672 23.929139 10.702992 23.277337 10.380859 22.710938 L 11.1875 21.902344 z M 9.3359375 23.753906 C 9.438069 24.026221 9.5 24.318166 9.5 24.626953 C 9.5 25.610311 8.9335507 26.455747 8.1113281 26.861328 L 8.1113281 24.978516 L 9.3359375 23.753906 z M 7 26.089844 L 7 29.072266 L 5.5097656 27.582031 L 7 26.089844 z "
       style="opacity:1;vector-effect:none;fill:#3b3f45;fill-opacity:1;fill-rule:nonzero;stroke:none;stroke-width:5.99999952;stroke-linecap:butt;stroke-linejoin:miter;stroke-miterlimit:4;stroke-dasharray:none;stroke-dashoffset:0;stroke-opacity:1" />
    <g
       style="stroke-width:2.79999995"
       id="layer1-3"
       transform="matrix(0.35714286,0,0,0.35714286,0.34017857,190.48998)">
      <g
         transform="matrix(0.42627315,0,0,0.42627315,-0.88194462,287.65138)"
         style="fill:none;fill-rule:evenodd;stroke:none;stroke-width:1.73793089"
         id="Derived-24-6">
        <g
           style="fill:#3b3f45;stroke-width:1.73793089"
           id="sound-while-editing-7" />
      </g>
    </g>
  </g>
</svg>
