<?xml version="1.0" encoding="UTF-8" standalone="no"?>
<svg
   xmlns:dc="http://purl.org/dc/elements/1.1/"
   xmlns:cc="http://creativecommons.org/ns#"
   xmlns:rdf="http://www.w3.org/1999/02/22-rdf-syntax-ns#"
   xmlns:svg="http://www.w3.org/2000/svg"
   xmlns="http://www.w3.org/2000/svg"
   width="32"
   height="32"
   viewBox="0 0 8.4666665 8.4666669"
   version="1.1"
   id="svg28">
  <defs
     id="defs22" />
  <metadata
     id="metadata25">
    <rdf:RDF>
      <cc:Work
         rdf:about="">
        <dc:format>image/svg+xml</dc:format>
        <dc:type
           rdf:resource="http://purl.org/dc/dcmitype/StillImage" />
        <dc:title></dc:title>
      </cc:Work>
    </rdf:RDF>
  </metadata>
  <path
     id="rect1456"
     d="M 0.52916666,0 C 0.23600834,0 0,0.22556808 0,0.50591227 V 7.9607544 c 0,0.280344 0.23600834,0.5059122 0.52916666,0.5059122 H 7.9374999 c 0.2931583,0 0.5291667,-0.2255682 0.5291667,-0.5059122 V 0.50591227 C 8.4666666,0.22556808 8.2306582,0 7.9374999,0 Z M 5.0565388,0.62373454 C 5.48901,0.72187633 5.8915831,0.89673339 6.2518146,1.1311971 L 5.6549519,1.7280599 C 5.4674391,1.6213911 5.2672419,1.5344454 5.0565388,1.4717448 Z M 7.027478,0.8965861 7.5700804,1.4391886 1.4391886,7.5700804 0.8965861,7.027478 Z M 4.2333333,0.94102781 V 3.1496785 L 1.9146118,5.4684001 H 0.52916666 V 2.9982665 H 2.1755778 Z M 7.3359861,2.2148519 c 0.3793286,0.5808229 0.6015138,1.2730163 0.6015138,2.0184814 0,1.7615371 -1.230549,3.2350662 -2.8809611,3.6095987 V 6.9949218 C 6.2459875,6.640968 7.1142944,5.5380228 7.1142944,4.2333333 c 0,-0.5169786 -0.1380736,-1.000992 -0.3767212,-1.4205852 z m -1.372009,1.3714926 c 0.075663,0.2017204 0.1214395,0.4182179 0.1214395,0.6469888 0,0.7284863 -0.419748,1.3542301 -1.0288778,1.6546793 V 4.4937825 Z M 4.2333333,5.316988 V 7.5256386 L 3.1284912,6.4218301 Z"
     style="opacity:1;vector-effect:none;fill:#3b3f45;fill-opacity:1;fill-rule:nonzero;stroke:none;stroke-width:1.58749986;stroke-linecap:butt;stroke-linejoin:miter;stroke-miterlimit:4;stroke-dasharray:none;stroke-dashoffset:0;stroke-opacity:1" />
</svg>
