<svg xmlns="http://www.w3.org/2000/svg" xmlns:svg="http://www.w3.org/2000/svg" xmlns:xlink="http://www.w3.org/1999/xlink" id="svg28" width="32" height="32" version="1.1" viewBox="0 0 8.467 8.467"><defs id="defs22"><linearGradient id="linearGradient4599"><stop id="stop4595" offset="0" stop-color="#f1abab" stop-opacity="1"/><stop id="stop4597" offset="1" stop-color="#f1abab" stop-opacity="0"/></linearGradient><linearGradient id="linearGradient4605" x1="4.195" x2="4.191" y1="290.361" y2="295.123" gradientUnits="userSpaceOnUse" xlink:href="#linearGradient4599"/></defs><metadata id="metadata25"/><g id="layer1" transform="translate(0,-288.53332)"><circle id="path32" cx="4.233" cy="292.767" r="3.704" fill="#a9a9a9" fill-opacity="1" stroke="none" stroke-opacity="1" stroke-width=".265"/><path id="path4552-1-0" fill="#6c6c6c" fill-opacity="1" stroke="none" stroke-opacity="1" stroke-width=".265" d="m 7.2732044,292.43954 c 0.073048,-0.76338 -0.3126362,-1.59027 -0.9394394,-2.10939 -0.6268031,-0.51912 -1.483032,-0.83571 -2.1405976,-0.83571 -0.6575657,0 -1.4912279,0.33616 -2.0908597,0.8727 -0.5996318,0.53654 -0.9652333,1.41379 -0.9205384,2.07501 0.8740815,-1.16984 1.6469057,-2.6381 2.962032,-2.6381 1.3151265,0 2.3084979,1.54005 3.1294031,2.63549 z"/><circle id="path4542" cx="4.233" cy="292.767" r="2.91" fill="#ef2c2c" fill-opacity="1" stroke="#000" stroke-opacity="1" stroke-width=".265"/><ellipse id="path4550" cx="4.268" cy="292.031" fill="url(#linearGradient4605)" fill-opacity="1" stroke="none" stroke-opacity="1" stroke-width=".199" rx="2.354" ry="1.854"/><path id="path4552" fill="#821b1b" fill-opacity=".51" stroke="none" stroke-opacity="1" stroke-width=".265" d="m 6.9701172,293.31236 c -0.2397739,1.24612 -1.4193019,2.26147 -2.7344333,2.26147 -1.3151314,0 -2.5572334,-1.10392 -2.7367837,-2.21589 0.8244722,0.86392 1.4136325,1.36883 2.7287589,1.36883 1.3151263,0 2.2440139,-0.81507 2.7424581,-1.41441 z"/><path id="path4552-1" fill="#6c6c6c" fill-opacity="1" stroke="none" stroke-opacity="1" stroke-width=".265" d="m 7.5311815,294.19907 c -0.2397738,1.24612 -2.0642238,2.27801 -3.3793551,2.27801 -1.3151316,0 -3.003718,-1.1866 -3.18326827,-2.29857 0.53767807,0.74532 0.97234997,1.1421 1.44496747,1.4342 0.4726175,0.2921 1.0698754,0.50974 1.7274386,0.50974 0.6575632,0 1.4687479,-0.23019 1.9382783,-0.54888 0.4693144,-0.31854 0.7836309,-0.54991 1.451939,-1.3745 z"/><circle id="path32-6" cx="4.233" cy="292.767" r="3.704" fill="none" fill-opacity="1" stroke="#000" stroke-opacity="1" stroke-width=".265"/><g id="text4641" fill="#000" fill-opacity="1" stroke="none" stroke-width=".097" aria-label="M" font-family="sans-serif" font-size="3.89" font-style="normal" font-weight="normal" letter-spacing="0" word-spacing="0" style="line-height:1.25"><path id="path4758" stroke-width=".097" d="m 2.4610824,294.13728 v 0.13616 H 3.515316 v -0.13616 c -0.2022884,-0.0156 -0.4473685,-0.0661 -0.4473685,-0.29954 v -2.17849 l 0.9842106,2.61419 h 0.1361556 l 0.9297484,-2.64142 v 2.38078 c 0,0.0467 -0.081693,0.1167 -0.1244851,0.1167 H 4.6823641 v 0.14394 H 5.9583368 V 294.1295 H 5.6587944 c -0.038902,0 -0.1167048,-0.0545 -0.1167048,-0.10503 v -2.32632 c 0,-0.0739 0.093364,-0.11281 0.143936,-0.11281 0.038902,0 0.2334096,0 0.2723112,0 v -0.1206 H 5.0052475 l -0.7819223,2.18627 -0.8324944,-2.18627 H 2.4610824 v 0.1206 c 0.038902,0 0.2295195,0 0.2723113,0 0.054462,0.004 0.1594966,0.0428 0.1594966,0.12448 v 2.03845 c 0,0.26453 -0.2061785,0.36178 -0.4318079,0.38901 z" font-family="Academico" font-size="3.89" font-stretch="normal" font-style="normal" font-variant="normal" font-weight="normal" text-anchor="start" writing-mode="lr-tb" style="-inkscape-font-specification:'Academico, Normal';font-variant-ligatures:normal;font-variant-caps:normal;font-variant-numeric:normal;font-feature-settings:normal;text-align:start"/></g></g></svg>