<?xml version="1.0" encoding="UTF-8" standalone="no"?>
<!-- Created with Inkscape (http://www.inkscape.org/) -->

<svg
   xmlns:dc="http://purl.org/dc/elements/1.1/"
   xmlns:cc="http://creativecommons.org/ns#"
   xmlns:rdf="http://www.w3.org/1999/02/22-rdf-syntax-ns#"
   xmlns:svg="http://www.w3.org/2000/svg"
   xmlns="http://www.w3.org/2000/svg"
   xmlns:xlink="http://www.w3.org/1999/xlink"
   xmlns:sodipodi="http://sodipodi.sourceforge.net/DTD/sodipodi-0.dtd"
   xmlns:inkscape="http://www.inkscape.org/namespaces/inkscape"
   sodipodi:docname="mixer-dial.svg"
   inkscape:version="0.92.4 (5da689c313, 2019-01-14)"
   id="svg4649"
   version="1.1"
   viewBox="0 0 32 32"
   height="32"
   width="32">
  <sodipodi:namedview
     viewbox-height="32"
     inkscape:window-maximized="1"
     inkscape:window-y="-8"
     inkscape:window-x="-8"
     inkscape:window-height="1017"
     inkscape:window-width="1920"
     inkscape:snap-grids="false"
     units="px"
     showgrid="false"
     inkscape:current-layer="layer1"
     inkscape:document-units="px"
     inkscape:cy="11.396072"
     inkscape:cx="4.5702931"
     inkscape:zoom="11.313708"
     inkscape:pageshadow="2"
     inkscape:pageopacity="0.0"
     borderopacity="1.0"
     bordercolor="#666666"
     pagecolor="#ffffff"
     id="base">
    <inkscape:grid
       empspacing="4"
       id="grid4651"
       type="xygrid" />
  </sodipodi:namedview>
  <defs
     id="defs4643">
    <linearGradient
       id="linearGradient823"
       inkscape:collect="always">
      <stop
         id="stop819"
         offset="0"
         style="stop-color:#878787;stop-opacity:1" />
      <stop
         id="stop821"
         offset="1"
         style="stop-color:#353535;stop-opacity:1" />
    </linearGradient>
    <radialGradient
       gradientUnits="userSpaceOnUse"
       gradientTransform="matrix(2.4995922,0,0,2.4919021,-2.5414783,-691.63044)"
       r="4.6579642"
       fy="288.55579"
       fx="6.1641054"
       cy="288.55579"
       cx="6.1641054"
       id="radialGradient825"
       xlink:href="#linearGradient823"
       inkscape:collect="always" />
  </defs>
  <metadata
     id="metadata4646">
    <rdf:RDF>
      <cc:Work
         rdf:about="">
        <dc:format>image/svg+xml</dc:format>
        <dc:type
           rdf:resource="http://purl.org/dc/dcmitype/StillImage" />
        <dc:title />
      </cc:Work>
    </rdf:RDF>
  </metadata>
  <g
     transform="translate(0,-13.714286)"
     id="layer1"
     inkscape:groupmode="layer"
     inkscape:label="Layer 1">
    <path
       id="grip"
       d="m 14.604574,15.679912 c -0.06548,0.0074 -0.130964,0.0175 -0.196334,0.02575 l -0.860775,1.306712 c -0.367054,0.557209 -1.334039,0.817466 -1.93051,0.518365 L 10.225988,16.8332 c -0.9736302,0.424631 -1.8972495,0.955719 -2.7539793,1.583617 0,0 -0.3547788,0.64002 -0.09394,1.55712 0.1826283,0.642071 -0.7822535,1.588116 -1.4239586,1.404146 -0.9126205,-0.261656 -1.5456759,0.09423 -1.5456759,0.09423 -0.63226,0.851985 -1.1683576,1.771285 -1.598514,2.741127 l 0.7044,1.402671 c 0.2993358,0.596079 0.032434,1.561895 -0.5251592,1.927936 l -1.3073674,0.85826 c -0.1124303,0.987387 -0.1222674,1.983726 -0.029364,2.973139 0.1599468,0.496939 0.8816079,0.759921 1.3325618,1.056978 0.5572208,0.367065 0.8174758,1.334057 0.5183656,1.93051 l -0.6975412,1.390974 c 0.4246128,0.97364 0.9557262,1.897264 1.5836299,2.753975 L 5.94655,38.60187 c 0.6663798,0.04024 1.3634918,0.75765 1.4041333,1.423992 l 0.094277,1.545673 c 0.8519759,0.632272 1.7712657,1.168358 2.7411027,1.598514 l 1.402696,-0.704411 c 0.596085,-0.29935 1.561946,-0.03249 1.927939,0.525141 l 0.858239,1.307411 c 0.987383,0.112477 1.983731,0.122481 2.973151,0.02949 0.06548,-0.0076 0.130958,-0.0175 0.196332,-0.02575 l 0.860771,-1.306687 c 0.367059,-0.557209 1.33404,-0.817466 1.930512,-0.518366 l 1.390968,0.697537 C 22.7003,42.74979 23.623923,42.218676 24.480652,41.59078 l 0.09394,-1.55712 c 0.04019,-0.666292 0.757641,-1.363503 1.42396,-1.404122 l 1.545675,-0.09423 c 0.632264,-0.85201 1.960327,-2.020645 1.598515,-2.741128 l -0.704401,-1.402671 c -0.299336,-0.596077 -0.03245,-1.561895 0.525159,-1.927936 l 1.30737,-0.858259 c 0.101952,-1.129405 0.09975,-2.191131 0.0035,-3.169359 l -1.306691,-0.860759 c -0.557225,-0.367065 -0.817476,-1.334057 -0.518366,-1.93051 l 0.69754,-1.390973 c -0.424612,-0.97364 -0.955725,-1.897264 -1.583631,-2.754 l -1.557103,-0.09399 c -0.666378,-0.04025 -1.363492,-0.757626 -1.404134,-1.423966 l -0.09427,-1.545673 c -0.851974,-0.632272 -1.771266,-1.16836 -2.741104,-1.598515 l -1.402698,0.704386 c -0.596086,0.299326 -1.56194,0.03249 -1.927935,-0.525139 l -0.858239,-1.307387 c -0.987372,-0.112733 -2.016878,-0.150102 -2.973151,-0.02949 l 0.773405,-0.03317"
       style="fill:#444444;fill-opacity:1;stroke:#000000;stroke-width:1;stroke-linecap:square;stroke-linejoin:round;stroke-miterlimit:4;stroke-dasharray:none;stroke-opacity:1"
       inkscape:connector-curvature="0"
       sodipodi:nodetypes="cccccccccccccccccccccccccccccccccccccccccccccccccccc" />
    <ellipse
       ry="10.607352"
       rx="10.643174"
       cy="29.927521"
       cx="15.872563"
       id="path5206-6"
       style="stroke-opacity:1;fill-opacity:1;stroke:#b8b8b8;stroke-dasharray:none;stroke-miterlimit:4;stroke-width:2.82796569515;fill:url(#radialGradient825)" />
    <path
       id="pointer"
       d="M13.330931 30.0038C13.330931 30.0038 13.330931 19.422202 13.330931 19.422202C13.330931 19.422202 15.976333 15.454099 15.976333 15.454099C15.976333 15.454099 18.621734 19.422202 18.621734 19.422202C18.621734 19.422202 18.621734 30.0038 18.621734 30.0038C18.621734 30.0038 13.330931 30.0038 13.330931 30.0038"
       style="stroke-linejoin:miter;stroke-opacity:1;fill-opacity:1;stroke:#000000;stroke-linecap:square;stroke-miterlimit:4;stroke-dasharray:none;stroke-width:1;fill:#ffffff" />
  </g>
</svg>
