<?xml version="1.0" encoding="UTF-8" standalone="no"?>
<svg
   xmlns:dc="http://purl.org/dc/elements/1.1/"
   xmlns:cc="http://creativecommons.org/ns#"
   xmlns:rdf="http://www.w3.org/1999/02/22-rdf-syntax-ns#"
   xmlns:svg="http://www.w3.org/2000/svg"
   xmlns="http://www.w3.org/2000/svg"
   width="32"
   height="32"
   viewBox="0 0 8.4666665 8.4666669"
   version="1.1"
   id="svg28">
  <defs
     id="defs22" />
  <metadata
     id="metadata25">
    <rdf:RDF>
      <cc:Work
         rdf:about="">
        <dc:format>image/svg+xml</dc:format>
        <dc:type
           rdf:resource="http://purl.org/dc/dcmitype/StillImage" />
        <dc:title></dc:title>
      </cc:Work>
    </rdf:RDF>
  </metadata>
  <path
     id="path1398"
     transform="scale(0.26458333)"
     d="M 2 0 C 0.89200005 0 2.9605947e-16 0.85255662 0 1.9121094 L 0 30.087891 C 0 31.14748 0.89200005 32 2 32 L 30 32 C 31.108 32 32 31.14748 32 30.087891 L 32 1.9121094 C 32 0.85255662 31.108 1.4802974e-16 30 0 L 2 0 z M 19.111328 2.3574219 C 20.745865 2.7283515 22.267401 3.3892285 23.628906 4.2753906 L 21.373047 6.53125 C 20.664337 6.1280927 19.907686 5.7994802 19.111328 5.5625 L 19.111328 2.3574219 z M 26.560547 3.3886719 L 28.611328 5.4394531 L 5.4394531 28.611328 L 3.3886719 26.560547 L 26.560547 3.3886719 z M 16 3.5566406 L 16 11.904297 L 7.2363281 20.667969 L 2 20.667969 L 2 11.332031 L 8.2226562 11.332031 L 16 3.5566406 z M 27.726562 8.3710938 C 29.160245 10.56633 30 13.182494 30 16 C 30 22.657778 25.349106 28.227022 19.111328 29.642578 L 19.111328 26.4375 C 23.606882 25.099722 26.888672 20.93111 26.888672 16 C 26.888672 14.046066 26.366819 12.216723 25.464844 10.630859 L 27.726562 8.3710938 z M 22.541016 13.554688 C 22.826988 14.317096 23 15.135354 23 16 C 23 18.753334 21.413551 21.11835 19.111328 22.253906 L 19.111328 16.984375 L 22.541016 13.554688 z M 16 20.095703 L 16 28.443359 L 11.824219 24.271484 L 16 20.095703 z "
     style="color:#3b3f45;font-style:normal;font-variant:normal;font-weight:normal;font-stretch:normal;font-size:medium;line-height:normal;font-family:sans-serif;font-variant-ligatures:normal;font-variant-position:normal;font-variant-caps:normal;font-variant-numeric:normal;font-variant-alternates:normal;font-feature-settings:normal;text-indent:0;text-align:start;text-decoration:none;text-decoration-line:none;text-decoration-style:solid;text-decoration-color:#3b3f45;letter-spacing:normal;word-spacing:normal;text-transform:none;writing-mode:lr-tb;direction:ltr;text-orientation:mixed;dominant-baseline:auto;baseline-shift:baseline;text-anchor:start;white-space:normal;shape-padding:0;clip-rule:nonzero;display:inline;overflow:visible;visibility:visible;opacity:1;isolation:auto;mix-blend-mode:normal;color-interpolation:sRGB;color-interpolation-filters:linearRGB;solid-color:#3b3f45;solid-opacity:1;vector-effect:none;fill:#3b3f45;fill-opacity:1;fill-rule:nonzero;stroke:none;stroke-width:3.00094485;stroke-linecap:butt;stroke-linejoin:miter;stroke-miterlimit:4;stroke-dasharray:none;stroke-dashoffset:0;stroke-opacity:1;color-rendering:auto;image-rendering:auto;shape-rendering:auto;text-rendering:auto;enable-background:accumulate" />
</svg>
