<?xml version="1.0" encoding="UTF-8"?>
<svg width="24px" height="24px" viewBox="0 0 24 24" version="1.1" xmlns="http://www.w3.org/2000/svg" xmlns:xlink="http://www.w3.org/1999/xlink">
    <!-- Generator: Sketch 41.2 (35397) - http://www.bohemiancoding.com/sketch -->
    <title>mode-photo</title>
    <desc>Created with Sketch.</desc>
    <defs></defs>
    <g id="Original-24" stroke="none" stroke-width="1" fill="none" fill-rule="evenodd">
        <g id="mode-photo">
            <rect id="rect5914" x="0" y="0" width="24" height="24"></rect>
            <rect id="rect5916" x="0" y="0" width="24" height="24"></rect>
            <path d="M17.9997996,3.91603491 L17.9997996,5.00978492 L3.06229956,5.00978492 C1.91157155,5.00978492 0.999799545,5.92155692 0.999799545,7.07228493 L0.999799545,17.947285 C0.999799545,19.0980129 1.91157155,20.009785 3.06229956,20.009785 L20.9372996,20.009785 C22.0880277,20.009785 22.9997997,19.0980129 22.9997997,17.947285 L22.9997997,7.07228493 C22.9997997,5.94355592 22.1198637,5.04427692 20.9997996,5.00978492 L20.9997996,3.91603491 L17.9997996,3.91603491 Z M4.99979957,8.00978493 L7.99979958,8.00978493 L7.99979958,10.0097849 L4.99979957,10.0097849 L4.99979957,8.00978493 Z M14.9997996,8.00978493 C17.7612236,8.00978493 19.9997996,10.2483609 19.9997996,13.009785 C19.9997996,15.7712087 17.7612236,18.009785 14.9997996,18.009785 C12.2383756,18.009785 9.99979959,15.7712087 9.99979959,13.009785 C9.99979959,10.2483609 12.2383756,8.00978493 14.9997996,8.00978493 Z" id="rect5957" fill="#3B3F45"></path>
            <path d="M17.9998,13.0097787 C17.9998,14.666633 16.656654,16.0097787 14.9998,16.0097787 C13.3429461,16.0097787 11.9998,14.666633 11.9998,13.0097787 C11.9998,11.3529248 13.3429461,10.0097787 14.9998,10.0097787 C16.656654,10.0097787 17.9998,11.3529248 17.9998,13.0097787 Z" id="path5970" fill="#3B3F45"></path>
        </g>
    </g>
</svg>