<?xml version="1.0" encoding="UTF-8" standalone="no"?>
<svg
   xmlns:dc="http://purl.org/dc/elements/1.1/"
   xmlns:cc="http://creativecommons.org/ns#"
   xmlns:rdf="http://www.w3.org/1999/02/22-rdf-syntax-ns#"
   xmlns:svg="http://www.w3.org/2000/svg"
   xmlns="http://www.w3.org/2000/svg"
   width="24px"
   height="24px"
   viewBox="0 0 24 24"
   version="1.1"
   id="svg14">
  <metadata
     id="metadata18">
    <rdf:RDF>
      <cc:Work
         rdf:about="">
        <dc:format>image/svg+xml</dc:format>
        <dc:type
           rdf:resource="http://purl.org/dc/dcmitype/StillImage" />
        <dc:title>mode-photo</dc:title>
      </cc:Work>
    </rdf:RDF>
  </metadata>
  <!-- Generator: Sketch 41.2 (35397) - http://www.bohemiancoding.com/sketch -->
  <title
     id="title2">mode-photo</title>
  <desc
     id="desc4">Created with Sketch.</desc>
  <defs
     id="defs6" />
  <path
     style="fill:#3b3f45;fill-rule:evenodd;stroke:none;stroke-width:1"
     d="M 18,3 V 4.09375 H 3.0625 C 1.9117719,4.09375 1,5.005522 1,6.15625 V 17.9375 C 1,19.088228 1.9117719,20 3.0625,20 h 17.875 C 22.088228,20 23,19.088228 23,17.9375 V 6.15625 C 23,5.027521 22.120064,4.128242 21,4.09375 V 3 Z M 4.6875,6.09375 H 19.363281 C 20.279697,6.1190442 21,6.7777342 21,7.6054688 V 16.488281 C 21,17.332148 20.254005,18 19.3125,18 H 15 4.6875 C 3.7459952,18 3,17.332148 3,16.488281 V 7.6054688 C 3,6.7616016 3.7459952,6.09375 4.6875,6.09375 Z"
     id="rect5957" />
  <path
     style="fill:#3b3f45;fill-rule:evenodd;stroke:none;stroke-width:1"
     d="m 4.9998,8.0000189 h 3 v 2.0000001 h -3 z"
     id="path844" />
  <path
     style="fill:#3b3f45;fill-rule:evenodd;stroke:none;stroke-width:1"
     d="M 15.5,8 C 13.014719,8 11,10.014719 11,12.5 11,14.985282 13.014719,17 15.5,17 17.985282,17 20,14.985282 20,12.5 20,10.014719 17.985282,8 15.5,8 Z m 0,2 C 16.880712,10 18,11.119289 18,12.5 18,13.880712 16.880712,15 15.5,15 14.119289,15 13,13.880712 13,12.5 13,11.119289 14.119289,10 15.5,10 Z"
     id="path842" />
</svg>
