<?xml version="1.0" encoding="UTF-8" standalone="no"?>
<svg
   xmlns:dc="http://purl.org/dc/elements/1.1/"
   xmlns:cc="http://creativecommons.org/ns#"
   xmlns:rdf="http://www.w3.org/1999/02/22-rdf-syntax-ns#"
   xmlns:svg="http://www.w3.org/2000/svg"
   xmlns="http://www.w3.org/2000/svg"
   id="svg12"
   version="1.1"
   viewBox="0 0 24 24"
   height="24px"
   width="24px">
  <metadata
     id="metadata16">
    <rdf:RDF>
      <cc:Work
         rdf:about="">
        <dc:format>image/svg+xml</dc:format>
        <dc:type
           rdf:resource="http://purl.org/dc/dcmitype/StillImage" />
        <dc:title>mode-notes</dc:title>
      </cc:Work>
    </rdf:RDF>
  </metadata>
  <!-- Generator: Sketch 41.2 (35397) - http://www.bohemiancoding.com/sketch -->
  <title
     id="title2">mode-notes</title>
  <desc
     id="desc4">Created with Sketch.</desc>
  <defs
     id="defs6" />
  <g
     id="Derived-24"
     transform="translate(2.0001143,-2.602895)"
     style="fill:none;fill-rule:evenodd;stroke:none;stroke-width:1">
    <g
       id="document-new"
       style="fill:#3b3f45" />
  </g>
  <path
     id="path2"
     style="fill:#3b3f45"
     d="m 5.5027059,17.71771 c -1.21704,0 -2.35613,0.44556 -3.41731,1.33666 -1.06118,0.8911 -1.59177005,1.84904 -1.59176005,2.87381 0,0.62377 0.23004,1.12501 0.69013005,1.50373 0.4601,0.37872 1.06118,0.56809 1.80327,0.56809 1.21702,0 2.35609,-0.44556 3.41728,-1.33666 1.06119,-0.8911 1.59178,-1.84904 1.59178,-2.87381 0,-0.62377 -0.23004,-1.12502 -0.69014,-1.50373 -0.46009,-0.37873 -1.06119,-0.56809 -1.80325,-0.56809" />
  <path
     id="path4"
     d="M 7.6888237,0.99999996 C 6.5842938,0.99999996 6.0002757,1.8954711 6,3.000001 V 20 H 8 V 4.3651552 L 19.99868,19.999999 c 1.105259,0 2.001319,-0.89474 2.001319,-1.999999 V 0.99999996 L 20,1 V 16.826955 L 7.9986808,1.0065973 Z"
     style="fill:#3b3f45;stroke-width:1.5079999" />
</svg>
