<?xml version="1.0" encoding="UTF-8"?>
<svg width="24px" height="24px" viewBox="0 0 24 24" version="1.1" xmlns="http://www.w3.org/2000/svg" xmlns:xlink="http://www.w3.org/1999/xlink">
    <!-- Generator: Sketch 41.2 (35397) - http://www.bohemiancoding.com/sketch -->
    <title>mode-notes</title>
    <desc>Created with Sketch.</desc>
    <defs></defs>
    <g id="Original-24" stroke="none" stroke-width="1" fill="none" fill-rule="evenodd">
        <g id="mode-notes" fill="#3B3F45">
            <path d="M7.5064717,14.7176803 C6.2894301,14.7176803 5.15034569,15.1632422 4.0891665,16.0543442 C3.02798731,16.9454489 2.49739763,17.9033838 2.49739897,18.9281513 C2.49739829,19.5519238 2.72744394,20.0531686 3.18753748,20.4318886 C3.64762883,20.8106031 4.24871393,20.9999699 4.99079826,20.9999699 C6.20782344,20.9999699 7.34689691,20.5544135 8.40808431,19.6633115 C9.4692717,18.7722095 9.9998654,17.8142736 9.9998654,16.7895044 C9.9998654,16.1657319 9.76981836,15.6644871 9.30972427,15.2857699 C8.84963018,14.9070472 8.24853687,14.7176803 7.5064717,14.7176803" id="path44-6-7"></path>
            <polyline id="path4374" points="10.0356215 9.98997 9.9996215 16.789035 6.9996215 16.789035 6.9996215 4.37997 9.3536315 4.37997 16.9996115 14.631975 16.9996115 4.401975 19.9996115 4.401975 19.9996115 19.999965 17.5656215 19.999965"></polyline>
        </g>
    </g>
</svg>