<svg xmlns="http://www.w3.org/2000/svg" xmlns:xlink="http://www.w3.org/1999/xlink" width="24" height="24" version="1.1"><path fill="#3b3f45" fill-rule="evenodd" d="M 12,6 a 8 8 1 1 0 8,8 a 8 8 0 0 0 -8,-8 z m 0,2 a 6 6 1 1 0 6,6 a 6 6 0 0 0 -6,-6 z"/><path fill="#3b3f45" d="M 11 14 l 1 -5 l 1 5 z" transform="rotate(10,12,14)"/><rect id="tick" width=".6" height="1.5" x="11.7" y="8.5" fill="#3b3f45"/><use transform="rotate(30,12,14)" xlink:href="#tick"/><use transform="rotate(60,12,14)" xlink:href="#tick"/><use transform="rotate(90,12,14)" xlink:href="#tick"/><use transform="rotate(120,12,14)" xlink:href="#tick"/><use transform="rotate(150,12,14)" xlink:href="#tick"/><use transform="rotate(180,12,14)" xlink:href="#tick"/><use transform="rotate(210,12,14)" xlink:href="#tick"/><use transform="rotate(240,12,14)" xlink:href="#tick"/><use transform="rotate(270,12,14)" xlink:href="#tick"/><use transform="rotate(300,12,14)" xlink:href="#tick"/><use transform="rotate(330,12,14)" xlink:href="#tick"/><circle cx="12" cy="14" r="1.2" fill="#3b3f45"/><rect width="2" height="3" x="11" y="4" fill="#3b3f45"/><rect width="4" height="3" x="10" y="2" fill="#3b3f45" rx=".5" ry=".5"/><g id="knob" transform="rotate(-45,12,14)"><rect width="1.6" height="3" x="11.2" y="4" fill="#3b3f45"/><rect width="4" height="2" x="10" y="3.2" fill="#3b3f45" rx=".5" ry=".5"/></g><use transform="rotate(90,12,14)" xlink:href="#knob"/></svg>