<?xml version="1.0" encoding="UTF-8" standalone="no"?>
<svg
   xmlns:dc="http://purl.org/dc/elements/1.1/"
   xmlns:cc="http://creativecommons.org/ns#"
   xmlns:rdf="http://www.w3.org/1999/02/22-rdf-syntax-ns#"
   xmlns:svg="http://www.w3.org/2000/svg"
   xmlns="http://www.w3.org/2000/svg"
   id="svg14"
   version="1.1"
   viewBox="0 0 24 24"
   height="24px"
   width="24px">
  <metadata
     id="metadata18">
    <rdf:RDF>
      <cc:Work
         rdf:about="">
        <dc:format>image/svg+xml</dc:format>
        <dc:type
           rdf:resource="http://purl.org/dc/dcmitype/StillImage" />
        <dc:title>mode-photo</dc:title>
      </cc:Work>
    </rdf:RDF>
  </metadata>
  <!-- Generator: Sketch 41.2 (35397) - http://www.bohemiancoding.com/sketch -->
  <title
     id="title2">mode-photo</title>
  <desc
     id="desc4">Created with Sketch.</desc>
  <defs
     id="defs6" />
  <path
     id="rect5957"
     d="m 18,3.6972656 v 1.09375 H 3.0625 C 1.9117719,4.7910156 1,5.7027876 1,6.8535156 V 17.947266 c 0,1.150728 0.9117719,2.0625 2.0625,2.0625 h 17.875 c 1.150728,0 2.0625,-0.911772 2.0625,-2.0625 V 6.8535156 c 0,-1.128729 -0.879936,-2.028008 -2,-2.0625 v -1.09375 z M 4.6875,6.7910156 H 19.363281 C 20.279697,6.8163098 21,7.4749998 21,8.3027344 v 8.1953126 c 0,0.843867 -0.745995,1.511719 -1.6875,1.511719 H 15 4.6875 C 3.7459952,18.009766 3,17.341914 3,16.498047 V 8.3027344 C 3,7.4588672 3.7459952,6.7910156 4.6875,6.7910156 Z"
     style="fill:#3b3f45;fill-rule:evenodd;stroke:none;stroke-width:1" />
  <path
     id="path844"
     d="m 4.9998,8.0097849 h 3 v 2.0000001 h -3 z"
     style="fill:#3b3f45;fill-rule:evenodd;stroke:none;stroke-width:1" />
  <path
     id="path842"
     d="m 15,7.4999996 c -2.761424,0 -5,2.2385764 -5,5.0000004 0,2.761424 2.238576,5 5,5 2.761424,0 5,-2.238576 5,-5 C 20,9.738576 17.761424,7.4999996 15,7.4999996 Z M 15,9.5 c 1.656854,0 3,1.343146 3,3 0,1.656854 -1.343146,3 -3,3 -1.656854,0 -3,-1.343146 -3,-3 0,-1.656854 1.343146,-3 3,-3 z"
     style="fill:#3b3f45;fill-rule:evenodd;stroke:none;stroke-width:1" />
</svg>
