<?xml version="1.0" encoding="UTF-8"?>
<svg width="24px" height="24px" viewBox="0 0 24 24" version="1.1" xmlns="http://www.w3.org/2000/svg" xmlns:xlink="http://www.w3.org/1999/xlink">
    <!-- Generator: Sketch 41.2 (35397) - http://www.bohemiancoding.com/sketch -->
    <title>mode-repitch</title>
    <desc>Created with Sketch.</desc>
    <defs></defs>
    <g id="Original-24" stroke="none" stroke-width="1" fill="none" fill-rule="evenodd">
        <g id="mode-repitch" fill="#3B3F45">
            <polygon id="Path-2" points="14.8286075 7.17175325 16.2428211 5.75753969 12.0355339 1.55025253 7.79289322 5.79289322 9.20710678 7.20710678 12.0355339 4.37867966"></polygon>
            <polygon id="Path-2-Copy" points="9.20710678 16.2573593 7.79289322 17.6715729 12.0355339 21.9142136 16.2428211 17.7069264 14.8286075 16.2927128 12.0355339 19.0857864"></polygon>
            <path d="M13.2578436,8.85883093 C12.040802,8.85883093 10.9017176,9.30439285 9.84053845,10.1954948 C8.77935926,11.0865995 8.24876958,12.0445344 8.24877092,13.0693019 C8.24877024,13.6930744 8.47881589,14.1943192 8.93890943,14.5730392 C9.39900078,14.9517537 10.0000859,15.1411205 10.7421702,15.1411205 C11.9591954,15.1411205 13.0982689,14.6955641 14.1594563,13.8044621 C15.2206437,12.9133601 15.7512374,11.9554242 15.7512374,10.930655 C15.7512374,10.3068825 15.5211903,9.8056377 15.0610962,9.42692046 C14.6010021,9.04819775 13.9999088,8.85883093 13.2578436,8.85883093" id="path44-6-7"></path>
        </g>
    </g>
</svg>