<?xml version="1.0" encoding="UTF-8" standalone="no"?>
<svg
   height="24"
   version="1.1"
   width="24"
   id="svg14"
   sodipodi:docname="mouse-entry.svg"
   inkscape:version="1.1.2 (0a00cf5339, 2022-02-04)"
   xmlns:inkscape="http://www.inkscape.org/namespaces/inkscape"
   xmlns:sodipodi="http://sodipodi.sourceforge.net/DTD/sodipodi-0.dtd"
   xmlns="http://www.w3.org/2000/svg"
   xmlns:svg="http://www.w3.org/2000/svg">
  <defs
     id="defs18" />
  <sodipodi:namedview
     id="namedview16"
     pagecolor="#ffffff"
     bordercolor="#666666"
     borderopacity="1.0"
     inkscape:pageshadow="2"
     inkscape:pageopacity="0.0"
     inkscape:pagecheckerboard="0"
     showgrid="false"
     inkscape:zoom="15.6875"
     inkscape:cx="17.848606"
     inkscape:cy="10.741036"
     inkscape:window-width="1920"
     inkscape:window-height="1023"
     inkscape:window-x="0"
     inkscape:window-y="1109"
     inkscape:window-maximized="1"
     inkscape:current-layer="svg14" />
  <path
     id="path24295"
     style="fill:#3b3f45;fill-opacity:1;stroke-width:0.0159363"
     d="m 12.798561,13.959074 c -0.239091,-0.07643 -0.495192,-0.285353 -0.598564,-0.488295 -0.11587,-0.227478 -0.117264,-0.245988 -0.117264,-1.55744 0,-1.180197 0.0017,-1.230016 0.04683,-1.365048 0.09261,-0.27716 0.265083,-0.474472 0.5278,-0.6038067 0.506085,-0.249145 1.095425,-0.03793 1.354073,0.4852797 l 0.08839,0.178794 0.0065,1.260079 c 0.0057,1.106705 0.0021,1.27556 -0.02994,1.387253 -0.157403,0.548789 -0.74659,0.873012 -1.277844,0.703184 z M 3.5749145,8.9779923 C 3.1470184,8.9275153 2.6938221,8.7417343 2.3211058,8.4640135 1.8003246,8.0759653 1.4610173,7.6554485 1.3042539,7.203789 1.2236431,6.9715371 1.1918103,6.5973012 1.2422977,6.4754138 1.3078868,6.3170676 1.5237024,6.2304412 1.6674343,6.3047677 1.7845818,6.3653472 1.9170396,6.5584704 2.0936134,6.926136 2.3065399,7.3694959 2.4158829,7.5336986 2.6359227,7.7405339 2.9442033,8.0303145 3.2338701,8.1621174 3.6669887,8.2096848 4.0817932,8.2552407 4.4903506,8.1860402 4.8617103,8.0073256 5.3264761,7.7836596 5.6144496,7.4789875 6.0434068,6.7571065 6.2865163,6.347984 6.6946838,5.5107182 7.0047635,4.7850955 7.2030976,4.3209707 7.5560616,3.6646706 7.8098231,3.288171 8.3792669,2.4433011 8.9779433,1.9252005 9.7256982,1.6301534 10.167269,1.4559197 10.718288,1.3810189 11.233539,1.4251907 c 0.838933,0.071921 1.42625,0.3642619 1.849202,0.9204528 0.297983,0.3918547 0.495314,1.0225149 0.525296,1.6788192 l 0.01416,0.3098874 H 13.224328 12.826463 V 4.2076533 c 0,-0.3608048 -0.138367,-0.9095004 -0.295251,-1.1708197 -0.0945,-0.1574037 -0.331096,-0.4169505 -0.4625,-0.5073589 C 11.944609,2.4440895 11.689431,2.334453 11.485496,2.2788964 11.253657,2.2157386 10.695601,2.1990297 10.420799,2.2470182 9.561503,2.3970763 8.88549,2.9315184 8.2769632,3.9418907 8.1018876,4.2325791 7.8462961,4.7974374 7.6557737,5.3147213 7.3790395,6.0660782 7.0936462,6.6873218 6.8336329,7.1043559 6.1790994,8.1541583 5.4107905,8.7549503 4.4973922,8.9312183 4.222502,8.9842663 3.8067838,9.0053453 3.5749145,8.9779923 Z M 10.217096,22.28855 C 9.1057397,21.949265 8.000631,20.971032 7.4965722,19.880364 7.2378634,19.320578 7.2187011,19.060968 7.1820272,15.618924 l -0.039053,-3.665338 h 2.0283138 2.028314 l 0.08178,0.967418 c 0.0568,0.671898 0.161831,1.079844 0.343844,1.335458 0.527191,0.740371 2.071245,0.806862 2.837526,0.12219 0.381276,-0.34067 0.407493,-0.421556 0.451625,-1.393365 l 0.04685,-1.031701 h 2.090087 2.090086 l -9.63e-4,3.027888 c -0.0014,4.348862 -0.175163,5.118396 -1.423721,6.304542 -1.053322,1.00067 -1.563359,1.123725 -4.604003,1.110795 -1.41729,-0.006 -2.720317,-0.05475 -2.895616,-0.108261 z M 14.933751,10.583068 C 14.933103,9.9328013 14.542724,9.3356333 13.986888,9.1346403 L 13.531837,8.9700923 V 6.9388179 4.9075435 l 1.25036,0.060209 c 1.49924,0.072193 2.34956,0.408081 3.180326,1.2562713 0.769111,0.785241 1.057401,1.6418468 1.145233,3.4028685 l 0.07153,1.4342627 h -2.122527 -2.122531 l -4.72e-4,-0.478087 z M 7.1817727,9.4994023 C 7.2445156,7.7248421 7.440534,7.1193426 8.2380407,6.236598 9.0123195,5.3795639 9.8775453,5.0367136 11.441651,4.9671505 l 1.325246,-0.05894 v 2.0565522 c 0,1.9219926 -0.01556,2.0565526 -0.237787,2.0565526 -0.573229,0 -1.292094,0.955276 -1.292094,1.7170207 v 0.322819 H 9.1817852 7.126554 Z M 14.933751,10.583068 C 14.933103,9.9328013 14.542724,9.3356333 13.986888,9.1346403 L 13.531837,8.9700923 V 6.9388179 4.9075435 l 1.25036,0.060209 c 1.49924,0.072193 2.34956,0.408081 3.180326,1.2562713 0.76278,0.7787775 1.045433,1.6193001 1.14039,3.3911635 l 0.07749,1.4459677 h -2.123087 -2.123088 l -4.72e-4,-0.478087 z M 10.217096,22.28855 C 9.1057397,21.949265 8.000631,20.971032 7.4965722,19.880364 7.2378634,19.320578 7.2187011,19.060968 7.1820272,15.618924 l -0.039053,-3.665338 h 2.0286195 2.0286193 l 0.07401,0.978622 c 0.08833,1.16792 0.325366,1.559363 1.094822,1.807992 0.744462,0.240552 1.58163,0.09599 2.093701,-0.361548 0.381276,-0.34067 0.407493,-0.421556 0.451625,-1.393365 l 0.04685,-1.031701 h 2.090087 2.090086 l -9.63e-4,3.027888 c -0.0014,4.348862 -0.175163,5.118396 -1.423721,6.304542 -1.053322,1.00067 -1.563359,1.123725 -4.604003,1.110795 -1.41729,-0.006 -2.720317,-0.05475 -2.895616,-0.108261 z m 0,0 C 9.1057397,21.949265 8.000631,20.971032 7.4965722,19.880364 7.2378634,19.320578 7.2187011,19.060968 7.1820272,15.618924 l -0.039053,-3.665338 h 2.0302553 2.0302555 l 0.06088,0.948587 c 0.07036,1.096323 0.299062,1.537531 0.934652,1.803097 0.873755,0.365078 1.93874,0.138833 2.458829,-0.522352 0.226699,-0.288201 0.276386,-0.520172 0.276386,-1.29035 v -0.938982 h 2.115501 2.115502 l -0.05105,3.537848 c -0.06035,4.182218 -0.140111,4.528319 -1.3142,5.702408 -1.094285,1.094285 -1.569423,1.216227 -4.68727,1.202969 -1.41729,-0.006 -2.720317,-0.05475 -2.895616,-0.108261 z" />
</svg>
