<?xml version="1.0" encoding="UTF-8" standalone="no"?>
<!-- Created with Inkscape (http://www.inkscape.org/) -->

<svg
   xmlns:dc="http://purl.org/dc/elements/1.1/"
   xmlns:cc="http://creativecommons.org/ns#"
   xmlns:rdf="http://www.w3.org/1999/02/22-rdf-syntax-ns#"
   xmlns:svg="http://www.w3.org/2000/svg"
   xmlns="http://www.w3.org/2000/svg"
   xmlns:sodipodi="http://sodipodi.sourceforge.net/DTD/sodipodi-0.dtd"
   xmlns:inkscape="http://www.inkscape.org/namespaces/inkscape"
   id="svg2"
   version="1.1"
   inkscape:version="0.47 r22583"
   width="20"
   height="24"
   sodipodi:docname="natural.svg">
  <sodipodi:namedview
     pagecolor="#ffff9f"
     bordercolor="#666666"
     borderopacity="1"
     objecttolerance="10"
     gridtolerance="10"
     guidetolerance="10"
     inkscape:pageopacity="1"
     inkscape:pageshadow="2"
     inkscape:window-width="756"
     inkscape:window-height="482"
     id="namedview4"
     showgrid="false"
     inkscape:zoom="9.8333333"
     inkscape:cx="13.050847"
     inkscape:cy="11.649199"
     inkscape:window-x="857"
     inkscape:window-y="119"
     inkscape:window-maximized="0"
     inkscape:current-layer="svg2"
     inkscape:snap-grids="true"
     inkscape:snap-to-guides="true" />
  <metadata
     id="metadata8">
    <rdf:RDF>
      <cc:Work
         rdf:about="">
        <dc:format>image/svg+xml</dc:format>
        <dc:type
           rdf:resource="http://purl.org/dc/dcmitype/StillImage" />
        <dc:title />
      </cc:Work>
    </rdf:RDF>
  </metadata>
  <defs
     id="defs6">
    <inkscape:perspective
       id="perspective10"
       inkscape:persp3d-origin="0.5 : 0.33333333 : 1"
       inkscape:vp_z="1 : 0.5 : 1"
       inkscape:vp_y="0 : 1000 : 0"
       inkscape:vp_x="0 : 0.5 : 1"
       sodipodi:type="inkscape:persp3d" />
  </defs>
  <g
     style="font-size:20px;font-style:normal;font-variant:normal;font-weight:normal;font-stretch:normal;text-align:start;line-height:125%;writing-mode:lr-tb;text-anchor:start;fill:#000000;fill-opacity:1;stroke:none;font-family:MScore1;-inkscape-font-specification:MScore1"
     id="text2816">
    <path
       d="m 7.4671191,5.1525421 c 0.1866666,-0.093323 0.3599998,-0.1399898 0.52,-0.14 0.1466661,1.02e-5 0.3133326,0.046677 0.5,0.14 l -0.06,3.66 2.1199999,-0.4 0.06,0 c 0.239997,6.8e-6 0.359997,0.11334 0.36,0.34 l 0.14,11.3999999 c -0.18667,0.09333 -0.353336,0.139995 -0.5,0.14 -0.146669,-5e-6 -0.313336,-0.04667 -0.5,-0.14 l 0.06,-3.66 -2.1199999,0.4 -0.06,0 c -0.2400002,-2e-6 -0.36,-0.113335 -0.36,-0.34 l -0.16,-11.3999999 m 2.7199999,9.3999999 0.06,-4.14 -1.8399999,0.34 -0.06,4.14 1.8399999,-0.34"
       style=""
       id="path2814" />
  </g>
</svg>
