<?xml version="1.0" encoding="UTF-8" standalone="no"?>
<svg
   xmlns:dc="http://purl.org/dc/elements/1.1/"
   xmlns:cc="http://creativecommons.org/ns#"
   xmlns:rdf="http://www.w3.org/1999/02/22-rdf-syntax-ns#"
   xmlns:svg="http://www.w3.org/2000/svg"
   xmlns="http://www.w3.org/2000/svg"
   xmlns:sodipodi="http://sodipodi.sourceforge.net/DTD/sodipodi-0.dtd"
   xmlns:inkscape="http://www.inkscape.org/namespaces/inkscape"
   viewBox="-1 -200 1000 1000"
   id="svg34224"
   sodipodi:version="0.32"
   inkscape:version="0.92.4 (5da689c313, 2019-01-14)"
   width="128"
   height="128"
   sodipodi:docname="nbeam.svg"
   inkscape:output_extension="org.inkscape.output.svg.inkscape"
   version="1.0">
  <defs
     id="defs7" />
  <metadata
     id="metadata34233">
    <rdf:RDF>
      <cc:Work
         rdf:about="">
        <dc:format>image/svg+xml</dc:format>
        <dc:type
           rdf:resource="http://purl.org/dc/dcmitype/StillImage" />
      </cc:Work>
    </rdf:RDF>
  </metadata>
  <sodipodi:namedview
     inkscape:window-height="1017"
     inkscape:window-width="1920"
     inkscape:pageshadow="2"
     inkscape:pageopacity="0.0"
     borderopacity="1.0"
     bordercolor="#666666"
     pagecolor="#ffffff"
     id="base"
     showguides="true"
     inkscape:guide-bbox="true"
     inkscape:zoom="32.166317"
     inkscape:cx="67.099209"
     inkscape:cy="122.53638"
     inkscape:window-x="-8"
     inkscape:window-y="-8"
     inkscape:current-layer="svg34224"
     width="128px"
     height="128px"
     showgrid="false"
     inkscape:window-maximized="1" />
  <g
     id="g8293"
     transform="matrix(6.0558956,0,0,5.9415537,-53.624698,-5180.1091)">
    <path
       style="fill:#000000;fill-opacity:1"
       d="m 98.497795,842.17676 c -3.043866,0.96892 -2.645828,6.02702 -2.645828,9.16727 v 112.58291 c -2.323364,-4.76044 -8.485433,-4.70383 -13.04995,-5.05226 -12.175715,0.28476 -23.769287,7.42402 -30.47938,17.43802 -4.671697,6.78524 -6.139878,17.15958 0.313646,23.3465 7.974158,7.2262 20.191166,5.92 29.237977,1.5549 10.122572,-4.85833 20.45081,-14.10787 20.4453,-25.82178 l -0.042,-89.24437 c 10.48767,11.94551 22.25392,24.08652 26.0167,40.02734 2.45431,13.00383 -2.36551,25.88391 -6.08633,38.294 -1.96384,6.55003 7.62143,5.73316 9.0478,-0.50025 3.72029,-16.2581 8.44454,-33.63964 2.05119,-49.58598 -7.87982,-20.36215 -24.1333,-36.64697 -29.72141,-58.02253 -1.12761,-3.86173 -1.22252,-7.86539 -1.39898,-11.85471 -0.0779,-1.76121 -2.14607,-2.82012 -3.688735,-2.32906 z"
       id="path37431"
       inkscape:connector-curvature="0"
       sodipodi:nodetypes="sscccccsccssccss" />
  </g>
</svg>
