<?xml version="1.0" encoding="UTF-8" standalone="no"?>
<svg
   xmlns:dc="http://purl.org/dc/elements/1.1/"
   xmlns:cc="http://creativecommons.org/ns#"
   xmlns:rdf="http://www.w3.org/1999/02/22-rdf-syntax-ns#"
   xmlns:svg="http://www.w3.org/2000/svg"
   xmlns="http://www.w3.org/2000/svg"
   xmlns:sodipodi="http://sodipodi.sourceforge.net/DTD/sodipodi-0.dtd"
   xmlns:inkscape="http://www.inkscape.org/namespaces/inkscape"
   height="24"
   version="1.1"
   width="24"
   id="svg14"
   sodipodi:docname="note-32.svg"
   inkscape:version="0.92.4 (5da689c313, 2019-01-14)">
  <metadata
     id="metadata20">
    <rdf:RDF>
      <cc:Work
         rdf:about="">
        <dc:format>image/svg+xml</dc:format>
        <dc:type
           rdf:resource="http://purl.org/dc/dcmitype/StillImage" />
      </cc:Work>
    </rdf:RDF>
  </metadata>
  <defs
     id="defs18" />
  <sodipodi:namedview
     pagecolor="#ffffff"
     bordercolor="#666666"
     borderopacity="1"
     objecttolerance="10"
     gridtolerance="10"
     guidetolerance="10"
     inkscape:pageopacity="0"
     inkscape:pageshadow="2"
     inkscape:window-width="1920"
     inkscape:window-height="1017"
     id="namedview16"
     showgrid="false"
     inkscape:zoom="22.627417"
     inkscape:cx="18.611317"
     inkscape:cy="9.6048101"
     inkscape:window-x="-8"
     inkscape:window-y="-8"
     inkscape:window-maximized="1"
     inkscape:current-layer="svg14" />
  <g
     transform="translate(-219.99961,-243)"
     id="g12">
    <path
       d="m 232.5062,259.71771 c -1.21704,0 -2.35613,0.44556 -3.41731,1.33666 -1.06118,0.8911 -1.59177,1.84904 -1.59176,2.87381 0,0.62377 0.23004,1.12501 0.69013,1.50373 0.4601,0.37872 1.06118,0.56809 1.80327,0.56809 1.21702,0 2.35609,-0.44556 3.41728,-1.33666 1.06119,-0.8911 1.59178,-1.84904 1.59178,-2.87381 0,-0.62377 -0.23004,-1.12502 -0.69014,-1.50373 -0.46009,-0.37873 -1.06119,-0.56809 -1.80325,-0.56809"
       style="fill:#3b3f45"
       id="path2" />
    <path
       d="m 233.00082,245.00967 c 0,0 0.99962,-0.99961 1.99962,-0.99961 2.5e-4,0.0105 0,17.77554 0,17.77554 l -2,0 z"
       style="fill:#3b3f45;stroke-width:1.50800002"
       id="path4" />
    <path
       d="m 234.91122,252.89946 v 4.29526 c 0.60279,0.46834 1.12818,0.92702 1.53126,1.27697 0.44325,0.3848 0.93057,1.00947 1.37499,1.64844 0.43503,0.62552 0.65622,1.25811 0.65625,1.76454 -3e-5,1.02297 -0.30552,2.15595 -0.9375,3.25047 -0.1464,0.31648 -0.39818,0.58371 -0.62891,0.86486 0,0 0.33692,-0.087 0.37892,-0.0987 0.63921,-0.17689 1.09306,-0.3208 1.40625,-0.55721 0.33378,-0.25196 0.54845,-0.59477 0.75,-1.09124 0.28352,-0.78509 0.43749,-1.5423 0.43749,-2.29854 0,-0.63951 -0.19221,-1.31658 -0.53124,-1.97349 -0.33521,-0.64945 -0.73216,-1.23913 -1.21875,-1.81098 l -1.40625,-1.67166 c -0.45627,-0.54267 -0.89514,-1.10677 -1.21875,-1.74132 -0.24144,-0.64332 -0.35139,-0.63081 -0.59376,-1.8574 z"
       style="fill:#3b3f45"
       id="path6"
       inkscape:connector-curvature="0" />
    <path
       d="m 234.91203,244.01006 v 4.28125 c 0.60279,0.46833 1.12817,0.93129 1.53125,1.28124 0.44324,0.38481 0.93058,1.01728 1.375,1.65626 0.31909,0.4588 0.53889,0.89866 0.625,1.3125 0.002,0.009 -10e-4,0.022 0,0.0312 l 0.43749,0.49999 c 0.31541,0.37067 0.61499,0.75313 0.87501,1.15626 0.0776,-0.39179 0.12495,-0.79986 0.12495,-1.1875 0,-0.63951 -0.19222,-1.31184 -0.53125,-1.96875 -0.3352,-0.64946 -0.73217,-1.24067 -1.21875,-1.8125 l -1.40625,-1.65625 c -0.45627,-0.54268 -0.89514,-1.11545 -1.21875,-1.75001 -0.24144,-0.64326 -0.35137,-0.6171 -0.59375,-1.84369 z"
       style="fill:#3b3f45"
       id="path8"
       inkscape:connector-curvature="0" />
    <path
       d="m 234.91203,248.44971 v 4.28126 c 0.60279,0.46833 1.12818,0.93129 1.53126,1.28124 0.44325,0.3848 0.93057,1.01728 1.37499,1.65625 0.31909,0.45881 0.53889,0.89866 0.625,1.3125 0.002,0.009 -10e-4,0.0221 0,0.0312 l 0.43751,0.50001 c 0.31539,0.37065 0.61497,0.75312 0.87499,1.15625 0.0776,-0.39179 0.12495,-0.79986 0.12495,-1.18751 0,-0.63951 -0.19221,-1.31184 -0.53124,-1.96875 -0.33521,-0.64944 -0.73218,-1.24065 -1.21875,-1.81249 l -1.40625,-1.65626 c -0.45626,-0.54267 -0.89514,-1.11544 -1.21875,-1.74999 -0.24144,-0.64332 -0.35138,-0.61716 -0.59376,-1.84375 z"
       style="fill:#3b3f45"
       id="path10"
       inkscape:connector-curvature="0"
       sodipodi:nodetypes="ccccccccscccccc" />
  </g>
</svg>
