<?xml version="1.0" encoding="UTF-8" standalone="no"?>
<svg
   xmlns:dc="http://purl.org/dc/elements/1.1/"
   xmlns:cc="http://creativecommons.org/ns#"
   xmlns:rdf="http://www.w3.org/1999/02/22-rdf-syntax-ns#"
   xmlns:svg="http://www.w3.org/2000/svg"
   xmlns="http://www.w3.org/2000/svg"
   xmlns:sodipodi="http://sodipodi.sourceforge.net/DTD/sodipodi-0.dtd"
   xmlns:inkscape="http://www.inkscape.org/namespaces/inkscape"
   width="33"
   height="33"
   viewBox="-4.5 0 33 33"
   version="1.1"
   id="svg17"
   sodipodi:docname="note-1024.svg"
   inkscape:version="0.92.4 (5da689c313, 2019-01-14)">
  <metadata
     id="metadata21">
    <rdf:RDF>
      <cc:Work
         rdf:about="">
        <dc:format>image/svg+xml</dc:format>
        <dc:type
           rdf:resource="http://purl.org/dc/dcmitype/StillImage" />
        <dc:title>note-1024</dc:title>
      </cc:Work>
    </rdf:RDF>
  </metadata>
  <sodipodi:namedview
     pagecolor="#ffffff"
     bordercolor="#666666"
     borderopacity="1"
     objecttolerance="10"
     gridtolerance="10"
     guidetolerance="10"
     inkscape:pageopacity="0"
     inkscape:pageshadow="2"
     inkscape:window-width="1479"
     inkscape:window-height="968"
     id="namedview19"
     showgrid="false"
     inkscape:zoom="27.812867"
     inkscape:cx="11.627177"
     inkscape:cy="12.454991"
     inkscape:window-x="0"
     inkscape:window-y="0"
     inkscape:window-maximized="0"
     inkscape:current-layer="note-1024" />
  <!-- Generator: Sketch 41.2 (35397) - http://www.bohemiancoding.com/sketch -->
  <title
     id="title2">note-1024</title>
  <desc
     id="desc4">Created with Sketch.</desc>
  <defs
     id="defs6" />
  <g
     id="Original-24"
     style="fill:none;fill-rule:evenodd;stroke:none;stroke-width:1"
     transform="translate(0,9)">
    <g
       id="note-1024"
       style="fill:#3b3f45">
      <path
         d="m 11.999415,-6.6528681 c 0,0 0.99999,-1.5155853 2.000355,-1.5155853 2.55e-4,0.015914 0,26.9504384 0,26.9504384 h -2.00073 z"
         id="rect7032-8"
         inkscape:connector-curvature="0"
         style="stroke-width:1.23109722" />
      <path
         d="m 11.506414,16.717681 c -1.217042,0 -2.3561264,0.445562 -3.4173055,1.336664 -1.0611792,0.891104 -1.5917689,1.849039 -1.5917676,2.873807 -7e-7,0.623772 0.230045,1.125017 0.6901385,1.503737 0.4600914,0.378715 1.0611765,0.568081 1.8032608,0.568081 1.2170248,0 2.3560988,-0.445556 3.4172858,-1.336658 1.061188,-0.891102 1.591781,-1.849038 1.591781,-2.873807 0,-0.623773 -0.230047,-1.125017 -0.690141,-1.503734 -0.460094,-0.378723 -1.061187,-0.56809 -1.803252,-0.56809"
         id="path44-6-7"
         inkscape:connector-curvature="0" />
      <path
         d="M 13.999815,1.010015 V 4.07252 c 0.60279,0.333435 1.12818,0.65709 1.53126,0.90624 0.44325,0.27399 0.93057,0.70131 1.37499,1.15626 0.19782,0.2025 0.36006,0.39807 0.46875,0.593745 0.0105,0.0195 0.0213,0.0432 0.0312,0.06255 l 0.46875,0.375 c 0.374565,0.313395 0.70416,0.65076 1.000005,0.99999 0.05775,-0.23937 0.09375,-0.48129 0.09375,-0.71874 0,-0.455325 -0.192225,-0.93855 -0.531255,-1.40625 C 18.10206,5.578895 17.7051,5.167205 17.218515,4.76006 L 15.812265,3.572555 C 15.355995,3.186185 14.917125,2.774345 14.593515,2.32256 14.352075,1.86452 14.24214,1.883375 13.99977,1.01006 Z"
         id="path3434"
         inkscape:connector-curvature="0" />
      <path
         d="m 13.999755,13.67258 v 3.05817 c 0.60279,0.333435 1.12818,0.66003 1.53126,0.90918 0.44325,0.27396 0.93057,0.718725 1.37499,1.17366 0.43503,0.445365 0.65622,0.89577 0.65625,1.25634 -3e-5,0.72834 -0.30552,1.53501 -0.9375,2.31429 -0.1464,0.22533 -0.398175,0.41559 -0.628905,0.61575 0,0 0.336915,-0.06195 0.378915,-0.0702 0.63921,-0.126 1.093065,-0.22842 1.40625,-0.396735 0.33378,-0.179385 0.548445,-0.423465 0.75,-0.776955 0.283515,-0.55896 0.43749,-1.09809 0.43749,-1.63653 0,-0.45531 -0.19221,-0.93738 -0.53124,-1.40508 -0.335205,-0.46242 -0.732165,-0.88224 -1.21875,-1.2894 l -1.40625,-1.19019 c -0.45627,-0.386385 -0.89514,-0.788025 -1.21875,-1.23981 -0.24144,-0.458025 -0.35139,-0.449115 -0.59376,-1.322445 z"
         id="path3484"
         inkscape:connector-curvature="0" />
      <path
         d="m 13.999815,10.519325 v 3.062505 c 0.60279,0.333435 1.12818,0.65709 1.53126,0.90624 0.44325,0.27399 0.93057,0.70131 1.37499,1.15626 0.19782,0.2025 0.36006,0.39807 0.46875,0.593745 0.0105,0.0195 0.0213,0.0432 0.0312,0.06255 l 0.46875,0.375 c 0.374565,0.313395 0.70416,0.65076 1.000005,0.99999 0.05775,-0.23937 0.09375,-0.48129 0.09375,-0.71874 0,-0.455325 -0.192225,-0.93855 -0.531255,-1.40625 -0.335205,-0.46242 -0.732165,-0.87411 -1.21875,-1.281255 l -1.40625,-1.187505 c -0.45627,-0.38637 -0.89514,-0.79821 -1.21875,-1.249995 -0.24144,-0.45804 -0.351375,-0.439185 -0.593745,-1.3125 z"
         id="path4282"
         inkscape:connector-curvature="0" />
      <path
         d="m 13.999815,4.16813 v 3.06249 c 0.60279,0.33345 1.12818,0.657105 1.53126,0.906255 0.44325,0.273975 0.93057,0.70131 1.37499,1.156245 0.19782,0.2025 0.36006,0.398085 0.46875,0.59376 0.0105,0.0195 0.0213,0.0432 0.0312,0.06255 l 0.46875,0.375 c 0.374565,0.31341 0.70416,0.65076 1.000005,1.000005 0.05775,-0.23937 0.09375,-0.48129 0.09375,-0.718755 0,-0.45531 -0.192225,-0.938535 -0.531255,-1.40625 C 18.10206,8.737025 17.7051,8.32532 17.218515,7.91819 L 15.812265,6.730685 C 15.355995,6.3443 14.917125,5.93246 14.593515,5.48069 14.352075,5.02265 14.24214,5.041505 13.99977,4.16819 Z"
         id="path4287"
         inkscape:connector-curvature="0" />
      <path
         d="m 13.999815,7.33628 v 3.06249 c 0.60279,0.33345 1.12818,0.657105 1.53126,0.906255 0.44325,0.273975 0.93057,0.70131 1.37499,1.156245 0.19782,0.2025 0.36006,0.398085 0.46875,0.59376 0.0105,0.0195 0.0213,0.0432 0.0312,0.06255 l 0.46875,0.375 c 0.374565,0.31341 0.70416,0.65076 1.000005,1.000005 0.05775,-0.23937 0.09375,-0.48129 0.09375,-0.718755 0,-0.45531 -0.192225,-0.938535 -0.531255,-1.40625 C 18.10206,11.905175 17.7051,11.49347 17.218515,11.08634 L 15.812265,9.898835 C 15.355995,9.51245 14.917125,9.10061 14.593515,8.64884 14.352075,8.1908 14.24214,8.209655 13.99977,7.33634 Z"
         id="path4289"
         inkscape:connector-curvature="0" />
      <path
         d="M 13.999725,-8.187505 V -5.125 c 0.60279,0.333435 1.12818,0.65709 1.53126,0.90624 0.44325,0.27399 0.93057,0.70131 1.37499,1.15626 0.19782,0.2025 0.36006,0.39807 0.46875,0.593745 0.0105,0.0195 0.0213,0.0432 0.0312,0.06255 l 0.46875,0.375 c 0.374565,0.313395 0.70416,0.65076 1.000005,0.99999 0.05775,-0.23937 0.09375,-0.48129 0.09375,-0.71874 0,-0.455325 -0.192225,-0.93855 -0.531255,-1.40625 -0.335205,-0.46242 -0.732165,-0.87411 -1.21875,-1.281255 l -1.40625,-1.187505 c -0.45627,-0.38637 -0.89514,-0.79821 -1.21875,-1.249995 -0.24144,-0.45804 -0.351375,-0.439185 -0.593745,-1.3125 z"
         id="path3434-9"
         inkscape:connector-curvature="0" />
      <path
         d="m 13.999725,-5.125 v 3.062505 c 0.60279,0.333435 1.12818,0.65709 1.53126,0.90624 0.44325,0.27399 0.93057,0.70131 1.37499,1.15626 0.19782,0.2025 0.36006,0.39807 0.46875,0.593745 0.0105,0.0195 0.0213,0.0432 0.0312,0.06255 l 0.46875,0.375 c 0.374565,0.313395 0.70416,0.65076 1.000005,0.99999 0.05775,-0.23937 0.09375,-0.48129 0.09375,-0.71874 0,-0.455325 -0.192225,-0.93855 -0.531255,-1.40625 -0.335205,-0.46242 -0.732165,-0.87411 -1.21875,-1.281255 l -1.40625,-1.187505 c -0.45627,-0.38637 -0.89514,-0.79821 -1.21875,-1.249995 -0.24144,-0.45804 -0.351375,-0.439185 -0.593745,-1.3125 z"
         id="path3434-7"
         inkscape:connector-curvature="0" />
      <path
         d="m 13.99977,-2.06254 v 3.062505 c 0.60279,0.333435 1.12818,0.65709 1.53126,0.90624 0.44325,0.27399 0.93057,0.70131 1.37499,1.15626 0.19782,0.2025 0.36006,0.39807 0.46875,0.593745 0.0105,0.0195 0.0213,0.0432 0.0312,0.06255 l 0.46875,0.375 c 0.374565,0.313395 0.70416,0.65076 1.000005,0.99999 0.05775,-0.23937 0.09375,-0.48129 0.09375,-0.71874 0,-0.455325 -0.192225,-0.93855 -0.531255,-1.40625 C 18.102015,2.50634 17.705055,2.09465 17.21847,1.687505 L 15.81222,0.5 c -0.45627,-0.38637 -0.89514,-0.79821 -1.21875,-1.249995 -0.24144,-0.45804 -0.351375,-0.439185 -0.593745,-1.3125 z"
         id="path3434-3"
         inkscape:connector-curvature="0" />
    </g>
  </g>
</svg>
