<?xml version="1.0" encoding="UTF-8" standalone="no"?>
<svg
   xmlns:dc="http://purl.org/dc/elements/1.1/"
   xmlns:cc="http://creativecommons.org/ns#"
   xmlns:rdf="http://www.w3.org/1999/02/22-rdf-syntax-ns#"
   xmlns:svg="http://www.w3.org/2000/svg"
   xmlns="http://www.w3.org/2000/svg"
   xmlns:sodipodi="http://sodipodi.sourceforge.net/DTD/sodipodi-0.dtd"
   xmlns:inkscape="http://www.inkscape.org/namespaces/inkscape"
   width="24px"
   height="24px"
   viewBox="0 0 24 24"
   version="1.1"
   id="svg17"
   sodipodi:docname="note-128.svg"
   inkscape:version="0.92.4 (5da689c313, 2019-01-14)">
  <metadata
     id="metadata21">
    <rdf:RDF>
      <cc:Work
         rdf:about="">
        <dc:format>image/svg+xml</dc:format>
        <dc:type
           rdf:resource="http://purl.org/dc/dcmitype/StillImage" />
      </cc:Work>
    </rdf:RDF>
  </metadata>
  <sodipodi:namedview
     pagecolor="#ffffff"
     bordercolor="#666666"
     borderopacity="1"
     objecttolerance="10"
     gridtolerance="10"
     guidetolerance="10"
     inkscape:pageopacity="0"
     inkscape:pageshadow="2"
     inkscape:window-width="1920"
     inkscape:window-height="1017"
     id="namedview19"
     showgrid="false"
     inkscape:zoom="27.812867"
     inkscape:cx="6.4673693"
     inkscape:cy="12.519125"
     inkscape:window-x="-8"
     inkscape:window-y="-8"
     inkscape:window-maximized="1"
     inkscape:current-layer="svg17" />
  <!-- Generator: Sketch 41.2 (35397) - http://www.bohemiancoding.com/sketch -->
  <title
     id="title2">note-128</title>
  <desc
     id="desc4">Created with Sketch.</desc>
  <defs
     id="defs6" />
  <g
     id="Original-24"
     stroke="none"
     stroke-width="1"
     fill="none"
     fill-rule="evenodd">
    <g
       id="note-128"
       fill="#3B3F45">
      <path
         d="M11.999415,1.999955 C11.999415,1.999955 12.999405,0.999965 13.99977,0.999965 C14.000025,1.010465 13.99977,18.781985 13.99977,18.781985 L11.99904,18.781985 L11.999415,1.999955 Z"
         id="rect7032-8" />
      <path
         d="M11.5064136,16.7176809 C10.289372,16.7176809 9.15028764,17.1632428 8.08910845,18.0543448 C7.02792926,18.9454495 6.49733958,19.9033844 6.49734092,20.9281519 C6.49734024,21.5519244 6.72738589,22.0531692 7.18747943,22.4318892 C7.64757078,22.8106037 8.24865588,22.9999705 8.99074021,22.9999705 C10.2077654,22.9999705 11.3468389,22.5544141 12.4080263,21.6633121 C13.4692137,20.7722101 13.9998074,19.8142742 13.9998074,18.789505 C13.9998074,18.1657325 13.7697603,17.6644877 13.3096662,17.2857705 C12.8495721,16.9070478 12.2484788,16.7176809 11.5064136,16.7176809"
         id="path44-6-7" />
      <path
         d="M 13.927905,1.010015 V 4.07252 c 0.60279,0.333435 1.12818,0.65709 1.53126,0.90624 0.44325,0.27399 0.93057,0.70131 1.37499,1.15626 0.19782,0.2025 0.36006,0.39807 0.46875,0.593745 0.0105,0.0195 0.0213,0.0432 0.0312,0.06255 l 0.46875,0.375 c 0.374565,0.313395 0.70416,0.65076 1.000005,0.99999 0.05775,-0.23937 0.09375,-0.48129 0.09375,-0.71874 0,-0.455325 -0.192225,-0.93855 -0.531255,-1.40625 C 18.03015,5.578895 17.63319,5.167205 17.146605,4.76006 L 15.740355,3.572555 C 15.284085,3.186185 14.845215,2.774345 14.521605,2.32256 14.280165,1.86452 14.17023,1.883375 13.92786,1.01006 Z"
         id="path3434"
         inkscape:connector-curvature="0" />
      <path
         d="m 13.927845,13.67258 v 3.05817 c 0.60279,0.333435 1.12818,0.66003 1.53126,0.90918 0.44325,0.27396 0.93057,0.718725 1.37499,1.17366 0.43503,0.445365 0.65622,0.89577 0.65625,1.25634 -3e-5,0.72834 -0.30552,1.53501 -0.9375,2.31429 -0.1464,0.22533 -0.398175,0.41559 -0.628905,0.61575 0,0 0.336915,-0.06195 0.378915,-0.0702 0.63921,-0.126 1.093065,-0.22842 1.40625,-0.396735 0.33378,-0.179385 0.548445,-0.423465 0.75,-0.776955 0.283515,-0.55896 0.43749,-1.09809 0.43749,-1.63653 0,-0.45531 -0.19221,-0.93738 -0.53124,-1.40508 -0.335205,-0.46242 -0.732165,-0.88224 -1.21875,-1.2894 l -1.40625,-1.19019 c -0.45627,-0.386385 -0.89514,-0.788025 -1.21875,-1.23981 -0.24144,-0.458025 -0.35139,-0.449115 -0.59376,-1.322445 z"
         id="path3484"
         inkscape:connector-curvature="0" />
      <path
         d="m 13.927905,10.519325 v 3.062505 c 0.60279,0.333435 1.12818,0.65709 1.53126,0.90624 0.44325,0.27399 0.93057,0.70131 1.37499,1.15626 0.19782,0.2025 0.36006,0.39807 0.46875,0.593745 0.0105,0.0195 0.0213,0.0432 0.0312,0.06255 l 0.46875,0.375 c 0.374565,0.313395 0.70416,0.65076 1.000005,0.99999 0.05775,-0.23937 0.09375,-0.48129 0.09375,-0.71874 0,-0.455325 -0.192225,-0.93855 -0.531255,-1.40625 -0.335205,-0.46242 -0.732165,-0.87411 -1.21875,-1.281255 l -1.40625,-1.187505 c -0.45627,-0.38637 -0.89514,-0.79821 -1.21875,-1.249995 -0.24144,-0.45804 -0.351375,-0.439185 -0.593745,-1.3125 z"
         id="path4282"
         inkscape:connector-curvature="0" />
      <path
         d="m 13.927905,4.16813 v 3.06249 c 0.60279,0.33345 1.12818,0.657105 1.53126,0.906255 0.44325,0.273975 0.93057,0.70131 1.37499,1.156245 0.19782,0.2025 0.36006,0.398085 0.46875,0.59376 0.0105,0.0195 0.0213,0.0432 0.0312,0.06255 l 0.46875,0.375 c 0.374565,0.31341 0.70416,0.65076 1.000005,1.000005 0.05775,-0.23937 0.09375,-0.48129 0.09375,-0.718755 0,-0.45531 -0.192225,-0.938535 -0.531255,-1.40625 C 18.03015,8.737025 17.63319,8.32532 17.146605,7.91819 L 15.740355,6.730685 C 15.284085,6.3443 14.845215,5.93246 14.521605,5.48069 14.280165,5.02265 14.17023,5.041505 13.92786,4.16819 Z"
         id="path4287"
         inkscape:connector-curvature="0" />
      <path
         d="m 13.927905,7.33628 v 3.06249 c 0.60279,0.33345 1.12818,0.657105 1.53126,0.906255 0.44325,0.273975 0.93057,0.70131 1.37499,1.156245 0.19782,0.2025 0.36006,0.398085 0.46875,0.59376 0.0105,0.0195 0.0213,0.0432 0.0312,0.06255 l 0.46875,0.375 c 0.374565,0.31341 0.70416,0.65076 1.000005,1.000005 0.05775,-0.23937 0.09375,-0.48129 0.09375,-0.718755 0,-0.45531 -0.192225,-0.938535 -0.531255,-1.40625 -0.335205,-0.462405 -0.732165,-0.87411 -1.21875,-1.28124 L 15.740355,9.898835 C 15.284085,9.51245 14.845215,9.10061 14.521605,8.64884 14.280165,8.1908 14.17023,8.209655 13.92786,7.33634 Z"
         id="path4289"
         inkscape:connector-curvature="0" />
    </g>
  </g>
</svg>
