<?xml version="1.0" encoding="UTF-8" standalone="no"?>
<svg
   xmlns:dc="http://purl.org/dc/elements/1.1/"
   xmlns:cc="http://creativecommons.org/ns#"
   xmlns:rdf="http://www.w3.org/1999/02/22-rdf-syntax-ns#"
   xmlns:svg="http://www.w3.org/2000/svg"
   xmlns="http://www.w3.org/2000/svg"
   xmlns:sodipodi="http://sodipodi.sourceforge.net/DTD/sodipodi-0.dtd"
   xmlns:inkscape="http://www.inkscape.org/namespaces/inkscape"
   height="24"
   version="1.1"
   width="24"
   id="svg8"
   sodipodi:docname="note-2.svg"
   inkscape:version="0.92.4 (5da689c313, 2019-01-14)">
  <metadata
     id="metadata14">
    <rdf:RDF>
      <cc:Work
         rdf:about="">
        <dc:format>image/svg+xml</dc:format>
        <dc:type
           rdf:resource="http://purl.org/dc/dcmitype/StillImage" />
      </cc:Work>
    </rdf:RDF>
  </metadata>
  <defs
     id="defs12" />
  <sodipodi:namedview
     pagecolor="#ffffff"
     bordercolor="#666666"
     borderopacity="1"
     objecttolerance="10"
     gridtolerance="10"
     guidetolerance="10"
     inkscape:pageopacity="0"
     inkscape:pageshadow="2"
     inkscape:window-width="1920"
     inkscape:window-height="1017"
     id="namedview10"
     showgrid="false"
     inkscape:zoom="39.333333"
     inkscape:cx="8.1064135"
     inkscape:cy="10.656606"
     inkscape:window-x="-8"
     inkscape:window-y="-8"
     inkscape:window-maximized="1"
     inkscape:current-layer="svg8" />
  <g
     transform="translate(-363.99959,-243)"
     id="g6">
    <path
       d="m 377.00041,244.90983 c 0,0 0.99962,-0.89936 1.99962,-0.89936 2.6e-4,0.009 0,16 0,16 l -2,0 z"
       style="fill:#3b3f45;stroke-width:1.50800002"
       id="path2" />
    <path
       d="m 376.96874,259.31243 c -1.87465,0 -3.13908,0.5562 -4.34535,1.37129 -0.57055,0.3912 -1.25627,0.9597 -1.6234,1.59746 -0.40794,0.70864 -0.50034,1.39818 -0.5,1.96875 -3e-5,1.17369 0.6932,1.75053 2.0625,1.74999 1.85835,3e-5 3.38745,-0.40365 4.59375,-1.21875 0.57053,-0.39123 1.01771,-0.95258 1.34375,-1.71874 0.32604,-0.76615 0.50035,-1.42944 0.49999,-2 0.0135,-0.50552 0,-1.1875 0,-1.1875 0,0 -0.68693,-0.22715 -0.81249,-0.3125 -0.30972,-0.16299 -0.69711,-0.25071 -1.21875,-0.25 z m -0.12494,1.3125 c 0.21246,3e-5 0.36403,4.9e-4 0.50001,0.12495 0.13334,0.11114 0.1756,0.24767 0.1875,0.4375 v 0.0937 c -2e-5,0.21333 -0.08,0.35043 -0.1875,0.46875 -0.3207,0.37902 -0.86815,0.85591 -2.34375,1.8125 -1.45368,0.93678 -2.05008,1.18772 -2.37501,1.1875 -0.19746,-3e-5 -0.36711,-0.0984 -0.53124,-0.25 -0.15042,-0.15043 -0.21912,-0.27322 -0.21876,-0.46875 0,-0.15586 0.0749,-0.29875 0.21876,-0.46875 0.32223,-0.38085 0.88515,-0.84122 2.34375,-1.78125 1.4534,-0.95276 2.08233,-1.15647 2.40624,-1.15625 z"
       style="fill:#3b3f45"
       id="path4"
       inkscape:connector-curvature="0"
       sodipodi:nodetypes="ccsccccccccccccccccccccc" />
  </g>
</svg>
