<?xml version="1.0" encoding="UTF-8" standalone="no"?>
<!-- Created with Inkscape (http://www.inkscape.org/) -->

<svg
   xmlns:dc="http://purl.org/dc/elements/1.1/"
   xmlns:cc="http://creativecommons.org/ns#"
   xmlns:rdf="http://www.w3.org/1999/02/22-rdf-syntax-ns#"
   xmlns:svg="http://www.w3.org/2000/svg"
   xmlns="http://www.w3.org/2000/svg"
   xmlns:sodipodi="http://sodipodi.sourceforge.net/DTD/sodipodi-0.dtd"
   xmlns:inkscape="http://www.inkscape.org/namespaces/inkscape"
   id="svg2"
   version="1.1"
   inkscape:version="0.47 r22583"
   width="20"
   height="24"
   sodipodi:docname="note2.svg">
  <sodipodi:namedview
     pagecolor="#ffff9f"
     bordercolor="#666666"
     borderopacity="1"
     objecttolerance="10"
     gridtolerance="10"
     guidetolerance="10"
     inkscape:pageopacity="1"
     inkscape:pageshadow="2"
     inkscape:window-width="756"
     inkscape:window-height="482"
     id="namedview4"
     showgrid="false"
     inkscape:zoom="9.8333333"
     inkscape:cx="13.050847"
     inkscape:cy="11.649199"
     inkscape:window-x="857"
     inkscape:window-y="119"
     inkscape:window-maximized="0"
     inkscape:current-layer="svg2"
     inkscape:snap-grids="true"
     inkscape:snap-to-guides="true" />
  <metadata
     id="metadata8">
    <rdf:RDF>
      <cc:Work
         rdf:about="">
        <dc:format>image/svg+xml</dc:format>
        <dc:type
           rdf:resource="http://purl.org/dc/dcmitype/StillImage" />
        <dc:title />
      </cc:Work>
    </rdf:RDF>
  </metadata>
  <defs
     id="defs6">
    <inkscape:perspective
       id="perspective10"
       inkscape:persp3d-origin="0.5 : 0.33333333 : 1"
       inkscape:vp_z="1 : 0.5 : 1"
       inkscape:vp_y="0 : 1000 : 0"
       inkscape:vp_x="0 : 0.5 : 1"
       sodipodi:type="inkscape:persp3d" />
  </defs>
  <g
     style="font-size:20px;font-style:normal;font-variant:normal;font-weight:normal;font-stretch:normal;text-align:start;line-height:125%;writing-mode:lr-tb;text-anchor:start;fill:#000000;fill-opacity:1;stroke:none;font-family:MScore1;-inkscape-font-specification:MScore1"
     id="text2816">
    <path
       d="m 11.791526,17.272542 c -0.01334,-0.213329 -0.100007,-0.386662 -0.26,-0.52 -0.160006,-0.146662 -0.353339,-0.219995 -0.58,-0.22 -0.373339,5e-6 -1.1600046,0.393338 -2.3600003,1.18 -1.2000019,0.773336 -1.9466679,1.333336 -2.24,1.68 -0.1466674,0.173335 -0.2200007,0.360002 -0.22,0.56 -7e-7,0.226668 0.079999,0.420001 0.24,0.58 0.1733322,0.160001 0.373332,0.24 0.6,0.24 0.3733314,0 1.1599973,-0.386666 2.36,-1.16 1.2133283,-0.786664 1.9666613,-1.35333 2.2600003,-1.7 0.133327,-0.146663 0.199993,-0.33333 0.2,-0.56 l 0,-0.08 m -4.6200003,4.12 c -1.1200006,0 -1.68,-0.48 -1.68,-1.44 0,-0.466665 0.1333332,-1.006664 0.4,-1.62 0.266666,-0.626663 0.6333323,-1.099996 1.1,-1.42 0.9866641,-0.666662 2.2466629,-0.999995 3.7800003,-1 0.426661,5e-6 0.76666,0.06667 1.02,0.2 l 0,-13.7599999 c 0.02666,-0.2133143 0.133327,-0.3266475 0.32,-0.34 0.18666,0.013352 0.293326,0.1266857 0.32,0.34 l 0,14.9799999 c -7e-6,0.46667 -0.13334,1.013336 -0.4,1.64 -0.266673,0.626668 -0.63334,1.100001 -1.1,1.42 -0.9866715,0.666667 -2.2400035,1 -3.7600003,1"
       style=""
       id="path2814" />
  </g>
</svg>
