<?xml version="1.0" encoding="UTF-8" standalone="no"?>
<!-- Created with Inkscape (http://www.inkscape.org/) -->

<svg
   xmlns:dc="http://purl.org/dc/elements/1.1/"
   xmlns:cc="http://creativecommons.org/ns#"
   xmlns:rdf="http://www.w3.org/1999/02/22-rdf-syntax-ns#"
   xmlns:svg="http://www.w3.org/2000/svg"
   xmlns="http://www.w3.org/2000/svg"
   xmlns:sodipodi="http://sodipodi.sourceforge.net/DTD/sodipodi-0.dtd"
   xmlns:inkscape="http://www.inkscape.org/namespaces/inkscape"
   id="svg2"
   version="1.1"
   inkscape:version="0.47 r22583"
   width="20"
   height="24"
   sodipodi:docname="note32.svg">
  <sodipodi:namedview
     pagecolor="#ffff9f"
     bordercolor="#666666"
     borderopacity="1"
     objecttolerance="10"
     gridtolerance="10"
     guidetolerance="10"
     inkscape:pageopacity="1"
     inkscape:pageshadow="2"
     inkscape:window-width="756"
     inkscape:window-height="482"
     id="namedview4"
     showgrid="false"
     inkscape:zoom="9.8333333"
     inkscape:cx="13.050847"
     inkscape:cy="11.649199"
     inkscape:window-x="857"
     inkscape:window-y="119"
     inkscape:window-maximized="0"
     inkscape:current-layer="svg2"
     inkscape:snap-grids="true"
     inkscape:snap-to-guides="true" />
  <metadata
     id="metadata8">
    <rdf:RDF>
      <cc:Work
         rdf:about="">
        <dc:format>image/svg+xml</dc:format>
        <dc:type
           rdf:resource="http://purl.org/dc/dcmitype/StillImage" />
        <dc:title />
      </cc:Work>
    </rdf:RDF>
  </metadata>
  <defs
     id="defs6">
    <inkscape:perspective
       id="perspective10"
       inkscape:persp3d-origin="0.5 : 0.33333333 : 1"
       inkscape:vp_z="1 : 0.5 : 1"
       inkscape:vp_y="0 : 1000 : 0"
       inkscape:vp_x="0 : 0.5 : 1"
       sodipodi:type="inkscape:persp3d" />
  </defs>
  <g
     style="font-size:20px;font-style:normal;font-variant:normal;font-weight:normal;font-stretch:normal;text-align:start;line-height:125%;writing-mode:lr-tb;text-anchor:start;fill:#000000;fill-opacity:1;stroke:none;font-family:MScore1;-inkscape-font-specification:MScore1"
     id="text2816">
    <path
       d="m 14.569831,11.937288 c 0.05332,-0.199992 0.07999,-0.419992 0.08,-0.66 -1e-5,-1.2933236 -0.893342,-2.9199886 -2.68,-4.8800005 l 0,1.44 c 0.159993,0.440012 0.379993,0.8866782 0.66,1.34 0.293325,0.4400106 0.639992,0.9400105 1.04,1.5000005 0.413324,0.560009 0.713324,0.980008 0.9,1.26 m -2.92,-10.4600005 c 0.199993,0.013352 0.30666,0.1200187 0.32,0.32 l 0,1.8 c 0.226659,0.6666827 0.646659,1.4666819 1.26,2.4 0.626658,0.9333467 1.159991,1.8333458 1.6,2.7 0.43999,0.8666774 0.659989,1.7266765 0.66,2.5800005 -1.1e-5,0.573341 -0.12001,1.120007 -0.36,1.64 0.386656,0.800006 0.579989,1.553339 0.58,2.26 -1.1e-5,0.680004 -0.160011,1.373337 -0.48,2.08 0.399989,0.773335 0.599989,1.533334 0.6,2.28 -1.1e-5,1.159999 -0.280011,2.333331 -0.84,3.52 -0.09334,0.146663 -0.22001,0.219996 -0.38,0.22 -0.133343,-4e-6 -0.253343,-0.05334 -0.36,-0.16 -0.09334,-0.10667 -0.126676,-0.233336 -0.1,-0.38 0.55999,-1.080002 0.83999,-2.146667 0.84,-3.2 -1e-5,-1.293332 -1.006676,-2.799997 -3.02,-4.52 l 0,1.78 c -7e-6,0.893335 -0.466673,1.733335 -1.4,2.52 -0.933338,0.786666 -1.933337,1.179999 -3.0000004,1.18 -0.6533349,-1e-6 -1.180001,-0.166667 -1.58,-0.5 -0.4000002,-0.333333 -0.6,-0.773333 -0.6,-1.32 0,-0.893331 0.4666662,-1.733331 1.4,-2.52 0.933331,-0.786662 1.93333,-1.179995 3,-1.18 0.6133284,5e-6 1.1266614,0.153338 1.5400004,0.46 l 0,-13.6400005 c 0.01333,-0.1999813 0.119994,-0.3066479 0.32,-0.32 m 3.02,14.8400005 c 0.11999,-0.359996 0.17999,-0.739996 0.18,-1.14 -10e-6,-0.759995 -0.266676,-1.499994 -0.8,-2.22 -0.520009,-0.719992 -1.213341,-1.473325 -2.08,-2.26 l 0,1.48 c 0.173326,0.440007 0.406659,0.886673 0.7,1.34 0.293325,0.453339 0.653325,0.960005 1.08,1.52 0.426657,0.560004 0.733324,0.98667 0.92,1.28"
       style=""
       id="path2814" />
  </g>
</svg>
