<?xml version="1.0" encoding="UTF-8" standalone="no"?>
<svg
   xmlns:dc="http://purl.org/dc/elements/1.1/"
   xmlns:cc="http://creativecommons.org/ns#"
   xmlns:rdf="http://www.w3.org/1999/02/22-rdf-syntax-ns#"
   xmlns:svg="http://www.w3.org/2000/svg"
   xmlns="http://www.w3.org/2000/svg"
   xmlns:sodipodi="http://sodipodi.sourceforge.net/DTD/sodipodi-0.dtd"
   xmlns:inkscape="http://www.inkscape.org/namespaces/inkscape"
   height="24"
   version="1.1"
   width="24"
   id="svg12"
   sodipodi:docname="note-16.svg"
   inkscape:version="0.92.4 (5da689c313, 2019-01-14)">
  <metadata
     id="metadata18">
    <rdf:RDF>
      <cc:Work
         rdf:about="">
        <dc:format>image/svg+xml</dc:format>
        <dc:type
           rdf:resource="http://purl.org/dc/dcmitype/StillImage" />
      </cc:Work>
    </rdf:RDF>
  </metadata>
  <defs
     id="defs16" />
  <sodipodi:namedview
     pagecolor="#ffffff"
     bordercolor="#666666"
     borderopacity="1"
     objecttolerance="10"
     gridtolerance="10"
     guidetolerance="10"
     inkscape:pageopacity="0"
     inkscape:pageshadow="2"
     inkscape:window-width="1920"
     inkscape:window-height="1017"
     id="namedview14"
     showgrid="false"
     inkscape:zoom="32"
     inkscape:cx="14.809951"
     inkscape:cy="13.380186"
     inkscape:window-x="-8"
     inkscape:window-y="-8"
     inkscape:window-maximized="1"
     inkscape:current-layer="svg12" />
  <g
     transform="translate(-255.99959,-243)"
     id="g10">
    <path
       d="m 270.87544,244.01006 v 5.37499 c 0.6028,0.5868 1.12817,1.1553 1.53125,1.59375 0.44325,0.48215 0.93059,1.29315 1.375,2.09376 0.33982,0.61221 0.54963,1.20654 0.62501,1.74999 l 0.53124,0.78126 c 0.28026,0.41268 0.52027,0.86631 0.75,1.3125 0.0872,-0.5214 0.15625,-1.04725 0.15625,-1.5625 0,-0.80129 -0.19222,-1.64566 -0.53125,-2.46875 -0.33519,-0.81375 -0.73215,-1.56475 -1.21875,-2.28126 l -1.40625,-2.09374 c -0.45627,-0.67995 -0.89514,-1.39244 -1.21875,-2.1875 -0.24144,-0.80607 -0.35138,-0.7756 -0.59375,-2.3125 z"
       style="fill:#3b3f45"
       id="path2"
       inkscape:connector-curvature="0"
       sodipodi:nodetypes="cccccccsccccc" />
    <path
       d="m 268.50618,259.71771 c -1.21704,0 -2.35613,0.44556 -3.41731,1.33666 -1.06118,0.8911 -1.59177,1.84904 -1.59176,2.87381 0,0.62377 0.23004,1.12501 0.69013,1.50373 0.4601,0.37872 1.06118,0.56809 1.80327,0.56809 1.21702,0 2.35609,-0.44556 3.41728,-1.33666 1.06119,-0.8911 1.59178,-1.84904 1.59178,-2.87381 0,-0.62377 -0.23004,-1.12502 -0.69014,-1.50373 -0.46009,-0.37873 -1.06119,-0.56809 -1.80325,-0.56809"
       style="fill:#3b3f45"
       id="path4" />
    <path
       d="m 269.00082,245.00967 c 0,0 0.99961,-0.99961 1.99962,-0.99961 2.5e-4,0.0105 0,17.77554 0,17.77554 l -2,0 z"
       style="fill:#3b3f45;stroke-width:1.50800002"
       id="path6" />
    <path
       d="m 270.87463,249.58544 v 5.38183 c 0.6028,0.5868 1.12819,1.16153 1.53127,1.59999 0.44324,0.48215 0.93056,1.26485 1.37498,2.06546 0.43503,0.78374 0.65623,1.57637 0.65625,2.21091 -2e-5,1.28174 -0.30552,2.70135 -0.9375,4.07274 -0.1464,0.39654 -0.39817,0.73137 -0.6289,1.08363 0,0 0.33691,-0.10905 0.37892,-0.1236 0.63921,-0.22164 1.09306,-0.40198 1.40625,-0.6982 0.33378,-0.31569 0.54844,-0.74521 0.75,-1.36727 0.28351,-0.98369 0.43748,-1.93245 0.43748,-2.88001 0,-0.80128 -0.19221,-1.64962 -0.53123,-2.47272 -0.33521,-0.81375 -0.73217,-1.55259 -1.21875,-2.26909 l -1.40625,-2.09454 c -0.45627,-0.67995 -0.89515,-1.38676 -1.21875,-2.18182 -0.24145,-0.80606 -0.35139,-0.79039 -0.59377,-2.32728 z"
       style="fill:#3b3f45"
       id="path8"
       inkscape:connector-curvature="0" />
  </g>
</svg>
