<?xml version="1.0" encoding="UTF-8" standalone="no"?>
<svg
   xmlns:dc="http://purl.org/dc/elements/1.1/"
   xmlns:cc="http://creativecommons.org/ns#"
   xmlns:rdf="http://www.w3.org/1999/02/22-rdf-syntax-ns#"
   xmlns:svg="http://www.w3.org/2000/svg"
   xmlns="http://www.w3.org/2000/svg"
   xmlns:sodipodi="http://sodipodi.sourceforge.net/DTD/sodipodi-0.dtd"
   xmlns:inkscape="http://www.inkscape.org/namespaces/inkscape"
   height="24"
   version="1.1"
   width="24"
   id="svg16"
   sodipodi:docname="note-64.svg"
   inkscape:version="0.92.4 (5da689c313, 2019-01-14)">
  <metadata
     id="metadata22">
    <rdf:RDF>
      <cc:Work
         rdf:about="">
        <dc:format>image/svg+xml</dc:format>
        <dc:type
           rdf:resource="http://purl.org/dc/dcmitype/StillImage" />
      </cc:Work>
    </rdf:RDF>
  </metadata>
  <defs
     id="defs20" />
  <sodipodi:namedview
     pagecolor="#ffffff"
     bordercolor="#666666"
     borderopacity="1"
     objecttolerance="10"
     gridtolerance="10"
     guidetolerance="10"
     inkscape:pageopacity="0"
     inkscape:pageshadow="2"
     inkscape:window-width="1920"
     inkscape:window-height="1017"
     id="namedview18"
     showgrid="false"
     inkscape:zoom="32"
     inkscape:cx="18.090618"
     inkscape:cy="14.110166"
     inkscape:window-x="-8"
     inkscape:window-y="-8"
     inkscape:window-maximized="1"
     inkscape:current-layer="svg16" />
  <g
     transform="translate(-183.99962,-243)"
     id="g14">
    <path
       d="m 196.50621,259.71771 c -1.21704,0 -2.35613,0.44556 -3.41731,1.33666 -1.06118,0.8911 -1.59177,1.84904 -1.59176,2.87381 0,0.62377 0.23004,1.12501 0.69013,1.50373 0.4601,0.37872 1.06118,0.56809 1.80327,0.56809 1.21702,0 2.35609,-0.44556 3.41728,-1.33666 1.06119,-0.8911 1.59178,-1.84904 1.59178,-2.87381 0,-0.62377 -0.23004,-1.12502 -0.69014,-1.50373 -0.46009,-0.37873 -1.06119,-0.56809 -1.80325,-0.56809"
       style="fill:#3b3f45"
       id="path2" />
    <path
       d="m 197.00081,245.00967 c 0,0 0.99962,-0.99961 1.99962,-0.99961 2.6e-4,0.0105 0,17.77554 0,17.77554 l -1.99999,0 z"
       style="fill:#3b3f45;stroke-width:1.50800002"
       id="path4" />
    <path
       d="m 198.9379,244.01006 v 3.5625 c 0.6028,0.38953 1.12817,0.77143 1.53125,1.06249 0.44325,0.32007 0.93059,0.84352 1.375,1.37501 0.26753,0.31995 0.45842,0.63886 0.5625,0.9375 l 0.43751,0.4375 c 0.35346,0.34551 0.65739,0.7167 0.9375,1.09374 0.074,-0.3177 0.12495,-0.62298 0.12495,-0.9375 0,-0.53193 -0.19223,-1.10985 -0.53125,-1.65624 -0.33521,-0.54021 -0.73217,-1.02435 -1.21875,-1.5 l -1.40625,-1.40625 c -0.45627,-0.45138 -0.89515,-0.90972 -1.21875,-1.43751 -0.24145,-0.53508 -0.35138,-0.511 -0.59375,-1.53124 z"
       style="fill:#3b3f45"
       id="path6"
       inkscape:connector-curvature="0" />
    <path
       d="m 198.93709,255.10341 v 3.57265 c 0.6028,0.38956 1.12819,0.77106 1.53127,1.06214 0.44324,0.32007 0.93056,0.83966 1.37498,1.37112 0.43503,0.52029 0.65623,1.04646 0.65625,1.46769 -2e-5,0.85087 -0.30552,1.79325 -0.9375,2.70363 -0.1464,0.26324 -0.39817,0.4855 -0.6289,0.71936 0,0 0.33691,-0.0725 0.37892,-0.0821 0.63921,-0.14715 1.09306,-0.26685 1.40625,-0.46348 0.33378,-0.20956 0.54844,-0.4947 0.75,-0.90765 0.28351,-0.65301 0.43748,-1.28283 0.43748,-1.91185 0,-0.53192 -0.19221,-1.09508 -0.53123,-1.64148 -0.33521,-0.5402 -0.73217,-1.03067 -1.21875,-1.5063 l -1.40625,-1.39044 c -0.45627,-0.45137 -0.89515,-0.92058 -1.21875,-1.44837 -0.24145,-0.5351 -0.35139,-0.52469 -0.59377,-1.54494 z"
       style="fill:#3b3f45"
       id="path8"
       inkscape:connector-curvature="0" />
    <path
       d="m 198.9379,251.40226 v 3.5625 c 0.6028,0.38954 1.12819,0.77144 1.53127,1.0625 0.44324,0.32007 0.93056,0.84352 1.37498,1.375 0.26754,0.31996 0.45842,0.63887 0.5625,0.9375 l 0.43751,0.43751 c 0.35346,0.34551 0.65739,0.7167 0.9375,1.09374 0.074,-0.3177 0.12495,-0.62298 0.12495,-0.9375 0,-0.53193 -0.19221,-1.10985 -0.53124,-1.65624 -0.33522,-0.54021 -0.73218,-1.02435 -1.21875,-1.5 l -1.40625,-1.40625 c -0.45627,-0.45138 -0.89514,-0.90972 -1.21875,-1.43751 -0.24144,-0.53508 -0.35139,-0.511 -0.59376,-1.53125 z"
       style="fill:#3b3f45"
       id="path10"
       inkscape:connector-curvature="0"
       sodipodi:nodetypes="cccccccscccccc" />
    <path
       d="m 198.9379,247.70113 v 3.5625 c 0.6028,0.38954 1.12819,0.77144 1.53127,1.0625 0.44324,0.32007 0.93056,0.84352 1.37498,1.375 0.26754,0.31996 0.45842,0.63887 0.5625,0.9375 l 0.43751,0.43751 c 0.35346,0.34551 0.65739,0.7167 0.9375,1.09374 0.074,-0.3177 0.12495,-0.62298 0.12495,-0.9375 0,-0.53193 -0.19221,-1.10985 -0.53124,-1.65624 -0.33522,-0.54021 -0.73218,-1.02435 -1.21875,-1.5 l -1.40625,-1.40625 c -0.45627,-0.45138 -0.89514,-0.90972 -1.21875,-1.43751 -0.24144,-0.53508 -0.35139,-0.511 -0.59376,-1.53125 z"
       style="fill:#3b3f45"
       id="path12"
       inkscape:connector-curvature="0" />
  </g>
</svg>
