<?xml version="1.0" encoding="UTF-8" standalone="no"?>
<svg
   xmlns:dc="http://purl.org/dc/elements/1.1/"
   xmlns:cc="http://creativecommons.org/ns#"
   xmlns:rdf="http://www.w3.org/1999/02/22-rdf-syntax-ns#"
   xmlns:svg="http://www.w3.org/2000/svg"
   xmlns="http://www.w3.org/2000/svg"
   xmlns:sodipodi="http://sodipodi.sourceforge.net/DTD/sodipodi-0.dtd"
   xmlns:inkscape="http://www.inkscape.org/namespaces/inkscape"
   height="24"
   version="1.1"
   width="24"
   id="svg10"
   sodipodi:docname="note-8.svg"
   inkscape:version="0.92.4 (5da689c313, 2019-01-14)">
  <metadata
     id="metadata16">
    <rdf:RDF>
      <cc:Work
         rdf:about="">
        <dc:format>image/svg+xml</dc:format>
        <dc:type
           rdf:resource="http://purl.org/dc/dcmitype/StillImage" />
      </cc:Work>
    </rdf:RDF>
  </metadata>
  <defs
     id="defs14" />
  <sodipodi:namedview
     pagecolor="#ffffff"
     bordercolor="#666666"
     borderopacity="1"
     objecttolerance="10"
     gridtolerance="10"
     guidetolerance="10"
     inkscape:pageopacity="0"
     inkscape:pageshadow="2"
     inkscape:window-width="1920"
     inkscape:window-height="1017"
     id="namedview12"
     showgrid="false"
     inkscape:zoom="16"
     inkscape:cx="3.0228442"
     inkscape:cy="16.554489"
     inkscape:window-x="-8"
     inkscape:window-y="-8"
     inkscape:window-maximized="1"
     inkscape:current-layer="svg10" />
  <g
     transform="translate(-291.99999,-243)"
     id="g8">
    <path
       d="m 304.50658,259.71773 c -1.21704,0 -2.35613,0.44556 -3.41731,1.33666 -1.06118,0.8911 -1.59177,1.84904 -1.59176,2.87381 0,0.62377 0.23004,1.12501 0.69013,1.50373 0.4601,0.37872 1.06118,0.56809 1.80327,0.56809 1.21702,0 2.35609,-0.44556 3.41728,-1.33666 1.06119,-0.8911 1.59178,-1.84904 1.59178,-2.87381 0,-0.62377 -0.23004,-1.12502 -0.69014,-1.50373 -0.46009,-0.37873 -1.06119,-0.56809 -1.80325,-0.56809"
       style="fill:#3b3f45"
       id="path2" />
    <path
       d="m 306.94575,244.01006 0.0293,5.78125 c 0.6028,0.63036 1.1536,1.24773 1.55667,1.71875 0.44326,0.51792 0.93059,1.35871 1.375,2.21875 0.43503,0.84189 0.65623,1.69337 0.65625,2.375 -2e-5,1.37688 -0.30552,2.90182 -0.9375,4.375 -0.1464,0.42597 -0.39817,0.78566 -0.6289,1.16406 0,0 0.3369,-0.11715 0.3789,-0.13275 0.63921,-0.23808 1.09308,-0.43179 1.40625,-0.75 0.33378,-0.33912 0.54846,-0.80052 0.75,-1.46875 0.28353,-1.05669 0.4375,-2.07589 0.4375,-3.09375 0,-0.86078 -0.19221,-1.77206 -0.53125,-2.65625 -0.33519,-0.87414 -0.73215,-1.66782 -1.21875,-2.4375 l -1.40625,-2.25 c -0.45627,-0.73041 -0.89513,-1.48968 -1.21875,-2.34375 -0.24144,-0.86588 -0.40604,-0.8491 -0.64842,-2.50006 z"
       style="fill:#3b3f45"
       id="path4"
       inkscape:connector-curvature="0"
       sodipodi:nodetypes="ccccccccccsccccc" />
    <path
       d="m 305.00082,245.00967 c 0,0 0.99961,-0.99961 1.99962,-0.99961 2.5e-4,0.0105 0,17.77554 0,17.77554 l -2,0 z"
       style="fill:#3b3f45;stroke-width:1.50800002"
       id="path6" />
  </g>
</svg>
