<?xml version="1.0" standalone="no"?><!-- Generator: Gravit.io --><svg xmlns="http://www.w3.org/2000/svg" xmlns:xlink="http://www.w3.org/1999/xlink" style="isolation:isolate" viewBox="0 0 94 94" width="94" height="94"><defs><clipPath id="_clipPath_9JbtuVy4F6hNHJ0cXypNjAsezHGDpwlU"><rect width="94" height="94"/></clipPath></defs><g clip-path="url(#_clipPath_9JbtuVy4F6hNHJ0cXypNjAsezHGDpwlU)"><g><path d=" M 61.992 0 L 53.971 0 L 53.971 65.358 C 49.536 63.652 43.797 63.628 38.136 65.686 C 27.994 69.377 21.951 78.355 24.638 85.736 C 27.326 93.119 37.726 96.11 47.867 92.419 C 56.481 89.285 62.116 82.337 61.978 75.793 L 61.992 22.342 C 75.978 24.546 76.935 42.226 75.26 47.184 C 74.624 49.063 75.744 50.47 77.858 47.184 C 92.938 23.726 61.992 13.376 61.992 0 Z " fill="rgb(59,63,69)"/></g><g><rect x="24" y="21.011" width="21" height="5" transform="matrix(-0.004,-1,1,-0.004,11.137,58.11)" fill="rgb(59,63,69)"/><rect x="24" y="21.011" width="21" height="5" transform="matrix(1,0,0,1,0,0)" fill="rgb(59,63,69)"/><rect x="24" y="38" width="21" height="5" transform="matrix(1,0,0,1,0,0)" fill="rgb(59,63,69)"/></g></g></svg>
