<?xml version="1.0" encoding="UTF-8" standalone="no"?>
<!-- Created with Inkscape (http://www.inkscape.org/) -->

<svg
   xmlns:dc="http://purl.org/dc/elements/1.1/"
   xmlns:cc="http://creativecommons.org/ns#"
   xmlns:rdf="http://www.w3.org/1999/02/22-rdf-syntax-ns#"
   xmlns:svg="http://www.w3.org/2000/svg"
   xmlns="http://www.w3.org/2000/svg"
   xmlns:sodipodi="http://sodipodi.sourceforge.net/DTD/sodipodi-0.dtd"
   xmlns:inkscape="http://www.inkscape.org/namespaces/inkscape"
   id="svg2"
   version="1.1"
   inkscape:version="0.47 r22583"
   width="20"
   height="24"
   sodipodi:docname="note64.svg">
  <sodipodi:namedview
     pagecolor="#ffff9f"
     bordercolor="#666666"
     borderopacity="1"
     objecttolerance="10"
     gridtolerance="10"
     guidetolerance="10"
     inkscape:pageopacity="1"
     inkscape:pageshadow="2"
     inkscape:window-width="756"
     inkscape:window-height="649"
     id="namedview4"
     showgrid="false"
     inkscape:zoom="9.8333333"
     inkscape:cx="13.050847"
     inkscape:cy="11.649199"
     inkscape:window-x="857"
     inkscape:window-y="119"
     inkscape:window-maximized="0"
     inkscape:current-layer="svg2"
     inkscape:snap-grids="true"
     inkscape:snap-to-guides="true" />
  <metadata
     id="metadata8">
    <rdf:RDF>
      <cc:Work
         rdf:about="">
        <dc:format>image/svg+xml</dc:format>
        <dc:type
           rdf:resource="http://purl.org/dc/dcmitype/StillImage" />
        <dc:title />
      </cc:Work>
    </rdf:RDF>
  </metadata>
  <defs
     id="defs6">
    <inkscape:perspective
       id="perspective10"
       inkscape:persp3d-origin="0.5 : 0.33333333 : 1"
       inkscape:vp_z="1 : 0.5 : 1"
       inkscape:vp_y="0 : 1000 : 0"
       inkscape:vp_x="0 : 0.5 : 1"
       sodipodi:type="inkscape:persp3d" />
  </defs>
  <g
     style="font-size:20px;font-style:normal;font-variant:normal;font-weight:normal;font-stretch:normal;text-align:start;line-height:125%;writing-mode:lr-tb;text-anchor:start;fill:#000000;fill-opacity:1;stroke:none;font-family:MScore1;-inkscape-font-specification:MScore1"
     id="text2816"
     transform="matrix(1,0,0,0.88616241,0,0.83838489)">
    <path
       d="m 14.448136,10.024745 c 0.06666,-0.2666529 0.09999,-0.5133194 0.1,-0.7399996 -9e-6,-1.3333182 -0.893342,-3.0066499 -2.68,-5.02 l 0,1.6 c 0.173327,0.4400168 0.393326,0.886683 0.66,1.34 0.279992,0.4533488 0.626659,0.9666816 1.04,1.54 0.413325,0.5733471 0.706658,1.0000133 0.88,1.2799996 m -2.9,-10.69999959 c 0.199994,0.0133571 0.30666,0.12002364 0.32,0.32 l 0,1.81999999 c 0.22666,0.6800209 0.646659,1.5000201 1.26,2.46 0.626658,0.9466849 1.159991,1.866684 1.6,2.76 0.43999,0.8800155 0.65999,1.7466813 0.66,2.6 -10e-6,0.6000132 -0.12001,1.1800126 -0.36,1.7399996 0.386657,0.813345 0.57999,1.580011 0.58,2.3 -10e-6,0.746676 -0.193343,1.486675 -0.58,2.22 0.386657,0.81334 0.57999,1.57334 0.58,2.28 -10e-6,0.626672 -0.233343,1.220004 -0.7,1.78 0.546657,0.960003 0.81999,1.866669 0.82,2.72 -10e-6,1.186667 -0.28001,2.379999 -0.84,3.58 -0.09334,0.146664 -0.220009,0.219997 -0.38,0.22 -0.133342,-3e-6 -0.253342,-0.05334 -0.36,-0.16 -0.09334,-0.106669 -0.126675,-0.233336 -0.1,-0.38 0.559991,-1.093334 0.83999,-2.18 0.84,-3.26 -10e-6,-0.786665 -0.280009,-1.553331 -0.84,-2.3 -0.546675,-0.746662 -1.273341,-1.526662 -2.18,-2.34 l 0,1.96 c -7e-6,0.893336 -0.466673,1.733335 -1.4,2.52 -0.9333376,0.786667 -1.9333366,1.18 -3,1.18 -0.6533349,0 -1.180001,-0.166666 -1.58,-0.5 -0.4000002,-0.333332 -0.6,-0.773332 -0.6,-1.32 0,-0.89333 0.4666662,-1.73333 1.4,-2.52 0.933331,-0.786661 1.93333,-1.179994 3,-1.18 0.613328,6e-6 1.126661,0.153339 1.54,0.46 l 0,-18.63999959 c 0.01333,-0.19997636 0.119994,-0.30664292 0.32,-0.32 m 2.96,15.27999959 c 0.159991,-0.399991 0.239991,-0.826657 0.24,-1.28 -9e-6,-1.279989 -0.960008,-2.819987 -2.88,-4.6199996 l 0,1.6599996 c 0.159993,0.453346 0.38666,0.913346 0.68,1.38 0.306659,0.466678 0.659992,0.980011 1.06,1.54 0.399991,0.56001 0.699991,1.000009 0.9,1.32 m -0.06,4.26 c 0.199991,-0.306662 0.299991,-0.653328 0.3,-1.04 -9e-6,-1.279993 -0.960008,-2.819992 -2.88,-4.62 l 0,1.64 c 0.159993,0.426675 0.373326,0.860008 0.64,1.3 0.266659,0.426674 0.619992,0.93334 1.06,1.52 0.439991,0.573339 0.733324,0.973338 0.88,1.2"
       id="path2814" />
  </g>
</svg>
