<svg xmlns="http://www.w3.org/2000/svg" xmlns:svg="http://www.w3.org/2000/svg" id="svg2" width="24" height="24" version="1.1"><metadata id="metadata14"/><g id="g4154"><path id="path6" fill="#3b3f45" stroke-width=".648" d="m 11.499997,20.500022 a 1.5,1.5 0 1 1 -2.9999944,0 1.5,1.5 0 1 1 2.9999944,0 z"/><path id="path8" fill="#3b3f45" stroke-width=".648" d="m 15.499987,20.500022 a 1.5,1.5 0 1 1 -2.999994,0 1.5,1.5 0 1 1 2.999994,0 z"/><path id="path8-8" fill="#3b3f45" stroke-width=".648" d="m 19.477288,20.422519 a 1.5,1.5 0 1 1 -2.999994,0 1.5,1.5 0 1 1 2.999994,0 z"/><path id="path6-4" fill="#3b3f45" stroke-width=".648" d="m 7.2457599,20.593221 a 1.5,1.5 0 1 1 -2.9999944,0 1.5,1.5 0 1 1 2.9999944,0 z"/></g></svg>