<?xml version="1.0" encoding="utf-8"?>
<!-- Generator: Adobe Illustrator 23.0.3, SVG Export Plug-In . SVG Version: 6.00 Build 0)  -->
<svg version="1.1" id="Layer_1" xmlns="http://www.w3.org/2000/svg" xmlns:xlink="http://www.w3.org/1999/xlink" x="0px" y="0px"
	 viewBox="0 0 24 24" style="enable-background:new 0 0 24 24;" xml:space="preserve">
<style type="text/css">
	.st0{fill:none;}
	.st1{fill:#3B3F45;}
</style>
<g>
	<path class="st0" d="M10.5,3L10.5,3L10.5,3"/>
</g>
<path class="st1" d="M17.6,5c-1-0.8-1.9-1-2.8-1.2C13.9,3.7,13,3.7,12,3.7c-1,0-1.9,0-2.8,0.2C8.3,4,7.4,4.2,6.4,5L6.2,5
	c0.4-1.2,1.3-2,2.4-2.5C9.7,2,10.8,1.8,12,1.8c1.2,0,2.3,0.2,3.4,0.7c1.1,0.5,2,1.3,2.4,2.5L17.6,5z"/>
<path class="st1" d="M22.3,6.9c-0.5-0.4-1.1-0.6-1.8-0.6c-1.2,0-2.4,0.4-3.4,1.3s-1.6,1.8-1.6,2.9c0,0.1,0,0.1,0,0.1h0
	c0,0,0,11.3,0,11.3c1,0,2-0.6,2-0.6l0-8.8c0.2,0,0.3,0,0.5,0h0c1.2,0,2.4-0.4,3.4-1.3c1.1-0.9,1.6-1.8,1.6-2.9
	C23,7.8,22.8,7.3,22.3,6.9z"/>
<path class="st1" d="M6,6.3c-1.2,0-2.4,0.4-3.4,1.3S1,9.5,1,10.5c0,0.1,0,0.1,0,0.1h0C1,10.7,1,22,1,22c1,0,2-0.6,2-0.6l0-8.8
	c0.2,0,0.3,0,0.5,0h0c1.2,0,2.4-0.4,3.4-1.3C8,10.4,8.5,9.4,8.5,8.4c0-0.6-0.2-1.1-0.7-1.5S6.8,6.3,6,6.3z"/>
</svg>
