<?xml version="1.0" encoding="UTF-8"?>
<svg width="24px" height="24px" viewBox="0 0 24 24" version="1.1" xmlns="http://www.w3.org/2000/svg" xmlns:xlink="http://www.w3.org/1999/xlink">
    <!-- Generator: Sketch 41.2 (35397) - http://www.bohemiancoding.com/sketch -->
    <title>note-128</title>
    <desc>Created with Sketch.</desc>
    <defs></defs>
    <g id="Original-24" stroke="none" stroke-width="1" fill="none" fill-rule="evenodd">
        <g id="note-128" fill="#3B3F45">
            <path d="M11.999415,1.999955 C11.999415,1.999955 12.999405,0.999965 13.99977,0.999965 C14.000025,1.010465 13.99977,18.781985 13.99977,18.781985 L11.99904,18.781985 L11.999415,1.999955 Z" id="rect7032-8"></path>
            <path d="M11.5064136,16.7176809 C10.289372,16.7176809 9.15028764,17.1632428 8.08910845,18.0543448 C7.02792926,18.9454495 6.49733958,19.9033844 6.49734092,20.9281519 C6.49734024,21.5519244 6.72738589,22.0531692 7.18747943,22.4318892 C7.64757078,22.8106037 8.24865588,22.9999705 8.99074021,22.9999705 C10.2077654,22.9999705 11.3468389,22.5544141 12.4080263,21.6633121 C13.4692137,20.7722101 13.9998074,19.8142742 13.9998074,18.789505 C13.9998074,18.1657325 13.7697603,17.6644877 13.3096662,17.2857705 C12.8495721,16.9070478 12.2484788,16.7176809 11.5064136,16.7176809" id="path44-6-7"></path>
            <path d="M13.999815,1.010015 L13.999815,4.07252 C14.602605,4.405955 15.127995,4.72961 15.531075,4.97876 C15.974325,5.25275 16.461645,5.68007 16.906065,6.13502 C17.103885,6.33752 17.266125,6.53309 17.374815,6.728765 C17.385315,6.748265 17.396115,6.771965 17.406015,6.791315 L17.874765,7.166315 C18.24933,7.47971 18.578925,7.817075 18.87477,8.166305 C18.93252,7.926935 18.96852,7.685015 18.96852,7.447565 C18.96852,6.99224 18.776295,6.509015 18.437265,6.041315 C18.10206,5.578895 17.7051,5.167205 17.218515,4.76006 L15.812265,3.572555 C15.355995,3.186185 14.917125,2.774345 14.593515,2.32256 C14.352075,1.86452 14.24214,1.883375 13.99977,1.01006 L13.999815,1.010015 Z" id="path3434"></path>
            <path d="M13.999755,13.67258 L13.999755,16.73075 C14.602545,17.064185 15.127935,17.39078 15.531015,17.63993 C15.974265,17.91389 16.461585,18.358655 16.906005,18.81359 C17.341035,19.258955 17.562225,19.70936 17.562255,20.06993 C17.562225,20.79827 17.256735,21.60494 16.624755,22.38422 C16.478355,22.60955 16.22658,22.79981 15.99585,22.99997 C15.99585,22.99997 16.332765,22.93802 16.374765,22.92977 C17.013975,22.80377 17.46783,22.70135 17.781015,22.533035 C18.114795,22.35365 18.32946,22.10957 18.531015,21.75608 C18.81453,21.19712 18.968505,20.65799 18.968505,20.11955 C18.968505,19.66424 18.776295,19.18217 18.437265,18.71447 C18.10206,18.25205 17.7051,17.83223 17.218515,17.42507 L15.812265,16.23488 C15.355995,15.848495 14.917125,15.446855 14.593515,14.99507 C14.352075,14.537045 14.242125,14.545955 13.999755,13.672625 L13.999755,13.67258 Z" id="path3484"></path>
            <path d="M13.999815,10.519325 L13.999815,13.58183 C14.602605,13.915265 15.127995,14.23892 15.531075,14.48807 C15.974325,14.76206 16.461645,15.18938 16.906065,15.64433 C17.103885,15.84683 17.266125,16.0424 17.374815,16.238075 C17.385315,16.257575 17.396115,16.281275 17.406015,16.300625 L17.874765,16.675625 C18.24933,16.98902 18.578925,17.326385 18.87477,17.675615 C18.93252,17.436245 18.96852,17.194325 18.96852,16.956875 C18.96852,16.50155 18.776295,16.018325 18.437265,15.550625 C18.10206,15.088205 17.7051,14.676515 17.218515,14.26937 L15.812265,13.081865 C15.355995,12.695495 14.917125,12.283655 14.593515,11.83187 C14.352075,11.37383 14.24214,11.392685 13.99977,10.51937 L13.999815,10.519325 Z" id="path4282"></path>
            <path d="M13.999815,4.16813 L13.999815,7.23062 C14.602605,7.56407 15.127995,7.887725 15.531075,8.136875 C15.974325,8.41085 16.461645,8.838185 16.906065,9.29312 C17.103885,9.49562 17.266125,9.691205 17.374815,9.88688 C17.385315,9.90638 17.396115,9.93008 17.406015,9.94943 L17.874765,10.32443 C18.24933,10.63784 18.578925,10.97519 18.87477,11.324435 C18.93252,11.085065 18.96852,10.843145 18.96852,10.60568 C18.96852,10.15037 18.776295,9.667145 18.437265,9.19943 C18.10206,8.737025 17.7051,8.32532 17.218515,7.91819 L15.812265,6.730685 C15.355995,6.3443 14.917125,5.93246 14.593515,5.48069 C14.352075,5.02265 14.24214,5.041505 13.99977,4.16819 L13.999815,4.16813 Z" id="path4287"></path>
            <path d="M13.999815,7.33628 L13.999815,10.39877 C14.602605,10.73222 15.127995,11.055875 15.531075,11.305025 C15.974325,11.579 16.461645,12.006335 16.906065,12.46127 C17.103885,12.66377 17.266125,12.859355 17.374815,13.05503 C17.385315,13.07453 17.396115,13.09823 17.406015,13.11758 L17.874765,13.49258 C18.24933,13.80599 18.578925,14.14334 18.87477,14.492585 C18.93252,14.253215 18.96852,14.011295 18.96852,13.77383 C18.96852,13.31852 18.776295,12.835295 18.437265,12.36758 C18.10206,11.905175 17.7051,11.49347 17.218515,11.08634 L15.812265,9.898835 C15.355995,9.51245 14.917125,9.10061 14.593515,8.64884 C14.352075,8.1908 14.24214,8.209655 13.99977,7.33634 L13.999815,7.33628 Z" id="path4289"></path>
        </g>
    </g>
</svg>