<?xml version="1.0" encoding="UTF-8" standalone="no"?>
<svg
   xmlns:dc="http://purl.org/dc/elements/1.1/"
   xmlns:cc="http://creativecommons.org/ns#"
   xmlns:rdf="http://www.w3.org/1999/02/22-rdf-syntax-ns#"
   xmlns:svg="http://www.w3.org/2000/svg"
   xmlns="http://www.w3.org/2000/svg"
   xmlns:sodipodi="http://sodipodi.sourceforge.net/DTD/sodipodi-0.dtd"
   xmlns:inkscape="http://www.inkscape.org/namespaces/inkscape"
   height="24"
   version="1.1"
   width="24"
   id="svg8"
   sodipodi:docname="note-4.svg"
   inkscape:version="0.92.4 (5da689c313, 2019-01-14)">
  <metadata
     id="metadata14">
    <rdf:RDF>
      <cc:Work
         rdf:about="">
        <dc:format>image/svg+xml</dc:format>
        <dc:type
           rdf:resource="http://purl.org/dc/dcmitype/StillImage" />
      </cc:Work>
    </rdf:RDF>
  </metadata>
  <defs
     id="defs12" />
  <sodipodi:namedview
     pagecolor="#ffffff"
     bordercolor="#666666"
     borderopacity="1"
     objecttolerance="10"
     gridtolerance="10"
     guidetolerance="10"
     inkscape:pageopacity="0"
     inkscape:pageshadow="2"
     inkscape:window-width="1920"
     inkscape:window-height="1017"
     id="namedview10"
     showgrid="false"
     inkscape:zoom="111.25147"
     inkscape:cx="13.466426"
     inkscape:cy="4.374325"
     inkscape:window-x="-8"
     inkscape:window-y="-8"
     inkscape:window-maximized="1"
     inkscape:current-layer="svg8" />
  <g
     transform="translate(-327.99999,-243)"
     id="g6">
    <path
       d="m 340.54626,259.85913 c -1.21704,0 -2.35613,0.44556 -3.41731,1.33666 -1.06118,0.8911 -1.59177,1.84904 -1.59176,2.87381 0,0.62377 0.23004,1.12501 0.69013,1.50373 0.4601,0.37872 1.06118,0.56809 1.80327,0.56809 1.21702,0 2.35609,-0.44556 3.41728,-1.33666 1.06119,-0.8911 1.54684,-1.93893 1.54684,-2.9637 0,-0.62377 -0.1851,-1.03513 -0.6452,-1.41384 -0.46009,-0.37873 -1.06119,-0.56809 -1.80325,-0.56809"
       style="fill:#3b3f45"
       id="path2"
       inkscape:connector-curvature="0"
       sodipodi:nodetypes="csccssscc" />
    <path
       d="m 341.0006,245.0101 c 0,0 0.99962,-0.99963 1.99962,-0.99963 2.6e-4,0.0105 0,17.77554 0,17.77554 l -2,0 z"
       style="fill:#3b3f45;stroke-width:1.50800002"
       id="path4" />
  </g>
</svg>
