<?xml version="1.0" encoding="UTF-8" standalone="no"?>
<!-- Created with Inkscape (http://www.inkscape.org/) -->

<svg
   xmlns:dc="http://purl.org/dc/elements/1.1/"
   xmlns:cc="http://creativecommons.org/ns#"
   xmlns:rdf="http://www.w3.org/1999/02/22-rdf-syntax-ns#"
   xmlns:svg="http://www.w3.org/2000/svg"
   xmlns="http://www.w3.org/2000/svg"
   xmlns:sodipodi="http://sodipodi.sourceforge.net/DTD/sodipodi-0.dtd"
   xmlns:inkscape="http://www.inkscape.org/namespaces/inkscape"
   id="svg2"
   version="1.1"
   inkscape:version="0.47 r22583"
   width="20"
   height="24"
   sodipodi:docname="note.svg">
  <sodipodi:namedview
     pagecolor="#ffff9f"
     bordercolor="#666666"
     borderopacity="1"
     objecttolerance="10"
     gridtolerance="10"
     guidetolerance="10"
     inkscape:pageopacity="1"
     inkscape:pageshadow="2"
     inkscape:window-width="756"
     inkscape:window-height="482"
     id="namedview4"
     showgrid="false"
     inkscape:zoom="9.8333333"
     inkscape:cx="13.050847"
     inkscape:cy="11.649199"
     inkscape:window-x="857"
     inkscape:window-y="119"
     inkscape:window-maximized="0"
     inkscape:current-layer="svg2"
     inkscape:snap-grids="true"
     inkscape:snap-to-guides="true" />
  <metadata
     id="metadata8">
    <rdf:RDF>
      <cc:Work
         rdf:about="">
        <dc:format>image/svg+xml</dc:format>
        <dc:type
           rdf:resource="http://purl.org/dc/dcmitype/StillImage" />
        <dc:title />
      </cc:Work>
    </rdf:RDF>
  </metadata>
  <defs
     id="defs6">
    <inkscape:perspective
       id="perspective10"
       inkscape:persp3d-origin="0.5 : 0.33333333 : 1"
       inkscape:vp_z="1 : 0.5 : 1"
       inkscape:vp_y="0 : 1000 : 0"
       inkscape:vp_x="0 : 0.5 : 1"
       sodipodi:type="inkscape:persp3d" />
  </defs>
  <g
     style="font-size:20px;font-style:normal;font-variant:normal;font-weight:normal;font-stretch:normal;text-align:start;line-height:125%;writing-mode:lr-tb;text-anchor:start;fill:#000000;fill-opacity:1;stroke:none;font-family:MScore1;-inkscape-font-specification:MScore1"
     id="text2816">
    <path
       d="m 9.7915257,16.412542 c -0.4533372,5e-6 -0.8000035,0.160005 -1.04,0.48 -0.2266697,0.320004 -0.340003,0.74667 -0.34,1.28 -3e-6,0.613336 0.1599969,1.140002 0.48,1.58 0.3333296,0.426668 0.6933292,0.726667 1.08,0.9 0.3866613,0.16 0.7599943,0.24 1.1200003,0.24 0.453327,0 0.793327,-0.159999 1.02,-0.48 0.239993,-0.319999 0.359993,-0.746665 0.36,-1.28 -7e-6,-0.613331 -0.166674,-1.13333 -0.5,-1.56 -0.320007,-0.439996 -0.673339,-0.739996 -1.06,-0.9 -0.386672,-0.173329 -0.760005,-0.259995 -1.1200003,-0.26 m 0.6600003,-0.52 c 1.399993,5e-6 2.573325,0.273338 3.52,0.82 0.946657,0.546671 1.41999,1.193337 1.42,1.94 -1e-5,0.786668 -0.493343,1.446668 -1.48,1.98 -0.973341,0.52 -2.126673,0.78 -3.46,0.78 -1.3866706,0 -2.5600027,-0.273333 -3.5200003,-0.82 -0.9600005,-0.546665 -1.44,-1.193331 -1.44,-1.94 0,-0.786663 0.4933328,-1.439996 1.48,-1.96 0.9866642,-0.533328 2.146663,-0.799995 3.4800003,-0.8"
       style=""
       id="path2814" />
  </g>
</svg>
