<?xml version="1.0" encoding="UTF-8"?>
<svg width="24px" height="24px" viewBox="0 0 24 24" version="1.1" xmlns="http://www.w3.org/2000/svg" xmlns:xlink="http://www.w3.org/1999/xlink">
    <!-- Generator: Sketch 41.2 (35397) - http://www.bohemiancoding.com/sketch -->
    <title>panel-community</title>
    <desc>Created with Sketch.</desc>
    <defs></defs>
    <g id="Original-24" stroke="none" stroke-width="1" fill="none" fill-rule="evenodd">
        <g id="panel-community">
            <path d="M20.437411,3.062055 C18.4073905,3.062055 16.781161,4.719525 16.781161,6.74955 C16.781161,8.779575 18.4073905,10.4058 20.437411,10.4058 C21.436201,10.4058 22.337431,10.021065 22.9999105,9.37455 L22.9999105,4.093305 C22.337431,3.446775 21.436201,3.062055 20.437411,3.062055 Z" id="path12099" fill="#3B3F45"></path>
            <path d="M16.231162,12.404385 C16.3087797,12.4098123 16.3857041,12.4226202 16.460893,12.442635 C16.8645034,12.5167445 17.2042235,12.7879684 17.3658715,13.1651467 C17.5275194,13.5423251 17.4896334,13.9753803 17.264947,14.31876 L14.1635935,18.95166 C14.0980435,18.785715 14.0377435,18.609735 13.9338625,18.4539 L12.746926,16.692645 L15.197377,12.94038 C15.4296318,12.5989193 15.8182582,12.3974136 16.231162,12.404355 L16.231162,12.404385 Z" id="path12103" fill="#3B3F45"></path>
            <path d="M3.53116,3.062055 C2.5473805,3.062055 1.659601,3.43263 0.99991,4.062045 L0.99991,9.405795 C1.659601,10.035225 2.5473805,10.4058 3.53116,10.4058 C5.5611805,10.4058 7.218661,8.779575 7.218661,6.74955 C7.218661,4.719525 5.5611805,3.062055 3.53116,3.062055 Z" id="path18635" fill="#3B3F45"></path>
            <path d="M6.843661,11.780805 C5.9003005,12.337245 4.812961,12.718305 3.562411,12.718305 C2.6245,12.718305 1.76557,12.492495 0.99991,12.155805 L0.99991,18.999555 L8.3749105,18.999555 L7.124911,17.124555 C6.351811,15.964875 6.6527605,14.428905 7.8124105,13.655805 C7.9910605,13.536705 8.152231,13.47465 8.343661,13.4058 C8.519011,13.30935 8.7002005,13.210545 8.906161,13.155795 C8.3854405,12.503235 7.65769,12.019425 6.843661,11.780805 L6.843661,11.780805 Z" id="path18637" fill="#3B3F45"></path>
            <path d="M7.7510635,13.663935 L11.8662925,19.836795" id="path18639" stroke="#3B3F45" stroke-width="2.45045238"></path>
            <path d="M17.156161,11.780805 C16.3421305,12.019425 15.61438,12.503235 15.093661,13.155795 C15.29962,13.210545 15.480811,13.309275 15.656161,13.4058 C15.847591,13.4745 16.00876,13.5366 16.18741,13.655805 C17.34706,14.428905 17.64802,15.964905 16.874911,17.124555 L15.62491,18.999555 L22.9999105,18.999555 L22.9999105,12.155805 C22.2342505,12.492495 21.3753205,12.718305 20.437411,12.718305 C19.186861,12.718305 18.09952,12.337245 17.156161,11.780805 L17.156161,11.780805 Z" id="path18691" fill="#3B3F45"></path>
        </g>
    </g>
</svg>