<?xml version="1.0" encoding="UTF-8" standalone="no"?>
<svg
   xmlns:dc="http://purl.org/dc/elements/1.1/"
   xmlns:cc="http://creativecommons.org/ns#"
   xmlns:rdf="http://www.w3.org/1999/02/22-rdf-syntax-ns#"
   xmlns:svg="http://www.w3.org/2000/svg"
   xmlns="http://www.w3.org/2000/svg"
   xmlns:sodipodi="http://sodipodi.sourceforge.net/DTD/sodipodi-0.dtd"
   xmlns:inkscape="http://www.inkscape.org/namespaces/inkscape"
   inkscape:version="1.0rc1 (09960d6f05, 2020-04-09)"
   sodipodi:docname="preEdit-tie.svg"
   id="svg8"
   width="24"
   version="1.1"
   height="24">
  <metadata
     id="metadata14">
    <rdf:RDF>
      <cc:Work
         rdf:about="">
        <dc:format>image/svg+xml</dc:format>
        <dc:type
           rdf:resource="http://purl.org/dc/dcmitype/StillImage" />
        <dc:title></dc:title>
      </cc:Work>
    </rdf:RDF>
  </metadata>
  <defs
     id="defs12" />
  <sodipodi:namedview
     inkscape:document-rotation="0"
     inkscape:current-layer="svg8"
     inkscape:window-maximized="0"
     inkscape:window-y="26"
     inkscape:window-x="2288"
     inkscape:cy="6.3280377"
     inkscape:cx="20.409081"
     inkscape:zoom="14.909867"
     showgrid="false"
     id="namedview10"
     inkscape:window-height="869"
     inkscape:window-width="1362"
     inkscape:pageshadow="2"
     inkscape:pageopacity="0"
     guidetolerance="10"
     gridtolerance="10"
     objecttolerance="10"
     borderopacity="1"
     bordercolor="#666666"
     pagecolor="#ffffff" />
  <rect
     ry="1.9830502"
     y="4.3728814"
     x="2.7457626"
     height="6.5084743"
     width="16.677965"
     id="rect8458"
     style="fill:#fffc32;fill-opacity:1;stroke:#b7b80d;stroke-width:2;stroke-linecap:round;stroke-linejoin:miter;stroke-miterlimit:4;stroke-dasharray:none;stroke-dashoffset:0.80000001;stroke-opacity:1" />
  <g
     transform="matrix(0.71342955,0,0,0.71342955,22.693315,-15.743702)"
     id="g6">
    <path
       inkscape:connector-curvature="0"
       class="st0"
       d="M 10.5,3 V 3 3"
       id="path4" />
  </g>
  <path
     inkscape:connector-curvature="0"
     style="fill:#3b3f45;stroke-width:0.71343"
     class="st1"
     d="M 18.348117,10.358857 C 17.634687,9.7881143 16.9926,9.6454283 16.350514,9.5027423 c -0.642087,-0.07134 -1.284173,-0.07134 -1.997603,-0.07134 -0.713429,0 -1.355516,0 -1.997603,0.142686 -0.642086,0.07134 -1.284173,0.214029 -1.997602,0.7847717 H 10.21502 c 0.285371,-0.8561147 0.927458,-1.4268587 1.712231,-1.7835727 0.784772,-0.356715 1.569545,-0.499401 2.42566,-0.499401 0.856116,0 1.640888,0.142686 2.425661,0.499401 0.784772,0.356714 1.426859,0.927458 1.71223,1.7835727 z"
     id="path8" />
  <path
     inkscape:connector-curvature="0"
     style="fill:#3b3f45;stroke-width:0.71343"
     class="st1"
     d="m 21.701235,11.714374 c -0.356714,-0.285372 -0.784772,-0.428058 -1.284173,-0.428058 -0.856115,0 -1.712231,0.285372 -2.42566,0.927458 -0.71343,0.642087 -1.141488,1.284174 -1.141488,2.068946 0,0.07134 0,0.07134 0,0.07134 v 0 c 0,0 0,8.061754 0,8.061754 0.71343,0 1.42686,-0.428058 1.42686,-0.428058 v -6.27818 c 0.142686,0 0.214028,0 0.356714,0 v 0 c 0.856116,0 1.712231,-0.285372 2.425661,-0.927458 0.784772,-0.642087 1.141487,-1.284173 1.141487,-2.068946 0,-0.356715 -0.142686,-0.71343 -0.499401,-0.998801 z"
     id="path10" />
  <path
     inkscape:connector-curvature="0"
     style="fill:#3b3f45;stroke-width:0.71343"
     class="st1"
     d="m 10.072334,11.286316 c -0.8561162,0 -1.7122312,0.285372 -2.4256612,0.927458 -0.713429,0.642087 -1.141487,1.355517 -1.141487,2.068946 0,0.07134 0,0.07134 0,0.07134 v 0 c 0,0.07134 0,8.133097 0,8.133097 0.71343,0 1.426859,-0.428058 1.426859,-0.428058 v -6.27818 c 0.142686,0 0.214029,0 0.356715,0 v 0 c 0.856115,0 1.7122312,-0.285372 2.4256602,-0.927458 0.784773,-0.642087 1.141488,-1.355516 1.141488,-2.068946 0,-0.428058 -0.142686,-0.784773 -0.499401,-1.070144 -0.356715,-0.285372 -0.71343,-0.428058 -1.284173,-0.428058 z"
     id="path12" />
</svg>
