<?xml version="1.0" encoding="UTF-8" standalone="no"?>
<!-- Created with Inkscape (http://www.inkscape.org/) -->

<svg
   xmlns:dc="http://purl.org/dc/elements/1.1/"
   xmlns:cc="http://creativecommons.org/ns#"
   xmlns:rdf="http://www.w3.org/1999/02/22-rdf-syntax-ns#"
   xmlns:svg="http://www.w3.org/2000/svg"
   xmlns="http://www.w3.org/2000/svg"
   xmlns:sodipodi="http://sodipodi.sourceforge.net/DTD/sodipodi-0.dtd"
   xmlns:inkscape="http://www.inkscape.org/namespaces/inkscape"
   id="svg2"
   version="1.1"
   inkscape:version="0.47 r22583"
   width="20"
   height="24"
   sodipodi:docname="quartrest.svg">
  <sodipodi:namedview
     pagecolor="#ffffff"
     bordercolor="#666666"
     borderopacity="1"
     objecttolerance="10"
     gridtolerance="10"
     guidetolerance="10"
     inkscape:pageopacity="0"
     inkscape:pageshadow="2"
     inkscape:window-width="756"
     inkscape:window-height="482"
     id="namedview4"
     showgrid="false"
     inkscape:zoom="9.8333333"
     inkscape:cx="31.152542"
     inkscape:cy="11.649199"
     inkscape:window-x="857"
     inkscape:window-y="119"
     inkscape:window-maximized="0"
     inkscape:current-layer="svg2" />
  <metadata
     id="metadata8">
    <rdf:RDF>
      <cc:Work
         rdf:about="">
        <dc:format>image/svg+xml</dc:format>
        <dc:type
           rdf:resource="http://purl.org/dc/dcmitype/StillImage" />
        <dc:title />
      </cc:Work>
    </rdf:RDF>
  </metadata>
  <defs
     id="defs6">
    <inkscape:perspective
       id="perspective10"
       inkscape:persp3d-origin="0.5 : 0.33333333 : 1"
       inkscape:vp_z="1 : 0.5 : 1"
       inkscape:vp_y="0 : 1000 : 0"
       inkscape:vp_x="0 : 0.5 : 1"
       sodipodi:type="inkscape:persp3d" />
  </defs>
  <g
     style="font-size:20px;font-style:normal;font-variant:normal;font-weight:normal;font-stretch:normal;text-align:start;line-height:125%;writing-mode:lr-tb;text-anchor:start;fill:#000000;fill-opacity:1;stroke:none;font-family:MScore;-inkscape-font-specification:MScore"
     id="text2816">
    <path
       d="m 7.2020344,10.44 c 1e-7,-0.253332 0.1266666,-0.5133313 0.38,-0.78 0.2666661,-0.2799974 0.5533325,-0.5266638 0.86,-0.74 0.3066652,-0.21333 0.5866649,-0.5066631 0.84,-0.88 0.2666644,-0.3866623 0.3999976,-0.7999952 0.4,-1.24 -2.4e-6,-0.5333276 -0.1666689,-0.9933271 -0.5,-1.38 l -0.7,-0.84 c -0.053335,-0.079993 -0.080001,-0.1466591 -0.08,-0.2 -1.1e-6,-0.079992 0.033332,-0.1466589 0.1,-0.2 0.066665,-0.066659 0.1466653,-0.099992 0.24,-0.1 0.093332,7.9e-6 0.166665,0.033341 0.22,0.1 l 3.0199996,3.6 c 0.133329,0.1733374 0.199995,0.3400039 0.2,0.5 -5e-6,0.2666701 -0.133338,0.5400032 -0.4,0.82 -0.253337,0.2666693 -0.533337,0.5066691 -0.84,0.72 -0.30667,0.213335 -0.593336,0.506668 -0.86,0.88 -0.2533355,0.373334 -0.380002,0.780001 -0.3799996,1.22 -2.4e-6,0.52 0.1599974,0.979999 0.4799996,1.38 l 1.68,1.98 c 0.05333,0.05333 0.08,0.119997 0.08,0.2 -4e-6,0.09333 -0.03334,0.166663 -0.1,0.22 -0.06667,0.06666 -0.140004,0.1 -0.22,0.1 -0.02667,-4e-6 -0.133337,-0.07334 -0.32,-0.22 -0.18667,-0.14667 -0.44667,-0.293337 -0.78,-0.44 -0.333336,-0.14667 -0.6933355,-0.220003 -1.0799996,-0.22 -0.7066681,-3e-6 -1.0600011,0.446663 -1.06,1.34 -1.1e-6,0.813328 0.1866654,1.439994 0.56,1.88 0.039998,0.06666 0.046665,0.12666 0.02,0.18 -0.026668,0.05333 -0.073335,0.07999 -0.14,0.08 -0.1733347,-6e-6 -0.5466677,-0.520006 -1.12,-1.56 -0.5599999,-1.02667 -0.8399996,-1.86667 -0.84,-2.52 4e-7,-0.560002 0.2666668,-0.840001 0.8,-0.84 0.639999,-1e-6 1.4333315,0.206665 2.3799996,0.62 L 7.4020344,10.94 c -0.1333333,-0.146665 -0.1999999,-0.313332 -0.2,-0.5"
       style=""
       id="path2815" />
  </g>
</svg>
