<?xml version="1.0" encoding="UTF-8" standalone="no"?>
<svg
   xmlns:dc="http://purl.org/dc/elements/1.1/"
   xmlns:cc="http://creativecommons.org/ns#"
   xmlns:rdf="http://www.w3.org/1999/02/22-rdf-syntax-ns#"
   xmlns:svg="http://www.w3.org/2000/svg"
   xmlns="http://www.w3.org/2000/svg"
   xmlns:sodipodi="http://sodipodi.sourceforge.net/DTD/sodipodi-0.dtd"
   xmlns:inkscape="http://www.inkscape.org/namespaces/inkscape"
   viewBox="-1 -200 1000 1000"
   id="svg34224"
   sodipodi:version="0.32"
   inkscape:version="0.92.4 (5da689c313, 2019-01-14)"
   width="128"
   height="128"
   sodipodi:docname="sbeam.svg"
   inkscape:output_extension="org.inkscape.output.svg.inkscape"
   version="1.0">
  <defs
     id="defs7" />
  <metadata
     id="metadata34233">
    <rdf:RDF>
      <cc:Work
         rdf:about="">
        <dc:format>image/svg+xml</dc:format>
        <dc:type
           rdf:resource="http://purl.org/dc/dcmitype/StillImage" />
      </cc:Work>
    </rdf:RDF>
  </metadata>
  <sodipodi:namedview
     inkscape:window-height="1080"
     inkscape:window-width="1920"
     inkscape:pageshadow="2"
     inkscape:pageopacity="0.0"
     borderopacity="1.0"
     bordercolor="#666666"
     pagecolor="#ffffff"
     id="base"
     showguides="true"
     inkscape:guide-bbox="true"
     inkscape:zoom="8.0415792"
     inkscape:cx="59.043967"
     inkscape:cy="54.277316"
     inkscape:window-x="0"
     inkscape:window-y="0"
     inkscape:current-layer="svg34224"
     width="128px"
     height="128px"
     showgrid="false"
     inkscape:window-maximized="0" />
  <g
     id="g8293"
     transform="matrix(6.0558956,0,0,5.9415537,-53.624698,-5180.1091)">
    <path
       style="fill:#000000;fill-opacity:1"
       d="m 97.93631,842.17676 c -2.703437,1.06219 -1.654816,4.88197 -2.084343,9.16727 0.170156,7.92887 0,75.05528 0,112.58291 -2.323364,-4.76044 -8.485433,-4.70383 -13.04995,-5.05226 -12.175715,0.28476 -23.769287,7.42402 -30.47938,17.43802 -4.671697,6.78524 -6.139878,17.15958 0.313646,23.3465 7.974158,7.2262 20.191166,5.92 29.237977,1.5549 10.122572,-4.85833 19.9104,-13.76434 20.4453,-25.82178 0.60314,-13.59546 0.0537,-109.86174 0.0181,-123.71441 -0.0734,-6.44745 0.13598,-4.99004 -0.19816,-9.05588 -1.46228,-1.0267 -2.651684,-0.83905 -4.20323,-0.44527 z"
       id="path37431"
       sodipodi:nodetypes="cccccccsccc"
       inkscape:connector-curvature="0" />
  </g>
  <path
     style="fill:none;fill-opacity:0.75;fill-rule:evenodd;stroke:#000000;stroke-width:117.1875;stroke-linecap:butt;stroke-linejoin:miter;stroke-miterlimit:4;stroke-dasharray:none;stroke-opacity:1"
     d="M 526.588,-121.90508 L 940.14005,-120.53115"
     id="path2158" />
  <path
     id="path3136"
     d="M 530.70978,78.688274 L 944.26183,80.062204"
     style="fill:none;fill-opacity:0.75;fill-rule:evenodd;stroke:#000000;stroke-width:117.1875;stroke-linecap:butt;stroke-linejoin:miter;stroke-miterlimit:4;stroke-dasharray:none;stroke-opacity:1" />
</svg>
