<?xml version="1.0" encoding="UTF-8" standalone="no"?>
<!-- Created with Inkscape (http://www.inkscape.org/) -->

<svg
   xmlns:dc="http://purl.org/dc/elements/1.1/"
   xmlns:cc="http://creativecommons.org/ns#"
   xmlns:rdf="http://www.w3.org/1999/02/22-rdf-syntax-ns#"
   xmlns:svg="http://www.w3.org/2000/svg"
   xmlns="http://www.w3.org/2000/svg"
   xmlns:sodipodi="http://sodipodi.sourceforge.net/DTD/sodipodi-0.dtd"
   xmlns:inkscape="http://www.inkscape.org/namespaces/inkscape"
   id="svg2"
   version="1.1"
   inkscape:version="0.47 r22583"
   width="20"
   height="24"
   sodipodi:docname="sharpsharp.svg">
  <sodipodi:namedview
     pagecolor="#ffffff"
     bordercolor="#666666"
     borderopacity="1"
     objecttolerance="10"
     gridtolerance="10"
     guidetolerance="10"
     inkscape:pageopacity="0"
     inkscape:pageshadow="2"
     inkscape:window-width="756"
     inkscape:window-height="482"
     id="namedview4"
     showgrid="false"
     inkscape:zoom="9.8333333"
     inkscape:cx="31.152542"
     inkscape:cy="11.649199"
     inkscape:window-x="857"
     inkscape:window-y="119"
     inkscape:window-maximized="0"
     inkscape:current-layer="svg2" />
  <metadata
     id="metadata8">
    <rdf:RDF>
      <cc:Work
         rdf:about="">
        <dc:format>image/svg+xml</dc:format>
        <dc:type
           rdf:resource="http://purl.org/dc/dcmitype/StillImage" />
        <dc:title />
      </cc:Work>
    </rdf:RDF>
  </metadata>
  <defs
     id="defs6">
    <inkscape:perspective
       id="perspective10"
       inkscape:persp3d-origin="0.5 : 0.33333333 : 1"
       inkscape:vp_z="1 : 0.5 : 1"
       inkscape:vp_y="0 : 1000 : 0"
       inkscape:vp_x="0 : 0.5 : 1"
       sodipodi:type="inkscape:persp3d" />
  </defs>
  <g
     style="font-size:20px;font-style:normal;font-variant:normal;font-weight:normal;font-stretch:normal;text-align:start;line-height:125%;writing-mode:lr-tb;text-anchor:start;fill:#000000;fill-opacity:1;stroke:none;font-family:MScore;-inkscape-font-specification:MScore"
     id="text2816">
    <path
       d="m 10.362034,12 c 0.37333,0.373333 0.966663,0.559999 1.78,0.56 0.133329,-1e-6 0.199995,0.06667 0.2,0.2 l 0.18,1.74 c 0.01333,0.05333 -5e-6,0.1 -0.04,0.14 -0.04001,0.04 -0.08667,0.06 -0.14,0.06 l -0.02,0 -1.74,-0.18 c -0.133336,-3e-6 -0.200003,-0.06667 -0.2,-0.2 -3e-6,-0.813335 -0.186669,-1.406668 -0.5599996,-1.78 -0.3733355,0.373332 -0.560002,0.966665 -0.56,1.78 -2e-6,0.133331 -0.060002,0.199997 -0.18,0.2 l -1.76,0.18 -0.02,0 c -0.053333,-3e-6 -0.1,-0.02 -0.14,-0.06 -0.04,-0.04 -0.053333,-0.08667 -0.04,-0.14 l 0.18,-1.74 c 0,-0.133334 0.066667,-0.200001 0.2,-0.2 0.8133323,-1e-6 1.406665,-0.186667 1.78,-0.56 -0.373335,-0.373333 -0.9666677,-0.559999 -1.78,-0.56 -0.1333334,1e-6 -0.2,-0.06667 -0.2,-0.2 l -0.18,-1.74 c -0.013333,-0.053331 2e-7,-0.099997 0.04,-0.14 0.04,-0.039997 0.086667,-0.059997 0.14,-0.06 l 0.02,0 1.76,0.18 c 0.1199981,2.5e-6 0.179998,0.066669 0.18,0.2 -2e-6,0.813335 0.1866645,1.406668 0.56,1.78 0.3733306,-0.373332 0.5599966,-0.966665 0.5599996,-1.78 -3e-6,-0.1333309 0.06666,-0.1999975 0.2,-0.2 l 1.74,-0.18 0.02,0 c 0.05333,2.7e-6 0.09999,0.020003 0.14,0.06 0.03999,0.040003 0.05333,0.086669 0.04,0.14 l -0.18,1.74 c -5e-6,0.133334 -0.06667,0.200001 -0.2,0.2 -0.813337,1e-6 -1.40667,0.186667 -1.78,0.56"
       style=""
       id="path2815" />
  </g>
</svg>
