<?xml version="1.0" encoding="UTF-8" standalone="no"?>
<!-- Created with Inkscape (http://www.inkscape.org/) -->

<svg
   xmlns:dc="http://purl.org/dc/elements/1.1/"
   xmlns:cc="http://creativecommons.org/ns#"
   xmlns:rdf="http://www.w3.org/1999/02/22-rdf-syntax-ns#"
   xmlns:svg="http://www.w3.org/2000/svg"
   xmlns="http://www.w3.org/2000/svg"
   xmlns:sodipodi="http://sodipodi.sourceforge.net/DTD/sodipodi-0.dtd"
   xmlns:inkscape="http://www.inkscape.org/namespaces/inkscape"
   id="svg2"
   version="1.1"
   inkscape:version="0.47 r22583"
   width="20"
   height="24"
   sodipodi:docname="sharp.svg">
  <sodipodi:namedview
     pagecolor="#ffff9f"
     bordercolor="#666666"
     borderopacity="1"
     objecttolerance="10"
     gridtolerance="10"
     guidetolerance="10"
     inkscape:pageopacity="1"
     inkscape:pageshadow="2"
     inkscape:window-width="756"
     inkscape:window-height="482"
     id="namedview4"
     showgrid="false"
     inkscape:zoom="9.8333333"
     inkscape:cx="13.050847"
     inkscape:cy="11.649199"
     inkscape:window-x="857"
     inkscape:window-y="119"
     inkscape:window-maximized="0"
     inkscape:current-layer="svg2"
     inkscape:snap-grids="true"
     inkscape:snap-to-guides="true" />
  <metadata
     id="metadata8">
    <rdf:RDF>
      <cc:Work
         rdf:about="">
        <dc:format>image/svg+xml</dc:format>
        <dc:type
           rdf:resource="http://purl.org/dc/dcmitype/StillImage" />
        <dc:title />
      </cc:Work>
    </rdf:RDF>
  </metadata>
  <defs
     id="defs6">
    <inkscape:perspective
       id="perspective10"
       inkscape:persp3d-origin="0.5 : 0.33333333 : 1"
       inkscape:vp_z="1 : 0.5 : 1"
       inkscape:vp_y="0 : 1000 : 0"
       inkscape:vp_x="0 : 0.5 : 1"
       sodipodi:type="inkscape:persp3d" />
  </defs>
  <g
     style="font-size:20px;font-style:normal;font-variant:normal;font-weight:normal;font-stretch:normal;text-align:start;line-height:125%;writing-mode:lr-tb;text-anchor:start;fill:#000000;fill-opacity:1;stroke:none;font-family:MScore1;-inkscape-font-specification:MScore1"
     id="text2816">
    <path
       d="m 11.13356,18.528136 c -5e-6,0.106665 -0.04,0.193331 -0.12,0.26 -0.06667,0.08 -0.146671,0.119998 -0.24,0.12 -0.106671,-2e-6 -0.200004,-0.04 -0.28,-0.12 -0.06667,-0.06667 -0.100004,-0.153335 -0.1,-0.26 l 0,-2.9 -1.6600005,0.62 0,3.16 c -1.9e-6,0.106664 -0.040002,0.193331 -0.12,0.26 -0.080002,0.08 -0.1666683,0.119997 -0.26,0.12 -0.093335,-3e-6 -0.1800013,-0.04 -0.26,-0.12 -0.066668,-0.06667 -0.1000011,-0.153336 -0.1,-0.26 l 0,-2.9 -0.64,0.24 c -0.026667,0.01333 -0.073334,0.02 -0.14,0.02 -0.1066669,0 -0.2000002,-0.04 -0.28,-0.12 -0.08,-0.08 -0.12,-0.173333 -0.12,-0.28 l 0,-1.2 c 0,-0.186665 0.086667,-0.313331 0.26,-0.38 l 0.92,-0.32 0,-3.2 -0.64,0.22 c -0.026667,0.01334 -0.073334,0.02 -0.14,0.02 -0.1066669,5e-6 -0.2000002,-0.04 -0.28,-0.12 -0.08,-0.07999 -0.12,-0.173328 -0.12,-0.28 l 0,-1.2000005 c 0,-0.1733258 0.086667,-0.2933256 0.26,-0.36 l 0.92,-0.34 0,-3.16 c -1.1e-6,-0.1066553 0.033332,-0.1933219 0.1,-0.26 0.079999,-0.079988 0.1666653,-0.1199884 0.26,-0.12 0.093332,1.16e-5 0.1799983,0.040012 0.26,0.12 0.079998,0.066678 0.1199981,0.1533447 0.12,0.26 l 0,2.9 1.6600005,-0.62 0,-3.16 c -4e-6,-0.1066544 0.03333,-0.193321 0.1,-0.26 0.08,-0.079988 0.173329,-0.1199875 0.28,-0.12 0.09333,1.25e-5 0.173329,0.040012 0.24,0.12 0.08,0.066679 0.119995,0.1533456 0.12,0.26 l 0,2.9 0.64,-0.24 c 0.02666,-0.013324 0.07333,-0.019991 0.14,-0.02 0.106661,9.5e-6 0.199994,0.04001 0.28,0.12 0.07999,0.080009 0.119994,0.1733425 0.12,0.28 l 0,1.2 c -6e-6,0.1866744 -0.08667,0.3133409 -0.26,0.38 l -0.92,0.3200005 0,3.2 0.64,-0.22 c 0.02666,-0.01333 0.07333,-0.02 0.14,-0.02 0.106661,4e-6 0.199994,0.04 0.28,0.12 0.07999,0.08 0.119994,0.173337 0.12,0.28 l 0,1.2 c -6e-6,0.173335 -0.08667,0.293335 -0.26,0.36 l -0.92,0.34 0,3.16 m -0.74,-8.14 -1.6600005,0.6 0,3.2 1.6600005,-0.6 0,-3.2"
       style=""
       id="path2814" />
  </g>
</svg>
