<?xml version="1.0" encoding="UTF-8" standalone="no"?>
<!-- Created with Inkscape (http://www.inkscape.org/) -->
<svg
   xmlns:svg="http://www.w3.org/2000/svg"
   xmlns="http://www.w3.org/2000/svg"
   version="1.0"
   width="128pt"
   height="128pt"
   viewBox="0 0 507.946 507.946"
   id="svg49"
   xml:space="preserve">
  <defs
   id="defs62">
    <radialGradient
   cx="218.9404"
   cy="219.7715"
   r="150.7063"
   fx="218.9404"
   fy="219.7715"
   id="aigrd1"
   gradientUnits="userSpaceOnUse">
      <stop
   style="stop-color:#73ffff;stop-opacity:1"
   offset="0"
   id="stop53" />
      <stop
   style="stop-color:#2ea6b9;stop-opacity:1"
   offset="0.2809"
   id="stop54" />
      <stop
   style="stop-color:#006b8b;stop-opacity:1"
   offset="1"
   id="stop55" />
    </radialGradient>
  </defs>
  
  <path
   d="M 14.514,0.39 L 14.5497,0.156 L 19.752,0.156 C 22.26,0.156 23.748,0.804 24.216,2.1 C 24.348,2.436 24.414,2.838 24.414,3.306 C 24.414,4.374 24.006,5.172 23.19,5.7 C 22.83,5.94 22.422,6.091 21.966,6.15 L 21.966,6.258 C 23.141,6.354 24,6.834 24.54,7.698 C 24.828,8.166 24.972,8.688 24.972,9.264 C 24.972,10.512 24.414,11.454 23.298,12.09 C 22.53,12.534 21.594,12.756 20.49,12.756 L 14.514,12.756 L 14.514,12.522 L 14.82,12.522 C 15.696,12.522 16.188,12.222 16.296,11.622 L 16.332,11.244 L 16.332,1.668 C 16.332,0.816 15.828,0.39 14.82,0.39 L 14.514,0.39 L 14.514,0.39 z M 18.33,0.948 L 18.33,5.79 C 18.738,5.862 19.11,5.898 19.446,5.898 C 20.838,5.898 21.744,5.394 22.164,4.386 C 22.32,4.026 22.398,3.618 22.398,3.162 C 22.398,2.322 21.99,1.692 21.174,1.272 C 20.682,1.008 20.1,0.876 19.428,0.876 L 18.33,0.948 z M 18.33,6.564 L 18.33,11.82 C 18.774,11.964 19.278,12.036 19.842,12.036 C 21.03,12.036 21.894,11.634 22.434,10.83 C 22.722,10.398 22.866,9.888 22.866,9.3 C 22.866,8.268 22.404,7.5 21.48,6.996 C 20.892,6.672 20.178,6.51 19.338,6.51 L 18.33,6.564 z "
   transform="matrix(35.4698,0,0,35.4698,-457.575,23.0018)"
   style="font-size:12px;fill:#a4c9ee;fill-opacity:0.70196096;stroke:#0c6772;stroke-width:0.44751599;stroke-linejoin:round;stroke-opacity:0.99215698"
   id="path88" />
</svg>