<?xml version="1.0" encoding="UTF-8" standalone="no"?>
<svg
   xmlns:dc="http://purl.org/dc/elements/1.1/"
   xmlns:cc="http://creativecommons.org/ns#"
   xmlns:rdf="http://www.w3.org/1999/02/22-rdf-syntax-ns#"
   xmlns:svg="http://www.w3.org/2000/svg"
   xmlns="http://www.w3.org/2000/svg"
   version="1.1"
   id="svg2"
   height="128"
   width="128">
  <defs
     id="defs4" />
  <metadata
     id="metadata7">
    <rdf:RDF>
      <cc:Work
         rdf:about="">
        <dc:format>image/svg+xml</dc:format>
        <dc:type
           rdf:resource="http://purl.org/dc/dcmitype/StillImage" />
        <dc:title></dc:title>
      </cc:Work>
    </rdf:RDF>
  </metadata>
  <g
     transform="translate(0,-924.36218)"
     id="layer1">
    <g
       transform="matrix(-0.15,0,0,-0.15,95.8,988.36218)"
       id="g4198">
      <path
         style="fill:#3b3f45"
         d="m 67,28 q -28,0 -48,21 -20,21 -20,52 0,55 50,111 50,56 130,56 h 13 v 80 q 1,10 11,10 h 17 q 10,0 10,-10 v -83 q 105,-17 155,-89 50,-72 50,-176 0,-103 -50,-176 -50,-73 -155,-89 v -83 q 0,-10 -10,-10 h -17 q -11,0 -11,10 v 80 q -5,-1 -13,-1 -39,0 -72,16 -34,16 -54,40 -20,25 -34,51 -14,26 -21,44 -6,18 -6,27 0,12 13,12 9,0 12,-10 16,-67 60,-111 44,-44 102,-44 6,0 13,1 v 486 h -13 q -77,-1 -123,-61 5,1 14,1 32,0 53,-24 21,-24 21,-55 Q 144,68 119,48 94,28 67,28 Z m 163,-264 q 41,15 53,58 12,43 12,126 V 0 52 q 0,83 -12,126 -12,43 -53,58 z"
         id="path4200" />
    </g>
  </g>
</svg>
