<svg xmlns="http://www.w3.org/2000/svg" xmlns:svg="http://www.w3.org/2000/svg" id="svg2" width="128" height="128" version="1.1"><metadata id="metadata7"/><g id="layer1" transform="translate(0,-924.36218)"><g id="g4099" transform="matrix(0.15,0,0,-0.15,30,988.36218)"><path id="path4101" fill="#3b3f45" d="m 176,0 q 0,32 24,56 24,24 56,24 32,0 56,-24 24,-24 24,-56 0,-32 -24,-56 -24,-24 -56,-24 -32,0 -56,24 -24,24 -24,56 z m 80,268 q 39,0 72,-16 34,-16 54,-40 20,-24 34,-50 14,-26 21,-46 6,-18 6,-26 0,-12 -13,-12 -9,0 -12,10 -20,69 -59,110 -43,45 -103,45 -88,0 -122,-57 Q 100,129 100,52 V -52 q 0,-124 48,-158 48,-34 108,-34 58,0 102,44 44,44 60,111 3,10 12,10 13,0 13,-12 0,-9 -6,-27 -7,-18 -21,-44 -14,-26 -34,-51 -19,-23 -54,-40 -33,-16 -72,-16 -49,0 -92,13 -41,12 -81,44 -39,30 -61,84 Q 0,-74 0,0 q 0,120 66,194 66,74 190,74 z"/></g></g></svg>