<?xml version="1.0" encoding="UTF-8" standalone="no"?>
<svg
   xmlns:dc="http://purl.org/dc/elements/1.1/"
   xmlns:cc="http://creativecommons.org/ns#"
   xmlns:rdf="http://www.w3.org/1999/02/22-rdf-syntax-ns#"
   xmlns:svg="http://www.w3.org/2000/svg"
   xmlns="http://www.w3.org/2000/svg"
   version="1.1"
   id="svg2"
   height="128"
   width="128">
  <defs
     id="defs4">
         sodipodi:nodetypes=&quot;sssscccssccssssccsscccscccsscccccsscc&quot; /&gt;
    </defs>
  <metadata
     id="metadata7">
    <rdf:RDF>
      <cc:Work
         rdf:about="">
        <dc:format>image/svg+xml</dc:format>
        <dc:type
           rdf:resource="http://purl.org/dc/dcmitype/StillImage" />
        <dc:title></dc:title>
      </cc:Work>
    </rdf:RDF>
  </metadata>
  <g
     transform="translate(0,-924.36218)"
     id="layer1">
    <path
       id="path4068"
       transform="translate(0,924.36218)"
       d="M 62.050781 0.5 C 61.05078 0.5 60.550781 1 60.550781 2 L 60.550781 23.800781 C 49.450781 24.400781 40.900391 28.100391 34.900391 34.900391 C 28.300391 42.400391 25 52.1 25 64 C 25 71.4 26.100781 77.799219 28.300781 83.199219 C 30.500781 88.599219 33.549219 92.800781 37.449219 95.800781 C 41.349219 98.900781 45.399609 101.10039 49.599609 102.40039 C 53.099608 103.40039 56.750781 103.99922 60.550781 104.19922 L 60.550781 126.40039 C 60.550781 127.40039 61.05078 127.90039 62.050781 127.90039 L 64.599609 127.90039 C 65.699608 127.90039 66.25 127.40039 66.25 126.40039 L 66.25 104.19922 C 70.049999 103.99922 73.69922 103.40039 77.199219 102.40039 C 81.19922 101.30039 85.249609 99.100781 89.349609 95.800781 C 93.249609 92.800781 96.299999 88.599219 98.5 83.199219 C 100.7 77.799219 101.80078 71.4 101.80078 64 C 101.80078 51.9 98.500391 42.200391 91.900391 34.900391 C 85.900391 28.100391 77.35 24.400781 66.25 23.800781 L 66.25 2 C 66.25 1 65.699608 0.5 64.599609 0.5 L 62.050781 0.5 z M 60.550781 27.699219 L 60.550781 52.558594 C 58.511019 53.071202 56.657974 54.142807 55 55.800781 C 52.6 58.200781 51.400391 60.999219 51.400391 64.199219 C 51.400391 67.399219 52.6 70.199609 55 72.599609 C 56.657974 74.25759 58.511019 75.329182 60.550781 75.841797 L 60.550781 100.44922 C 55.65078 99.949219 51.19922 98.3 47.199219 95.5 C 42.399219 92.1 40 84.200801 40 71.800781 L 40 56.199219 C 40 43.799219 42.399219 35.9 47.199219 32.5 C 50.999219 29.8 55.450781 28.199219 60.550781 27.699219 z M 66.25 27.699219 C 71.35 28.199219 75.79961 29.8 79.599609 32.5 C 84.399609 35.9 86.800781 43.799219 86.800781 56.199219 L 86.800781 71.800781 C 86.800781 84.200801 84.399609 92.1 79.599609 95.5 C 75.599608 98.3 71.150001 99.949219 66.25 100.44922 L 66.25 75.841797 C 68.28938 75.329082 70.143069 74.257328 71.800781 72.599609 C 74.200781 70.199609 75.400391 67.399219 75.400391 64.199219 C 75.400391 60.999219 74.200781 58.200781 71.800781 55.800781 C 70.143069 54.143069 68.28938 53.071302 66.25 52.558594 L 66.25 27.699219 z "
       style="fill:#3b3f45;stroke-width:0.15000001" />
  </g>
</svg>
