<?xml version="1.0" encoding="UTF-8" standalone="no"?>
<!-- Created with Inkscape (http://www.inkscape.org/) -->

<svg
   xmlns:dc="http://purl.org/dc/elements/1.1/"
   xmlns:cc="http://creativecommons.org/ns#"
   xmlns:rdf="http://www.w3.org/1999/02/22-rdf-syntax-ns#"
   xmlns:svg="http://www.w3.org/2000/svg"
   xmlns="http://www.w3.org/2000/svg"
   xmlns:sodipodi="http://sodipodi.sourceforge.net/DTD/sodipodi-0.dtd"
   xmlns:inkscape="http://www.inkscape.org/namespaces/inkscape"
   width="128"
   height="128"
   id="svg2"
   version="1.1"
   inkscape:version="0.48.3.1 r9886"
   sodipodi:docname="timesig_common.svg">
  <defs
     id="defs4" />
  <sodipodi:namedview
     id="base"
     pagecolor="#3b3f45"
     bordercolor="#666666"
     borderopacity="1.0"
     inkscape:pageopacity="0.0"
     inkscape:pageshadow="2"
     inkscape:zoom="11.313708"
     inkscape:cx="48.126262"
     inkscape:cy="64.204195"
     inkscape:document-units="px"
     inkscape:current-layer="layer1"
     showgrid="true"
     inkscape:window-width="1280"
     inkscape:window-height="974"
     inkscape:window-x="0"
     inkscape:window-y="0"
     inkscape:window-maximized="1">
    <inkscape:grid
       empspacing="5"
       visible="true"
       enabled="true"
       snapvisiblegridlinesonly="true"
       type="xygrid"
       id="grid3085" />
  </sodipodi:namedview>
  <metadata
     id="metadata7">
    <rdf:RDF>
      <cc:Work
         rdf:about="">
        <dc:format>image/svg+xml</dc:format>
        <dc:type
           rdf:resource="http://purl.org/dc/dcmitype/StillImage" />
        <dc:title />
      </cc:Work>
    </rdf:RDF>
  </metadata>
  <g
     inkscape:label="Layer 1"
     inkscape:groupmode="layer"
     id="layer1"
     transform="translate(0,-924.36218)">
    <g
       id="g2987"
       transform="matrix(0.15,0,0,-0.15,30,988.36218)">
      <path
         id="path2989"
         d="M 368,28 Q 342,28 316.5,47.5 291,67 291,104 q 0,31 20.5,55 20.5,24 53.5,24 9,0 14,-1 -46,60 -123,61 -32,0 -54,-9.5 Q 180,224 168.5,210 157,196 150,168.5 143,141 141.5,116.5 140,92 140,52 V 0 -52 q 0,-40 1.5,-65 1.5,-25 8.5,-52 7,-27 18.5,-41 11.5,-14 33.5,-24 22,-10 54,-10 59,0 102.5,44.5 43.5,44.5 59.5,110.5 3,10 12,10 13,0 13,-12 0,-8 -6,-26.5 -6,-18.5 -20.5,-45 -14.5,-26.5 -35,-50.5 -20.5,-24 -53.5,-40 -33,-16 -72,-16 -49,0 -92,13.5 -43,13.5 -81,43.5 -38,30 -60.5,84.5 Q 0,-73 0,0 0,121 65.5,194.5 131,268 256,268 337,268 386.5,211.5 436,155 436,101 436,70 416.5,49 397,28 368,28 z"
         inkscape:connector-curvature="0"
         style="fill:#3b3f45" />
    </g>
  </g>
</svg>
