<svg xmlns="http://www.w3.org/2000/svg" xmlns:svg="http://www.w3.org/2000/svg" id="svg2" width="128" height="128" version="1.1"><metadata id="metadata7"/><g id="layer1" transform="translate(0,-924.36218)"><g id="g4066" transform="matrix(0.15,0,0,-0.15,25,988.36218)"><path id="path4068" fill="#3b3f45" d="m 275,-416 c 0,-6.66667 -3.66667,-10 -11,-10 l -17,0 c -6.66667,0 -10,3.33333 -10,10 l 0,148 c -25.33333,1.33333 -49.66667,5.33333 -73,12 -28,8.66667 -55,23.33333 -81,44 -26,20 -46.333333,48 -61,84 C 7.3333333,-92 0,-49.333333 0,0 c 0,79.333333 22,144 66,194 40,45.33333 97,70 171,74 l 0,145.33333 c 0,6.66667 3.33333,10 10,10 l 17,0 c 7.33333,0 11,-3.33333 11,-10 L 275,268 c 74,-4 131,-28.66667 171,-74 44,-48.66667 66,-113.333333 66,-194 0,-49.333333 -7.33333,-92 -22,-128 -14.66667,-36 -35,-64 -61,-84 -27.33333,-22 -54.33333,-36.66667 -81,-44 -23.33333,-6.66667 -47.66667,-10.66667 -73,-12 z m 0,658 0,-485 c 32.66667,3.33333 62.33333,14.33333 89,33 32,22.66667 48,75.33333 48,158 l 0,104 c 0,82.66667 -16,135.33333 -48,158 -25.33333,18 -55,28.66667 -89,32 z m -38,-485 0,485 C 203,238.66667 173.33333,228 148,210 116,187.33333 100,134.66667 100,52 l 0,-104 c 0,-82.66667 16,-135.33333 48,-158 26.66667,-18.66667 56.33333,-29.66667 89,-33 z"/>sodipodi:nodetypes=&quot;sssscccssccssssccsscccscccsscccccsscc&quot; /&gt;</g></g></svg>