<svg xmlns="http://www.w3.org/2000/svg" xmlns:svg="http://www.w3.org/2000/svg" id="svg2" width="128" height="128" version="1.1"><metadata id="metadata7"/><g id="layer1" transform="translate(0,-924.36218)"><g id="g3110" transform="matrix(0.15,0,0,-0.15,30,987.36218)"><path id="path3112" fill="#3b3f45" d="m 368,21.333333 q -26,0 -51.5,19.5 -25.5,19.5 -25.5,56.5 0,30.999997 20.5,54.999997 20.5,24 53.5,24 9,0 14,-1 -46,60 -123,61 h -13 v -486 q 2,0 6.5,-0.5 4.5,-0.5 6.5,-0.5 59,0 102.5,44.5 43.5,44.5 59.5,110.500003 3,10 12,10 13,0 13,-12 0,-8.000003 -6,-26.500003 -6,-18.5 -20.5,-45 -14.5,-26.5 -35,-50.5 -20.5,-24 -53.5,-40 -33,-16 -72,-16 -2,0 -6.5,0.5 -4.5,0.5 -6.5,0.5 v -80 q 0,-10 -11,-10 h -17 q -10,0 -10,10 v 83 q -104,16 -154.5,89 Q 0,-109.66667 0,-6.6666667 0,97.333333 49.5,169.83333 q 49.5,72.5 155.5,88.5 v 83 q 0,10 10,10 h 17 q 10,0 11,-10 v -80 h 13 q 81,0 130.5,-56.5 49.5,-56.5 49.5,-110.499997 0,-31 -19.5,-52 -19.5,-21 -48.5,-21 z M 205,-242.66667 v 472 q -41,-15 -53,-58 -12,-43 -12,-125.999997 V -6.6666667 -58.666667 q 0,-83.000003 12,-126.000003 12,-43 53,-58 z"/></g></g></svg>