<svg xmlns="http://www.w3.org/2000/svg" xmlns:svg="http://www.w3.org/2000/svg" id="svg2" width="128" height="128" version="1.1"><metadata id="metadata7"/><g id="layer1" transform="translate(0,-924.36218)"><g id="g4132" transform="matrix(0.15,0,0,-0.15,34.75,988.36218)"><path id="path4134" fill="#3b3f45" d="m 67,28 q -28,0 -48,21 -20,21 -20,52 0,55 50,111 50,56 130,56 124,0 190,-74 66,-74 66,-194 0,-74 -22,-128 -22,-54 -61,-84 -40,-32 -81,-44 -43,-13 -92,-13 -39,0 -72,16 -35,17 -54,40 -20,25 -34,51 -14,26 -21,44 -6,18 -6,27 0,12 13,12 9,0 12,-10 16,-67 60,-111 44,-44 102,-44 32,0 54,10 22,10 34,24 12,14 18,41 6,27 8,52 2,25 2,65 V 0 52 q 0,40 -2,64 -2,24 -8,52 -6,28 -18,42 -12,15 -34,24 -22,9 -54,9 -77,0 -123,-61 5,1 14,1 32,0 53,-24 21,-24 21,-55 Q 144,68 119,48 94,28 67,28 z"/></g></g></svg>