<?xml version="1.0" encoding="UTF-8" standalone="no"?>
<!-- Created with Inkscape (http://www.inkscape.org/) -->

<svg
   xmlns:dc="http://purl.org/dc/elements/1.1/"
   xmlns:cc="http://creativecommons.org/ns#"
   xmlns:rdf="http://www.w3.org/1999/02/22-rdf-syntax-ns#"
   xmlns:svg="http://www.w3.org/2000/svg"
   xmlns="http://www.w3.org/2000/svg"
   xmlns:sodipodi="http://sodipodi.sourceforge.net/DTD/sodipodi-0.dtd"
   xmlns:inkscape="http://www.inkscape.org/namespaces/inkscape"
   width="128"
   height="128"
   id="svg2"
   version="1.1"
   inkscape:version="0.48.3.1 r9886"
   sodipodi:docname="timesig_prolatio04.svg">
  <defs
     id="defs4" />
  <sodipodi:namedview
     id="base"
     pagecolor="#ffffff"
     bordercolor="#666666"
     borderopacity="1.0"
     inkscape:pageopacity="0.0"
     inkscape:pageshadow="2"
     inkscape:zoom="11.313708"
     inkscape:cx="65.53472"
     inkscape:cy="59.807379"
     inkscape:document-units="px"
     inkscape:current-layer="layer1"
     showgrid="true"
     inkscape:window-width="1280"
     inkscape:window-height="974"
     inkscape:window-x="0"
     inkscape:window-y="0"
     inkscape:window-maximized="1"
     inkscape:snap-grids="true">
    <inkscape:grid
       empspacing="5"
       visible="true"
       enabled="true"
       snapvisiblegridlinesonly="true"
       type="xygrid"
       id="grid3085" />
  </sodipodi:namedview>
  <metadata
     id="metadata7">
    <rdf:RDF>
      <cc:Work
         rdf:about="">
        <dc:format>image/svg+xml</dc:format>
        <dc:type
           rdf:resource="http://purl.org/dc/dcmitype/StillImage" />
        <dc:title></dc:title>
      </cc:Work>
    </rdf:RDF>
  </metadata>
  <g
     inkscape:label="Layer 1"
     inkscape:groupmode="layer"
     id="layer1"
     transform="translate(0,-924.36218)">
    <g
       id="g4099"
       transform="matrix(0.15,0,0,-0.15,30,988.36218)">
      <path
         id="path4101"
         d="m 176,0 q 0,32 24,56 24,24 56,24 32,0 56,-24 24,-24 24,-56 0,-32 -24,-56 -24,-24 -56,-24 -32,0 -56,24 -24,24 -24,56 z m 80,268 q 39,0 72,-16 34,-16 54,-40 20,-24 34,-50 14,-26 21,-46 6,-18 6,-26 0,-12 -13,-12 -9,0 -12,10 -20,69 -59,110 -43,45 -103,45 -88,0 -122,-57 Q 100,129 100,52 V -52 q 0,-124 48,-158 48,-34 108,-34 58,0 102,44 44,44 60,111 3,10 12,10 13,0 13,-12 0,-9 -6,-27 -7,-18 -21,-44 -14,-26 -34,-51 -19,-23 -54,-40 -33,-16 -72,-16 -49,0 -92,13 -41,12 -81,44 -39,30 -61,84 Q 0,-74 0,0 q 0,120 66,194 66,74 190,74 z"
         inkscape:connector-curvature="0"
         style="fill:#3b3f45" />
    </g>
  </g>
</svg>
