<?xml version="1.0" encoding="UTF-8" standalone="no"?>
<!-- Created with Inkscape (http://www.inkscape.org/) -->

<svg
   xmlns:dc="http://purl.org/dc/elements/1.1/"
   xmlns:cc="http://creativecommons.org/ns#"
   xmlns:rdf="http://www.w3.org/1999/02/22-rdf-syntax-ns#"
   xmlns:svg="http://www.w3.org/2000/svg"
   xmlns="http://www.w3.org/2000/svg"
   xmlns:sodipodi="http://sodipodi.sourceforge.net/DTD/sodipodi-0.dtd"
   xmlns:inkscape="http://www.inkscape.org/namespaces/inkscape"
   width="128"
   height="128"
   id="svg2"
   version="1.1"
   inkscape:version="0.48.3.1 r9886"
   sodipodi:docname="timesig_prolatio03.svg">
  <defs
     id="defs4" />
  <sodipodi:namedview
     id="base"
     pagecolor="#ffffff"
     bordercolor="#666666"
     borderopacity="1.0"
     inkscape:pageopacity="0.0"
     inkscape:pageshadow="2"
     inkscape:zoom="11.313708"
     inkscape:cx="49.010315"
     inkscape:cy="63.335364"
     inkscape:document-units="px"
     inkscape:current-layer="layer1"
     showgrid="true"
     inkscape:window-width="1280"
     inkscape:window-height="974"
     inkscape:window-x="0"
     inkscape:window-y="0"
     inkscape:window-maximized="1"
     inkscape:snap-grids="true">
    <inkscape:grid
       empspacing="5"
       visible="true"
       enabled="true"
       snapvisiblegridlinesonly="true"
       type="xygrid"
       id="grid3085" />
  </sodipodi:namedview>
  <metadata
     id="metadata7">
    <rdf:RDF>
      <cc:Work
         rdf:about="">
        <dc:format>image/svg+xml</dc:format>
        <dc:type
           rdf:resource="http://purl.org/dc/dcmitype/StillImage" />
        <dc:title />
      </cc:Work>
    </rdf:RDF>
  </metadata>
  <g
     inkscape:label="Layer 1"
     inkscape:groupmode="layer"
     id="layer1"
     transform="translate(0,-924.36218)">
    <g
       id="g3265"
       transform="matrix(0.15,0,0,-0.15,25,987.36218)">
      <path
         id="path3267"
         d="m 275,-428 c 0,-6.66667 -3.66667,-10 -11,-10 l -17,0 c -6.66667,0 -10,3.33333 -10,10 l 0,153.33334 c -25.33333,1.33333 -49.66667,5.33333 -73,12 -28,8.66667 -55,23.33333 -81,44 -25.333333,20 -45.5,48.16667 -60.5,84.5 C 7.5,-97.833331 0,-55.333333 0,-6.6666667 0,72.666671 22,137.33334 66,187.33334 c 40,45.33333 97,70 171,74 L 237,408 c 0,6.66667 3.33333,10 10,10 l 17,0 c 7.33333,0 11,-3.33333 11,-10 l 0,-146.66666 c 74,-4 131,-28.66667 171,-74 44,-48.66667 66,-113.333336 66,-194.0000067 0,-48.6666663 -7.5,-91.1666643 -22.5,-127.4999933 -15,-36.33333 -35.16667,-64.5 -60.5,-84.5 -27.33333,-22 -54.33333,-36.66667 -81,-44 -23.33333,-6.66667 -47.66667,-10.66667 -73,-12 z M 176,-6.6666667 c 0,21.3333337 8,40.0000007 24,56.0000007 10.66667,10.666667 23,18 37,22 l 0,164.000006 c -34,-3.33333 -63.66667,-14 -89,-32 C 116,180.66667 100,128 100,45.333334 l 0,-104 c 0,-82.666664 16,-135.333324 48,-157.999994 26.66667,-18.66667 56.33333,-29.66667 89,-33 l 0,164.999994 c -14,4 -26.33333,11.333333 -37,22 -16,16 -24,34.666666 -24,55.9999993 z m 99,-77.9999993 0,-164.999994 c 32.66667,3.33333 62.33333,14.33333 89,33 32,22.66667 48,75.33333 48,157.999994 l 0,104 C 412,128 396,180.66667 364,203.33334 c -25.33333,18 -55,28.66667 -89,32 l 0,-164.000006 c 14,-4 26.33333,-11.333333 37,-22 16,-16 24,-34.666667 24,-56.0000007 C 336,-28 328,-46.666666 312,-62.666666 c -10.66667,-10.666667 -23,-18 -37,-22 z"
         inkscape:connector-curvature="0"
         style="fill:#3b3f45" />
         sodipodi:nodetypes="sssscccssccssssccsscccssscccsscccsscccsscccsssc" />
    </g>
  </g>
</svg>
