<svg xmlns="http://www.w3.org/2000/svg" xmlns:svg="http://www.w3.org/2000/svg" id="svg2" width="128" height="128" version="1.1"><metadata id="metadata7"/><g id="layer1" transform="translate(0,-924.36218)"><g id="g3199" transform="matrix(0.15,0,0,-0.15,25,988.36218)"><path id="path3201" fill="#3b3f45" d="m 176,0 q 0,32 24,56 24,24 56,24 32,0 56,-24 24,-24 24,-56 0,-32 -24,-56 -24,-24 -56,-24 -32,0 -56,24 -24,24 -24,56 z m 80,-244 q 60,0 108,34 48,35 48,158 V 52 q 0,123 -48,157 -48,34 -108,34 -60,0 -108,-34 Q 100,175 100,52 V -52 q 0,-124 48,-158 48,-34 108,-34 z m 0,512 q 124,0 190,-74 66,-74 66,-194 0,-74 -22,-128 -22,-54 -61,-84 -40,-31 -81,-44 -43,-13 -92,-13 -49,0 -92,13 -41,13 -81,44 -39,30 -61,84 Q 0,-74 0,0 q 0,120 66,194 66,74 190,74 z"/></g></g></svg>