<svg xmlns="http://www.w3.org/2000/svg" xmlns:svg="http://www.w3.org/2000/svg" id="svg2" width="128" height="128" version="1.1"><metadata id="metadata7"/><g id="layer1" transform="translate(0,-924.36218)"><g id="g4231" transform="matrix(0.15,0,0,-0.15,31.75,988.36218)"><path id="path4233" fill="#3b3f45" d="m 259,0 q 0,-32 -24,-56 -24,-24 -56,-24 -32,0 -56,24 -24,24 -24,56 0,32 24,56 24,24 56,24 32,0 56,-24 24,-24 24,-56 z m -80,268 q 124,0 190,-74 66,-74 66,-194 0,-74 -22,-128 -22,-54 -61,-84 -40,-31 -81,-44 -42,-13 -92,-13 -39,0 -72,16 -38,18 -54,40 -20,25 -34,51 -14,26 -21,44 -6,18 -6,27 0,12 13,12 9,0 12,-10 16,-67 60,-111 44,-44 102,-44 60,0 108,34 48,34 48,158 V 52 q 0,77 -34,134 -34,57 -122,57 Q 119,243 76,198 37,157 17,88 14,78 5,78 -8,78 -8,90 q 0,8 6,26 7,20 21,46 14,26 34,50 20,24 54,40 33,16 72,16 z"/></g></g></svg>