<svg width="512" height="512" viewBox="0 0 512 512" fill="none" xmlns="http://www.w3.org/2000/svg">
<path d="M83 10H73V20V492V502H83H431H441V492V120V115.957L438.19 113.05L341.523 13.0498L338.575 10H334.333H83Z" fill="#000076" stroke="#19F3FF" stroke-width="20"/>
<path d="M170.744 434V391.868H181.401L193.73 424.954L206.122 391.868H216.717V434H209.344V401.658L196.952 434H190.261L177.807 401.41V434H170.744ZM242.451 434.62C232.29 434.62 226.094 430.84 224.731 422.414L232.661 422.352C233.715 426.007 236.441 428.114 242.637 428.114C248.708 428.114 251.868 425.822 251.868 422.352C251.868 419.378 250.319 417.829 245.673 417.023L238.361 415.722C230.555 414.359 226.218 411.199 226.218 403.826C226.218 396.02 232.723 391.249 242.575 391.249C252.922 391.249 258.064 395.772 259.241 403.207L251.373 403.269C250.567 400.171 248.089 397.754 242.451 397.754C236.936 397.754 233.839 400.295 233.839 403.579C233.839 406.614 235.697 408.163 240.654 408.969L248.523 410.394C255.648 411.695 259.489 415.165 259.489 422.042C259.489 430.159 252.86 434.62 242.451 434.62ZM285.833 434.62C273.565 434.62 265.696 426.875 265.696 412.996C265.696 398.684 273.937 391.249 285.895 391.249C296.613 391.249 302.809 396.453 304.358 405.437H296.737C295.498 401.038 292.214 398.002 285.895 398.002C277.964 398.002 273.379 403.64 273.379 412.996C273.379 422.228 277.964 427.866 285.771 427.866C292.276 427.866 295.622 424.892 296.799 420.369H304.482C302.747 429.539 296.551 434.62 285.833 434.62ZM307.51 434L322.628 412.191L308.129 391.868H317.423L327.77 406.986L337.745 391.868H346.791L332.355 412.81L347.411 434H338.117L327.212 417.891L316.556 434H307.51Z" fill="white"/>
<path d="M180.118 195.913C177.755 188.445 176.484 180.522 176.484 172.316C176.484 127.406 214.543 91 261.492 91C288.598 91 312.741 103.136 328.307 122.037H328.307C332.783 126.951 335.515 133.502 335.515 140.695C335.515 155.943 323.239 168.304 308.096 168.304C292.953 168.304 280.677 155.943 280.677 140.695C280.677 125.447 292.953 113.086 308.096 113.086C308.305 113.086 308.514 113.089 308.722 113.093C299.667 106.16 288.368 102.044 276.114 102.044C246.336 102.044 222.196 126.351 222.196 156.335C222.196 171.941 228.736 186.009 239.206 195.913H180.118Z" fill="#19F3FF"/>
<path d="M341 256.559C341 250.93 340.45 245.424 339.399 240.087H272.348C280.943 250.049 286.162 263.163 286.162 277.531C286.162 308.694 261.61 333.956 231.324 333.956C219.117 333.956 207.841 329.852 198.729 322.912C213.73 322.745 225.838 310.449 225.838 295.305C225.838 280.057 213.562 267.696 198.419 267.696C183.276 267.696 171 280.057 171 295.305C171 302.353 173.623 308.784 177.939 313.663C194.899 332.831 220.235 345 248.543 345C299.606 345 341 305.404 341 256.559Z" fill="#19F3FF"/>
<path d="M310.837 195.912H250.515L201.16 240.086H261.483L310.837 195.912Z" fill="#19F3FF"/>
</svg>
