<svg width="30" height="18" viewBox="0 0 30 18" fill="none" xmlns="http://www.w3.org/2000/svg">
<path d="M4.75 0V13.3C4.5 13.2 4.2 13.15 3.85 13.15C1.75 13.15 0 14.7 0 16.4C0 17.4 0.85 18 1.9 18C3.65 18 5.75 16.55 5.75 14.9V7.4L16.75 4.75V13.25C16.5 13.15 16.2 13.1 15.85 13.1C13.75 13.1 12 14.65 12 16.35C12 17.35 12.85 17.95 13.9 17.95C15.65 17.95 17.75 16.5 17.75 14.85V4.55L28.3 2L28.75 1.9V13.3C28.5 13.2 28.2 13.15 27.85 13.15C25.75 13.15 24 14.7 24 16.4C24 17.4 24.85 18 25.9 18C27.65 18 29.75 16.55 29.75 14.9V0H4.75ZM5.75 2H14.6L5.75 3.05V2ZM5.75 5.85V4.55L16.5 3.3L5.75 5.85Z" fill="black"/>
</svg>
