<svg width="14" height="25" viewBox="0 0 14 25" fill="none" xmlns="http://www.w3.org/2000/svg">
<path d="M14 15.2C14 17.1 13.4 19.4 13.4 19.4C13.3 19.7 13.1 19.9 12.8 19.9C12.7 19.8 12.4 19.6 12.4 19.2C12.4 19.1 12.4 19 12.5 18.8C12.9 17.7 13.1 16.5 13.1 15.4C13.1 14 12.9 12.6 12.5 11.7C11.6 10 9.7 7.3 8.2 6.4V20.1C8.2 22.4 5.2 24.7 2.7 24.7C1.2 24.7 0 23.8 0 22.4C0 20 2.4 17.8 5.4 17.8C6.2 17.8 6.9 18 7.4 18.4V6.1V0.4V0.3C7.5 0 7.6 0 7.7 0C8.2 0 8.4 0.1 8.4 0.5C8.9 2.9 9.9 4.9 11.1 6.8C12.7 9.3 14 12.2 14 15.2Z" fill="black"/>
</svg>
