<svg id="Layer_1" data-name="Layer 1" xmlns="http://www.w3.org/2000/svg" viewBox="0 0 818.54 818.54"><defs><style>.cls-1{fill:#1a70b8;}.cls-2{fill:#fff;}</style></defs><title>musescore_sticker</title><circle class="cls-1" cx="409.27" cy="409.27" r="409.27"/><path class="cls-2" d="M452.43,481.35c1-1.08,1.84-1.9,2.59-2.78,17.18-20,38.87-32.5,64.78-36.39C560.78,436,603,456,621.2,499.69a116.15,116.15,0,0,1,9.17,41.05c.68,21,1,42.08,1.69,63.12.5,14.26,2.11,28.39,7.86,41.71,9.91,23,27.36,35.84,52,39.68,28.89,4.5,69-12.14,76.14-58.21a153.21,153.21,0,0,0,1.6-22.66c.15-43.86.07-87.73.08-131.59,0-7.46,3-13.28,9.91-16.39,7.28-3.26,14.37-2.49,20.59,2.68,5.07,4.21,5.93,10.17,5.93,16.31,0,30.67.08,61.34,0,92,0,17.05.33,34.15-.75,51.15-3.29,52.16-33.77,92.83-86.85,102C669.68,729,616,703.77,601.25,644.25A192.79,192.79,0,0,1,596.34,608c-1.17-22.35-.76-44.78-2-67.13-1-18.3-6.32-35.42-21.49-47.26C540,468,489.58,478.89,474.37,524.79c-3,9.08-3.86,18.49-3.88,28-.09,50.26,0,100.52-.06,150.79,0,10.14-5.72,16.71-15.74,18.42-9.83,1.68-19.94-6.36-20.1-16.31-.2-12.13-.09-24.27-.09-36.4,0-38.8.07-77.6-.05-116.4,0-11.75-1.51-23.31-6.21-34.32-10.46-24.55-34.2-40-60.42-38.32-25.95,1.62-45.18,14-53.21,44.62a128.54,128.54,0,0,0-4.08,31.11c-.43,48.66-.22,97.33-.2,146,0,6.14-1.58,11.66-6.39,15.73-5.67,4.8-12.19,5.88-19,3-7.22-3.08-10.64-9-11-16.68-.23-4.65-.05-9.33-.05-14,0-42.79-.08-85.59,0-128.39.05-19.11,2-38,8.73-56.1,12.94-35,37.64-55.79,74.95-60.38,33.35-4.1,62.67,5.23,87.42,28.18C447.57,475.67,449.81,478.48,452.43,481.35Z" transform="translate(-130.73 -130.73)"/><path class="cls-2" d="M698.36,321.84c-36.05-.17-62.65,26.51-68.72,59.4a139.82,139.82,0,0,0-1.6,15.87c-.7,10.29-8.18,18-17.74,18.05s-17.77-8-18.07-18.25c-1.36-47.39,27.13-92.67,75.08-106.28,41.23-11.7,77.83-2.55,108,28.24,17.64,18,26.8,40.36,28.66,65.54a73.44,73.44,0,0,1-.17,16.24c-1.29,8.47-8.84,14.39-17.16,14.51a17.78,17.78,0,0,1-17.53-14.64c-1-5.6-1-11.36-1.71-17a70.19,70.19,0,0,0-53.27-59.55C709,322.75,703.62,322.52,698.36,321.84Z" transform="translate(-130.73 -130.73)"/><path class="cls-2" d="M701.51,419.31c-12.94,0-23.93-10.93-23.54-23.73a23.76,23.76,0,0,1,24.25-23.45c12.83.56,23.29,10.69,23.32,23.56A23.67,23.67,0,0,1,701.51,419.31Z" transform="translate(-130.73 -130.73)"/></svg>
